<svg xmlns="http://www.w3.org/2000/svg" viewBox="0 0 178.78 249.65"><defs><style>.cls-1{fill:#fff;stroke:#000;stroke-width:1px;}</style></defs><title>10C</title><g id="Layer_2" data-name="Layer 2"><g id="svg11376"><g id="_10C" data-name="10C"><rect id="rect6355-6-85-3-6-8-7" class="cls-1" x="0.5" y="0.5" width="177.79" height="248.65" rx="8.5" ry="8.5"/><path id="path147-0-8-1-6-13-2-22-1-5" d="M130.62,26.9c-7.82.17-11.33,9-5.53,15.81.84,1,.93,1.57-.61.61-3.9-2.61-11.37-.89-11.76,7.08-.47,9.82,13.25,12.65,15.83,2.21.14-1.1,1-1.08.82.49A32.5,32.5,0,0,1,126,65.18h9.3a32.51,32.51,0,0,1-3.38-12.08c-.22-1.56.68-1.59.82-.49,2.58,10.44,16.3,7.61,15.83-2.21-.38-8-7.86-9.68-11.76-7.08-1.54,1-1.45.39-.61-.61,5.79-6.84,2.29-15.64-5.53-15.81h0Z"/><path id="path147-0-8-1-6-75-2-83-21-1-8" d="M48.16,26.9c-7.82.17-11.33,9-5.53,15.81.84,1,.93,1.57-.61.61-3.9-2.61-11.38-.89-11.76,7.08-.47,9.82,13.25,12.65,15.83,2.21.14-1.1,1-1.08.82.49a32.49,32.49,0,0,1-3.38,12.08h9.3A32.49,32.49,0,0,1,49.43,53.1c-.22-1.56.68-1.59.82-.49,2.58,10.44,16.3,7.61,15.83-2.21-.38-8-7.86-9.68-11.76-7.08-1.54,1-1.45.39-.61-.61C59.49,35.88,56,27.07,48.17,26.9h0Z"/><path id="path147-0-8-1-6-7-5-5-7-3-5-5" d="M130.62,223.41c-7.82-.17-11.33-9-5.53-15.81.84-1,.93-1.57-.61-.61-3.9,2.61-11.37.89-11.76-7.08-.47-9.82,13.25-12.65,15.83-2.21.14,1.1,1,1.08.82-.49A32.5,32.5,0,0,0,126,185.13h9.3a32.51,32.51,0,0,0-3.38,12.08c-.22,1.56.68,1.59.82.49,2.58-10.44,16.3-7.61,15.83,2.21-.38,8-7.86,9.69-11.76,7.08-1.54-1-1.45-.39-.61.61,5.79,6.84,2.29,15.64-5.53,15.81h0Z"/><path id="path147-0-8-1-6-75-6-1-2-7-9-3" d="M48.16,223.41c-7.82-.17-11.33-9-5.53-15.81.84-1,.93-1.57-.61-.61-3.9,2.61-11.38.89-11.76-7.08-.47-9.82,13.25-12.65,15.83-2.21.14,1.1,1,1.08.82-.49a32.49,32.49,0,0,0-3.38-12.08h9.3a32.49,32.49,0,0,0-3.38,12.08c-.22,1.56.68,1.59.82.49,2.58-10.44,16.3-7.61,15.83,2.21-.38,8-7.86,9.69-11.76,7.08-1.54-1-1.45-.39-.61.61,5.79,6.84,2.28,15.64-5.54,15.81h0Z"/><path id="path147-0-8-1-6-2-00-7-1-1-4" d="M89.39,53.27c-7.82.17-11.33,9-5.54,15.81.84,1,.93,1.57-.61.61-3.9-2.61-11.38-.89-11.76,7.08C71,86.59,84.73,89.43,87.31,79c.14-1.1,1-1.08.82.49a32.49,32.49,0,0,1-3.38,12.08H94a32.51,32.51,0,0,1-3.38-12.08c-.22-1.56.68-1.59.82-.49,2.58,10.44,16.3,7.61,15.83-2.21-.38-8-7.86-9.69-11.76-7.08-1.54,1-1.45.39-.61-.61,5.79-6.84,2.29-15.64-5.53-15.81h0Z"/><path id="path147-0-8-1-6-2-0-8-6-8-1-8" d="M89.39,197c-7.82-.17-11.33-9-5.54-15.81.84-1,.93-1.57-.61-.61-3.9,2.61-11.38.89-11.76-7.08-.47-9.82,13.25-12.65,15.83-2.21.14,1.1,1,1.08.82-.49a32.49,32.49,0,0,0-3.38-12.08H94a32.52,32.52,0,0,0-3.38,12.08c-.22,1.56.68,1.59.82.49,2.58-10.44,16.3-7.61,15.83,2.21-.38,8-7.86,9.68-11.76,7.08-1.54-1-1.45-.39-.61.61,5.79,6.84,2.29,15.64-5.53,15.81h0Z"/><path id="path147-6-9-8-7-0-5-6-83-3-7" d="M164.57,209.3c3.13-.07,4.53-3.74,2.21-6.59-.34-.42-.37-.65.24-.25,1.56,1.09,4.55.37,4.7-2.95.19-4.09-5.3-5.27-6.33-.92-.05.46-.41.45-.33-.2a14,14,0,0,1,1.35-5h-3.72a14,14,0,0,1,1.35,5c.09.65-.27.66-.33.2-1-4.35-6.52-3.17-6.33.92.15,3.32,3.14,4,4.7,2.95.62-.4.58-.16.25.25-2.32,2.85-.91,6.52,2.21,6.59h0Z"/><path id="path147-0-8-1-6-75-2-9-77-44-0-7" d="M48.16,79.64c-7.82.17-11.33,9-5.53,15.81.84,1,.93,1.57-.61.61-3.9-2.61-11.38-.89-11.76,7.08-.47,9.82,13.25,12.65,15.83,2.21.14-1.1,1-1.08.82.49a32.49,32.49,0,0,1-3.38,12.08h9.3a32.49,32.49,0,0,1-3.38-12.08c-.22-1.56.68-1.59.82-.49,2.58,10.44,16.3,7.61,15.83-2.21-.38-8-7.86-9.68-11.76-7.08-1.54,1-1.45.39-.61-.61,5.79-6.84,2.28-15.64-5.54-15.81h0Z"/><path id="path147-0-8-1-6-75-2-8-0-3-9-3" d="M48.16,170.67c-7.82-.17-11.33-9-5.53-15.81.84-1,.93-1.57-.61-.61-3.9,2.61-11.38.89-11.76-7.08-.47-9.82,13.25-12.65,15.83-2.21.14,1.1,1,1.08.82-.49a32.49,32.49,0,0,0-3.38-12.08h9.3a32.49,32.49,0,0,0-3.38,12.08c-.22,1.56.68,1.59.82.49,2.58-10.44,16.3-7.61,15.83,2.21-.38,8-7.86,9.69-11.76,7.08-1.54-1-1.45-.39-.61.61,5.79,6.84,2.28,15.64-5.54,15.81h0Z"/><path id="path147-0-8-1-6-75-2-9-7-1-9-7-9" d="M130.62,79.64c-7.82.17-11.33,9-5.53,15.81.84,1,.93,1.57-.61.61-3.9-2.61-11.37-.89-11.76,7.08-.47,9.82,13.25,12.65,15.83,2.21.14-1.1,1-1.08.82.49A32.51,32.51,0,0,1,126,117.92h9.3a32.51,32.51,0,0,1-3.38-12.08c-.22-1.56.68-1.59.82-.49,2.58,10.44,16.3,7.61,15.83-2.21-.38-8-7.86-9.68-11.76-7.08-1.54,1-1.45.39-.61-.61,5.79-6.84,2.29-15.64-5.53-15.81h0Z"/><path id="path147-0-8-1-6-75-2-8-5-1-52-2-8" d="M130.62,170.67c-7.82-.17-11.33-9-5.53-15.81.84-1,.93-1.57-.61-.61-3.9,2.61-11.37.89-11.76-7.08-.47-9.82,13.25-12.65,15.83-2.21.14,1.1,1,1.08.82-.49A32.5,32.5,0,0,0,126,132.39h9.3a32.51,32.51,0,0,0-3.38,12.08c-.22,1.56.68,1.59.82.49,2.58-10.44,16.3-7.61,15.83,2.21-.38,8-7.86,9.69-11.76,7.08-1.54-1-1.45-.39-.61.61,5.79,6.84,2.29,15.64-5.53,15.81h0Z"/><path id="path147-6-9-8-7-4-5-62-52-8-0" d="M14.21,40.35c-3.13.07-4.53,3.74-2.21,6.59.34.42.37.65-.24.25C10.19,46.1,7.2,46.82,7,50.14c-.19,4.09,5.3,5.27,6.33.92.05-.46.41-.45.33.2a14,14,0,0,1-1.35,5h3.72a14,14,0,0,1-1.35-5c-.09-.65.27-.66.33-.2,1,4.35,6.52,3.17,6.33-.92-.15-3.32-3.14-4-4.7-2.95-.62.4-.58.16-.24-.25,2.32-2.85.91-6.52-2.21-6.59h0Z"/><path id="path31-6-7-6" d="M6.23,37.85V11.53H8.78V37.85Z"/><path id="path33-9-3-6" d="M16.33,11.53c-2.45,0-4.42,2.24-4.42,5V32.82c0,2.79,2,5,4.42,5h1.43c2.45,0,4.43-2.24,4.43-5V16.56c0-2.79-2-5-4.43-5ZM17.07,14a2.55,2.55,0,0,1,2.61,2.5V33a2.62,2.62,0,0,1-5.23,0V16.52A2.56,2.56,0,0,1,17.07,14Z"/><path id="path31-1-4-0-7" d="M172.55,211.8v26.32H170V211.8Z"/><path id="path33-5-7-4-0" d="M162.45,238.11c2.45,0,4.42-2.24,4.42-5V216.83c0-2.79-2-5-4.42-5H161c-2.45,0-4.43,2.24-4.43,5v16.26c0,2.79,2,5,4.43,5Zm-.74-2.49a2.55,2.55,0,0,1-2.61-2.5V216.65a2.62,2.62,0,0,1,5.23,0v16.47a2.55,2.55,0,0,1-2.62,2.5Z"/></g></g></g></svg>