<svg xmlns="http://www.w3.org/2000/svg" viewBox="0 0 178.79 249.65"><defs><style>.cls-1{fill:#fff;stroke:#000;stroke-width:1px;}.cls-2{fill:#d40000;}</style></defs><title>10H</title><g id="Layer_2" data-name="Layer 2"><g id="svg11376"><g id="_10H" data-name="10H"><g id="g10276-9-9"><rect id="rect10278-0-6" class="cls-1" x="0.5" y="0.5" width="177.79" height="248.65" rx="8.5" ry="8.5"/></g><path id="path10308-5-1" class="cls-2" d="M48.16,117.59s-3.72-6.11-8.73-13.28c-3.35-4.8-6-10-6.28-14.48-.29-5.12,2.42-10.25,7.32-10.5s6.88,3.95,7.69,7.4c.81-3.46,2.8-7.65,7.69-7.4s7.61,5.38,7.32,10.5c-.25,4.48-2.93,9.68-6.28,14.48C51.88,111.49,48.16,117.59,48.16,117.59Z"/><path id="path10310-7-8" class="cls-2" d="M14.21,56.3s-1.77-2.54-4.16-5.53c-1.6-2-2.88-4.17-3-6-.14-2.13,1.15-4.27,3.49-4.37s3.28,1.64,3.67,3.08c.39-1.44,1.33-3.19,3.67-3.08s3.63,2.24,3.49,4.37c-.12,1.87-1.4,4-3,6C16,53.76,14.21,56.3,14.21,56.3Z"/><path id="path10312-3-5" class="cls-2" d="M164.57,193.35s-1.77,2.54-4.16,5.53c-1.6,2-2.88,4.17-3,6-.14,2.13,1.15,4.27,3.49,4.37s3.28-1.64,3.67-3.08c.38,1.44,1.33,3.19,3.67,3.08s3.63-2.24,3.49-4.37c-.12-1.87-1.4-4-3-6C166.35,195.9,164.57,193.35,164.57,193.35Z"/><path id="path10314-8-8" class="cls-2" d="M89.39,98.85s-3.72-6.1-8.73-13.28c-3.35-4.8-6-10-6.28-14.48C74.09,66,76.8,60.84,81.7,60.59s6.88,3.95,7.69,7.4c.81-3.46,2.8-7.65,7.69-7.4s7.61,5.38,7.32,10.5c-.25,4.48-2.93,9.68-6.28,14.48-5,7.18-8.73,13.28-8.73,13.28Z"/><path id="path10318-3-7" class="cls-2" d="M48.16,64.85s-3.72-6.11-8.73-13.28c-3.35-4.8-6-10-6.28-14.48-.29-5.12,2.42-10.25,7.32-10.5s6.88,3.95,7.69,7.4c.81-3.46,2.8-7.65,7.69-7.4s7.61,5.38,7.32,10.5c-.25,4.48-2.93,9.68-6.28,14.48C51.88,58.74,48.16,64.85,48.16,64.85Z"/><path id="path10322-4-6" class="cls-2" d="M130.62,117.59s-3.72-6.11-8.73-13.28c-3.35-4.8-6-10-6.28-14.48-.29-5.12,2.42-10.25,7.32-10.5s6.88,3.95,7.69,7.4c.81-3.46,2.8-7.65,7.69-7.4s7.61,5.38,7.32,10.5c-.25,4.48-2.93,9.68-6.28,14.48C134.34,111.49,130.62,117.59,130.62,117.59Z"/><path id="path10324-9-8" class="cls-2" d="M130.62,64.85s-3.72-6.11-8.73-13.28c-3.35-4.8-6-10-6.28-14.48-.29-5.12,2.42-10.25,7.32-10.5s6.88,3.95,7.69,7.4c.81-3.46,2.8-7.65,7.69-7.4s7.61,5.38,7.32,10.5c-.25,4.48-2.93,9.68-6.28,14.48C134.34,58.74,130.62,64.85,130.62,64.85Z"/><path id="path10332-8-6" class="cls-2" d="M89.39,150.8s-3.72,6.11-8.73,13.28c-3.35,4.8-6,10-6.28,14.48-.29,5.12,2.42,10.25,7.32,10.5s6.88-3.95,7.69-7.4c.81,3.46,2.8,7.65,7.69,7.4s7.61-5.38,7.32-10.5c-.25-4.48-2.93-9.68-6.28-14.48C93.11,156.9,89.39,150.8,89.39,150.8Z"/><path id="path10334-5-0" class="cls-2" d="M130.62,132.06s-3.72,6.1-8.73,13.28c-3.35,4.8-6,10-6.28,14.48-.29,5.12,2.42,10.25,7.32,10.5s6.88-3.95,7.69-7.4c.81,3.46,2.8,7.65,7.69,7.4s7.61-5.38,7.32-10.5c-.25-4.48-2.93-9.68-6.28-14.48C134.34,138.16,130.62,132.06,130.62,132.06Z"/><path id="path10336-3-5" class="cls-2" d="M48.16,132.06s-3.72,6.1-8.73,13.28c-3.35,4.8-6,10-6.28,14.48-.29,5.12,2.42,10.25,7.32,10.5s6.88-3.95,7.69-7.4c.81,3.46,2.8,7.65,7.69,7.4s7.61-5.38,7.32-10.5c-.25-4.48-2.93-9.68-6.28-14.48C51.88,138.16,48.16,132.06,48.16,132.06Z"/><path id="path10338-2-9" class="cls-2" d="M130.62,184.8s-3.72,6.1-8.73,13.28c-3.35,4.8-6,10-6.28,14.48-.29,5.12,2.42,10.25,7.32,10.5s6.88-3.95,7.69-7.4c.81,3.46,2.8,7.65,7.69,7.4s7.61-5.38,7.32-10.5c-.25-4.48-2.93-9.68-6.28-14.48C134.34,190.91,130.62,184.8,130.62,184.8Z"/><path id="path10340-9-7" class="cls-2" d="M48.16,184.8s-3.72,6.1-8.73,13.28c-3.35,4.8-6,10-6.28,14.48-.29,5.12,2.42,10.25,7.32,10.5s6.88-3.95,7.69-7.4c.81,3.46,2.8,7.65,7.69,7.4s7.61-5.38,7.32-10.5c-.25-4.48-2.93-9.68-6.28-14.48C51.88,190.91,48.16,184.8,48.16,184.8Z"/><g id="g7724-24-8-9-7"><g id="g8345-9-7-5-1"><path id="path31-8-2-9-8" class="cls-2" d="M6.23,37.85V11.54H8.78V37.85Z"/><path id="path33-2-3-1-6" class="cls-2" d="M16.33,11.54c-2.45,0-4.42,2.24-4.42,5V32.82c0,2.79,2,5,4.42,5h1.43c2.45,0,4.43-2.24,4.43-5V16.56c0-2.79-2-5-4.43-5ZM17.07,14a2.55,2.55,0,0,1,2.61,2.5V33a2.62,2.62,0,0,1-5.23,0V16.53A2.55,2.55,0,0,1,17.07,14Z"/></g></g><g id="g7724-2-5-0-2-7"><g id="g8345-5-0-9-6-9"><g id="g10963-5-1"><path id="path31-1-3-2-1-5" class="cls-2" d="M172.55,211.8v26.31H170V211.8Z"/><path id="path33-5-5-3-3-1" class="cls-2" d="M162.45,238.12c2.45,0,4.42-2.24,4.42-5V216.83c0-2.79-2-5-4.42-5H161c-2.45,0-4.43,2.24-4.43,5v16.26c0,2.79,2,5,4.43,5Zm-.74-2.49a2.55,2.55,0,0,1-2.61-2.5V216.65a2.62,2.62,0,0,1,5.23,0v16.47a2.55,2.55,0,0,1-2.62,2.5Z"/></g></g></g></g></g></g></svg>