<svg xmlns="http://www.w3.org/2000/svg" viewBox="0 0 178.79 249.65"><defs><style>.cls-1{fill:#fff;stroke:#000;stroke-width:1px;}</style></defs><title>10S</title><g id="Layer_2" data-name="Layer 2"><g id="svg11376"><g id="_10S" data-name="10S"><g id="g8587-4-9"><rect id="rect7263-6-4" class="cls-1" x="0.5" y="0.5" width="177.79" height="248.65" rx="8.5" ry="8.5"/><path id="path7293-3-2" d="M48.16,26.57C40.82,37.06,33,43.1,32.82,51.29c0,2.65,1.39,7.16,5.87,8,2.91.56,6.91-1.8,7-6.59,0-1,1-.93,1,.38a27.2,27.2,0,0,1-3.34,11.75H53a27.2,27.2,0,0,1-3.34-11.75c0-1.31,1-1.33,1-.38.08,4.79,4.09,7.15,7,6.59,4.48-.86,5.91-5.37,5.87-8C63.37,43.1,55.51,37.06,48.16,26.57Z"/><path id="path7295-4-8" d="M14.21,40.35C10.78,44.72,7.11,47.24,7,50.65A3.31,3.31,0,0,0,9.79,54a2.85,2.85,0,0,0,3.27-2.75c0-.4.47-.39.47.16A10.42,10.42,0,0,1,12,56.3h4.5a10.42,10.42,0,0,1-1.56-4.9c0-.54.47-.55.47-.16A2.85,2.85,0,0,0,18.64,54a3.31,3.31,0,0,0,2.74-3.34c-.06-3.41-3.73-5.93-7.17-10.3Z"/><path id="path7297-5-1" d="M48.16,170.34C40.82,159.84,33,153.81,32.82,145.62c0-2.65,1.39-7.16,5.87-8,2.91-.56,6.91,1.8,7,6.59,0,1,1,.93,1-.38a27.2,27.2,0,0,0-3.34-11.75H53a27.2,27.2,0,0,0-3.34,11.75c0,1.31,1,1.33,1,.38.08-4.79,4.09-7.15,7-6.59,4.48.86,5.91,5.37,5.87,8C63.37,153.81,55.51,159.84,48.16,170.34Z"/><path id="path7299-3-5" d="M164.57,209.3c-3.43-4.37-7.11-6.89-7.17-10.3a3.31,3.31,0,0,1,2.74-3.34,2.85,2.85,0,0,1,3.27,2.75c0,.4.47.39.47-.16a10.42,10.42,0,0,0-1.56-4.9h4.5a10.42,10.42,0,0,0-1.56,4.9c0,.54.47.55.47.16a2.85,2.85,0,0,1,3.27-2.75,3.31,3.31,0,0,1,2.74,3.34c-.06,3.41-3.73,5.93-7.17,10.3Z"/><path id="path7301-4-0" d="M130.62,26.57c-7.35,10.49-15.21,16.53-15.34,24.72,0,2.65,1.39,7.16,5.87,8,2.91.56,6.91-1.8,7-6.59,0-1,1-.93,1,.38a27.2,27.2,0,0,1-3.34,11.75h9.62a27.2,27.2,0,0,1-3.34-11.75c0-1.31,1-1.33,1-.38.08,4.79,4.09,7.15,7,6.59,4.48-.86,5.91-5.37,5.87-8C145.83,43.1,138,37.06,130.62,26.57Z"/><path id="path7303-7-8" d="M48.16,79.32C40.82,89.81,33,95.85,32.82,104c0,2.65,1.39,7.16,5.87,8,2.91.56,6.91-1.8,7-6.59,0-1,1-.93,1,.38a27.2,27.2,0,0,1-3.34,11.75H53a27.2,27.2,0,0,1-3.34-11.75c0-1.31,1-1.33,1-.38.08,4.79,4.09,7.15,7,6.59,4.48-.86,5.91-5.37,5.87-8C63.37,95.85,55.51,89.81,48.16,79.32Z"/><path id="path7305-6-7" d="M89.39,60.58C82,71.07,74.18,77.11,74.05,85.29c0,2.65,1.39,7.16,5.87,8,2.91.56,6.91-1.8,7-6.59,0-1,1-.93,1,.38a27.2,27.2,0,0,1-3.34,11.75h9.62A27.2,27.2,0,0,1,90.87,87.1c0-1.31,1-1.33,1-.38.08,4.79,4.09,7.15,7,6.59,4.48-.86,5.91-5.37,5.87-8C104.6,77.11,96.74,71.07,89.39,60.58Z"/><path id="path7309-8-5" d="M130.62,79.32c-7.35,10.49-15.21,16.53-15.34,24.72,0,2.65,1.39,7.16,5.87,8,2.91.56,6.91-1.8,7-6.59,0-1,1-.93,1,.38a27.2,27.2,0,0,1-3.34,11.75h9.62a27.2,27.2,0,0,1-3.34-11.75c0-1.31,1-1.33,1-.38.08,4.79,4.09,7.15,7,6.59,4.48-.86,5.91-5.37,5.87-8C145.83,95.85,138,89.81,130.62,79.32Z"/><path id="path7313-6-8" d="M48.16,223.08C40.82,212.59,33,206.55,32.82,198.36c0-2.65,1.39-7.16,5.87-8,2.91-.56,6.91,1.8,7,6.59,0,1,1,.93,1-.38a27.2,27.2,0,0,0-3.34-11.75H53a27.2,27.2,0,0,0-3.34,11.75c0,1.31,1,1.33,1,.38.08-4.79,4.09-7.15,7-6.59,4.48.86,5.91,5.37,5.87,8C63.37,206.55,55.51,212.59,48.16,223.08Z"/><path id="path7315-7-3" d="M130.62,223.08c-7.35-10.49-15.21-16.53-15.34-24.72,0-2.65,1.39-7.16,5.87-8,2.91-.56,6.91,1.8,7,6.59,0,1,1,.93,1-.38a27.2,27.2,0,0,0-3.34-11.75h9.62a27.2,27.2,0,0,0-3.34,11.75c0,1.31,1,1.33,1,.38.08-4.79,4.09-7.15,7-6.59,4.48.86,5.91,5.37,5.87,8C145.83,206.55,138,212.59,130.62,223.08Z"/><path id="path7317-0-2" d="M89.39,189.08C82,178.58,74.18,172.55,74.05,164.36c0-2.65,1.39-7.16,5.87-8,2.91-.56,6.91,1.8,7,6.59,0,1,1,.93,1-.38a27.19,27.19,0,0,0-3.34-11.75h9.62a27.2,27.2,0,0,0-3.34,11.75c0,1.31,1,1.33,1,.38.08-4.79,4.09-7.15,7-6.59,4.48.86,5.91,5.37,5.87,8C104.6,172.55,96.74,178.58,89.39,189.08Z"/><path id="path7319-5-6" d="M130.62,170.34c-7.35-10.49-15.21-16.53-15.34-24.72,0-2.65,1.39-7.16,5.87-8,2.91-.56,6.91,1.8,7,6.59,0,1,1,.93,1-.38a27.2,27.2,0,0,0-3.34-11.75h9.62a27.2,27.2,0,0,0-3.34,11.75c0,1.31,1,1.33,1,.38.08-4.79,4.09-7.15,7-6.59,4.48.86,5.91,5.37,5.87,8C145.83,153.81,138,159.84,130.62,170.34Z"/><path id="path31-5-4-7" d="M6.23,37.85V11.54H8.78V37.85Z"/><path id="path33-4-6-8" d="M16.33,11.54c-2.45,0-4.42,2.24-4.42,5V32.82c0,2.79,2,5,4.42,5h1.43c2.45,0,4.43-2.24,4.43-5V16.56c0-2.79-2-5-4.43-5ZM17.07,14a2.55,2.55,0,0,1,2.61,2.5V33a2.62,2.62,0,0,1-5.23,0V16.53A2.55,2.55,0,0,1,17.07,14Z"/><g id="g8583-6-9"><path id="path31-5-5-6-7" d="M172.55,211.8v26.32H170V211.8Z"/><path id="path33-4-3-7-9" d="M162.45,238.12c2.45,0,4.42-2.24,4.42-5V216.83c0-2.79-2-5-4.42-5H161c-2.45,0-4.43,2.24-4.43,5v16.26c0,2.79,2,5,4.43,5Zm-.74-2.49a2.55,2.55,0,0,1-2.61-2.5V216.65a2.62,2.62,0,0,1,5.23,0v16.47a2.55,2.55,0,0,1-2.62,2.5Z"/></g></g></g></g></g></svg>