<svg xmlns="http://www.w3.org/2000/svg" viewBox="0 0 178.79 249.65"><defs><style>.cls-1{fill:#fff;stroke:#000;stroke-width:1px;}</style></defs><title>2C</title><g id="Layer_2" data-name="Layer 2"><g id="svg11376"><g id="_2C" data-name="2C"><g id="layer1-33-1-8-0-7"><rect id="rect6355-6-85-4-0-5" class="cls-1" x="0.5" y="0.5" width="177.79" height="248.65" rx="8.5" ry="8.5"/></g><path id="path147-0-8-1-6-7-2-1-6-3" d="M89.39,26.9c-7.82.17-11.33,9-5.53,15.81.84,1,.93,1.57-.61.61-3.9-2.61-11.37-.89-11.76,7.08C71,60.23,84.74,63.06,87.31,52.61c.14-1.1,1-1.08.82.49a32.51,32.51,0,0,1-3.38,12.08H94A32.5,32.5,0,0,1,90.66,53.1c-.22-1.56.68-1.59.82-.49,2.58,10.44,16.3,7.61,15.83-2.21-.38-8-7.86-9.68-11.76-7.08-1.54,1-1.45.39-.61-.61,5.79-6.84,2.29-15.64-5.53-15.81h0Z"/><path id="path147-0-8-1-6-1-4-5-4-2" d="M89.39,223.41c-7.82-.17-11.33-9-5.53-15.81.84-1,.93-1.57-.61-.61-3.9,2.61-11.37.89-11.76-7.08-.47-9.82,13.25-12.65,15.83-2.21.14,1.1,1,1.08.82-.49a32.51,32.51,0,0,0-3.38-12.08H94a32.5,32.5,0,0,0-3.38,12.08c-.22,1.56.68,1.59.82.49,2.58-10.44,16.3-7.61,15.83,2.21-.38,8-7.86,9.69-11.76,7.08-1.54-1-1.45-.39-.61.61,5.79,6.84,2.29,15.64-5.53,15.81h0Z"/><path id="path147-6-9-8-7-0-5-4-9-1" d="M164.58,209.3c3.13-.07,4.53-3.74,2.21-6.59-.34-.42-.37-.65.25-.25,1.56,1.09,4.55.37,4.7-2.95.19-4.09-5.3-5.27-6.33-.92-.05.46-.41.45-.33-.2a14,14,0,0,1,1.35-5h-3.72a14,14,0,0,1,1.35,5c.09.65-.27.66-.33.2-1-4.35-6.52-3.17-6.33.92.15,3.32,3.14,4,4.7,2.95.62-.4.58-.16.25.25-2.32,2.85-.91,6.52,2.21,6.59h0Z"/><path id="path147-6-9-8-7-4-5-9-2-7" d="M14.21,40.35c-3.13.07-4.53,3.74-2.21,6.59.34.42.37.65-.25.25-1.56-1.09-4.55-.37-4.7,2.95-.19,4.09,5.3,5.27,6.33.92.05-.46.41-.45.33.2a14,14,0,0,1-1.35,5h3.72a14,14,0,0,1-1.35-5c-.09-.65.27-.66.33-.2,1,4.35,6.52,3.17,6.33-.92-.15-3.32-3.14-4-4.7-2.95-.62.4-.58.16-.25-.25,2.32-2.85.91-6.52-2.21-6.59h0Z"/><path id="path15-9-1-0-1" d="M6.33,37.79l.13-1.62c.41-5,1.48-6.71,7.58-11.94C17,21.69,18,20.44,18.12,19c.39-3.43-2.64-4.5-4.61-4.51-2.56,0-5.45,1.53-4.07,5.15l-2.87.86c-.58-3.38,0-6.54,2.7-7.95,3.58-1.83,8.18-1.11,10.5,1.77A6.89,6.89,0,0,1,20.85,21c-2.44,5.36-10.73,7.72-11.42,13.92h9.16V31.5h2.7v6.36l-15-.06Z"/><path id="path15-5-7-4-9-4" d="M172.05,211.86l-.13,1.62c-.4,5-1.48,6.71-7.58,11.94-3,2.54-3.94,3.79-4.07,5.24-.39,3.43,2.64,4.5,4.61,4.51,2.56,0,5.45-1.53,4.07-5.15l2.87-.86c.58,3.38,0,6.54-2.7,7.95-3.58,1.83-8.18,1.11-10.5-1.77a6.9,6.9,0,0,1-1.08-6.72c2.44-5.36,10.74-7.72,11.42-13.92h-9.16v3.45h-2.7V211.8l15,.06Z"/></g></g></g></svg>