<svg xmlns="http://www.w3.org/2000/svg" viewBox="0 0 178.79 249.65"><defs><style>.cls-1{fill:#fff;stroke:#000;stroke-width:1px;}.cls-2{fill:#d40000;}</style></defs><title>2H</title><g id="Layer_2" data-name="Layer 2"><g id="svg11376"><g id="_2H" data-name="2H"><g id="g9732-9-3"><rect id="rect9734-4-5" class="cls-1" x="0.5" y="0.5" width="177.79" height="248.65" rx="8.5" ry="8.5"/></g><path id="path9766-0-8" class="cls-2" d="M14.21,56.3s-1.77-2.54-4.16-5.53c-1.6-2-2.88-4.17-3-6-.14-2.13,1.15-4.27,3.49-4.37s3.28,1.64,3.67,3.08c.39-1.44,1.33-3.19,3.67-3.08s3.63,2.24,3.49,4.37c-.12,1.87-1.4,4-3,6C16,53.76,14.21,56.3,14.21,56.3Z"/><path id="path9768-3-3" class="cls-2" d="M164.57,193.35s-1.77,2.54-4.16,5.53c-1.6,2-2.88,4.17-3,6-.14,2.13,1.15,4.27,3.49,4.37s3.28-1.64,3.67-3.08c.39,1.44,1.33,3.19,3.67,3.08a3.86,3.86,0,0,0,3.49-4.37c-.12-1.87-1.4-4-3-6C166.35,195.9,164.57,193.35,164.57,193.35Z"/><path id="path9772-1-7" class="cls-2" d="M89.39,64.85s-3.72-6.11-8.73-13.28c-3.35-4.8-6-10-6.29-14.48C74.09,32,76.8,26.83,81.7,26.58s6.88,3.95,7.69,7.4c.81-3.46,2.8-7.65,7.69-7.4s7.61,5.38,7.32,10.5c-.25,4.48-2.93,9.68-6.28,14.48C93.11,58.74,89.39,64.85,89.39,64.85Z"/><path id="path9786-2-1" class="cls-2" d="M89.39,184.8s-3.72,6.1-8.73,13.28c-3.35,4.8-6,10-6.29,14.48-.29,5.12,2.42,10.25,7.32,10.5s6.88-3.95,7.69-7.4c.81,3.46,2.8,7.65,7.69,7.4s7.61-5.38,7.32-10.5c-.25-4.48-2.93-9.68-6.28-14.48C93.11,190.91,89.39,184.8,89.39,184.8Z"/><path id="path15-34-0-0-4" class="cls-2" d="M6.73,37.79l.13-1.62c.4-5,1.48-6.71,7.59-11.94,3-2.54,3.93-3.79,4.07-5.24.39-3.43-2.64-4.5-4.61-4.51-2.56,0-5.45,1.53-4.07,5.15L7,20.49c-.58-3.38,0-6.54,2.7-7.95,3.58-1.83,8.18-1.11,10.5,1.77A6.89,6.89,0,0,1,21.25,21C18.8,26.39,10.51,28.75,9.83,34.95H19V31.5h2.7v6.36l-15-.06Z"/><path id="path15-5-4-5-2-7" class="cls-2" d="M172.05,211.86l-.13,1.62c-.4,5-1.48,6.71-7.58,11.94-3,2.54-3.94,3.79-4.07,5.24-.39,3.43,2.64,4.5,4.61,4.51,2.56,0,5.45-1.53,4.07-5.15l2.87-.86c.58,3.38,0,6.54-2.7,7.95-3.58,1.83-8.18,1.11-10.5-1.77a6.89,6.89,0,0,1-1.08-6.72c2.44-5.36,10.73-7.72,11.42-13.92h-9.16v3.45h-2.7V211.8l15,.06Z"/></g></g></g></svg>