<svg xmlns="http://www.w3.org/2000/svg" viewBox="0 0 178.79 249.65"><defs><style>.cls-1{fill:#fff;stroke:#000;stroke-width:1px;}</style></defs><title>2S</title><g id="Layer_2" data-name="Layer 2"><g id="svg11376"><g id="_2S" data-name="2S"><rect id="rect6716-2-0" class="cls-1" x="0.5" y="0.5" width="177.79" height="248.65" rx="8.5" ry="8.5"/><path id="path6748-4-0" d="M14.21,40.35C10.78,44.72,7.11,47.24,7,50.65A3.31,3.31,0,0,0,9.79,54a2.85,2.85,0,0,0,3.27-2.75c0-.4.47-.39.47.16A10.41,10.41,0,0,1,12,56.3h4.5a10.43,10.43,0,0,1-1.56-4.9c0-.54.47-.55.47-.16A2.85,2.85,0,0,0,18.64,54a3.31,3.31,0,0,0,2.74-3.34c-.06-3.41-3.73-5.93-7.17-10.3Z"/><path id="path6752-9-1" d="M164.57,209.3c-3.43-4.37-7.11-6.89-7.17-10.3a3.31,3.31,0,0,1,2.74-3.34,2.85,2.85,0,0,1,3.27,2.75c0,.4.47.39.47-.16a10.43,10.43,0,0,0-1.56-4.9h4.5a10.42,10.42,0,0,0-1.56,4.9c0,.54.47.55.47.16a2.85,2.85,0,0,1,3.27-2.75,3.31,3.31,0,0,1,2.74,3.34c-.06,3.41-3.73,5.93-7.17,10.3Z"/><path id="path6760-2-4" d="M89.39,26.57C82,37.06,74.18,43.1,74.05,51.29c0,2.65,1.39,7.16,5.87,8,2.91.56,6.91-1.8,7-6.59,0-1,1-.93,1,.38a27.2,27.2,0,0,1-3.34,11.75h9.63a27.2,27.2,0,0,1-3.34-11.75c0-1.31,1-1.33,1-.38.08,4.79,4.09,7.15,7,6.59,4.48-.86,5.91-5.37,5.87-8C104.6,43.1,96.74,37.06,89.39,26.57Z"/><path id="path6774-6-2" d="M89.39,223.08C82,212.59,74.18,206.55,74.05,198.36c0-2.65,1.39-7.16,5.87-8,2.91-.56,6.91,1.8,7,6.59,0,1,1,.93,1-.38a27.2,27.2,0,0,0-3.34-11.75h9.63a27.2,27.2,0,0,0-3.34,11.75c0,1.31,1,1.33,1,.38.08-4.79,4.09-7.15,7-6.59,4.48.86,5.91,5.37,5.87,8C104.6,206.55,96.74,212.59,89.39,223.08Z"/><path id="path15-3-8-9" d="M6.73,37.79l.13-1.62c.4-5,1.48-6.71,7.59-11.94,3-2.54,3.93-3.79,4.07-5.24.39-3.43-2.64-4.5-4.61-4.51-2.56,0-5.45,1.53-4.07,5.15L7,20.49c-.58-3.38,0-6.54,2.7-7.95,3.58-1.83,8.18-1.11,10.5,1.77A6.89,6.89,0,0,1,21.25,21C18.8,26.39,10.51,28.75,9.83,34.95H19V31.5h2.7v6.36l-15-.06Z"/><path id="path15-3-5-1-4" d="M172.05,211.86l-.13,1.62c-.4,5-1.48,6.71-7.58,11.94-3,2.54-3.94,3.79-4.07,5.24-.39,3.43,2.64,4.5,4.61,4.51,2.56,0,5.45-1.53,4.07-5.15l2.87-.86c.58,3.38,0,6.54-2.7,7.95-3.58,1.83-8.18,1.11-10.5-1.77a6.9,6.9,0,0,1-1.08-6.72c2.44-5.36,10.74-7.72,11.42-13.92h-9.16v3.45h-2.7V211.8l15,.06Z"/></g></g></g></svg>