<svg xmlns="http://www.w3.org/2000/svg" viewBox="0 0 178.79 249.65"><defs><style>.cls-1{fill:#fff;stroke:#000;stroke-width:1px;}</style></defs><title>3C</title><g id="Layer_2" data-name="Layer 2"><g id="svg11376"><g id="_3C" data-name="3C"><g id="layer1-33-1-4-5-7"><rect id="rect6355-6-85-2-7-5" class="cls-1" x="0.5" y="0.5" width="177.79" height="248.65" rx="8.5" ry="8.5"/></g><path id="path147-0-8-1-6-7-2-5-9-2" d="M89.39,26.9c-7.82.17-11.33,9-5.54,15.81.84,1,.93,1.57-.61.61-3.9-2.61-11.37-.89-11.76,7.08C71,60.23,84.74,63.06,87.31,52.61c.14-1.1,1-1.08.82.49a32.51,32.51,0,0,1-3.38,12.08H94A32.49,32.49,0,0,1,90.66,53.1c-.22-1.56.68-1.59.82-.49,2.58,10.44,16.3,7.61,15.83-2.21-.38-8-7.86-9.68-11.76-7.08-1.54,1-1.45.39-.61-.61,5.79-6.84,2.29-15.64-5.54-15.81h0Z"/><path id="path147-0-8-1-6-1-4-3-4-3" d="M89.39,223.41c-7.82-.17-11.33-9-5.54-15.81.84-1,.93-1.57-.61-.61-3.9,2.61-11.37.89-11.76-7.08-.47-9.82,13.25-12.65,15.83-2.21.14,1.1,1,1.08.82-.49a32.51,32.51,0,0,0-3.38-12.08H94a32.49,32.49,0,0,0-3.38,12.08c-.22,1.56.68,1.59.82.49,2.58-10.44,16.3-7.61,15.83,2.21-.38,8-7.86,9.69-11.76,7.08-1.54-1-1.45-.39-.61.61,5.79,6.84,2.29,15.64-5.54,15.81h0Z"/><path id="path147-0-8-1-6-1-1-0-4-8-8" d="M89.39,106c-7.82.17-11.33,9-5.54,15.81.84,1,.93,1.57-.61.61-3.9-2.61-11.37-.89-11.76,7.08-.47,9.82,13.25,12.65,15.83,2.21.14-1.1,1-1.08.82.49a32.51,32.51,0,0,1-3.38,12.08H94a32.49,32.49,0,0,1-3.38-12.08c-.22-1.56.68-1.59.82-.49,2.58,10.44,16.3,7.61,15.83-2.21-.38-8-7.86-9.69-11.76-7.08-1.54,1-1.45.39-.61-.61,5.79-6.84,2.29-15.64-5.54-15.81h0Z"/><path id="path147-6-9-8-7-0-5-5-1-4" d="M164.58,209.3c3.13-.07,4.53-3.74,2.21-6.59-.34-.42-.37-.65.25-.25,1.56,1.09,4.55.37,4.7-2.95.19-4.09-5.3-5.27-6.33-.92-.05.46-.41.45-.33-.2a14,14,0,0,1,1.35-5h-3.72a14,14,0,0,1,1.35,5c.09.65-.27.66-.33.2-1-4.35-6.52-3.17-6.33.92.15,3.32,3.14,4,4.7,2.95.62-.4.58-.16.25.25-2.32,2.85-.91,6.52,2.21,6.59h0Z"/><path id="path147-6-9-8-7-4-5-8-2-3" d="M14.21,40.35c-3.13.07-4.53,3.74-2.21,6.59.34.42.37.65-.24.25-1.56-1.09-4.55-.37-4.7,2.95-.19,4.09,5.3,5.27,6.33.92.05-.46.41-.45.33.2a14,14,0,0,1-1.35,5h3.72a14,14,0,0,1-1.35-5c-.09-.65.27-.66.33-.2,1,4.35,6.52,3.17,6.33-.92-.15-3.32-3.14-4-4.7-2.95-.62.4-.58.16-.24-.25,2.32-2.85.91-6.52-2.21-6.59h0Z"/><path id="path17-9-7-6-4" d="M5.68,32.08l2-1.49c1.76,2.86,3.72,4.75,6.72,4.42,4.51-.31,6.37-5,5.43-8.61a5.21,5.21,0,0,0-7.61-3.05,7.44,7.44,0,0,1-1.51.73c-.31,0-1-1.4-.92-1.83a93,93,0,0,1,6.83-8H9.09v3.42H6.19V11.54H21v2.08A50.3,50.3,0,0,0,15.7,20a7.16,7.16,0,0,1,6.75,5.39A14.31,14.31,0,0,1,22,32.63a9.11,9.11,0,0,1-7.4,5.19c-5,.33-7.63-3.16-8.95-5.75Z"/><path id="path17-5-0-1-5-7" d="M173.1,217.57l-2,1.49c-1.76-2.86-3.72-4.75-6.72-4.42-4.51.31-6.38,5-5.43,8.61a5.21,5.21,0,0,0,7.61,3.05,7.43,7.43,0,0,1,1.51-.73c.31,0,1,1.4.92,1.83a93,93,0,0,1-6.83,8h7.56V232h2.9v6.13H157.82V236a50.2,50.2,0,0,0,5.26-6.36,7.16,7.16,0,0,1-6.75-5.39,14.31,14.31,0,0,1,.41-7.27,9.11,9.11,0,0,1,7.4-5.19c5-.34,7.63,3.16,8.95,5.75Z"/></g></g></g></svg>