<svg xmlns="http://www.w3.org/2000/svg" viewBox="0 0 178.79 249.65"><defs><style>.cls-1{fill:#fff;stroke:#000;stroke-width:1px;}.cls-2{fill:#d40000;}</style></defs><title>3D</title><g id="Layer_2" data-name="Layer 2"><g id="svg11376"><g id="_3D" data-name="3D"><rect id="rect6554-0" class="cls-1" x="0.5" y="0.5" width="177.79" height="248.65" rx="8.5" ry="8.5"/><path id="path6584-3" class="cls-2" d="M89.39,64.85C85.26,58,80.92,51.38,75.49,45.71,80.92,40,85.26,33.4,89.39,26.57,93.52,33.4,97.87,40,103.3,45.71,97.87,51.38,93.52,58,89.39,64.85Z"/><path id="path6586-2" class="cls-2" d="M14.21,56.3a45,45,0,0,0-5.79-8,45,45,0,0,0,5.8-8,45,45,0,0,0,5.79,8A45,45,0,0,0,14.21,56.3Z"/><path id="path6590-7" class="cls-2" d="M164.57,209.3a45,45,0,0,0-5.79-8,45,45,0,0,0,5.79-8,45,45,0,0,0,5.79,8A45,45,0,0,0,164.57,209.3Z"/><path id="path6600-5" class="cls-2" d="M89.39,144c-4.13-6.83-8.48-13.47-13.91-19.14,5.43-5.67,9.78-12.31,13.91-19.14,4.13,6.83,8.48,13.47,13.91,19.14C97.87,130.5,93.52,137.14,89.39,144Z"/><path id="path6606-3" class="cls-2" d="M89.39,223.08c-4.13-6.83-8.48-13.47-13.91-19.14,5.43-5.67,9.78-12.31,13.91-19.14,4.13,6.83,8.48,13.47,13.91,19.14C97.87,209.61,93.52,216.25,89.39,223.08Z"/><path id="path17-2-9-4-8" class="cls-2" d="M5.68,32.08l2-1.49c1.76,2.86,3.72,4.75,6.72,4.43,4.51-.31,6.38-5,5.43-8.61a5.21,5.21,0,0,0-7.61-3.05,7.47,7.47,0,0,1-1.51.73c-.31,0-1-1.4-.92-1.83a93.11,93.11,0,0,1,6.83-8H9.09v3.42H6.19V11.54H21v2.08A50.32,50.32,0,0,0,15.7,20a7.16,7.16,0,0,1,6.75,5.39A14.31,14.31,0,0,1,22,32.64a9.11,9.11,0,0,1-7.4,5.19c-5,.33-7.63-3.16-8.95-5.75Z"/><path id="path17-5-3-3-8" class="cls-2" d="M173.1,217.57l-2,1.49c-1.76-2.86-3.72-4.75-6.72-4.42-4.51.31-6.37,5-5.43,8.61a5.21,5.21,0,0,0,7.61,3.05,7.49,7.49,0,0,1,1.51-.73c.31,0,1,1.4.92,1.83a93,93,0,0,1-6.83,8h7.56V232h2.9v6.13H157.82V236a50.36,50.36,0,0,0,5.26-6.36,7.16,7.16,0,0,1-6.75-5.39,14.32,14.32,0,0,1,.41-7.27,9.11,9.11,0,0,1,7.4-5.19c5-.34,7.63,3.16,8.95,5.75Z"/></g></g></g></svg>