<svg xmlns="http://www.w3.org/2000/svg" viewBox="0 0 178.79 249.65"><defs><style>.cls-1{fill:#fff;stroke:#000;stroke-width:1px;}.cls-2{fill:#d40000;}</style></defs><title>4D</title><g id="Layer_2" data-name="Layer 2"><g id="svg11376"><g id="_4D" data-name="4D"><rect id="rect6622-5" class="cls-1" x="0.5" y="0.5" width="177.79" height="248.65" rx="8.5" ry="8.5"/><path id="path6654-0" class="cls-2" d="M14.21,56.3a45,45,0,0,0-5.79-8,45,45,0,0,0,5.79-8,45,45,0,0,0,5.79,8A45,45,0,0,0,14.21,56.3Z"/><path id="path6656-6" class="cls-2" d="M130.62,64.85c-4.13-6.83-8.48-13.47-13.91-19.14,5.43-5.67,9.78-12.31,13.91-19.14,4.13,6.83,8.48,13.47,13.91,19.14C139.1,51.38,134.75,58,130.62,64.85Z"/><path id="path6658-8" class="cls-2" d="M164.57,209.3a45,45,0,0,0-5.79-8,45,45,0,0,0,5.79-8,45,45,0,0,0,5.79,8A45,45,0,0,0,164.57,209.3Z"/><path id="path6660-7" class="cls-2" d="M48.16,64.85C44,58,39.69,51.38,34.26,45.71,39.69,40,44,33.4,48.16,26.57,52.3,33.4,56.64,40,62.07,45.71,56.64,51.38,52.3,58,48.16,64.85Z"/><path id="path6676-4" class="cls-2" d="M48.16,223.08c-4.13-6.83-8.48-13.47-13.91-19.14,5.43-5.67,9.78-12.31,13.91-19.14,4.13,6.83,8.48,13.47,13.91,19.14C56.64,209.62,52.3,216.25,48.16,223.08Z"/><path id="path6678-8" class="cls-2" d="M130.62,223.09c-4.13-6.83-8.48-13.47-13.91-19.14,5.43-5.67,9.78-12.31,13.91-19.14,4.13,6.83,8.48,13.47,13.91,19.14C139.1,209.62,134.75,216.26,130.62,223.09Z"/><path id="path19-3-1-9-0" class="cls-2" d="M14.4,37.85V35.52h2.09V31.69H6V29L17.35,11.54H19.2V29h3.21v2.71H19.2l-.06,3.83H20.9v2.33H14.4Zm2.09-19.92L9.29,29h7.2Z"/><path id="path19-4-46-7-7" class="cls-2" d="M164.39,211.8v2.32h-2.09V218h10.48v2.71l-11.34,17.45h-1.85V220.67h-3.21V218h3.21l.06-3.83h-1.76V211.8h6.5Zm-2.09,19.92,7.2-11.06h-7.2Z"/></g></g></g></svg>