<svg xmlns="http://www.w3.org/2000/svg" viewBox="0 0 178.79 249.65"><defs><style>.cls-1{fill:#fff;stroke:#000;stroke-width:1px;}.cls-2{fill:#d40000;}</style></defs><title>4H</title><g id="Layer_2" data-name="Layer 2"><g id="svg11376"><g id="_4H" data-name="4H"><g id="g9868-8-1"><rect id="rect9870-7-0" class="cls-1" x="0.5" y="0.5" width="177.79" height="248.65" rx="8.5" ry="8.5"/></g><path id="path9902-6-7" class="cls-2" d="M14.21,56.3s-1.77-2.54-4.16-5.53c-1.6-2-2.88-4.17-3-6-.14-2.13,1.15-4.27,3.49-4.37s3.28,1.64,3.67,3.08c.39-1.44,1.33-3.19,3.67-3.08s3.63,2.24,3.49,4.37c-.12,1.87-1.4,4-3,6C16,53.76,14.21,56.3,14.21,56.3Z"/><path id="path9904-6-0" class="cls-2" d="M164.57,193.35s-1.77,2.54-4.16,5.53c-1.6,2-2.88,4.17-3,6-.14,2.13,1.15,4.27,3.49,4.37s3.28-1.64,3.67-3.08c.39,1.44,1.33,3.19,3.67,3.08s3.63-2.24,3.49-4.37c-.12-1.87-1.4-4-3-6C166.35,195.9,164.58,193.35,164.57,193.35Z"/><path id="path9910-2-6" class="cls-2" d="M48.16,64.85s-3.72-6.11-8.73-13.28c-3.35-4.8-6-10-6.28-14.48-.29-5.12,2.42-10.25,7.32-10.5s6.88,3.95,7.69,7.4c.81-3.46,2.8-7.65,7.69-7.4s7.61,5.38,7.32,10.5c-.25,4.48-2.93,9.68-6.28,14.48C51.88,58.74,48.17,64.84,48.16,64.85Z"/><path id="path9916-8-0" class="cls-2" d="M130.62,64.85s-3.72-6.11-8.73-13.28c-3.35-4.8-6-10-6.28-14.48-.29-5.12,2.42-10.25,7.32-10.5s6.88,3.95,7.69,7.4c.81-3.46,2.8-7.65,7.69-7.4s7.61,5.38,7.32,10.5c-.25,4.48-2.93,9.68-6.28,14.48C134.34,58.74,130.62,64.84,130.62,64.85Z"/><path id="path9930-7-9" class="cls-2" d="M130.62,184.8s-3.72,6.1-8.73,13.28c-3.35,4.8-6,10-6.28,14.48-.29,5.12,2.42,10.25,7.32,10.5s6.88-3.95,7.69-7.4c.81,3.46,2.8,7.65,7.69,7.4s7.61-5.38,7.32-10.5c-.25-4.48-2.93-9.68-6.28-14.48C134.34,190.91,130.62,184.81,130.62,184.8Z"/><path id="path9932-9-8" class="cls-2" d="M48.16,184.8s-3.72,6.1-8.73,13.28c-3.35,4.8-6,10-6.28,14.48-.29,5.12,2.42,10.25,7.32,10.5s6.88-3.95,7.69-7.4c.81,3.46,2.8,7.65,7.69,7.4s7.61-5.38,7.32-10.5c-.25-4.48-2.93-9.68-6.28-14.48C51.88,190.91,48.17,184.81,48.16,184.8Z"/><path id="path19-3-8-2-9" class="cls-2" d="M14.4,37.85V35.52h2.09V31.69H6V29L17.35,11.54H19.2V29h3.21v2.71H19.2l-.06,3.83H20.9v2.33H14.4Zm2.09-19.92L9.29,29h7.2Z"/><path id="path19-4-46-0-1-9" class="cls-2" d="M164.39,211.8v2.32h-2.1V218h10.48v2.71l-11.34,17.45h-1.85V220.67h-3.21V218h3.21l.06-3.83h-1.76V211.8h6.5Zm-2.1,19.92,7.2-11.06h-7.2Z"/></g></g></g></svg>