<svg xmlns="http://www.w3.org/2000/svg" viewBox="0 0 178.79 249.65"><defs><style>.cls-1{fill:#fff;stroke:#000;stroke-width:1px;}</style></defs><title>4S</title><g id="Layer_2" data-name="Layer 2"><g id="svg11376"><g id="_4S" data-name="4S"><g id="g8473-4-9"><rect id="rect6852-0-4" class="cls-1" x="0.5" y="0.5" width="177.79" height="248.65" rx="8.5" ry="8.5"/><path id="path6882-1-0" d="M48.16,26.57C40.82,37.06,33,43.1,32.82,51.29c0,2.65,1.39,7.16,5.87,8,2.91.56,6.91-1.8,7-6.59,0-1,1-.93,1,.38a27.2,27.2,0,0,1-3.34,11.75H53a27.22,27.22,0,0,1-3.34-11.75c0-1.31,1-1.33,1-.38.08,4.79,4.09,7.15,7,6.59,4.48-.86,5.91-5.37,5.87-8-.13-8.19-8-14.22-15.34-24.72Z"/><path id="path6884-6-5" d="M14.21,40.35C10.78,44.72,7.11,47.24,7,50.65A3.31,3.31,0,0,0,9.79,54a2.85,2.85,0,0,0,3.27-2.75c0-.4.47-.39.47.16A10.43,10.43,0,0,1,12,56.3h4.5a10.42,10.42,0,0,1-1.56-4.9c0-.54.47-.55.47-.16A2.85,2.85,0,0,0,18.64,54a3.31,3.31,0,0,0,2.74-3.34c-.06-3.41-3.73-5.93-7.17-10.3Z"/><path id="path6888-1-5" d="M164.57,209.3c-3.43-4.37-7.11-6.89-7.17-10.3a3.31,3.31,0,0,1,2.74-3.34,2.85,2.85,0,0,1,3.27,2.75c0,.4.47.39.47-.16a10.42,10.42,0,0,0-1.56-4.9h4.5a10.43,10.43,0,0,0-1.56,4.9c0,.54.47.55.47.16a2.85,2.85,0,0,1,3.27-2.75,3.31,3.31,0,0,1,2.74,3.34c-.06,3.41-3.73,5.93-7.17,10.3Z"/><path id="path6890-4-9" d="M130.62,26.57c-7.35,10.49-15.21,16.53-15.34,24.72,0,2.65,1.39,7.16,5.87,8,2.91.56,6.91-1.8,7-6.59,0-1,1-.93,1,.38a27.2,27.2,0,0,1-3.34,11.75h9.63a27.2,27.2,0,0,1-3.34-11.75c0-1.31,1-1.33,1-.38.08,4.79,4.09,7.15,7,6.59,4.48-.86,5.92-5.37,5.87-8-.13-8.19-8-14.22-15.34-24.72Z"/><path id="path6902-7-5" d="M48.16,223.08C40.82,212.59,33,206.55,32.82,198.36c0-2.65,1.39-7.16,5.87-8,2.91-.56,6.91,1.8,7,6.59,0,1,1,.93,1-.38a27.2,27.2,0,0,0-3.34-11.75H53a27.21,27.21,0,0,0-3.34,11.75c0,1.31,1,1.33,1,.38.08-4.79,4.09-7.15,7-6.59,4.48.86,5.91,5.37,5.87,8-.13,8.19-8,14.22-15.34,24.72Z"/><path id="path6904-9-7" d="M130.62,223.08c-7.35-10.49-15.21-16.53-15.34-24.72,0-2.65,1.39-7.16,5.87-8,2.91-.56,6.91,1.8,7,6.59,0,1,1,.93,1-.38a27.2,27.2,0,0,0-3.34-11.75h9.63a27.2,27.2,0,0,0-3.34,11.75c0,1.31,1,1.33,1,.38.08-4.79,4.09-7.15,7-6.59,4.48.86,5.92,5.37,5.87,8-.13,8.19-8,14.22-15.34,24.72Z"/><path id="path19-08-0-9" d="M14.4,37.85V35.52h2.09V31.69H6V29L17.35,11.54H19.2V29h3.21v2.71H19.2l-.06,3.83H20.9v2.33H14.4Zm2.09-19.92L9.29,29h7.2Z"/><path id="path19-08-1-1-4" d="M164.39,211.8v2.32h-2.1V218h10.48v2.71l-11.34,17.45h-1.85V220.67h-3.21V218h3.21l.06-3.83h-1.76V211.8h6.5Zm-2.1,19.92,7.2-11.06h-7.2Z"/></g></g></g></g></svg>