<svg xmlns="http://www.w3.org/2000/svg" viewBox="0 0 178.79 249.65"><defs><style>.cls-1{fill:#fff;stroke:#000;stroke-width:1px;}</style></defs><title>5C</title><g id="Layer_2" data-name="Layer 2"><g id="svg11376"><g id="_5C" data-name="5C"><g id="layer1-33-1-41-1-2-6"><rect id="rect6355-6-85-3-7-9-4" class="cls-1" x="0.5" y="0.5" width="177.79" height="248.65" rx="8.5" ry="8.5"/></g><path id="path147-0-8-1-6-13-2-8-2-5" d="M130.62,26.9c-7.82.17-11.33,9-5.53,15.81.84,1,.93,1.57-.61.61-3.9-2.61-11.37-.89-11.76,7.08-.47,9.82,13.25,12.65,15.83,2.21.14-1.1,1-1.08.82.49A32.51,32.51,0,0,1,126,65.18h9.3a32.49,32.49,0,0,1-3.38-12.08c-.22-1.56.68-1.59.82-.49,2.58,10.44,16.3,7.61,15.83-2.21-.38-8-7.86-9.69-11.76-7.08-1.54,1-1.45.39-.61-.61,5.79-6.84,2.29-15.64-5.53-15.81h0Z"/><path id="path147-0-8-1-6-75-2-83-7-6-4" d="M48.16,26.9c-7.82.17-11.33,9-5.54,15.81.84,1,.93,1.57-.61.61-3.9-2.61-11.38-.89-11.76,7.08-.47,9.82,13.25,12.65,15.83,2.21.14-1.1,1-1.08.82.49a32.5,32.5,0,0,1-3.38,12.08h9.3A32.5,32.5,0,0,1,49.43,53.1c-.22-1.56.68-1.59.82-.49,2.58,10.44,16.3,7.61,15.83-2.21-.38-8-7.86-9.69-11.76-7.08-1.54,1-1.45.39-.61-.61C59.49,35.88,56,27.07,48.17,26.9h0Z"/><path id="path147-0-8-1-6-7-5-5-7-6-8-5" d="M130.62,223.41c-7.82-.17-11.33-9-5.53-15.81.84-1,.93-1.57-.61-.61-3.9,2.61-11.37.89-11.76-7.08-.47-9.82,13.25-12.65,15.83-2.21.14,1.1,1,1.08.82-.49A32.51,32.51,0,0,0,126,185.13h9.3a32.49,32.49,0,0,0-3.38,12.08c-.22,1.56.68,1.59.82.49,2.58-10.44,16.3-7.61,15.83,2.21-.38,8-7.86,9.69-11.76,7.08-1.54-1-1.45-.39-.61.61,5.79,6.84,2.29,15.64-5.53,15.81h0Z"/><path id="path147-0-8-1-6-75-6-1-2-4-9-5" d="M48.16,223.41c-7.82-.17-11.33-9-5.54-15.81.84-1,.93-1.57-.61-.61-3.9,2.61-11.38.89-11.76-7.08-.47-9.82,13.25-12.65,15.83-2.21.14,1.1,1,1.08.82-.49a32.5,32.5,0,0,0-3.38-12.08h9.3a32.5,32.5,0,0,0-3.38,12.08c-.22,1.56.68,1.59.82.49,2.58-10.44,16.3-7.61,15.83,2.21-.38,8-7.86,9.69-11.76,7.08-1.54-1-1.45-.39-.61.61,5.79,6.84,2.29,15.64-5.53,15.81h0Z"/><path id="path147-0-8-1-6-1-1-0-5-6-4-0" d="M89.39,106c-7.82.17-11.33,9-5.53,15.81.84,1,.93,1.57-.61.61-3.9-2.61-11.37-.89-11.76,7.08-.47,9.82,13.25,12.65,15.83,2.21.14-1.1,1-1.08.82.49a32.51,32.51,0,0,1-3.38,12.08H94a32.49,32.49,0,0,1-3.38-12.08c-.22-1.56.68-1.59.82-.49,2.58,10.44,16.3,7.61,15.83-2.21-.38-8-7.86-9.69-11.76-7.08-1.54,1-1.45.39-.61-.61,5.79-6.84,2.29-15.64-5.53-15.81h0Z"/><path id="path147-6-9-8-7-0-5-6-7-4-6" d="M164.58,209.3c3.13-.07,4.53-3.74,2.21-6.59-.34-.42-.37-.65.25-.25,1.56,1.09,4.55.37,4.7-2.95.19-4.09-5.3-5.27-6.33-.92-.05.46-.41.45-.33-.2a14,14,0,0,1,1.35-5h-3.72a14,14,0,0,1,1.35,5c.09.65-.27.66-.33.2-1-4.35-6.52-3.17-6.33.92.15,3.32,3.14,4,4.7,2.95.62-.4.58-.16.24.25-2.32,2.85-.91,6.52,2.21,6.59h0Z"/><path id="path147-6-9-8-7-4-5-62-2-3-8" d="M14.21,40.35c-3.13.07-4.53,3.74-2.21,6.59.34.42.37.65-.25.25-1.56-1.09-4.55-.37-4.7,2.95-.19,4.09,5.3,5.27,6.33.92.05-.46.41-.45.33.2a14,14,0,0,1-1.35,5h3.72a14,14,0,0,1-1.35-5c-.09-.65.27-.66.33-.2,1,4.35,6.52,3.17,6.33-.92-.15-3.32-3.14-4-4.7-2.95-.62.4-.58.16-.24-.25,2.32-2.85.91-6.52-2.21-6.59h0Z"/><path id="path21-39-8-1" d="M5.93,31,8.5,31c.49,1.59,1.58,3.2,3.06,3.65a6.16,6.16,0,0,0,7.74-4.12c1.07-3.33,0-8-2.9-9.65-2.38-1.37-5.91-.21-7.54,2.72l-1.8-1.13,1-11H19.81v2.59H10.26l-.15,4.56a7.54,7.54,0,0,1,7.27-.42c3.89,1.89,5.7,6.2,4.94,11.27-1,5-3.36,7.91-8.58,8.31C8,37.9,5.9,33.84,5.93,31Z"/><path id="path21-3-4-1-8" d="M172.86,218.61l-2.58,0c-.49-1.59-1.58-3.2-3.06-3.65a6.16,6.16,0,0,0-7.74,4.12c-1.07,3.32,0,8,2.9,9.65,2.38,1.37,5.92.21,7.54-2.72l1.8,1.13-1,11H159v-2.59h9.55l.15-4.56a7.54,7.54,0,0,1-7.27.42c-3.89-1.89-5.7-6.2-4.95-11.27,1-5,3.36-7.91,8.58-8.31,5.8-.05,7.85,4,7.82,6.81Z"/></g></g></g></svg>