<svg xmlns="http://www.w3.org/2000/svg" viewBox="0 0 178.79 249.65"><defs><style>.cls-1{fill:#fff;stroke:#000;stroke-width:1px;}</style></defs><title>5S</title><g id="Layer_2" data-name="Layer 2"><g id="svg11376"><g id="_5S" data-name="5S"><g id="g8459-0-4"><rect id="rect6920-5-5" class="cls-1" x="0.5" y="0.5" width="177.79" height="248.65" rx="8.5" ry="8.5"/><path id="path6950-9-9" d="M130.62,223.08c7.35-10.49,15.21-16.53,15.34-24.72,0-2.65-1.39-7.16-5.87-8-2.91-.56-6.91,1.8-7,6.59,0,1-1,.93-1-.38a27.2,27.2,0,0,1,3.34-11.75h-9.63a27.2,27.2,0,0,1,3.34,11.75c0,1.31-1,1.33-1,.38-.08-4.79-4.09-7.15-7-6.59-4.48.86-5.91,5.37-5.87,8,.13,8.19,8,14.22,15.34,24.72Z"/><path id="path6952-6-0" d="M164.57,209.3c3.43-4.37,7.11-6.89,7.17-10.3a3.31,3.31,0,0,0-2.74-3.34,2.85,2.85,0,0,0-3.27,2.75c0,.4-.47.39-.47-.16a10.42,10.42,0,0,1,1.56-4.9h-4.5a10.42,10.42,0,0,1,1.56,4.9c0,.54-.47.55-.47.16a2.85,2.85,0,0,0-3.27-2.75,3.31,3.31,0,0,0-2.74,3.34c.06,3.41,3.73,5.93,7.17,10.3Z"/><path id="path6956-5-0" d="M14.21,40.35c3.43,4.37,7.11,6.89,7.17,10.3A3.31,3.31,0,0,1,18.64,54a2.85,2.85,0,0,1-3.27-2.75c0-.4-.47-.39-.47.16a10.42,10.42,0,0,0,1.56,4.9H12a10.43,10.43,0,0,0,1.56-4.9c0-.54-.47-.55-.47-.16A2.85,2.85,0,0,1,9.79,54,3.31,3.31,0,0,1,7,50.65c.06-3.41,3.73-5.93,7.17-10.3Z"/><path id="path6958-4-1" d="M48.17,223.08c7.35-10.49,15.21-16.53,15.34-24.72,0-2.65-1.39-7.16-5.87-8-2.91-.56-6.91,1.8-7,6.59,0,1-1,.93-1-.38A27.2,27.2,0,0,1,53,184.8H43.35a27.2,27.2,0,0,1,3.34,11.75c0,1.31-1,1.33-1,.38-.08-4.79-4.09-7.15-7-6.59-4.48.86-5.91,5.37-5.87,8,.13,8.19,8,14.22,15.34,24.72Z"/><path id="path6970-5-5" d="M130.62,26.57C138,37.06,145.83,43.1,146,51.29c0,2.65-1.39,7.16-5.87,8-2.91.56-6.91-1.8-7-6.59,0-1-1-.93-1,.38a27.2,27.2,0,0,0,3.34,11.75h-9.63a27.2,27.2,0,0,0,3.34-11.75c0-1.31-1-1.33-1-.38-.08,4.79-4.09,7.15-7,6.59-4.48-.86-5.91-5.37-5.87-8,.13-8.19,8-14.22,15.34-24.72Z"/><path id="path6972-5-8" d="M48.17,26.57C55.51,37.06,63.38,43.1,63.51,51.29c0,2.65-1.39,7.16-5.87,8-2.91.56-6.91-1.8-7-6.59,0-1-1-.93-1,.38A27.2,27.2,0,0,0,53,64.85H43.35a27.2,27.2,0,0,0,3.34-11.75c0-1.31-1-1.33-1-.38-.08,4.79-4.09,7.15-7,6.59-4.48-.86-5.91-5.37-5.87-8,.13-8.19,8-14.22,15.34-24.72Z"/><path id="path6980-6-3" d="M89.39,144c7.35-10.49,15.21-16.53,15.34-24.71,0-2.65-1.39-7.16-5.87-8-2.91-.56-6.91,1.8-7,6.59,0,1-1,.93-1-.38a27.19,27.19,0,0,1,3.34-11.75H84.58a27.19,27.19,0,0,1,3.34,11.75c0,1.31-1,1.33-1,.38-.08-4.79-4.09-7.15-7-6.59-4.48.86-5.91,5.37-5.87,8,.13,8.19,8,14.22,15.34,24.71Z"/><path id="path21-4-5-5" d="M172.86,218.61l-2.58,0c-.49-1.59-1.58-3.2-3.06-3.65a6.16,6.16,0,0,0-7.74,4.12c-1.07,3.32,0,8,2.9,9.65,2.38,1.37,5.92.21,7.54-2.72l1.8,1.13-1,11H159v-2.59h9.55l.15-4.56a7.54,7.54,0,0,1-7.27.42c-3.89-1.89-5.7-6.2-4.95-11.27,1-5,3.36-7.91,8.58-8.31,5.8-.05,7.85,4,7.82,6.81Z"/><path id="path21-4-9-2-8" d="M5.93,31l2.58,0c.49,1.59,1.58,3.2,3.06,3.65a6.16,6.16,0,0,0,7.74-4.12c1.07-3.33,0-8-2.9-9.65-2.38-1.37-5.92-.21-7.54,2.72l-1.8-1.13,1-11H19.82v2.59H10.26l-.15,4.56a7.54,7.54,0,0,1,7.27-.42c3.89,1.89,5.7,6.2,4.94,11.27-1,5-3.36,7.91-8.58,8.31C8,37.9,5.9,33.84,5.93,31h0Z"/></g></g></g></g></svg>