<svg xmlns="http://www.w3.org/2000/svg" viewBox="0 0 178.79 249.65"><defs><style>.cls-1{fill:#fff;stroke:#000;stroke-width:1px;}.cls-2{fill:#d40000;}</style></defs><title>6D</title><g id="Layer_2" data-name="Layer 2"><g id="svg11376"><g id="_6D" data-name="6D"><rect id="rect6758-6" class="cls-1" x="0.5" y="0.5" width="177.79" height="248.65" rx="8.5" ry="8.5"/><path id="path6790-5" class="cls-2" d="M14.21,56.3a45,45,0,0,0-5.79-8,45,45,0,0,0,5.79-8,45,45,0,0,0,5.79,8A45,45,0,0,0,14.21,56.3Z"/><path id="path6792-5" class="cls-2" d="M130.62,64.85c-4.13-6.83-8.48-13.47-13.91-19.14,5.43-5.67,9.78-12.31,13.91-19.14,4.13,6.83,8.48,13.47,13.91,19.14C139.1,51.38,134.75,58,130.62,64.85Z"/><path id="path6794-1" class="cls-2" d="M164.57,209.3a45,45,0,0,0-5.79-8,45,45,0,0,0,5.79-8,45,45,0,0,0,5.79,8A45,45,0,0,0,164.57,209.3Z"/><path id="path6796-2" class="cls-2" d="M48.17,64.85C44,58,39.69,51.38,34.26,45.71,39.69,40,44,33.4,48.17,26.57,52.3,33.4,56.64,40,62.07,45.71,56.64,51.38,52.3,58,48.17,64.85Z"/><path id="path6806-6" class="cls-2" d="M48.17,143.94c-4.13-6.83-8.48-13.47-13.91-19.14,5.43-5.67,9.78-12.31,13.91-19.14,4.13,6.83,8.48,13.47,13.91,19.14C56.64,130.47,52.3,137.11,48.17,143.94Z"/><path id="path6808-6" class="cls-2" d="M130.62,144c-4.13-6.83-8.48-13.47-13.91-19.14,5.43-5.67,9.78-12.31,13.91-19.14,4.13,6.83,8.48,13.47,13.91,19.14C139.1,130.48,134.75,137.12,130.62,144Z"/><path id="path6812-0" class="cls-2" d="M48.17,223.08c-4.13-6.83-8.48-13.47-13.91-19.14,5.43-5.67,9.78-12.31,13.91-19.14,4.13,6.83,8.48,13.47,13.91,19.14C56.64,209.62,52.3,216.25,48.17,223.08Z"/><path id="path6814-4" class="cls-2" d="M130.62,223.09c-4.13-6.83-8.48-13.47-13.91-19.14,5.43-5.67,9.78-12.31,13.91-19.14,4.13,6.83,8.48,13.47,13.91,19.14C139.1,209.62,134.75,216.26,130.62,223.09Z"/><path id="path23-5-3-5-5" class="cls-2" d="M6.49,29.75a52.88,52.88,0,0,1-.05-9.63c.82-5.19,2.79-7.56,6.11-8.34s7.75.09,8.74,4.42l-2.69.05c-1.46-2.93-5.14-2.15-7.22-.87C9.73,16.4,9,20.64,9.3,20.9c0,0,3.13-2.32,5.6-2.15,5.28.55,7.45,5.13,7.27,9.46-.17,5.2-1.82,9.37-7.41,9.64-5.32-.21-7.75-3.11-8.26-8.1h0ZM19.6,28.38c0-3.61-1.61-6.32-4.71-6.61s-6.22,2.73-6,6.41S10.54,35,14.29,35c4,0,5.29-4,5.31-6.58Z"/><path id="path23-6-5-6-6" class="cls-2" d="M172.29,219.9a52.9,52.9,0,0,1,.05,9.63c-.82,5.19-2.8,7.56-6.11,8.34s-7.74-.08-8.74-4.42l2.69-.05c1.46,2.93,5.14,2.15,7.22.87,1.66-1,2.4-5.26,2.08-5.52,0,0-3.13,2.32-5.6,2.15-5.28-.55-7.45-5.13-7.27-9.46.17-5.2,1.82-9.37,7.41-9.64,5.32.21,7.75,3.11,8.26,8.1h0Zm-13.11,1.38c0,3.61,1.61,6.32,4.71,6.61s6.22-2.73,6-6.41-1.64-6.8-5.4-6.79c-4,0-5.29,4-5.31,6.58Z"/></g></g></g></svg>