<svg xmlns="http://www.w3.org/2000/svg" viewBox="0 0 178.79 249.65"><defs><style>.cls-1{fill:#fff;stroke:#000;stroke-width:1px;}</style></defs><title>6S</title><g id="Layer_2" data-name="Layer 2"><g id="svg11376"><g id="_6S" data-name="6S"><rect id="rect6988-1-0" class="cls-1" x="0.5" y="0.5" width="177.79" height="248.65" rx="8.5" ry="8.5"/><path id="path7018-7-4" d="M48.17,26.57C40.82,37.06,33,43.1,32.82,51.29c0,2.65,1.39,7.16,5.87,8,2.91.56,6.91-1.8,7-6.59,0-1,1-.93,1,.38a27.22,27.22,0,0,1-3.34,11.75H53a27.2,27.2,0,0,1-3.34-11.75c0-1.31,1-1.33,1-.38.08,4.79,4.09,7.15,7,6.59,4.48-.86,5.91-5.37,5.87-8-.13-8.19-8-14.22-15.34-24.72Z"/><path id="path7020-0-8" d="M14.21,40.35C10.78,44.72,7.11,47.24,7,50.65A3.31,3.31,0,0,0,9.79,54a2.85,2.85,0,0,0,3.27-2.75c0-.4.47-.39.47.16A10.42,10.42,0,0,1,12,56.3h4.5a10.43,10.43,0,0,1-1.56-4.9c0-.54.47-.55.47-.16A2.85,2.85,0,0,0,18.64,54a3.31,3.31,0,0,0,2.74-3.34c-.06-3.41-3.73-5.93-7.17-10.3Z"/><path id="path7024-7-1" d="M164.57,209.3c-3.43-4.37-7.11-6.89-7.17-10.3a3.31,3.31,0,0,1,2.74-3.34,2.85,2.85,0,0,1,3.27,2.75c0,.4.47.39.47-.16a10.42,10.42,0,0,0-1.56-4.9h4.5a10.43,10.43,0,0,0-1.56,4.9c0,.54.47.55.47.16a2.85,2.85,0,0,1,3.27-2.75,3.31,3.31,0,0,1,2.74,3.34c-.06,3.41-3.73,5.93-7.17,10.3Z"/><path id="path7026-2-6" d="M130.62,26.57c-7.35,10.49-15.21,16.53-15.34,24.72,0,2.65,1.39,7.16,5.87,8,2.91.56,6.91-1.8,7-6.59,0-1,1-.93,1,.38a27.2,27.2,0,0,1-3.34,11.75h9.63a27.2,27.2,0,0,1-3.34-11.75c0-1.31,1-1.33,1-.38.08,4.79,4.09,7.15,7,6.59,4.48-.86,5.92-5.37,5.87-8C145.83,43.1,138,37.06,130.62,26.57Z"/><path id="path7036-9-6" d="M48.17,105.69C40.82,116.18,33,122.22,32.82,130.4c0,2.65,1.39,7.16,5.87,8,2.91.56,6.91-1.8,7-6.59,0-1,1-.93,1,.38A27.21,27.21,0,0,1,43.35,144H53a27.19,27.19,0,0,1-3.34-11.75c0-1.31,1-1.33,1-.38.08,4.79,4.09,7.15,7,6.59,4.48-.86,5.91-5.37,5.87-8-.13-8.19-8-14.22-15.34-24.71Z"/><path id="path7038-9-6" d="M48.17,223.08C40.82,212.59,33,206.55,32.82,198.36c0-2.65,1.39-7.16,5.87-8,2.91-.56,6.91,1.8,7,6.59,0,1,1,.93,1-.38a27.21,27.21,0,0,0-3.34-11.75H53a27.2,27.2,0,0,0-3.34,11.75c0,1.31,1,1.33,1,.38.08-4.79,4.09-7.15,7-6.59,4.48.86,5.91,5.37,5.87,8-.13,8.19-8,14.22-15.34,24.72Z"/><path id="path7040-0-9" d="M130.62,223.08c-7.35-10.49-15.21-16.53-15.34-24.72,0-2.65,1.39-7.16,5.87-8,2.91-.56,6.91,1.8,7,6.59,0,1,1,.93,1-.38a27.2,27.2,0,0,0-3.34-11.75h9.63a27.2,27.2,0,0,0-3.34,11.75c0,1.31,1,1.33,1,.38.08-4.79,4.09-7.15,7-6.59,4.48.86,5.92,5.37,5.87,8C145.83,206.55,138,212.59,130.62,223.08Z"/><path id="path7050-2-9" d="M130.62,105.69c-7.35,10.49-15.21,16.53-15.34,24.71,0,2.65,1.39,7.16,5.87,8,2.91.56,6.91-1.8,7-6.59,0-1,1-.93,1,.38A27.2,27.2,0,0,1,125.81,144h9.63a27.2,27.2,0,0,1-3.34-11.75c0-1.31,1-1.33,1-.38.08,4.79,4.09,7.15,7,6.59,4.48-.86,5.92-5.37,5.87-8C145.83,122.22,138,116.18,130.62,105.69Z"/><path id="path23-1-9-8" d="M6.49,29.75a52.8,52.8,0,0,1-.05-9.63c.82-5.19,2.79-7.56,6.11-8.34s7.74.09,8.74,4.42l-2.69.05c-1.46-2.93-5.14-2.15-7.22-.87C9.73,16.4,9,20.64,9.3,20.9c0,0,3.13-2.32,5.6-2.15,5.28.55,7.45,5.13,7.27,9.46-.17,5.2-1.82,9.37-7.41,9.64-5.32-.21-7.75-3.11-8.26-8.1h0ZM19.6,28.38c0-3.61-1.61-6.32-4.71-6.61s-6.22,2.73-6,6.41S10.54,35,14.29,35c4,0,5.29-4,5.31-6.58Z"/><path id="path23-1-5-6-4" d="M172.29,219.9a52.88,52.88,0,0,1,.05,9.63c-.82,5.19-2.79,7.56-6.11,8.34s-7.74-.09-8.74-4.42l2.69-.05c1.46,2.93,5.14,2.15,7.22.87,1.66-1,2.4-5.26,2.08-5.52,0,0-3.13,2.32-5.6,2.15-5.28-.55-7.45-5.13-7.27-9.46.17-5.2,1.82-9.37,7.41-9.64,5.32.21,7.75,3.11,8.26,8.1h0Zm-13.11,1.37c0,3.61,1.61,6.32,4.71,6.61s6.22-2.73,6-6.41-1.64-6.8-5.4-6.79c-4,0-5.29,4-5.31,6.58Z"/></g></g></g></svg>