<svg xmlns="http://www.w3.org/2000/svg" viewBox="0 0 178.79 249.65"><defs><style>.cls-1{fill:#fff;stroke:#000;stroke-width:1px;}.cls-2{fill:#d40000;}</style></defs><title>7D</title><g id="Layer_2" data-name="Layer 2"><g id="svg11376"><g id="_7D" data-name="7D"><rect id="rect6826-9" class="cls-1" x="0.5" y="0.5" width="177.79" height="248.65" rx="8.5" ry="8.5"/><path id="path6858-4" class="cls-2" d="M14.21,56.3a45,45,0,0,0-5.79-8,45,45,0,0,0,5.79-8,45,45,0,0,0,5.8,8A45,45,0,0,0,14.21,56.3Z"/><path id="path6860-1" class="cls-2" d="M130.62,64.85c-4.13-6.83-8.48-13.47-13.91-19.14,5.43-5.67,9.78-12.31,13.91-19.14,4.13,6.83,8.48,13.47,13.91,19.14C139.1,51.38,134.75,58,130.62,64.85Z"/><path id="path6862-0" class="cls-2" d="M164.57,209.3a45,45,0,0,0-5.79-8,45,45,0,0,0,5.79-8,45,45,0,0,0,5.79,8A45,45,0,0,0,164.57,209.3Z"/><path id="path6864-5" class="cls-2" d="M48.16,64.85C44,58,39.69,51.38,34.26,45.71,39.69,40,44,33.4,48.16,26.57,52.3,33.4,56.64,40,62.07,45.71,56.64,51.38,52.3,58,48.16,64.85Z"/><path id="path6870-5" class="cls-2" d="M89.39,104.39c-4.13-6.83-8.48-13.47-13.91-19.14,5.43-5.67,9.78-12.31,13.91-19.14,4.13,6.83,8.48,13.47,13.91,19.14C97.87,90.93,93.52,97.56,89.39,104.39Z"/><path id="path6874-1" class="cls-2" d="M48.16,143.94c-4.13-6.83-8.48-13.47-13.91-19.14,5.43-5.67,9.78-12.31,13.91-19.14,4.13,6.83,8.48,13.47,13.91,19.14C56.64,130.47,52.3,137.11,48.16,143.94Z"/><path id="path6876-6" class="cls-2" d="M130.62,144c-4.13-6.83-8.48-13.47-13.91-19.14,5.43-5.67,9.78-12.31,13.91-19.14,4.13,6.83,8.48,13.47,13.91,19.14C139.1,130.48,134.75,137.12,130.62,144Z"/><path id="path6880-5" class="cls-2" d="M48.16,223.08c-4.13-6.83-8.48-13.47-13.91-19.14,5.43-5.67,9.78-12.31,13.91-19.14,4.13,6.83,8.48,13.47,13.91,19.14C56.64,209.62,52.3,216.25,48.16,223.08Z"/><path id="path6882-9" class="cls-2" d="M130.62,223.09c-4.13-6.83-8.48-13.47-13.91-19.14,5.43-5.67,9.78-12.31,13.91-19.14,4.13,6.83,8.48,13.47,13.91,19.14C139.1,209.62,134.75,216.26,130.62,223.09Z"/><path id="path25-43-4-8-8" class="cls-2" d="M10.17,37.85c1.73-9.15,3.57-16,8.4-23.47H8.75v3.21H6.14v-6H20.51l1.77,2.84c-5.13,5.61-9.83,23.74-9,23.47Z"/><path id="path25-7-0-7-6" class="cls-2" d="M168.61,211.8c-1.73,9.15-3.57,16-8.4,23.47H170v-3.21h2.61v6H158.28l-1.77-2.84c5.13-5.61,9.83-23.74,9-23.47Z"/></g></g></g></svg>