<svg xmlns="http://www.w3.org/2000/svg" viewBox="0 0 178.78 249.65"><defs><style>.cls-1{fill:#fff;stroke:#000;stroke-width:1px;}</style></defs><title>8C</title><g id="Layer_2" data-name="Layer 2"><g id="svg11376"><g id="_8C" data-name="8C"><rect id="rect6355-6-85-3-3-4-3" class="cls-1" x="0.5" y="0.5" width="177.79" height="248.65" rx="8.5" ry="8.5"/><path id="path147-0-8-1-6-13-2-2-3-8" d="M130.62,26.9c-7.82.17-11.33,9-5.54,15.81.84,1,.93,1.57-.61.61-3.9-2.61-11.37-.89-11.76,7.08-.47,9.82,13.25,12.65,15.83,2.21.14-1.1,1-1.08.82.49A32.51,32.51,0,0,1,126,65.18h9.3a32.49,32.49,0,0,1-3.38-12.08c-.22-1.56.68-1.59.82-.49,2.58,10.44,16.3,7.61,15.83-2.21-.38-8-7.86-9.68-11.76-7.08-1.54,1-1.45.39-.61-.61,5.79-6.84,2.29-15.64-5.54-15.81h0Z"/><path id="path147-0-8-1-6-75-2-83-9-8-9" d="M48.16,26.9c-7.82.17-11.33,9-5.54,15.81.84,1,.93,1.57-.61.61-3.9-2.61-11.37-.89-11.76,7.08-.47,9.82,13.25,12.65,15.83,2.21.14-1.1,1-1.08.82.49a32.49,32.49,0,0,1-3.38,12.08h9.3A32.51,32.51,0,0,1,49.43,53.1c-.22-1.56.68-1.59.82-.49,2.58,10.44,16.3,7.61,15.83-2.21-.38-8-7.86-9.68-11.76-7.08-1.54,1-1.45.39-.61-.61C59.49,35.88,56,27.07,48.17,26.9h0Z"/><path id="path147-0-8-1-6-7-5-5-7-62-3-0" d="M130.62,223.41c-7.82-.17-11.33-9-5.54-15.81.84-1,.93-1.57-.61-.61-3.9,2.61-11.37.89-11.76-7.08-.47-9.82,13.25-12.65,15.83-2.21.14,1.1,1,1.08.82-.49A32.51,32.51,0,0,0,126,185.13h9.3a32.49,32.49,0,0,0-3.38,12.08c-.22,1.56.68,1.59.82.49,2.58-10.44,16.3-7.61,15.83,2.21-.38,8-7.86,9.69-11.76,7.08-1.54-1-1.45-.39-.61.61,5.79,6.84,2.29,15.64-5.54,15.81h0Z"/><path id="path147-0-8-1-6-75-6-1-2-41-4-5" d="M48.16,223.41c-7.82-.17-11.33-9-5.54-15.81.84-1,.93-1.57-.61-.61-3.9,2.61-11.37.89-11.76-7.08-.47-9.82,13.25-12.65,15.83-2.21.14,1.1,1,1.08.82-.49a32.49,32.49,0,0,0-3.38-12.08h9.3a32.51,32.51,0,0,0-3.38,12.08c-.22,1.56.68,1.59.82.49,2.58-10.44,16.3-7.61,15.83,2.21-.38,8-7.86,9.69-11.76,7.08-1.54-1-1.45-.39-.61.61,5.79,6.84,2.29,15.64-5.53,15.81h0Z"/><path id="path147-0-8-1-6-2-00-7-5-5-3" d="M89.39,66.46c-7.82.17-11.33,9-5.54,15.81.84,1,.93,1.57-.61.61C79.34,80.27,71.87,82,71.48,90c-.47,9.82,13.25,12.65,15.83,2.21.14-1.1,1-1.08.82.49a32.51,32.51,0,0,1-3.38,12.08H94a32.5,32.5,0,0,1-3.38-12.08c-.22-1.56.68-1.59.82-.49C94,102.61,107.77,99.78,107.3,90c-.38-8-7.86-9.68-11.76-7.08-1.54,1-1.45.38-.61-.61,5.79-6.84,2.28-15.64-5.54-15.81h0Z"/><path id="path147-0-8-1-6-7-5-7-3-0-4-4-6" d="M130.62,106c-7.82.17-11.33,9-5.54,15.81.84,1,.93,1.57-.61.61-3.9-2.61-11.37-.89-11.76,7.08-.47,9.82,13.25,12.65,15.83,2.21.14-1.1,1-1.08.82.49A32.51,32.51,0,0,1,126,144.29h9.3a32.49,32.49,0,0,1-3.38-12.08c-.22-1.56.68-1.59.82-.49,2.58,10.44,16.3,7.61,15.83-2.21-.38-8-7.86-9.69-11.76-7.08-1.54,1-1.45.39-.61-.61,5.79-6.84,2.29-15.64-5.54-15.81h0Z"/><path id="path147-0-8-1-6-75-6-6-5-3-2-4-8" d="M48.16,106c-7.82.17-11.33,9-5.54,15.81.84,1,.93,1.57-.61.61-3.9-2.61-11.37-.89-11.76,7.08-.47,9.82,13.25,12.65,15.83,2.21.14-1.1,1-1.08.82.49a32.49,32.49,0,0,1-3.38,12.08h9.3a32.51,32.51,0,0,1-3.38-12.08c-.22-1.56.68-1.59.82-.49,2.58,10.44,16.3,7.61,15.83-2.21-.38-8-7.86-9.69-11.76-7.08-1.54,1-1.45.39-.61-.61C59.49,115,56,106.19,48.17,106h0Z"/><path id="path147-0-8-1-6-2-0-8-6-42-9-6" d="M89.39,183.85c-7.82-.17-11.33-9-5.54-15.81.84-1,.93-1.57-.61-.61-3.9,2.61-11.38.89-11.76-7.08-.47-9.82,13.25-12.65,15.83-2.21.14,1.1,1,1.08.82-.49a32.51,32.51,0,0,0-3.38-12.08H94a32.51,32.51,0,0,0-3.38,12.08c-.22,1.56.68,1.59.82.49,2.58-10.44,16.3-7.61,15.83,2.21-.38,8-7.86,9.69-11.76,7.08-1.54-1-1.45-.39-.61.61,5.79,6.84,2.29,15.64-5.54,15.81h0Z"/><path id="path147-6-9-8-7-0-5-6-1-6-9" d="M164.57,209.3c3.13-.07,4.53-3.74,2.21-6.59-.34-.42-.37-.65.25-.25,1.56,1.09,4.55.37,4.7-2.95.19-4.09-5.3-5.27-6.33-.92-.05.46-.41.45-.33-.2a14,14,0,0,1,1.35-5h-3.72a14,14,0,0,1,1.35,5c.09.65-.27.66-.33.2-1-4.35-6.52-3.17-6.33.92.15,3.32,3.14,4,4.7,2.95.62-.4.58-.16.25.25-2.32,2.85-.91,6.52,2.21,6.59h0Z"/><path id="path147-6-9-8-7-4-5-62-4-0-0" d="M14.21,40.35c-3.13.07-4.53,3.74-2.21,6.59.34.42.37.65-.25.25C10.19,46.1,7.2,46.82,7,50.14c-.19,4.09,5.3,5.27,6.33.92.05-.46.41-.45.33.2a14,14,0,0,1-1.35,5h3.72a14,14,0,0,1-1.35-5c-.09-.65.27-.66.33-.2,1,4.35,6.52,3.17,6.33-.92-.15-3.32-3.14-4-4.7-2.95-.62.4-.58.16-.25-.25,2.32-2.85.91-6.52-2.21-6.59h0Z"/><path id="path27-3-3-2" d="M5.67,30.14c.13-3.53,1.4-4.86,3.91-6.71A6.09,6.09,0,0,1,6.91,18c.41-4.4,3.8-6.6,7.5-6.5s6.89,3,7.14,6.23A5.43,5.43,0,0,1,19,23.35c2.34,2,3.83,3.27,3.77,6.75a8.18,8.18,0,0,1-8.16,7.75c-5.15.13-9-4.17-8.91-7.7Zm14.38,0c.22-3.2-2.6-5.36-5.79-5.39a5.88,5.88,0,0,0-5.88,5.49C8.38,33.34,12,35,14.33,35c2.83,0,5.54-2.12,5.73-4.87ZM19,18.71a4.69,4.69,0,0,0-5-4.54c-2.28.07-4.68,1.81-4.69,4.06,0,2.82,2.74,4.23,5.08,4.28,2.12,0,4.54-1.76,4.59-3.8Z"/><path id="path27-0-0-5-0" d="M156,219.51c.13,3.53,1.4,4.86,3.91,6.71a6.09,6.09,0,0,0-2.68,5.4c.41,4.4,3.8,6.59,7.5,6.5s6.89-3,7.14-6.23a5.44,5.44,0,0,0-2.58-5.58c2.34-2,3.83-3.27,3.77-6.75a8.18,8.18,0,0,0-8.16-7.75c-5.15-.13-9,4.17-8.91,7.7Zm14.38,0c.22,3.2-2.6,5.36-5.79,5.39a5.88,5.88,0,0,1-5.88-5.49c0-3.08,3.61-4.76,5.94-4.77,2.84,0,5.54,2.12,5.73,4.87Zm-1,11.44a4.69,4.69,0,0,1-5,4.54c-2.28-.07-4.68-1.81-4.69-4.06,0-2.82,2.74-4.23,5.08-4.28,2.12,0,4.54,1.76,4.59,3.79Z"/></g></g></g></svg>