<svg xmlns="http://www.w3.org/2000/svg" viewBox="0 0 178.79 249.65"><defs><style>.cls-1{fill:#fff;stroke:#000;stroke-width:1px;}.cls-2{fill:#d40000;}</style></defs><title>8D</title><g id="Layer_2" data-name="Layer 2"><g id="svg11376"><g id="_8D" data-name="8D"><rect id="rect6894-2" class="cls-1" x="0.5" y="0.5" width="177.79" height="248.65" rx="8.5" ry="8.5"/><path id="path6926-2" class="cls-2" d="M14.21,56.3a45,45,0,0,0-5.79-8,45,45,0,0,0,5.79-8,44.91,44.91,0,0,0,5.79,8A44.94,44.94,0,0,0,14.21,56.3Z"/><path id="path6928-9" class="cls-2" d="M130.62,64.85c-4.13-6.83-8.48-13.47-13.91-19.14,5.43-5.67,9.78-12.31,13.91-19.14,4.13,6.83,8.48,13.47,13.91,19.14C139.1,51.38,134.75,58,130.62,64.85Z"/><path id="path6930-6" class="cls-2" d="M164.57,209.3a45,45,0,0,0-5.79-8,45,45,0,0,0,5.79-8,45,45,0,0,0,5.79,8A45,45,0,0,0,164.57,209.3Z"/><path id="path6932-2" class="cls-2" d="M48.17,64.85C44,58,39.69,51.38,34.26,45.71,39.69,40,44,33.4,48.17,26.57,52.3,33.4,56.64,40,62.07,45.71,56.64,51.38,52.3,58,48.17,64.85Z"/><path id="path6938-4" class="cls-2" d="M89.39,104.39c-4.13-6.83-8.48-13.47-13.91-19.14,5.43-5.67,9.78-12.31,13.91-19.14,4.13,6.83,8.48,13.47,13.91,19.14C97.87,90.93,93.52,97.56,89.39,104.39Z"/><path id="path6942-4" class="cls-2" d="M48.17,143.94c-4.13-6.83-8.48-13.47-13.91-19.14,5.43-5.67,9.78-12.31,13.91-19.14,4.13,6.83,8.48,13.47,13.91,19.14C56.64,130.47,52.3,137.11,48.17,143.94Z"/><path id="path6944-9" class="cls-2" d="M130.62,144c-4.13-6.83-8.48-13.47-13.91-19.14,5.43-5.67,9.78-12.31,13.91-19.14,4.13,6.83,8.48,13.47,13.91,19.14C139.1,130.48,134.75,137.12,130.62,144Z"/><path id="path6948-4" class="cls-2" d="M48.17,223.08c-4.13-6.83-8.48-13.47-13.91-19.14,5.43-5.67,9.78-12.31,13.91-19.14,4.13,6.83,8.48,13.47,13.91,19.14C56.64,209.62,52.3,216.25,48.17,223.08Z"/><path id="path6950-4" class="cls-2" d="M130.62,223.09c-4.13-6.83-8.48-13.47-13.91-19.14,5.43-5.67,9.78-12.31,13.91-19.14,4.13,6.83,8.48,13.47,13.91,19.14C139.1,209.62,134.75,216.26,130.62,223.09Z"/><path id="path6956-4" class="cls-2" d="M89.39,183.51c-4.13-6.83-8.48-13.47-13.91-19.14,5.43-5.67,9.78-12.31,13.91-19.14,4.13,6.83,8.48,13.47,13.91,19.14C97.87,170,93.52,176.68,89.39,183.51Z"/><path id="path27-00-7-8-6" class="cls-2" d="M5.67,30.14c.13-3.53,1.4-4.86,3.91-6.71A6.09,6.09,0,0,1,6.91,18c.41-4.4,3.8-6.6,7.5-6.5s6.89,3,7.14,6.23A5.44,5.44,0,0,1,19,23.35c2.34,2,3.83,3.27,3.77,6.75a8.18,8.18,0,0,1-8.16,7.75c-5.15.13-9-4.17-8.91-7.71h0Zm14.38,0c.22-3.2-2.6-5.36-5.79-5.39a5.88,5.88,0,0,0-5.88,5.49C8.39,33.34,12,35,14.33,35c2.84,0,5.54-2.12,5.73-4.87ZM19,18.71a4.69,4.69,0,0,0-5-4.54c-2.28.07-4.68,1.81-4.69,4.06,0,2.82,2.74,4.23,5.08,4.28,2.12,0,4.54-1.76,4.59-3.79Z"/><path id="path27-0-1-9-8" class="cls-2" d="M156,219.51c.13,3.53,1.4,4.86,3.91,6.71a6.09,6.09,0,0,0-2.68,5.4c.41,4.4,3.8,6.6,7.5,6.5s6.89-3,7.14-6.23a5.44,5.44,0,0,0-2.58-5.58c2.34-2,3.83-3.27,3.77-6.75a8.18,8.18,0,0,0-8.16-7.75c-5.15-.13-9,4.17-8.91,7.71h0Zm14.38,0c.22,3.2-2.6,5.36-5.79,5.39a5.88,5.88,0,0,1-5.88-5.49c0-3.08,3.61-4.76,5.94-4.77,2.83,0,5.54,2.12,5.73,4.87Zm-1,11.44a4.69,4.69,0,0,1-5,4.54c-2.28-.07-4.68-1.81-4.69-4.06,0-2.82,2.74-4.23,5.08-4.28,2.12,0,4.54,1.76,4.59,3.79Z"/></g></g></g></svg>