<svg xmlns="http://www.w3.org/2000/svg" viewBox="0 0 178.78 249.65"><defs><style>.cls-1{fill:#fff;stroke:#000;stroke-width:1px;}</style></defs><title>9C</title><g id="Layer_2" data-name="Layer 2"><g id="svg11376"><g id="_9C" data-name="9C"><rect id="rect6355-6-85-3-78-4-6" class="cls-1" x="0.5" y="0.5" width="177.79" height="248.65" rx="8.5" ry="8.5"/><path id="path147-0-8-1-6-13-2-9-8-8" d="M130.62,26.9c-7.82.17-11.33,9-5.54,15.81.84,1,.93,1.57-.61.61-3.9-2.61-11.38-.89-11.76,7.08-.47,9.82,13.25,12.65,15.83,2.21.14-1.1,1-1.08.82.49A32.49,32.49,0,0,1,126,65.18h9.3a32.51,32.51,0,0,1-3.38-12.08c-.22-1.56.68-1.59.82-.49,2.58,10.44,16.3,7.61,15.83-2.21-.38-8-7.86-9.68-11.76-7.08-1.54,1-1.45.39-.61-.61,5.79-6.84,2.28-15.64-5.54-15.81h0Z"/><path id="path147-0-8-1-6-75-2-83-3-5-0" d="M48.16,26.9c-7.82.17-11.33,9-5.53,15.81.84,1,.93,1.57-.61.61-3.9-2.61-11.37-.89-11.76,7.08-.47,9.82,13.25,12.65,15.83,2.21.14-1.1,1-1.08.82.49a32.51,32.51,0,0,1-3.38,12.08h9.3A32.51,32.51,0,0,1,49.43,53.1c-.22-1.56.68-1.59.82-.49,2.58,10.44,16.3,7.61,15.83-2.21-.38-8-7.86-9.68-11.76-7.08-1.54,1-1.45.39-.61-.61C59.49,35.88,56,27.07,48.17,26.9h0Z"/><path id="path147-0-8-1-6-7-5-5-7-63-0-4" d="M130.62,223.41c-7.82-.17-11.33-9-5.54-15.81.84-1,.93-1.57-.61-.61-3.9,2.61-11.38.89-11.76-7.08-.47-9.82,13.25-12.65,15.83-2.21.14,1.1,1,1.08.82-.49A32.49,32.49,0,0,0,126,185.13h9.3a32.51,32.51,0,0,0-3.38,12.08c-.22,1.56.68,1.59.82.49,2.58-10.44,16.3-7.61,15.83,2.21-.38,8-7.86,9.69-11.76,7.08-1.54-1-1.45-.39-.61.61,5.79,6.84,2.28,15.64-5.54,15.81h0Z"/><path id="path147-0-8-1-6-75-6-1-2-46-5-0" d="M48.16,223.41c-7.82-.17-11.33-9-5.53-15.81.84-1,.93-1.57-.61-.61-3.9,2.61-11.37.89-11.76-7.08-.47-9.82,13.25-12.65,15.83-2.21.14,1.1,1,1.08.82-.49a32.51,32.51,0,0,0-3.38-12.08h9.3a32.51,32.51,0,0,0-3.38,12.08c-.22,1.56.68,1.59.82.49,2.58-10.44,16.3-7.61,15.83,2.21-.38,8-7.86,9.69-11.76,7.08-1.54-1-1.45-.39-.61.61,5.79,6.84,2.29,15.64-5.53,15.81h0Z"/><path id="path147-0-8-1-6-1-1-0-5-61-2-0" d="M89.39,106c-7.82.17-11.33,9-5.54,15.81.84,1,.93,1.57-.61.61-3.9-2.61-11.37-.89-11.76,7.08-.47,9.82,13.25,12.65,15.83,2.21.14-1.1,1-1.08.82.49a32.51,32.51,0,0,1-3.38,12.08H94a32.51,32.51,0,0,1-3.38-12.08c-.22-1.56.68-1.59.82-.49,2.58,10.44,16.3,7.61,15.83-2.21-.38-8-7.86-9.69-11.76-7.08-1.54,1-1.45.39-.61-.61,5.79-6.84,2.29-15.64-5.54-15.81h0Z"/><path id="path147-6-9-8-7-0-5-6-5-2-8" d="M164.57,209.3c3.13-.07,4.53-3.74,2.21-6.59-.34-.42-.37-.65.24-.25,1.56,1.09,4.55.37,4.7-2.95.19-4.09-5.3-5.27-6.33-.92-.05.46-.41.45-.33-.2a14,14,0,0,1,1.35-5h-3.72a14,14,0,0,1,1.35,5c.09.65-.27.66-.33.2-1-4.35-6.52-3.17-6.33.92.15,3.32,3.14,4,4.7,2.95.62-.4.58-.16.24.25-2.32,2.85-.91,6.52,2.21,6.59h0Z"/><path id="path147-0-8-1-6-75-2-9-77-4-4-2" d="M48.16,79.64c-7.82.17-11.33,9-5.53,15.81.84,1,.93,1.57-.61.61-3.9-2.61-11.37-.89-11.76,7.08-.47,9.82,13.25,12.65,15.83,2.21.14-1.1,1-1.08.82.49a32.49,32.49,0,0,1-3.38,12.08h9.3a32.51,32.51,0,0,1-3.38-12.08c-.22-1.56.68-1.59.82-.49,2.58,10.44,16.3,7.61,15.83-2.21-.38-8-7.86-9.68-11.76-7.08-1.54,1-1.45.39-.61-.61,5.79-6.84,2.29-15.64-5.53-15.81h0Z"/><path id="path147-0-8-1-6-75-2-8-0-6-4-4" d="M48.16,170.67c-7.82-.17-11.33-9-5.53-15.81.84-1,.93-1.57-.61-.61-3.9,2.61-11.37.89-11.76-7.08-.47-9.82,13.25-12.65,15.83-2.21.14,1.1,1,1.08.82-.49a32.51,32.51,0,0,0-3.38-12.08h9.3a32.51,32.51,0,0,0-3.38,12.08c-.22,1.56.68,1.59.82.49,2.58-10.44,16.3-7.61,15.83,2.21-.38,8-7.86,9.69-11.76,7.08-1.54-1-1.45-.39-.61.61,5.79,6.84,2.29,15.64-5.53,15.81h0Z"/><path id="path147-0-8-1-6-75-2-9-7-1-36-2-4" d="M130.62,79.64c-7.82.17-11.33,9-5.54,15.81.84,1,.93,1.57-.61.61-3.9-2.61-11.38-.89-11.76,7.08-.47,9.82,13.25,12.65,15.83,2.21.14-1.1,1-1.08.82.49A32.49,32.49,0,0,1,126,117.92h9.3a32.51,32.51,0,0,1-3.38-12.08c-.22-1.56.68-1.59.82-.49,2.58,10.44,16.3,7.61,15.83-2.21-.38-8-7.86-9.68-11.76-7.08-1.54,1-1.45.39-.61-.61,5.79-6.84,2.28-15.64-5.54-15.81h0Z"/><path id="path147-0-8-1-6-75-2-8-5-1-55-5-4" d="M130.62,170.67c-7.82-.17-11.33-9-5.54-15.81.84-1,.93-1.57-.61-.61-3.9,2.61-11.38.89-11.76-7.08-.47-9.82,13.25-12.65,15.83-2.21.14,1.1,1,1.08.82-.49A32.49,32.49,0,0,0,126,132.39h9.3a32.51,32.51,0,0,0-3.38,12.08c-.22,1.56.68,1.59.82.49,2.58-10.44,16.3-7.61,15.83,2.21-.38,8-7.86,9.69-11.76,7.08-1.54-1-1.45-.39-.61.61,5.79,6.84,2.28,15.64-5.54,15.81h0Z"/><path id="path147-6-9-8-7-4-5-62-7-8-4" d="M14.21,40.35c-3.13.07-4.53,3.74-2.21,6.59.34.42.37.65-.24.25C10.19,46.1,7.2,46.82,7,50.14c-.19,4.09,5.3,5.27,6.33.92.05-.46.41-.45.33.2a14,14,0,0,1-1.35,5h3.72a14,14,0,0,1-1.35-5c-.09-.65.27-.66.33-.2,1,4.35,6.52,3.17,6.33-.92-.15-3.32-3.14-4-4.7-2.95-.62.4-.58.16-.25-.25,2.32-2.85.91-6.52-2.21-6.59h0Z"/><path id="path29-2-3-4" d="M6.87,32.78,9.27,32A4.26,4.26,0,0,0,14,35c3.48-.28,4.63-4.17,4.89-7.61a6.91,6.91,0,0,1-5.13,2.1c-5.55-.3-7-4.74-7-9.4-.15-3.92,1.47-6.77,4.25-8.07a9.5,9.5,0,0,1,6.32.12c3.4,1.8,4.66,4.9,4.43,12.31,0,6.09-1.29,13.19-7.82,13.35a6.32,6.32,0,0,1-7-5Zm9.44-6.68a5.69,5.69,0,0,0,2.28-2.4,4.52,4.52,0,0,0,.44-3c-.31-4.42-2.62-6.93-6-6.43-1.87.28-2.9,1.33-3.48,3.28-1.08,3.61.29,7.82,2.87,8.79a5,5,0,0,0,3.87-.27Z"/><path id="path29-6-1-3-7" d="M171.91,216.87l-2.4.76a4.26,4.26,0,0,0-4.68-3c-3.48.28-4.64,4.17-4.9,7.62a6.91,6.91,0,0,1,5.13-2.1c5.55.3,7,4.74,7,9.4.15,3.92-1.47,6.77-4.25,8.07a9.51,9.51,0,0,1-6.32-.12c-3.4-1.8-4.66-4.9-4.43-12.31,0-6.09,1.29-13.19,7.82-13.35a6.33,6.33,0,0,1,7,5h0Zm-9.44,6.68a5.7,5.7,0,0,0-2.28,2.4,4.51,4.51,0,0,0-.44,3c.31,4.42,2.62,6.93,6,6.43,1.87-.28,2.9-1.33,3.48-3.28,1.08-3.61-.29-7.82-2.87-8.79a5,5,0,0,0-3.87.27Z"/></g></g></g></svg>