<svg xmlns="http://www.w3.org/2000/svg" viewBox="0 0 178.79 249.65"><defs><style>.cls-1{fill:#fff;stroke:#000;stroke-width:1px;}.cls-2{fill:#d40000;}</style></defs><title>9D</title><g id="Layer_2" data-name="Layer 2"><g id="svg11376"><g id="_9D" data-name="9D"><rect id="rect6962-4" class="cls-1" x="0.5" y="0.5" width="177.79" height="248.65" rx="8.5" ry="8.5"/><path id="path6994-9" class="cls-2" d="M14.21,56.3a45,45,0,0,0-5.79-8,45,45,0,0,0,5.79-8,45,45,0,0,0,5.79,8A45,45,0,0,0,14.21,56.3Z"/><path id="path6996-5" class="cls-2" d="M130.62,64.85c-4.13-6.83-8.48-13.47-13.91-19.14,5.43-5.67,9.78-12.31,13.91-19.14,4.13,6.83,8.48,13.47,13.91,19.14C139.1,51.38,134.75,58,130.62,64.85Z"/><path id="path6998-7" class="cls-2" d="M164.57,209.3a45,45,0,0,0-5.79-8,45,45,0,0,0,5.79-8,45,45,0,0,0,5.79,8A45,45,0,0,0,164.57,209.3Z"/><path id="path7000-7" class="cls-2" d="M48.17,64.85C44,58,39.69,51.38,34.26,45.71,39.69,40,44,33.4,48.17,26.57,52.3,33.4,56.64,40,62.07,45.71,56.64,51.38,52.3,58,48.17,64.85Z"/><path id="path7002-0" class="cls-2" d="M130.62,117.6c-4.13-6.83-8.48-13.47-13.91-19.14,5.43-5.67,9.78-12.31,13.91-19.14,4.13,6.83,8.48,13.47,13.91,19.14C139.1,104.13,134.75,110.77,130.62,117.6Z"/><path id="path7004-0" class="cls-2" d="M48.17,117.6c-4.13-6.83-8.48-13.47-13.91-19.14C39.69,92.79,44,86.15,48.17,79.32c4.13,6.83,8.48,13.47,13.91,19.14C56.64,104.13,52.3,110.77,48.17,117.6Z"/><path id="path7008-2" class="cls-2" d="M89.39,144c-4.13-6.83-8.48-13.47-13.91-19.14,5.43-5.67,9.78-12.31,13.91-19.14,4.13,6.83,8.48,13.47,13.91,19.14C97.87,130.5,93.52,137.14,89.39,144Z"/><path id="path7016-2" class="cls-2" d="M48.17,223.08c-4.13-6.83-8.48-13.47-13.91-19.14,5.43-5.67,9.78-12.31,13.91-19.14,4.13,6.83,8.48,13.47,13.91,19.14C56.64,209.62,52.3,216.25,48.17,223.08Z"/><path id="path7018-0" class="cls-2" d="M130.62,223.09c-4.13-6.83-8.48-13.47-13.91-19.14,5.43-5.67,9.78-12.31,13.91-19.14,4.13,6.83,8.48,13.47,13.91,19.14C139.1,209.62,134.75,216.26,130.62,223.09Z"/><path id="path7020-7" class="cls-2" d="M130.62,170.34c-4.13-6.83-8.48-13.47-13.91-19.14,5.43-5.67,9.78-12.31,13.91-19.14,4.13,6.83,8.48,13.47,13.91,19.14C139.1,156.87,134.75,163.51,130.62,170.34Z"/><path id="path7022-4" class="cls-2" d="M48.17,170.31c-4.13-6.83-8.48-13.47-13.91-19.14C39.69,145.5,44,138.86,48.17,132c4.13,6.83,8.48,13.47,13.91,19.14C56.64,156.84,52.3,163.48,48.17,170.31Z"/><path id="path29-5-3-7-8" class="cls-2" d="M6.87,32.78,9.27,32A4.26,4.26,0,0,0,14,35c3.48-.28,4.64-4.17,4.9-7.62a6.91,6.91,0,0,1-5.13,2.1c-5.55-.3-7-4.74-7-9.4-.15-3.92,1.47-6.77,4.25-8.07a9.5,9.5,0,0,1,6.32.12c3.4,1.8,4.66,4.9,4.43,12.31,0,6.09-1.29,13.19-7.82,13.34a6.33,6.33,0,0,1-7-5h0Zm9.44-6.68a5.69,5.69,0,0,0,2.28-2.4,4.51,4.51,0,0,0,.44-3c-.31-4.42-2.62-6.93-6-6.43-1.87.28-2.9,1.33-3.48,3.28-1.08,3.61.29,7.82,2.87,8.79a5,5,0,0,0,3.87-.27Z"/><path id="path29-6-2-9-2" class="cls-2" d="M171.91,216.87l-2.4.76a4.26,4.26,0,0,0-4.68-3c-3.48.28-4.64,4.17-4.9,7.62a6.91,6.91,0,0,1,5.13-2.1c5.55.3,7,4.74,7,9.4.15,3.92-1.47,6.77-4.25,8.07a9.51,9.51,0,0,1-6.32-.12c-3.4-1.8-4.66-4.9-4.43-12.31,0-6.09,1.29-13.19,7.82-13.34a6.33,6.33,0,0,1,7,5h0Zm-9.44,6.68a5.69,5.69,0,0,0-2.28,2.4,4.51,4.51,0,0,0-.44,3c.31,4.42,2.62,6.93,6,6.43,1.87-.28,2.9-1.33,3.48-3.28,1.08-3.61-.29-7.82-2.87-8.79a5,5,0,0,0-3.87.27h0Z"/></g></g></g></svg>