<svg xmlns="http://www.w3.org/2000/svg" viewBox="0 0 178.79 249.65"><defs><style>.cls-1{fill:#fff;stroke:#000;stroke-width:1px;}.cls-2{fill:#d40000;}</style></defs><title>9H</title><g id="Layer_2" data-name="Layer 2"><g id="svg11376"><g id="_9H" data-name="9H"><g id="g10208-4-1"><rect id="rect10210-5-4" class="cls-1" x="0.5" y="0.5" width="177.79" height="248.65" rx="8.5" ry="8.5"/></g><path id="path10240-7-9" class="cls-2" d="M48.17,117.59s-3.72-6.11-8.73-13.28c-3.35-4.8-6-10-6.28-14.48-.29-5.12,2.42-10.25,7.32-10.5s6.88,3.95,7.69,7.4c.81-3.46,2.8-7.65,7.69-7.4s7.61,5.38,7.32,10.5c-.25,4.48-2.93,9.68-6.28,14.48C51.88,111.49,48.17,117.59,48.17,117.59Z"/><path id="path10242-3-8" class="cls-2" d="M14.21,56.3s-1.77-2.54-4.16-5.53c-1.6-2-2.88-4.17-3-6-.14-2.13,1.15-4.27,3.49-4.37s3.28,1.64,3.67,3.08c.39-1.44,1.33-3.19,3.67-3.08s3.63,2.24,3.49,4.37c-.12,1.87-1.4,4-3,6C16,53.76,14.21,56.3,14.21,56.3Z"/><path id="path10244-4-5" class="cls-2" d="M164.57,193.35s-1.77,2.54-4.16,5.53c-1.6,2-2.88,4.17-3,6-.14,2.13,1.15,4.27,3.49,4.37s3.28-1.64,3.67-3.08c.39,1.44,1.33,3.19,3.67,3.08s3.63-2.24,3.49-4.37c-.12-1.87-1.4-4-3-6C166.35,195.9,164.57,193.35,164.57,193.35Z"/><path id="path10250-9-0" class="cls-2" d="M48.17,64.85s-3.72-6.11-8.73-13.28c-3.35-4.8-6-10-6.28-14.48-.29-5.12,2.42-10.25,7.32-10.5s6.88,3.95,7.69,7.4c.81-3.46,2.8-7.65,7.69-7.4s7.61,5.38,7.32,10.5c-.25,4.48-2.93,9.68-6.28,14.48C51.88,58.74,48.17,64.85,48.17,64.85Z"/><path id="path10254-7-3" class="cls-2" d="M130.62,117.59s-3.72-6.11-8.73-13.28c-3.35-4.8-6-10-6.28-14.48-.29-5.12,2.42-10.25,7.32-10.5s6.88,3.95,7.69,7.4c.81-3.46,2.8-7.65,7.69-7.4s7.61,5.38,7.32,10.5c-.25,4.48-2.93,9.68-6.29,14.48C134.34,111.49,130.62,117.59,130.62,117.59Z"/><path id="path10256-4-7" class="cls-2" d="M130.62,64.85s-3.72-6.11-8.73-13.28c-3.35-4.8-6-10-6.28-14.48-.29-5.12,2.42-10.25,7.32-10.5s6.88,3.95,7.69,7.4c.81-3.46,2.8-7.65,7.69-7.4s7.61,5.38,7.32,10.5c-.25,4.48-2.93,9.68-6.29,14.48C134.34,58.74,130.62,64.85,130.62,64.85Z"/><path id="path10258-5-9" class="cls-2" d="M89.39,144s-3.72-6.1-8.73-13.28c-3.35-4.8-6-10-6.28-14.48-.29-5.12,2.42-10.25,7.32-10.5s6.88,3.95,7.69,7.4c.81-3.46,2.8-7.65,7.69-7.4s7.61,5.38,7.32,10.5c-.25,4.48-2.93,9.68-6.29,14.48C93.11,137.86,89.39,144,89.39,144Z"/><path id="path10266-8-9" class="cls-2" d="M130.62,132.06s-3.72,6.1-8.73,13.28c-3.35,4.8-6,10-6.28,14.48-.29,5.12,2.42,10.25,7.32,10.5s6.88-3.95,7.69-7.4c.81,3.46,2.8,7.65,7.69,7.4s7.61-5.38,7.32-10.5c-.25-4.48-2.93-9.68-6.29-14.48C134.34,138.16,130.62,132.06,130.62,132.06Z"/><path id="path10268-2-7" class="cls-2" d="M48.17,132.06s-3.72,6.1-8.73,13.28c-3.35,4.8-6,10-6.28,14.48-.29,5.12,2.42,10.25,7.32,10.5s6.88-3.95,7.69-7.4c.81,3.46,2.8,7.65,7.69,7.4s7.61-5.38,7.32-10.5c-.25-4.48-2.93-9.68-6.28-14.48C51.88,138.16,48.17,132.06,48.17,132.06Z"/><path id="path10270-1-4" class="cls-2" d="M130.62,184.8s-3.72,6.1-8.73,13.28c-3.35,4.8-6,10-6.28,14.48-.29,5.12,2.42,10.25,7.32,10.5s6.88-3.95,7.69-7.4c.81,3.46,2.8,7.65,7.69,7.4s7.61-5.38,7.32-10.5c-.25-4.48-2.93-9.68-6.29-14.48C134.34,190.91,130.62,184.8,130.62,184.8Z"/><path id="path10272-0-7" class="cls-2" d="M48.17,184.8s-3.72,6.1-8.73,13.28c-3.35,4.8-6,10-6.28,14.48-.29,5.12,2.42,10.25,7.32,10.5s6.88-3.95,7.69-7.4c.81,3.46,2.8,7.65,7.69,7.4s7.61-5.38,7.32-10.5c-.25-4.48-2.93-9.68-6.28-14.48C51.88,190.91,48.17,184.8,48.17,184.8Z"/><path id="path29-5-8-5-4" class="cls-2" d="M6.87,32.78,9.27,32A4.26,4.26,0,0,0,14,35c3.48-.28,4.64-4.17,4.9-7.62a6.91,6.91,0,0,1-5.13,2.1c-5.55-.3-7-4.74-7-9.4-.15-3.92,1.47-6.77,4.25-8.07a9.5,9.5,0,0,1,6.32.12c3.4,1.8,4.66,4.9,4.43,12.31,0,6.09-1.29,13.19-7.82,13.34a6.32,6.32,0,0,1-7-5Zm9.44-6.68a5.7,5.7,0,0,0,2.28-2.4,4.52,4.52,0,0,0,.44-3c-.31-4.42-2.62-6.93-6-6.43-1.87.28-2.9,1.33-3.48,3.28-1.08,3.61.29,7.82,2.87,8.79a5,5,0,0,0,3.87-.27Z"/><path id="path29-6-2-3-6-6" class="cls-2" d="M171.92,216.87l-2.4.76a4.26,4.26,0,0,0-4.68-3c-3.48.28-4.64,4.17-4.9,7.62a6.9,6.9,0,0,1,5.13-2.1c5.55.3,7,4.74,7,9.4.15,3.92-1.47,6.77-4.25,8.07a9.51,9.51,0,0,1-6.32-.12c-3.4-1.8-4.66-4.9-4.43-12.31,0-6.09,1.29-13.19,7.82-13.35a6.33,6.33,0,0,1,7,5h0Zm-9.44,6.68a5.7,5.7,0,0,0-2.28,2.4,4.52,4.52,0,0,0-.44,3c.31,4.42,2.62,6.93,6,6.43,1.87-.28,2.9-1.33,3.48-3.28,1.08-3.61-.29-7.82-2.87-8.79a5,5,0,0,0-3.87.27Z"/></g></g></g></svg>