<svg xmlns="http://www.w3.org/2000/svg" viewBox="0 0 178.78 249.65"><defs><style>.cls-1{fill:#fff;stroke:#000;stroke-width:1px;}</style></defs><title>AC</title><g id="Layer_2" data-name="Layer 2"><g id="svg11376"><g id="AC"><rect id="rect6355-6-85-9-3-2" class="cls-1" x="0.5" y="0.5" width="177.79" height="248.65" rx="8.5" ry="8.5"/><path id="path147-0-8-1-6-1-1-0-9-1-8" d="M89.39,106c-7.82.17-11.33,9-5.54,15.81.84,1,.93,1.57-.61.61-3.9-2.61-11.38-.89-11.76,7.08-.47,9.82,13.25,12.65,15.83,2.21.14-1.1,1-1.08.82.49a32.49,32.49,0,0,1-3.38,12.08H94a32.52,32.52,0,0,1-3.38-12.08c-.22-1.56.68-1.59.82-.49,2.58,10.44,16.3,7.61,15.83-2.21-.38-8-7.86-9.69-11.76-7.08-1.54,1-1.45.39-.61-.61,5.79-6.84,2.29-15.64-5.53-15.81h0Z"/><path id="path147-6-9-8-7-0-5-0-8-3" d="M164.57,209.3c3.13-.07,4.53-3.74,2.21-6.59-.34-.42-.37-.65.24-.25,1.56,1.09,4.55.37,4.7-2.95.19-4.09-5.3-5.27-6.33-.92-.05.46-.41.45-.33-.2a14,14,0,0,1,1.35-5h-3.72a14,14,0,0,1,1.35,5c.09.65-.27.66-.33.2-1-4.35-6.52-3.17-6.33.92.15,3.32,3.14,4,4.7,2.95.62-.4.58-.16.25.25-2.32,2.85-.91,6.52,2.21,6.59h0Z"/><path id="path41-6-3-5-1" d="M6.17,37.85V35.6H8.32l4.57-24.07h2.6l5,24.07h1.73v2.25h-5.9V35.6h1.59l-.64-3.69h-6l-.46,3.69h1.59v2.25ZM16.8,29.28,14.21,16.4,11.78,29.28Z"/><path id="path41-6-4-0-2-8" d="M156.53,211.8V214h2.14l4.57,24.07h2.6l5-24.07h1.73V211.8h-5.9V214h1.59l-.64,3.69h-6l-.46-3.69h1.59V211.8Zm10.62,8.57-2.59,12.88-2.42-12.88Z"/><path id="path147-6-9-8-7-4-5-6-8-9" d="M14.21,40.35c-3.13.07-4.53,3.74-2.21,6.59.34.42.37.65-.24.25C10.19,46.1,7.2,46.82,7,50.14c-.19,4.09,5.3,5.27,6.33.92.05-.46.41-.45.33.2a14,14,0,0,1-1.35,5h3.72a14,14,0,0,1-1.35-5c-.09-.65.27-.66.33-.2,1,4.35,6.52,3.17,6.33-.92-.15-3.32-3.14-4-4.7-2.95-.62.4-.58.16-.24-.25,2.32-2.85.91-6.52-2.21-6.59h0Z"/></g></g></g></svg>