<svg xmlns="http://www.w3.org/2000/svg" viewBox="0 0 178.79 249.65"><defs><style>.cls-1{fill:#fff;stroke:#000;stroke-width:1px;}.cls-2{fill:#d40000;}</style></defs><title>AD</title><g id="Layer_2" data-name="Layer 2"><g id="svg11376"><g id="AD"><rect id="rect6367-6" class="cls-1" x="0.5" y="0.5" width="177.79" height="248.65" rx="8.5" ry="8.5"/><path id="path6399-9" class="cls-2" d="M14.21,56.3a45,45,0,0,0-5.79-8,45,45,0,0,0,5.79-8,45,45,0,0,0,5.8,8A45,45,0,0,0,14.21,56.3Z"/><path id="path6403-1" class="cls-2" d="M164.57,209.3a45,45,0,0,0-5.79-8,45,45,0,0,0,5.79-8,45,45,0,0,0,5.79,8A45,45,0,0,0,164.57,209.3Z"/><path id="path6413-1" class="cls-2" d="M89.39,144c-4.13-6.83-8.48-13.47-13.91-19.14,5.43-5.67,9.78-12.31,13.91-19.14,4.13,6.83,8.48,13.47,13.91,19.14C97.87,130.5,93.52,137.14,89.39,144Z"/><path id="path41-87-9-4-8" class="cls-2" d="M6.17,37.85V35.6H8.32l4.57-24.07h2.6l5,24.07h1.73v2.25h-5.9V35.6h1.59l-.64-3.69h-6l-.46,3.69h1.59v2.25ZM16.8,29.29,14.21,16.4,11.79,29.29Z"/><path id="path41-8-5-6-1" class="cls-2" d="M156.54,211.8v2.25h2.14l4.57,24.07h2.6l5-24.07h1.73V211.8h-5.9v2.25h1.59l-.64,3.69h-6l-.46-3.69h1.59V211.8Zm10.62,8.57-2.59,12.88-2.42-12.88Z"/></g></g></g></svg>