<svg xmlns="http://www.w3.org/2000/svg" viewBox="0 0 178.79 249.65"><defs><style>.cls-1{fill:#fff;stroke:#000;stroke-width:1px;}.cls-2{fill:#d40000;}</style></defs><title>AH</title><g id="Layer_2" data-name="Layer 2"><g id="svg11376"><g id="AH"><g id="g9664-0-2"><rect id="rect9666-2-2" class="cls-1" x="0.5" y="0.5" width="177.79" height="248.65" rx="8.5" ry="8.5"/></g><path id="path9698-0-0" class="cls-2" d="M14.21,56.3s-1.77-2.54-4.16-5.53c-1.6-2-2.88-4.17-3-6-.14-2.13,1.15-4.27,3.49-4.37s3.28,1.64,3.67,3.08c.39-1.44,1.33-3.19,3.67-3.08s3.63,2.24,3.49,4.37c-.12,1.87-1.4,4-3,6C16,53.76,14.21,56.3,14.21,56.3Z"/><path id="path9700-3-2" class="cls-2" d="M164.57,193.35s-1.77,2.54-4.16,5.53c-1.6,2-2.88,4.17-3,6-.14,2.13,1.15,4.27,3.49,4.37s3.28-1.64,3.67-3.08c.38,1.44,1.33,3.19,3.67,3.08s3.63-2.24,3.49-4.37c-.12-1.87-1.4-4-3-6C166.35,195.9,164.57,193.35,164.57,193.35Z"/><path id="path9714-6-6" class="cls-2" d="M89.39,144s-3.72-6.1-8.73-13.28c-3.35-4.8-6-10-6.28-14.48-.29-5.12,2.42-10.25,7.32-10.5s6.88,3.95,7.69,7.4c.81-3.46,2.8-7.65,7.69-7.4s7.61,5.38,7.32,10.5c-.25,4.48-2.93,9.68-6.28,14.48C93.11,137.86,89.39,144,89.39,144Z"/><path id="path41-87-8-3-9" class="cls-2" d="M6.17,37.85V35.6H8.32l4.57-24.07h2.6l5,24.06h1.73v2.25h-5.9V35.6h1.59l-.64-3.69h-6l-.46,3.69h1.59v2.25H6.17ZM16.8,29.29,14.21,16.4,11.79,29.29Z"/><path id="path41-8-5-1-8-7" class="cls-2" d="M156.54,211.8v2.25h2.14l4.57,24.07h2.6l5-24.07h1.73V211.8h-5.9v2.25h1.59l-.64,3.69h-6l-.46-3.69h1.59V211.8Zm10.62,8.57-2.59,12.88-2.42-12.88Z"/></g></g></g></svg>