<svg xmlns="http://www.w3.org/2000/svg" viewBox="0 0 178.79 249.65"><defs><style>.cls-1{fill:#fff;stroke:#000;stroke-width:1px;}</style></defs><title>AS</title><g id="Layer_2" data-name="Layer 2"><g id="svg11376"><g id="AS"><rect id="rect6355-6-85-62-9-7" class="cls-1" x="0.5" y="0.5" width="177.79" height="248.65" rx="8.5" ry="8.5"/><path id="path153-0-1-2-5-5-5-3-4" d="M14.21,40.35C10.78,44.72,7.11,47.24,7,50.65A3.31,3.31,0,0,0,9.79,54a2.85,2.85,0,0,0,3.27-2.75c0-.4.47-.39.47.16A10.43,10.43,0,0,1,12,56.3h4.5a10.42,10.42,0,0,1-1.56-4.9c0-.54.47-.55.47-.16A2.85,2.85,0,0,0,18.64,54a3.31,3.31,0,0,0,2.74-3.34C21.32,47.24,17.65,44.72,14.21,40.35Z"/><path id="path153-0-1-2-5-6-5-9-1-9" d="M164.57,209.3c-3.43-4.37-7.11-6.89-7.17-10.3a3.31,3.31,0,0,1,2.74-3.34,2.85,2.85,0,0,1,3.27,2.75c0,.4.47.39.47-.16a10.42,10.42,0,0,0-1.56-4.9h4.5a10.43,10.43,0,0,0-1.56,4.9c0,.54.47.55.47.16a2.85,2.85,0,0,1,3.27-2.75,3.31,3.31,0,0,1,2.74,3.34c-.06,3.41-3.73,5.93-7.17,10.3Z"/><path id="path153-6-3-1-6-92-7-2-9-8" d="M89.39,105.69C82,116.18,74.18,122.22,74.05,130.4c0,2.65,1.39,7.16,5.87,8,2.91.56,6.91-1.8,7-6.59,0-1,1-.93,1,.38A27.2,27.2,0,0,1,84.58,144h9.63a27.2,27.2,0,0,1-3.34-11.75c0-1.31,1-1.33,1-.38.08,4.79,4.09,7.15,7,6.59,4.48-.86,5.92-5.37,5.87-8C104.6,122.22,96.74,116.18,89.39,105.69Z"/><path id="path41-4-9-2" d="M6.17,37.85V35.6H8.32l4.57-24.07h2.6l5,24.07h1.73v2.25h-5.9V35.6h1.59l-.64-3.69h-6l-.46,3.69h1.59v2.25ZM16.8,29.29,14.21,16.4,11.79,29.29Z"/><path id="path41-4-2-4-0" d="M156.54,211.8v2.25h2.14l4.57,24.07h2.6l5-24.07h1.73V211.8h-5.9v2.25h1.59l-.64,3.69h-6l-.46-3.69h1.59V211.8Zm10.62,8.57-2.59,12.88-2.42-12.88Z"/></g></g></g></svg>