<svg xmlns="http://www.w3.org/2000/svg" viewBox="0 0 178.78 249.65"><defs><style>.cls-1{fill:#fff;stroke:#000;stroke-width:0.99px;}</style></defs><title>J2</title><g id="Layer_2" data-name="Layer 2"><g id="svg11376"><g id="Joker_2" data-name="Joker 2"><g id="g4168"><path id="path4170" class="cls-1" d="M9,.5H169.82A8.45,8.45,0,0,1,178.28,9v231.7a8.45,8.45,0,0,1-8.47,8.48H9A8.45,8.45,0,0,1,.5,240.67V9A8.45,8.45,0,0,1,9,.5Z"/></g><path id="path4166" d="M150.14,235.65v-.49h.8c1.73,0,2.69-.32,3.05-1,.13-.25.13-.28.16-8.42,0-9.18,0-8.52.5-9.55a3.79,3.79,0,0,1,.74-1c1.46-1.54,3.75-2.23,7.77-2.35l1.28,0v1.11l-.85,0c-2.07.1-3.18.45-4,1.25a2.72,2.72,0,0,0-.67.91c-.5,1-.46.25-.48,9.47,0,5.59,0,8.3,0,8.46a1.62,1.62,0,0,0,.75.8,4.53,4.53,0,0,0,2.06.36l1.11,0,0,.48,0,.48H150.14v-.49Zm-40.53-16.07a6.49,6.49,0,0,1-5-4.75,5,5,0,0,1-.17-1.63,5.52,5.52,0,0,1,.45-2.52,6.43,6.43,0,0,1,4.71-3.89c.32,0,.32,0,0-1.2a56.56,56.56,0,0,0-3.52-10.12,53.23,53.23,0,0,0-3-5.17c-2.5-4-3.2-4.75-3.94-4.3a2,2,0,0,0-.42.42c-.21.28-4.94,9.71-5.76,11.49A32.75,32.75,0,0,0,90,207.16a9.43,9.43,0,0,1-.27,1.2c-.08.08-.15-.22-.44-1.77a31.43,31.43,0,0,0-2.47-7.92c-.44-1-5.07-10.38-5.63-11.43-.47-.87-.9-1.36-1.21-1.36s-.59.17-1,.65a26.43,26.43,0,0,0-2.64,3.83,41.3,41.3,0,0,0-5.52,11.92c-.35,1.15-1.24,4.39-1.21,4.41l.57.18a6.16,6.16,0,0,1,2.54,1.5A6.58,6.58,0,0,1,71.05,219a6.21,6.21,0,0,1-7.22-1.33,6.61,6.61,0,0,1-1.64-3A5,5,0,0,1,62,213a5.12,5.12,0,0,1,.13-1.52,6.53,6.53,0,0,1,3.76-4.45,4.91,4.91,0,0,1,2.32-.44c.94,0,1,0,.95-.13s-.24-.86-.5-1.76c-.87-3-1.78-6.72-2.19-8.94a28.47,28.47,0,0,1-.59-6.2,18.69,18.69,0,0,1,.14-3,41.7,41.7,0,0,1,1.25-5.85,8.15,8.15,0,0,0,.27-1.14,8.44,8.44,0,0,0-1.13.53c-.6.31-1.77.87-2.6,1.25A57.89,57.89,0,0,0,55.32,186a24.2,24.2,0,0,0-5.52,4.71,7.71,7.71,0,0,1-.72.79c-.14,0-.16-.18-.09-.8A19.57,19.57,0,0,1,50.37,186c1-2.43,2.44-4.73,6.05-9.85a35.61,35.61,0,0,0,2.6-3.86l-.48-.29-.44-.26-.93.38c-2.74,1.13-10.6,4.78-14.92,6.93l-2.4,1.19.47.47a6.26,6.26,0,0,1,1.27,1.75,6.64,6.64,0,0,1,0,5.81,6.28,6.28,0,0,1-9.75,2.11A6.94,6.94,0,0,1,29.77,187a4.94,4.94,0,0,1-.17-1.67,4.88,4.88,0,0,1,.16-1.64,6.51,6.51,0,0,1,5-4.75,7.09,7.09,0,0,1,1.2-.07,4.84,4.84,0,0,1,1.44.16,8.21,8.21,0,0,1,1.93.84l.19.13.14-.33a96.85,96.85,0,0,1,6.86-10.59,34.1,34.1,0,0,1,6.36-6.32,27,27,0,0,1,10.89-4.85,13.55,13.55,0,0,1,4.49,0c.18,0,.32.06.32,0a3.83,3.83,0,0,0-.24-.53c-1.72-3.43-3.63-9.44-5.09-16a77.59,77.59,0,0,1-1.89-13.29,35.93,35.93,0,0,0-1.26-8.45,81.35,81.35,0,0,0-6.75-17.43c-3.15-5.6-6.48-8.78-11.26-10.73A19.54,19.54,0,0,0,30.94,90.2,13.9,13.9,0,0,0,25,93.11c-1.52,1.33-2.57,3-3.82,6l-.62,1.47c-.13.32-.18.49-.13.5l.52.09a5.22,5.22,0,0,1,2.72,1.42A5.46,5.46,0,0,1,25,108.05a5.34,5.34,0,0,1-3.59,3.48,5,5,0,0,1-1.9.15,5.1,5.1,0,0,1-4.08-2.86,4.64,4.64,0,0,1-.58-2.44A4.36,4.36,0,0,1,15,105a5.29,5.29,0,0,1,4.71-4l.47,0,0-.38a30.39,30.39,0,0,1,.59-3.21,12.56,12.56,0,0,1,4.5-7.13,27.21,27.21,0,0,1,5.46-3.73,25.22,25.22,0,0,1,8.73-2.61,30.87,30.87,0,0,1,4.78-.28,36.93,36.93,0,0,1,6.84.59A88.9,88.9,0,0,1,64,87.6a10.8,10.8,0,0,0,1.39.4c.17,0,.22,0,.42-.36a3.38,3.38,0,0,1,1.32-1.19,2.27,2.27,0,0,1,1.18-.23l.76,0L70.22,85a8.49,8.49,0,0,0,1.35-1.58,1.84,1.84,0,0,1,1-1l.39-.18,0-.23a13.38,13.38,0,0,0-.54-1.46,18.19,18.19,0,0,1-1.49-5.3,25,25,0,0,1,.07-4.66,35,35,0,0,1,6-14.88c3.13-4.52,8.31-9.35,14.89-13.9,4.43-3.06,6.74-4.16,8.73-4.16a6.78,6.78,0,0,1,4,1.42,20.48,20.48,0,0,1,3.15,2.74,28.26,28.26,0,0,1,6.48,9.25,36.2,36.2,0,0,1,3.05,12.15c.08,1.23.08,5.85,0,8.11-.17,4.49-.19,5.22-.15,5.59s0,.42-.06.54-.09.15.27.42a5.41,5.41,0,0,1,.12,8.51,4.89,4.89,0,0,1-3.14,1.11h-.64l.14.25c.12.2.17.25.33.25a10.84,10.84,0,0,0,1.39-.4,75.07,75.07,0,0,1,16.84-3.86,55.76,55.76,0,0,1,5.8,0c5.61.49,9.57,1.83,13.53,4.57a24.8,24.8,0,0,1,4.9,4.46,14.16,14.16,0,0,1,2.57,7c.09.59.17,1.13.18,1.2s.08.12.78.13a3.88,3.88,0,0,1,1.3.17,5.3,5.3,0,0,1,3.72,4,6.55,6.55,0,0,1,0,2.52,5.39,5.39,0,0,1-3.21,3.66,4.49,4.49,0,0,1-1.86.33,5.11,5.11,0,0,1-4.18-2.14,5.51,5.51,0,0,1-1-3.74,5,5,0,0,1,.53-1.82,5.23,5.23,0,0,1,3.28-2.77,1.3,1.3,0,0,0,.45-.16c0-.13-1.13-2.75-1.6-3.72a12.18,12.18,0,0,0-9.38-7.24,20.83,20.83,0,0,0-13.81,3c-4.29,2.62-7.53,7-10.78,14.51a81.93,81.93,0,0,0-4.79,14.8,34.81,34.81,0,0,0-.62,5.46c-.12,2.09-.14,2.37-.28,3.82-.85,8.42-4,20.33-6.76,25.92-.11.23-.21.43-.21.44a1,1,0,0,0,.32-.06,13.57,13.57,0,0,1,4.49,0,27.46,27.46,0,0,1,8.33,3.14,32,32,0,0,1,9.08,8.21,102.67,102.67,0,0,1,6.63,10.21l.19.4a3.94,3.94,0,0,0,.62-.26,6.21,6.21,0,0,1,4.55-.31,6.5,6.5,0,0,1,4.27,4.55,8.51,8.51,0,0,1,0,3.31,6.4,6.4,0,0,1-6.77,4.81,6.13,6.13,0,0,1-3.8-1.82,6.53,6.53,0,0,1-1.74-3.05,8.29,8.29,0,0,1,0-3.22,6.89,6.89,0,0,1,2.23-3.5c.24-.19.24-.2.12-.29s-4.09-2.06-6.51-3.2c-6.19-2.92-11.16-5.15-11.46-5.15a2.57,2.57,0,0,0-.54.26c-.45.25-.45.26-.37.42s1.24,1.83,3.36,4.85c3.38,4.81,4.83,7.35,5.82,10.19.63,1.8,1,3.92.74,4a2.11,2.11,0,0,1-.52-.52,19.88,19.88,0,0,0-3.48-3.37,48.18,48.18,0,0,0-10.21-5.87c-.87-.4-2.19-1-2.94-1.41a15.23,15.23,0,0,0-1.4-.66,4.79,4.79,0,0,0,.19.8,46.86,46.86,0,0,1,1.33,6.06,30.36,30.36,0,0,1,0,6.85,92.08,92.08,0,0,1-3.09,13.17c0,.08.07.1.67.14a6.35,6.35,0,0,1,5.7,4.11,5.47,5.47,0,0,1,.41,2.44,4.92,4.92,0,0,1-.17,1.6,6.94,6.94,0,0,1-1.75,3,6.33,6.33,0,0,1-5.51,1.71Zm2-1.72c.58-.61.76-.77.89-.77s.08.08-.56.73a9.32,9.32,0,0,0-.72.77s.15,0,.32,0h.32l.8-.83a4,4,0,0,1,1-.87c.16,0,.07.08-.58.74a7.36,7.36,0,0,0-.73.81,1.61,1.61,0,0,0,.46-.1c.42-.12.44-.14,1.42-1.13.54-.55,1.17-1.14,1.4-1.32a2.58,2.58,0,0,0,.92-1.65,6.48,6.48,0,0,0,0-2.71,5.64,5.64,0,0,0-1.69-2.85,5.11,5.11,0,0,0-2-1.19,5.25,5.25,0,0,0-3.45,0,3,3,0,0,0-1.89,1.38,9.37,9.37,0,0,1-.83,1,2.8,2.8,0,0,0-.92,1.51c0,.17,0,.14.42-.27s.46-.44.43-.28a2.08,2.08,0,0,1-.51.67c-.48.49-.48.5-.52.89l0,.4.47-.46c.42-.41.47-.44.47-.31s-.13.29-.47.62-.47.47-.44.73a.91.91,0,0,0,.07.3,1.88,1.88,0,0,0,.47-.42c.38-.41.43-.44.43-.3s-.12.27-.43.59-.43.44-.4.67a1.31,1.31,0,0,0,.07.3s.24-.14.49-.39.46-.43.49-.34-.08.23-.42.58l-.46.47.07.21a.49.49,0,0,0,.14.23,2,2,0,0,0,.48-.45c.35-.39.43-.45.51-.39s0,.16-.41.58-.5.51-.43.65c.17.34.18.33.71-.2s.52-.49.55-.4-.08.23-.46.61l-.5.5.13.17c.07.09.15.17.18.17a4.41,4.41,0,0,0,.58-.54c.42-.44.54-.52.6-.46s0,.18-.46.62a4,4,0,0,0-.54.6.52.52,0,0,0,.16.21l.16.15.6-.59c.81-.8.93-.72.16.11l-.6.65.18.15.18.15.66-.65c.5-.5.68-.64.77-.61s0,.16-.55.7c-.36.36-.66.67-.66.69a.75.75,0,0,0,.22.15l.22.12.65-.69a3.83,3.83,0,0,1,.76-.69c.06,0,.11,0,.11,0a8.45,8.45,0,0,1-.69.73l-.69.69.19.1a.91.91,0,0,0,.27.1,5.4,5.4,0,0,0,.79-.71c.62-.62.92-.85.85-.65,0,0-.32.38-.69.77l-.67.71.25.08.25.08.78-.78c.59-.59.81-.77.89-.73s0,.18-.63.78c-.79.79-.8.82-.31.83.2,0,.28-.06.94-.77Zm-.9-1.58c-1.83-1.07-2.7-1.9-3-2.91a1.69,1.69,0,0,1,1.55-2.34,1.53,1.53,0,0,1,1.29.72c.14.21.21.21.26,0a1.67,1.67,0,0,1,1.13-1.23,1.54,1.54,0,0,1,1.67.51c.75.85.52,2.35-.57,3.9a16.09,16.09,0,0,1-1.5,1.79s-.37-.2-.77-.43ZM69.25,217.8c.57-.6.77-.77.89-.77s.07.09-.58.74a5.06,5.06,0,0,0-.7.78,1,1,0,0,0,.38,0l.35,0,.75-.79a3.76,3.76,0,0,1,.94-.84c.16,0,.08.07-.54.71a6.19,6.19,0,0,0-.7.79,1.47,1.47,0,0,0,.45-.1c.41-.13.45-.17,1.38-1.1.53-.53,1.12-1.09,1.32-1.24a1.9,1.9,0,0,0,.79-1.12,6.05,6.05,0,0,0,.33-2.27,5.75,5.75,0,0,0-4.14-5.19,4.27,4.27,0,0,0-1.42-.14,4.59,4.59,0,0,0-2.41.52,1.89,1.89,0,0,0-.84.66c-.19.23-.4.52-.48.64a11.25,11.25,0,0,1-.77.86c-.57.59-.63.68-.76,1.08a4.62,4.62,0,0,0-.14.49,2,2,0,0,0,.46-.4c.41-.41.45-.43.42-.28a2,2,0,0,1-.52.67l-.49.49,0,.4,0,.4.47-.46c.42-.41.47-.44.47-.31s-.13.29-.46.61-.46.49-.46.68c0,.45.09.44.55-.06s.43-.44.43-.31-.12.27-.43.59-.44.44-.4.67a1.3,1.3,0,0,0,.07.3s.24-.14.49-.39.46-.43.49-.34-.08.23-.42.58l-.47.47.09.23c.05.13.12.23.14.23a3.16,3.16,0,0,0,.47-.46c.33-.37.43-.45.5-.39s0,.16-.42.58l-.5.51.14.23.14.23.51-.51c.42-.42.52-.49.56-.4s-.08.23-.45.61l-.5.5.16.2.16.2L65,216c.44-.47.55-.56.62-.5s0,.18-.46.62a4.07,4.07,0,0,0-.54.6.51.51,0,0,0,.16.21l.16.15.6-.6c.39-.39.63-.58.68-.55s-.11.24-.51.67l-.58.62.14.13a.52.52,0,0,0,.2.13,6,6,0,0,0,.68-.63c.48-.48.65-.62.74-.58s0,.16-.56.71l-.66.67.23.14.23.14.65-.69c.56-.6.87-.82.87-.64a4.83,4.83,0,0,1-.53.57c-.29.29-.58.6-.65.69l-.12.17.22.11.22.11.72-.72c.66-.65.88-.82.88-.67a7.08,7.08,0,0,1-.65.73c-.36.38-.65.7-.65.71a.54.54,0,0,0,.23.1l.23.06.77-.76c.58-.58.8-.75.88-.72s0,.18-.6.75a9,9,0,0,0-.71.75s.12.06.49.1a4.81,4.81,0,0,0,.83-.76Zm-1.45-1.25c-.09-.1-1.34-2.42-1.87-3.45-.15-.3-.21-.49-.19-.57a36.85,36.85,0,0,1,3.36-3c.13,0,.18.07,1,1.68,1.09,2,1.2,2.26,1.16,2.42a34.61,34.61,0,0,1-3.37,3.06.34.34,0,0,1-.14-.11Zm47,.64a5.34,5.34,0,0,0,1-1.24,8.18,8.18,0,0,0-.89.83,12,12,0,0,0-.89.95C114.06,217.81,114.42,217.56,114.84,217.19ZM72.5,217a4.31,4.31,0,0,0,.92-1.1,18,18,0,0,0-1.61,1.6C71.69,217.75,72,217.54,72.5,217Zm-6.95-8.82s-.51.36-.9.78c-.66.72-.53.69.21,0A7.22,7.22,0,0,0,65.56,208.22Zm42.25.18a4.68,4.68,0,0,0-1.14,1.15,5.33,5.33,0,0,0,.58-.54A4.56,4.56,0,0,0,107.8,208.4Zm-37.66-6.75c.32-.27.72-1.12,1.55-3.31a41.47,41.47,0,0,1,4.19-8.3,24,24,0,0,1,3.3-4.58,16.6,16.6,0,0,1,4.34-3,27.66,27.66,0,0,0,3.87-2.57,5.11,5.11,0,0,0,1.6-2.08c.32-.69.53-1.66.33-1.54,0,0,0,0,0-.11a.58.58,0,0,0,.06-.44l0-.29-.6.6c-.38.38-.64.59-.7.58s.08-.21.58-.75c.68-.72.69-.73.65-1a1.43,1.43,0,0,0-.07-.28,9.69,9.69,0,0,0-1,1c-.78.8-1,1-1.15,1s0-.17,1-1.16c1.25-1.26,1.36-1.43.91-1.43-.23,0-.28,0-1.46,1.26-.93,1-1.25,1.26-1.37,1.26s.06-.22,1.06-1.24c.66-.68,1.21-1.27,1.21-1.29s-.13-.05-.3-.05h-.3l-1.22,1.24c-.85.87-1.25,1.23-1.33,1.22s.18-.33,1.08-1.25c1.25-1.29,1.26-1.31.8-1.32-.17,0-.33.13-1.39,1.21-.89.9-1.23,1.2-1.32,1.19s.13-.28,1.08-1.24a7,7,0,0,0,1.11-1.24l-.3-.06c-.21,0-.23,0-1.39,1.18-.94,1-1.2,1.21-1.29,1.17s.08-.24,1-1.22c1.22-1.23,1.21-1.23.79-1.31-.19,0-.24,0-1.34,1.14-.83.85-1.17,1.17-1.24,1.14s.16-.31,1-1.16c.59-.62,1.08-1.15,1.09-1.19s-.09-.09-.22-.12l-.23-.05-1.12,1.12c-1,1-1.27,1.23-1.27,1.06a15,15,0,0,1,1-1.13c.58-.59,1-1.09,1-1.11A.59.59,0,0,0,84,173l-.25-.08-1.08,1.12a7.58,7.58,0,0,1-1.2,1.12c-.07,0-.12,0-.12,0s.49-.53,1.08-1.12,1.08-1.1,1.08-1.12-.12-.08-.26-.12l-.26-.08-1.18,1.22c-.91.94-1.21,1.22-1.33,1.22s0-.11.62-.79l1.23-1.26.46-.48-.24-.1-.24-.1-1.48,1.51a12.32,12.32,0,0,1-1.69,1.58c-.17.06.06-.21,1.15-1.33l1.55-1.58a.78.78,0,0,0,.19-.23s-.1-.1-.21-.15l-.21-.1-1.65,1.69-2.46,2.51c-.44.45-1.09,1.07-1.43,1.37s-1.16,1.14-1.82,1.86-2.58,2.73-4.28,4.47l-3.09,3.16,0,.35a2.18,2.18,0,0,0,0,.37s.66-.64,1.46-1.45c3.38-3.45,3.53-3.59,3.38-3.28a29.43,29.43,0,0,1-2.51,2.7l-2.37,2.41,0,.39,0,.39,2.07-2.1c1.66-1.68,2-2,1.94-1.82a22.08,22.08,0,0,1-2.07,2.25l-1.93,2v.73l1.7-1.74c.94-1,1.71-1.73,1.73-1.72s-.3.56-1.77,2.05l-1.67,1.7v.7l1.48-1.5c1.3-1.32,1.64-1.6,1.32-1.09,0,.07-.68.74-1.41,1.49l-1.33,1.37v.31c0,.17,0,.32,0,.32s.61-.58,1.3-1.28c1-1,1.25-1.24,1.21-1.1A8.52,8.52,0,0,1,68,191.06l-1.23,1.27,0,.27a1,1,0,0,0,.06.29A14,14,0,0,0,68,191.82c.94-.95,1.08-1.07,1-.88A5.35,5.35,0,0,1,68,192.17c-.94.94-1,1-1,1.23,0,.51,0,.5,1-.49l.93-.93s0,.07,0,.16a7.82,7.82,0,0,1-.93,1.08c-.88.92-.88.93-.84,1.15a1.38,1.38,0,0,0,.08.28,5.29,5.29,0,0,0,.82-.77c.65-.68.79-.8.8-.68s-.21.36-.8,1l-.8.81.06.24a2.77,2.77,0,0,1,.06.3,4.4,4.4,0,0,0,.68-.62c.58-.58.68-.65.68-.52s-.18.33-.65.8l-.65.65.05.24a.93.93,0,0,0,.1.28,3.07,3.07,0,0,0,.62-.58c.5-.53.58-.6.58-.46s-.1.26-.34.49-.45.46-.58.62-.24.29-.17.55l.07.26.52-.51c.45-.45.52-.5.52-.36s-.14.29-.49.64l-.49.48.06.26a1.68,1.68,0,0,0,.09.28,2.94,2.94,0,0,0,.48-.43c.61-.6.62-.42,0,.25l-.44.48.07.26.07.26.43-.42c.38-.38.43-.41.43-.27s-.12.28-.38.54l-.38.38.07.25c0,.14.09.25.12.25a2.35,2.35,0,0,0,.37-.32c.26-.26.33-.3.33-.2a1.37,1.37,0,0,1-.32.48c-.31.34-.31.36-.24.55a2,2,0,0,0,.1.23A1.33,1.33,0,0,0,69,200c.29-.28.31-.29.31-.15a.68.68,0,0,1-.25.4c-.27.26-.28.31-.17.55s.16.2.4,0,.33-.08.06.23l-.2.24.14.18c.14.17.15.17.26.08s.22-.13.17.09,0,.19.16.15a.81.81,0,0,0,.29-.12Zm40-.12c.72-.72,1.68-3.79,2.27-7.29a24.42,24.42,0,0,0,.38-4.32,20.26,20.26,0,0,0-.56-5A16.62,16.62,0,0,0,108,177l-1.25-1.43a22,22,0,0,0-4.93-4c-1-.66-1.17-.8-1.22-1a1.62,1.62,0,0,0-.57.31,18.59,18.59,0,0,1-7.68,2.92l-.47.07-.9.91-.9.91v.74l.74-.74c.53-.53.74-.7.74-.62a4.13,4.13,0,0,1-.72.88c-.69.73-.71.77-.68,1a.5.5,0,0,0,.1.25,3.44,3.44,0,0,0,.69-.62c.55-.57.64-.64.65-.52s-.12.28-.61.78l-.63.63.08.25a.64.64,0,0,0,.12.25,8,8,0,0,0,.64-.6c.48-.48.6-.57.6-.46a2.3,2.3,0,0,1-.56.72l-.56.58.1.19c.05.1.12.19.15.19a5.19,5.19,0,0,0,.61-.57c.47-.48.57-.55.6-.46s-.09.24-.53.68c-.6.61-.62.66-.34.9.09.07.17,0,.65-.47s.57-.53.61-.49-.13.27-.49.65l-.55.59.19.14.19.14.55-.54c.43-.43.56-.53.62-.47s0,.19-.47.62l-.54.54.21.17.21.17.5-.54c.37-.39.53-.52.61-.49s0,.15-.43.6l-.54.56.2.15.2.15.54-.54c.43-.43.56-.52.62-.46s0,.19-.45.6l-.52.53.15.12a.58.58,0,0,0,.22.12,3.22,3.22,0,0,0,.56-.5c.38-.39.52-.49.61-.46s0,.12-.39.55a3.73,3.73,0,0,0-.5.57s.09.11.19.18l.19.11.53-.52c.7-.69.84-.64.19.07a6.05,6.05,0,0,0-.49.58s.09.08.19.14l.19.1.53-.53c.41-.41.55-.51.62-.47s0,.16-.42.58a2.19,2.19,0,0,0-.48.58.66.66,0,0,0,.23.14l.19.08.47-.51c.38-.41.5-.5.59-.47s0,.12-.4.57-.51.52-.4.61c.28.21.33.19.87-.34.34-.34.54-.49.58-.45s-.09.23-.4.56a5.94,5.94,0,0,0-.46.54s.09.08.19.13l.19.1.5-.5c.38-.38.52-.48.59-.44s0,.15-.39.54A5.84,5.84,0,0,0,97,183a.78.78,0,0,0,.22.15l.23.12.45-.49c.34-.37.47-.48.56-.44s0,.13-.37.53l-.48.48.18.13a.83.83,0,0,0,.24.13,3.66,3.66,0,0,0,.51-.46c.36-.35.49-.45.56-.4s0,.15-.38.54l-.48.48.2.13.2.13.47-.46c.35-.34.49-.45.58-.42s0,.13-.37.53a3.3,3.3,0,0,0-.45.5l.21.16.18.14.47-.47c.61-.61.71-.5.13.14l-.43.47.18.15.18.15.44-.44c.43-.42.59-.53.59-.37a2.55,2.55,0,0,1-.44.52l-.44.45.17.16a.69.69,0,0,0,.22.16,3.23,3.23,0,0,0,.47-.46c.34-.38.43-.45.5-.39s0,.15-.39.56l-.48.48.18.19.18.19.48-.48c.38-.38.5-.46.56-.4s0,.18-.41.57l-.49.49.17.18.17.18.47-.48c.38-.39.49-.47.56-.41s0,.16-.41.57l-.5.5.14.18.16.21a3.55,3.55,0,0,0,.51-.46c.32-.32.51-.47.55-.43s-.11.24-.42.58l-.48.52.13.2.13.2.51-.51c.41-.41.52-.49.57-.42s-.06.21-.44.59l-.5.5.11.19c.06.11.14.19.18.19a2.79,2.79,0,0,0,.52-.47c.3-.31.47-.44.51-.4s-.1.24-.41.57a3.58,3.58,0,0,0-.47.57.6.6,0,0,0,.12.22l.12.15.48-.48a4.44,4.44,0,0,1,.53-.48c.15,0,0,.28-.42.68l-.47.47.1.19a.8.8,0,0,0,.16.22,2,2,0,0,0,.53-.47c.37-.4.48-.49.53-.42s-.07.22-.44.61-.49.52-.41.65l.14.22c0,.06.18,0,.54-.4s.5-.47.54-.39-.06.21-.43.59l-.49.49.13.2a.64.64,0,0,0,.17.2,4.2,4.2,0,0,0,.49-.48c.36-.39.46-.46.51-.39s0,.2-.41.57l-.47.48.1.22c.06.12.13.22.15.22a3.36,3.36,0,0,0,.48-.43,3.43,3.43,0,0,1,.48-.43c.16,0,0,.27-.38.65a4.68,4.68,0,0,0-.43.46,1.37,1.37,0,0,0,.13.24l.13.21.42-.46c.34-.37.44-.44.5-.38s0,.16-.37.54l-.46.46.12.22a.68.68,0,0,0,.15.22,4,4,0,0,0,.43-.4,2.92,2.92,0,0,1,.45-.4c.15,0,0,.27-.35.62a4.17,4.17,0,0,0-.4.43,1.26,1.26,0,0,0,.12.23l.12.2.42-.43c.35-.36.42-.41.46-.32s-.06.21-.36.52-.4.42-.32.6a.65.65,0,0,0,.14.23s.23-.14.45-.35.39-.36.43-.28-.08.22-.36.51l-.4.41.1.18.12.21a2.14,2.14,0,0,0,.42-.36c.33-.32.4-.37.43-.28s-.06.21-.34.49-.38.39-.3.58a.66.66,0,0,0,.14.23s.22-.12.42-.31.36-.33.39-.25-.08.23-.32.48l-.36.39.09.24.09.24.36-.36c.3-.3.37-.34.4-.25s-.05.2-.31.47l-.35.36.11.21.13.24a1.51,1.51,0,0,0,.35-.3c.25-.25.34-.3.37-.23s-.08.22-.3.46l-.34.36.1.23.1.23.33-.32c.27-.27.33-.31.37-.21s0,.2-.28.43l-.32.33.07.25c0,.14.09.25.12.25a2,2,0,0,0,.34-.29c.27-.27.3-.28.3-.14a.83.83,0,0,1-.28.43l-.28.28.1.24.1.24.26-.25a1.49,1.49,0,0,1,.3-.25c.12,0,0,.24-.21.47l-.26.26.08.25a.67.67,0,0,0,.12.25,1.47,1.47,0,0,0,.27-.23c.23-.22.23-.23.23-.07a.6.6,0,0,1-.21.36l-.21.2.1.24.1.24.21-.2.21-.2v.16a.49.49,0,0,1-.15.3l-.15.14.13.24c.12.24.13.24.24.14s.12-.1.12,0a.36.36,0,0,1-.06.22c-.09.09.39.52.59.52a.73.73,0,0,0,.41-.25Zm34.49-11.3c.65-.69.88-.89,1-.91s.09.07-.66.82a6.71,6.71,0,0,0-.81.89,1,1,0,0,0,.37,0c.33,0,.33,0,1.28-1a8.14,8.14,0,0,1,1.23-1.12c.25-.12.17,0-.67.84a6.71,6.71,0,0,0-.88,1,2.57,2.57,0,0,0,.63-.27,4.24,4.24,0,0,0,1.39-1.16,4.84,4.84,0,0,0,1.08-1.38,5.37,5.37,0,0,0,.57-2.51,5.18,5.18,0,0,0-.56-2.53,5.5,5.5,0,0,0-7.44-2.6,5.77,5.77,0,0,0-2.46,2.43,2.33,2.33,0,0,0-.16.37,2.35,2.35,0,0,0,.44-.38c.24-.24.42-.38.4-.32a.72.72,0,0,0,0,.17,4.4,4.4,0,0,1-.54.63c-.51.53-.55.59-.62.93a1.08,1.08,0,0,0,0,.4,1.81,1.81,0,0,0,.45-.41,3.76,3.76,0,0,1,.45-.45c.13,0-.1.35-.51.79l-.48.51v.7l.49-.49c.44-.43.49-.47.49-.34s-.14.29-.49.64-.49.5-.46.71c.06.42.06.42.56-.08a4.35,4.35,0,0,1,.52-.47c.13,0,0,.19-.45.69l-.5.54.08.25.08.25.52-.51c.41-.41.53-.49.57-.42s-.06.21-.47.62l-.53.53.09.22c.05.12.12.23.14.23a4.54,4.54,0,0,0,.57-.52c.72-.72.78-.56.08.2l-.53.58.12.21.12.21.6-.6c.48-.48.62-.59.68-.53s0,.2-.53.69l-.61.61.15.19a.74.74,0,0,0,.19.19,6.86,6.86,0,0,0,.64-.64c.46-.5.62-.63.68-.58s-.05.2-.54.71a6.1,6.1,0,0,0-.62.7s.08.12.17.19l.17.13.68-.68c.64-.64.83-.78.83-.61a5.8,5.8,0,0,1-.68.76l-.68.69.22.14.22.14.72-.75c.58-.6.75-.74.84-.71s0,.17-.64.8l-.76.76.21.13a1.17,1.17,0,0,0,.25.13s.39-.36.81-.8.8-.79.87-.77-.08.23-.67.85c-.74.78-.76.81-.63.89s.37.09,1.19-.73c.57-.57.84-.8.93-.79s-.06.2-.68.84a6.46,6.46,0,0,0-.76.85.94.94,0,0,0,.26.09l.23.05.84-.86c.65-.67.87-.86,1-.86s0,.11-.69.86c-.56.56-.83.87-.77.89a1.5,1.5,0,0,0,.34,0c.25,0,.27,0,1.1-.88Zm-.11-1.43a2.7,2.7,0,0,0-.09-1.4c-.07-.16-.16-.29-.19-.28a2.43,2.43,0,0,0-.36.39,1.65,1.65,0,0,1-2,.6c-.79-.36-1-.94-.81-2.26.1-.69.68-3.59.72-3.63s3.43,1.14,3.92,1.38c.94.47,1.25,1.07,1,2a1.77,1.77,0,0,1-1.4,1.17c-.63.09-.67.13-.35.52a1.88,1.88,0,0,0,1,.65l.29.07-.43.28c-.24.15-.62.38-.86.51l-.43.23.06-.18ZM36.76,190c.55-.55.78-.74.89-.74s.05.1-.55.71a6.18,6.18,0,0,0-.68.74,1.14,1.14,0,0,0,.37,0c.33,0,.35-.06,1.08-.8.55-.56.78-.75.89-.75s.05.1-.52.68a4.89,4.89,0,0,0-.64.71,2.91,2.91,0,0,0,.86-.28,8.52,8.52,0,0,0,.84-.8,7.88,7.88,0,0,1,.92-.86c.21-.12.2-.1-.15.29-.21.23-.47.52-.6.63a1,1,0,0,0-.22.27c0,.1.55-.34.95-.75a5.78,5.78,0,0,0-.08-8.08,5.46,5.46,0,0,0-5.63-1.32,2.19,2.19,0,0,0-1.28.91c-.22.27-.78.88-1.25,1.36-.72.74-.86.92-1,1.21-.26.76-.26.76.39.12s.59-.57.52-.37a3.21,3.21,0,0,1-.63.78c-.55.56-.56.57-.58.91s0,.34,0,.34a3.25,3.25,0,0,0,.53-.51c.4-.44.46-.48.43-.32a2.63,2.63,0,0,1-.53.7c-.41.43-.48.55-.48.72,0,.45,0,.44.56-.06s.48-.46.51-.35-.09.24-.45.6a2.45,2.45,0,0,0-.49.58,1.27,1.27,0,0,0,.07.3l.07.2.47-.47a4.16,4.16,0,0,1,.52-.47c.13,0,0,.2-.44.67L31,187l.09.24.09.24.5-.5c.4-.39.52-.48.58-.42s0,.19-.45.6l-.52.53.12.2c.07.11.15.2.18.2a3.71,3.71,0,0,0,.53-.5c.34-.36.49-.48.53-.42s-.11.25-.44.6a5,5,0,0,0-.49.57.76.76,0,0,0,.13.21l.13.17.56-.56c.45-.44.58-.55.64-.49s0,.19-.49.65l-.57.57.15.16a.54.54,0,0,0,.21.16,3.85,3.85,0,0,0,.59-.57c.42-.45.55-.56.64-.52s0,.13-.49.65l-.6.6.2.17.2.17.65-.65c.43-.43.68-.63.73-.6s-.12.25-.55.71c-.65.69-.64.67-.34.85.1.06.21,0,.8-.62s.71-.67.78-.62,0,.19-.58.74l-.67.68.23.09a1.35,1.35,0,0,0,.28.09,6.59,6.59,0,0,0,.71-.7c.52-.56.68-.7.78-.67s0,.13-.56.72a8.53,8.53,0,0,0-.68.73s.12.07.26.11l.26.07.75-.74c.47-.47.77-.73.82-.7s-.14.28-.57.73-.64.7-.64.72.09,0,.2.06l.26,0a6.15,6.15,0,0,0,.8-.73Zm-2.07-1.92a7.7,7.7,0,0,1-.76-.49c-.11-.1-.1-.11.18-.18.65-.16,1.25-.82,1.2-1.3,0-.23-.06-.24-.44-.08a1.57,1.57,0,0,1-2-.56,1.25,1.25,0,0,1-.21-.74,1.14,1.14,0,0,1,.16-.78,1.56,1.56,0,0,1,2.71-.09,1.24,1.24,0,0,0,.27.27,1.35,1.35,0,0,0,0-.48,1.72,1.72,0,0,1,.51-1.53,1.23,1.23,0,0,1,.65-.39,1.49,1.49,0,0,1,1.85,1.51,1.74,1.74,0,0,1-1.14,1.58c-.22.11-.38.21-.36.24a.86.86,0,0,0,.33.08,1.65,1.65,0,0,1,1.54,1.63,1.33,1.33,0,0,1-.37,1,1.41,1.41,0,0,1-1.49.45,1.64,1.64,0,0,1-1.14-1.5c0-.27-.05-.33-.15-.33-.46,0-.86,1.05-.65,1.74.07.22.07.29,0,.29a5.15,5.15,0,0,1-.72-.38Zm40-9.23c3.65-3.74,6.64-6.82,6.64-6.85s-.09-.1-.21-.15l-.21-.1L74,178.83c-3.8,3.88-6.92,7.09-6.94,7.13a2.23,2.23,0,0,0-.08.44l0,.37.55-.55Zm-1.31.3,6.76-6.93.57-.6-.19-.1a.93.93,0,0,0-.25-.1s-3,3-6.5,6.58c-5.6,5.73-6.44,6.61-6.5,6.83a2.5,2.5,0,0,0-.12.65S70,182.66,73.37,179.17Zm.39-1.41c3.43-3.51,6.24-6.42,6.25-6.46s-.07-.12-.18-.18l-.2-.11-.38.39L67.94,183a1.79,1.79,0,0,0-.35.69,1.55,1.55,0,0,0-.11.47s2.84-2.88,6.27-6.39Zm0-1c3.11-3.18,5.65-5.81,5.65-5.84s-.08-.11-.18-.18l-.18-.13L73.72,176c-5.22,5.34-5.33,5.46-5.49,5.87-.25.64-.26.65-.19.63s2.61-2.63,5.71-5.81Zm-40.48,3.51c0-.16-1.11.85-1.46,1.32a1.57,1.57,0,0,0-.21.34,8.26,8.26,0,0,0,.83-.78A10.74,10.74,0,0,0,33.27,180.25Zm40.42-4.47c2.36-2.42,4.29-4.41,4.27-4.43a9,9,0,0,0-1,.64c-1,.66-1,.67-4,3.8-2,2.07-3.16,3.28-3.36,3.58a10.19,10.19,0,0,0-.81,1.37s.14-.08.3-.25Zm-.2-.82a15,15,0,0,0,1.13-1.24,12.46,12.46,0,0,0-2.41,2.54s.59-.59,1.28-1.3Zm-27.06.62c1.47-.3,3.66-1.12,8.49-3.19,3.84-1.64,5.33-2.24,6.7-2.69l1.26-.42a31.2,31.2,0,0,0,3.23-3.16l3.75-3.84.74-.75-.11-.22c-.06-.12-.13-.21-.16-.2s-1.5,1.5-3.27,3.32c-3.21,3.29-4.53,4.62-4.39,4.43a2.71,2.71,0,0,0,.18-.32c.06-.12,1.67-1.82,3.58-3.77S70,161.13,70.06,161s.15-.18,0-.37a.53.53,0,0,0-.15-.19S68.39,162,66.51,164s-3.42,3.48-3.43,3.48,0-.06,0-.13,1.44-1.62,6.1-6.36l.71-.72-.14-.23c-.14-.22-.14-.22-.25-.11-1.45,1.52-6.56,6.71-6.59,6.7s0-.06,0-.11,1.49-1.62,3.32-3.48l3.31-3.39-.1-.22c-.06-.12-.12-.22-.15-.22s-1.53,1.52-3.35,3.39a45.65,45.65,0,0,1-3.4,3.35c-.08,0-.08-.05,0-.17s3.64-3.75,6-6.19l.61-.63-.12-.21a.71.71,0,0,0-.15-.21s-1.37,1.37-3,3.05l-3.4,3.48c-.31.32-.44.41-.51.37s.63-.79,3.29-3.51c1.86-1.9,3.39-3.47,3.39-3.5s-.14,0-.32,0H68l-3.27,3.35c-1.8,1.84-3.32,3.35-3.38,3.37s-.11,0-.11,0,1.45-1.54,3.22-3.35l3.22-3.29-.34,0-.34,0-2.19,2.24c-4,4.08-4.17,4.27-4.29,4.22s.46-.62,2.56-2.77l3.13-3.21.46-.48H66l-3.16,3.24a31.38,31.38,0,0,1-3.31,3.24c-.12,0,.28-.43,2-2.16,3.16-3.23,4.14-4.25,4.11-4.28a1.22,1.22,0,0,0-.36,0l-.34,0L62,161.4l-3.12,3.19a1.38,1.38,0,0,1-.46.32c-.18.05-.1,0,.65-.82,4.34-4.44,5.36-5.49,5.38-5.54s-.46,0-.68.06c-.05,0-1.52,1.5-3.26,3.28s-3.21,3.26-3.26,3.28l-.19,0c-.1,0,.33-.44,3.81-4,1.34-1.37,2.42-2.5,2.41-2.51a1.7,1.7,0,0,0-.44.08l-.41.1-3.25,3.33a41.72,41.72,0,0,1-3.5,3.44c-.24.1-.21.07.37-.52l3.26-3.33c1.45-1.48,2.62-2.72,2.6-2.74a1.2,1.2,0,0,0-.44.08l-.4.12-3.37,3.45c-2.89,3-3.78,3.81-3.88,3.71s1.5-1.57,3.35-3.47,3.34-3.46,3.3-3.47a1.93,1.93,0,0,0-.51.15l-.44.17-3.66,3.76a53.48,53.48,0,0,1-4,3.94c-.3.17-.26.12.6-.76,3.36-3.42,6.51-6.66,6.49-6.69a2.75,2.75,0,0,0-.56.2l-.53.23L53.45,165c-2.92,3-4.7,4.76-5.2,5.18l-.77.64.87-.89c6.57-6.72,8.85-9.06,8.85-9.09a3.88,3.88,0,0,0-.68.32l-.68.36-3.13,3.21-5.51,5.64c-2.36,2.42-2.38,2.44-2.58,2.92-.11.26-.22.53-.24.59s.17-.09.42-.33l.45-.43-.4.49c-.59.73-.63.79-.63,1.2a.76.76,0,0,0,.44.78,4.15,4.15,0,0,0,1.76,0Zm87.44,0c.11-.1.34-.07.27,0s.42.08.66,0c.93-.39.45-2.05-1.42-4.91a26.19,26.19,0,0,0-3.74-4.53,27,27,0,0,0-12.46-7.25,16.18,16.18,0,0,0-4.85-.56h-1.65l-.29.54a35.53,35.53,0,0,1-3.39,5.14,3.2,3.2,0,0,0-.33.45s.15-.09.32-.26a2,2,0,0,1,.34-.29c.09.09-.49.74-2.93,3.23-2.64,2.7-2.81,2.88-2.64,2.9.47.05.46.06,2.82-2.36,1.23-1.27,2.25-2.3,2.25-2.3a.68.68,0,0,1,0,.17,21.27,21.27,0,0,1-2.06,2.24c-1.12,1.14-2,2.1-2,2.13s.16,0,.35,0l.35-.05,1.63-1.67c.9-.92,1.66-1.67,1.68-1.67.18,0-.13.38-1.4,1.68-.8.82-1.43,1.5-1.42,1.51a1.46,1.46,0,0,0,.4-.05l.37-.08,1.33-1.35c.95-1,1.36-1.35,1.44-1.33s-.17.32-1.11,1.28c-.67.7-1.21,1.27-1.2,1.29a1.62,1.62,0,0,0,.38-.05c.36-.07.37-.08,1.6-1.3a9.92,9.92,0,0,1,1.35-1.23c.13,0,.05.09-1.26,1.43a7.64,7.64,0,0,0-.8.88,1.16,1.16,0,0,0,.39,0c.36-.07.36-.08,1.44-1.17.85-.87,1.11-1.1,1.24-1.1s0,.14-.85,1a10.17,10.17,0,0,0-1,1.05,1,1,0,0,0,.37,0l.33,0,1-1c.78-.8,1-1,1.14-1s0,.12-.76.92a7.78,7.78,0,0,0-.88,1,1,1,0,0,0,.38,0l.35,0,.84-.89c.65-.68.88-.89,1-.89s.06.09-.52.69l-.83.87-.15.18.37,0,.37,0,.8-.8c1.06-1.06,1.3-1.08.32,0-.39.42-.72.78-.72.8a.75.75,0,0,0,.32,0c.32,0,.34-.05,1-.74s.92-.83.92-.66a8,8,0,0,1-.66.71l-.66.66h.7l.6-.62c.45-.47.64-.62.76-.62s.09.07-.45.61a5.1,5.1,0,0,0-.58.64,1.46,1.46,0,0,0,.32.06l.3,0,.54-.58c.39-.42.58-.58.69-.58s.07.08-.4.55a2.7,2.7,0,0,0-.51.59.93.93,0,0,0,.28.09c.24,0,.25,0,.79-.5s.7-.64.7-.49a3.74,3.74,0,0,1-.46.55,6.25,6.25,0,0,0-.46.52.67.67,0,0,0,.26.07c.26,0,.26,0,.76-.46s.52-.48.61-.45,0,.12-.37.52l-.48.48.24.07.3.07a2.82,2.82,0,0,0,.49-.47c.34-.37.46-.46.54-.42s0,.11-.33.5l-.45.45.17.06c.32.12.42.08.87-.37.27-.27.46-.41.51-.38s-.06.19-.33.49l-.4.44.25.08.25.08.41-.41c.31-.31.43-.4.51-.35s0,.13-.3.45l-.39.39.2.07c.32.11.36.09.73-.31s.37-.37.46-.33.06.1-.27.43l-.39.39.18.07.27.1c.05,0,.24-.12.46-.34s.4-.35.45-.32,0,.16-.26.43l-.34.38.25.08.25.08.35-.35c.27-.26.37-.33.44-.29s0,.12-.24.4l-.34.34.23.09.27.09a1.86,1.86,0,0,0,.33-.32c.22-.25.31-.31.4-.28s.08.08-.17.34a1.7,1.7,0,0,0-.29.34s.1.09.22.14l.22.09.33-.33c.22-.22.35-.31.39-.26s0,.17-.21.38l-.28.32.23.09.23.09.31-.3c.23-.23.33-.29.4-.24s0,.11-.18.34a1.07,1.07,0,0,0-.25.3.91.91,0,0,0,.41.16.75.75,0,0,0,.33-.26c.17-.2.25-.25.34-.21s.08.08-.15.31l-.26.27.19.1c.27.14.32.13.59-.15s.28-.23.33-.19,0,.11-.14.3a1.65,1.65,0,0,0-.22.28.53.53,0,0,0,.22.11c.21.07.23.06.46-.16s.27-.22.34-.19.08.07-.12.27a1.49,1.49,0,0,0-.23.27.69.69,0,0,0,.26.12l.25.08.19-.23c.14-.17.22-.22.3-.19s.08.07-.12.28l-.23.24.23.09c.29.12.28.13.51-.1s.23-.18.31-.15.08.07-.1.25l-.2.21.23.11.23.11.21-.2c.14-.14.24-.19.31-.16s.08.07-.09.25l-.2.2.23.1c.3.13.3.13.48-.08s.18-.16.23-.13.06.08-.05.2a.62.62,0,0,0-.14.19s.1.08.23.14.23.09.39-.06.2-.14.27-.12.09.06-.05.21l-.16.17.24.1c.24.09.25.09.4-.06s.18-.14.26-.1.09.07,0,.17-.16.19.12.28.26.07.4-.06.17-.12.22-.08,0,.09,0,.14-.12.18.13.28.23.09.36,0,.34-.17.34-.07a.25.25,0,0,1-.09.13c-.14.12-.11.17.13.25s.24.06.37-.06.19-.12.25-.1.09.05,0,.18l-.13.14.29.08c.27.08.3.07.4-.05s.3-.18.3-.08a.25.25,0,0,1-.09.13c-.14.12-.11.17.16.25s.26.06.39-.06.35-.18.35-.08a.25.25,0,0,1-.09.13c-.14.12-.11.16.15.23s.26,0,.4-.09.19-.14.26-.11.1,0,0,.15-.13.18.07.21.34,0,.46-.06Zm-42.51-1.68a1.75,1.75,0,0,0-.4,0,.65.65,0,0,0-.48.31,1.63,1.63,0,0,0-.34.93c0,.09.19-.07.68-.56s.66-.68.55-.7Zm-1,.11a.06.06,0,0,0-.12,0,.06.06,0,1,0,.12,0Zm-1.58-.42c.19-.2.21-.25.13-.28a.63.63,0,0,0-.69.16.93.93,0,0,0-.2.24s.1.06.23.07l.27,0a1.12,1.12,0,0,0,.27-.23Zm1,0a.88.88,0,0,0,.2-.25s-.15,0-.33,0a.58.58,0,0,0-.57.25l-.24.25h.36c.33,0,.39,0,.57-.2Zm1.07-.09.28-.29-.4,0a.78.78,0,0,0-.65.29l-.25.25h.37c.36,0,.38,0,.65-.29Zm1.13-.14a1.65,1.65,0,0,0,.35-.4,1.53,1.53,0,0,0-.44.07,1.15,1.15,0,0,0-.71.4l-.29.3h.36c.35,0,.36,0,.74-.37Zm-4.07.07c.13-.13.21-.25.18-.27a1.51,1.51,0,0,0-.3-.07c-.24,0-.26,0-.49.22l-.24.27.18,0c.36.08.44.05.67-.19Zm4.65.11c.26-.06.37-.14.82-.58a3.7,3.7,0,0,0,.49-.54,2.49,2.49,0,0,0-.54.17,1.69,1.69,0,0,0-.88.61C92.07,173.69,92.08,173.71,92.59,173.6Zm-5.48-.27c.19-.19.24-.28.18-.3l-.28-.09c-.18-.06-.21,0-.46.21s-.25.29-.23.31a1.85,1.85,0,0,0,.48.14,1.57,1.57,0,0,0,.3-.27Zm-.87-.17a2.55,2.55,0,0,0,.26-.32s-.08-.09-.19-.13-.22-.07-.51.21a1.7,1.7,0,0,0-.29.33,1,1,0,0,0,.45.17,1.15,1.15,0,0,0,.29-.26Zm7.6.16c.3-.09.42-.18,1.09-.85a10.57,10.57,0,0,0,.76-.79,2.64,2.64,0,0,0-.61.24,2.75,2.75,0,0,0-1.18.89c-.31.34-.53.61-.49.61A2.7,2.7,0,0,0,93.84,173.32Zm-8.32-.44a2.06,2.06,0,0,0,.29-.33.6.6,0,0,0-.25-.12l-.25-.08-.26.31c-.31.36-.33.42-.14.47S85.23,173.18,85.52,172.89Zm9.67,0c.37-.12.46-.2,1.28-1a16.45,16.45,0,0,0,1.68-1.8l-.71.46c-.34.23-.71.46-.81.51a17.85,17.85,0,0,0-1.9,2Zm-10.41-.28a1.39,1.39,0,0,0,.3-.36s-.1-.1-.22-.15l-.22-.08-.33.33a2,2,0,0,0-.33.38c0,.06.24.16.4.17a1,1,0,0,0,.42-.29Zm-.7-.33a2.13,2.13,0,0,0,.31-.39l-.21-.12-.19-.1-.39.4a2.33,2.33,0,0,0-.36.42,1.32,1.32,0,0,0,.43.16,1.39,1.39,0,0,0,.42-.37Zm12.87-.09c.42-.19.58-.34,6.25-6.16,3.2-3.28,5.85-5.94,5.88-5.92s0,0,0,0,0-.11.08-.17a9.51,9.51,0,0,0,.9-1.61s-6.15,6.23-6.49,6.64c-.49.59-2,2.16-2.51,2.66a54.94,54.94,0,0,0-4.74,4.84l.59-.25ZM83.37,172c.2-.2.34-.39.32-.42a.66.66,0,0,0-.23-.14c-.2-.08-.2-.08-.55.32a3.7,3.7,0,0,0-.36.43s.25.17.37.17A1.47,1.47,0,0,0,83.37,172Zm-.65-.33c.41-.41.41-.42.08-.59-.14-.07-.17,0-.54.31a2.16,2.16,0,0,0-.39.46c0,.08.22.2.37.21A1.62,1.62,0,0,0,82.72,171.68Zm7.35-.38.77-.77h-.72l-.7.72c-.67.7-.69.73-.53.76C89.25,172.1,89.29,172.07,90.07,171.29Zm1.11-.11c.47-.48.84-.89.83-.9a1.68,1.68,0,0,0-.38.06c-.34.07-.39.11-1.15.85a10.3,10.3,0,0,0-.79.82s.14,0,.32,0h.32Zm.13.72c.2,0,.38-.2,1.33-1.18a12.12,12.12,0,0,0,1-1.11,4.26,4.26,0,0,0-2,1.38,12.79,12.79,0,0,0-.91,1s.08,0,.17,0Zm-42.19-3.77,4.8-4.9a14,14,0,0,0,1-1.12,13.73,13.73,0,0,0-1.7,1.11c-.14.11-1.72,1.71-3.51,3.54-3.27,3.34-3.44,3.54-4.16,4.71-.24.39-.28.47-.23.47s1.7-1.71,3.75-3.81Zm40,3.15a7.5,7.5,0,0,0,.66-.71s-.15,0-.33,0H89.1l-.59.63a6.7,6.7,0,0,0-.59.67s.17.09.4.11C88.39,171.94,88.67,171.71,89.1,171.28Zm-7,0,.39-.42-.15-.12a.59.59,0,0,0-.21-.12,3.44,3.44,0,0,0-.85.9l.18.12a.31.31,0,0,0,.18.08A3.06,3.06,0,0,0,82.06,171.3Zm6.17-.13c.34-.35.55-.61.52-.64a.66.66,0,0,0-.29-.07c-.22,0-.26,0-.79.53a3.14,3.14,0,0,0-.54.61c0,.06.24.14.42.15a3.11,3.11,0,0,0,.67-.58Zm4.36.4c.36-.12.44-.19,1.87-1.66.82-.85,1.48-1.54,1.46-1.54s-.35.18-.73.41a7.9,7.9,0,0,0-1.85,1.56c-.64.63-1.19,1.2-1.22,1.25s0,.14.48,0Zm6.84-.74a26.6,26.6,0,0,0,3.88-3.3c.86-.86,2.09-2.2,2.37-2.59,0-.07-.93.91-2.19,2.16s-2.47,2.43-2.71,2.61l-.43.33.28-.3c.25-.26,5.56-5.72,6.06-6.22.1-.1.17-.15.14-.11s0,0,.38-.41,1.4-2,1.74-2.55c.21-.34.11-.28-.14.08-.12.17-2.36,2.51-5,5.19s-5,5.12-5.27,5.41l-.49.52.37-.21C98.63,171.34,99.08,171.06,99.42,170.83Zm-12,.15c.28-.29.51-.55.52-.57s-.09-.07-.23-.11l-.24-.06-.53.53a5.05,5.05,0,0,0-.53.58c0,.06.24.16.39.16A2,2,0,0,0,87.38,171Zm-6,0a2.55,2.55,0,0,0,.42-.48s-.09-.12-.2-.18l-.2-.12-.42.45a4,4,0,0,0-.42.49,1,1,0,0,0,.37.25A4.57,4.57,0,0,0,81.39,171Zm5.21-.22a4.76,4.76,0,0,0,.51-.55s-.1-.09-.23-.15l-.23-.1-.51.54a7.46,7.46,0,0,0-.51.58,1,1,0,0,0,.4.17A3.38,3.38,0,0,0,86.6,170.76Zm7.56.21c.46-.22.55-.3,2.67-2.47A25.87,25.87,0,0,1,99.4,166c.43-.27.41-.24-2.88,3.08a15.71,15.71,0,0,0-1.23,1.31,10.16,10.16,0,0,0,1.23-.66c.11-.06,1.28-1.23,2.62-2.6s2.55-2.56,2.72-2.67a.94.94,0,0,1,.3-.15s-1,1-2.19,2.26-2.17,2.24-2.16,2.26a18,18,0,0,0,2-1.61,34.19,34.19,0,0,0,6-6.95c1.5-2.42,3-5.86,4.8-11.38,3.35-10,4.74-17.59,4-21.74-.05-.29-.31-1.18-.58-2s-.67-2.12-.89-2.94a18.11,18.11,0,0,0-2.35-5.9c-1.8-2.68-4.65-4.07-8.63-4.21-4.85-.17-8,1.7-10.11,6A22.9,22.9,0,0,0,90,125.88a7,7,0,0,1-.25,1.59s-.08-.48-.15-1A24.15,24.15,0,0,0,87.33,118c-2-3.92-4.74-5.72-9-5.88A11.49,11.49,0,0,0,70,114.8,10.07,10.07,0,0,0,67.75,118a23.1,23.1,0,0,0-1.4,4.13c-.25.93-.67,2.31-.92,3.05a12.37,12.37,0,0,0-.78,5.54c.28,5,1.77,11.33,4.61,19.53,1.94,5.61,3.33,8.64,5.13,11.23a17.5,17.5,0,0,0,2,2.42c.08,0,.12.06.09.11s0,.15.13.25.18.17.27.09a.15.15,0,0,1,.19,0c.08,0,.08.07,0,.16s-.1.12,0,.28.23.22.39,0,.15-.14.22-.1.06.09-.09.25l-.18.19.18.19.18.19.23-.22c.16-.16.26-.21.34-.18s.07.08-.15.3l-.26.26.17.17.17.17.28-.28c.2-.2.31-.27.39-.24s.06.09-.21.36l-.31.32.19.18.19.18.36-.36c.24-.24.38-.33.41-.28s-.05.18-.2.33c-.42.45-.42.45-.23.62l.18.15.38-.37c.28-.28.41-.36.49-.33s0,.11-.31.46l-.42.42.17.13a.64.64,0,0,0,.23.13,2.17,2.17,0,0,0,.44-.41c.3-.33.4-.4.48-.35s0,.12-.33.49a4.2,4.2,0,0,0-.43.46.71.71,0,0,0,.19.18l.19.14.47-.47c.31-.31.5-.45.55-.42s-.06.19-.38.55-.45.5-.36.59.26.2.78-.31.52-.49.59-.44,0,.16-.42.58l-.51.52.17.13a.61.61,0,0,0,.25.13,4.14,4.14,0,0,0,1-1.09s0-.08,0-.08l1.43.64a19.61,19.61,0,0,0,3.35,1.28,8.41,8.41,0,0,0,2.47.14h1.88l.72-.19c.4-.11,1-.32,1.45-.48.89-.36,2.73-1.19,2.86-1.29a2,2,0,0,1,.31-.18c.25-.12.08.06-2.11,2.28-.74.75-1.34,1.38-1.34,1.4s.16,0,.63-.19ZM82,164.15A11.85,11.85,0,0,1,78.54,158c-.21-.85-.74-3.64-.74-3.92s.48-.75,2-1.34c.48-.19,1-.42,1.23-.52A7.63,7.63,0,0,0,83.47,150a4.27,4.27,0,0,1,.43-.52s-.18.39-.41.81A6.15,6.15,0,0,1,82,152.25a10.18,10.18,0,0,1-1.32,1.23c-.11,0-.19.06-.19,0a3.69,3.69,0,0,1,.35-.4c.38-.4.39-.44,0-.22a4.9,4.9,0,0,1-.57.28,3.78,3.78,0,0,0-1.1.89c-.7.7-.75.76-.72.93.09.44.08.43.34.18s.24-.23.24-.08a.62.62,0,0,1-.22.37c-.21.2-.22.23-.18.49a1.39,1.39,0,0,0,.07.3s.12-.07.24-.18.21-.19.21-.1a.89.89,0,0,1-.19.35.5.5,0,0,0-.15.53l0,.28.21-.21c.21-.2.21-.2.21-.06a.63.63,0,0,1-.18.34c-.17.18-.18.2-.12.43s.09.32.26.16.15-.13.19,0,0,.16-.12.28a.37.37,0,0,0-.12.42c0,.27.09.31.22.16a.25.25,0,0,1,.13-.09c.1,0,.06.21-.07.34s-.11.16-.05.37.09.31.2.21.09-.05.09.08a.27.27,0,0,1-.06.19c-.07,0,0,.36.16.55a.47.47,0,0,1,.08.2,9.83,9.83,0,0,0,1,1.83,20.28,20.28,0,0,0,1.47,2,2.15,2.15,0,0,1,.31.42,7.27,7.27,0,0,1-.63-.57ZM79,154c.28-.3.5-.56.5-.58a1.12,1.12,0,0,0-.35,0,.88.88,0,0,0-.59.28.57.57,0,0,0-.19.68c0,.08.06.14.08.14A4.86,4.86,0,0,0,79,154Zm18.45,10a8.8,8.8,0,0,0,1.81-2.85c0-.12,0-.21.18-.39s.65-1.25.55-1.25a1.29,1.29,0,0,0-.28.23c-.22.21-.23.22-.23.09a1.24,1.24,0,0,1,.36-.52,1.54,1.54,0,0,0,.49-.83,1,1,0,0,0,.07-.45,2.3,2.3,0,0,0-.41.39c-.31.34-.35.36-.31.21a2.49,2.49,0,0,1,.46-.63c.36-.4.43-.5.49-.8s.07-.38.07-.41-.2.13-.44.37c-.4.39-.43.41-.39.25a2.21,2.21,0,0,1,.49-.65c.42-.43.46-.49.52-.83s.07-.39.07-.43-.2.13-.43.36-.43.41-.43.27.14-.29.49-.64.49-.5.56-.88a1.53,1.53,0,0,0,0-.42,2.76,2.76,0,0,0-.5.46c-.38.4-.47.47-.47.36s.92-1.18.92-1,0,.11.06.11.06,0,.06-.1a.46.46,0,0,0-.29-.4c-.15-.06-.19,0-.54.31s-.39.36-.45.29,0-.14.21-.36a1.73,1.73,0,0,0,.28-.31s-.13-.06-.29-.08-.3,0-.47.18a.57.57,0,0,1-.3.22c-.16,0-.15-.05,0-.26s.16-.24-.14-.34-.21,0-.37.12-.46.21-.18-.11l.15-.18-.22-.11c-.22-.11-.22-.1-.39.06s-.21.15-.28.12-.09-.06.06-.21a.83.83,0,0,0,.16-.21.66.66,0,0,0-.19-.18l-.19-.14-.14.18c-.11.14-.16.16-.22.1s0-.11.07-.23l.15-.16-.15-.15c-.18-.19-.23-.19-.41,0s-.15.12-.18,0a.24.24,0,0,1,.07-.22c.1-.11.1-.13,0-.3s-.16-.18-.26-.06-.13.1-.19,0-.07-.09,0-.17.12-.16,0-.38-.14-.18-.24-.08-.23,0-.12-.18,0-.2-.24-.66a4.55,4.55,0,0,1-.31-.58,2.16,2.16,0,0,1,.38.43,11.72,11.72,0,0,0,1.66,1.72,7.34,7.34,0,0,0,2,1c1.66.64,2.06.92,2.06,1.41,0,.27-.41,2.53-.66,3.6a12.55,12.55,0,0,1-2.16,4.89,18.77,18.77,0,0,1-1.94,2,4.42,4.42,0,0,1,.51-.69Zm-8.3.28a5.76,5.76,0,0,1-3-1.78c-.62-.63-.63-.69,0-.2a5.73,5.73,0,0,0,4.06,1.53A6.22,6.22,0,0,0,93,162.55l.74-.56c.33-.25-.42.56-.91,1a4.68,4.68,0,0,1-3,1.3,5.17,5.17,0,0,1-.74,0Zm-.46-1.84a4.26,4.26,0,0,1-2.13-1l-2.86-2.5c-1.86-1.64-2.4-2.15-2.33-2.19s.11-.21-.08-.35-.19-.11-.24-.06-.21,0-.17-.13-.22-.34-.39-.34-.11-.06-.13-.13,0-.08.39.16a9.64,9.64,0,0,0,3.68,1.65,7.1,7.1,0,0,0,2.79-.63c.85-.33,1-.3,1.76.43s.92.65,1.63,0,.85-.75,1.7-.42a7.1,7.1,0,0,0,2.79.63,6.71,6.71,0,0,0,2.58-1,2.46,2.46,0,0,1,.5-.28,3.17,3.17,0,0,0,.57-.31c.67-.44.4-.18-.53.5a11.44,11.44,0,0,0-1.56,1.35c-.4.41-1,1-1.4,1.33-1,.83-1,.86-.77.61s.2-.23.18-.23-.41.29-.86.65l-1.22.94c-.8.59-1,.87-.33.54a20.24,20.24,0,0,0,3-2.34c2.2-1.85,2.94-2.46,2.94-2.42s-4.87,4.32-5.36,4.72a4.6,4.6,0,0,1-3.06,1A6.41,6.41,0,0,1,88.66,162.41Zm1.48-.4c.17-.14.16-.14-.38-.12s-.68.12-.42.19a1,1,0,0,0,.8-.07Zm-1,0c0-.13.06-.12-.25-.16s-.28,0-.33.05,0,.11.22.17.33,0,.36-.06Zm1.73,0c.25,0,.64-.25.57-.31a3.31,3.31,0,0,0-1,.24c-.1.09-.1.19,0,.15l.37-.08Zm-2.57-.19s-.08-.1-.2-.14-.24-.06-.32,0-.08.09.08.16.4.08.44,0Zm-.74-.25s-.06-.12-.17-.17c-.33-.17-.52,0-.2.18s.33.1.37,0Zm-.63-.33c0-.08-.2-.37-.31-.37a.23.23,0,0,0-.15.09c-.06.07,0,.11.1.21S86.9,161.3,87,161.21Zm-.6-.44c.11-.11.1-.13-.12-.29s-.19-.14-.28,0-.07.13.08.25.21.16.31.07Zm3.44-.43.68-.72.31-.33-.36,0-.36,0-.67.67a3.63,3.63,0,0,0-.63.71,1,1,0,0,0,.57,0A3.45,3.45,0,0,0,89.8,160.34Zm1.22-.22a10.59,10.59,0,0,0,.8-.84c.06-.11,0-.11-.3-.07s-.36,0-1.06.73c-.9.89-.91.91-.5.91h.32Zm.18.53c.3-.06.38-.12,1.11-.85.43-.43.79-.8.79-.82a1.11,1.11,0,0,0-.41,0c-.46.09-.48.1-1.39,1.09a2.89,2.89,0,0,0-.49.6l.39-.07ZM89.1,160l.6-.62-.3,0-.3,0-.6.6a6.78,6.78,0,0,0-.6.64s.06.06.14.07c.35.07.44,0,1.05-.61Zm-.89-.11.57-.58-.2,0c-.44-.09-.43-.1-1.22.77l-.21.23.21.09.24.1a6.81,6.81,0,0,0,.61-.57Zm-2.41.44c.11-.11.09-.15-.11-.3s-.2-.12-.28-.06-.07.1.08.25S85.7,160.44,85.8,160.33Zm7-.33a4.26,4.26,0,0,0,1.14-.86,3.74,3.74,0,0,0,.49-.54,2.48,2.48,0,0,0-.5.13c-.47.15-.48.16-1.16.88a6.69,6.69,0,0,0-.64.74,7.11,7.11,0,0,0,.67-.34Zm-5.4-.3a2.73,2.73,0,0,0,.43-.49,1.31,1.31,0,0,0-.3-.07c-.28,0-.28,0-.67.36l-.39.4.2.13.24.13a4.36,4.36,0,0,0,.49-.46Zm-2.17.13c.05-.06,0-.11-.12-.22s-.2-.12-.28-.06-.07.1.08.22.23.17.32.06Zm1.41-.42c.31-.33.32-.35.18-.38-.32-.09-.45,0-.72.24a1.07,1.07,0,0,0-.24.3,1.61,1.61,0,0,0,.43.21S86.49,159.6,86.67,159.41Zm-2.1-.22c-.11-.11-.2-.15-.28-.12s-.09.06.09.23.23.17.27.12S84.69,159.31,84.57,159.2Zm1.34,0c.13-.14.23-.26.21-.27l-.27-.09c-.24-.07-.25-.06-.44.16l-.2.23.2.11.23.11A1.52,1.52,0,0,0,85.91,159.18Zm9-.34a3.77,3.77,0,0,0,1.1-.8,3,3,0,0,0,.43-.49,9.47,9.47,0,0,0-1.52.85,4.32,4.32,0,0,0-.68.77Zm-9.77.08c.19-.18.18-.23-.08-.34s-.23-.09-.37,0-.18.22,0,.33.26.12.43,0Zm-1,0a.69.69,0,0,0-.17-.21c-.13-.12-.19-.15-.24-.1s0,.11.1.21.32.19.32.1Zm.27-.65c-.22-.11-.22-.11-.37,0s-.19.2.05.32.21.09.37-.06l.17-.16Zm-.68,0,.23-.24-.21-.13a1.26,1.26,0,0,0-.25-.13,1,1,0,0,0-.21.22l-.17.22.18.15.19.15Zm-.6-.39c.19-.18.18-.25-.05-.38s-.2-.11-.35,0l-.16.16.15.16c.18.19.23.19.41,0Zm-.47-.6s-.09-.09-.19-.15-.19-.11-.32,0l-.13.13.18.15.18.15.14-.13a.57.57,0,0,0,.14-.17Zm-.77-.53c-.2-.16-.27-.17-.36,0s0,.13.12.25l.18.16.12-.12.12-.12-.19-.15Zm8.3.35c0-.17.86-.9.95-.81s0,.18-.39.5a4,4,0,0,1-.51.43s0-.05,0-.12Zm-.7-.18a1.91,1.91,0,0,1,0-1.24c0-.25.12-.89.17-1.41s.08-.92.09-.89,0,.42.08.86.12,1.15.19,1.58c.12.71.12.8,0,1s-.13.22-.27.22A.43.43,0,0,1,89.5,157Zm.82-.82q0-.15.3-.45c.26-.26.3-.28.33-.17s-.06.21-.3.45S90.32,156.29,90.32,156.15Zm-.12-.72c0-.15.47-.61.51-.5a1.29,1.29,0,0,1-.45.61S90.2,155.49,90.2,155.43ZM75,155c.23-.35.46-1,.39-1s-.13,0-.23.13-.18.16-.18.07a.91.91,0,0,1,.19-.35c.18-.23.19-.26.12-.5l-.08-.25-.26.26c-.23.22-.27.24-.31.15s0-.18.19-.34l.23-.24-.1-.22c-.06-.12-.13-.22-.15-.22a1.22,1.22,0,0,0-.29.25c-.33.34-.42.19-.09-.17s.29-.36.12-.58l-.12-.15-.27.26c-.21.21-.28.25-.34.19s0-.14.21-.37l.29-.29-.12-.22c-.06-.12-.14-.22-.16-.22a1.55,1.55,0,0,0-.3.29c-.19.22-.27.27-.33.22s0-.14.23-.38l.3-.3-.14-.23-.14-.23-.33.33c-.28.27-.34.31-.37.22s0-.19.25-.41.28-.31.23-.42c-.16-.3-.24-.3-.53,0s-.29.28-.34.21,0-.16.21-.37a1.32,1.32,0,0,0,.28-.34.52.52,0,0,0-.16-.21l-.16-.15-.28.27c-.23.22-.29.26-.34.18s0-.16.21-.37l.27-.28-.15-.18-.16-.18-.24.24c-.19.18-.26.22-.32.16s0-.13.16-.31l.24-.24-.14-.19a.68.68,0,0,0-.18-.19.84.84,0,0,0-.21.18c-.16.17-.28.2-.28.07a.81.81,0,0,1,.16-.24l.16-.19-.14-.19-.13-.19-.18.17c-.16.15-.18.16-.22.06a.26.26,0,0,1,.09-.25l.13-.14-.17-.2c-.15-.18-.17-.19-.27-.1s-.12.08-.14,0a.26.26,0,0,1,0-.19c0-.08,0-.15-.06-.28s-.17-.17-.21-.17-.1-.09-.12-.19a1.53,1.53,0,0,0-.17-.41,2.93,2.93,0,0,1-.44-1.45c0-.7.09-.79.13-.14.06,1.21.52,1.82,3,4,2.16,1.9,2.77,2.6,3.1,3.54a2.63,2.63,0,0,1-.63,2.66c-.39.5-.58.66-.31.25Zm29.29-.14-.39-.48a4.29,4.29,0,0,1-.43-1,2.74,2.74,0,0,1,.51-2.1,15.07,15.07,0,0,1,2.54-2.55c2.63-2.31,3.19-3,3.21-4.24a2.76,2.76,0,0,1,0-.45,2.61,2.61,0,0,1,.07,1,5.14,5.14,0,0,1-.76,1.61c-.15.21-.36.54-.47.75a10.31,10.31,0,0,1-1.23,1.44,20.79,20.79,0,0,0-1.38,1.56,8,8,0,0,0-.89,1.44,12.91,12.91,0,0,0,1.07-1c.57-.59,1-1,1-1a10.2,10.2,0,0,1-1.59,1.89c-1.1,1.13-1.34,1.47-1.43,2l0,.24.32-.31.32-.31-.19.35a2.14,2.14,0,0,1-.28.42.26.26,0,0,0-.09.16,3.6,3.6,0,0,0,.44.9c.23.33,0,.16-.3-.28Zm-14.22-.29c0-.14.41-.61.48-.5a1.58,1.58,0,0,1-.43.62S90.07,154.62,90.06,154.55Zm-.11-.76c0-.14.07-.29.12-.29s.11.18,0,.28-.12.1-.12,0Zm-.65-2.37a7.82,7.82,0,0,1-.76-.58,3.33,3.33,0,0,0-2.28-1c-.47,0-.49-.08-.13-.4,1-.88,2-.48,2.83,1.07.36.71.54.93.76.93s.4-.17.77-.87c.7-1.34,1.51-1.85,2.34-1.47.29.13.76.54.76.65s-.17.09-.56.11a2.07,2.07,0,0,0-1.06.28,6.52,6.52,0,0,0-1.1.75,5.35,5.35,0,0,1-.76.56A1.09,1.09,0,0,1,89.3,151.42Zm6.43-1.13c0-.07,0-.12,0-.12s.13.18.07.21-.07,0-.08-.09Zm-18.84-1.73a3.52,3.52,0,0,1-.56-6.73,1.53,1.53,0,0,0,.64-.39c.5-.67.33-1.57-.54-2.87a12.63,12.63,0,0,0-3.16-3.41c-.34-.22-1.13-.69-1.76-1a9.68,9.68,0,0,1-3.63-2.84c-.41-.52-.65-.73-.82-.73a1,1,0,0,0-.38.24,3.79,3.79,0,0,0-.86,1.87,3.52,3.52,0,0,1-.19.7s0-.24,0-.63a7.16,7.16,0,0,1,3-5.34,10.13,10.13,0,0,1,2.85-1.29c.7-.24,1.44-.52,1.63-.62a7,7,0,0,0,2.82-2.75,9.28,9.28,0,0,0,.65-1.77s-.09,0-.2.11-.23.18-.29.14,0-.13.25-.41.35-.39.38-.69a1,1,0,0,0,0-.37,4.16,4.16,0,0,0-.66.62c-.45.47-.66.65-.74.63s0-.16.52-.67c.67-.69.69-.72.25-.77-.18,0-.26,0-.84.62-.4.4-.68.63-.74.62s.06-.19.49-.65.59-.64.59-.65a.68.68,0,0,0-.26-.06l-.26,0-.66.65c-.5.5-.68.64-.77.61s0-.15.49-.64a6.54,6.54,0,0,0,.6-.65s-.14,0-.32,0h-.32l-.59.63c-.48.5-.62.62-.71.58s0-.12.45-.61a6.09,6.09,0,0,0,.57-.61s-.15,0-.33,0h-.33l-.57.59a2.33,2.33,0,0,1-.69.59c-.1,0,0-.13.41-.56.57-.6.59-.67.16-.67-.19,0-.29.07-.84.62s-.66.62-.73.6,0-.16.43-.59l.54-.57h-.66l-.55.55c-.4.4-.59.56-.71.56s-.09-.06.37-.52l.52-.52h-.66l-.57.55c-.4.39-.61.56-.71.56s-.08-.07.34-.49c.27-.27.46-.49.41-.49l-.47.1c-.37.09-.42.13-.8.55s-.45.46-.59.48l-.19,0,.32-.33c.18-.18.31-.34.29-.36s-.7.41-1.06.79l-.36.38.17-.34c.67-1.3,2.33-1.88,5.58-2a17.51,17.51,0,0,1,4.13.33l.16,0,0-.67c0-.37.07-1.27.1-2,.12-2.58.21-2.41.34.6.05,1.19.11,2.18.14,2.2a8.24,8.24,0,0,0,.81.27,22.41,22.41,0,0,1,3.36,1.35,12.51,12.51,0,0,1,5.8,5.06,10.58,10.58,0,0,1,1.17,2.36c-.09-.12-.1-.12-.26,0a.41.41,0,0,1-.29.13c-.1,0-.08-.06.12-.26l.23-.24-.14-.19c-.07-.1-.16-.19-.19-.19a1.39,1.39,0,0,0-.31.31c-.14.17-.31.31-.37.31s-.12,0-.12,0a2.48,2.48,0,0,1,.35-.39c.36-.36.38-.43.18-.7s-.11-.1-.6.38-.53.49-.59.45,0-.18.44-.6.52-.55.44-.67l-.14-.2c0-.05-.24.11-.67.55s-.65.62-.73.59,0-.16.55-.71l.67-.67L87,126a.64.64,0,0,0-.19-.19,9.46,9.46,0,0,0-.75.73c-.49.51-.73.72-.79.68s.12-.26.63-.81a7.07,7.07,0,0,0,.71-.82.63.63,0,0,0-.12-.21l-.12-.15-.83.83c-.66.66-.84.81-.91.75s.09-.25.75-.9l.82-.82-.14-.19a.67.67,0,0,0-.18-.19s-.42.4-.89.9c-.68.72-.86.88-.93.82s.07-.23.78-1a11.27,11.27,0,0,0,.86-.94.55.55,0,0,0-.16-.2l-.16-.15-.92.92c-.63.63-.94.9-1,.86s.22-.36.83-1,.89-.95.89-1a.7.7,0,0,0-.19-.17l-.19-.13-.9.93c-.83.86-1.07,1.05-1.07.85a8.57,8.57,0,0,1,.89-1,9.9,9.9,0,0,0,.89-1,.54.54,0,0,0-.18-.2l-.18-.14-.93,1c-.67.69-1,1-1,.92s.13-.27.82-1a11.74,11.74,0,0,0,.92-1s-.08-.11-.17-.16l-.17-.1-1,1c-.75.74-1,.94-1,.88s.13-.28.87-1l.94-.95-.18-.13a.83.83,0,0,0-.24-.13,12.43,12.43,0,0,0-1,.94c-.73.76-.92.93-1,.87s.1-.26.84-1l.92-.93-.18-.12a.77.77,0,0,0-.25-.12,9.91,9.91,0,0,0-.95.89c-.59.6-.91.88-1,.85s.19-.33.8-1l.89-.93-.21-.12-.21-.12-.89.89c-.71.71-.91.87-1,.81s.1-.25.78-.94a9.86,9.86,0,0,0,.83-.89l-.24-.13-.21-.11-.83.87c-.66.69-.85.86-.93.81s0-.19.56-.72l.83-.86.18-.2-.23-.11-.23-.11-.83.83c-.59.59-.85.81-.9.76s.16-.3.71-.88l.78-.81-.22-.09-.25-.09s-.37.35-.79.78c-.6.61-.79.77-.87.73s0-.17.65-.8c.47-.47.74-.78.7-.82a1,1,0,0,0-.26-.12c-.2-.07-.2-.06-.85.62a5.62,5.62,0,0,0-.65.75,8.4,8.4,0,0,0,.63,1.46,12.44,12.44,0,0,0,1.21,1.7,13.07,13.07,0,0,0,2.52,2c2.69,1.88,3.35,2.51,4.06,3.91a3.5,3.5,0,0,1,.5,2.49c-.21.56-1.21,1.31-2.81,2.1a34.93,34.93,0,0,0-4.46,2.57,3.39,3.39,0,0,0-1.63,2.25c-.07.79.19,1.17,1.07,1.6a3.49,3.49,0,0,1,1,5.67,3.24,3.24,0,0,1-2.93,1Zm9.16-15c.48-.24.56-.54.27-1s-.36-.47-1.2-1.07a5,5,0,0,1-1.65-1.92,7.19,7.19,0,0,0-1.63-1.78c-2-1.43-5.76-2-8.89-1.27a13.44,13.44,0,0,0-4.76,2.19c-1.15.83-1.25,1-.54,1a1.54,1.54,0,0,1,.57.09,13,13,0,0,1,1.12,1.06,6.8,6.8,0,0,0,2.1,1.7c.48.18.81.13,1.83-.27,2.7-1.08,4.89-1.11,8.7-.13,1.56.4,2,.58,2.48,1.05a3.44,3.44,0,0,0,.56.46,1.6,1.6,0,0,0,1-.12Zm-1-.37c-.12-.07-.42-.26-.65-.43a7.93,7.93,0,0,0-3.1-1.23,12.66,12.66,0,0,0-8.28.36,6.75,6.75,0,0,1-.87.29,1.68,1.68,0,0,1-1.07-.36,17.12,17.12,0,0,1-2.14-2.14c-.22-.42.14-.18,1.31.91a11,11,0,0,0,1.2,1c.39.2.71.17,1.54-.16l.75-.29.19-.06.16-.06-.18-.26a4.13,4.13,0,0,1-.56-3.35,3.18,3.18,0,0,1,.17-.53,13.81,13.81,0,0,1,2.14-.27,9,9,0,0,1,1.54.06,9.65,9.65,0,0,1,3.29.78l.52.24,0,.82a3.6,3.6,0,0,1-.5,2c-.21.35-.21.35-.08.38a19.11,19.11,0,0,1,3.15.93,9.32,9.32,0,0,1,1,.62,9,9,0,0,0,.91.56l.22.09-.14.12c-.18.15-.23.15-.51,0Zm-5.28-2.82a2.69,2.69,0,0,0,.6-1.78v-.5l-.27-.07-.31-.07a1.3,1.3,0,0,0,0,.42,2.84,2.84,0,0,1-.65,1.86l-.17.15.3.07.33.08a.62.62,0,0,0,.19-.16Zm-.94-10.06s-.1-.08-.23-.12l-.23-.07-.39.38c-.38.37-.39.39-.35.63a1.47,1.47,0,0,0,.08.3,6.64,6.64,0,0,0,1.12-1.13Zm-.74-.25a.63.63,0,0,0-.27-.1c-.33-.07-.36,0-.3.39l0,.28.27-.26a1.69,1.69,0,0,0,.27-.3Zm23.38,28.49A3.54,3.54,0,0,1,99,146.72a3.17,3.17,0,0,1-.37-1.64,3.46,3.46,0,0,1,2.14-3.2,1.35,1.35,0,0,0,.94-1.5c-.1-1.39-1.5-2.51-6.06-4.85-2.2-1.13-2.93-1.78-2.93-2.63a6.13,6.13,0,0,1,1.08-2.8c.58-.88,1.49-1.65,3.86-3.28.58-.4,1.25-.89,1.49-1.09a9.24,9.24,0,0,0,2.46-3.51c.07-.2.1-.35.08-.35a.8.8,0,0,0-.23.19,2.33,2.33,0,0,1-.46.34l-.28.16.15-.17.57-.61c.38-.39.42-.47.48-.79a1.31,1.31,0,0,0,0-.39s-2.79,2.75-3.19,3.21a10,10,0,0,1-1.29,1.05c-.1.07,3.61-3.75,4.22-4.34.23-.22.34-.39.34-.48s0-.14-.09-.11l-.33.1c-.2.05-.67.51-3.11,3-3.23,3.31-4,4.07-4.31,4.23s-.47.36,3.73-3.93c1.62-1.66,2.93-3,2.92-3a2.24,2.24,0,0,0-.5.14l-.47.17-3.65,3.73c-3.15,3.23-3.93,4-4,3.87s1.58-1.65,3.53-3.65,3.53-3.64,3.52-3.65a3.36,3.36,0,0,0-.6.25l-.58.27L94.55,125c-3.12,3.2-3.73,3.79-3.84,3.68s0-.22.13-.24,6.47-6.52,6.42-6.56a6.79,6.79,0,0,0-1.25.74,27.1,27.1,0,0,0-2.11,2,15.27,15.27,0,0,0-2.36,2.71c-.35.52-.66,1-.69,1a16,16,0,0,1,.92-1.91,12.46,12.46,0,0,1,6.08-5.55,21.58,21.58,0,0,1,3.43-1.38l.78-.23,0-.33c0-.18.07-1.14.11-2.12s.09-1.89.12-2,0-.21.09-.06.09,1.1.14,2.25.1,2.1.11,2.11l.69-.1a17.08,17.08,0,0,1,3.59-.23c2.53.06,4.15.44,5,1.17a2.81,2.81,0,0,1,.71,1c.05.14,0,.11-.24-.16s-.32-.32-.38-.26a.38.38,0,0,1-.23.08h-.15l.14-.15.14-.15-.17-.13c-.22-.17-.28-.17-.52.09a.71.71,0,0,1-.33.21c-.1,0-.08,0,.1-.26a1.54,1.54,0,0,0,.22-.3s-.29-.18-.39-.18a1.85,1.85,0,0,0-.44.37c-.32.32-.59.47-.59.33a2.52,2.52,0,0,1,.35-.4c.19-.2.33-.37.31-.39a.87.87,0,0,0-.25-.09c-.21,0-.23,0-.7.44s-.53.49-.64.49-.1-.06.33-.49a3.31,3.31,0,0,0,.46-.52l-.31-.07-.29,0-.51.56c-.39.42-.55.56-.67.56s-.1-.06.38-.54a2.46,2.46,0,0,0,.5-.59.82.82,0,0,0-.33,0c-.27,0-.3,0-.9.61-.87.86-1.11.9-.33.06l.6-.64-.29,0-.29,0-.75.75c-.52.52-.79.74-.87.73s0-.17.55-.71c.36-.38.66-.7.66-.71a1.14,1.14,0,0,0-.32,0l-.32,0-.83.82a4.3,4.3,0,0,1-1,.87c-.16,0-.06-.09.63-.78a10.27,10.27,0,0,0,.82-.88s-.16,0-.35,0l-.35,0-1,1.06-1,1.06.1.31a7.09,7.09,0,0,0,3.33,3.79c.14.07.84.33,1.54.57a8,8,0,0,1,3.78,2.08,7.15,7.15,0,0,1,2,3.75,5.24,5.24,0,0,1,.07,1.43s-.09-.33-.18-.71c-.32-1.41-.93-2.3-1.43-2.07a3.84,3.84,0,0,0-.62.67,9.47,9.47,0,0,1-3.68,2.88,13.56,13.56,0,0,0-2.41,1.52,14,14,0,0,0-3.14,4.12,1.93,1.93,0,0,0,0,1.49c.17.29.19.3,1,.68a3.51,3.51,0,0,1,1.64,4.77,4.12,4.12,0,0,1-1.53,1.52,3.37,3.37,0,0,1-2.1.31Zm-7-14.86a2.25,2.25,0,0,0,.51-.39c.57-.55.95-.71,2.62-1.14,3.76-1,5.95-.92,8.62.15a7.29,7.29,0,0,0,1.15.37c.7.08,1.4-.37,2.84-1.84a8,8,0,0,1,1.17-1.07,3.88,3.88,0,0,1,.52-.05c.3,0,.37,0,.39-.13s0-.11-.74-.69a12.52,12.52,0,0,0-7.78-2.68,12.28,12.28,0,0,0-5,.94,6.2,6.2,0,0,0-3,2.85,4,4,0,0,1-1.39,1.49c-1.53,1.06-1.76,1.77-.7,2.15a1.17,1.17,0,0,0,.8,0Zm-.43-.43c-.13-.08-.14-.24,0-.24a4.55,4.55,0,0,0,.77-.46,12.41,12.41,0,0,1,1.09-.67,15.89,15.89,0,0,1,3.26-1c.13,0,.13,0-.08-.44a3.9,3.9,0,0,1-.49-1.95l0-.78.38-.19a9.73,9.73,0,0,1,3.46-.84,7.73,7.73,0,0,1,1.88,0c.51,0,1.13.11,1.36.15l.43.07.14.46a4.39,4.39,0,0,1,0,2.23,4.77,4.77,0,0,1-.64,1.33l-.13.14.17.06.2.06.75.28c1.22.48,1.38.43,2.79-.88.88-.82,1.27-1.12,1.34-1s-.35.57-1.22,1.42-1.46,1.27-1.89,1.27a5.3,5.3,0,0,1-1-.31,11.61,11.61,0,0,0-5.16-.85,20.33,20.33,0,0,0-4.63.92,5,5,0,0,0-1.6.8c-.75.55-.9.62-1.13.49Zm11.14-3.2a2.85,2.85,0,0,0,.25-2.07c-.11-.42-.17-.47-.64-.47h-.17l.08.26a2.74,2.74,0,0,1-.44,2.52c-.23.21-.19.29.14.31s.53-.11.78-.56Zm-.45-10.64s-.16,0-.35,0c-.35,0-.36,0-.92.63s-.56.62-.53.75c.09.42.05.44,1-.46a11,11,0,0,0,.86-.91Zm-1.47.53a2.71,2.71,0,0,0,.36-.39,3.6,3.6,0,0,0-.84.15,1.83,1.83,0,0,0,.09.6A3,3,0,0,0,103.22,120ZM84.74,147.89a4.25,4.25,0,0,1,1.39-1.51c.26-.13.44-.31,1-1l.72-.89,0-.3c0-.16,0-.3,0-.31s-.33.38-.71.85-.73.88-.76.9,0,0,0-.14a7.34,7.34,0,0,1,.77-1.07c.69-.85.73-.92.73-1.17v-.27l-.49.52c-.62.66-.55.4.11-.38.35-.41.45-.57.45-.72s0-.19,0-.19a1.26,1.26,0,0,0-.28.23l-.24.23.07-.18a1.52,1.52,0,0,1,.27-.4l.2-.22.08-2a8.88,8.88,0,0,1,.18-2.41c0,.46.13,4.86.14,7.14,0,2.66,0,2.86-.1,3l-.11.17-.19-.24c-.1-.13-.3-.36-.44-.5-.66-.66-1.49-.41-2.43.76-.53.65-.54.66-.27.14Zm3.25-1c0-.17-.05-.19-.13-.11s-.07.12,0,.25.19.12.14-.14Zm-.15-.4c.13-.13.14-.18.09-.44l-.05-.29-.27.32c-.26.31-.26.32-.16.44s.22.15.39,0Zm-.31-.63c.35-.4.38-.47.38-.72s0-.28-.05-.28a13.33,13.33,0,0,0-1.12,1.38.81.81,0,0,0,.38.08A4.23,4.23,0,0,0,87.53,145.87Zm7.2,2.19a5.67,5.67,0,0,0-1.33-1.29,1.23,1.23,0,0,0-1.61.46,3.69,3.69,0,0,1-.29.37c-.09.09-.11.09-.2,0s-.1-.48-.08-3.94a60.54,60.54,0,0,1,.14-6.21c.15.26.26,6.45.17,8.69l0,1.08.14-.23a1.43,1.43,0,0,1,.63-.62,1.34,1.34,0,0,1,1.14,0,4,4,0,0,1,1.26,1.35c.31.52.37.76.07.31ZM80.82,170.55l.46-.46-.18-.15a1.13,1.13,0,0,0-.22-.15,5.15,5.15,0,0,0-.49.46l-.46.47.19.15a1,1,0,0,0,.22.15A5.12,5.12,0,0,0,80.82,170.55Zm5.11-.12.52-.52-.25-.12-.25-.12-.54.54-.54.54.18.1a.83.83,0,0,0,.27.1,2.77,2.77,0,0,0,.61-.52Zm-.74-.29c.26-.28.48-.53.49-.55s-.07-.09-.18-.15l-.2-.1-.55.54-.55.54.2.11a1.13,1.13,0,0,0,.26.11A3.5,3.5,0,0,0,85.19,170.14Zm-5,0a3.33,3.33,0,0,0,.45-.5.75.75,0,0,0-.32-.29,4.64,4.64,0,0,0-.51.48l-.47.48.17.14a1,1,0,0,0,.2.14,5.33,5.33,0,0,0,.48-.45Zm4.85-.92a.85.85,0,0,0-.23-.15l-.2-.1-.51.55a6.7,6.7,0,0,0-.51.58.54.54,0,0,0,.2.13l.2.1.54-.53A2.65,2.65,0,0,0,85,169.22Zm-5.41.49a2.8,2.8,0,0,0,.45-.51s-.08-.13-.18-.2l-.18-.13-.49.49-.49.49.17.15a.79.79,0,0,0,.21.15,4.05,4.05,0,0,0,.49-.45Zm-1.51.33c.1,0,.1-.06,0-.19l-.16-.15-.15.14a.56.56,0,0,0-.15.2c0,.06.36.06.51,0Zm-.62-.25c.22-.22.22-.24.12-.33s-.27-.2-.61.14a2.12,2.12,0,0,0-.33.38s.13,0,.3,0A.56.56,0,0,0,77.51,169.79Zm23.91.14c.12-.14,0-.17-.09,0s-.08.12,0,.12a.25.25,0,0,0,.14-.09Zm-24.64-.4.43-.44-.17-.15a.73.73,0,0,0-.23-.15,6.38,6.38,0,0,0-1,1,2.28,2.28,0,0,0,.47.13A3.82,3.82,0,0,0,76.78,169.53Zm7.11-.07a3.72,3.72,0,0,0,.51-.57s-.09-.11-.2-.17l-.2-.11-.55.55-.55.55.21.13.24.13a6.77,6.77,0,0,0,.54-.51Zm-7.79-.23a4.91,4.91,0,0,0,.53-.61.55.55,0,0,0-.16-.2l-.16-.15-.68.67a3.72,3.72,0,0,0-.63.72.88.88,0,0,0,.42.11C75.52,169.78,75.73,169.6,76.09,169.23Zm3,0,.45-.5-.17-.17-.17-.16-.51.51-.51.51.19.15a1,1,0,0,0,.22.15A4.35,4.35,0,0,0,79.1,169.22Zm-3.65-.38.7-.72L76,168a.55.55,0,0,0-.2-.15,22.68,22.68,0,0,0-1.64,1.67s0,.06.12.08c.36.07.44,0,1.16-.71Zm7.78.23c.28-.29.52-.55.53-.57s-.07-.1-.18-.16l-.19-.11-.55.54-.55.54.2.14.21.14Zm-7.75-1.63-.18-.19-.45.45c-.25.25-.7.72-1,1l-.55.6.27.06.26.06.92-.91.92-.91Zm-1.44.8a15,15,0,0,0,1-1.13s0-.14-.12-.21l-.14-.13-1.17,1.17a6.78,6.78,0,0,0-1.11,1.23.93.93,0,0,0,.44.12A10.38,10.38,0,0,0,74,168.24Zm4.51.51.48-.48-.19-.18-.19-.18-.48.52-.48.52.13.14a.44.44,0,0,0,.2.14A3.08,3.08,0,0,0,78.56,168.75Zm4.12-.11.52-.53L83,168a1.06,1.06,0,0,0-.22-.15,8.86,8.86,0,0,0-1,1.09.86.86,0,0,0,.37.27A6.52,6.52,0,0,0,82.67,168.64ZM64.21,169a48.7,48.7,0,0,0,3.5-3.45c1.82-1.86,3.3-3.4,3.3-3.42a.85.85,0,0,0-.14-.22l-.14-.18-3.57,3.65c-2,2-3.58,3.68-3.6,3.71S63.9,169.06,64.21,169Zm9.22-1.12,1.2-1.24-.13-.17c-.07-.09-.16-.17-.2-.17s-2.68,2.67-2.68,2.74.06,0,.14.06c.38.08.43,0,1.67-1.22Zm-.7-.31,1.43-1.45L74,165.9a.7.7,0,0,0-.18-.18s-3,3.05-3.06,3.14.07.07.19.08l.27,0a20.47,20.47,0,0,0,1.5-1.44Zm-7.33,1.23a39.55,39.55,0,0,0,3.08-3c1.61-1.65,2.93-3,2.94-3a.57.57,0,0,0-.14-.22l-.15-.19-.43.43c-2.33,2.36-5.93,6.07-5.93,6.11s.17,0,.62-.07Zm5.89-.78,1.63-1.66.76-.78-.14-.19c-.08-.11-.16-.19-.19-.18s-3.46,3.5-3.46,3.56.09.07.2.08l.26,0A8.35,8.35,0,0,0,71.29,168Zm7.18-.2a.51.51,0,0,0-.16-.21l-.16-.15-.49.49a3,3,0,0,0-.49.56s.08.13.17.2l.17.13.48-.48A3.17,3.17,0,0,0,78.48,167.77Zm-7.11-.89c1-1,1.8-1.88,1.8-1.93a.44.44,0,0,0-.14-.22l-.14-.13-2,2c-1.07,1.1-2,2-2,2s.18.09.4.09S69.77,168.52,71.37,166.89Zm-2.57-.45,2.63-2.7.45-.47-.15-.2-.15-.2L69,165.51l-2.83,2.9-.24.26h.68l2.18-2.24Zm1.89.11c1.13-1.15,2-2.12,2-2.14a.73.73,0,0,0-.14-.21l-.14-.16-1.39,1.41c-3.23,3.29-3.11,3.15-2.95,3.19C68.58,168.72,68.53,168.76,70.69,166.54Zm-.7-.31,2.33-2.37-.13-.19c-.07-.1-.15-.19-.18-.19s-3,3-4.41,4.49l-.61.63h.68L70,166.24ZM51.37,164.8a23.18,23.18,0,0,0-3,2.92,6.5,6.5,0,0,0-.59.74C47.76,168.51,51.28,164.95,51.37,164.8Zm26.49,2.3c-.08-.09-.18-.15-.21-.14a4.66,4.66,0,0,0-.54.51l-.48.5.17.17.17.17.52-.52.52-.52Zm-.49-.49a.52.52,0,0,0-.21-.16,3.29,3.29,0,0,0-.56.49l-.49.49.18.19.18.19.52-.52.52-.52-.15-.16Zm-.85.13.47-.52-.17-.16-.17-.16-.52.52-.52.52.15.16a.52.52,0,0,0,.21.16,3.14,3.14,0,0,0,.54-.52Zm-.51-.5.52-.52-.18-.19-.18-.19-.33.33c-.18.18-.42.43-.52.56l-.19.23.14.15a.62.62,0,0,0,.18.15,6.16,6.16,0,0,0,.56-.52Zm-.17-.85.19-.23-.15-.18-.15-.18-.55.55-.54.55.18.19.18.19.33-.33C75.5,165.76,75.73,165.51,75.84,165.39Zm-.79-.22.54-.54-.17-.21-.17-.2-.53.58-.53.58.13.16a.71.71,0,0,0,.16.17,5.85,5.85,0,0,0,.57-.54Zm-.46-.52a4.16,4.16,0,0,0,.51-.56.82.82,0,0,0-.13-.24l-.13-.19-.55.54a4.35,4.35,0,0,0-.55.6.84.84,0,0,0,.3.34,6.1,6.1,0,0,0,.54-.51Zm.06-1.15a.52.52,0,0,0-.12-.22l-.14-.18-.55.57c-.3.31-.55.57-.55.59a1.43,1.43,0,0,0,.14.21l.14.19.54-.56C74.38,163.79,74.63,163.52,74.64,163.5Zm-1,0a3.89,3.89,0,0,0,.54-.6c0-.08-.22-.34-.29-.34a4.84,4.84,0,0,0-.6.55l-.55.55.14.19a.63.63,0,0,0,.18.19A5.91,5.91,0,0,0,73.68,163.51Zm-.42-.6.54-.59-.11-.19a.55.55,0,0,0-.14-.19,7.76,7.76,0,0,0-.61.58l-.58.58.14.19c.08.11.16.19.18.19a5.67,5.67,0,0,0,.58-.58Zm.16-1.2a1,1,0,0,0-.15-.22l-.15-.19-.41.4c-.23.22-.49.5-.59.63l-.18.23.14.19.14.19.6-.6A8.66,8.66,0,0,0,73.42,161.7ZM108,160.14l2.53-2.58.29-.62a4.09,4.09,0,0,0,.27-.64s-1,1-2.23,2.23a16.89,16.89,0,0,0-2.64,2.95c-.24.38-.51.79-.6.91-.22.28-.28.39-.21.36S106.6,161.56,108,160.14Zm-35.58,1.59c.3-.32.55-.61.56-.64a.52.52,0,0,0-.1-.24l-.11-.19-.64.64-.64.64.14.19c.08.11.16.19.19.19A5.47,5.47,0,0,0,72.41,161.73Zm-.38-.64.61-.62-.12-.22c-.06-.12-.14-.22-.16-.22a13.51,13.51,0,0,0-1.22,1.29c0,.06.17.37.23.37A7.81,7.81,0,0,0,72,161.09Zm-.38-.62a5.58,5.58,0,0,0,.59-.68.93.93,0,0,0-.1-.25l-.1-.19-.68.68-.68.68.11.2c.06.11.14.2.18.2a4.51,4.51,0,0,0,.66-.62Zm-.38-.66.66-.66-.08-.19a.68.68,0,0,0-.14-.23,3.57,3.57,0,0,0-.72.67l-.66.71.11.19a.56.56,0,0,0,.14.19s.33-.3.69-.66Zm40.35-4.73a3.13,3.13,0,0,0,.2-.57s-.91.89-2,2c-2,2-2,2-2.31,2.67-.18.36-.34.67-.35.71s.94-.91,2.11-2.1l2.13-2.16.22-.55Zm-40.71,4.1a5.67,5.67,0,0,0,.66-.74.91.91,0,0,0-.1-.26l-.1-.19-.72.72-.72.72.12.22c.06.12.14.22.16.22A8.36,8.36,0,0,0,70.91,159.18Zm-.33-.71.71-.71-.1-.22c-.06-.12-.13-.22-.16-.22a8,8,0,0,0-.74.74l-.69.74.1.19c.05.1.12.19.14.19A8.89,8.89,0,0,0,70.58,158.47Zm.37-1.4a1.73,1.73,0,0,0-.1-.27l-.1-.23-.77.76c-.42.42-.77.78-.77.8a1.39,1.39,0,0,0,.13.24l.13.21.74-.73C70.62,157.44,71,157.09,71,157.07Zm-1,0,.73-.75-.08-.2a1.42,1.42,0,0,0-.12-.25,5.17,5.17,0,0,0-.8.76l-.76.81.1.22c.06.12.12.21.15.2S69.53,157.51,69.93,157.1Zm42.35-3.68a2.61,2.61,0,0,0,.17-.54s-.86.8-1.88,1.85l-1.86,1.91-.25.56a5.76,5.76,0,0,0-.25.61s.88-.84,1.94-1.93l1.94-2Zm-41.94,2.16a.9.9,0,0,0-.16-.41,13.46,13.46,0,0,0-1.56,1.59.88.88,0,0,0,.1.27l.1.19.76-.76a4.82,4.82,0,0,0,.76-.88Zm-1,0,.72-.75-.09-.23c-.05-.12-.12-.22-.14-.22a10.84,10.84,0,0,0-.82.82l-.78.82.12.24c.1.19.13.22.2.15l.8-.83Zm43.53-4a2.29,2.29,0,0,0,.15-.61s0,0,0,.05-.81.91-1.79,1.92c-1.76,1.8-1.8,1.84-2,2.33a3.65,3.65,0,0,0-.21.57s.83-.77,1.85-1.81l1.85-1.88.19-.57ZM69,155l.8-.8-.08-.25c0-.14-.09-.25-.12-.25a11.16,11.16,0,0,0-.84.8l-.8.8.08.25c0,.14.09.25.12.25A11.19,11.19,0,0,0,69,155Zm-.19-.84.72-.74-.07-.23c0-.12-.1-.23-.14-.23a19.29,19.29,0,0,0-1.64,1.69,1.65,1.65,0,0,0,.09.26c.09.22.1.22.21.11l.83-.86Zm.41-1.51a1.26,1.26,0,0,0-.07-.3l-.07-.2-.85.85c-.47.47-.86.87-.86.89a1.69,1.69,0,0,0,.1.27l.1.23.83-.83a6.05,6.05,0,0,0,.83-.93Zm42.15-.06c.92-.93,1.68-1.69,1.71-1.68a20.42,20.42,0,0,0,.94-2.94,16.05,16.05,0,0,0,.66-2.53s-.72.7-1.56,1.56c-1.63,1.67-1.56,1.58-1.83,2.51,0,.05.67-.62,1.53-1.48,1.21-1.23,1.54-1.53,1.51-1.39a12.51,12.51,0,0,1-1.62,1.81c-1.54,1.58-1.59,1.64-1.75,2.07a3.68,3.68,0,0,0-.17.54,19.22,19.22,0,0,0,1.6-1.54c1.29-1.32,1.59-1.59,1.53-1.42a13.49,13.49,0,0,1-1.71,1.9l-1.64,1.68-.17.47a2,2,0,0,0-.14.5s.76-.72,1.66-1.63c1.27-1.29,1.62-1.61,1.57-1.45a16.24,16.24,0,0,1-1.78,2c-1.64,1.68-1.72,1.77-1.87,2.17l-.2.54c0,.06,0,.11,0,.09s.8-.79,1.72-1.72Zm-43.2.17.81-.84-.08-.25a.59.59,0,0,0-.11-.25s-.41.39-.86.87l-.83.87.07.25c0,.14.1.24.12.23s.42-.4.86-.86Zm.5-1.83a.62.62,0,0,0-.11-.26s-.42.38-.89.85c-.83.83-.85.86-.78,1l.1.27c0,.06.31-.19.9-.78l.87-.87-.08-.26Zm-.93.23.75-.78-.09-.22c-.05-.12-.12-.22-.14-.22a11.11,11.11,0,0,0-.87.86c-.79.82-.81.87-.75,1l.09.26c0,.07.05.07.14,0Zm-.37-.63c.82-.82.83-.83.79-1.06a.78.78,0,0,0-.09-.28,5.22,5.22,0,0,0-.9.8l-.85.85.08.26a.61.61,0,0,0,.11.26s.41-.37.86-.83Zm.52-1.81c0-.45-.11-.4-1,.51-.46.47-.83.88-.83.91a1.19,1.19,0,0,0,.09.27l.09.22.82-.85c.74-.76.82-.87.81-1.06Zm-1,.27a4.62,4.62,0,0,0,.81-.94,1,1,0,0,0-.08-.29l-.07-.17-.85.85-.85.85.07.26c0,.14.09.26.11.26s.41-.37.86-.82Zm.53-1.81c0-.45-.11-.41-1,.51s-.82.87-.76,1l.08.26a4.16,4.16,0,0,0,.84-.77C67.33,147.46,67.41,147.35,67.4,147.16Zm-.24-.8a1.4,1.4,0,0,0-.08-.29,11.13,11.13,0,0,0-1.68,1.69,1.28,1.28,0,0,0,.07.3l.07.2.83-.84c.83-.84.83-.84.79-1.07Zm47.56-1.16c-.11.53.11-.17.32-1a89.78,89.78,0,0,0,2.28-12.7,57.08,57.08,0,0,0,.28-7.25,44.27,44.27,0,0,0-.31-6.85,21.48,21.48,0,0,0-4-10.14c-2-2.59-4.69-4.06-9.27-5-1.3-.26-4.15-.65-5.51-.74l-3.08-.21a64.92,64.92,0,0,0-6.63-.23c-1.14,0-2.48.07-3,.1l-3.58.25c-5.63.39-9.4,1.17-12.06,2.49a10.14,10.14,0,0,0-3,2.09,18.22,18.22,0,0,0-4,6.89,26.24,26.24,0,0,0-1.28,7c-.11,1.37-.11,7.4,0,8.94a77.57,77.57,0,0,0,1.46,10.72c.51,2.5.65,3,.74,3s.18.12.07.24-.08.15,0,.35.09.32.24.18.14-.1.2,0,0,.11-.1.25a.38.38,0,0,0-.13.43c0,.14.06.25.08.25a1.12,1.12,0,0,0,.24-.2c.16-.15.22-.18.28-.12s0,.13-.18.34-.29.29-.19.62l.07.24.34-.33c.27-.27.35-.32.39-.24s0,.18-.31.46l-.37.37.07.27.07.27.47-.47c.36-.35.5-.46.58-.43s0,.14-.43.58-.54.54-.49.78a1.38,1.38,0,0,0,.08.29,3.54,3.54,0,0,0,.7-.61c.43-.43.69-.65.73-.61s-.19.32-.64.8l-.7.75.07.26c0,.14.08.25.1.24s.4-.38.83-.83c.71-.72.79-.83.76-1s-.17-.66-.35-1.25a72.76,72.76,0,0,1-2.87-13.78,44.67,44.67,0,0,1-.24-5.33c0-5.81.39-8.29,1.72-11.09a17.65,17.65,0,0,1,3.42-4.88c2.33-2.33,5.13-3.5,10.4-4.35a63.45,63.45,0,0,1,10.73-.77,63.45,63.45,0,0,1,10.73.77c4.68.76,7.44,1.79,9.59,3.58a17.59,17.59,0,0,1,5.27,8.45,30.52,30.52,0,0,1,.7,7.34,62.43,62.43,0,0,1-2.84,19.18c-.29,1-.61,2.1-.71,2.4a4.17,4.17,0,0,0-.16.57s.63-.59,1.37-1.34c1.22-1.23,1.6-1.54,1.29-1.06-.06.09-.73.79-1.48,1.55L112.1,147l-.13.44a4.11,4.11,0,0,0-.13.49s.66-.61,1.46-1.42c1.18-1.2,1.45-1.44,1.42-1.29Zm-.32-1.63a4.55,4.55,0,0,1,.7-1l.26-.25,0,.18a2.1,2.1,0,0,1-.51.65C114.56,143.46,114.38,143.62,114.41,143.57ZM64.17,126c.07-.22.32-1.15.55-2.07,1.36-5.25,2.34-7.34,4.36-9.28a11.53,11.53,0,0,1,6.44-3.18,24,24,0,0,1,4.07-.1,12.85,12.85,0,0,1,7.4,2.71,13.66,13.66,0,0,1,2.23,2.29,3.19,3.19,0,0,0,.52.62,2.41,2.41,0,0,0,.46-.53,13.3,13.3,0,0,1,4.34-3.71,15.56,15.56,0,0,1,7.46-1.42,13.53,13.53,0,0,1,3.19.39,11.64,11.64,0,0,1,7.48,6,32.58,32.58,0,0,1,2.19,6.58c.47,1.83.57,2.14.67,2.17s.15-.43.08-1.39a22.51,22.51,0,0,0-3.81-11.59c-2.91-4.18-6.29-6.26-12.45-7.65a44,44,0,0,0-11.84-.94A37.16,37.16,0,0,0,79,106.11c-5.19,1.32-8.21,3.19-10.84,6.72a21.25,21.25,0,0,0-4,9.47,23.69,23.69,0,0,0-.34,3.46C63.86,126.72,63.93,126.77,64.17,126Zm25.48-14.63c.08-.11.78-.84,1.55-1.63a17.55,17.55,0,0,0,1.36-1.46l-.3-.07-.25,0-1.62,1.67a15.58,15.58,0,0,1-1.74,1.67c-.07,0-.12,0-.12,0s.71-.76,1.57-1.64,1.57-1.62,1.57-1.65-.13-.06-.29-.08l-.29,0-1.67,1.71c-1.27,1.31-1.7,1.71-1.82,1.71s.17-.32,1.52-1.71l1.67-1.71-.32,0-.32,0-1.68,1.71a10.37,10.37,0,0,1-1.8,1.69c-.09,0,.25-.4,1.51-1.69.89-.92,1.63-1.69,1.63-1.72s-.15,0-.35,0-.37,0-.66.36a39,39,0,0,1-3.05,3A15.07,15.07,0,0,1,88,108.94a9.39,9.39,0,0,0,.81-.86s-.16,0-.35,0l-.35,0-1.53,1.58a21.73,21.73,0,0,1-1.62,1.58.08.08,0,0,1-.09-.08,15.7,15.7,0,0,1,1.24-1.31c.68-.68,1.32-1.34,1.43-1.47l.19-.24-.37,0-.37,0-1.42,1.46c-1.1,1.13-1.45,1.45-1.53,1.42s.15-.31,1.19-1.38c.72-.73,1.29-1.35,1.28-1.36a1.59,1.59,0,0,0-.41.05l-.38.08-1.19,1.22a6.77,6.77,0,0,1-1.32,1.22c-.1,0,.11-.26.93-1.11.59-.61,1.08-1.14,1.09-1.16s-.16,0-.37,0c-.38.09-.39.09-1.41,1.1-.69.69-1,1-1.1,1s.18-.32.79-.95.86-.91.86-.93a1.19,1.19,0,0,0-.35,0c-.35.06-.37.07-1.16.85s-1,.93-1,.75a8.59,8.59,0,0,1,.69-.75l.69-.7-.4,0-.4,0-.59.62c-.46.49-.61.61-.7.57s0-.12.4-.56a3.48,3.48,0,0,0,.48-.54,1.48,1.48,0,0,0-.39,0c-.34,0-.39.08-.74.42-.5.5-.76.52-.28,0l.34-.35-.39,0a.74.74,0,0,0-.59.22c-.14.13-.22.17-.28.13s-.08-.07,0-.16,0-.1-.65-.07-.7,0-.59,0,1-.29,2.06-.56a22.83,22.83,0,0,0,4.55-1.51c.55-.25,1.15-.52,1.34-.58a12.5,12.5,0,0,1,4.23-.42,8.73,8.73,0,0,1,4.53,1A22.5,22.5,0,0,0,99.36,109c1.05.27,2,.52,2.06.56a4.38,4.38,0,0,1-1.38,0c-.22,0-.25,0-.63.34a2.39,2.39,0,0,1-.46.38l-.17,0c-.06,0,.07-.14.29-.37a2.26,2.26,0,0,0,.37-.43,1.48,1.48,0,0,0-.32-.06l-.29,0-.56.61c-.48.52-.77.74-1,.74a8.16,8.16,0,0,1,.64-.68c.7-.71.71-.71.26-.76-.23,0-.25,0-1,.8a4.76,4.76,0,0,1-1,.86c-.14,0,0-.12.61-.78.43-.46.79-.86.8-.89s-.1-.08-.23-.1l-.25,0-1,1a5.59,5.59,0,0,1-1.13,1c-.07,0,.18-.31.86-1a5,5,0,0,0,.88-1l-.29-.05c-.19,0-.26,0-1.36,1.14-.86.87-1.19,1.16-1.28,1.14s.11-.26,1-1.17A11.05,11.05,0,0,0,95.89,109a1.48,1.48,0,0,0-.3-.07l-.25,0-1.25,1.3c-1,1-1.29,1.3-1.41,1.3s0-.18,1.13-1.3c1.36-1.37,1.35-1.35.91-1.43-.19,0-.24,0-1.56,1.37-1.07,1.1-1.41,1.42-1.55,1.44s-.06-.1.76-.93c1.56-1.59,1.86-1.91,1.83-2a.88.88,0,0,0-.26-.09l-.22,0L92.23,110c-1.09,1.11-1.51,1.5-1.6,1.49s.21-.35,1.32-1.5c.79-.81,1.45-1.5,1.45-1.52s-.11-.07-.25-.1l-.25-.06-1.18,1.21-1.57,1.63a1.61,1.61,0,0,1-.51.42c-.11,0-.11,0,0-.2ZM20.83,110c.57-.59.77-.76.89-.76s.07.09-.59.76a8.56,8.56,0,0,0-.75.81s.16,0,.36,0l.35,0,.8-.83c.57-.58.86-.84,1-.87s.07.07-.58.73a5,5,0,0,0-.72.81,1.3,1.3,0,0,0,.49-.13c.43-.16.49-.22,1.39-1.14a11.81,11.81,0,0,0,1.06-1.18,4.93,4.93,0,0,0,.19-3.62,4.08,4.08,0,0,0-1.15-1.78,3.53,3.53,0,0,0-1.12-.84,4,4,0,0,0-2.23-.46,4,4,0,0,0-1.21.19,4.68,4.68,0,0,0-2.7,2.35c-.32.64-.27.64.36,0,.33-.32.58-.54.56-.47a.68.68,0,0,0,0,.18,5.57,5.57,0,0,1-.64.72c-.63.64-.64.66-.69,1s0,.35,0,.35a3.74,3.74,0,0,0,.57-.54c.42-.45.5-.51.46-.36a3,3,0,0,1-.56.73c-.51.54-.52.56-.52.85s0,.3,0,.3a4.32,4.32,0,0,0,.54-.49c.4-.41.5-.47.53-.39s-.09.24-.48.64-.52.53-.48.79a.69.69,0,0,0,.09.28,2.72,2.72,0,0,0,.56-.49c.28-.29.52-.52.53-.52s0,0,0,.1a3,3,0,0,1-.5.65c-.41.44-.49.57-.46.69.1.36.13.35.7-.21a5.46,5.46,0,0,1,.59-.54c.16,0,0,.29-.49.75l-.53.54.14.19c.07.11.16.19.19.19a4.64,4.64,0,0,0,.58-.56c.4-.43.55-.55.63-.52s0,.12-.35.52l-.59.63-.13.15.15.18.15.19.65-.65c.51-.51.66-.63.72-.57s-.06.21-.56.71l-.63.64.17.13a.66.66,0,0,0,.23.13,5.59,5.59,0,0,0,.69-.66c.5-.53.65-.65.75-.61s0,.15-.56.72l-.67.68.15.12a.51.51,0,0,0,.25.12,4.28,4.28,0,0,0,.8-.71c.45-.46.72-.69.78-.67s-.11.24-.59.76-.68.74-.68.76.1.07.22.11l.22.07.75-.75c.65-.65,1-.88,1-.7a9.46,9.46,0,0,1-.72.77c-.49.49-.69.73-.63.75a1.2,1.2,0,0,0,.52,0s.39-.37.79-.79Zm2.48-2.84a3.9,3.9,0,0,0-.43-1.49,4.59,4.59,0,0,0-3.44-2.57c-.13,0-.23-.06-.23-.08a3.82,3.82,0,0,1,.49-.5,2.52,2.52,0,0,0,.53-.6c0-.13.07-.15.31-.15a4.18,4.18,0,0,1,2.82,1.41,4.74,4.74,0,0,1,1.18,2.3c.14.7.14.76-.13.89a2.3,2.3,0,0,0-.58.57,2.93,2.93,0,0,1-.41.48s-.08-.11-.11-.27Zm.68-1.25c.41-.45-.4-2-1.49-2.88a4.11,4.11,0,0,0-1.61-.82c-.24,0-.55.24-.5.39a1.52,1.52,0,0,0,.5.31,4.9,4.9,0,0,1,2.48,2.49c.32.7.39.76.61.51Zm137.28,4.26a4.09,4.09,0,0,1,.81-.7c.08,0,.15,0,.15,0a7,7,0,0,1-.59.62,6.14,6.14,0,0,0-.59.63s.09,0,.2,0c.53-.1.68-.2,1.36-.92a5.71,5.71,0,0,1,.93-.84c.24-.12.22-.09-.27.42-.94,1-1,1-.27.54a4.76,4.76,0,0,0,1.75-5.09,4.68,4.68,0,0,0-3.55-3.33,5.37,5.37,0,0,0-2.27.15,2.68,2.68,0,0,0-.61.27c-.06.06-.12.09-.13.07s-.7.42-1.05.77a4.4,4.4,0,0,0-.83,1.12,10.49,10.49,0,0,0,.91-.84c.5-.49.79-.77.66-.62a6.87,6.87,0,0,0-.45.59,9.41,9.41,0,0,1-.81.93c-.55.56-.62.65-.7,1a3.24,3.24,0,0,0-.09.46c0,.05.21-.11.47-.37.43-.42.47-.44.43-.28a2.16,2.16,0,0,1-.5.65c-.45.46-.46.47-.46.79s0,.32,0,.32a3.36,3.36,0,0,0,.46-.42c.33-.32.42-.39.42-.29a2.07,2.07,0,0,1-.44.6c-.41.44-.43.49-.39.67a1.44,1.44,0,0,0,.07.25s.22-.13.45-.36.42-.39.46-.3-.07.22-.4.55l-.44.44.09.22c.05.12.12.23.15.23a2.83,2.83,0,0,0,.45-.4c.35-.36.5-.44.5-.28a3.44,3.44,0,0,1-.43.51l-.43.46.13.2.13.2.45-.45c.36-.36.47-.43.53-.37s0,.17-.37.52a2.87,2.87,0,0,0-.44.51.53.53,0,0,0,.16.21l.16.15.49-.5c.36-.37.51-.48.55-.42s0,.12-.1.22-.3.31-.47.51l-.31.36.16.16.16.16.55-.55c.42-.41.58-.54.66-.5s0,.14-.44.6l-.55.56.15.12a.51.51,0,0,0,.24.12,2.84,2.84,0,0,0,.61-.56,2.33,2.33,0,0,1,.64-.55c.06,0,.12,0,.12,0a5.94,5.94,0,0,1-.57.62,3.66,3.66,0,0,0-.54.6l.25.12.22.09.61-.61c.83-.83,1-.83.26,0a7.9,7.9,0,0,0-.57.66s.11.06.24.1l.24.06.67-.66c.51-.51.69-.65.78-.62s0,.15-.49.64a6.43,6.43,0,0,0-.6.64s.13,0,.3,0,.3,0,1-.67Zm2-2.8s-.07-.32-.12-.62a4.67,4.67,0,0,0-2.6-3.3,3.86,3.86,0,0,0-1.22-.35c-.13,0-.23-.05-.23-.07a6.72,6.72,0,0,1,.56-.57c.34-.32.55-.57.52-.61s0-.07.23-.07a3.23,3.23,0,0,1,1.52.41,3.64,3.64,0,0,1,1.17.88,3.84,3.84,0,0,1,.88,1.15,5,5,0,0,1,.54,1.83c0,.18,0,.24-.14.29a3.54,3.54,0,0,0-.88.92C163.43,107.5,163.35,107.54,163.31,107.42Zm.56-1.39a.66.66,0,0,0,.21-.44,4.5,4.5,0,0,0-1.2-2.13,4,4,0,0,0-2.06-1.2c-.22,0-.54.25-.49.39a3.1,3.1,0,0,0,.68.4,5,5,0,0,1,2.37,2.5c.22.53.3.62.49.49Zm-90.63-4.17c1.35-.29,1.84-.37,3.54-.59.78-.1,1.5-.22,1.6-.25a20.87,20.87,0,0,1,3.68-.37l3.76-.26c.6,0,2.22-.08,3.92-.08s3.32,0,3.92.08l3.76.26a20.87,20.87,0,0,1,3.68.37c.1,0,.82.15,1.6.25,1.69.23,2.19.31,3.54.59a7.19,7.19,0,0,0,4.18-.08c1.43-.54,2.44-1.27,5.48-4,3.89-3.49,5.38-4.6,8.11-6.06a40.46,40.46,0,0,1,15.14-4,42.09,42.09,0,0,1,4.22,0,19.1,19.1,0,0,1,9.44,3.49,14.21,14.21,0,0,1,5.08,5.9c.24.55.37.69.3.34a13.85,13.85,0,0,0-.57-2c-1.23-3-4.86-6.33-9-8.35a26.43,26.43,0,0,0-9.74-2.53,45.55,45.55,0,0,0-7.09.07,76.22,76.22,0,0,0-15.69,3.63c-1.08.36-2.05.65-2.15.65s-.34-.13-.63-.8a5.71,5.71,0,0,0-.31-.65,1.22,1.22,0,0,0-.39-.19,6.15,6.15,0,0,1-1.23-.6,1.39,1.39,0,0,0-1.4.23.77.77,0,0,1-.19.16c-.1.05-.1,0,0-.14.23-.47.05-1-.55-1.6s-.79-.64-1.36-.46a4.21,4.21,0,0,0-1.58,1.18l-.7.68.57-.77c1-1.31,1.28-2,1.22-2.52a.61.61,0,0,0-.22-.46c-.23-.2-.33-.21-.74-.05a8.85,8.85,0,0,0-2,1.38L103,85.45l-.52.41.63-.64a2.45,2.45,0,0,0,.82-1.16,2.92,2.92,0,0,0,.17-.54s-.76.74-1.67,1.67a17.71,17.71,0,0,1-1.83,1.75c-.1,0-.19,0-.19,0s.62-.66,1.37-1.43c2.57-2.61,2.45-2.47,2.45-2.84,0-.18,0-.31-.05-.3s-1.11,1.11-2.41,2.44c-2.09,2.15-2.58,2.59-2.69,2.48s1.14-1.2,2.56-2.64c2.42-2.46,2.58-2.63,2.58-2.84,0-.55.08-.63-3,2.58a27.39,27.39,0,0,1-3.1,3c-.12,0,.26-.41,1.91-2.1l3.1-3.18,1-1.08-.07-.25c0-.14-.1-.24-.13-.23s-1.56,1.56-3.39,3.44a36.71,36.71,0,0,1-3.5,3.44c-.14,0-.06-.09.55-.71,4.77-4.86,6.29-6.44,6.28-6.54a1,1,0,0,0-.08-.29l-.08-.18-3.79,3.88c-2.08,2.13-3.83,3.9-3.87,3.93a.28.28,0,0,1-.18,0c-.08,0,3.54-3.78,7.12-7.4l.65-.66-.11-.22c-.06-.12-.13-.21-.16-.2s-1.89,1.93-4.13,4.26c-2.78,2.88-4.12,4.24-4.21,4.24s-.12,0-.11-.06,1.9-2,4.21-4.38l4.18-4.33-.08-.2a1.3,1.3,0,0,0-.12-.25s-2,1.94-4.35,4.36c-3.36,3.44-4.32,4.4-4.39,4.34s.16-.32,1-1.22C101,80.25,103,78.19,103,78.15a.65.65,0,0,0-.11-.25l-.12-.21-1.62,1.65-4.3,4.41c-1.48,1.51-2.7,2.76-2.73,2.76-.27,0,.41-.69,4.24-4.61,2.36-2.41,4.29-4.4,4.28-4.43a1.27,1.27,0,0,0-.11-.25l-.11-.21-4.1,4.19c-2.25,2.31-4.1,4.19-4.11,4.18s.45-.73,3.28-3.63l4-4.11.8-.82-.1-.22c-.06-.12-.13-.21-.16-.2s-1.77,1.78-3.86,3.92l-3.82,3.9a.52.52,0,0,1,0-.18c0-.13,1.13-1.29,3.82-4L102,76.17l-.13-.22a1.49,1.49,0,0,0-.14-.22L99.48,78c-4.67,4.79-5.09,5.2-5.09,5A48.33,48.33,0,0,1,98,79.21l3.61-3.69-.11-.19c-.06-.1-.14-.19-.17-.19s-1.61,1.59-3.51,3.53c-2.74,2.8-3.46,3.51-3.47,3.4s.23-.39,1-1.19l3.43-3.51c2.54-2.6,2.48-2.52,2.25-2.84-.07-.1-.35.17-3,2.9-3.78,3.87-3.69,3.78-3.69,3.61a31.81,31.81,0,0,1,2.82-3l3.25-3.33.43-.45-.11-.22c-.06-.12-.13-.21-.15-.2s-1.41,1.41-3.07,3.11-3,3.09-3,3.08.43-.71,3-3.35c1.61-1.65,2.94-3,2.94-3.1a.43.43,0,0,0-.11-.25l-.12-.15-.46.46L97.41,76a14.41,14.41,0,0,0-2,2.28,7.06,7.06,0,0,1-.86,1.33c-.09,0-.05-.22.23-1.37,1-3.92.83-5.73-.77-11.06a40.53,40.53,0,0,1-1.6-7c-.31-2.37-.2-3.49.48-4.81.52-1,1.05-1.64,3.49-4.07,2.92-2.91,3.23-3.33,3.83-5.25a12.5,12.5,0,0,1,.47-1.28,10,10,0,0,1,1.07-1.6l.22-.25-.12.25a2.5,2.5,0,0,0-.29,1.22,2.26,2.26,0,0,0,.82,1.18,16,16,0,0,0,3.87,1.94,14.35,14.35,0,0,1,2.45,1.25c2.06,1.4,3.21,3.51,4.89,8.93a57.24,57.24,0,0,1,2.83,13c.13,1.43.22,1.65.18.43-.22-6.69-.42-9.22-.92-11.91a37.67,37.67,0,0,0-4.51-12.34A27.38,27.38,0,0,0,104.8,40c-2.67-1.89-4.72-2-7.79-.42a31.16,31.16,0,0,0-3.61,2.19l-1.57,1L90.63,44c-.66.67-1.62,1.58-2.13,2l-.93.82.65-.67,1.51-1.55a8.94,8.94,0,0,0,.81-.88,17.38,17.38,0,0,0-1.73,1.27c-.62.48-1.62,1.48-6,6-3.71,3.8-5.35,5.53-5.57,5.85a8.13,8.13,0,0,0-.78,1.32s.39-.34,3.5-3.52c.9-.92,1.6-1.62,1.57-1.57a32,32,0,0,1-3.23,3.56l-2.38,2.43-.32.63a5.61,5.61,0,0,0-.32.69s.85-.8,1.88-1.85C78.72,57,79,56.71,78.81,57a27.44,27.44,0,0,1-2.07,2.26c-1.78,1.82-1.85,1.91-2.09,2.41a3.43,3.43,0,0,0-.24.61,22.07,22.07,0,0,0,1.7-1.64c1.38-1.4,1.67-1.67,1.56-1.45a18.92,18.92,0,0,1-1.84,2L74.12,63l-.2.52a2.72,2.72,0,0,0-.17.54s.73-.7,1.58-1.58,1.57-1.59,1.59-1.58-.31.57-1.72,2l-1.62,1.66-.16.48a2.21,2.21,0,0,0-.14.51s.73-.69,1.6-1.57c1.28-1.3,1.56-1.55,1.48-1.36a13.84,13.84,0,0,1-1.69,1.86l-1.6,1.62-.1.41c-.11.43-.09.57.05.38s.74-.78,1.54-1.59C75.66,64.19,76,63.86,76,64s-.19.35-2,2.21L72.7,67.5l-.08.39a1.33,1.33,0,0,0,0,.42s.72-.68,1.57-1.54,1.54-1.55,1.55-1.52-.2.44-1.66,1.94L72.44,68.8l-.07.36a1.13,1.13,0,0,0,0,.4s.72-.67,1.57-1.54c1.21-1.24,1.54-1.54,1.54-1.43a9.41,9.41,0,0,1-1.55,1.73c-.85.87-1.58,1.64-1.63,1.71s-.17.79-.1.76.72-.71,1.56-1.57c1.2-1.22,1.53-1.52,1.53-1.4a9.8,9.8,0,0,1-1.58,1.75L72.1,71.17l0,.38,0,.38,1.55-1.57c1.21-1.22,1.54-1.53,1.51-1.39a10,10,0,0,1-1.39,1.57l-1.54,1.57c-.17.16-.19.22-.19.51S72,73,72,73s.7-.67,1.5-1.49C74.74,70.24,75,70,75,70.11s-.31.47-1.5,1.68C72,73.33,72,73.34,72,73.61a.56.56,0,0,0,.05.3,17.49,17.49,0,0,0,1.48-1.41c1.11-1.12,1.43-1.41,1.43-1.3a9,9,0,0,1-1.45,1.62c-1.53,1.57-1.52,1.55-1.4,2,0,.13.16,0,1.4-1.26,1.09-1.13,1.36-1.38,1.38-1.27s-.3.47-1.33,1.52c-1.35,1.39-1.35,1.39-1.34,1.66a.86.86,0,0,0,0,.31,16.83,16.83,0,0,0,1.34-1.28c1.07-1.08,1.3-1.29,1.3-1.16s-.31.46-1.3,1.46c-1.28,1.29-1.3,1.31-1.26,1.51a1.48,1.48,0,0,0,.09.29c0,.06.42-.3,1.25-1.16s1.21-1.22,1.23-1.13-.29.45-1.19,1.37l-1.21,1.26.06.22a1.93,1.93,0,0,0,.09.27,11.57,11.57,0,0,0,1.15-1.1c1-1,1.12-1.13,1.14-1s-.2.36-1.1,1.27l-1.13,1.13.08.21a1.39,1.39,0,0,0,.12.25,8.57,8.57,0,0,0,1.07-1c.79-.8,1-1,1-.91a5.26,5.26,0,0,1-1,1.16,12.06,12.06,0,0,0-1,1.1.87.87,0,0,0,.1.26l.1.19.92-.95c.78-.8.92-.92.92-.79s-.2.36-.86,1a7.73,7.73,0,0,0-.86.94.89.89,0,0,0,.1.27l.1.19.83-.83c.62-.62.83-.79.83-.7a4,4,0,0,1-.77.93l-.77.81.13.22.13.22.7-.73c.6-.62.7-.71.7-.57s-.16.31-.64.8-.65.66-.65.68a1.35,1.35,0,0,0,.13.24l.13.21.57-.56a5.76,5.76,0,0,1,.61-.56c.15,0,0,.26-.51.76l-.55.57.13.2a.85.85,0,0,0,.15.2s.24-.23.52-.51c.43-.44.49-.49.5-.36s-.13.28-.44.59-.48.52-.27.79c.09.12.11.11.48-.27s.4-.37.43-.28-.06.21-.33.48l-.37.37.13.21.13.21.33-.32c.28-.27.33-.31.37-.22s0,.19-.25.41-.32.41-.07.62c.08.07.13.05.3-.11a1,1,0,0,1,.24-.19c.11,0,0,.23-.15.41l-.19.2.14.19.14.19.18-.17c.15-.14.19-.16.24-.08s0,.14-.1.25-.15.3.07.48.12.06.22,0,.23-.06.11.15-.09.18,0,.35.15.16.24.09.1-.07.14,0a.2.2,0,0,1,0,.18c-.05.06,0,.12.11.25s.21.15.25.13.09,0,.07.19a21.27,21.27,0,0,0,2,2c.44.39.42.38-.2,0s-1.45-1-3-2.22c-1-.79-1.46-1.11-1.51-1.07a.36.36,0,0,1-.22.06c-.15,0-.15,0,0-.13s.12-.13-.06-.28L74.64,84l-.5.48c-.28.26-.64.63-.8.8l-.3.32.13.19c.07.1.15.19.18.19s.08.07.12.17a2.64,2.64,0,0,0,.27.42l.19.25-.32-.29a1.62,1.62,0,0,0-.38-.29.07.07,0,0,1-.06-.08.49.49,0,0,0-.15-.23l-.16-.15-.17.17a.58.58,0,0,1-.29.17c-.1,0-.09,0,.08-.2s.24-.29,0-.48l-.16-.15L71,86.64C70,87.72,69.67,88,69.61,87.93s.22-.38,1.25-1.44l1.32-1.35L72,85a.69.69,0,0,0-.23-.11,12.39,12.39,0,0,0-1,1l-1,1,.07.19c.07.18.07.19,0,.09s-.2-.13-.44.12-.37.28-.37.17a1,1,0,0,1,.22-.26c.27-.26.27-.34,0-.47l-.19-.1-.26.26c-.19.18-.3.25-.37.22s-.08-.07.09-.24a1,1,0,0,0,.2-.24s-.13,0-.29,0a.54.54,0,0,0-.46.16c-.11.1-.21.15-.27.12s-.09-.05,0-.14.07-.1-.1-.06a2.26,2.26,0,0,0-.92.62,2.77,2.77,0,0,0-.43.89s.15-.11.3-.28.27-.29.28-.15a19.4,19.4,0,0,1-3,3.09c-.07,0,.08-.24.79-.95.48-.49.88-.9.88-.93s-.11-.08-.25-.12l-.25-.08-.84.88c-.67.7-.86.86-.94.81s.06-.22.72-.88c.45-.45.82-.84.82-.86s-.11-.08-.25-.12l-.25-.08-.8.81a3.78,3.78,0,0,1-.93.81c-.11,0,0-.09.3-.45l.82-.86.39-.41-.26-.08-.26-.08-.81.81c-.63.63-.83.8-.91.75s.06-.21.67-.82a4.21,4.21,0,0,0,.72-.83.5.5,0,0,0-.26-.11c-.22,0-.23,0-1,.75s-.77.78-.86.73,0-.17.63-.8a9.39,9.39,0,0,0,.74-.78s-.12-.08-.25-.12l-.26-.08-.73.75a5.4,5.4,0,0,1-.82.75c-.12,0-.12-.09,0-.19s.37-.38.71-.74l.62-.67-.26-.07-.26-.07-.72.71q-.93.93-.93.67a7.79,7.79,0,0,1,.68-.72,9.51,9.51,0,0,0,.68-.71s-.11-.07-.25-.11l-.25-.08-.69.72c-.57.59-.71.71-.8.67s0-.16.54-.7a5.13,5.13,0,0,0,.65-.72s-.11-.1-.25-.13l-.25-.06-.65.68c-.47.48-.68.67-.75.64s0-.13.3-.45l.64-.67.24-.26-.26-.08-.26-.08-.63.63c-.55.54-.84.75-.84.58a6.08,6.08,0,0,1,.59-.63,6.91,6.91,0,0,0,.59-.62s-.11-.07-.25-.1L58,86.66l-.6.61c-.47.48-.62.61-.71.57s0-.13.46-.62.55-.6.51-.63a.73.73,0,0,0-.28-.1c-.21,0-.23,0-.75.52s-.72.67-.72.52A5.48,5.48,0,0,1,56.4,87a4.21,4.21,0,0,0,.49-.57s-.1-.08-.23-.11l-.23-.06-.57.56c-.45.44-.59.54-.64.48s0-.18.41-.57a2.28,2.28,0,0,0,.45-.53.86.86,0,0,0-.25-.09c-.21,0-.23,0-.7.44s-.7.6-.7.44a3.39,3.39,0,0,1,.43-.48,3.53,3.53,0,0,0,.43-.47s-.12-.08-.26-.12l-.26-.07-.44.48c-.33.35-.47.47-.55.44s0-.12.31-.46a3.59,3.59,0,0,0,.41-.46s-.12-.07-.26-.11L54,85.65l-.44.43c-.32.32-.46.42-.53.38s0-.14.3-.45l.38-.4-.26-.07-.26-.07-.37.37c-.32.32-.58.46-.58.32a2.13,2.13,0,0,1,.32-.37c.18-.18.3-.34.28-.36a1,1,0,0,0-.31-.07c-.26,0-.28,0-.53.29s-.32.32-.38.32-.15-.07.16-.37c.15-.15.26-.29.25-.31a.7.7,0,0,0-.29-.08c-.25,0-.27,0-.55.24s-.58.35-.24,0l.25-.29-.28,0c-.27,0-.29,0-.54.21s-.29.24-.37.21-.08-.07.11-.25.21-.31-.15-.31a.54.54,0,0,0-.41.19c-.13.13-.23.18-.31.15s-.09-.06.06-.22l.17-.17-.14,0a.65.65,0,0,0-.64.08.38.38,0,0,1-.23.12c-.12,0-.12,0,0-.12s.1-.19-.23-.23-.29,0-.35.07a.3.3,0,0,1-.2.1c-.09,0-.11,0-.08-.13s0-.13-.43-.09c-.31,0-.46,0-.43,0s0-.06-.17-.06L45,84.49a38,38,0,0,0-6.57.34A24,24,0,0,0,27,89.51a15.06,15.06,0,0,0-5.26,6.36,10.09,10.09,0,0,0-.41,1.74,3.26,3.26,0,0,0,.43-.78,14,14,0,0,1,4.39-5.17,19.08,19.08,0,0,1,10-3.9,42.12,42.12,0,0,1,4.22,0,45.23,45.23,0,0,1,9.38,1.7,30.72,30.72,0,0,1,6.82,2.87,39,39,0,0,1,7.21,5.61c3.23,2.91,4.42,3.71,6.11,4.11a8.92,8.92,0,0,0,3.4-.16Zm4.5-1.93c.16-.16.26-.21.33-.18s.09.06-.07.22a.54.54,0,0,1-.33.18C77.52,100.15,77.52,100.15,77.75,99.93Zm.85.13a.34.34,0,0,1,.23-.09c.13,0,.14,0,.08.09a.34.34,0,0,1-.23.09c-.13,0-.14,0-.08-.09Zm-1.7-.28c.28-.28.46-.39.46-.26a1.35,1.35,0,0,1-.22.31c-.16.18-.27.26-.38.26s-.15,0,.14-.31Zm-.8-.22c.33-.38.45-.46.54-.36s-.65.76-.78.76,0-.09.24-.4ZM75,99.8c-.09,0,0-.11.34-.48a2.68,2.68,0,0,1,.53-.46c.18,0,.11.13-.31.53S75.08,99.82,75,99.8Zm-.8-.25a3.59,3.59,0,0,1,1.06-1c.05,0-.06.2-.39.55s-.59.58-.67.45Zm24.14-.22a1.09,1.09,0,0,1,.4-.25l.18,0-.24.25a.68.68,0,0,1-.4.25c-.16,0-.16,0,.06-.21Zm1.15-.13a1.43,1.43,0,0,1,.37-.34l.18,0c.06,0-.05.13-.25.34-.48.49-.73.53-.3,0Zm-2.2.18a.34.34,0,0,1,.23-.09c.13,0,.14,0,.08.09a.34.34,0,0,1-.23.09c-.13,0-.14,0-.08-.09Zm3.39-.37c.39-.4.71-.63.77-.57A5.3,5.3,0,0,1,101,99c-.33.34-.53.51-.63.51s-.06-.08.32-.47Zm-26.77-.27c.36-.39.6-.6.65-.58s.09.05.09.07a6.4,6.4,0,0,1-1.19,1.12C73.38,99.35,73.52,99.17,73.91,98.74ZM102,98.67c.53-.53.86-.79.93-.72a7.93,7.93,0,0,1-.61.68c-.47.5-.67.66-.78.66S101.47,99.21,102,98.67ZM72.74,99c-.07,0,0-.18.52-.68s.64-.6.71-.56,0,.18-.52.68S72.81,99.09,72.74,99Zm30.68-.8a8.15,8.15,0,0,1,1-.94c.21-.11.14,0-.51.67-.87.93-.84.9-1.13,1S102.73,98.94,103.42,98.24ZM72,98.75a6.34,6.34,0,0,1,1.36-1.32s-.14.27-.55.71c-.58.62-.74.74-.82.61Zm33.24-1.32a14.54,14.54,0,0,1,1.47-1.36c.33-.21.23-.1-.85,1a7.67,7.67,0,0,1-1.47,1.36c-.22.09-.12,0,.85-1Zm-33.92,1a5.12,5.12,0,0,1,.67-.79c.57-.6.71-.72.78-.66s0,.21-.63.79a9.16,9.16,0,0,1-.75.71A.1.1,0,0,1,71.3,98.44Zm-.68-.37a4.73,4.73,0,0,1,.71-.8c.6-.6.77-.74.84-.69s-.06.21-.64.8S70.72,98.17,70.62,98.07ZM70,97.75c-.07,0,.07-.22.68-.85a8.8,8.8,0,0,1,.82-.79c.16,0,0,.2-.66.91S70.1,97.8,70,97.75Zm37.49-1.66c.86-.89,1.76-1.76,2-1.93s.39-.26.34-.19-.81.86-1.69,1.75a19.63,19.63,0,0,1-1.91,1.81C106,97.68,106.22,97.43,107.52,96.09ZM83.69,97.37a13,13,0,0,1-7-2.6,29.63,29.63,0,0,1-4.6-4.64,5.9,5.9,0,0,0-.73-.8s-.08-.06-.09-.12a1,1,0,0,0-.15-.3c-.1-.14-.14-.16-.21-.1s-.26,0-.15-.16,0-.26-.15-.41-.12-.06-.25.06-.15.13-.19,0,0-.16.1-.25.13-.17.06-.24-.05-.09,0-.09a.14.14,0,0,1,.11.07s.13,0,.28-.16.24-.21.26-.11a.44.44,0,0,1-.15.3l-.17.19.19.18c.14.14.2.16.26.1s.19-.08.15.13a.31.31,0,0,0,.12.35c.09.08.15.12.15.1s0,0,.09,0,.08.1.06.13a57.37,57.37,0,0,0,4.11,4.07,12.44,12.44,0,0,0,3.71,2.24c2,.75,4,.91,7.73.61.68-.05,1.82-.1,2.53-.1s1.85,0,2.53.1A22.76,22.76,0,0,0,98,95.93c3.2-.61,5.27-2,9.25-6.23.87-.92,1.66-1.73,1.76-1.82l.19-.15L109,88c-.12.17-.4.56-.64.86a33.48,33.48,0,0,1-5.65,5.93c-2.6,2-5.88,2.83-10,2.56a39.33,39.33,0,0,0-5.27,0,26.24,26.24,0,0,1-3.77,0Zm-14.26-.05c-.06,0,.14-.28.74-.9s.83-.83.9-.76-.07.23-.74.9S69.48,97.36,69.42,97.32Zm-.6-.45a8,8,0,0,1,1.7-1.68s-.16.3-.75.91a10.52,10.52,0,0,1-.86.84A.14.14,0,0,1,68.82,96.88Zm-.55-.42a5.41,5.41,0,0,1,.8-1c.67-.71.86-.88.93-.82s-.08.24-.76.94c-.46.48-.87.88-.89.89S68.29,96.49,68.27,96.45Zm-.5-.52a6.44,6.44,0,0,1,1.75-1.75c.06.07-.11.26-.82,1S67.81,96,67.77,95.93Zm41.4-.5c.07-.1.54-.59,1-1.08.78-.77.85-.83.49-.4S108.94,95.76,109.17,95.43Zm-41.88,0c0-.08.16-.32.8-1a9.53,9.53,0,0,1,.91-.87c.17,0,0,.2-.79,1s-.89.9-.92.81Zm-.44-.58c-.06-.1.2-.41,1-1.21.54-.54.7-.66.76-.6s-.11.26-.82,1c-.56.56-.92.87-.94.83Zm-.45-.58c-.05-.06.13-.28.84-1s.92-.89,1-.85-.18.32-.62.79c-1,1.07-1.09,1.15-1.17,1.05Zm20-.27-.83-.09a17.5,17.5,0,0,1-8.14-3.26,13.81,13.81,0,0,1-2.58-2.6,6.74,6.74,0,0,1,.73.57,24.94,24.94,0,0,0,2.62,1.93,17.44,17.44,0,0,0,6.21,2.16,34.13,34.13,0,0,0,5.35.22c3.94,0,4.9-.07,6.67-.46a17.11,17.11,0,0,0,5.11-2,25.45,25.45,0,0,0,2.5-1.88,5.49,5.49,0,0,1,.64-.5,12.06,12.06,0,0,1-2.27,2.36,17.46,17.46,0,0,1-8,3.45,26.8,26.8,0,0,1-4.29.14c-1.92,0-3.58,0-3.7,0ZM66,93.66c0-.06.26-.4.83-1a12.12,12.12,0,0,1,.91-.9c.21,0,0,.27-.8,1.08-.64.64-.92.88-.95.82ZM65.62,93c0-.09.14-.3.88-1s.94-.9,1-.83-.27.41-.88,1C65.81,93,65.65,93.14,65.62,93Zm-.41-.61a6,6,0,0,1,.93-1.09c.8-.84,1-1,1-.9s-.12.29-.89,1.07c-.52.53-1,1-1,1S65.22,92.47,65.2,92.43Zm-.4-.61c-.06-.07.11-.28,1-1.17s1.08-1,1.08-.94a5.66,5.66,0,0,1-1,1.16C65,91.73,64.86,91.89,64.8,91.82Zm-.51-.56a15,15,0,0,1,1.2-1.31c1-1,1.2-1.21,1.24-1.12s-.22.38-1.12,1.29c-.64.65-1.2,1.2-1.24,1.21A.06.06,0,0,1,64.29,91.26Zm23.09-.21a10.56,10.56,0,0,1-4.24-1.13,10.42,10.42,0,0,1-1.79-1s.76.25,1.6.56,1.81.63,2.15.71a21.3,21.3,0,0,0,4,.44,18.31,18.31,0,0,0,5.46-.6,19.72,19.72,0,0,0,6.18-2.57c.95-.61,1-.62.82-.45a13.26,13.26,0,0,1-1.76,1.41A21.65,21.65,0,0,1,92.31,91a30.51,30.51,0,0,1-4.92.05Zm25.49-.13a1,1,0,0,1,.19-.23c.12-.11.12-.11.09,0a.56.56,0,0,1-.19.23C112.82,91,112.82,91,112.88,90.93ZM89.15,84a.88.88,0,0,0-.12-.34,2,2,0,0,0-.33.29c-.21.21-.32.27-.4.24s0-.11.28-.43l.39-.39-.07-.26c0-.14-.09-.25-.11-.25a5,5,0,0,0-.55.5c-.72.72-.78.57-.08-.19l.56-.61-.08-.25L88.57,82l-.68.68a5.37,5.37,0,0,1-.76.68c-.18,0,0-.2.63-.86a9.82,9.82,0,0,0,.71-.75,1.76,1.76,0,0,0-.1-.28l-.1-.24-.82.86c-.65.68-.84.85-.9.79s0-.2.51-.68c1.19-1.22,1.13-1.14,1-1.4S88,80.6,88,80.6s-.46.42-1,.94c-.72.72-1,.92-1,.87s.15-.3.9-1.06l1-1-.08-.25a.62.62,0,0,0-.12-.25s-.5.48-1.06,1.06c-.84.87-1,1.05-1.11,1s.07-.23.75-.92c1.39-1.41,1.32-1.32,1.23-1.58s-.09-.22-.12-.22-.55.51-1.18,1.14S85,81.44,85,81.4s.06-.21,1.41-1.58l.86-.87-.08-.25c0-.14-.1-.25-.12-.25s-.6.57-1.27,1.27c-1,1.05-1.24,1.25-1.31,1.19s.08-.25,1-1.16c1.64-1.66,1.54-1.54,1.46-1.81s-.09-.23-.11-.23-.66.62-1.4,1.39c-1,1-1.37,1.37-1.42,1.31s.3-.45,1.35-1.54l1.42-1.46-.07-.25c0-.14-.09-.25-.11-.25s-.71.69-1.53,1.53c-1.19,1.22-1.5,1.5-1.53,1.42s.3-.46,1.5-1.68l1.55-1.58v-.3c0-.17,0-.3-.06-.3s-.81.77-1.73,1.71C83.47,79,83.08,79.38,83,79.32s-.12,0,2.46-2.66l1.06-1.08,0-.4,0-.4-2,2c-1.54,1.57-2,2-2,1.93a14.26,14.26,0,0,1,2-2.23l2.08-2.13.13-.45a2.18,2.18,0,0,0,.11-.47s-.81.78-1.76,1.76l-2.34,2.4c-.49.5-.62.6-.66.52s.13-.28.79-1c2.22-2.25,4-4.12,4.11-4.24s.2-.79.12-.78S86,73.37,84.53,74.85a30.54,30.54,0,0,1-2.66,2.6c-.06-.1.15-.33,3-3.22l2.4-2.44,0-.28c0-.15-.06-.28-.09-.28S85.84,72.49,84.33,74c-2.17,2.23-2.74,2.78-2.76,2.68s.41-.57,1.82-2l2.76-2.84.92-1L87,70.7c-.06-.12-.12-.21-.15-.2s-1.24,1.24-2.69,2.72a32.29,32.29,0,0,1-2.71,2.64c-.08-.08.12-.31,2.9-3.14l2.42-2.47L86.61,70l-.13-.23-.78.79L83.14,73.2c-1.42,1.45-1.77,1.79-1.75,1.65a14.21,14.21,0,0,1,1.93-2.13l2.46-2.53.55-.57-.11-.21c-.06-.12-.13-.21-.15-.21s-1,1-2.29,2.32c-1.86,1.91-2.25,2.29-2.27,2.17s.23-.39,1.14-1.32l2.24-2.27L86,69l-.1-.22c-.06-.12-.13-.22-.16-.22a7.56,7.56,0,0,0-.72.69c-2.47,2.54-3.36,3.42-3.36,3.28a11.63,11.63,0,0,1,1.65-1.83c2.62-2.68,2.33-2.35,2.24-2.6s-.1-.22-.12-.22-.9.86-1.93,1.92c-1.46,1.5-1.88,1.89-1.91,1.8a12.12,12.12,0,0,1,1.87-2.06l1.9-1.95-.07-.26a.62.62,0,0,0-.1-.26s-.85.83-1.84,1.85-1.83,1.85-1.86,1.85c-.19,0,.11-.36,1.44-1.72l1.88-1.93.39-.4,0-.31,0-.31L83.23,68c-1,1-1.83,1.86-1.83,1.85s.32-.6,1.89-2.21l1.82-1.86.07-.39a1.11,1.11,0,0,0,0-.39s-.79.77-1.72,1.71c-1.35,1.37-1.67,1.67-1.59,1.48a16,16,0,0,1,1.78-2l1.68-1.73.17-.5c.09-.28.17-.52.17-.53s-.61.59-1.36,1.36c-1.17,1.19-1.32,1.33-1.1,1a20.68,20.68,0,0,1,1.5-1.69,18.37,18.37,0,0,0,1.35-1.5c.18-.34.17-.25,0,.3a7,7,0,0,0-.48,2.2c-.07,1.42.36,2.3,2,4.09a4.35,4.35,0,0,1,1.13,1.61c.18.59.12.91-.44,2.63a9.38,9.38,0,0,0-.66,3.23,10.66,10.66,0,0,0,.81,3.69c.3.92.59,1.9.65,2.17a12,12,0,0,1,.2,1.74,1.27,1.27,0,0,1-.09-.32Zm26.41,1.85c.56-.58.77-.76.91-.78s.12,0-.57.73-.82.84-.17.66c.33-.09.4-.15,1.11-.9s1-1,1.19-1a2,2,0,0,1-.4.48c-.77.8-1,1-.88,1a4.43,4.43,0,0,0,1.19-1,4.74,4.74,0,0,0-.3-6.4,4.48,4.48,0,0,0-4.58-1.11c-.46.14-.78.43-1.27,1.13a11.73,11.73,0,0,1-.94,1.07c-.7.71-.82.9-.89,1.38l0,.28.6-.59c.52-.51.59-.56.55-.4a2.82,2.82,0,0,1-.62.77l-.58.59V82c0,.18,0,.32,0,.32a5.44,5.44,0,0,0,.59-.54c.43-.43.54-.51.54-.4a2.25,2.25,0,0,1-.55.71c-.53.56-.55.59-.52.81a.55.55,0,0,0,.09.26,2.43,2.43,0,0,0,.56-.5c.42-.45.51-.52.56-.43s-.05.21-.5.67l-.56.56.09.21a1.63,1.63,0,0,0,.12.24,3.53,3.53,0,0,0,.58-.51c.42-.42.55-.52.58-.44s-.12.27-.51.67l-.55.57.1.17a1.73,1.73,0,0,0,.14.2,3.42,3.42,0,0,0,.59-.54c.45-.46.57-.56.64-.5s0,.19-.5.66l-.58.58L111,85a.62.62,0,0,0,.18.19,6.88,6.88,0,0,0,.64-.59c.82-.82.93-.71.14.14l-.6.65.18.15.18.15.66-.66c.5-.5.68-.65.77-.61s0,.16-.56.71a3.53,3.53,0,0,0-.63.73.66.66,0,0,0,.23.14l.2.08.66-.7c.52-.56.68-.69.77-.66s0,.15-.58.74c-.74.74-.76.79-.34.87.16,0,.24,0,.89-.68s.92-.86.85-.65c0,0-.32.38-.69.77-.66.7-.66.71-.49.75l.26.07a3.81,3.81,0,0,0,.87-.75c.6-.6.8-.77.89-.73s0,.17-.61.77-.71.73-.58.75C114.67,86.68,114.81,86.6,115.56,85.81Zm1.54-2.63A4.09,4.09,0,0,0,117,82a5,5,0,0,0-1.42-2.39,3.19,3.19,0,0,0-1.06-.73c-.33-.15-.58-.3-.56-.34a.13.13,0,0,1,.1-.06,4.13,4.13,0,0,0,1.2-.64c.07-.09.17-.16.21-.16a5.41,5.41,0,0,1,1.44.78,4.82,4.82,0,0,1,1.76,3.63c0,.81-.05,1-.3,1a2.05,2.05,0,0,0-.75.42l-.38.27-.16.11v-.76Zm1.09-.52c.17-.21.17-.65,0-1.29a5,5,0,0,0-2-2.88c-.28-.19-.81-.11-.81.13,0,.06.18.25.4.43a5.28,5.28,0,0,1,1.28,1.53,6.1,6.1,0,0,1,.54,1.65,1.79,1.79,0,0,0,.06.36c.05.18.09.23.21.23a.4.4,0,0,0,.28-.16Zm-46.9,2.15a1.31,1.31,0,0,0-1,.6,2.59,2.59,0,0,0-.57,1.08c0,.09.26-.14.9-.77l.9-.89-.22,0Zm39.38,1.37a3,3,0,0,0-.34-.41,5.5,5.5,0,0,1-1.17-5A5.69,5.69,0,0,1,111,78a6.11,6.11,0,0,1,2-1,5.69,5.69,0,0,1,2.05-.08c.57.1.62.07.73-.44a3,3,0,0,0,0-1c-.08-.79-.68-4.65-1-6.56-1-5.78-2.73-11.06-4.52-14a8.82,8.82,0,0,0-4.9-4.19c-.35-.14-1-.41-1.41-.6-.86-.38-1.23-.46-1.53-.3a5.65,5.65,0,0,0-.82.85c-.35.42-1.4,1.52-2.34,2.45-1.79,1.78-2.12,2.19-2.47,3-.51,1.22-.48,3,.1,5.75a46,46,0,0,0,3.86,10.91c1.08,2.17,3.68,6.62,5.2,8.91l.37.56.49.19a1.85,1.85,0,0,1,1.15,1,17.12,17.12,0,0,0,2.26,2.5c.3.29.51.4.51.29ZM74.41,83.86a.62.62,0,0,0-.19-.18l-.2-.14-.69.73-.69.73.13.2.13.2.76-.75A10.55,10.55,0,0,0,74.41,83.86Zm-.63-.41a.44.44,0,0,0-.19-.18l-.17-.1-.56.55a3.56,3.56,0,0,0-.55.63.87.87,0,0,0,.1.27l.1.19.64-.64A3.62,3.62,0,0,0,73.78,83.45Zm-1.06.11c.52-.52.53-.56.16-.66-.12,0-.21,0-.49.3s-.34.35-.3.59.06.25.08.25A4.76,4.76,0,0,0,72.71,83.56Zm38.73-4.79a10.3,10.3,0,0,0,.91-1,4.91,4.91,0,0,0-1.06.76c-.37.35-1.06,1.33-.9,1.27S110.9,79.32,111.44,78.77ZM99.66,73.4l.43-.45-.12-.22-.12-.22L98,74.34l-1.8,1.84-.19.51a5.67,5.67,0,0,0-.19.56s2.58-2.57,3.79-3.84Zm-1.57.6,1.63-1.67-.1-.21c-.06-.12-.12-.21-.15-.21s-.68.65-1.46,1.45c-1.37,1.41-1.41,1.46-1.49,1.8s-.11.51-.07.51S97.19,74.92,98.09,74Zm.7-1.74.56-.6-.11-.22-.11-.22L98,72.38a12.51,12.51,0,0,0-1.2,1.29c0,.07,0,.26-.06.43l0,.31.78-.77C97.87,73.21,98.47,72.59,98.78,72.26Zm-.86-.14A9.85,9.85,0,0,0,99,71a.5.5,0,0,0-.12-.24l-.12-.15-1,1-1,1v.33c0,.18,0,.32,0,.31s.51-.5,1.08-1.08Zm.29-1.32.42-.46-.13-.2-.13-.2-.79.79-.79.79v.74l.5-.49C97.57,71.48,98,71.05,98.21,70.79Zm-.06-1.32c-.17-.27-.11-.31-.93.59l-.55.59,0,.29,0,.29.77-.77.77-.77-.14-.23Zm-1,.35c.79-.82.76-.77.63-1a.6.6,0,0,0-.14-.19,7.27,7.27,0,0,0-.57.54l-.54.54,0,.29a.64.64,0,0,0,.08.29,4.55,4.55,0,0,0,.5-.48Zm.27-1.64a.62.62,0,0,0-.15-.23,6.46,6.46,0,0,0-.74.75c-.13.14-.14.2-.1.46l0,.29.52-.52.52-.52-.11-.23Zm-.33-.37c.06-.11-.08-.48-.18-.48a2.12,2.12,0,0,0-.37.33c-.31.32-.32.34-.28.57a1.61,1.61,0,0,0,.07.29C96.38,68.59,97,68,97.11,67.82Zm-.31-.75a.7.7,0,0,0-.14-.24l-.14-.18-.22.25a.62.62,0,0,0-.2.36l.06.29,0,.18.3-.3a1.48,1.48,0,0,0,.3-.36Zm-.47-.76c-.19-.25-.3-.22-.32.1s0,.5.25.27l.2-.2-.13-.17ZM84.1,49.4c1.24-1.27,2.25-2.32,2.23-2.34a1.62,1.62,0,0,0-.38.28,62.15,62.15,0,0,0-5.19,5,31.25,31.25,0,0,0-2.29,2.78s.76-.73,1.68-1.67Zm73.47,160.23c-1.91-.35-2.94-1.6-3.18-3.88a9.47,9.47,0,0,1,.13-2.65,3.56,3.56,0,0,1,2.62-2.94,6,6,0,0,1,2-.09,3.47,3.47,0,0,1,3,2.59,8.43,8.43,0,0,1,.08,4.22,3.5,3.5,0,0,1-2.56,2.66,7.67,7.67,0,0,1-2.1.09Zm1.3-.87c1-.18,1.53-.81,1.8-2.09a14,14,0,0,0,0-3.64,2.56,2.56,0,0,0-1.27-2,3,3,0,0,0-2,0,2.57,2.57,0,0,0-1.27,2,8.47,8.47,0,0,0-.11,1.82,5.86,5.86,0,0,0,.39,2.72,1.93,1.93,0,0,0,.87,1,2.28,2.28,0,0,0,1.58.22Zm1.09-15.6c0-2.44,0-4.43,0-4.42s-2.2,2.36-2.54,2.79a2.76,2.76,0,0,0-.59,1.09c0,.19.22.34.55.38l.32,0v.67h-3.82V193l.32-.07c.67-.14,1.24-.59,2.46-2l.83-.94c.07-.09-.08-.35-1.25-2.08-.74-1.09-1.48-2.13-1.66-2.31a1.69,1.69,0,0,0-1.06-.58l-.26,0v-.71l.48,0,.91.05a2.39,2.39,0,0,1,1.29.43,10.85,10.85,0,0,1,1.71,2.38c.48.76.92,1.43,1,1.47s.19,0,.74-.39l.66-.48,0-1c0-.9,0-1.05-.15-1.24a1,1,0,0,0-.93-.48l-.4,0v-.72h4.63v.72l-.42,0a1.06,1.06,0,0,0-1,.48l-.13.22,0,5.15,0,5.15.14.27a1.07,1.07,0,0,0,1,.54l.4,0v.66h-3.15l0-4.44Zm-1.89-12a3.14,3.14,0,0,1-2.59-1.76,4.42,4.42,0,0,1-.45-2.14l0-1,2.89,0,2.89,0v-.52a4.06,4.06,0,0,0-.79-2.46,2.87,2.87,0,0,0-3.3-.34,3.22,3.22,0,0,0-.67.49,2.21,2.21,0,0,1-.39.33s-.09-.08-.14-.18c-.38-.73.51-1.66,1.85-1.95a5.85,5.85,0,0,1,2.2,0,3.67,3.67,0,0,1,2.7,2.78,8.55,8.55,0,0,1,0,3.91,3.49,3.49,0,0,1-2.55,2.71,5.34,5.34,0,0,1-1.62.1Zm1.43-1.07a3,3,0,0,0,1.24-2.5l0-.45h-4v.43a4.74,4.74,0,0,0,.33,1.7,1.82,1.82,0,0,0,.91.92A2.22,2.22,0,0,0,159.5,180.13Zm-2.63-11.58c-.91-.11-1.36-.51-1.36-1.23s.46-1.13,1.29-1.18l.28,0,0,.37c.07.69.32,1,.87,1s.92-.29,1.24-1c.44-.93.55-1.8.52-4.22,0-2.11,0-2.08-.54-2.35a1.52,1.52,0,0,0-.81-.14h-.54v-.74h5v.72l-.39,0a1.06,1.06,0,0,0-.92.48c-.13.21-.13.25-.15,3.33,0,2.06,0,3.19,0,3.34.13.46.45.68,1.13.76l.29,0v.67h-2.64l0-.17-.17-.86a2,2,0,0,0-.2-.69,1.09,1.09,0,0,0-.25.41,2.26,2.26,0,0,1-2.68,1.43ZM15.2,90.22v-.37h.32a1.11,1.11,0,0,0,1-.47l.15-.24,0-3.16c0-3,0-3.17-.1-3.44a.94.94,0,0,0-.71-.55l-.42-.06-.23,0v-.67h2.64l.06.32.17.86a1.28,1.28,0,0,0,.17.54,1.43,1.43,0,0,0,.29-.48,2.29,2.29,0,0,1,1-1.16,1.75,1.75,0,0,1,1-.21,4.69,4.69,0,0,1,1,0,1.17,1.17,0,0,1,1,1.18c0,.71-.46,1.12-1.29,1.18l-.28,0,0-.37c-.07-.7-.32-1-.88-1-.75,0-1.26.65-1.59,2.05a11.89,11.89,0,0,0-.15,2.65c0,2.13,0,2.13.12,2.41s.53.56,1.24.56h.54v.74h-5v-.37ZM18.49,78a3.68,3.68,0,0,1-2.67-2.78,8.62,8.62,0,0,1,0-3.92,3.46,3.46,0,0,1,3.62-2.81A3.25,3.25,0,0,1,22.88,71,6.86,6.86,0,0,1,23,72.35l0,1H17.22l0,.56c.11,1.54.58,2.48,1.43,2.9a2,2,0,0,0,1,.23A3.06,3.06,0,0,0,22,76.19a3,3,0,0,1,.4-.34s.08.08.13.18c.37.71-.42,1.58-1.74,1.92a5.7,5.7,0,0,1-2.34,0Zm2.8-6.15c-.09-1.71-.79-2.56-2-2.47a1.84,1.84,0,0,0-1.21.56A4.13,4.13,0,0,0,17.31,72l0,.43h4l0-.66ZM15,64.95v-.36l.43,0c.54,0,.79-.18,1-.54l.14-.27V53.56l-.14-.27a1.07,1.07,0,0,0-1-.54l-.4,0V52h3.15l0,4.47,0,4.47.13-.14c.52-.54,2.27-2.48,2.49-2.76A2.6,2.6,0,0,0,21.24,57c0-.18-.2-.3-.57-.35l-.29,0v-.67H24.2v.34c0,.32,0,.34-.17.37a2.85,2.85,0,0,0-1.59.91,27.09,27.09,0,0,0-1.91,2.13c0,.12,2.69,4,3,4.3a1.7,1.7,0,0,0,1.06.58l.26,0v.36c0,.42.12.39-1,.3-1.54-.11-1.68-.22-3.33-2.84-.48-.76-.91-1.43-1-1.47s-.18,0-.74.4l-.66.49,0,1c0,.89,0,1,.14,1.23a1.17,1.17,0,0,0,1,.49h.33v.74H15Zm3.7-15.39a3.43,3.43,0,0,1-2.49-1.87A7.94,7.94,0,0,1,15.76,43a3.56,3.56,0,0,1,2.65-2.93,6.87,6.87,0,0,1,2.47,0,3.62,3.62,0,0,1,2.68,3.09,9.11,9.11,0,0,1-.09,3.66,3.53,3.53,0,0,1-2.54,2.63,7.31,7.31,0,0,1-2.27.06Zm1.94-1a2.54,2.54,0,0,0,1.31-2,13.92,13.92,0,0,0,0-3.64,3.52,3.52,0,0,0-.65-1.49,2.36,2.36,0,0,0-3.23,0A3.58,3.58,0,0,0,17.38,43a8.26,8.26,0,0,0-.11,1.81,8.28,8.28,0,0,0,.11,1.81c.25,1.18.76,1.85,1.58,2.08a3.15,3.15,0,0,0,1.64-.1Zm-7-12.27,0-.55.89,0c2.49-.12,3.84-.69,4.6-1.94a4.28,4.28,0,0,0,.53-1.49c0-.26.06-3.16.06-8.47,0-8,0-8.08-.13-8.34a1.34,1.34,0,0,0-.32-.41,3.63,3.63,0,0,0-2.42-.59l-1.11,0,0-.48,0-.48H27.9v1h-.8c-1.73,0-2.69.32-3.05,1-.13.25-.13.28-.16,8.45,0,9.18,0,8.5-.49,9.5a5.1,5.1,0,0,1-1.92,2,10,10,0,0,1-2.23.88,23.17,23.17,0,0,1-4.91.53H13.6l0-.55Z"/></g></g></g></svg>