<svg xmlns="http://www.w3.org/2000/svg" viewBox="0 0 178.79 249.65"><defs><style>.cls-1{fill:#fff;stroke:#000;stroke-width:1px;}.cls-2{fill:#e2cf00;}.cls-3{fill:#131f67;}.cls-4{fill:#d40000;}</style></defs><title>JC</title><g id="Layer_2" data-name="Layer 2"><g id="svg11376"><g id="JC"><g id="g11322-4-2"><rect id="rect6355-6-85-3-39-1-8" class="cls-1" x="0.5" y="0.5" width="177.79" height="248.65" rx="8.5" ry="8.5"/><path id="path147-6-9-8-7-0-5-6-79-2-4" d="M164.58,209.3c3.13-.07,4.53-3.74,2.21-6.59-.34-.42-.37-.65.25-.25,1.56,1.09,4.55.37,4.7-2.95.19-4.09-5.3-5.27-6.33-.92-.05.46-.41.45-.33-.2a14,14,0,0,1,1.35-5h-3.72a14,14,0,0,1,1.35,5c.09.65-.27.66-.33.2-1-4.35-6.52-3.17-6.33.92.15,3.32,3.14,4,4.7,2.95.62-.4.58-.16.24.25-2.32,2.85-.91,6.52,2.21,6.59h0Z"/><path id="path147-6-9-8-7-4-5-62-3-3-7" d="M14.21,40.35c-3.13.07-4.53,3.74-2.21,6.59.34.42.37.65-.25.25-1.56-1.09-4.55-.37-4.7,2.95-.19,4.09,5.3,5.27,6.33.92.05-.46.41-.45.33.2a14,14,0,0,1-1.35,5h3.72a14,14,0,0,1-1.35-5c-.09-.65.27-.66.33-.2,1,4.35,6.52,3.17,6.33-.92-.15-3.32-3.14-4-4.7-2.95-.62.4-.58.16-.24-.25,2.32-2.85.91-6.52-2.21-6.59h0Z"/><path id="path35-5-6-2" d="M14.13,11.54v2.75H16.8s.06,2.66.09,8.29c0,5.47.13,8.18-.22,9.74-.94,3.59-6.13,3.61-7.16,1A10.44,10.44,0,0,1,9,29.17H6.17s0,.76,0,1.69c0,4,1.35,6,4.47,6.73s7-.46,8.3-3.2c.8-1.57.71-1.67.72-11.14,0-6.32.11-8.95.11-8.95h2.46V11.54Z"/><path id="path35-6-4-1-2" d="M164.66,238.12v-2.75H162s-.06-2.66-.09-8.29c0-5.47-.13-8.18.22-9.74.94-3.59,6.13-3.61,7.16-1a10.44,10.44,0,0,1,.47,4.18h2.87s0-.76,0-1.69c0-4-1.35-6-4.48-6.73s-7,.46-8.3,3.2c-.79,1.57-.7,1.67-.72,11.14,0,6.32-.11,8.95-.11,8.95h-2.46v2.75Z"/></g><g id="g5275-8-4-5"><g id="layer1-1-8-4-5"><g id="g3799-8-1-3"><path id="path3306-4-9-5" class="cls-2" d="M129.21,24.37c.68-1,3.62,5.84,5.51,11,.93,2.54,2.17,4.63,1.66,5.29-1.35,1.37-4.83.14-7.37-1.81a22.36,22.36,0,0,1-4.62-5.16ZM153,29.42l.11,4a90.38,90.38,0,0,0-8.62,8.64l9.06,0c-.08,49.23.07,147.9.07,147.9s-10.07-10.24-9.82-10.28c0,0-.29-59.62-.33-99.72-.08-.19,5.26-.2,5.6-2.82.22-1.73-5.6-1.49-5.69-1.61,0-18-.05-30.75-.05-30.75l-5.35-.18ZM121.52,48c.78,1.56,2,7.54,3,7.39,4.35-1.45,5.75,5,1.25,5.33-1.71.13-3.61-2.11-4.68-4.88-.51-1.45,0-8.43.46-7.84Zm-1,9c1.28,2.11,2.51,9.8,4.85,9.36a2.71,2.71,0,0,1,3.29,3c-1.1,4.62-8.92.23-11-.83A52.73,52.73,0,0,0,120.54,57Zm16.51,21.69c-1.79,4.07-1.31,7.41.21,11.5-4.65,2-9.23,4.39-13.81,6.79,0,0-.23-16,1.29-23.36.52-1.11,2.4-.22,3.49.32A73.65,73.65,0,0,1,137.05,78.64ZM54.59,152.28c.95,7.58.26,19.36-1.09,24-.52,1.58-11.28-5.54-12.06-6,2.12-3.95-.78-13.12-.46-11.47.75-.52,13.36-7.29,13.61-6.53Zm4.63,31.44c-.2.49-1,6.16-1.26,6.18-.82.07-2-5.55-4.1-7.41-3.93.46-4.39-2.22-3.62-3.51-.19-.57,1.27-1.8,2.63-1.68C56.26,178.61,60.83,179.79,59.21,183.71Zm45.13,9.68s-3,16.67-3,16.65c-7.31,1.06-14.35,2.27-20.86,1.53,1.29-17.33,3.31-32.31,8.86-34.91l-11.5-9.29s-12.77,8-12,7.87c.32-.09.56-6.8.75-17.66-.32-28.34-16.57-57-17.2-56.73-.34-.23,13.84-1.34,24,3.06l.46-37.52s-5.05-2.53-6-3.7C66,56.18,71,54.51,74.06,56.14c1.41-5,3.56-17.23,3.63-17.22a94.94,94.94,0,0,1,20.82-1.61,110.11,110.11,0,0,0-2.29,16c-.88,8.66-2.65,16.85-7.18,18.8.81-.32,11.34,8.92,11.34,8.92l12.8-7.91c-4.14,27,2.93,53.23,15.14,74.44-6.15.71-13.11.37-24-2.89,0,0,.61,37.59.62,37.38C117,186.79,110.43,196,104.34,193.39Zm-46.75,3.37c0,.38-.22,4.63-.22,4.63-1.7-2-3.07-7.88-3.41-7.78,0,0-2.18.34-2.86-.38-2.22-2.37,0-5.17,2.18-4.65S57.9,192.93,57.59,196.76ZM35,69.3s.47,66.67.46,100.09c-8.4-.13-6.75,4.55.11,4.06l0,30.81,4.55.16s-8.57,9-14,14.71L26,216.22l8.27-9H25.73l0-147.84ZM49.3,224.15c-2.07.45-4.24-9.15-7.83-15,4.09-2.46,10.53,2.22,12,6C52.5,218.33,49.24,224.12,49.3,224.15Z"/><path id="path3304-4-6-6" class="cls-3" d="M154.7,230.09V19.56H24.09V230.09Zm-43.29-44.34c-.18-.34-.47-.83-.47-.83a2.1,2.1,0,0,0,.54-.23c15.14-5.63,31.33-18.17,31.61-18.54V180l10,10.61v37.62H113.73l-11.54-19.41c.69-5.08,2.49-14.93,2.49-14.93,1.06.26,4.63.59,6.57-2.19.92-1.33,1.41-3.14.17-6Zm-73.8-43.3-1.5,1.9,2.64-.12-1.81,2,2.92.07-2.27,1.94,3.07,0-2.28,1.91,3.36-.15-2.41,2.08h3.32l-2.48,2.09,3.25,0-2.11,1.88,2.84,0-3.21,2.26a13.83,13.83,0,0,0-5.05-1l0-15.24Zm-2.3,26.42c-7.5,0-9.1,4,0,4.64-.17,10.13.41,30.4.41,30.4l4.93.13S27.39,218.4,26.15,219.56C25,171.3,25.07,59.26,25.07,59.26L35.17,69.43l.11,31.68c3.38,3.45,5.32,8.47,7.33,11.73l5.53,2.7L46.85,120l.56,1.27L49.13,115l-6-2.89-.64-1.31,1-6-5.72-2-1-1.37.36-5.81-1.2-.37V94.13l1.19.1.42-6.53-1.62-.48V85.76s.95,0,1.41,0A8.78,8.78,0,0,1,39,87.51l-.57,7.25,7.25,1.46.54.77-1.33,7.24,7.62,2.34c-.78-1.93-1.82-3.74-2.68-5.65,1-.3,2.14-.37,3.2-.6.29-9.79,0-20,.26-29.17,6.13-.45,3.25.14,5.92.1a1.9,1.9,0,0,0,1-3.5l1.06-.38,1.85,2.1L59.27,73.2l0,1.07,4.79-4.82L62,67l1.23-.64,1.89,2s4.07-4.19,3.82-4.27a1.39,1.39,0,0,1-.5-.46c-2.9-6.3,1.06-9.31,5.84-7.57,1.22-5.8,2.38-11,3.33-17,3.58-1.36,20.4-2.14,20.58-1.83,0,0,.43.41.44.61s.48-.56.48-.56c0-.36,14.66.37,21.89,1.75a6.61,6.61,0,0,1,.09,1.62c-.12,1.84,0,1.83-1.65,1.56-3.41-.23-6.06.95-7.11,4-.59,1.69-.31,3.21.59,7.73s.88,3.92.78,4.51a5,5,0,0,1-1.94,2.35c-.81.66-.89,1.91-.24,1.22a4.73,4.73,0,0,1,1.94-1.26c1.66-.87,1.61-1.72.63-5.32-.46-1.69-.94-3.51-1-3.73,0-.66.19-.39,1.18.29a23.4,23.4,0,0,0,2,1.23c2,1.06,1.11-.1-.81-1.38-1.5-1.12-1.75-1.6-.46-1.07a7,7,0,0,0,4.75-.26c.29-.17.51-.15.56.12.07.42-.19,1.48-.3,3.93-.28,6.19-1.73,12.8-5.83,16.61-5.87,5.46-15.51,1.76-20.86-3.3l-.58.88c3.59,3,9.81,6.81,15.88,6.08-2.54,2.13-8.13,5.65-8.13,5.65-3.83-2.8-6.66-5.59-10.87-8.61l-.73.49,11.58,9.23L113,73.32s-.52,7.93-.71,10.83l5.41-4.81-4.17-6.21L118,68.56s-.75.11.07-1.31c1.25-2.54,2-6.63,2.57-10.78-.11-3.1.65-6.54.88-9.27a24.4,24.4,0,0,0,1.84,6.23c.87,2.24,1.2,2.22,2.18,1.9,5.29-.45,2.9,9.82-3.36,3.1-.28-.29-.73-.63-.75-.57a35.41,35.41,0,0,0,2.35,7.06c.73,1.32.74,1.5,1.82,1.39,2-.21,2.72.52,2.93,2.67-.27,4.07-4.65,2.35-7.46,1.1-.25-.2,1.32,1.44,1.88,2a3.28,3.28,0,0,1,.89,1.28l-.17,2.16-4.29,3.94,3.53,5.24-.15,1.87L119,91.14l4,4.39,0,1.56-3.27,4.37,4.38,3.53.21,1.41s-2.81,5.23-2.73,5.42,4.74,3.41,4.74,3.41l.47,2.2-2,5.58,4.86,2.79.89,2.52-1.37,5.17,5,2.34,1.44,2.91-.94,5.43,5.65,1.68,1.5,2.39-.2,4.78,1.38.14,0,1.18h-1.54a9,9,0,0,1-.05,2.54c-.29,4-.32,3.86.64,4,2,.35,1.55,1.59-.5,1.36-.32,0-.58-.06-.81-.1-.54-.1-1-.81-1-.81l.45-7.41-7.23-1.21-.69-.93,1.21-6.87-6.79-2-.91-1.66,1.92-7.14-6.84-3-.45-1.33,2.9-6.34-6.29-3.07-.39-1.52,3.49-6.54L113,107s.19.52.48,1.38l5.75,4.13-2.91,5.58s-.23-.41-.48-.32c.15.93.26,1.87.33,2.78l3,7.77-9.59,6.49c4.11,2.49,9.3,2.41,14.06,3.34a6.71,6.71,0,0,0,.57,1.26c1.38,2.23,2.63,5.08,4.18,8a9.34,9.34,0,0,1-2.86.71c-1.69,9.56-3.37,20.55-6.07,28.87a2.14,2.14,0,0,0-1.39,3.76l-.84.22c-.39,0-2-1.74-2-1.74l4-4,0-1.33c-1.61,1.69-5.16,5.34-5.16,5.34l2.14,2.26-1.06.5-1.73-1.92-3.88,4-1-.68a46.57,46.57,0,0,1,4.12-4.33c-1-1.22-5-5.06-5-5.06v1.33l3.91,3.81-3.8,3.81-.22.25s-3-1.31-3.21-1.31c1.28,1.06,3.58,2,4.83,2.89,5.67,3.36.28,10.31-4.94,8.59-.15-.56-2.88,14.67-2.57,15.51-.28,2.36-.34,2,.48,3.38,2.43,5.64,9.53,16.31,9.53,16.31L47.87,229a25.79,25.79,0,0,0,1.84-3.89,22.68,22.68,0,0,1-4.9-8.71,15.54,15.54,0,0,0-3.63-7.18c0-.07.07-.15.18-.22,5.05-1.79,10.81,2.54,12.58,7.49l2.9-4.75c-1.31-.15,19.29,2.35,24.35,1.72-.45-.09-1-.46-.68-1.89.51-2.46,1.43-11.34,1.43-11.34,1-8.64,1.8-19.51,7.47-23.1a10.41,10.41,0,0,0-1.62-1.4s.67.71.69.79a.69.69,0,0,1-.31.54,14.14,14.14,0,0,0-2.61,3.06c-4.68-4.09-12-7.61-16.42-6.15-1.74.37-2.52,2.06-3.44.69a99.24,99.24,0,0,0,.65-22c-.72-14.32-3.87-22.53-7-32.67,1.6-.57,9.83-6.11,9.83-6.11.05-.71-9.92-3-13.83-2.6,0,0-.81-.79-.81-.62l.08.15a1.9,1.9,0,0,0,.91,3.56,1.89,1.89,0,0,0,.56-.09c.49,1.21.91,2.27.91,2.27l-5.54-2.42,1.8-6.09-.61-1.35-2.2,7.93,7.07,3L58,119l-2.93,6,6.32,3.76.27,1.2-3.4,6.46,6.12,4.73L59.9,147l5.51,4.65-.06.77-4.57,5.29,4.72,4.88.13,2-5.14,4.6,4.44,6.49a19.67,19.67,0,0,0-4.1,4.1l-1.08-.48,3.94-3-4.21-6.12-4.45,4,2.41,4L56,177.49l-1.35-2.12.22-2.16,4.39-4-3.78-5.5,0-1s2.35-2.71,4.06-4.73l-4.79-5.31,3.91-5L53.7,143.4l.14,1.26,3.63,3.08-2.79,3.4c-.2,2,.24,5.56-.8,7.1,1.68,1.65.8,5.64,0,6.93,1.61,1.91.69,6.11-.34,6.28,1.23,1.54.74,4.68-.29,5.7-.33.18,4.38,1.88,7.34,3.93-2.47,4.62-1.89,9-2.67,10.54a78.68,78.68,0,0,0-3.62-8.77c-.12-.25-.39-.19-.78-.2-4.91-.44-4.44-4.51-.76-5.55,0,0-7.48-5.6-11.28-6.22,0-.1,0-.23.12-.5a14,14,0,0,0,.93-4.76,20.33,20.33,0,0,0-.94-6.42l1.55-1c.31-1.34,2-1.37,2.21-2.32-.37-4.09-8.32-19.77-10-21.55C34.71,145.57,35.93,157.71,35.32,168.88Zm1.82-28.53-1.29,1.07,0-1.69Zm-1.26-2.59.65.49-.65.73Zm80-20c-.12-.77-.26-1.54-.42-2.28a2.14,2.14,0,0,0-.54-4.21,2.09,2.09,0,0,0-.49.06c-.33-1.18-.66-2.2-.91-2.95l-.43-.31c1.17,4.08-1.09,6.27,2.25,9.66C115.34,117.92,115.59,117.87,115.84,117.78ZM46.94,228.4l-20.79-.14v-7.72l16-17.13L36,203.34,36.06,174a28.76,28.76,0,0,0,4.87-2.87l9.75,5.42.7.36a3.65,3.65,0,0,0-.84.45,3.42,3.42,0,0,0-1,3.85c.82,2.19,2.51,1.8,3.92,1.8,1.17.91,2.17,3.95,3,6a13,13,0,0,1,.84,2.07,5.28,5.28,0,0,1,.08.88s-.19-.06-.47-.63c-1.55-3.29-5.18-4.88-7.11-1.77-1,1.91-.3,4.08,1.34,4.69a8.4,8.4,0,0,0,2.21,0c.1-.06,1.24,1.61,2.85,7.12.66,2.27.83,7.2.2,7.91-1.06,1.3-1.34,3.13-2.24,4.44-.41.82-.39.31-1-.61-2.19-3.13-6-5.56-9.56-5.41-2.5.11-3.27,1-2.68,1.69a11.76,11.76,0,0,1,2.72,5.12c1,4,2.16,7.63,5,10.76Zm10.56-19.14c-.26-.25-.05-.63,0-1.33.12-1.77.16-1.79,1.17-1.34a5.91,5.91,0,0,0,6.33-1.7c2.08-2.27,2.15-4.61.85-9.23-1.49-5.19-1.45-5.88.33-6.94,1.07-.92,2.17-2.84,1.76-2.83a.78.78,0,0,0-.33.26,19.25,19.25,0,0,1-1.85,1.45C63.67,189,63,189.74,64,192.37s1.69,5.13,1.3,5.29c-.19.08-.9-.77-1.34-1a21.09,21.09,0,0,0-3-1.49c-.32,0,0,.24,1,.85,2.49,1.64,3.51,3.13,1.11,2.19a5.17,5.17,0,0,0-3.42,0c-.9.29-1.36.59-1.46.25a34.48,34.48,0,0,1,.09-4.85c0-.1.15-1.2.27-2.43.46-4.67,1.25-8.61,3.29-11.15,6.83-8.48,14.61-6,23.34.78-3.26,9.07-3,16.15-3.84,19a3.05,3.05,0,0,1-2.19-.53,9,9,0,0,0-3.93-1.19c-1.24-.07-1.45.11-1.34-.26s2.08-.87,3.3-1.13c2.22-.46,2.06-1,.19-.81a12.61,12.61,0,0,0-5.88,2.31c-1.4.93-1.45.93-1.07,2.11.09.28.28.7-.39,1s-.59.54-.2.85c.1.08.34.1.44.17s0,.54,0,.6c2.54,2.16,7,2.21,10.71,0a.53.53,0,0,1,.2.75c-.39.85-4.35,1.87-7.16,1.92-1.28,0-1.53-.14-3.47-.74-.79-.24-1.24-.31-1.31-.19-.16.28.12,1.1.73,1.54,2.06,1.49,5.07,1.37,9.17-.27,2.2-.88,2-1.18,1.26,3.18-.2,1.21-.42,2.13-.42,2.13S60.65,210.58,57.49,209.26Zm3-4.09a3.62,3.62,0,0,1-2.48-.79c-.79-.88,0-1.15,1.3-.67a5.56,5.56,0,0,0,4.85-.62c.91-.57,1.1-.26.34.55A5.63,5.63,0,0,1,60.45,205.17ZM75,203.65c-1.77,0-3.39-.31-4.06-1.06s0-.76,1.5-.16a9.44,9.44,0,0,0,7.34-.6c1.21-.6,1.58-.73,1.42,0C80.54,202.91,77.63,203.64,75,203.65Zm-14.16-.55c-1.69,0-3.12-.39-2.85-1.28.1-.32.18-.13,1.38.25a7.73,7.73,0,0,0,4.29-.22c1.44-.42,1.72-.52,1.07.11A6,6,0,0,1,60.89,203.1Zm-3.44-.85c-1.71-2.65-2-6.53-3.83-8.63-3.36.63-5-2.55-2.12-4.67,1.44-.8,3.19-.2,4.48,1.92a8.73,8.73,0,0,1,1.61,4.53C57.48,198.1,57.63,199.54,57.45,202.25ZM77.13,201l-.74-.09c-.54-1.84-1.75-2-2.48,0l-.56-.09C74.2,198.46,76.35,198.36,77.13,201Zm1.15,0c-.31,0-.57-.31-.71-.75-.29-1,0-.86.71-.44s1.21.69.81.86A2.89,2.89,0,0,1,78.29,201Zm-6.39-.63c-.26-.32-.31-.57,0-.8a6.42,6.42,0,0,1,.87-.39c.3-.09.48,0,.36.42a3.23,3.23,0,0,1-.49,1.11A.91.91,0,0,1,71.89,200.37Zm-9,.23-.59,0c-.62-1.68-2.06-1.64-2.62-.17h-.53C60.12,197.77,62.14,198.24,62.86,200.59Zm1.06-.22c-.57,0-1.12-.82-.81-1.24.31-.26,1.71,0,1.83.55C65,200,64.49,200.37,63.93,200.37Zm-5.46-.16a.3.3,0,0,1-.26-.31c-.14-.69.68-.93.86-.67S58.73,199.94,58.47,200.21Zm13-7.38a2.68,2.68,0,0,0,1.94-2.93,2.2,2.2,0,0,0-1.45-2.15c-1.65-.38-2.79.78-4.47,1.25-.73.19-.56,1.14-.09,1.54s1.52.2,2.75-.75c2.42-1.86,3,1.72.79,2.35C70.59,192.25,70.74,193,71.46,192.84Zm71.47-82.38-.94-.27.94-1.12s0,1,0,1.39Zm-2.62-3.83,1.94-2.19-2.63.2,1.78-1.86-2.74-.11,2-2.09-2.69.05,2-2-2.54-.07,1.68-1.85-2.79.22,2-2.21-3,.05,2.27-2.06-3,0,.9-1-.79-.4c-.81.38-5.49,1.84-5.65,2.95,1,.28,4.08-1.28,4.28-1,1.22,5.41,6.48,17.38,10,20.87l.24-33.82c.53-.5,1.38-.25,1.92-.47,1.76.09,4.7-2.87,3.16-3.45-.8-.18-5.25-.94-5.26-1.17-.54-9.8.34-19.66-.07-30.12-1.24-.19-5.31-.42-5.31-.42S152.93,29,153.22,29.29c-.35,16.77-.17,49.56.13,49.68A27.48,27.48,0,0,1,153,82l.32,104.3a2.78,2.78,0,0,0,.27.76c.31.51.33.64.35,2.2a2.43,2.43,0,0,1,0,1.22h0l-10.2-10.83V149.35s-9.66-14.34-11.88-21c-4.87-9.86-4.35-24.22-7.3-29.72h-.18c-.07-.8-.08-1.12-.2-1.25-.22-1.79-.46-4.24-.46-4.24l1.07-1.71-1.19-1.54V85.85l1.59-1.62-1.45-1.85.4-3.82,1.13-1-.64-.87a13.84,13.84,0,0,1,.15-3c.17-1.07,1.22-.93,3.41.19a49.16,49.16,0,0,1,8.71,4.88c-.15,2-2.6,6.53.81,11.54,1.26,1,4.92.6,5.25.75l0,15.42m0,1.78-1.65.29,1.67-1.68Zm-78.63,77c.13,0,.3-.14.52-.39s.59-.19,1.52-.13a3.67,3.67,0,0,0,1.9-.21c.75-.27.76-.27,1.28-.05a2.68,2.68,0,0,0,2.06.17,2.61,2.61,0,0,1,2.05.09c.57.28.75.23.95-.29a12.16,12.16,0,0,1,.67-1.35c.61-.94.46-1.09-.81-.7a6.06,6.06,0,0,1-3.69-.06,4.16,4.16,0,0,0-3.3.31,2.93,2.93,0,0,1-3.36-.27c-.64-.54-.6-.13-.44,1S63.92,185.28,64.26,185.24Zm43.3-3.94a2.14,2.14,0,0,0,0-4.29C107,177.48,106.71,181.21,107.56,181.3Zm-41.16,0a8.1,8.1,0,0,1,5.09-.44c1.58.48,1.2-.71-.51-.86-1.19-.1-1.11-.1-.18-1s-.2-.68-.73-.22-2.34.4-3.31,0c-.42-.19-.47.61,0,.79,1.27.45,1,.48-.42.94C65.85,180.58,65.83,181.48,66.4,181.28Zm41.16-.7c-.67-.25-.25-2.74,0-2.85a1.42,1.42,0,0,1,0,2.85Zm11.37-.09c-.54.19-.92-.72-.92-1.33a1.42,1.42,0,0,1,1.42-1.43c1,.94,1.13,2,0,2.58Zm-5.6-2.1,4.55-4.63-4.47-4.55-4.48,4.65Zm-53.94-1.83a1.19,1.19,0,1,1,1.18-1.19A1.19,1.19,0,0,1,59.38,176.56Zm54-1.55a1.19,1.19,0,1,1,1.18-1.19A1.19,1.19,0,0,1,113.36,175ZM65,173.87l-3.26-4.42,4-3.61-.2,2.24a1.9,1.9,0,0,0-.34,3.64Zm54.33-.24,0-1.2-4.11-4.09,4.07-4.25,0-1.18-5.06,5.42Zm-11.62,0,5-5.18-4.85-5.32-.06,1.35,3.81,4-3.88,3.87Zm-72.51-.83a2.2,2.2,0,0,1-2.17-1c-.21-.38-.32-.7-.63-.85-.6-.27-1.41-.08-1.45.12a4.36,4.36,0,0,1,1.13.26c.8.72.66,1.18-.47,1.09-.37,0-1.39,0-1.41-.43-.23-1.39,1.61-2.4,4-2.21,1.67.28,1.68-.37,1.8-1.27a6,6,0,0,1,.54-1.15c.59-1.07.79-.92.37-1.33a3.39,3.39,0,0,1-.91-1.79l0-5.62s3.51,0,4.73.9c1.28,2.34,2.15,7.4.27,10.17a16.7,16.7,0,0,1-2.72,2.11A5.07,5.07,0,0,1,35.15,172.79ZM55,172.16l.13-1.62a1.9,1.9,0,0,0,.29-3.66l.11-1.41,2.6,3.76Zm10.22-1.1a1.27,1.27,0,0,1,.21-2.3Zm54.3-.59c1.8-.94,1.18-4.59,0-4.29a2.14,2.14,0,0,0,0,4.29Zm-11.76-.05a2.14,2.14,0,0,0,0-4.29C106.19,166.62,107.07,170.35,107.75,170.41Zm-52.58-.54.19-2.34a1.27,1.27,0,0,1-.19,2.34Zm64.34-.12a1.42,1.42,0,0,1,0-2.85C120,166.81,120.28,169.51,119.51,169.75Zm-11.76-.05c-.95-.08-.16-2.51,0-2.85a1.43,1.43,0,0,1,0,2.85ZM60,168.34l4.7-4.71L60,158.49l-3.86,4.72Zm53.46-.9,4.51-4.67-4.26-4.43-4.5,4.77Zm29.66-2.56-1.68-1.76,1.68,0Zm-82.75-.17a1.19,1.19,0,1,1,1.18-1.19A1.19,1.19,0,0,1,60.34,164.72Zm53.12-.64a1.19,1.19,0,1,1,1.18-1.19A1.19,1.19,0,0,1,113.46,164.07Zm-5.83-1.39,5-5.18-4.81-5.15-.07,1.22,3.86,3.9-3.91,4Zm11.72,0,0-1.31-4-4,4.2-4.25-.17-1.14-5.17,5.38Zm-53.78-1.42L62,157.65l3.59-4v2.09a1.9,1.9,0,0,0,0,3.59Zm-9.94-.19,0-1.47a1.9,1.9,0,0,0-.1-3.7l0-1.17,2.85,3.16Zm83.36-.66s-1.2-1.29-1.61-1.82a2.14,2.14,0,0,0-1.62-3.53,2.09,2.09,0,0,0-.94.23c-.22-.33-1.18-1.66-1.18-1.66l5.67.92Zm-31.33-.86a2.14,2.14,0,0,0,0-4.29C105.52,155.71,105.94,159.45,107.66,159.55Zm11.87-.08c3-.33,2.25-4.22,0-4.29a2.14,2.14,0,0,0,0,4.29Zm-64-.53-.07-2.38a1.27,1.27,0,0,1,.07,2.38Zm52.09-.1c-1.38-.5-1-2.95,0-2.85a1.43,1.43,0,0,1,0,2.85Zm11.87-.08a1.43,1.43,0,0,1,0-2.85A1.42,1.42,0,0,1,119.53,158.75Zm-54-.14a1.27,1.27,0,0,1,0-2.21Zm71.36-.61-1.66-2.14a1.4,1.4,0,0,1,.49-.09,1.43,1.43,0,0,1,1.17,2.23Zm-76.74-1,3.9-4.71-4.79-4.27-3.39,4.23Zm53.23-.57,4.78-4.88-3.37-3.53,1.87.21,2.7,2.77.06-.92L118,148.43l1.57.05c.57-.88-3-.91-5-1.25-2.54-.43-8.06-2.47-6.85-1l1.39.36-1.31,1.58v1.2l2.28-2.45.77.18-3.22,3.34.22,1,4-4.08,1.15.26-4,4.13ZM60,153.66a1.19,1.19,0,1,1,1.18-1.19A1.18,1.18,0,0,1,60,153.66Zm53.58-.62a1.19,1.19,0,1,1,1.18-1.19A1.18,1.18,0,0,1,113.58,153Zm26.76-.34s.31-3.9.48-5.78l-6.17-1.66-.77,6.24Zm2.69-.29-.86,0,.14-3.63.84.9Zm-11.42-1.58s-.62-1-1.33-2.11a2.14,2.14,0,0,0-1.51-3.65,2.1,2.1,0,0,0-.62.09c-.28-.53-.79-1.37-.79-1.37l5.29,1.56Zm-66.24-.4L61.22,147l3.23-4,.22,1.71a1.9,1.9,0,0,0,.46,3.68Zm71.85-.06a1.19,1.19,0,1,1,1.18-1.19A1.18,1.18,0,0,1,137.22,150.37Zm-83-.38a1.9,1.9,0,0,0,0-3.8C53.79,145.89,53.68,149.46,54.2,150Zm0-.64c-.11-.57-.25-2.66,0-2.53a1.26,1.26,0,0,1,0,2.53Zm75.68-1.26c-.47-.75-1-1.55-1.38-2.28l.26,0a1.43,1.43,0,0,1,1.11,2.31ZM65,147.77a1.26,1.26,0,0,1-.3-2.37Zm-5.63-1.11,3.51-4.74-5.33-4.18-3,5.18Zm80.11-1.93-4-1.17.75-4.08a6.28,6.28,0,0,0,.58,1.18,2.14,2.14,0,0,0,1.86,3.18h.17Zm-5.88-1,1.29-6.51-6-2.42-1.45,6.88Zm-74.91-.05a1.19,1.19,0,1,1,1.18-1.19A1.18,1.18,0,0,1,58.73,143.69Zm79.68-.6a1.41,1.41,0,0,1-1.06-1.64C137.7,142,138.07,142.57,138.41,143.09Zm-84.75-.18,3.2-6.06L51.43,133l.37,1.29,3.89,2.87-2.26,4.17ZM131,140.72a1.19,1.19,0,1,1,1.18-1.19A1.19,1.19,0,0,1,131,140.72Zm-5.63-.6-1.27-2.22a2.14,2.14,0,0,0-1.27-3.86,2.09,2.09,0,0,0-.51.07l-.92-2,5.54,2.44Zm-72.93,0a1.5,1.5,0,0,0,1.31-.53,1.9,1.9,0,0,0-1.31-3.27C51,136.64,51.77,139.94,52.43,140.09Zm11.46-.52-4.5-3.24,2.63-5.1s.26,1,.6,2.42a1.9,1.9,0,0,0,.81,3.62h0C63.63,138.09,63.78,138.89,63.9,139.57Zm-11.46-.11c-.78-.24-.52-2.45,0-2.53a1.2,1.2,0,0,1,1.26,1.26A1.26,1.26,0,0,1,52.43,139.46Zm71.34-2.23-1.15-2.46.2,0a1.43,1.43,0,0,1,1,2.48Zm-60.47-.61a1.26,1.26,0,0,1-.53-2.33C62.95,135,63.13,135.82,63.31,136.62ZM57.36,136l3.09-6.13-5.7-3.49-2.62,5.93Zm76.33-1.18-3.51-1.61,1-3.65.43.89a2.14,2.14,0,0,0,1.57,3.27Zm-5.55-1.73,1.72-6.13-5.48-2.87-2.5,6.17Zm4.61-.22a1.4,1.4,0,0,1-.74-1.55Zm-76.4-.5a1.19,1.19,0,1,1,1.18-1.19A1.19,1.19,0,0,1,56.35,132.34Zm-5.2-.34,2.61-6.42-6-3.33.45,1.17L52.65,126l-1.9,4.64Zm74.8-2.14a1.19,1.19,0,1,1,1.18-1.19A1.18,1.18,0,0,1,125.94,129.87Zm-76.68-1a1.9,1.9,0,0,0,1.89-1.9,1.87,1.87,0,0,0-1.89-1.9C47.36,125.16,48.33,128.93,49.26,128.92Zm70.81-.21a13.34,13.34,0,0,1-.88-2,2.14,2.14,0,0,0-1.07-3.91l-.24,0-.34-1.29,4.71,2.49A32.51,32.51,0,0,1,120.07,128.7Zm-70.81-.42c-.55-.23-.7-2.46,0-2.53a1.26,1.26,0,0,1,0,2.53Zm11.62-.74-4.63-2.67,2.33-5,.69,2.31a1.9,1.9,0,0,0,1,3.47ZM118.95,126l-.74-2.47a1.3,1.3,0,0,1,1.21,1.41A1.42,1.42,0,0,1,118.95,126ZM60.1,125a1.26,1.26,0,0,1-.64-2.16Zm69.12-.16-3.58-2.11,1.62-4.2.47,1.52a2.14,2.14,0,0,0,1.08,3.47Zm-74.79-.09,2.17-5.85-6.28-3.32-1.57,6Zm74.09-2.14a1.42,1.42,0,0,1-.52-1.66Zm-4.69-.29,2.55-5.94-5.3-3.51L118.32,119Zm-71.37-1a1.19,1.19,0,1,1,1.18-1.19A1.18,1.18,0,0,1,52.46,121.3Zm-6.21-2.61a2,2,0,0,0,.84-1.68,1.89,1.89,0,0,0-1.89-1.9,2.79,2.79,0,0,0-.63.07C44,115.92,44.8,118.73,46.25,118.7Zm76,.17a1.19,1.19,0,1,1,1.18-1.19A1.18,1.18,0,0,1,122.25,118.87Zm-77.33-3.06a.54.54,0,0,1,.28-.06A1.28,1.28,0,0,1,46.46,117a1.27,1.27,0,0,1-.47,1C44.9,118.82,44.74,115.64,44.92,115.81Zm70.34-1c-.22-1-.45-1.9-.69-2.76a1.42,1.42,0,0,1,.69,2.76Zm-65.84-.7,1.64-6.58-6.29-2.3-1.2,6.23Zm76.63-.09-3.34-2.31a31.54,31.54,0,0,1,2-4l.26,1.21a2.15,2.15,0,0,0,.82,3.86Zm-70.54-.31a1.25,1.25,0,0,1-1.25-1.26.86.86,0,0,1,.5-.87c.28.63.66,1.24,1,2.08A.74.74,0,0,1,55.52,113.7Zm70.1-1.74a1.43,1.43,0,0,1-.48-2.27Zm-5-1,3-5.29-4.44-3.42-3.47,5.29Zm-73.3-.18a1.19,1.19,0,1,1,1.18-1.19A1.19,1.19,0,0,1,47.31,110.82Zm-5.44-1.64L41.1,108a1.9,1.9,0,0,0-1.51-3,1.86,1.86,0,0,0-.41,0l-.62-1,3.94,1.42Zm77.83-1.41a1.19,1.19,0,1,1,1.18-1.19A1.18,1.18,0,0,1,119.71,107.76Zm-79-.38-1.16-1.82h0A1.2,1.2,0,0,1,40.73,107.38ZM114,107.3l4.29-5.72-5.69-4.24.09,1.26,4.16,3-3.16,4.23Zm-62.62-1.93-5.66-1.79L47,97.93l1.33,2.23a1.89,1.89,0,0,0,1.9,3.18Zm61.67-1a2.14,2.14,0,0,0-.22-4.27.37.37,0,1,0,0,.72,1.42,1.42,0,0,1,.09,2.85l.1.71Zm-69.36-.61,1-6.53L38.3,95.87l-.48,5.93Zm80.19-.16-3-2.25,2.3-3.23.12.93a2.15,2.15,0,0,0,.5,3.77ZM49.6,102.8a1.26,1.26,0,0,1-1-2.08l1.22,2A1.25,1.25,0,0,1,49.6,102.8Zm20.24-.88c-.17,0-.41-.08-.36-.18s1.08-1.24,1.08-1.24l-.12-1.05-1.82,2.08-.73-.27,2.56-2.61.12-1L67.15,101l-1.45-.4,4-3.92L65.1,92.05l-4.57,4.68,3.24,3.56-1.6-.15a9.85,9.85,0,0,0-2.66-2.67l.12.93c.06,0,1.51,1.37,1.28,1.6l-1.28-.09c-1.5.41,1.83,1,5,1.5,1.67.07,6.52,2.22,5.36.57Zm53.86,0a1.42,1.42,0,0,1-.27-2Zm-82.32-1.14a1.19,1.19,0,1,1,1.18-1.19A1.18,1.18,0,0,1,41.38,100.83Zm77.6-.12L122.67,96l-4.18-4-4.28,5ZM36.19,99.5l-.29-.05V96.24l.45.1ZM65,98a1.19,1.19,0,1,1,1.18-1.19A1.18,1.18,0,0,1,65,98Zm53.44-.34a1.19,1.19,0,1,1,1.18-1.19A1.19,1.19,0,0,1,118.41,97.67Zm-5.69-.93L117.48,91l-5.11-5.31,0,1.19,4,4.19-3.72,4.36Zm-53.25-.52,4.9-5-4.89-5.09-.12,1.14,3.77,3.83L59.6,94.78Zm10.78-.52V94.34L67.16,91.2,70.31,88l0-1.37-4.46,4.63Zm-25.11-.59L39.36,94l.36-5.48,1.39,1.69a1.9,1.9,0,0,0,1.51,3,1.88,1.88,0,0,0,.83-.19Zm77.8-1-2.85-3L122.81,88l0,1.05a2.15,2.15,0,0,0,.08,4Zm-10.55-.76a2.15,2.15,0,0,0,0-4.18v.75a1.42,1.42,0,0,1,0,2.68Zm-41.83-.2c.88-.58.48-3.85,0-3.8a1.9,1.9,0,0,0,0,3.8Zm-11.18-.31a1.9,1.9,0,0,0,0-3.8C58.54,89.33,58.88,92.67,59.37,92.86Zm-16.76-.24a1.26,1.26,0,0,1-1.26-1.26,1.27,1.27,0,0,1,.17-.63L43,92.55A1.26,1.26,0,0,1,42.61,92.61Zm27.94-.08a1.26,1.26,0,0,1,0-2.53C70.49,90.45,70.79,92.58,70.55,92.53Zm52.34-.29a1.43,1.43,0,0,1,0-2.35Zm-63.52,0c-.16-.51-.35-2.62,0-2.53a1.26,1.26,0,0,1,0,2.53Zm5.71-1.84,4.6-4.6L65,80.95l-4.44,4.77Zm53.07-.25,4.12-4.47-4-5.18-4.66,4.66ZM140.49,90c-1.27,0-2.45-.22-2.93-1.07-1.94-2.61-1.38-8,0-9.82,3-2.75,4.73-3.48,8.13-2.85-.39,1.55,1.24,2.38,1.48,2,0,0,.16-.28,0-.29a1.17,1.17,0,0,1-.94-1.56c1.3,0,2.14,0,2.27.6.08.36-.13.91-.88,1.53s-5,.7-5,.7a4.54,4.54,0,0,1-.4,1.84c-.36.59-.86,1.25-.52,1.52a2.09,2.09,0,0,1,1.07,1.71c.16,1.61-.09,5.48,0,5.52C142,89.89,141.25,90,140.49,90ZM65.1,87a1.19,1.19,0,1,1,1.18-1.19A1.19,1.19,0,0,1,65.1,87Zm53-.46a1.19,1.19,0,1,1,1.18-1.19A1.18,1.18,0,0,1,118.13,86.52ZM59.47,85.4l4.81-4.93-5.13-5.33.16,1.45L63,80.4,59.4,84.19Zm10.86-.09.13-1.37-3.41-3.6,3.09-3.2,0-1.55-4.55,4.82ZM123,83.45l-2.72-3.84,3.24-2.85-.08,1.09a2.15,2.15,0,0,0-.31,4.07Zm-10.18-.76c.06-.8.11-1.44.15-2a2.15,2.15,0,0,0,.29-4c.06-.61.13-1.29.24-2.15l3.25,4.78Zm-76.88-.22-.11-13.41L26.12,59V21.2H65.87L76.11,38.55c.2.34.5.22.72.55l-3,16.3C69,53.18,65,58.91,67.61,63.54,52.88,69,35.92,82.47,35.92,82.47Zm23.52-.07a1.9,1.9,0,0,0,0-3.8C58.08,79.22,58.77,82.37,59.44,82.39Zm11-.11c.53-.6.82-3.83,0-3.8a1.92,1.92,0,0,0-1.89,1.9A1.89,1.89,0,0,0,70.44,82.28Zm-11-.52c-1-.74-.09-2.36,0-2.53a1.26,1.26,0,0,1,0,2.53Zm11-.11a1.26,1.26,0,0,1,0-2.52C70.37,79.33,70.76,81.56,70.44,81.64Zm52.72-.5a1.43,1.43,0,0,1,.2-2.52ZM113,79.87c.06-.91.1-1.66.16-2.42a1.43,1.43,0,0,1-.16,2.42Zm-47.86-.44,4.49-4.51L65,70l-4.44,4.72Zm53.35-1.17,4.7-3.79-3-4.66-1.05-.64-4.3,3.7Zm18.86-.31L126.3,72s2.87-1.21,2.79-3.13c-.11-2.15-1.4-3.91-3.95-3.25-.58.08-.85-.16-1.42-1.48-1.08-2.53-2.14-5.31-1.73-5.23a8.45,8.45,0,0,0,2.75,1.87,3.11,3.11,0,0,0,3.85-4.21c-.88-2.08-2.34-2.2-3.8-2-.21,0-.4-.29-.54-.56a22.3,22.3,0,0,1-1.72-5.22c-.85-4-1-9-.42-10.26.86-1.74,2-4.1,2-4.1,2.3,4.42,7.33,8.29,13,6.92.19-.12.23-.74,0-1.11-1.83-2.42-2.14-4.63-2.8-7-1.68-6.09-5.06-9.58-5-9l1.77-3.23s15.35-.08,21.64,0v7.42l-16.46,17,6.52.28-.23,29.22C140.16,75.45,137.36,77.95,137.36,77.95ZM65.07,76.08a1.19,1.19,0,1,1,1.18-1.19A1.18,1.18,0,0,1,65.07,76.08ZM119,74.87a1.19,1.19,0,1,1,1.18-1.19A1.19,1.19,0,0,1,119,74.87ZM70.35,73.78l-.12-1.17L67,69.2l3-3.06c.44-.6,1.55-.47,1.91-.51-.24-.75-.91-.66-1.6-.95l-4.35,4.48Zm0-2.65c.79-.25.65-3.61,0-3.8a1.9,1.9,0,0,0,0,3.8ZM59.2,70.62a7.76,7.76,0,0,1,0-2.53,1.26,1.26,0,0,1,0,2.53ZM70.3,70.5a1.26,1.26,0,0,1,0-2.53C70.47,68.26,70.75,70.46,70.3,70.5Zm38.9-.61a2,2,0,0,1,.65,0c.66,0,1.47.47,1.65.38s.14-.53.13-.72-.52-.24-.73-.37-.24-.29.13-.38.6-.1.81-.4.14-.52-.08-.51c-1.31,0-3,.56-4.54,0-.9-.32-1.48-.52-1.62-.4-.3.26.75,1.27,1.75,1.45s1.37.11,1,.42c-.17.16-.4.1-.42.21a.62.62,0,0,0,.46.68C108.75,70.29,109,70,109.2,69.89Zm-5.63-3.16a.9.9,0,0,0,.47-.24c.6-.4,1.53-.93,3.79-.31a6.07,6.07,0,0,0,3.44-.18,3.43,3.43,0,0,1,2.26,0c.71.34,1.48.86,1.34.33a13.18,13.18,0,0,1-.09-1.38c0-1.09-.1-2-.88-1.15-.34.37-.75.38-1.52.07-.55-.22-.93-.36-1.36-.09a2.19,2.19,0,0,1-2.23.12,1.9,1.9,0,0,0-1.75.22,1.48,1.48,0,0,1-2.24-.68c-.34-.56-.5.24-1.13,1.88C103.35,66.07,103.25,66.73,103.57,66.73Zm5.31-6.13c.6-.34,1.45-.45,2.06-.85,1.3-.9.08-1.65-.82-1.46a3.89,3.89,0,0,0-1.27.58c-1.62,1.08-2.52.92-2.67-.39s2-2.05,1.8-2.71c-.27-.43-1.32.16-2,1C104.07,59.46,106.2,62.12,108.88,60.6Zm-8.4-7.43a17.36,17.36,0,0,0,7.17-2.57c1.31-1,1.66-1.28,1.11-1.69s-.9-.39-.2-1.1a3.72,3.72,0,0,0,.67-.89c0-.51-3.11-2-4.89-2.27a11.43,11.43,0,0,0-4.79.51c-1.58.64-1.63,1.08-.14.64a11.36,11.36,0,0,1,4-.5,12.64,12.64,0,0,1,3.24.75c1.91.68,1.57,1.48-.35.8a9.61,9.61,0,0,0-7.64.21c-1,.47-1.32.83-1.5.67a1.81,1.81,0,0,1-.18-.36c-.07-.17-.07.44-.16,1.4-.08.8-.15,1.87-.15,1.87a3,3,0,0,0,.15-.66c0-1.39.65-1.4,2.56-.33,2.24,1.24,3.33,1.12,5.45,1.1.93,0,1,.26-.34.7-.62.21-1.58.54-3,1C100.24,52.81,99.93,53.24,100.48,53.17Zm16.87-2.81c-.81,0-1.54-.69-1.74-2l.81.06c.27,2,1.71,1.55,2.28.36l.71,0A2.53,2.53,0,0,1,117.35,50.36Zm-2.06-.12a4.71,4.71,0,0,1-1.95-.94c-.1-.25.48-.52,1-.67s.46-.2.65.15S115.69,50.21,115.29,50.23Zm3.89-.1A1.8,1.8,0,0,1,120,49a.4.4,0,0,1,.38.67c-.29.15-1.1.74-1.17.43ZM103.49,50a2.26,2.26,0,0,1-2.06-2.23H102c.48,2.56,2.44,2,2.88.16l.61.17c-.51,1.32-1.24,1.86-1.94,1.89Zm2-.18c-.28,0-.24-.21.09-.89.16-.32.27-.5.55-.49a1,1,0,0,1,.82.48c.13.3-.18.53-.83.74A3.35,3.35,0,0,1,105.51,49.85Zm-4.31-.19a3.36,3.36,0,0,1-1-.34c-1.32-.58-1.47-.82-.78-1.16a6.73,6.73,0,0,1,.76-.33c.62-.21.6.14.76.57.09.24.21.46.33.72S101.42,49.66,101.2,49.66Zm19.29-2.17a15.94,15.94,0,0,1-1.65-.63,6.83,6.83,0,0,0-4.57.27c-.75.24-1,.39-.71,0a6.09,6.09,0,0,1,2.55-1.24c2-.49,4.53.44,4.53,1.44C120.63,47.43,120.59,47.49,120.49,47.49ZM114,45.83c-.2,0,0-.3.41-.77a4.66,4.66,0,0,1,2.62-1.39c2.1-.37,3.84.2,3.86,1.38,0,.85-.14.86-1.17.33a6.83,6.83,0,0,0-4.45,0,7.85,7.85,0,0,0-1.15.48l-.11,0ZM97.88,44.69c1.59-.42,3.29-.85,4.83-1.15a9.88,9.88,0,0,1,5.33.6c.93.46,1.26.19.85-.71A2.83,2.83,0,0,0,107,41.81c-1.74-.61-5.8.38-8.83,2-1.76.79-1.42,1.26-.32.92Zm26.24-12-2.72,4.65c-18.42-3.59-38.34-1-44.44-.13,0,0-6.66-11.08-9.05-15-.23-.41-.84-1.82-.84-1.82l62.88.05c-.88,1.78-1.72,4.08-1.72,4.08,1.92.77,3.41,3.66,4.33,6.1.81,2.14,2.21,7.36,4.06,9.9C133.4,42.35,125.28,38.24,124.13,32.65Z"/><path id="path3302-0-9-2" class="cls-4" d="M67.6,20.9h62.28l-8.12,16.31a144.76,144.76,0,0,0-44.82.33L67.6,20.9Zm85.15,13.22.13,7.82-8.07-.18ZM84.65,86.7l-.09,23.73A101.85,101.85,0,0,0,74.82,104l.13-24.56Zm27.15,5.19c.57,13.42,2.52,18.66,3.78,25.46L104,124.86l0-27.55Zm31.58,23.54-.07,33.05c-10.62-15.35-17.32-30.95-19.17-52C127,95.31,129.84,94,132.8,93A137,137,0,0,0,143.38,115.43ZM35.87,101.82c9.81,12.53,15.66,29.23,18.75,49.81l-9,4.38c-3-7.26-6-15-9.78-21ZM74.21,124l0,27.64-7.67,5a128.72,128.72,0,0,0-3.78-25.52Zm20.18,14.55a48.84,48.84,0,0,0,9.07,5.62L103,168.68,94.32,162ZM33.55,207.63s-5.4,5.51-7.4,7.3l0-7.49Zm68,3.57,10.07,17.27L48.5,229l8.11-17.39C73.32,214.68,87.61,213.3,101.53,211.2Z"/><path id="path3300-3-9-0" d="M72.61,55.83a8,8,0,0,0-3.11,3.24c-1.09,2.16-.1,4.28-.43,4.29-2-.6-1.43-4.46-.73-5.66a4.18,4.18,0,0,1,2.91-1.94c1.16-.2,1.36.08,1.36.08Zm-3.28,8.44a.94.94,0,0,1,.85.34,1.66,1.66,0,0,0,1.05.61c.32,0,.46,0,.47.18s-.14.16-.66.12c-.32,0-1,.48-1,.48v36.48a43.45,43.45,0,0,0-10.39-2.26L59.43,67.7s-4.81,2.53-6.55,3.54l-.06,29.11-3.41.37,5.38,11c.75-.58,11.34.41,14,2.14l-9.66,6.06c1,3,1.87,5.88,2.69,8.93,0,.09.2.08.23.18.2.74.34,1.08.53,1.83,0,.14,0,.37,0,.51a111,111,0,0,1,3.79,25.31c0,.08-.34,0-.34,0l.06,5.22.34-.23,0,2.36-.35.35c0,.46,0,1.32,0,1.32l.45.28-.23,4-.46.07-.25,6.27,12.23-8s8,5.75,11.47,8.73c-3.84,2.63-4.86,7.75-5.81,12a71.51,71.51,0,0,0-1.57,11.2,109.85,109.85,0,0,1-1.45,11.28c-.31,1.48-.3,1.64.13,1.66.15,0,0,.06-.34.11-7.84.32-16.26-.86-23.74-1.84,0,0-1.85,3.47-2.49,4.74a17.77,17.77,0,0,0-.78-2,13,13,0,0,0-4.76-4.55,13.51,13.51,0,0,0-3.86-1.3,6.29,6.29,0,0,0-2.88.48c-.31.13-.55.29-.56.46s.24.33.56.63a4.63,4.63,0,0,1,.79,1.1,28,28,0,0,1,1.83,4.71c1.3,3.46,2.27,7.64,5.27,9.49l-2.07,4.16,65.08,0L102.51,212.3l-.4-.69c-.3-.54-.42-.46-.42-.46a176.32,176.32,0,0,1,2.82-17.61s.13.46,2,.43c5.6-.08,7.56-6.34,2.88-9.1-.44-.26-1.19-.77-1.93-1.16-.21-.11-2.9-1.69-2.9-1.69l3.22,1.45.23-37.53s6.71,2,11.13,2.22l0,32.54,6.17-3.35.28-29.1L129,148s-1.28-2.74-1.57-3.32c-.57-1.15-2-3.72-3-5.34-.35-.57-1.16-1.85-1.16-1.85a34.83,34.83,0,0,1-13.31-2.67l9.7-6.35c-4.05-11.48-9.1-28.28-6.29-55.39l-.68.43-.19,2.92-12.08,8.36L85.51,72.77l1.32,0c3.8.13,6.48-3.77,7.39-7,1.62-5.75,1.83-7.17,2.58-16.29A84.17,84.17,0,0,1,98.53,39a7.73,7.73,0,0,0,.33-1.9,90.78,90.78,0,0,0-21.43,1.88s-2.51,12-3.4,17a4.43,4.43,0,0,0-2.35-.68c-5.88.64-5.37,8.74-2.34,9ZM95.48,228.21,92.4,217.35l7.54-.7,6.26,11.48Zm-46.37.15,7.75-16.54c16.27,2.3,25.66,2.51,44.54-.17l9.82,16.49-2.58,0L101.23,215l-11,1.1,3,12-2.9.09-3-11.83-17,.09c-.55,4-1.62,11.71-1.62,11.71l-3.14,0,2.09-12-10-1.27-5.81,13.38Zm21.82-.15,1-10.06L86,218l2.25,10.17Zm-17,.19,4.78-11.94,7,.93-1.9,10.84Zm-8.58-11.7c-.31-1-.62-2-.7-2.22-1.14-3.09-1.6-4.12-2.34-5.15-.12-.17-.16-.15,0-.3,3.42-1.68,9.6,2.46,11.09,6.24-.19.37-1,1.9-1,1.9-.43-.85-.11-1.68-.39-2.44-.07-.32-.78,2.19-.78,2.19a7.23,7.23,0,0,1-.76-3.26c0-.33-.89,1.44-.89,1.44a7.81,7.81,0,0,1-1-4.07c-1.24,1.51-.47,2.38-2.38-1.48-.22.4-.11.83-.4.71a7.37,7.37,0,0,0-2.45-.8c.56.71,1.65,1.08,2,2a6.44,6.44,0,0,0-.92,0,7,7,0,0,1,2.66,2c-.22.08-1.1-.07-1.07,0,1.33,1.2,3.31,2.18.44,1.9,1.87,1.32,4,2.24.71,2.14,2.32,1.1,2.94,1.78,2.51,2a5.44,5.44,0,0,0-2,0c1.86.76,2.63,1.11,2.7,1.36s-.79.47-1.4,1.13c0,0,.75-.17,1.08.18,0,0-.37,1.05-.64,1.66C46.84,221.74,45.91,218.68,45.29,216.71Zm-20,4.2,15.66-17-5.07-.08-.23-30.72c-1.76-.24-4.83,0-6-1.19-.72-1.07,2.06-3.17,3.63-2.73a6.34,6.34,0,0,0,2.34.06l-.11-34.23c3.34,6.24,5.9,10.19,9.6,21-1.07.75-2.18,1.33-2.36,1.45,1.42,3.45,2.41,8.87.42,13.6l-1.37-.82a16.09,16.09,0,0,0-.27-11.09l-.38.4a11,11,0,0,1,.67,1.66,9.88,9.88,0,0,1,.57,2.81A15.28,15.28,0,0,1,42,169c-.15.48-.36,1.2-.47,1.41a2.35,2.35,0,0,0-.21.48c4,1.64,6.92,4,10.39,5.76l.33.17c.44.25.32.33-.36.61-1.45.58-2,1.28-2,2.7,0,2,1.12,2.8,3.46,2.66.85,0,.9,0,1.06.26.35.68,1.58,3.4,1.58,3.5a13.13,13.13,0,0,0,.57,1.36,16.77,16.77,0,0,1,1.26,3.35c.11.57.44.79.52.2a33.15,33.15,0,0,1,2.3-9.22,10.53,10.53,0,0,0,.56-1.45c-.11-.09-2-1-2.84-1.33-3.4-1.41-4.95-2.28-4.42-2.49.37-.15.5-.4.59-1.13.24-1.91.22-2.88-.1-3.49s-.33-.68.22-1,.37-.31.5-1.9a20.75,20.75,0,0,0,0-3.09l-.85-1.09.86-1.08.2-5L54,158.28l1.09-1.08-.39-4.52a2.21,2.21,0,0,1,.33-.62c-1.84-19.1-9-38.35-19.63-51.47l-.11-31.38L24.88,58.69Zm.82-2v-2.47L35,206.8l-8.87-.16v-2.1l13.62,0Zm.14-4.2,0-6.93H32.9Zm60.87-3.49-1.38.06c.05-1.4.6-7.84,1.26-13.49.74-6.36,2.26-11.86,2.55-11.86l1.34.81C88.71,194,88.12,203.43,87.15,211.2Zm-6.28.2c.19-3.94,1-6.7,1.27-11.36.31-5.69,1.28-12.78,3.83-18.65a8.72,8.72,0,0,1,4.66-4.71c3.9-1.54,7.21,3.32,4.57,6.89-2.08,2.82-5.34,2.79-6.33-.07-.82-2.36,1.81-5.33,3.91-4.41,1.46.64,1.08,3.28-.55,3.9-.68.26-1.25-.61-.92-1.38.26-.61.29-1-.07-.73-1.48,1-.37,3.55,1.47,2.61,2.45-1.25,2-4.91-.43-5.07-3.12-.31-5.54,3.56-7.08,10.91-1.69,8.22-1.27,15.59-2.9,22Zm4-.14-1.64,0c.13-.61.15-1.26.27-2,.65-4.31,1-10.61,1.69-15.55.94-7,2.61-11.2,2.66-10.68a7.42,7.42,0,0,0,1.12,2.2,52.8,52.8,0,0,0-2.81,12.81C85.65,202.72,85.51,207,84.87,211.26Zm7-.4-1.44.07a155.19,155.19,0,0,1,2.7-21.2c.25-1.08.33-1.55.53-1.64s.6.27,1.52.78C93.81,188.68,92.69,204.57,91.89,210.86Zm-2.25.13-1.56.15c.23-3.34.79-8.59,1.42-13.32.76-5.72,1.75-10.79,2.25-10.71l1.3.45C92.18,187.29,90,204.36,89.64,211Zm3-.16c1-7,1.12-15.16,3.24-21.68l1.47.68c-.4-.13-1.44,4.25-1.8,9.2-.31,4.31-1.08,9-1.31,11.61Zm2.42-.26c.58-2.47.58-6.11,1-9.14.54-3.76,1.12-11.39,2-11.21l1.5.76c-.79-.24-2.16,14.22-3,19.35ZM99,210l-1.52.21c.73-5.64,2.05-18.8,2.84-18.9l1.42.76A173.36,173.36,0,0,0,99,210Zm.94-.22c.63-6.2,1.22-12.49,2.54-17.31l1.56.71s-1.08,5.31-1.59,9-.58,4.2-.74,5.16a10.12,10.12,0,0,1-.45,2.19Zm-66.74-6.36.15-29.79,1.73.07L35,203.43Zm-4.08-.24A1.19,1.19,0,1,1,30.28,202,1.18,1.18,0,0,1,29.1,203.15Zm27.83-10.93c-1.22-2.25-2.16-3.07-3.24-3.5A2.9,2.9,0,0,0,50,192.52c.51,1.41,1.81,1.62,3.47,1.34,0,0,.71.51,1.55,3.06A52.61,52.61,0,0,0,57.59,203C57.69,199.25,58.58,195.31,56.92,192.22Zm-29.57,8.17a1.19,1.19,0,1,1,1.18-1.19A1.19,1.19,0,0,1,27.35,200.38Zm3.24,0a1.19,1.19,0,1,1,1.18-1.19A1.18,1.18,0,0,1,30.59,200.34Zm26.47.29c-1.1-2.29-1.33-4-2.39-6.08-.46-.9-.88-1.68-.88-1.68-3.47,1.64-4.81-2.49-2-3.81s5.89,3.64,5.59,9A19.79,19.79,0,0,1,57.06,200.62Zm-28-3.08a1.19,1.19,0,1,1,1.18-1.19A1.18,1.18,0,0,1,29,197.54Zm-3.13-2.23v-2.54l6.17-6v2.46Zm81.12-2c-1.18,0-1.75-.37-1-.68,2.59-1,3.74-2.68,3.88-5.56,0-1.46-.17-1.65.72-.84C113,189.48,109.67,193.37,107,193.35Zm-2.17-1a2.5,2.5,0,0,1-.86-.12c-.69-.22-.44-.24.73-1,2.23-1.49,2.91-2.95,3-5.93,0-.45-.06-.82,0-1s.2-.1.31-.09c.43.07.69.52.81.91C110.26,187.89,107.64,192.2,104.87,192.31Zm-2.42-1a1.08,1.08,0,0,1-.5-.1c-.55-.27-.34-.31.65-1a7,7,0,0,0,2.86-5.23c.13-1.34-.9-2.93.92-1.62,1.28,1.07,1,3.84-.33,5.74A5.66,5.66,0,0,1,102.45,191.32Zm-76.54.58V189l6.17-5.89v3Zm74.56-1.51c-.7,0-1-.46-.2-1a7,7,0,0,0,3.08-6.19c-.11-1.52-.17-1.79.79-.79,1.55,1.62.46,6-2.55,7.65A2.41,2.41,0,0,1,100.47,190.4Zm-2-.84c-1.15,0-1.31-.56-.28-1.28a7.64,7.64,0,0,0,3.24-6c0-1,.07-1.15.52-.81,2.27,1.74-.16,7.82-3.24,8.09Zm-40.57-.19c-.28,0-.78-1-1.57-3.13A21.49,21.49,0,0,0,54,181.56a1.87,1.87,0,0,0-.77.27c-2.59,1.37-4.41-2.51-1.86-4,1.82-1,3.53.07,5.11,3.28,1.86,3.79,2.37,6.59,1.47,8.11A.15.15,0,0,1,57.85,189.37Zm38.47-1a1.75,1.75,0,0,1-.9-.19c-.67-.35-.57-.61.46-1.21A5.22,5.22,0,0,0,98,185a5.43,5.43,0,0,0,1.11-3.86q0-2.28,1.35-.25C102,183.19,98.86,188.22,96.32,188.33ZM93.74,187c-1,0-1.69-.39-.71-.91,3.09-1.64,4.4-4,3.8-6.91-.19-.91.85-.14,1.48,1.1.92,1.81-.78,5.31-3.08,6.38a3.82,3.82,0,0,1-1.48.34ZM58.81,184.3c-.19,0-.42-.53-.91-1.81-.32-.83-.76-1.83-1-2.21a2.13,2.13,0,0,1-.32-.8c.17-.29,1.61.21,2.09.72a3.77,3.77,0,0,1,.48,3.63C59,184.14,58.93,184.31,58.81,184.3ZM29.1,182.11a1.19,1.19,0,1,1,1.18-1.19A1.18,1.18,0,0,1,29.1,182.11Zm121.12-1.92A1.19,1.19,0,1,1,151.4,179,1.19,1.19,0,0,1,150.22,180.19Zm-48.8-.36c-1.29,0-1.69-.57-1.91-2.54-.15-1.35-.44-1.48-2.55-1.12s-3-.23-3.14-2.56c-.13-1.84-.11-1.83-2.65-1.85s-2.77-.27-3.05-2.85c-.21-1.91-.14-1.86-2.6-1.83-2.72,0-3-.17-3.15-2.59-.15-2-.28-2.09-2-1.95a35.9,35.9,0,0,1-5.37,0c-1.45-.32-1.51-.26-1.82,1.71-.41,2.59-.92,2.91-4.08,2.59-1.55-.16-1.73-.12-2,1.25-.29,1.83-.66,2.37-.66.78,0-4,.28-4.2,2.94-3.49,2,.54,2,.12,2.24-1.81.18-1.71.47-2.41,1.09-2.68a6.68,6.68,0,0,1,2.77.16,30.37,30.37,0,0,0,3.64.09c4.43,0,4.48-.06,4.47,3.07,0,1.32.29,1.6,2.6,1.53,2.91-.09,2.76-.17,3.25,3.35.17,1.22.27,1.26,2.68,1.23,2.62,0,3.22-.08,3.07,2.15-.14,2,.35,2.55,2.54,2s2.78.45,3,2.26.35,1.26,1.46,1.34,1.09,1.49-.22,1.62C101.81,179.8,101.61,179.83,101.42,179.84Zm-74.15-.61A1.19,1.19,0,1,1,28.45,178,1.18,1.18,0,0,1,27.27,179.23Zm3.32-.07A1.19,1.19,0,1,1,31.78,178,1.19,1.19,0,0,1,30.6,179.16Zm117.85-2a1.19,1.19,0,1,1,1.18-1.19A1.19,1.19,0,0,1,148.45,177.18Zm3.32,0a1.19,1.19,0,1,1,1.18-1.19A1.18,1.18,0,0,1,151.76,177.16Zm-61.71-1-12.28-9.21-11.62,7.82.07-2.85,11.54-7.72,14.57,11.34ZM28.94,176a1.19,1.19,0,1,1,1.18-1.19A1.19,1.19,0,0,1,28.94,176Zm20.11-1.56-2.91-4.76L49,167.58l-2.65-3.4,2.85-2.94-3.14-2,2.93-4.11,4.06-1.81-4.06,5.36L52.41,161l-3.19,3.45,2.86,3.77-3,2.33,3.2,5.28-.21.25Zm53.83,1.05L81.31,159.28s-2-1.51-2.56-1.87c-1.21-.77-1.45-.46-2.66.37-2.73,1.63-9.32,6.14-9.32,6.14l.05-2.34s6.64-5,10.31-7.07a1.36,1.36,0,0,1,1.47.28c8,6.38,16.21,12.57,24.33,18.82Zm-49.57-.26c-.09-.16-.38-.22-.52-.44-1-1.49-2.69-4.13-2.69-4.13l3-2.42-2.79-3.68L53.83,161l-3.55-2.43a34.49,34.49,0,0,1,3.88-5l0,2.64L52.77,158l1.64,1.13v3.63l-1.66,1.76,1.52,1.55L54,170l-1.45,1.16,1.2,1.65Zm96.87-.81a1.19,1.19,0,1,1,1.18-1.19A1.19,1.19,0,0,1,150.18,174.44Zm-124-4.33,6-5.58v2.53l-6,5.92Zm120.6,2.72v-3.06l6.41-6v3Zm-120.6-3.51v-3l6-5.67v3Zm7.06-.48-.12-98.64-7-7.41V60.34l8.82,9.19.2,99.25Zm113.54.29v-3.43l6.41-5.88v3.23Zm-43.84-.63-8.48-6.63,0-23.13a54.37,54.37,0,0,0,8.79,5.46Zm-74-7.48a1.19,1.19,0,1,1,1.18-1.19A1.18,1.18,0,0,1,28.94,161Zm62.94-1.13,0-23.6,1.67,1.53.1,23.41Zm57.89-.23a1.19,1.19,0,1,1,1.18-1.19A1.18,1.18,0,0,1,149.76,159.68ZM27.36,158a1.19,1.19,0,1,1,1.18-1.19A1.18,1.18,0,0,1,27.36,158Zm3.36-.15a1.19,1.19,0,1,1,1.18-1.19A1.18,1.18,0,0,1,30.72,157.85Zm60.21.11-5.17-4.86L91.08,148l0,2.34-3,2.87,3,3.11Zm-2-.43-4.31-3.2.67-.82Zm59.05-.72a1.19,1.19,0,1,1,1.18-1.19A1.18,1.18,0,0,1,148,156.81Zm3.46-.06a1.19,1.19,0,1,1,1.18-1.19A1.19,1.19,0,0,1,151.47,156.76Zm-84.73-.43c-.83-9.44-1.41-16-3.83-24.88l11.15-7.17L74,151.62ZM36,134.72l0-32.43c10.52,15.06,16.2,32.66,18,49.34,0,0-5.65,2.62-8.39,4.22C42.78,149,44,149,36,134.72ZM28.79,155A1.19,1.19,0,1,1,30,153.76,1.19,1.19,0,0,1,28.79,155Zm120.92-1.28a1.19,1.19,0,1,1,1.18-1.19A1.18,1.18,0,0,1,149.71,153.68Zm-65.8.11-4.1-3.14v-2.38l4.9,4.74Zm1.4-1.26-5.12-5.09,5.37-5.39,5.29,5Zm-38.56-.18,4.94-2c-1.89-17.21-6.79-30.11-13.4-40.57l-.15,24.14C41.56,139.31,44.14,145.85,46.76,152.35ZM26,152v-2.71l6.15-5.67v2.7Zm59.32-1.49,3.26-3.2-3.29-3.2-3.16,3.2Zm61.43.35V148l6.1-5.93v3.06ZM78,149.25,78,121.7l1.36-.65-.09,28.78Zm7.34-.42-1.48-1.5,1.55-1.57,1.46,1.5ZM26,148.54v-3.12l6.15-5.77.1,3Zm68-11.71c-6.34-5.52-11.22-13.9-16.57-18.58a39.12,39.12,0,0,0-10.31-5.74,29.28,29.28,0,0,0-9-1.51c-2.57,0-2.58-.06-2.58-.06L54.42,109l1.8,0,.12-6.87a32.53,32.53,0,0,0-5.62.24l-.67-1.25a45.28,45.28,0,0,1,33.66,9.6c3.52,2.91,6.37,6.46,9.85,11.63,6.7,10.5,18.49,15.58,29.48,15.69l.91,1.42-1.84-.06a30.71,30.71,0,0,0-.21,3.57c0,2.53,0,3,.18,3a24.73,24.73,0,0,0,5.22-.1l.83,1.48c-13.1,1.36-26-3.23-34.14-10.59Zm52.74,10.37v-2.82l6.1-5.79v2.83ZM79.67,147l.16-2.52,2.91-2.89-3.09-3,.07-2.11,5.46,5.09Zm39.86-.9c.28,0,.45,0,.48-.08s0-1.21.27-5.13c.09-1.44.19-1.44-1-1.59-1,0-3.26-.62-4.76-.79-1.26-.17-1,.22-1.35,1.23s-.6,2.09-1.08,3.68-.24,1.5,2.6,2A35.67,35.67,0,0,0,119.53,146.06Zm-28.38.24-4.94-5,4.86-5,.08,2.4a33.83,33.83,0,0,0-2.88,2.74l2.87,2.94Zm24.77-1.61-.53-.88-1.27-.21.22-.89-.65-.92.8-.6,0-1.11,1,0,.87-.62.68.87,1,0-.05,1.24.65.55-.77.7.1,1.1-1.23-.21Zm8-1.49-.78-.52.8-.55,0-.85.49-.42,1.79,3.53-1.16-.48-.89.59Zm-14.38.82c.63,0,.71-1.18,1.39-3.38.95-3.08,1-2.79-.8-3.43-.81-.29-2.36-.81-3.17-1.2-2-.94-2-.94-2.75.34-.33.57-1,2-1.4,2.69-1.09,1.81-1.12,1.72.89,2.69,1.18.57,1.9.81,4.39,1.82A4.65,4.65,0,0,0,109.56,144Zm-2-2-.87-.55-1,.41-.2-1.06-1.07-.42.3-1-.47-.78.91-.18.66-1.44,1,.71,1.06-.39.29.79,1.09.53-.39.88.54,1.18-1.24.1Zm-21.9-1.08-5.45-5.37,5-5,5.45,5.39Zm-56.87-1A1.19,1.19,0,1,1,30,138.73,1.18,1.18,0,0,1,28.8,139.92Zm71.43-.26c.32,0,.5-.3.77-.86.12-.24.79-1.5,1.41-2.48,1.4-2.21,1.4-2.09,0-3a30.61,30.61,0,0,1-3.13-2.56c-1.09-1-1-.75-3.31,1.6-1.53,1.54-2.47,2-1.87,2.78,1.45,1.25,2.63,2.16,4.2,3.35C99.34,139.29,99.87,139.66,100.23,139.66Zm-14.81-.6,3.22-3.17L85,132.59l-3,3.1Zm55.08,1.08,0-24.78c-3.54-6.08-7.16-12.21-9.05-19.05l-5.19,2.56c2.48,20.25,8.25,31.47,14.28,41.28Zm9.23-1.56a1.19,1.19,0,1,1,1.18-1.19A1.18,1.18,0,0,1,149.72,138.58Zm-64.35-1.32-1.55-1.43,1.43-1.56,1.57,1.63Zm-58-.23a1.19,1.19,0,1,1,1.18-1.19A1.19,1.19,0,0,1,27.35,137Zm3.17-.12a1.19,1.19,0,1,1,1.18-1.19A1.19,1.19,0,0,1,30.52,136.9Zm69,.08-.9-.67-1.05.45-.08-1.25-1-.47.6-.88L96.75,133l1,0,.81-1.06.72.7,1.41-.1.22,1.21.61.48-.47.8.35,1.07-1.21.08Zm52-1.32a1.19,1.19,0,1,1,1.18-1.19A1.18,1.18,0,0,1,151.46,135.66Zm-3.4,0a1.19,1.19,0,1,1,1.18-1.19A1.19,1.19,0,0,1,148.06,135.62Zm-68.35-2.83,2.81-2.64-2.77-2.91.08-2.23,4.92,4.94-5,4.94Zm27.83.57,10.56-7,.64,1.76-9.42,6.2ZM29,133.94a1.19,1.19,0,1,1,1.18-1.19A1.19,1.19,0,0,1,29,133.94Zm63.34-.72c.49,0,1-.62,1.94-1.63s2-2.16,2.26-2.33c.73-.52.7-.64-.58-2.09-.39-.44-1.12-1.33-1.63-2s-1.32-1.48-1.48-1.65c-.52-.55-.8-.43-3.19,1.29-2.89,2.09-2.88,1.78-.22,5.23C90.93,132,91.66,133.27,92.29,133.22Zm57.47-.73a1.19,1.19,0,1,1,1.18-1.19A1.18,1.18,0,0,1,149.76,132.49Zm-62-.43L85.88,130l.17-.21Zm-61.72-.46V128L32,122.57v3.26Zm65.86-1-.71-1-1.21.08.18-1.16-.64-.47.63-.88.05-1.11,1,.24.82-1,.81,1,1-.11,0,1.16,1,.55-.68.75,0,1.3-1.41.05Zm-29.1-.07-.59-1.8L77,119.06l1.29,1.48Zm38.49-1.21-1.17-.89,15.43-10,.46,1.3Zm45.14.38v-3l6.51-6.31v3.06ZM85.36,129l-.19.16-5-4.87,1-1Zm13.94-1.43-.14-28.78,1.35.94-.1,27.3Zm-.83-.67-1.09-1,1-1Zm-72.4.25v-2.92L32,118.57v3.05Zm120.4-1.4V123L153,116.7v2.77Zm-60.68-.37a1.09,1.09,0,0,0,.62-.32c.24-.19.83-.6,1.31-.92a26.29,26.29,0,0,0,3.34-2.4c.14-.33-1.64-2.66-4.11-5.46-1-1.1-.94-1.31-1.92-.33-.77.88-3.61,3.3-3.53,3.95s1.13,1.58,3.55,4.87C85.39,125.13,85.58,125.32,85.8,125.33Zm10.93-.3-3.87-5.57.52-.52,4.75,4.71Zm7.56-.66V97.52l7.27-5.19c-.13-.07.89,16.13,3.67,24.77Zm-18.07-.95-.71-1.33-1.08.18.14-1.23-.91-.72.9-1.25-.12-.89,1.06.24,1-1,.66,1.27,1.39,0-.19,1.22,1,.82-1.06.63-.15,1.12-.91-.08Zm-6.3-.21-.12-1.1.65.57Zm18.58-2v1.57l-4.63-4.5,4.73-4.46,0,2.12-2.69,2.58Zm-38.29.87-.66-2,9.52-5.89,1.92,1Zm-31.35-3.31A1.19,1.19,0,1,1,30,117.64,1.19,1.19,0,0,1,28.85,118.83ZM89.43,115l3.34,3.37-.42.46Zm-8.62,3c1.13-1,3.55-3.78,3.55-4.25S81,110.37,79,109.08c-.63-.4-.88-.42-1.13,0-3.48,5.22-3.62,5-2.25,6.06a37.94,37.94,0,0,0,4.15,3.23C80.25,118.55,80.33,118.41,80.81,118Zm12.53-.25-5.51-5.32,5.11-5,5.3,5.63Zm56.28-.4a1.19,1.19,0,1,1,1.18-1.19A1.18,1.18,0,0,1,149.63,117.33ZM80,116.26l-.93-.83-1.11.29-.25-1.1-1.07-.39.57-1.12-.08-1.41,1.07.2.74-1.16,1.09,1.1,1.25-.11L81.22,113l1.11.54-.7.81.44,1.11-1.32-.21Zm-52.7-.5a1.19,1.19,0,1,1,1.18-1.19A1.18,1.18,0,0,1,27.28,115.77Zm69-2.8L93,109.61l-3,2.9,3.18,3.38Zm-65.7,2.75a1.19,1.19,0,1,1,1.18-1.19A1.18,1.18,0,0,1,30.54,115.72Zm120.72-1.24a1.19,1.19,0,1,1,1.18-1.19A1.19,1.19,0,0,1,151.26,114.49Zm-3.46,0a1.19,1.19,0,1,1,1.18-1.19A1.19,1.19,0,0,1,147.8,114.47Zm-54.65-.26-1.49-1.54L93,111.21l1.54,1.59ZM73,113.15c.76-.55,2.83-4.48,3.18-5.35a6,6,0,0,0-2.24-1.43c-1.06-.5-4.5-1.89-4.82-2-.69-.17-.81.1-.93.55-.06.24-.33,1.15-.64,2.15-1.07,3.48-1.38,3.32.2,3.85.55.18,2.26.76,3.34,1.27S72.63,113.16,73,113.15Zm-44-.63a1.19,1.19,0,1,1,1.18-1.19A1.19,1.19,0,0,1,29,112.52Zm56.38-1.63-.19-23.34L87,89l0,23.42Zm8.12-4,5-5.13,0,2.61L95.69,107l2.86,3-.06,2A62.77,62.77,0,0,1,93.45,106.92Zm56.2,4.48a1.19,1.19,0,1,1,1.18-1.19A1.18,1.18,0,0,1,149.65,111.4Zm-77.39.05-1-.85-.85.51-.49-.87-1.22-.17.54-1.33-.71-1,1.19-.22.29-1.42,1.16.69.88-.38.64,1.2,1.38.06-.75,1.31.71,1L73,110Zm15.48-.09V109.3l2.18-2.22-2.19-2.4v-2.39l4.54,4.64ZM64.47,110c.46,0,.46-.5.81-2.08.08-.34.32-1.26.54-2,.66-2.36.74-2.41-1.29-2.81-1.18-.18-6.29-1.37-6.39-.55-.13,1.39-.21,4.67-.23,5.78,0,.37,0,.73.41.77,2.33.28,4.92.89,6.16.94Zm19.9-.1a101.48,101.48,0,0,0-9-5.84l-.08-24,9.15,6.85Zm-58.23-.07v-2.94l6.1-5.86v2.81Zm35.73-1-.53-1.14-1.11.37v-1.36l-1-.63,1.19-.55.11-1.66,1.21.38,1-.62.88.93,1.08,0-.4,1.47.7.67-1,.5-.08,1.31-1.08-.65Zm84.48.22v-2.84L153,100v2.48Zm-92.79-1.78-1.49-2.53.54-1,1,.49,1.1-.41-.17,1.35.85.68-.86.79,0,1Zm39.32-.84-5.09-5.3L93,95.73l5.09,5.38ZM26.14,103.1l6.1-5.7v2.77L26.14,106Zm120.2,2.32v-2.77L153,96.39V99Zm-53.48-1,3.31-3.29L92.9,97.83l-3.31,3.23Zm0-1.89-1.42-1.46,1.35-1.41,1.46,1.43Zm5.68-2-5-5.21.58-.69,4.47,3.49Zm-10.83-.42-.13-2.35,2.75-2.36-2.51-2.65-.07-2.44,4.79,5ZM28.86,97.71A1.19,1.19,0,1,1,30,96.52,1.18,1.18,0,0,1,28.86,97.71Zm120.65-1.43a1.19,1.19,0,1,1,1.18-1.19A1.18,1.18,0,0,1,149.51,96.27Zm-24.16-.73,3.72-5.6-2.93-2,2.78-3.76L126,80.71l2.91-2.51-3-5.08a14.84,14.84,0,0,1,3.45,1.57l2.23,4.26-2.56,2.22,2.6,3L129,87.44l2.73,1.93-3,4.61Zm-97.9-.75a1.19,1.19,0,1,1,1.18-1.19A1.18,1.18,0,0,1,27.45,94.8Zm73.24.09L75,75l.11-2.64L100.8,92.19l10.91-7.75-.1,2.82Zm-70.1-.25a1.19,1.19,0,1,1,1.18-1.19A1.18,1.18,0,0,1,30.59,94.64ZM90.42,92.1l.27-.05,2.8,2.06-.61.69S91,92.75,90.42,92.1Zm57.34,1.15a1.19,1.19,0,1,1,1.18-1.19A1.19,1.19,0,0,1,147.76,93.24Zm3.18,0A1.19,1.19,0,1,1,152.12,92,1.19,1.19,0,0,1,150.94,93.23ZM28.86,91.66A1.19,1.19,0,1,1,30,90.47,1.19,1.19,0,0,1,28.86,91.66Zm120.66-1.31a1.19,1.19,0,1,1,1.18-1.19A1.19,1.19,0,0,1,149.52,90.35ZM26.14,88.14V85.51l5.76-5.62v2.53Zm77.8-.79c-.86,0-2,0-3.55-.09-1.32,0-2.79-.08-3.25-.06-1.83,0-2.43-.58-2.46-2.57,0-1.77,0-1.76-2.33-1.86-2.78-.12-3.51-.83-3.55-3.47,0-1-.84-1.43-2.46-1.2-2.55.36-3,0-3.34-2.37-.25-2-.11-1.89-2.45-1.87-2.51,0-3.07-.41-3.1-2.35,0-1.13-.29-1.47-1.26-1.55s-1.48-.63-1-1.16a3.14,3.14,0,0,1,1.33-.17c1.6,0,2.13.48,2.43,2.33.21,1.28.34,1.35,2.46,1.29,2.71-.08,2.93.09,3.22,2.47.25,2,.59,2.25,2.93,1.81,1.7-.32,2.6.43,2.82,2.35.25,2.16.34,2.23,2.75,2.32s3.08.51,3.1,2c0,2.26.32,2.46,3.28,2.37a32.79,32.79,0,0,1,3.76.07c1.8.19,1.79.2,2-1.54.27-2.59.65-2.83,4.06-2.58,1.42.11,1.53,0,1.62-1.05.12-1.37.62-2.21,1-1.69.2.27.2.29,0,2.29-.23,2.24-.25,2.25-3.15,2-2-.15-1.87-.22-2.08,1.57C106.48,86.82,106.52,87.32,103.95,87.35Zm42.3.2V84.68L153,78.39v2.79Zm-20.93-3.38-1.47-2,.48-3.74,1.25-.94-.88-1.78.28-2.19.35-.2,2.45,4.77-2.89,2.56,3,3.64-2.8,3.8,2.91,2.05-3.49,5.17c-.61.74-.64-2.2-.64-2.2l1.45-2.2-1.62-1.41h0V86Zm-1.85,1.7-.16,4.69,1.26,1-1,1.63.07,4.16.29.2c2.43,29.77,16.92,47.36,19.19,51.35a1.63,1.63,0,0,1,.41,1.43c0,.44-.06,3.07,0,5.83.09,14.11,0,23.78,0,23.78l10.65,11.42-.06-4.18-.52-.38v-19l.44,0s.14-5.12.1-8.63l-.63,0,0-13.07.54-.06,0-8.47h-.59s-.14-8.88.07-13.2l.44,0,0-8.42-.5,0,0-12,.61-.09-.17-7.95-.5,0c-.18-4.91-.09-13.4-.09-13.4l.57,0-.14-7.89-.41,0,.12-13.85.37,0-.14-8.18-.4,0,.07-6.81.28,0,.07-2.54-.29-.67,0-9.07.22-.1.07-4.55-16.52,16.8,6.08.18v5.43c0,9-.12,16.19.15,24.93a4.32,4.32,0,0,0,1.34.21c3.13.18,4,.44,4,1.19,0,.93-1.41,2.09-2.58,2.11a2,2,0,0,0-.71.27l.38,99.42,7.39,7.79,0,2.47-9.11-9.7-.34-99.36-.35.16,0,33.37c-4.67-7-7.29-14-9.88-20.94l-1,.34s.33.12.33.12a81,81,0,0,0,10.35,22.07L143,147.64c-11.13-15.81-16.51-30-18.75-50.53l5.63-2.83.55-.73,4.25-2.14.41.68,2.58-1.8c-2-3.5-1.92-8.52-.29-11.18l-.7-.44A13,13,0,0,0,137,89.84L135,91c-2.77-5.76-1.49-12-.18-13.57,0,0-2-1.29-3.45-2.07a26.7,26.7,0,0,0-4.84-2.25,1.9,1.9,0,0,0-1.89.09l-.56,3.22.89,1.23-1,.84-.47,4.93,1.12,1.14ZM26.14,84.55V81.38l5.76-5.49V79Zm120.11-3.4L153,74.94v2.58l-6.74,6.36ZM28.44,76.93a1.19,1.19,0,1,1,1.18-1.19A1.19,1.19,0,0,1,28.44,76.93ZM143.56,75V45.72h1.78l-.08,29.65Zm5.95.27a1.19,1.19,0,1,1,1.18-1.19A1.18,1.18,0,0,1,149.51,75.27ZM30.12,74.14A1.19,1.19,0,1,1,31.3,73,1.18,1.18,0,0,1,30.12,74.14Zm-3.18-.05a1.19,1.19,0,1,1,1.18-1.19A1.18,1.18,0,0,1,26.93,74.09ZM147.66,72.3a1.19,1.19,0,1,1,1.18-1.19A1.19,1.19,0,0,1,147.66,72.3Zm-60.81,0c-6.15-.77-4.52-7.26-1.93-8.61,3.53-1.65,6.36,1.68,4.1,5.05-1.65,2.48-4.8.84-3.59-1.88.68-1.53,2.1-1.35,2.09.2-.51,1.47,0,.95.35.43,1.25-1.63-1.27-3.36-2.56-1.75a3.44,3.44,0,0,0-.69,3.09c.46,1.6,2.3,2.53,4.37,1.05,2.48-3,3.81-6.86,4.54-11.19,1.56-9.21,1.64-18.91,3-21.37l1.46,0c-2.12,10.54-2.13,19.57-4.39,27.88-1.12,4.12-4,7.05-6.75,7Zm64-.05A1.19,1.19,0,1,1,152.07,71,1.19,1.19,0,0,1,150.89,72.22Zm-25-.16a3.13,3.13,0,0,0,3.14-3.11c-.15-2.1-1.39-3-3.42-2.82-1.09.11-1.06.13-1.79-1.19a38.4,38.4,0,0,1-2.41-7c.83,1.11,2.78,3.18,4.58,3.09s3.56-2,2.1-4.59a2.9,2.9,0,0,0-3.56-1.11c-2.1-3.29-2.5-6.58-3.17-10.4,0,0-.83,8.17-1.08,11.44-.48,5-1.16,8.24-3.08,12.2a35.87,35.87,0,0,0,5,2.33,9.42,9.42,0,0,1,2.09.72A2.64,2.64,0,0,0,125.93,72.05Zm-97.62-.67a1.19,1.19,0,1,1,1.18-1.19A1.18,1.18,0,0,1,28.31,71.39Zm94.3-2.62a17.41,17.41,0,0,1-2.51-6.66,24.38,24.38,0,0,1,.39-4c.1-.68.35,0,.82,1.45,1.91,6.08,2.42,7.25,3.75,6.94a3.09,3.09,0,0,1,2.06.08c1.68.93,1.84,4.07-.62,4.67C124.55,71.64,123.3,69.9,122.6,68.77Zm0,1.51c-2.45-1-4-2.43-3.57-4.82.2-.9.33-1.63.57-1.54s.66,1.19,1.42,3C121.23,67.55,123,70.26,122.65,70.28Zm-40.58-.1q-.19,0-.61-.36c-1.93-1.91-.88-6.23,1.69-7.47,1.06-.73,3-.61,3,.1,0,.28-.06.35-.33.35-2.17,0-4.47,3-3.83,6.23C82.09,69.51,82.24,70.15,82.07,70.17Zm67.39-1a1.19,1.19,0,1,1,1.18-1.19A1.18,1.18,0,0,1,149.46,69.13ZM80,68.76a1.51,1.51,0,0,1-.92-.56c-1.82-2.21-.34-6,2.52-7.25,1.09-.59,2-.18,1.78.43a5.86,5.86,0,0,0-3.6,5.8C79.9,68.18,80.24,68.73,80,68.76Zm38.6-.4L118,68l.27-.58A3.23,3.23,0,0,0,118.64,68.36ZM78,68.12a.93.93,0,0,1-.78-.25c-1.18-1.15-1.36-4.38-.23-6a9.17,9.17,0,0,1,2.67-2.24,2.82,2.82,0,0,1,1.92.28c.32,0-.14.31-.74.66-2.13,1.24-3.55,3.45-3.18,5.52C77.86,67.4,78.24,68.12,78,68.12Zm-2.16-1a1.88,1.88,0,0,1-1.27-1c-1.4-2-.24-6.27,2.63-7.16,1.91-.59,2.62,0,1.07.88-2.22,1.3-3.37,3.84-2.73,5.87C75.82,66.66,76.11,67.06,75.81,67.08ZM73.5,65.6a1.67,1.67,0,0,1-1.42-1.05,5.38,5.38,0,0,1,.25-4.42,4.92,4.92,0,0,1,3.61-2.51,2.09,2.09,0,0,1,1,.15c.67.29.44.33-.82,1a5.55,5.55,0,0,0-2.89,5.68C73.39,65.36,73.76,65.6,73.5,65.6Zm72.75.44V62.91l6.56-6.22v3.06Zm-55.71-.41a16.81,16.81,0,0,1-1-2.27c1.54-2.22,2-5.87,2.21-8.63.87-7.83,1.77-17.28,2.16-17.36l1.71,0c-.65-.44-1.49,13-2.81,21.48-.1.67-1.52,7.22-2.31,6.83ZM70.71,64.25c-2.25-1.53-1-6.32,2.08-7.5,1.14-.44,1.55-.5,2.07,0,.32.32.63.42-.19.72a4.73,4.73,0,0,0-3.56,5.31c0,.61.62,2.24-.4,1.47Zm18.22-1.32-1-.66a57.52,57.52,0,0,0,2-11c.55-4.57,1-9.28,1.69-13.77l1.57-.06c-.82,2.78-1.2,10.52-2,17-.47,3.29-1,7.81-2.19,8.47Zm-1.78-1.08-1.31-.77a56.93,56.93,0,0,0,1.28-5.81c.6-4.31.84-9.54,2.23-17.58l1.42-.12c-.36,2.58-1,8.34-1.61,13.63-.67,6.15-1.72,10.79-2,10.65Zm59.1.21V59l6.56-6.07v2.83ZM84.92,60.87l-1.27-.71a85.58,85.58,0,0,0,1.69-9.63c.57-4.15,1-8.19,1.77-12.75l1.51-.1C87.87,41.18,87,49.4,86.33,55.2,85.94,58.56,85.12,60.94,84.92,60.87ZM121,54A51.37,51.37,0,0,1,121.5,48c.2-.11.82,5.27,3,7.7a2.46,2.46,0,0,1,3.11,3.73C124.09,62.51,121,56,121,54Zm-38.07,6-1.83-.85c.22,0,.66-1.23,1.08-3.21C83.48,49.85,84.75,38,85,38l1.41-.12c-.46,3.19-1.09,8.24-1.75,12.7-.75,5.06-1.44,9.37-1.68,9.39ZM80.4,58.79,79,57.95a7.82,7.82,0,0,0,.87-2.45c1.25-6,1.82-11.29,2.59-17.13l1.52-.2c.11-.17-1.31,11.49-2.49,17.37A8,8,0,0,1,80.4,58.79Zm-2.17-1L76.74,57c1.62-4.62,1.77-9,3.33-18.3l1.58-.29a167.37,167.37,0,0,1-2.83,18.11A2.79,2.79,0,0,1,78.23,57.74ZM76.1,56.66,74.42,56l3.51-17,1.42-.19c-.88,4.91-1.34,10.58-2.53,15a26.63,26.63,0,0,1-.72,2.84ZM149.21,54a1.19,1.19,0,1,1,1.18-1.19A1.19,1.19,0,0,1,149.21,54Zm-1.54-2.79A1.19,1.19,0,1,1,148.84,50,1.19,1.19,0,0,1,147.66,51.18Zm3.07-.07a1.19,1.19,0,1,1,1.18-1.19A1.19,1.19,0,0,1,150.74,51.11Zm-1.47-2.74a1.19,1.19,0,1,1,1.18-1.19A1.19,1.19,0,0,1,149.26,48.37Zm-10.68-4L152.75,30l0,2.88-9.71,9.59,9.78.15,0,2Zm6.49-2.75,7.59-7.28.06,7.41ZM137,41.12s0-.27-.67-1.52c-2.07-3.62-2.55-7-4.38-10.84a11.26,11.26,0,0,0-3.42-4.39l2.28-4.19-64.31.13L76.76,38.39a123.26,123.26,0,0,1,44.82-.08,49.89,49.89,0,0,0,2.49-4.82C126.13,39.07,132.72,42.67,137,41.12Zm-2.34-.49c-3.4,0-6.23-1.58-8.75-5-.8-1.1-1.11-1.59-1.11-2.05a12.33,12.33,0,0,1,1.14-2.24,22.3,22.3,0,0,1,.76,2.51c.91-3.38,1.28.54,1.63,1.57,1.12-3.27,1.72,1.22,1.66,2.44,1.52-2.1,1.42,1.35,2.16,2,0-1.82,1.08-.57,2.46-.19-.72-1-2.12-1.7-.33-1.92-1.79-1.24-2.68-1-.95-1.73-1.34-.74-3.54-1.63-1.1-2.12-1.49-.94-3.87-1.34-1.31-2.24-1.94-1.19-4.52-1.11-.89-2.07-1.32-.77-3.64-1.06-1-1.74a10.32,10.32,0,0,1-1.1-.65L129,25.39a1.17,1.17,0,0,1,.68.32c1.19,1.25,2.35,3.55,3.39,6.78a56.71,56.71,0,0,0,2.67,7c.54,1.1.49,1.16-1.09,1.18ZM77.19,36.57,68.3,21.27l2.11,0,7.85,13.09,10.59-1.2L85.36,21.43l3.15-.09,3.12,11.51a140.75,140.75,0,0,1,16.46.09l1.67-11.68,3,.1-1.9,11.56,9.94,1.28,5.39-13,3.1-.06c-2,3.4-7,14.37-7.94,15.45C99.71,33.14,88.47,35,77.19,36.57ZM79.27,33,72.54,21.26l10.81,0L87,32.1Zm40.45-.34a27.66,27.66,0,0,0-6.74-.85l2-10.53,9.58,0Zm-27-1.24L90.21,21.22l18-.09-1.49,10.19C102,31,97.4,31.29,92.75,31.44Z"/></g></g></g><path id="path147-0-8-1-3-6-4-3-4" d="M130.63,223.08c7.82-.17,11.33-9,5.53-15.81-.84-1-.93-1.57.61-.61,3.9,2.61,11.38.89,11.76-7.08.47-9.82-13.25-12.65-15.83-2.21-.14,1.1-1,1.08-.82-.49a32.51,32.51,0,0,1,3.38-12.08H126a32.51,32.51,0,0,1,3.38,12.08c.22,1.56-.68,1.59-.82.49-2.58-10.44-16.3-7.61-15.83,2.21.38,8,7.86,9.69,11.76,7.08,1.54-1,1.45-.39.61.61-5.79,6.84-2.29,15.64,5.53,15.81h0Z"/><path id="path147-0-8-1-0-3-83-9-4-0" d="M48.17,26.57c7.82.17,11.33,9,5.54,15.81-.84,1-.93,1.57.61.61,3.9-2.61,11.38-.89,11.76,7.08.47,9.82-13.25,12.65-15.83,2.21-.14-1.1-1-1.08-.82.49a32.51,32.51,0,0,0,3.38,12.08h-9.3A32.53,32.53,0,0,0,46.9,52.77c.22-1.56-.68-1.59-.82-.49-2.58,10.44-16.3,7.61-15.83-2.21.38-8,7.86-9.69,11.76-7.08,1.54,1,1.45.39.61-.61-5.79-6.84-2.29-15.64,5.54-15.81h0Z"/></g></g></g></svg>