<svg xmlns="http://www.w3.org/2000/svg" viewBox="0 0 178.79 249.65"><defs><style>.cls-1{fill:#fff;stroke:#000;stroke-width:1px;}.cls-2{fill:#d40000;}.cls-3{fill:#131f67;}.cls-4{fill:#e2cf00;}</style></defs><title>JD</title><g id="Layer_2" data-name="Layer 2"><g id="svg11376"><g id="JD"><rect id="rect7098-3" class="cls-1" x="0.5" y="0.5" width="177.79" height="248.65" rx="8.5" ry="8.5"/><path id="path7130-4" class="cls-2" d="M14.55,56.3a45,45,0,0,0-5.79-8,45,45,0,0,0,5.79-8,45,45,0,0,0,5.79,8A45,45,0,0,0,14.55,56.3Z"/><path id="path7134-0" class="cls-2" d="M164.24,209.3a45,45,0,0,0-5.79-8,45,45,0,0,0,5.79-8,45,45,0,0,0,5.79,8A45,45,0,0,0,164.24,209.3Z"/><path id="path7136-1" class="cls-2" d="M48.35,64.85C44.22,58,39.87,51.38,34.44,45.71,39.87,40,44.22,33.4,48.35,26.57,52.48,33.4,56.83,40,62.26,45.71,56.82,51.38,52.48,58,48.35,64.85Z"/><path id="path7154-5" class="cls-2" d="M130.44,223.09c-4.13-6.83-8.48-13.47-13.91-19.14,5.43-5.67,9.78-12.31,13.91-19.14,4.13,6.83,8.48,13.47,13.91,19.14C138.91,209.62,134.57,216.26,130.44,223.09Z"/><path id="path6263-5" class="cls-3" d="M24.38,229.75V19.9h130V229.75Zm46.81-175c-4.65-1.27-4.54,3.36-1.13,3.53,3.81.33,5.45-6.19,3.63-8.75C73.68,49.57,72.1,54.48,71.19,54.79ZM41,81l-5.58,2.5,0,4.18A22.89,22.89,0,0,0,41,81Zm38.11,125.5c-1.1-.56-2.42-1.75-2.22-2s.7.08,1.24.33c4.36,1.84,7.75,1.72,13-.17.39-.14,1,.61.76,1-2.3,3.41-9.76,2.2-12.73.78Zm-2.3-5.12c-1-1.51.33-.37.77.06,3.23,3,7.6,4,11.36,1.19a.5.5,0,0,0,.15-.51c-.11-.28-.11,0-1.71.58-3.6,1.35-6.64.24-9.6-2C76.57,199.68,76,199.21,76,199s.23-.37.64-.3c.25,0,1,.19,1.48.23.9.07.83,0,1.76-.39a9.36,9.36,0,0,1,5.86-.88,11.62,11.62,0,0,0,1.16.22c.46-.16-.22-.76-2-2.15A4.62,4.62,0,0,1,84,195c-.22-.37,0-.47.27-.46.72,0,4,2.71,5.06,4.32.34.49.57.54.57,1a2,2,0,0,0,.42,1.77,7.43,7.43,0,0,1,.81,1.42s-.08.31-.46.07c-.17,0-.25-.21-.57-.17a5.66,5.66,0,0,0-1.2.48c-4.53,2.92-8.7,1.49-12.09-2.11Zm9.92-.2A4.9,4.9,0,0,0,86,199a2,2,0,0,0-3.1-.16,9.24,9.24,0,0,0-1,2.13,6.53,6.53,0,0,0,.93.21,2.53,2.53,0,0,1,.75-1.91,1.41,1.41,0,0,1,1.42,0c.59.29.84,1.47.85,1.92a2,2,0,0,0,.9,0Zm-5.47-2.42c-.64.29-1.47.48-1.66.91s.63.74,1.1.93c.64.31.65.2.86-.3.13-.31.3-.71.46-1.08C82.51,198.24,82,198.37,81.28,198.71Zm6.91,1.61c.37-.37.44-.61.11-1a2.54,2.54,0,0,0-1-.54c-.59-.2-.85-.44-.48.36l.53,1.15C87.58,200.8,87.82,200.66,88.18,200.31ZM27.78,161.14A24.73,24.73,0,0,0,31,160.05c.79-.3.88-.29.57-.73a1.94,1.94,0,0,1-.16-1.13l.06-.7a4.84,4.84,0,0,0-4.13,1.45c-.5.61-.45,2,.41,2.2Zm-.28,3.43c.42.42.53.43,1.79,0a4.94,4.94,0,0,1,2-.7c1.51-.4,1.51-.24,1.08-1.21a2.11,2.11,0,0,1-.2-1.23c.07-.49.13-.55-.14-.64-.72-.23-4.08,1-4.68,2A1.32,1.32,0,0,0,27.5,164.57Zm78.08,33.16c.06.77.08,2,.08,2.62,0,1.26.47,1.55,1,.86.53-1.64.74-4.23,2-5.54.94-.27,2.08.21,2.75-.44a1.85,1.85,0,0,0-1.08-3.3C107.46,191.87,105.37,195.38,105.57,197.73Zm7-4a2.4,2.4,0,0,1-3.1,2.31c-.65-.17-.85,0-1.29.92a33.57,33.57,0,0,0-1.58,6.81c-.11,1.51-.66,5.45-.26,6.7,4.59,5.69,9.43,11.61,14.72,17.46h31.58V190.76l-9.05-8.67,0-13.74c-9.79,4.62-19.55,9.31-29.32,14,2.13,6.84-5.09,8.28-6.67,3.69-1.37,1.26-2.49,8.05-2,8.39,0,0,.18.25.49-.3a5.42,5.42,0,0,1,1.85-2C110,190.87,112.46,191.49,112.6,193.71ZM87.54,193a2.13,2.13,0,0,1,.57-3.67,4.32,4.32,0,0,1,3,.17,4.28,4.28,0,0,0,2.77.28c.72-.08.58,1.43-.17,1.81-.53.27-1.74.14-3.21-.7-2.54-1.45-3.66.43-2.08,2.13.87.94-.62.19-.85,0ZM35.2,170.52a1.42,1.42,0,0,0-.47-2.68,1.45,1.45,0,0,0-.92,2.67c0,.24-.61,0-.93-.2-.51-.38,0-1.87-.52-1.93a30.62,30.62,0,0,0-4.26,1.5c-1.58.9-.1,2.93.82,2.7C30.82,172.1,33.41,171.67,35.2,170.52Zm-7.87-2.9c0,.9.28,1.31.88,1.31a26.34,26.34,0,0,0,3.55-1.18c.9-.3,1.27-.63.58-1.2a1.38,1.38,0,0,1-.29-1.23c.24-.75.06-.78-.26-.82a11.84,11.84,0,0,0-2.88,1c-1,.37-1.16.54-1.41,1.07a3.15,3.15,0,0,0-.17,1.07Zm10.27,11.67a7.39,7.39,0,0,0,.69-2.22c-.1-.65-.58-.8-1-.38s-.38,1.17-.69,1.71a1.08,1.08,0,0,0-.19.55.73.73,0,0,0,1.19.34Zm4-8.58c15.78-16.84,25.56-40.14,8.46-72.28-1-1-2.51,2.31-2.69,2.43l-2.19,1.91c11.58,20,9.57,43-4.59,59.37v1c0,2.29.69,2.19,1.65,1.12s.34-.2-.08.24-.93,1.14-1.08,1.33c.19,1.37,1,3.92.5,4.84Zm-1-5.06a13.27,13.27,0,0,1-.42-2.29c-.05-.52-.08-1-.1-1.52a18.71,18.71,0,0,0-.91-3.85,3,3,0,0,0-2.23-1c-.84-.05-.91,0-1.09.24-.31.47-.1,2.85.22,3.72a3.65,3.65,0,0,1-.14,2.59c-.1.37-.14.39,0,.42.79-.06,1-1,1.36-.74a3.94,3.94,0,0,1-.54,1.7,4.72,4.72,0,0,0,0,3.45,1.94,1.94,0,0,1,0,1.54,9.58,9.58,0,0,0-.29,2.3,2.63,2.63,0,0,1,0,2.2,5.6,5.6,0,0,0-.58,3.27c.11.35.4.05.61-.55.33-1.19.72-1.45,1.69-1.45.71,0,.78.25,1-.07a14.2,14.2,0,0,0,1.85-4,8.84,8.84,0,0,0-.4-6Zm7.55,11.92a2.48,2.48,0,0,0,1.09-1.38c0-.34-2.65-2.92-3.75-3.63-.5-.32-.74-.09-1.62,1.1s-.89,1.07-.74,1.27a35.86,35.86,0,0,0,3.77,2.5,1.61,1.61,0,0,0,1.25.15Zm5-4.59c-.39-.3-3.56-3.82-4.5-4-.36-.07-1.5,1.24-1.5,1.54A25.34,25.34,0,0,0,50.47,174a2.81,2.81,0,0,0,1,.64C51.89,174.37,53,173.45,53.09,173Zm3.37-3.32c0-.21-.35-.64-1.2-1.48-2.17-2.14-3.38-3.12-3.76-3.11a3.51,3.51,0,0,0-1.21,1.85c.14.26,3.77,3.57,4.25,3.89.58.56,1.85-.75,1.93-1.14Zm3.41-3.41c.09-.31-.09-.58-.55-1l-2.57-2.53c-2.28-2.25-2.29-2.26-3-1.2s-.75,1.09,1.48,3.27,2.93,2.79,3.3,2.79A2.44,2.44,0,0,0,59.86,166.25Zm-25.46-2a1.12,1.12,0,0,0-1.08.2c-1.68,1.43.7,3.28,1.69,2.13a1.37,1.37,0,0,0-.61-2.33Zm29-1.5c0-.24-.49-.78-2.19-2.4-4.2-4-4-3.87-4.48-3.62a3.13,3.13,0,0,0-.86,1.64c0,.3.4.72,3.52,3.63,1.82,1.71,2.37,2.14,2.68,2.14.5-.25,1.3-.78,1.32-1.39Zm-28.85.15a1.23,1.23,0,1,0-1.65-1.08A1.22,1.22,0,0,0,34.51,162.87Zm32.3-3.53c0-.48-7.19-7.22-7.7-7.22-.35,0-.6.28-.92,1s-.25,1.05.1,1.4c.52.5,1.91,1.78,3.22,3,.78.71,1.68,1.55,2,1.88a4.6,4.6,0,0,0,1.87,1.35,3.16,3.16,0,0,0,1.44-1.43Zm-32.68-.87a1,1,0,0,0-.26-.75,1,1,0,0,0-1.64.45C32,159.81,34.06,159.88,34.13,158.47ZM39.46,106l1.41-4.31,4.3-.11.6-4.28,4.42-.64.07-4.43,4.23-.58-.26-4.74L58.15,86,58,81.62l3.57-1.1-.14-3.82.61-.48-1.54-1.57-1.33.43,0,3.92-3.56,1.15.37,4.34-3.6.82,0,4.72-4.13.46-.3,4.17-4,.8-.6,4.08-3.91.27-1.19,3.59-2.59,0v2.4Zm46.76,77.09c-.14-.32.22-.28.83.11a4.83,4.83,0,0,0,2.25.75,16.18,16.18,0,0,0,2.2-.39,5.49,5.49,0,0,1,3.27-.18c.86.12,1.73.21,1.93.21a2.53,2.53,0,0,0,1.81-1.08c.71-1.21.54,1,.54,1.25,0,1.13.15,2.43-.66,1.83a2,2,0,0,0-2,0,1.63,1.63,0,0,1-2,.07c-.65-.25-1-.31-1.47.14s-1.84.32-2.54.09c-1.2-.2-1.87-.37-2.68.26-.43.25-.54.06-.86-.89s-.58-2-.63-2.14Zm3.06-.8c-.08-.12.57-.76,1-1a8.17,8.17,0,0,1,5.64,0c.95.35,1.09,1,.17.82-1.92-.4-4.32-.73-6.17.15a1,1,0,0,1-.64,0Zm1.62-3c-1.31-.49-2-1-2-1.17s.28-.15,1.31.14a6.79,6.79,0,0,0,4.45.31c1-.37,1.49-.6,1.49-.38a2,2,0,0,1-1.1,1.2A6.37,6.37,0,0,1,90.9,179.32Zm28.46-3.65,1-.13-.34-4.07,3.58-1.07-.25-4,3.82-1.32-.23-4.55,4-.78.52-4,3.75-.27.78-4.34,4-.14.83-3.6,2.68,0v-2h-4.17l-.88,3.9-3.94.11-.84,4.28-4.13,0-.53,4.62-3.88.64v5l-3.75,1,.29,4.25-3.74,1.37.42,4.06Zm25-95.46a1.68,1.68,0,0,0-.57,1.76,1.39,1.39,0,0,0,2.6-.06,1.12,1.12,0,0,0-.69-1.25c-.09,0-.4,0-.57-.17s.62-.5,1.06-.36a1.7,1.7,0,0,1,1,1.52c0,.24-.07.6,0,.72a13.7,13.7,0,0,0,2.89-.78c1.63-.45,2.21-1.39,1.85-2.48-.3-.91-1.23-1.27-2.46-.81-1.68.63-3.65.94-5.12,1.91ZM74.94,180.09c5.51-3.88,8.75-6.09,15.82-6.47-2.52-1-2.93-2.41-3.64-3.71a35.77,35.77,0,0,0-17.57,6.25A14.63,14.63,0,0,1,74.94,180.09Zm30.7-5.38a28.35,28.35,0,0,0-9.15-3.92L94,173.42a52.2,52.2,0,0,1,11.67,1.29Zm25.64-24.89c-17.23-26.52-5.65-49.86,6.32-64.73.38-.49.48-.51.39-.9a28.73,28.73,0,0,1-.17-4.58c-22.14,22-22.71,50.63-8.82,73.36,1-.89,3-2.07,2.27-3.15Zm2.58-2.27C131,142.84,116,117.29,139,88.79a12.73,12.73,0,0,0-.25-2,3,3,0,0,0-.79-1.37c-9.66,14.53-23.7,32.71-6.17,64.29ZM120.7,99.48a3.39,3.39,0,0,0,.84-1.73c0-.38-.27-.69-2.87-3.33-3.46-3.52-4.06-4.05-4.5-4.05s-1.51,1-1.51,1.43c0,.19,1,1.29,3.42,3.69,4.46,4.46,4.25,4.28,4.61,4ZM123.88,93c0-.21-.32-.63-1.08-1.41a43.16,43.16,0,0,0-5.1-4.68,2.83,2.83,0,0,0-1.42,1.15.51.51,0,0,0,0,.68c.35.55,4.81,4.79,6.08,5.86.76.7,1.45-1.07,1.49-1.6Zm1.72-2.63a3.08,3.08,0,0,0,.94-1.77A26.73,26.73,0,0,0,124,85.89c-2.66-2.65-2.82-2.75-3.48-2.16s-1,1.08-.9,1.29a66.84,66.84,0,0,0,4.89,5C125.18,90.53,125.26,90.55,125.61,90.37Zm20.31-.2a1.13,1.13,0,0,0-1.2-1.91,1.21,1.21,0,0,0-.56,1.26A1.28,1.28,0,0,0,145.92,90.17Zm2.48-.31c2.12-.56,3.13-.93,3.58-1.59.31-.46.34-.74,0-1.49s-.69-.9-2-.17c-.91.5-2.94.74-3.65,1.16-.28.25-.15.24.08.39.51.33.76.55.7,1-.12.94,0,1.08,1.31.72Zm-2.24-3.33c1-.53.82-1.8-.33-2.3a1.33,1.33,0,0,0-1.25,2.32A2,2,0,0,0,146.16,86.54Zm3.42-.52c1.49-.51,2.06-.91,2.49-1.73a2.26,2.26,0,0,0,.15-1.57c-.07-1-.55-.85-1.93-.35-.68.26-3.91,1.17-4,1.51,1.56.89,1.16,1.37,1.18,2.51.08.26.81.07,2.08-.36ZM129.31,84.5c0-.43-4.15-4.51-4.59-4.51-.69,0-1.67,1.07-1.52,1.66a47.54,47.54,0,0,0,4.45,4.48C128.32,86.53,129.26,85.15,129.31,84.5ZM131.69,82a4.51,4.51,0,0,0,.71-.81c.45-.65.41-1-.12-1.36-.2-.13-1.07-.92-1.94-1.75a16.83,16.83,0,0,0-1.83-1.62c-.72-.1-2,1.05-1.88,1.64a31.3,31.3,0,0,0,4,3.92C131.07,82.28,131.29,82.28,131.69,82Zm5.62-6.07a7.11,7.11,0,0,0-1.88-1.21c-3.54-1.93-3.6-1.94-4.7-1-.38.31-.69.66-.69.78a11.29,11.29,0,0,0,1.74,1.87c2,1.92,2.53,2.34,2.81,2.34C135.18,78.2,137.23,76.42,137.32,75.89Zm5-1.81a4.36,4.36,0,0,0,.69-2.71.87.87,0,0,0-1,.06,7.83,7.83,0,0,0-.84,2.8c.11.28.8.15,1.18-.15Zm-38.65,77.3a5.35,5.35,0,0,0,1.94-1.28c1-.88,4.25-2.83,4.6-3.61.16-.45,0-1.09-.29-1.13s-.31.16-2.46,1.71c-1.45,1-4,2.91-4.37,3.31A.8.8,0,0,0,103.63,151.38Zm-.3,12.49c2.21-1.54,4-3.13,6.88-4.91a1.17,1.17,0,0,0,.12-1.09c-.17-.44-.4-.27-1.27.34-2.12,1.43-4.31,3.12-6.14,4.37-.59.4-1.08.62-1,.84S103,163.81,103.33,163.87Zm2.15.94c1.45-1.19,3.19-2.33,4.74-3.48a1.26,1.26,0,0,0,.05-1.25c-.18-.24,0-.19-.46.05-.63.36-4.39,2.92-5.09,3.5-.41.34-.75.51-.65.63a3.54,3.54,0,0,0,1.4.55Zm1.83.92c.3-.2,2.88-1.86,3.09-2.08s.17-1.38-.06-1.47c-.65.52-4.1,2.62-4.1,3a2,2,0,0,0,1.08.58Zm2.76.23c.4-.36.48-.43.48-.84,0-.74-.17-.71-1.22,0-.73.48-1.18.81-1,1.1.52.82,1.26.17,1.79-.31Zm.28,1.51c.21-.08.21-.18.18-.44s-.07-.28-.39-.28C109.3,166.79,110.06,167.55,110.35,167.47Zm-10.06-4.14a7.78,7.78,0,0,1,1.78-3.19c3.47-3.08,2.41-6.88.22-10,2.84-4,5.67-8.2,8.11-12.07v-6.28l.33,0c-.11,13.71.51,36.2.51,36.2l2.82,2.16-.38.19c.46-.07-8.22-5.52-13.39-7.07Zm2.55-1.57c2.4-1.82,4.74-3.25,7.12-5.18.25-.21.4-.22.41-.7,0-.91-.17-.92-1.06-.28-.4.28-1.84,1.3-3.21,2.22a31.4,31.4,0,0,0-3,2.14c-1.34,1.56-1.84,2.29-1.7,2.51s.42,0,1.46-.72Zm2.62-4.4c1.23-.81,4.19-2.87,4.46-3.12.47-.44.55-1.14.13-1.22a28.88,28.88,0,0,0-4.43,3c-.94.71-1.15.88-1.15,1.55C104.47,157.94,104.72,157.86,105.46,157.37Zm1.23-3.2c3.79-2.7,3.69-2.47,3.61-3.47,0-.34-.1-.49-.25-.52a8.15,8.15,0,0,0-1.54,1c-.75.53-1.65,1.24-2.1,1.56-1.32.91-1.75,1.16-1.75,1.69s.14.84.37.84A12.4,12.4,0,0,0,106.69,154.17Zm-.54-2.09a44.45,44.45,0,0,0,3.93-3c.32-.4.26-1.28-.14-1.28-1.75,1.17-3.86,2.71-5.34,3.93-.19.17-.44.33-.51.55a.85.85,0,0,0,.49.67c.29,0,.73-.32,1.58-.92ZM105,147.9c1.33-.9,2.54-2,3.87-2.89,1-.68,1.27-.89,1.22-1.75,0-.49-.47-.21-2.15.91a9.16,9.16,0,0,0-2.24,1.71c-.31.71-1.32,1.38-1.37,2.19,0,.3.2.16.68-.18Zm4.09-5.43c1-.68,1.12-.69,1-1.6-.14-1.13-.25-1.06-1.23.43-.64,1-.86,1.27-.76,1.45S108.47,142.89,109.1,142.47Zm-3.73-8.3c-.11-.5-.26-.39-.78.06-.95.83-1.1,1.44-.51,1.75.31.17.56.15.74-.26A4.73,4.73,0,0,0,105.38,134.16Zm-5.31,7.89a2.61,2.61,0,0,0-1.11-1.3c-.42-.22-.68-.18-1.08.34s-.2.75.36,1.46c.41.52.57.68.9.68.39-.15,1-.68.93-1.18ZM79.53,161.84c-.27-.52-.84-1.08-1.11-1a1,1,0,0,0-.55.75,1.09,1.09,0,0,0,.88.87C79.38,162.39,79.76,162.28,79.53,161.84ZM82,161a15.32,15.32,0,0,0-1.79-1.83c-.27,0-.93.69-.93,1a4.28,4.28,0,0,0,1.3,1.81C81.44,161.91,82.94,162,82,161Zm3.09.16a25.07,25.07,0,0,0-3.33-3.52c-.29,0-.86.64-.86.93a10.48,10.48,0,0,0,1.89,2.47c.45.47.49.54,1,.45s1.39,0,1.25-.34Zm5.38-.72c0-.65-.34-1-1.72-2.5-.5-.54-1.34-1.48-1.87-2.09-1-1.18-1.47-1.54-1.88-1.54a1.09,1.09,0,0,0-.82.86A61.64,61.64,0,0,0,89,160.8c.51.55.74.71,1.22.45.28-.19.24-.52.24-.77Zm-4-7.79c-.51.42-.71.6-.71.88s4.36,5.24,4.75,5.24c.23,0,.19,0,.33-.55.27-1.57-.16-2-1.29-3.07-.76-.69-2.29-3.08-3.09-2.5Zm7.7-3.22c-1.22-1.46-1.89-2.13-2.14-2.13a1.19,1.19,0,0,0-.7.47c-.46.43-.41.42-.12.93a7.36,7.36,0,0,0,.93,1.17c.67.69,1,.92,1.34.58S94.55,149.84,94.25,149.47Zm-.64-3.64a1.13,1.13,0,0,0-.8.83,7.63,7.63,0,0,0,1.68,2.11c.56.5.82.64,1.21.31a1,1,0,0,0,0-1.13c-.49-.56-1.57-2.08-2.13-2.11Zm3.43.36A5.51,5.51,0,0,0,95.39,144c-.33,0-1,.77-1,1.12a2.77,2.77,0,0,0,.72,1.14c.89,1,1.12,1.26,1.31,1.1A1.67,1.67,0,0,0,97,146.18Zm1.41-1.83c.08-.36-.14-.72-.64-1.35-.62-.78-.93-.84-1.52-.23a1,1,0,0,0-.32.53,5.62,5.62,0,0,0,1.55,2c.56-.07.73-.48.92-.91Zm-2.3,4.12a1.47,1.47,0,0,1-.86,1.14c-4,2.88-3.86,7.57-4.71,11.91-6.46-.07-16.67,2.59-16.61,2.73l34.34-34.71s.43.11.17.41c-2.78,2-2.61,5.89-4.43,7.84-3.05,3.7-5.89,6.9-7.88,10.68ZM77.51,162.65c.06-.39-.3-.5-.62-.18s-.19.55.25.5C77.38,162.94,77.48,162.85,77.51,162.65Zm10.58-1.46c.13-.33-.17-.64-2-2.68S83.79,156,83.47,156a1.61,1.61,0,0,0-.94,1,2.78,2.78,0,0,0,.65.93c.36.39,1,1.14,1.51,1.68a11.92,11.92,0,0,0,1.51,1.6,1.51,1.51,0,0,0,1,.2C87.89,161.32,88,161.34,88.09,161.19Zm3.18-6.51a8,8,0,0,0,.31-.92,17.5,17.5,0,0,0-2.75-2.94c-.48-.31-1.37.7-1.15,1.29a15.09,15.09,0,0,0,1.55,1.83c1,1.07,1.51,1.58,1.68,1.56S91.11,155.21,91.28,154.68Zm1-2.52a1.79,1.79,0,0,0,.31-.74,4.32,4.32,0,0,0-1-1.29c-1-1.18-1.32-1.32-1.89-.77s-.38.8.63,1.94c1.26,1.43,1.4,1.6,1.91.85Zm9-11.28c.39-.47.4-.7,0-1.12l-.49-.59c-.32-.39-.75-.32-1.19.18a1.41,1.41,0,0,0-.35.56,2.64,2.64,0,0,0,.5.74c.62.73,1,.8,1.49.23Zm1.38-1.78c.27-.41.15-.85-.35-1.31s-.71-.45-1-.08-.37.66.1,1.19S102.31,139.57,102.63,139.09Zm1.1-1.48a.71.71,0,0,0,0-1.1c-.31-.39-.63-.5-1-.33-.57.3-.51.82.05,1.41C103.2,138,103.36,138,103.73,137.62Zm-26.27,74c7,.79,14.59,1.34,27.9-.73l.07-4.53c-4.15,3.25-9.61,1-9.92-2.72a38.76,38.76,0,0,1,1.6-9.91c.56-2,.72-2.82.2-3.22-1.15-.65-3.19-.73-3.71-2.08-.25-.71-.27-1.48.09-.93a6.74,6.74,0,0,0,2.53,1.1c1.8.4,2.09.54,2.3,1.28a9.91,9.91,0,0,1-.64,3.54,19.7,19.7,0,0,0-.74,3c0,.35.28.41.59.31a13.1,13.1,0,0,0,1.17-1c1.73-1.55,2.24-1.5.76,0-.59.6-1.4,1.43-1.4,1.5,0,.32.3.28,1,0a7.62,7.62,0,0,1,4.5.21c1.33.67,1.38.64,1.35-1.39A46.53,46.53,0,0,0,103,184.38c-1.88-5.33-5.78-10.29-11.55-10.06-7,.37-11.27,3.17-16,6.53,2.89,6.42-1.29,11.33-2.8,12-.15.06,1.89,6.52,2.76,9.81.79,3,2.12,9,2.12,9ZM107.38,56.83c-.16-.42-4.07-13.19-5.17-18.53-10.57-.62-18.38-1.5-27.69,1.15,0,0-.2,3.6-.1,3.77.09.44.42.43.68.29,4.3-2.37,9-1.3,9.28,4.54.12,2.23-.62,3.8-.76,5.91-.12,1.85-1.57,4.31-.69,5.71a5.23,5.23,0,0,0,1.58.88c1.58.68,2.2,1.3,2.31,2.33.17.71-.26,1.19-.39.46-.08-.46-.17-.87-2.11-1.54s-2.41-1.41-2.6-1.8a2.24,2.24,0,0,1,0-1.81,20.71,20.71,0,0,0,1-4.65c0-.32-.37-.17-.83.22a24.19,24.19,0,0,1-3.12,2.06,5.18,5.18,0,0,1,1.1-1.35,13.28,13.28,0,0,0,1.89-2c0-.32-.12-.1-.94.15a6.64,6.64,0,0,1-4.16-.15c-.93-.41-1.59-.65-1.73-.43-.35,5.68.5,11.54,2.88,16.12,2.13,4.15,6.56,9.35,13.23,8.19,6.89-1.21,13.58-6.76,13.34-6.76-2.57-5.83.36-10.17,3-12.77ZM52.79,212c-3.05-3.06-10.74-6.39-16-7.92-.42-.09-.84-.29-.84.21l-.06,10.51-9.51,8.87v4.23H46.62l13.3-19.54s.64-.12.71-.24a93,93,0,0,0-8.46-22.82,4.45,4.45,0,0,1-6.35-.61c-1.68-1.88-.65-5.19.94-6.4a24,24,0,0,0-5.95-3.3c-.38-.09-.94.68-1.13,1.37-.33,1.13-.89,2.14-1.26,3.28-.41,1-.8,1.1-1.41.83-1-.28-1.2-.38-1.2-.38l0,12.35A26,26,0,0,1,52.79,212ZM83.1,80l2.16-2.35a60.4,60.4,0,0,1-11.19-2.35A36.85,36.85,0,0,0,83.1,80ZM71.23,73.4c3.81,1.27,8.63,4.24,14.65,3.12-5.49-2.18-9.65-7.28-11.43-17.65-.39,2-1.19,6.2-2.46,6.65-1.78-6.88-8.91-2.88-6.05,2.73-7.24,5-15.93,7.79-23.83,11.63,0,0-1.19,3.65-7.1,8.65-1.12-5.87.21-14.57-.48-20.46l-9.27-8.77a33.22,33.22,0,0,1,0,4.66,3,3,0,0,0,1,.73c.6,33.79-.21,67.19-.2,97.88-.09,18.81.41,38.41.13,56.16l-.35.64v4.24l9.46-9a80.83,80.83,0,0,1,.06-11.3c6,1.2,11.54,4,16.53,7.1.63.18-3.06-12.3-16.49-17.84,0,0,0-3.9,0-12.36,0-8.17-.13-9-.31-9.17-.54.59-7.42,2.91-7.76,2.52.18.06-1.94-14.46-.1-16.67l6.57.14c1.88,1.52,1.12-.33,2.22-.64.65-.18,3.7,1,3.7,1C52.21,142.6,51,118.23,42,104.52c-2.3,1.87-4.75,4.41-7.06,5.5,0-.08,0-7.56,0-7.56,12-7.7,25-30,24.16-30.07a59.15,59.15,0,0,1,5.15,5.66L52.36,95.2c2.71,5.46,5.45,10.41,7.22,15.21.24.65,1,.63,1.17,1.31s-.55,1.4-.45,2c2.49,9.56,3.06,19.7.6,28.88-.52,2.07.43,3.74,1.7,5.3.11.14-1.18-1.12-1.3-1.19-.44-.27-1.18.67-1.33,1.84.1.72.49.85,1,1.43.91.76,4.54,4.33,6.13,6,1.42,1.45,1.78,1.52,2.74.49.27-.25.55-.6.81-.81,0,.08.4-.29.52-.41l21.34-20.87C95,132,71.2,156.31,71.2,156.31s-11.54,11.35-14.37,14.14-3.32,3.52-3.43,3.74c-.21.38.94.37,1.47.29a4.22,4.22,0,0,1-.93.11c-3-.41-4,2.65-5.92,3.32-5,3.57-1.64,9.29,3.15,7.4l1.17-.56a107.82,107.82,0,0,1,9.05,23.78l-.79.37L48,227.88h71.59c-5.14-5.13-9.52-11.43-14-16.14-7.14,2.14-28.73,1.7-28.38.77,0,0-3.27-13.26-5.12-19.77,5.87-5,5.27-13-3.25-16.55a31.93,31.93,0,0,1,18.53-7c2,5,6.62,5.35,8.81.74,0-.05,8.23,2.53,11.26,5.33-4.49-.47-8.93-1.36-13.42-1.58A16.57,16.57,0,0,1,103.29,184c.63,1.67,1.6,7.18,1.85,7.2,0,0,1.5-6.37,2.66-6,3,6.2,8.08,1.54,5.92-3.4,7.55-3.61,16-7.64,23-11,2-3.06,7-8.88,7.34-8.91,0,0,9.17-52.63,9.17-70.22-.3-21.15.37-44.7-.54-64.48V21.6H133.36L119.54,41.92a2.24,2.24,0,0,0-.1.46,97.47,97.47,0,0,0,8.11,22.81c5.24-4,9.66,2.57,5.73,6.36-.74.71-.54.89.2,1.39s5.7,3,5.93,3c.9-1.34,1.16-3.32,1.77-4.83.15-.58.59-.65,1.45-.54,1.11.13,1.11.6,1.07-6.51l0-6.1c-6.72-3.1-15.62-11-16-19.19,3.89,2.83,12.81,7,15.2,7.32,1,.29.89-1.54.92-2.27.28.19.39,3,.39,3-3.94-1.19-6-1-15.86-6.67,1.69,8.07,9.75,14.43,15.6,17.33,0,0,.25,3.83.23,8.12,0,13.09.09,13.66.09,13.66A38.54,38.54,0,0,0,148.31,78c1.59-1.28,4.15-.3,4.5.64.52,4.94,0,9.52-.09,14.24-2.72.19-4.22.77-5.56.82-.87-.12-1.4-.12-1.85-.62-1.3-2.82-1.22-1-1.37,1.08-.12.63-3.38-.46-3.7-.65-14.07,16.22-12.87,34.9-3.31,52.2a59.79,59.79,0,0,1,7-4.44c.07,2.2.1,6.73.1,6.73-11,8.1-24.2,29.54-23.75,29.6l-4.47-5.35s2.82-4.49,3.81-5.67a8,8,0,0,0,.19-1.53l6.84-9.91c-2.91-6.61-6.92-11.69-7.95-18.15-4.56-20.65.38-30.92,0-31.7,0,0-.06-.41-.16-.49s0-.24.21-.54c.33-.57.84-1.75.67-2.09s-3.83-4-7-7c-1.67-1.61-1.6-1.79-2.46-.91-.32.33-1.11,1.25-1.11,1.25-11.46,10.62-20.55,20.29-32,31.6l-.55-.5C93,110,109.86,93.46,126.43,76.64l-2.91,0a.75.75,0,0,1,.37-.47,9.14,9.14,0,0,0,4.33-1.13c2.36-1.76,5.75-4.11,6-6.43-.17-4.46-3.93-5.11-6.64-2.93a83.48,83.48,0,0,1-8.36-22.58c-.08-.38-.61-1-.69-1.46.81-2.53,13.62-20,13.62-20H60.23L73.92,38c0-.65,19.51-3,28.45-.23l5.44,19.37c-4.94,4.79-6.4,12.67,2.69,16.76.18.38-.86,1-.86,1,.14-.24.4-.48.29-.7a20.09,20.09,0,0,1-5.08-3.79c-5.47,4.28-10.58,6.67-15.59,6.88,0,0,2.64,1.8,3.16,3.77,0,0-.25,0-.31-.11-.54-.66-1.79-2.82-2.84-3.45a4.59,4.59,0,0,0-4.24.86l-1.91,1.84c-4.37-1.33-9.22-3.51-11.9-6.82Zm-.73,47.41,2-2a10.17,10.17,0,0,1,2.31-5.35c1.87-2.25,3.94-4.36,5.46-6.36,1.83-2.4,2.82-4.58,2.34-5.59,2.72-.49,5.23-2.9,5.3-7.27a18.28,18.28,0,0,1,1.22-5.6s19-.65,32.09-13.14c0,0,.92.2.7.37a45.48,45.48,0,0,1-16.46,11L71.1,121.25Zm3.8-3.95c.51-.51.63-.68.34-.92-.44-.37-1.3.39-1.3,1.16,0,.49.38.34,1-.23Zm1.78-1.75c.41-.39.39-.68.06-1s-1.14-.18-1.37.57.67,1.06,1.31.45Zm1.57-1.59A2,2,0,0,0,78,113c0-.27-.66-.87-.94-.87a1.41,1.41,0,0,0-1,1c0,.29.66.88,1,.88A1.26,1.26,0,0,0,77.64,113.52Zm1.48-3c-.47-.39-.78-.4-1.16,0s-.4.94.13,1.41.58.38,1.13,0S79.77,111.1,79.12,110.57Zm1.73-.26c.51-.43.43-.78-.12-1.33s-1-.58-1.44,0a1.07,1.07,0,0,0-.18.53,2.67,2.67,0,0,0,1.21,1.08A1.07,1.07,0,0,0,80.85,110.3Zm1.67-1.65c.43-.45.37-.77-.24-1.41s-.88-.58-1.33-.15-.37.9.16,1.43S82,109.16,82.52,108.66Zm1.89-1.91c.32-.33.23-.31,0-.67a4.34,4.34,0,0,0-1.64-1.49c-.36,0-.68.58-.67,1.15s.28.8,1,1.36c.48.38.33.41.7.19a2.48,2.48,0,0,0,.62-.55Zm1.5-1.37c.68-.77.55-.92-1.08-2.64-.55-.58-.67-.65-1.06-.62s-.4.12-.59.52c-.36.73-.09,1.1.93,2.2S85.31,106.05,85.9,105.37Zm1.67-1.8a1.14,1.14,0,0,0,.44-.67,6.6,6.6,0,0,0-1.79-2c-.33-.19-.68-.08-1.12.29-.26.22-.25.28-.19.53a7.54,7.54,0,0,0,2.08,2.2A1.09,1.09,0,0,0,87.58,103.57ZM89.23,102a1.72,1.72,0,0,0,.5-.79A7.06,7.06,0,0,0,87.87,99c-.37-.2-.59-.12-1,.41s-.26.87.58,1.85,1.06,1.21,1.21,1.21A2.37,2.37,0,0,0,89.23,102Zm1.57-1.69c.36-.22.83-.68.64-1.06a29.47,29.47,0,0,0-3-3.18c-.53-.28-.51.12-.51,1.44v.68l1.15,1.13c1.67,1.64,1.3,1.24,1.69,1Zm2-1.86a1.41,1.41,0,0,0,.38-.66c-1-1.26-4-5.26-4.59-5.11-.06,0-.08,0-.12.13a5,5,0,0,0-.1,1.9c1,.91,3.19,3.89,3.7,4.08.3.12.44-.05.72-.34Zm1.62-1.7a1.1,1.1,0,0,0,.35-.55,3.78,3.78,0,0,0-.69-1c-.36-.42-1.05-1.27-1.55-1.89-2.83-3.54-3-3.81-3.47-3.45a1.58,1.58,0,0,0-.21,1.38,49.86,49.86,0,0,0,4.34,5.25C93.84,97.1,94,97.16,94.45,96.71Zm1.63-1.57a1.37,1.37,0,0,0,.44-.67,5.59,5.59,0,0,0-.94-1.28c-.48-.56-1.28-1.52-1.77-2.14-1.27-1.57-1.28-1.62-2.23-1.72-1.44-.15-1.25.17.38,2.08.39.46,1.14,1.37,1.66,2,1.21,1.53,1.74,2.09,2,2.09s.24-.14.48-.37Zm1.66-1.63c.74-.62.59-.83-1.81-3.31-.79-.81-.84-.94-1.45-.94s-.81.13-.81.43a38.88,38.88,0,0,0,3.35,4c.31.12.34.15.72-.17Zm1.75-1.79a1.31,1.31,0,0,0,.36-.61,4.58,4.58,0,0,0-1.31-1.69,1.9,1.9,0,0,0-.91-.53,2,2,0,0,0-1.23.43,9.29,9.29,0,0,0,1.76,2.24c.6.64.84.69,1.33.16ZM101,90.19c.39-.39.38-.74,0-1.26s-.37-.41-1-.41c-1.12,0-1.15.29-.28,1.21C100.41,90.41,100.58,90.63,101,90.19Zm1.64-1.62c.43-.55.06-.86-.65-.53a.67.67,0,0,0-.29.37C101.5,89,102.25,89.1,102.66,88.57ZM75.23,93.24c-1.59,1-4.25,2.91-6.06,4.18a5.78,5.78,0,0,0,0,1.51c1-.7,4.33-2.81,5.83-4,.08-.45.19-1.23.23-1.68Zm2.91-4.61c-.05-.27-.23-.1-.7.3s-5.83,4.39-7.21,5.37a6.12,6.12,0,0,0-1.08.81,2.87,2.87,0,0,0,.1,1.44c1.13-.86,6.49-4.47,6.57-4.59.55-.89,1.79-2.43,2.33-3.33Zm-.6,11.67s-6.4,7.71-8.46,11.54c0,0,0,4.39-.07,6.92l-.35.1s0-6.78-.12-14.13c-.21-18.38-.4-22.84-.4-22.84l-2.08-1.52L66,79.64s9.22,6.47,13.72,7.5c-3.29,5.16-6.33,7.15-2.16,13.16ZM70,109.51c.13-.31,0-.29-.22-.28a.36.36,0,0,0-.31.38c0,.23,0,.28.19.25A.63.63,0,0,0,70,109.51Zm1.54-2.28c.92-1.14,1.68-1.87,1.82-2.71a18.53,18.53,0,0,0-4,2.73c0,1.26-.25,1.41.78.86.45-.25.82-.55,1.44-.88Zm.29-2.82c1-.82,4.6-2.77,5-3.73a.7.7,0,0,0-.44-.81c.07.06-5.16,3.2-7.07,4.85a.94.94,0,0,0,0,.87c.21.55.63.1,2.51-1.18Zm-1.2-1.51c1.08-.72,3.62-2.48,4.25-2.92,1.08-.75,1.29-1,.9-1.56a.52.52,0,0,0-.72-.2c-3.12,2.17-3.38,2.54-5.75,4.06a1.39,1.39,0,0,0,.13,1.29c.18,0,.48-.21,1.19-.68Zm0-2.35A50.38,50.38,0,0,0,75,97.23c.11-.25.14-1.23,0-1.33-1.06.8-3.88,2.54-5.81,4.1-.05.32-.11,1,0,1.2.39.16.51-.05,1.33-.65Zm-.34-7.43c2.07-1.54,4-2.87,6.13-4.31,1.82-1.21,2.13-1.48,1.43-1.84a1.61,1.61,0,0,0-1-.22c-2.42,2-5.11,3.83-7.68,5.74a8.58,8.58,0,0,0,0,1.09c0,.39.49.06,1.18-.46Zm-.28-2.19c.17-.15,1.25-.87,2.4-1.7,3.09-2.24,3.46-2.46,3.46-2.7,0-.65-.89-.79-1.7-.13-1.49,1.21-5,3.43-5.06,3.75s-.09.92,0,1.12.42,0,.86-.34Zm.89-3c3.14-2.2,3-2.1,3-2.49s-.31-.19-.79-.22-.46.09-1.33.75c-1.83,1.39-2.51,1.77-2.7,2.18-.06.13-.1.64,0,.75S69.54,88.82,70.84,87.9ZM71,85.72a9.76,9.76,0,0,0,1.15-1c.09-.23-.37-.65-.73-.65s-.67.2-1.62,1-1,.57-.93,1a4.13,4.13,0,0,0,.12.85C69.25,87.13,69.68,86.86,71,85.72ZM69.78,84.3c.66-.56.8-.68.32-1.16s-1-.55-1.22-.28a6.48,6.48,0,0,0,0,1.59c0,.37.47.23.92-.15ZM84,72.21a3.71,3.71,0,0,1,2-1.28,5.59,5.59,0,0,1,3.47.37c.84.42,1.75,1.43.4.81A8.09,8.09,0,0,0,85.06,72c-.71.36-1,.46-1,.21ZM83.16,68a8,8,0,0,1,1.88.38,8.54,8.54,0,0,0,4.9-.33c.42-.12.63.17.37.38a6.77,6.77,0,0,1-3.1,1.09c-2.24.21-4.64-.94-4-1.52Zm-11-3.31c1-.47,2.12-7,1.75-8.16-1.17,1.79-2.48,2.59-4.35,2.28-3.06-.51-3.17-4.28-.81-4.66.94-.15,2.1.47,2.29.33,1-.47,1.79-3.86,2-5s.45-4.05.49-5c.09-2,0-5,0-5L58.73,21.6H26.35s-.08,24.9,0,37.67l9,8.87.12,14.33c10.3-4.51,20.28-9.24,30-14.36-1.13-1.36-1.1-4.77,1-6.06a3.64,3.64,0,0,1,5.71,2.6Zm8.16,3c.07-.81.67-1.47.71-2.29,0-.18.15-.4.63-.14s.83.1,1.54-.23a2.54,2.54,0,0,1,2.61-.18,1.16,1.16,0,0,0,1.42,0,2.73,2.73,0,0,1,2.39-.46c1.06.37,1.43.58,2,.28.31-.15.69-.7.76-.66.44.65.35,1.67.63,2.25.49,1,.3,1.68-.28,1.2-1.22-1-2.17-1-3.93-.6a6.16,6.16,0,0,1-2.68.32c-3.52-.42-3.76-.31-4.48.17s-1.23.51-1.35.32Zm9.46-6.4c-1-.25-2.18-1.18-3-.93a1.2,1.2,0,0,1-1.1-1.83c.91-.89,2.33,0,2.88.42,1.19.91,1.36,1,1.85,1,2,0,1.6-1.89.64-2.57-.57-.6-.62-1-.5-1.13s.76,0,1.38.62c1.19,1.12,1.21,3.34-.24,4A2.35,2.35,0,0,1,89.81,61.29Zm4.14-6.43a23.32,23.32,0,0,1-3-2.71A2.87,2.87,0,0,1,90,49.94c.07-.56.16-.9-.21-1.09a1.83,1.83,0,0,1-.68-1.5c0-.12.45,0,.72.28.33.05.26-.14.62-.38,3.77-2.53,6.79-2,10.37-.3,1,.5,3.75,2.56,2.29,1.89-.09,0-1-.45-2-.94-3.1-1.49-6.56-2.39-9.37-.48-.48.34-.78.6-.4.6,1.58-.31,3.14-1,4.77-.86,2.42,0,3.89,1.23,5.7,2.06,2,.88,2.35,1.18,1.63,1.91-.2.22-.37.22-1.32.14s-1.11,0-1.68.32a8.71,8.71,0,0,1-5.21,1.35c-2.05-.17-2.27-.34-2.31,0s.41.52,1,1.07a14.15,14.15,0,0,1,1.13,1.14C95.3,55.42,94.51,55.27,93.95,54.86Zm-.58-3.29A4.46,4.46,0,0,0,92.65,50c-.26-.26-.46-.16-1,.23s-.46.52-.08.86C92.37,51.81,93.38,52,93.37,51.57Zm3.09.15c.83-.4,1.67-1.83,1.29-2.29-.23-.27-.43,0-.86.76a4,4,0,0,1-.72.95c-.68.48-1.57,0-1.95-1-.23-.63-.47-1-.73-.79-.48.43.06,2,1,2.4A2.54,2.54,0,0,0,96.46,51.71ZM99,51.48c.84-.26,1.24-.64,1.17-1s-.66-.66-1.07-.66c-.18,0-.54,0-.67.17a8.21,8.21,0,0,0-.76,1.66c.1.25.38.14,1.34-.16Zm2.9-6.27c-4.19-1.6-7.5-2.25-11.48-.55-1.28.56-2,.61-2.07.16s.86-1.51,1.86-2a10.61,10.61,0,0,1,8.92,0,22.94,22.94,0,0,1,4,2.79C103.15,45.74,102.88,45.58,101.94,45.21Zm49,47c1-.53,1.46-1.56.85-2.17a.84.84,0,0,0-.64-.18,19.8,19.8,0,0,0-3.48,1c-.33.18-.21.49.1.78a1.14,1.14,0,0,1,.28.73c0,.4,0,.76.21.7a11.6,11.6,0,0,0,2.67-.82Zm-3.72,1a1.22,1.22,0,0,0-.58-1.67c-.39-.2-.7-.09-1,.35C144.9,93.23,146.75,93.82,147.24,93.19Zm-3.74.64c.16-1.73.08-6.85.08-6.85a3.75,3.75,0,0,1-1.52.81,10.76,10.76,0,0,1,.78-1.76,11.86,11.86,0,0,0,.24-2.94c-.06-.86-.66-.88,0-2.43a3.21,3.21,0,0,0,0-2.6,1.15,1.15,0,0,1,.23-1.37c.43-.57.26-.85.25-2,0-1.64,0-1.91-.5-.58-.74,1.1-1.08.89-2.21.76-1.09,2.46-2.37,5-2.42,7.14,0,1.33,0,1.53.78,4.32a7.44,7.44,0,0,1,.43,2.64,7.47,7.47,0,0,0,.29,2.28C140.18,92.39,141.5,94.34,143.5,93.83Zm-38,110.4v-2.47s-3.94,1.22-5.94.47c-2.06-.56-2.05-.66-2-.44.07.4,1.6,1.21,3,1.54a10.17,10.17,0,0,0,4-.29c.55-.16.61,0,.39.16-2.41,1.89-5.48,1-7.4-.55-1-1-1.72-1-1.16.34,2.64,5.37,9.21,2.2,9.14,1.24Zm-2.66-3.67.9,0a5.35,5.35,0,0,0-.74-2,2.13,2.13,0,0,0-3.15.13,5.92,5.92,0,0,0-.69,1.91h.72c.27-.69,1.4-3.95,3,0Zm-3.59-2.37a3.89,3.89,0,0,0-2.17.72c-.2.22-.2.25,0,.57.52.69,1.32,1,1.38.76A8.33,8.33,0,0,0,99.23,198.2Zm5.92,1.74a1.65,1.65,0,0,0-1-1.59c-.3-.08-.61-.14-.52.2a9.41,9.41,0,0,0,.51,1.41c.14.31.23.47.54.35S105.07,200.15,105.15,199.94Zm38.45-32.72V163a55.12,55.12,0,0,0-5.7,7.07ZM79.25,52c.89-.38,1.55-1.55,1.32-2.14-.14-.37-.51-.07-.89.47-.6.87-.76,1-1.29,1s-.79-.15-1.17-.91-.46-.83-.7-.52c-.12.14-.11.34,0,.87A1.79,1.79,0,0,0,79.25,52Zm2.43-.43c1-.34,1.19-.45,1.14-.78S82,50,81.54,50.07a4.35,4.35,0,0,0-1.11,1.76C80.54,52,80.88,51.85,81.68,51.58ZM76,51a1.81,1.81,0,0,0-.16-.71.58.58,0,0,0-1,.37c0,.37.53.79,1,.79S76,51.53,76,51Zm5.59-2.5c1.41.53,2.12.59,1.36-.13-1.05-1.17-5.88-2.51-8.47-.6-.18.26-.15,1.27.06,1.22a7.73,7.73,0,0,1,7.06-.49Zm-4.82-4c-1.18.39-2.29,1-2.44,1.59-.23.93.19.94,1.73.45a7.43,7.43,0,0,1,5.92.62c1.29.94,1.67.63,1.45-.16-.72-2.61-4.75-3.08-6.67-2.51Z"/><path id="path6265-7" class="cls-4" d="M152.71,27.68,144,36.32l.12,10.23c.87,1.61-13.43-4.58-15.69-6.46.26,6.83,9.57,14.61,15.62,17.46l.17,21.87A23.54,23.54,0,0,1,152,77.16C153.19,62.29,154.2,42.94,152.71,27.68ZM104.3,38.38c-.85,0-1.36.24-1.34.79-.25,0,3.22,12.77,4.8,18.12-3.08,3.11-6.29,8.52-1.69,13.53a22,22,0,0,0,4.48,3c.76.74-9.34,7.26-18.33,7.27-2.88-6.33-6.91-2.83-9.13-.62-1.73-.15-8.21-4-11.52-6.23a6.83,6.83,0,0,1,0-1.12c.23,1.51,13,4.77,13.55,3.25-.37,0-5.72-3.62-7.25-7.2a70,70,0,0,1-3.53-9.58c-.71,2-.47,4.89-2.44,5.91-.59-6.67-10.09-3.27-5.36,3.25-2.66.78-4.93,2.16-7.51,3.31A44.22,44.22,0,0,0,79.68,87.19c-1,2.21-7.15,7.18-2.13,13,.23.18-4.8,5.67-7.27,10-1.86,3.23-1.3,5.71-1.09,5.79a103.48,103.48,0,0,0,10.63-14.43c-.06.91,8.08.42,7.94-6.92a20.9,20.9,0,0,1,1.3-6c12.42.58,23.09-3.85,32.12-13.15,0,0,1.84.53,3,.71a9.06,9.06,0,0,0,6.49-3.16c1.35-1.1,2.7-2.15,3.18-3.28,1.78-7.64-6-4.65-6.39-4.25-4.46-6.07-8.23-23.32-8.83-23.45-2.49-.5-11-3.77-14.33-3.71ZM73.71,50.1c-.33,0-1.53,5.36-2.58,5.32-4.48-2.89-4.58,3.09-.72,2.82,3.26-.23,5.08-5.49,3.32-8.14h0ZM25.81,60.25c.15,32.46.73,64.9,1.49,97.34,2.93-.72,5.06-1.28,7.93,0,.27-9.22-.54-32.5-.35-55,10.94-8.53,18.63-17.93,24-30.22L42.2,80.15S36.74,88,35,88.5c-.25-1.12-.53-14.39-.3-20.08ZM62.93,80.32l-3.28,4.76s.08,16.34.27,24.22c.14,1.57,1.56,3,.42,4.41.69,0,3.73,21.2.84,29.8-.52,1.54,0,2.63.78,3,4.12,4.57,6.38,9,11.81,6.36,5.92-5.43,14.33-14.94,14.33-14.94L65.86,116.86C63.95,111.75,62.93,80.32,62.93,80.32Zm81,68.16c-10.1,9-19.33,18.32-23.11,29.59,5.4-2.18,10.54-4.83,15.79-7.28,2.54-3.06,4.5-6,7.41-8.93,0,0,.32,13.3.06,20,2.63,2,8.87,8.07,8.87,8.07s1.72-94.48-2-96.88c-3.61.7-5.42,2-6.77-2.17-1,19.24-.26,57.63-.26,57.63ZM109,95.31c-3.88,3.18-17.24,16.3-17.21,16.44,3.54,5.95,17.53,17.87,24.23,24.53l1,33.95c1-1.33,1.7-2.58,2.77-3.91,0,0-.17-17.19-.59-25.25-.12-2.38-.67-4.26-.5-4.48-1.89-9.78-2.67-20.58,0-31.07-6.33-5.46-8.34-9.1-9.68-10.21Zm1,38.77,0,0c-3.28,4.68-9.55,14.83-10,14.81-.13-.3-6.48,0-7.68,4-1,3-1.08,5.72-1.82,8.79-12.73-.42-22.05,3.62-31.87,12.68-4.81,0-8.38,1.08-10,3.12-2.49,1.81-3.17,3.35-3,5.24.22,3.42,6.26,3.91,6.57,1.5.31,0,5.91,12.82,6.45,15,1.32,3.53,2.74,10.14,2.91,10.15,2.25.15,14.92,3.7,15,2.41,1.19-.51-4.4-18.86-4.4-18.86,9.78-8.22-1-17-3.54-16.69a35.72,35.72,0,0,1,19-7c1.09,3.92,6.15,5.94,8.69.73,0,0,11,3.93,10.91,5.23-4.51-.68-8.22-1-12.74-1.47,8.65,4.71,8.92,10.91,10.69,17.08a63.68,63.68,0,0,1,2.52-5.87c2.94,6.52,8.52,2,6.21-3.27l6.95-3.23c.8-.41-10.38-13-20.55-14.79.51-.94.72-1.82,1.24-2.59,2.55-2.51,4.53-6.18.63-10.57,2.57-3.6,8.54-12.3,8.16-12.46,0,0,.12-4.06-.19-4ZM26.44,174.17c-.1,0-.28,30.16-.07,45.13a27.94,27.94,0,0,0-.41,3.93l9.26-8.71.28-11.27c2.42-.58,17.49,7.09,16.28,7,1.15-.49-7-15.83-16.41-17.53-.18-8.69-.26-18.53-.51-21.17A69.68,69.68,0,0,0,26.44,174.17Zm82.22,18.14c-2.59.78-3.67,6.24-2.84,8.89.16.49.06.59.47.12,1-1.49.69-4.45,2.48-6C113.48,196.72,113,190.58,108.65,192.31Z"/><path id="path6267-4" class="cls-2" d="M48.66,227.88l12.26-18.56c14.64,4.9,29.58,5,44.68,2.57l13.5,16h-5.52l-8.49-12.15c-3.08.71-6.28,1-9.46,1.46l4,10.69H95.26L92.14,217.3a100.18,100.18,0,0,1-17.4-1l-1.83,11.54H68.5l3-11.92a85.9,85.9,0,0,1-9.85-2.14l-9,14.05ZM62.7,217l5.09,1.38-2.49,9.54H56Zm13.14,10.92,1.44-8.43a66.06,66.06,0,0,0,12.58.76l2.21,7.66Zm24.09-7.81,4-1.07,6,8.88h-7.31ZM41.36,166.44c19.58-22.82,17-46.78,6.16-66.1L49.82,98c12.51,20.6,15.17,49.88-7.88,72.58C41.7,169.19,41.36,166.44,41.36,166.44Zm78.09-25.59c2.81,4.8,4.53,9.66,7.51,14.48l-7.05,9.55ZM35.2,156c-.18-15.06,0-45.57,0-45.57l6.61-5.06c7.91,9.62,12.22,35-2,51.83-1-.75-3.84-.44-4.68-1.2Zm93.81-3c-18.12-30.62-8.82-53,8.65-72.83.05,1.53.08,3.09.22,4.61-15,17.2-21,42.64-6.29,65.66ZM96.2,148.48l8.25-11.27s1.56-4.48,2.88-5.81l1.51-1.34,1.54,1.51-.92,3.48q-4.58,7.07-9.65,14.14S96.89,148.68,96.2,148.48Zm43.9-54.69c.26-.29,3.54,1.07,3.54,1.07l.21,46.3-6.56,4.22c-1.9,1-16.77-29.42,2.81-51.6ZM71,113.29c3-4.08,6.13-7.6,9-11.35a13.71,13.71,0,0,0,2.71.3c.21.11-.66,3.11-2.8,5.17-5.88,7-7.21,8.35-7.43,11.25-.07.93-2.14,2-2.14,2l-1.49-1.57A19.38,19.38,0,0,1,71,113.29ZM52.38,95.53l6.75-8.84.48,23ZM73.89,38l-13-16.29h6.3L74.92,33.2l9.28-1.06L80.94,21.67h3.85L87.5,32c5.69.14,11.26.58,16.66,1.12l2.78-11.42h3.92l-3.55,12,10.48,2.76,9.34-14.71h4.64l-13.23,19C101.22,35.45,87.32,36,73.89,38Zm37.51-6.82,3-9.48h8.87L116.44,32.5ZM89.94,28.84l-1.87-7.17H103.7l-2,8a69.82,69.82,0,0,0-11.74-.85ZM71.2,21.67h6.24l2.43,7.42-3.6.41Z"/><path id="path6269-8" d="M58.84,20.62,73.9,38.68c3.14-1.12,19-2.93,28.45-.76,1.65,6.49,3.4,13,5.25,19,0,0-.59.69-1,1.13-6.06,7-1.77,13.76,3.78,16-1,2.08-11.63,7.26-18.1,6.65,0-.06-2-4.76-6-3.17-1.38.54-2,1.59-3,2.61-3.87-1.17-9-3.72-11.63-6.52,5,2.48,9.86,3.81,14.77,3.15a6.73,6.73,0,0,0-1.3-.83,21.5,21.5,0,0,1-2.22-1.34A15.31,15.31,0,0,1,77.45,68c-1.8-3.22-2.09-6.68-3.08-9.74-.52,1.57-.75,5.7-2.11,6.56-.35.23-.42.16-.68-.71-1-3.18-4.85-2.78-6.11-.51a5.18,5.18,0,0,0,.26,4.61l-2.31,1.29v.38L62,70.5l-.3-.2c-6.61,3.2-13.08,6.53-19.83,9.59,0,0-3.58,6-6.86,8.32L34.9,68l-9.7-8.78,0,4.81.7.73c.13,33.84,0,67.12,0,97.84l0,28.28-.59,0,0,3.3.67.15L25.88,199l-.35,0,0,2.95.53.08v16.65l-.52.67v4.75l10.13-9.65.23-11c8,1.51,16.34,7.26,16.34,7.26C50.79,201.6,41.07,194,35.49,192.52l0-21.77a35.66,35.66,0,0,1-6.2,2c-1,.14-1.41,0-1.89-.75-.35-.53-.36-1,0-2.13a1.44,1.44,0,0,0,0-1.17,3.54,3.54,0,0,1,0-2.35,2.21,2.21,0,0,0-.13-1.86c-.3-.75-.33-.89-.2-1.32.34-1.14.36-1.33.18-1.83a2.88,2.88,0,0,1,0-2.36c1.49-2.51,4.84-1.89,6.66-1.8.92,1,1.47,1.6,1.56.11.65-1.78,3.15,0,4.31.8,9.94-13.35,14.85-31.42,2.37-54l-6.94,5.56,0-7c9.2-5.92,19.55-19.39,24-30,1.49,1.75,3.2,3.47,4.81,5.23l-1.05,1.77-.31-.18A127.39,127.39,0,0,1,51.87,95.13a156.25,156.25,0,0,1,7.59,16.15L60,111l.51,1.64-1,.3c3.39,11.16,3.51,21.49,1,31l.6,2.53S64.68,150,65.65,151l5.35,5.2L74.28,153l-.19-.27,28.74-28.58,1.79,1.72C87,143.61,56.45,174.27,56.45,174.27l-1.06.15a11.08,11.08,0,0,1-2.06.09,2.56,2.56,0,0,0-1.8.31,7.25,7.25,0,0,0-2.48,2.12,2.52,2.52,0,0,1-1.19.9c-6,3.58-.57,10.79,4.52,7A95.1,95.1,0,0,1,61,208.56a3.21,3.21,0,0,1-.67.29l-13.43,20h5.17l.54-.92H48.75L61.11,210a100.13,100.13,0,0,0,44.78,2.35l12.74,15.53h-5.05l.72.92,6.54.1-15-17.71c-5.36,1.44-19.51,2.59-28.38,1.09-1.36-6.6-3.6-13.78-5.25-19.49,8.47-6.64,2.11-15.41-3.12-16.63-.25-.48,10.6-7.09,18.33-6.63,2.21,5.33,7.06,4.54,8.8.57,3.21,1.18,7.37,2.36,10.67,5a72.79,72.79,0,0,0-13.71-1.56c8,3.1,10.23,9.64,11.21,15.81a13.44,13.44,0,0,0,.72,2.34,22,22,0,0,1,2.58-6.43c.62,2.18,2.88,3.87,5.17,2.58,1.33-1,1.79-2.62,1.37-4.9-.12-.63-.17-1-.17-1l1.77-1,.23.2s1.95-.83,2.91-1.3c.15-.07-.18-.38-.18-.38L136.76,171a69.37,69.37,0,0,1,7.16-8.74c.08,7.53.06,10.62.06,19.56l1,1c.9.88,2.86,2.7,7.28,6.77A14.46,14.46,0,0,0,154,191l-.14-131.65h-.15V56.78h.21V50.18l-.19-.11V48l.25-.18L154,30l-.29,0,0-4.27-10,10.6.08,10c-4.47-.58-10-3.44-13.79-5.75-1.23-.75-1.91-1-1.88-.52.53,6,9.13,15.06,15.74,17.44V79.88s1.56-.78,2.51-1.18l.14.4,2.13-.88.17-.46,1.85-.23c0,.38.08.33.08.33,1.65.46,2.37,1.58,1.71,2.85-.23.42-.28,1-.08,1.18.71,1.13.9,2.12,0,3.19a1.14,1.14,0,0,0,0,1.43c.89,1.8.38,1.68-.29,2.75-.15.81.74,1.34.44,2.1a3.07,3.07,0,0,1-1,1.36c-.42.31-.77-.26-.77-.26a14,14,0,0,1-2.29.76c-.94.31-2.57.85-3.13-.42-.32-.73-.06-1.39-.08-2.21l-1.38-.15-.05,3.7c-.79.42-3.94-1.19-3.94-1.19-13.5,17.53-13.12,37-3.11,53.26.1.26,7.05-4.77,7.05-4.77s0,4.12,0,6.36a92.21,92.21,0,0,0-23.49,29.34l-3.78-4.49a2.71,2.71,0,0,0,.66-2.18l2.75-4.1,0-1.06,7.14-10c.11.6-7.37-13.42-8.36-18l.5-.13c-3.36-12.73-2.67-21.64-.24-32l-.69-.67-9.42-9.43-2.29,2.13c-.12.11-.69,0-.81.15-5,4.66-9.73,9.33-14.44,14.19-.12.13.08.64,0,.77-4.73,4.88-9.62,9.51-14.41,14.37L75.21,125c16.94-17,48.84-48.47,48.84-48.47a.51.51,0,0,1,.36-.26,10.34,10.34,0,0,0,2.56-.49c1.05-.24,1.22-.32,1.66-.78a9.41,9.41,0,0,1,1-.87q.69-.51,3.17-2.67a4.52,4.52,0,0,0,1.61-3.31,4,4,0,0,0-3.12-4,5.18,5.18,0,0,0-2.85.76c-.55.37-.8.54-1,.37a100.9,100.9,0,0,1-8.25-23.14c-.08-.46,0-.6.34-1.17l1.13-1.76c4.31-6.73,8.72-12.37,12.5-18.55h-5.33l-.66,1h4.39l-13,18.82c-24-7.88-43.75-2.88-44.22-2.78l-13-16h5.95l-.72-1Zm11.7,0,.66,1h6.24l-.35-1Zm10.4,1h3.84l-.22-1H80.62Zm6.88-1,.24,1H103.7l.28-1Zm19.12,1h3.92l.29-1h-3.94Zm7.75-1-.33,1h8.88l.67-1Zm38,7.26.14,2.92-6.4,6.76V47l-1.86-.43-.07-9.75Zm-1.79,6.22c.05,2.89-.41,5.66.35,8.61a25.09,25.09,0,0,1,1.23,4.87l-2.11,0c-.27-.87-.37-1.82-.69-2.89a16.78,16.78,0,0,1-.84-8.18Zm-46.09,4.71c.08.14.33,1.37.56,2.5a109.54,109.54,0,0,0,4.11,15.53c1.93,5.92,4.78,13.37,7.55,16.82.37.43.55.92.42,1.13s-1.36-.14-2.12-.95A12.31,12.31,0,0,1,114,71.78c-1-1.82-2.27-4.46-2.4-4.88-.05-.17-.56-1.48-1.14-2.9A73.41,73.41,0,0,1,108,57c-.67-2.2-1.28-4.5-2-6.82a83.86,83.86,0,0,1-2.59-10.3,5.15,5.15,0,0,1-.21-1.23A1.55,1.55,0,0,1,104.78,38.81Zm.68.24c-.12-.1,1.1-.12,1.49.21a6.31,6.31,0,0,1,.5,1.78,128.31,128.31,0,0,0,4.7,17.24,66.2,66.2,0,0,0,5.33,12.27,25.11,25.11,0,0,0,2.68,3.75c.64.75.69.86.52,1.06s-.58.22-1.29-.12a5.8,5.8,0,0,1-2-2l-.78-1.11a80,80,0,0,1-6.68-15.64,115.29,115.29,0,0,1-4.38-16.86l0-.62Zm3.89.81a4.17,4.17,0,0,1,.66,1.91c1.29,5.31,2.34,10,3.87,14.4.82,2.34,1.53,4.68,2.41,6.89a37.65,37.65,0,0,0,5.23,9.41,12.43,12.43,0,0,0,3,2.6c.73.44.85.55.8.8s-.78.32-1,.31a6.73,6.73,0,0,1-3.37-1.77c-3.55-3.84-6.09-10.13-7.94-15.29-3.18-8.88-5.74-20-5.25-19.64,0-.26,1.27,0,1.59.38Zm1.53.32a1.56,1.56,0,0,1,.39.06c.66.18.75.27.91,1,1.14,5.07,2.34,9.55,3.68,13.8a79.18,79.18,0,0,0,5,12.7,14,14,0,0,0,5.82,6.38,13.41,13.41,0,0,1,1.24.67c.06.06,0,.22,0,.36s-.25.26-.78.25a4.69,4.69,0,0,1-2.75-1c-2.79-1.93-5.23-6.29-6.31-8.77A99.31,99.31,0,0,1,114.39,56a107.75,107.75,0,0,1-4.06-15.39c0-.3.2-.46.55-.45Zm41.81,8.29,0,1.8c-7,.47-14.23-2.51-20-5.19,4.36,5.8,9,10.94,20,12l0,1.86c-14.33-.2-24.42-14.74-23.89-18.36,5.89,3.81,16.54,8.22,23.89,7.89Zm-39.54-7.62a1.77,1.77,0,0,1,1,.34c1.17,4.38,2,9.24,4,14.12,2.38,6,3.7,11.29,8.11,16.23,1.37,1.41,4.06,1.37,4.06,1.37s-.34.76-.8.89a4.89,4.89,0,0,1-2.32,0c-2.55-1.08-4.51-3.82-5.52-5.67-.94-1.39-3.25-7.11-5.15-12.94-2.07-6.35-3.77-13-3.58-14.28A.52.52,0,0,1,113.14,40.85Zm2.36.74a1.65,1.65,0,0,1,.66.19c.29.14.41.22.56.76.1.35.08.9.25,1.79a81.44,81.44,0,0,0,3.73,11.9,72.21,72.21,0,0,0,4.4,9.86,21.33,21.33,0,0,0,2.26,3.52c1.48,1.48,4,1.55,4.72.08a2.48,2.48,0,0,0-.48-2.84c-.63-.6-2.05-.35-2.09.38,0,.19.35.11.87,0,1.43-.17,1.88,2.37,0,2.8-2.33.54-3.95-2.62-1.89-4.56,3.49-2.37,6.15.87,5.33,4A4.24,4.24,0,0,1,130,72.35c-2.28.07-3.22-.63-5.55-4-2.67-4.3-3.83-8.5-5.72-13.2a57.57,57.57,0,0,1-3.53-13.33.32.32,0,0,1,.33-.19Zm2.21.73a2.26,2.26,0,0,1,.83.23,2.3,2.3,0,0,1,.28.23C122,54.26,124.57,61.13,127.24,66a3.48,3.48,0,0,1-.22,1.14c-.32.45-.47.34-.89-.37-1.67-3.25-3.27-6.84-4.76-10.54a61.37,61.37,0,0,1-4-13.15C117.45,42.51,117.32,42.36,117.71,42.32Zm21.16,6.56a.8.8,0,1,1-.8.8A.8.8,0,0,1,138.87,48.88Zm-65.19-.15C72.76,50,72,54.55,71,54.6s-2.36-.63-3.19.34c-1,1.17-.39,2.47.86,3.18a4.34,4.34,0,0,0,2.54.14c3-1,4.2-6,2.45-9.53Zm68.23,1.19a1.16,1.16,0,1,1-1.16,1.17A1.16,1.16,0,0,1,141.92,49.93Zm-68.18.55a6.67,6.67,0,0,1-1.38,6.81,3.21,3.21,0,0,1-4,.15,1.53,1.53,0,0,1,1.14-2.64,2.34,2.34,0,0,1,1.56,1C72.08,55.95,73.3,50.57,73.74,50.48Zm72.22.64a1.31,1.31,0,1,1-1.31,1.31A1.31,1.31,0,0,1,146,51.12Zm4.64.93a1.34,1.34,0,1,1-1.34,1.34A1.34,1.34,0,0,1,150.6,52Zm-43.16,6.09c.2,0,.34.19.47.58.27.8.27.89-.16,1.43-4.11,5.7-.36,11.53,5.59,12.17.5,0,.75.6,1,1.26,0,.31,0,.31-1.39.34a8.06,8.06,0,0,1-2-.16,10.9,10.9,0,0,1-5.69-4.2c-1.21-2-1.41-4.1-.66-6.89a8.47,8.47,0,0,1,2-3.94C107,58.33,107.24,58.14,107.44,58.14Zm39,.63.07,19.56-2.08.76.08-20.81Zm3.94.75q3.89,9.67.37,17.73l-2.36.34c3.24-7.57,1.86-13,0-18.23ZM26.06,60.6l8.41,8,.29,88.62-1.34-.47-.54-87.17-6.83-6.28Zm82.16.25h0c.23,0,.43.31.62.85a1.25,1.25,0,0,1,0,1.28c-1.16,2.84-.21,5.53,2.64,6.38.68.21.79.32,1.19,1.16.26.55.37.74.27.86s-.51.16-1.58-.07a6.85,6.85,0,0,1-3.85-9.79c.24-.42.46-.65.66-.68ZM74.45,60.5a22.14,22.14,0,0,1,.8,3.85c-.22,1.37-2.17,3.57-3.88,4.37-1.58.61-4,.3-5-.75-3.63-4.26,3.14-8.53,4.85-4.1,1,2.91-3.14,3.6-3.32,1.36,0-.58.19-.76.72-1.13s.42-.63,0-.63a1.81,1.81,0,0,0-.9,2.94c1.42,1.48,3.17.62,4.38-.47,1.63-1.47,1.95-3.57,2.32-5.44Zm35.13,3.24c.08,0,1.75,4,2,4.55-.05.4-.49.37-1.23-.15A2.92,2.92,0,0,1,109,66C108.91,65.58,108.75,64,109.57,63.74ZM75.8,65.42c.37,0,.75,1.35.57,2-.3,1.2-3.42,3.21-5.62,3.63l-1,.2a1.86,1.86,0,0,1-1.54-.74c-.39-.4-.58-.79-.48-.89s1.08.1,1.94.09c2.39,0,4.24-1.69,5.66-3.74a1.82,1.82,0,0,1,.52-.59Zm-47.55,1s1.62,1.47,2.47,2.31c-.09,3.91-1.53,8.14-1.53,11.64,0,3,2,5.57,2.2,8.21a14.85,14.85,0,0,1-1.23,6.18A14,14,0,0,0,29,100.31c.1,4.32,3.19,9,2.11,13.31-1,4-2.18,6.33-1.88,8.46.59,4.11,2.78,7.75,2.2,11.17-.54,3.18-2,6.36-1.82,9.24.18,3.32,1.41,6.09,1.76,9.11a22,22,0,0,1-.33,5l-2.27.19c1.25-4.66-.61-8.87-1.32-13.35-.61-3.81,1.1-6.84,1.61-10.1a12.12,12.12,0,0,0-1-6.51c-2-4.75-1.26-7.84.16-12,1.76-4.4-.66-7.89-1.26-12.11a18,18,0,0,1,1.29-9.44c1-3.11,1.3-4.92-.21-7.9a10.09,10.09,0,0,1-1.21-5.49c.49-4.93,1.82-7.7,1.5-13.52Zm48.64,2c.35,0,.53.25.53.75,0,.92-1.37,2.09-3.79,3.23-1.26.59-2,.68-2.72.33s-.65-.61.1-.83a11.31,11.31,0,0,0,4.77-2.69,3.87,3.87,0,0,1,1.12-.79Zm-11,.63C72.17,75.72,78.3,79.16,83,80.77l-.74,1.75c-6.15-2.39-12.43-5.71-17.75-12.85Zm12,1.09a2.18,2.18,0,0,1,.81,1,2.67,2.67,0,0,1-.52.9,4.91,4.91,0,0,1-1.81,1.37c-1.4.77-2.24,1-2.85.63s-.4-.59,1.11-1.47A17.06,17.06,0,0,0,77,70.92,8.59,8.59,0,0,1,78,70.11Zm-16.54,1A38,38,0,0,0,80.87,85.26l-1.22,1.65c-7.08-2.44-14-6.86-20.32-14.64ZM79.29,72c.26,0,.84.65.84.95a1.18,1.18,0,0,1-.25.57,12.2,12.2,0,0,1-2.31,1.74,1.3,1.3,0,0,1-1.35,0c-.62-.31-.51-.56.49-1.21a13.32,13.32,0,0,0,1.65-1.3,3.59,3.59,0,0,1,.93-.73Zm-20.58.51c-.15.18-7.53,17.14-23.19,29.16l-.07-2.82c8.67-6.89,15-16.32,19.73-24.56Zm22.07,1.22c.24,0,.4.15.57.47s0,.72-.89,1.38a1.61,1.61,0,0,1-1.2.49c-1.16,0-1.13-.3.14-1.45.66-.59,1.08-.88,1.38-.89Zm30.23.84,3.26.25c.88.61-12.75,9.55-22.2,8.75l.25-2.14C100.61,81.63,111.23,74.92,111,74.53Zm-28,.84c.75.42,1.68.92,1.45,1.08a6.65,6.65,0,0,1-3.07-.2c-.38-.2-.36-.31.17-.9S82.31,75,83,75.37Zm-29.08-.53C48.76,84,42.6,92.32,35.47,97.75l-.09-4.83c6.78-5.23,11.92-14.79,11.93-14.82Zm64.76.58,1.58.92c-9.86,9.14-20.51,13.08-30.74,12.1l.82-1.85C107,87.9,118,75.59,118.69,75.42Zm2.4.32s.53-.07.47,0a77.45,77.45,0,0,1-10.71,8.56C96.9,98.69,85,110,72.83,122.79l-1.94-2,1.76-1.86c0-3.68,4.5-7.81,7.17-11,1.11-1.26,3.2-4.49,3-5.85a3.35,3.35,0,0,1-.09-.43c4.22-.84,5.23-4.27,5.32-7.3a19.49,19.49,0,0,1,1.15-5.53C108.25,90.32,120.56,76.24,121.08,75.74ZM87.81,77.86A3.85,3.85,0,0,1,91.6,82c0,1-.38,1.79-1.75,4.49-1.33,2.3-1.51,3.7-2,6.36l-1.36-1.22L84,93.86l0-3.25s.85-1.08,2.23-2.63C88,86,89.58,83.54,89.51,82.13a2,2,0,0,0-3-1.63c-1.32.92-1.92,2.59-2.7,7.57-.14.88-.27,1.92-.34,2.15a13.17,13.17,0,0,1-2.1,2.42A30.16,30.16,0,0,1,80.42,89l-1.92.32a25.45,25.45,0,0,0,5.08-8.41c1-1.89,2.35-3,4.23-3ZM46,78.63s-3.83,8-10.55,13.15l0-3.12a32.59,32.59,0,0,0,6.88-8.25Zm92.14.2C124.82,92.62,107.48,118,129,153.68l2.84-3.29c-17.33-32.26-5-49,6.36-65.75ZM66.25,80c3.89,2.77,8,5.52,13.2,7.27-.28.94-7.5,7-2.32,12.65.22.29-.33,1-1.18,2-2.47,3.39-4.95,5.8-7,9.62l-.09,7.17-2.07-1.83Zm71.35.66.09,4.09c-19.75,24-17.52,45.69-6.36,65.63l-2.14,2.17C110.9,121,122.31,97.2,137.6,80.63ZM88.89,83.05c-.87,2.3-4.68,6.25-4.68,6.25s.5-3.84.82-5.06a7.78,7.78,0,0,1,1.33-2.78C87.9,79.78,89.43,81.7,88.89,83.05Zm-26.2-2.16.37,32.21-2.78-2.8-.41-24.63Zm-3.75,6.3.55,21.87a130.79,130.79,0,0,0-6.74-13.66ZM80.86,94A11.07,11.07,0,0,0,82,92.92c1.44-1.46,1.57-1.47,1.44.5-.05.76,0,1.73,0,1.73.84-.49,2.83-2.84,3.39-2.42a3.59,3.59,0,0,1,.79,2.58A6,6,0,1,1,77.49,91c.44-.47,1.7-1.33,2.3-1.16C80.54,91.17,80.51,92.69,80.86,94Zm63.48-2.32a3.56,3.56,0,0,0,2.14,2.49c-.2,31.32-.05,86.77-.05,86.77l6.29,5.91,0,2.58-8.33-7.64s-.45-65.4,0-90.11Zm6.24,1.45c.22,3-.29,6.22.23,9.33.51,2.15,1.29,4.09,1.35,6.21a14.84,14.84,0,0,1-.89,5.74,13.21,13.21,0,0,0-.77,4.08c-.31,2.63.54,5,1.19,7.1.86,2.78.62,6.13-.76,10.56a8.68,8.68,0,0,0-.52,3.71c.19,3,1.27,5.91,1.82,8.89.3,1.71,0,3.94-1.06,7.72a25.53,25.53,0,0,0-.8,4.79A13.89,13.89,0,0,0,151,165c1.45,3.83,1.52,4.51,1.6,6.82a13.5,13.5,0,0,1-1.1,5c-1,2.43-.35,4.92,0,7.65L149,182.29a9.3,9.3,0,0,1,.21-6.26c1-2.73,1.22-3,1.21-4.55,0-2.08-1.21-4.54-1.7-6a12.23,12.23,0,0,1,0-7.9,41.41,41.41,0,0,0,1.18-5.07c.27-2.07.07-3.7-1-7.84a17,17,0,0,1-.65-4.82,21.73,21.73,0,0,1,.84-6.05,14.06,14.06,0,0,0-.27-9,15,15,0,0,1-.93-6.78,10.68,10.68,0,0,1,1.06-3.63,11.33,11.33,0,0,0,.44-7.82,37.26,37.26,0,0,1-1.22-12.65Zm-7,1.72c-.22,21.46,0,46,0,46s-6.35,4.45-6.32,4.22c-8.18-13.51-11.29-33.41,3-51.36a18.73,18.73,0,0,0,3.33,1.1ZM47,100C58.6,121.65,60.1,143.53,41,166a11.76,11.76,0,0,1,.21,5.64c3.73-2.91,33.65-32.85,8.45-74.54Zm59-1.76,5.68.33.38,4.9-1.84,1.83s0-1-.06-1.92a5.15,5.15,0,0,0-.29-2,14,14,0,0,0-.28,2.73l-.09,2.1-.64.64c-.85.85-1,.78-1.05-.41-.07-2.6-.06-2.78-.25-2.59a8.58,8.58,0,0,0-.19,2.34,13.87,13.87,0,0,1-.17,2.27,3.76,3.76,0,0,1-1.5,1.34c-.26,0-.25-.38-.25-2,0-1.36-.14-2.11-.36-1.61a21.81,21.81,0,0,0-.16,2.57,12.79,12.79,0,0,1-.16,2.23c-.24.44-1.35,1.39-1.55,1.31s-.35-.92-.34-2.27c0-.66.11-1.22-.15-1.4s-.3.59-.23,2.53l0,2.12-.71.78c-1.13,1.17-1.21,1.11-1.21-.9,0-1.59,0-2.29-.32-2.17s-.19.9-.13,2.47a8.15,8.15,0,0,1-.06,2.28,6.35,6.35,0,0,1-.81.92,12.26,12.26,0,0,1-.88.86c-.09-1.69-.23-5.33-.23-5.33l-5.93-.26A11.56,11.56,0,0,1,94,110.18c.27-.14.69-.16,2.17-.1a15.78,15.78,0,0,0,2.5-.09c.45-.17-.48-.32-1.79-.41a20.13,20.13,0,0,1-2.07-.18l.86-.89.65-.64,1.89.06a10,10,0,0,0,2.13,0c1.12-.22.07-.48-1.21-.48s-1.95,0-1.95-.28a4.79,4.79,0,0,1,1.79-1.63c.2,0,1.22-.09,2.25-.09,1.78,0,2.42,0,2.32-.34s-1.28-.21-2.06-.24c-2.18,0-2.28-.09-.79-1.39l.72-.63,1.36,0c2.06.06,3.05,0,3.05-.22a5.68,5.68,0,0,0-2.48-.35h-1.23a17.5,17.5,0,0,1,1.65-1.79l1.84,0c1.34,0,2.17.07,2.19-.17s-.48-.24-1.1-.25a6.08,6.08,0,0,1-2-.21c-.14-.14.12-.53.7-1.06l.6-.54Zm-56.28.06c15.9,26,10.16,54.15-7.57,71.66l-.52-3.42c16.74-20.4,19.66-41.45,6.12-66.23Zm29.57,3.5c-2.86,4.3-7.22,8.54-8.87,12.06-.34.4-.45,1.29-1,1.46-.26,0-.35-.5-.28-1.64a4,4,0,0,1,.55-2c2.25-4.12,4.86-7.08,7.75-11Zm.67.42,2.64.17a13.6,13.6,0,0,1-2.31,4.42c-1.2,1.56-2.64,3.13-4.32,5-2.43,2.77-3.65,5.6-3.53,6.84a20.23,20.23,0,0,1-1.8,1.74L69.1,119c1.14-5.87,6.67-11.25,10.86-16.79Zm32.29,2.38.86,0a28,28,0,0,1,4.86.48,3.3,3.3,0,0,1,.19,1,8.65,8.65,0,0,1-.37,2.89,12.27,12.27,0,0,1-.62,2.21c-.34.34-.47,0-.63-1.59-.09-1-.13-1.66-.26-1.58a6.56,6.56,0,0,0-.15,1.84c.1,2,.09,2.49-.54,3.1-1.09,1.06-1.15,1-1.23-.93a10.37,10.37,0,0,0-.27-2c-.24-.24-.31.84-.32,2.67v1.95l-.52.56c-.67.73-.89.84-1.14.59s-.1-.49-.1-1.6c0-1.3-.23-2.05-.47-1.8,0,0-.06,1.31-.06,2.4s0,2.07,0,2.16a4.83,4.83,0,0,1-1.5,1.51c-.26,0-.47-1.43-.47-2.61,0-.78-.17-.92-.33-.49a20.78,20.78,0,0,0-.07,2.19v1.79l-.72.75c-1,1-1.13.95-1.13-.43,0-1.18-.08-1.81-.32-1.81s-.17.56-.17,1.89a10.63,10.63,0,0,1-.13,2,3.85,3.85,0,0,1-.71.93,2.57,2.57,0,0,1-.72.59,3.27,3.27,0,0,1-.27-1.61c0-.1,0-.81,0-1.57,0-1.82.1-1.74-2.8-1.83-3.4-.11-3.45-.13-2.43-1.12s.84-.91,3.09-.76c1.81.12,2,.11,2.21-.07s.17-.23.14-.27a10.84,10.84,0,0,0-1.53-.14c-2.24-.12-2.43-.29-1.49-1.24l.54-.54h2.29a10.66,10.66,0,0,0,2.66-.16c.15-.24-.46-.3-1.94-.39-.79,0-1.53-.11-1.65-.15-.37-.11-.24-.49.4-1.08l.61-.57h2c1.88,0,2.8-.12,2.8-.37s-.37-.25-1.34-.26c-1.36,0-2.27-.15-2.33-.34a6.19,6.19,0,0,1,1.33-1.54l2.06.07c2.07.07,2.72,0,2.72-.36,0-.19-.89-.32-2-.25-.74,0-1.63-.13-1.63-.39a2.65,2.65,0,0,1,.66-.86l.67-.66,2,.08a14.74,14.74,0,0,0,2.41,0c.33-.23-.44-.41-1.71-.48-2-.11-2.08-.27-1-1.24ZM42,105.68c10.44,18.73,8.87,36.37-2.24,51.38a10.08,10.08,0,0,0-4.09-1.3l-.28-45.22ZM116.65,113c.21,0,.21.31.15,1a8,8,0,0,1-.2,1.36c-.12.32-.21.33-1.23.19s-1.14-.37.13-1.62c.61-.61,1-.93,1.15-1Zm-56,.84s1.38,0,2.06,0c0,0,.11,3.5.39,5.53l4.47.21L65.8,121.4l-3.39-.11S61.38,116.32,60.62,113.83ZM113.93,116a7.45,7.45,0,0,1,2.48.47c.15.15.16.53,0,2.79,0,.82-.1,2.57-.11,3.89,0,2.4,0,2.41-.3,2.45s-.41-.08-.5-1.66a4.67,4.67,0,0,0-.28-1.7c-.12,0-.11.75-.11,2.37v2.1a6.54,6.54,0,0,1-1.09.9c-.25,0-.38-.39-.51-1.49s-.24-1.86-.39-1.61a17.85,17.85,0,0,0,0,2.21l.13,1.77-.79.79c-.81.81-.91.88-1,.67-.3-.81.13-4.5-.6-5a19,19,0,0,0-2.2-.14c-1.89-.08-3-.11-3.22-.34s.73-1.17,1.19-1.38.7-.16,2.26-.05c1.8.12,2.71.11,2.47-.12a9.93,9.93,0,0,0-1.7-.27c-1.45-.14-2-.29-2-.56a7,7,0,0,1,1.25-1.47l.7.07,2,.22c.73.08,2.2.1,1.61,0,.19-.19-.56-.39-1.6-.52-2-.24-2.15-.47-1.16-1.44l.61-.6c1,.08,2.08.1,3.1.26.75.12,1.16.08,1.16-.18s-.37-.17-1.28-.35c-.33-.07-2,0-2-.54.4-.55,1.12-1.56,1.83-1.61ZM68.09,120.2c.3,0,.32.72.35,2.65,0,2.12.07,2.49.25,2.67s.61.23,2.47.33c2.84.14,2.92.19,1.92,1.15-.7.67-.73.59-1.3.52a14,14,0,0,0-3.79,0c-.15.24,0,.29,1.39.39,1.67.13,2.13.19,2.13.47a2.21,2.21,0,0,1-.63.82l-.63.59-1.76-.07c-1.85-.08-2.8-.1-2.8.15s1.06.32,2.73.49c.44,0,.88.05.91.12s-.79,1.23-1.31,1.63-.57.14-2.43.1-2.06,0-1.71.38c.08.08.4.09,1.11.14,1.16.08,1.72.26,1.72.54a4.3,4.3,0,0,1-1.54,1.59c-.43.21-.62.21-1.58.08-.75-.11-.9-.26-.88-1,0-.32.06-2.39.12-4.6.11-4.28.15-4.49.71-4.41.24,0,.3.33.36,1.78s.13,1.85.39,1.85c.1,0,.11-.61,0-2.1-.09-2.31-.1-2.65.6-3.32.31-.3.56-.54.71-.32a12.84,12.84,0,0,1,.3,2.82c0,.92.35,1.11.43.23,0-1.39-.05-2.63-.06-4.12l.86-.85c.45-.45.74-.73.92-.74Zm-5.54,1.73a17.62,17.62,0,0,1,2.52,0,8.39,8.39,0,0,1-2.2,2.18A6.34,6.34,0,0,1,62.54,121.93Zm53.92,4.2.4,2.85-3.11-.21Zm-41.89.46h.05c.22.09.29.64.38,3.29a11.44,11.44,0,0,0,.2,2.32c.09.11.48.16,1.2.16s1.69,0,2.45.08c1.66.1,1.71.17.72,1.15l-.67.66-2.08-.09c-2.14-.09-2.49-.05-2.49.24s.36.29,1,.28c.27,0,1,0,1.51.08,1.25.12,1.27.21.34,1.22l-.67.72-.65-.09a16.1,16.1,0,0,0-4,.05c-.26.26.08.37,1.33.44,1.94.12,2.28.18,2.28.4a2.44,2.44,0,0,1-.61.81l-.6.61-2.47-.13c-1.73,0-2.32,0-2.36.11s.22.25,2,.44,2,.35,1.31,1.17-1,1-2.33.86a11.34,11.34,0,0,0-3.22,0c-.34.22,0,.36,1.06.44,1.6.12,2.53.29,2.53.52a2.9,2.9,0,0,1-1,1.34l-.42.32-1.82-.19c-1.81-.19-2.74-.1-2.48.16a5.47,5.47,0,0,0,1.5.24c1.37.1,2,.28,2,.56a4,4,0,0,1-.77.92,5.22,5.22,0,0,1-.92.71l-5.61-.5a9.11,9.11,0,0,1,.28-3.73c.51-2.46.72-3,1-2.55a6.55,6.55,0,0,1,.18,1.13c.11,1,.35,1.61.5,1.61s.16-.59,0-2c-.3-1.92-.33-2,.4-2.77s1-.82,1.17-.52a15.21,15.21,0,0,1,.2,1.69c.13,1.29.21,1.58.37,1.41s.19-.48.07-2.38l-.15-1.85.82-.84c.75-.77.84-.82,1-.62a6.64,6.64,0,0,1,.27,1.88c.08,1.4.19,1.86.4,1.66a27.72,27.72,0,0,0-.05-4c-.07-.48,0-.55.57-1.23s1.1-1.15,1.3-1.15.4.79.4,1.86a3.87,3.87,0,0,0,.2,1.72c.27.37.3-.91.24-2.18l-.07-2.31.75-.75c.71-.71.76-.74,1-.54s.15.56.22,1.72c.1,1.61.41,2.4.5,1.28a3.93,3.93,0,0,0,0-1.1,14.35,14.35,0,0,1-.1-1.76A2.51,2.51,0,0,1,73,128a4.19,4.19,0,0,1,1.62-1.41Zm32.4,1.76s1.25,1.07,1.25,1.38a5.51,5.51,0,0,1-1.17,1.39c-1.24,1.22-1.35,1.43-1.5,2.73a7.61,7.61,0,0,1-.87,2.29c-.44.88-1.07,1.91-1.07,1.91a110.74,110.74,0,0,0-7.3,9.53c-.2.46-.21.92-.41,1.3a1.58,1.58,0,0,1-.66.58,6,6,0,0,0-1,.63,6.67,6.67,0,0,0-2.5,3.91c-.2.88-.32,1.66-.68,4.37-.14,1.11-.63,3-.63,3C83,161.3,76,162.59,69.79,166.1Zm9.95,1.15,1.66,7.54-1.71,0-.17-5.47-5.32-.51,1.9-1.84Zm-8.08.69c.46.46,1,1,1.44,1.48-1.42,4.77-5.93,11-10.41,17.09l-3.28-.36a94.26,94.26,0,0,1,6.75-9,16.88,16.88,0,0,0,2.16-3.48,21.07,21.07,0,0,0,1.11-3.41c.77-.93,2.24-2.3,2.24-2.31Zm1.77,1.67,2.48,2.52.61,35.69a45.77,45.77,0,0,0-13.14-6.93l.84-1.92.92-1c3.27-3.55,2.54-7.36.05-10.06,3-4.43,5.78-7.73,8.09-12l0-3a12.32,12.32,0,0,1,.18-3.28Zm-29.68,1.49c.26,0,.29.63.36,2.51a10.74,10.74,0,0,0,.25,2.76c.16.24.3.27,2.37.33s2.63.13,2.63.36a3.31,3.31,0,0,1-.62.75l-.62.62-1.94,0c-1,0-2.25,0-2.28,0s.47.38,1.42.38a10.38,10.38,0,0,1,1.63.15c.37.14.2.5-.6,1.27l-.8.77-1.76,0a18.3,18.3,0,0,0-2.3.06c-.54.18-.27.32.62.34,1.48,0,2.5.14,2.55.38a2.31,2.31,0,0,1-.62.91l-.66.71L78,145.5c-2.45,0-2.78.2-.74.41.78.08,2,.27,2.05.28s.11.1.15.2-.9,1.34-1.42,1.61a1.15,1.15,0,0,1-.93,0,11.9,11.9,0,0,0-3.18,0c-.21.13.25.28.91.29,1,0,2.17.31,2.17.54a3.55,3.55,0,0,1-1,1.29c-.25.22-.84,0-2.47.08a5.77,5.77,0,0,0-1.87.22,2.48,2.48,0,0,0,1.27.34,8.19,8.19,0,0,1,1.74.29c.17.17-1.09,1.66-1.09,1.66l-5.38-.08-.5-5.71.46-.53c1-1.19,1.25-1,1.46,1.12.15,1.57.26,2,.49,1.82a9.88,9.88,0,0,0,0-2.29c-.07-1.08-.13-2.07-.13-2.19,0-.3,1.22-1.59,1.46-1.54s.37.58.49,2c.1,1.2.16,1.53.4,1.29a5.81,5.81,0,0,0,0-2.26l-.15-2,.52-.62c1-1.24,1.25-1.1,1.38.91.09,1.36.22,2.07.47,2.07a11.08,11.08,0,0,0,0-2.55l-.08-2.3.65-.66a3,3,0,0,1,.81-.66c.25,0,.4.58.56,1.94.18,1.53.24,1.79.39,1.64a10.57,10.57,0,0,0,0-2.18l-.18-2.28.79-.81a3,3,0,0,1,1-.77c.24,0,.39.73.41,1.71a3.73,3.73,0,0,0,.37,1.89c.1.1.13-.46.1-2.08,0-2.5-.1-2.69,1-3.86.3-.31.5-.52.63-.53Zm29.06,1,0,3.49c-1.4,3-4.62,7.38-7.89,12.09l-1.71-.93A92.88,92.88,0,0,0,110,134.37Zm-46.72,1.1h.26c.88.05.91.36.09,1.13a2.18,2.18,0,0,1-.89.58c-.25,0-.27,0-.19-.7.1-.82.2-1,.73-1ZM116.59,138l2.41,2.38.61,25.56-2.54,4.15Zm3,3.37a94.61,94.61,0,0,0,6.93,13.83l-6.45,9.12Zm-21.69,8c3,0,5.69,2.31,6,4.7a5.76,5.76,0,0,1-3.08,6.6,4.81,4.81,0,0,1-1.28.31c-.28-1.65-.16-3.25-.53-4.93a20.86,20.86,0,0,1-2.17,2.48c-.41.22-.59.28-.53-.25,0-.93.1-3,.1-3L93,158.79a5.84,5.84,0,0,1-.61-1.27A6.18,6.18,0,0,1,95,150.24a5.46,5.46,0,0,1,3-.92Zm45.56-.22.07,3.12c-5.37,4.17-13,13-19.61,24.44L121,177.89C125.5,167.21,134.91,156.34,143.48,149.1Zm.06,4.11.06,4.66a70.88,70.88,0,0,0-12.45,15.36c-2.09,1-6,2.92-6,2.92-.49-.12,10.56-17.35,18.36-22.94Zm-47.84,4c.22,0,.21.42.14,1a4.34,4.34,0,0,1-.82,2.54c-1.74,2.05-4.5,4.85-4.87,7.45-.19,1.39.89,2.69,2,2.56,3.3-.41,3.66-6.29,3.94-9.19a8.44,8.44,0,0,1,.29-1.55,12.84,12.84,0,0,1,2.38-2.46l.4,4.49,1.86-.62c-5.25,7.14-3.74,7.59-6.51,10.52-2.57,2.72-7.56-.38-6.28-4.51,1.11-2.78,2.83-5.57,3.29-8.55.13-.88.2-1.5.2-1.5l1.19,2.49c.61-.6,2.38-2.58,2.83-2.69Zm48,1.54v3.21a67,67,0,0,0-7.06,8.69l-4,1.81c2.59-4.95,6.84-9.57,11-13.72Zm-48.5,2.83a12.2,12.2,0,0,1-.32,4.22c-.28,1.29-1.51,5.05-3.47,4.17-1.66-1.47.36-4.2,1.38-5.49.79-.93,1.65-1.93,2.41-2.89ZM90,162l-1.08,2.32c-9.72,0-19.17,3.52-27.58,10.64l-2.13-.7A43.1,43.1,0,0,1,90,162Zm10.22,1.78c11,3.68,16,9,20.17,14.67l-1.73.89c-4.34-5.63-9.71-10.79-19.69-13.77Zm-12.56,3.47-.47,2c-6.14.18-12.62,2.37-18.92,6.75L66,175.58A38.58,38.58,0,0,1,87.68,167.21Zm28.05,13.43-1.95.92c-5.81-7.55-11.06-9.7-17-11.62l.64-1.67A31.45,31.45,0,0,1,115.73,180.63Zm-81-8.9.17,20.15-1.4-.28-.2-19.49Zm-3.24,1.09c-2.67,10-.6,12.62.37,18.47l-2.21-.35a26.75,26.75,0,0,1-.56-17.61Zm67.18,1.54c.17.16-.14.65-.55.9s-.31.2-.95,0-1.41-.81-1.41-1A15.92,15.92,0,0,1,98.67,174.36Zm1.88.14c.37,0,1.42,0,1.49.36s-.39.52-1.24,1.1c-1.29.88-1.73,1.06-2.11.64s-.25-.81.35-1.37A2,2,0,0,1,100.55,174.5Zm-44,.22a4.87,4.87,0,0,1,2.86,2c.81,1.27,1.74,2.57,2.49,3.85a53.9,53.9,0,0,1,4.12,8.9,118.92,118.92,0,0,1,6,21.12c0,.58-.53.57-.95.44a.84.84,0,0,1-.47-.32c-.6-1.7-.8-3.44-1.26-5.14a111.62,111.62,0,0,0-3.75-12.72A87.35,87.35,0,0,0,61,182a25,25,0,0,0-4.22-5.87,13,13,0,0,1-1-1c0-.3.29-.46.81-.46Zm46.84.23c.68.17,2.34.36,1.71.91a13,13,0,0,0-4.31,2.85,2.55,2.55,0,0,1-.92-1.13A14.65,14.65,0,0,1,103.36,175Zm-43.48,0c1,0,1.92,1.22,2.37,2,3,4.4,5.54,10.68,7.65,16.84a98.9,98.9,0,0,1,4.33,17.51c-.05.14-.33.19-.66.19-.61,0-.7-.15-.85-.63a143.41,143.41,0,0,0-6.18-21.74,63.47,63.47,0,0,0-5.07-10.51c-1.48-2.17-2.32-3.31-2.25-3.48s.29-.17.57-.17Zm-6.68.13c1.31,0,3.48,1.55,5,3.55,3.12,4.29,4.91,9.29,6.76,14.15a100.91,100.91,0,0,1,4.58,16.63c.16.7.41,1-.25,1.22-1-.29-1-.26-1.26-1.47s-.51-2.62-.87-3.95c-2.1-7.59-4.46-16-8.37-22.85-4.7-7.54-6.07-5.44-6.83-6.77C52,175.31,52.5,175.1,53.21,175.09Zm11.31,1.84c4,7,5.82,11.37,7.05,15.62,1.86,6.45,4.07,11.6,5,19.12a5.52,5.52,0,0,1-1.49-.15,4.43,4.43,0,0,1-.47-1.54,125.51,125.51,0,0,0-4.23-16.56,70.31,70.31,0,0,0-7.15-15.83c-.83-1.37-1-1.9-.48-1.93.91.06,1.31.77,1.73,1.27Zm42.1-.75a1.33,1.33,0,0,1,.61.09c.54.18.71.3.74.51s-.29.41-1.32.65a10.8,10.8,0,0,0-3.5,2,7.08,7.08,0,0,1-1.08.88c-.25,0-.86-.67-.86-.95a8.65,8.65,0,0,1,5.42-3.15Zm-55.67.17c3.42.1,6.1,4.08,7.5,6.77.55,1.05,1.26,2.19,1.79,3.39a115.45,115.45,0,0,1,6.28,19c.55,2.4,1.19,4.16,1,4.62a1.19,1.19,0,0,1-1.15-.19,6.35,6.35,0,0,1-.58-1.7c-.8-2.57-2.12-9.91-5.56-17.62A54.78,54.78,0,0,0,55.56,181a7.82,7.82,0,0,0-4.79-3.45c-.87-.14-1.13,0-1.08-.51,0-.3.13-.38.59-.53a2.32,2.32,0,0,1,.66-.11Zm21.38,15.91c-.23,0-.44-.45-.6-1.18-.08-.36-.18-.62.49-1,4.24-4.52.59-11.16-4.74-11.74-.49-.08-1.13-.08-1.32-.15a6.23,6.23,0,0,1-1-1.5c7.37-1.79,15.19,8.78,7.14,15.61ZM109,177.49c.44.11,1.39,1,1.27,1.19s-1,.24-2.16.45c-2.53.45-3.62,2.11-4.8,3.33-.26.08-.49-.1-.73-.5a2.28,2.28,0,0,1-.31-.79c1.32-1.92,4.85-3.87,6.73-3.69Zm-59.83.57a6.88,6.88,0,0,1,5.52,2.75c4.42,6.63,9.39,21.38,10.58,28.65-.12.23-.43.26-1,.08-.34-.1-.3-.21-.52-.88A151.3,151.3,0,0,0,59,193.5c-.92-2.43-2-4.81-3-6.94-.65-1.35-1.95-3.75-2.44-4.49a4,4,0,0,0-5-2.12,2.24,2.24,0,0,0-.56,3.7,2.14,2.14,0,0,0,3.06-.48,1,1,0,0,0,0-1,.25.25,0,0,0-.38,0c.08,1.29-1.56,1.37-2.28.86-1.14-.86-.38-3.57,2.74-2.48a2.25,2.25,0,0,1,1,3.11,2.86,2.86,0,0,1-2.89,1.89,3.54,3.54,0,0,1-3.63-3.37,4.41,4.41,0,0,1,2.13-3.82,2,2,0,0,1,1.41-.38Zm18.25,1c5.23.24,7.63,6.41,4.88,10.13-.7.89-1.15.73-1.45-.42-.15-.47-.31-.54.11-.91,2.45-2.35.44-6.92-3.6-7.11a5.89,5.89,0,0,1-.83-1.68,2.66,2.66,0,0,1,.88,0Zm43.6.42c.4.1,1.24.91,1.24,1.19s-.16.27-1.09.11c-2.2-.39-4.4.88-6.24,3.66-.89,1.67-1,1.51-1.47.07-.24-.74-.25-.72.69-2.08a7.49,7.49,0,0,1,6.88-3Zm2,2.83c1.84,1.67,1,5.36-1.5,5.74-2.19.25-4.14-2.12-2.76-3.74.9-1,2-1.07,2.71-.24s.41,2-.61,2.17c-.12,0-.22.13-.22.2s.9.16,1.21-.09a2,2,0,0,0,.08-2.47,2.19,2.19,0,0,0-2.37-.85c-1.47.53-3,2.53-3.84,5.06-.24.71-.38,1.38-.49,1.53-.21.32-.19.31-.39.19a6.45,6.45,0,0,1-.49-2.24,8.37,8.37,0,0,1,.89-2.64c1.6-3,5.19-5,7.76-2.63Zm-44.84-.75c2.14.13,3.84,3.17,2.9,5.28-.29.39-.7.65-.9.41-.07-.09-.4-1.08-.85-2.13s-.88-2.08-1-2.34C68.07,182,67.83,181.55,68.27,181.56Zm-14.55,1.76a89.1,89.1,0,0,1,6.17,14.14,77.54,77.54,0,0,1,3,10.75c.06.33.14.5,0,.65s-1.4-.36-1.4-.36c-2-7-3.69-14.1-8.54-23.07a2.91,2.91,0,0,1-.27-.59,2.36,2.36,0,0,1,.44-1.67c.14-.15.32-.16.59.15ZM26.35,191.5c11.54.78,20.46,5.65,25.22,18.51a49.12,49.12,0,0,0-25.09-8.44l0-1.78c10.62-.09,21,5.45,20.76,5.37-3.95-8.16-13.87-11.46-20.9-11.68Zm80,2.6a6.72,6.72,0,0,0-1,2.08c0,.32.1,2.31.15,3.48a7.64,7.64,0,0,0,.22,2.27.53.53,0,0,0,.77.06,2.7,2.7,0,0,0,.27-.71c1-3.6,1.4-5,1.78-5.4s.34-.3,1.38-.18a2.11,2.11,0,0,0,1.61-3.73C109.47,190.83,107.29,192.75,106.38,194.1Zm2.48.77c-1.68,1.38-1.73,3.38-2.24,5.22-.27,1.24-.66,1.89-.81,0-.29-2.59.07-4.52,1.19-6a4,4,0,0,1,2.85-1.94c2.2-.15,2.43,1.59,1.81,2.53A2,2,0,0,1,108.86,194.87Zm-79.46.83a1.5,1.5,0,1,1-1.5,1.5A1.5,1.5,0,0,1,29.4,195.7Zm4.79,1a1.35,1.35,0,1,1-1.34,1.34A1.34,1.34,0,0,1,34.19,196.73Zm4.37,1.47a1.1,1.1,0,1,1-1.09,1.1A1.09,1.09,0,0,1,38.55,198.2Zm3.1,2a.85.85,0,1,1-.85.85A.85.85,0,0,1,41.65,200.17Zm-10.85,2.7a9.29,9.29,0,0,0,.3,4.47c.85,2.49.47,7,.47,7l-2.5,2.51a52.69,52.69,0,0,0,.33-6.76c-.09-1.3-.68-2.52-.83-3.83a25,25,0,0,1,.07-3.64Zm4.06.75.09,10.64-8.57,8.32v-2.2l7.31-7.26-.15-9.86ZM56,227.88l-.56.92H65.1l.2-.92Zm12.51,0-.23.92h4.48l.15-.92Zm7.33,0-.14.92H92.32l-.25-.92Zm19.42,0,.27.92H100l-.37-.92Zm7.4,0,.32.92h7.61l-.63-.92Z"/><path id="path35-67-2-1-9" class="cls-2" d="M14.46,11.54v2.75h2.67s.06,2.66.09,8.29c0,5.47.13,8.18-.22,9.74-.94,3.59-6.13,3.61-7.16,1a10.44,10.44,0,0,1-.47-4.18H6.5s0,.76,0,1.69c0,4,1.35,6,4.48,6.73s7-.46,8.3-3.2c.79-1.57.7-1.67.72-11.14,0-6.32.11-8.95.11-8.95h2.46V11.54Z"/><path id="path35-6-7-1-4" class="cls-2" d="M164.32,238.12v-2.75h-2.67s-.06-2.66-.09-8.29c0-5.47-.13-8.18.22-9.74.94-3.59,6.13-3.61,7.16-1a10.46,10.46,0,0,1,.47,4.18h2.87s0-.76,0-1.69c0-4-1.35-6-4.48-6.73s-7,.46-8.3,3.2c-.8,1.57-.71,1.67-.72,11.14,0,6.32-.11,8.95-.11,8.95h-2.46v2.75h8.13Z"/></g></g></g></svg>