<svg xmlns="http://www.w3.org/2000/svg" viewBox="0 0 178.78 249.65"><defs><style>.cls-1{fill:#fff;stroke:#000;stroke-width:1px;}.cls-2{fill:#d40000;}.cls-3{fill:#e2cf00;}.cls-4{fill:#131f67;}</style></defs><title>JH</title><g id="Layer_2" data-name="Layer 2"><g id="svg11376"><g id="JH"><rect id="rect10346-5-7" class="cls-1" x="0.5" y="0.5" width="177.79" height="248.65" rx="8.5" ry="8.5"/><path id="path10378-7-1" class="cls-2" d="M14.21,56.3S12.44,53.75,10,50.76c-1.6-2-2.88-4.17-3-6-.14-2.13,1.15-4.27,3.49-4.38s3.28,1.64,3.67,3.08c.39-1.44,1.33-3.19,3.67-3.08a3.87,3.87,0,0,1,3.49,4.38c-.12,1.87-1.4,4-3,6-2.39,3-4.16,5.54-4.16,5.54Z"/><path id="path10380-5-9" class="cls-2" d="M164.57,193.35s-1.77,2.54-4.16,5.53c-1.6,2-2.88,4.17-3,6a3.86,3.86,0,0,0,3.49,4.37c2.33.1,3.28-1.64,3.67-3.08.39,1.44,1.33,3.19,3.67,3.08s3.63-2.24,3.49-4.37c-.12-1.87-1.4-4-3-6C166.34,195.89,164.57,193.35,164.57,193.35Z"/><path id="path35-67-2-8-6" class="cls-2" d="M14.13,11.53v2.75H16.8s.07,2.66.09,8.29c0,5.47.13,8.18-.22,9.74-.94,3.59-6.13,3.61-7.16,1A10.44,10.44,0,0,1,9,29.16H6.16s0,.76,0,1.69c0,4,1.35,6,4.48,6.73s7-.46,8.3-3.21c.8-1.57.71-1.67.72-11.14,0-6.32.11-8.95.11-8.95h2.46V11.53Z"/><path id="path35-6-7-4-8-8" class="cls-2" d="M164.66,238.11v-2.75H162s-.06-2.65-.09-8.29c0-5.47-.13-8.18.22-9.74.94-3.59,6.13-3.61,7.16-1a10.46,10.46,0,0,1,.47,4.18h2.87s0-.76,0-1.69c0-4-1.35-6-4.48-6.73s-7,.46-8.3,3.2c-.79,1.57-.7,1.67-.72,11.14,0,6.32-.11,8.95-.11,8.95h-2.46v2.75Z"/><g id="g3347-7-8-1"><g id="g3498-4-3-9"><g id="g2997-9-2-6"><g id="g3884-5-1-3"><g id="g3000-2-1-2"><path id="path2993-7-5-1" class="cls-3" d="M153,29.51l-9.17,6-.13,7c-5.44-2.62-7.8-6.9-8.66-11.92-1.54,1.95-1.23,11.77-1.23,11.77a11,11,0,0,0-2.8,2.53,30.17,30.17,0,0,0,3.36,3.92s-1.14,10.23.22,10.64c1.24-4.38,2.89-8.2,9-12.2,0,0,.09,16.31-.3,32.06-2.57-1.77-8-5-11.51-8.22,4.55-5.89-.09-13.56-6.88-8.46-4.4-2.39-5.08-13.68-6.17-19.59-.21-1.19-1.23-4.66-1.23-4.66s-14.51-4-20.73-3.7c5.23,13.67,4.22,30.34-18.94,33.46C66.67,73.2,53.85,78.87,41.39,89.47,39.1,105.25,31,113,25.26,117.31c0,6.39,0,12.72.22,19.18,0,0,5.23-3.45,6.05-2.8,4.37,28.52,20.39,34.17,18.79,35-.26.13-5.25,5.27-5.25,5.27L25.52,161c-.67,19.72-.28,39.82,0,59.57,3.45-2,9.8-6.64,9.8-6.64l.1-6.71c0-.64,8.89,5.59,8.91,13,.7.47,2.22-10.67.83-11.88l3.66-3.78-3.94-3.8s1-6.31-1-9.95a14.15,14.15,0,0,1-8.21,10.92s-.13-30.42-.31-30.45l12.29,7.8c-6.65,9.09,5.06,12,6.43,7.62,7.56,7.06,4.65,15.51,8,25.53l21.44,3.95c-8.84-16.45.75-35.19,18.11-33.85a42,42,0,0,0,6.19-3.32,65.89,65.89,0,0,0-4.88-6.82l-37.15-.62L83,139l-11.39-.37s9.25-19.69,7.26-21.27c-.7-.56-.41-6.91-.41-6.91l10.17.38C89,106.3,83.72,89,76.21,77.66L118,78l-23.5,32.88,12.62.36L99.55,126.8l1.21,12.1-11.2.36c1.93,16.78,14.36,34.46,18.73,39.92,7.22-1.72,20.71-12.07,29.08-18.51,1.08-11.26,5-20.85,15.06-28l0-18.54s-5.77,3.74-5.77,3.48c0-4-2.06-12.37-5.91-19.81-4.13-8-10.9-15.23-12.46-15.68,3.58-5.44,5.11-5.93,5.06-6L152.9,88.68ZM54.57,69a22.79,22.79,0,0,1-7.1,1.4c-5.91.31-10.42.78-12.82,5.65-.49,1.48.58,2,1.37,2.41C40.47,73,52.32,80.29,54.57,69ZM28.32,94.51c0,.78.87,2.07,1.31.74a5,5,0,0,0,0-3.44C28.48,91.14,28.34,93.74,28.32,94.51Zm64,26.86-5.77,0,0,6.8h5.81Zm56.72,33.84c-.13.68-.75,3.71.66,3.18C151.39,157.11,150,151.2,149.07,155.21Zm-5.43,17.06c-.68-1-2.79,1.48-4.52,1.57-7.69.41-13.36-.62-14.32,7.45,4.44-2.84,10.65-1.54,14.66-2.46C142.34,177.87,145.66,175.24,143.63,172.27Z"/><path id="path3504-0-2-5" class="cls-4" d="M24.08,230.09V19.56H154.7V230.09Zm6-136.44c.11-2-.72-2.86-1.44-1.47-.17.33-.73,3.85.6,4C30.09,96.22,30,94.52,30.06,93.65ZM28,96c0-.48-.3-.69.35-4.85-1.24-.48-2.32-2.5-1.41-3.78.35-.5.25-.61.11-1a2,2,0,0,1,.79-2.54c.61-.42.64-.53.44-1.09a2.41,2.41,0,0,1,1.33-3.3c.94-.33.76-.38.86-1,.22-1.34,1-2.16,2.31-2s1.33.13,1.44-.49c.3-1.7,2.34-3.55,5-4.8,1.33-.62,3.53-1.07,7.75-1.06,2.42,0,5.43-.37,7.12-1.86.28-.26.67-.95.8-.85.32.22.24,1.91-.38,3.44-1.8,4.48-4.23,5.72-11.11,5.68-2.05-.1-5.08.18-6.36,1.49-.38.41-.64.79-.49,1,2.85.41,5.78,1.7,7.48,7.34A176.8,176.8,0,0,1,67.63,72c-1.23-6.74,4.6-7.78,7.87-6.44a2.48,2.48,0,0,0,0-1,5.28,5.28,0,0,0-.91-2c-.15-.3-1.07-.88-.89-1.34.3-.75.16-1-.46-1.65-.41-.45-.14-1.41,0-1.8.13-.72.6-1.75.18-2.14-.65-.6-2.85-1.62-4-2.43s-1.28-1.74.56-4.75c.84-1.75,1.63-3.63,2.3-4.89,1-1.9,1.12-3.16.5-4.25a5.77,5.77,0,0,1-.65-3.07S64.51,25.65,61.4,21.41H25.92v80.74L32,96.32l-1.65-2c-.23,1.14,0,2.25-1.42,2.32A.87.87,0,0,1,28,96Zm21,108c.2-3.2-1.33-8.45-3.63-12.08a40,40,0,0,1-.25,8.83Zm55.76,8.36c-.28-.09-2.6-.23-4.05-.31a12.14,12.14,0,0,1-10.06-5.79c-.51-.79-.3-.75.84.14,3.21,2.51,6.21,4,8.84,3.64,3.74-.53,5.75.84,5.23,2.44C105.42,212.82,105.39,212.64,104.71,212.42Zm-12.65-7.15c-.75-.65-.8-.94.08-.35,2.71,1.81,6,4.76,10,3,.84-.54.07-.47-1.34-.32-2.15.23-4.76-.86-8-3.09-1.57-1.09-.88-2,.89-1.15a4.59,4.59,0,0,0,1.45.48c1.74-1.16,5.4-1.15,5.32-1.14.42-.36-1-.93-3-1.7-1.32-.5-1.64-.71-.66-.75a6.32,6.32,0,0,1,3.19,1A12.43,12.43,0,0,0,103,203c.8.06,1.61.18.24.82-.62.29-.57.36-.5,1.07a2.14,2.14,0,0,0,.68,1.7c.85.94,1.22,2.69,0,1.59-.26-.12-.29.11-1,.4C98.23,209.78,95.11,207.93,92.06,205.28Zm7.74.31a5.48,5.48,0,0,0,.63-1.32c-.08-.51-.53-.35-.76-.06-.39.48-.94,1.19-.49,1.43C99.39,205.75,99.6,205.85,99.8,205.59Zm-1.43-.33.93-1.67c-.23-.11-3.39.55-2.89,1A5.76,5.76,0,0,0,98.36,205.26Zm3.55-5.59a2.2,2.2,0,0,1-.78-3.54c.9-.93,2.43-.85,4.27.28.64.4,1,.6,1.48.44.74-.27,1,.14,1,.72-.13,1.28-2.12,1.59-3.37.13-1.66-1.93-3.45-.58-2.93.81.27.71.79.82,1.39,1.09C102.93,199.74,102.34,199.89,101.92,199.67Zm-6.56-8.59c2.38-.64,5.92,1.88,7.84,1.54.83-.18.71,1-.15,1.46s-2.45.17-5.49-1.43c-2.51-1.36-4.54.89-2.86,2.58a2,2,0,0,0,1.53.51c.85,0,1.1.19,0,.47a2.9,2.9,0,0,1-2.36-.67A2.61,2.61,0,0,1,95.36,191.07ZM45,183.69a6.23,6.23,0,0,1,1.48-4.43L35.73,172l.16,29.1c5.3-3.38,7-7.63,7.35-13.13,10.47,11.77,7.2,26.09.66,34.24-.27-5-1.75-10.89-7.8-13.91v6l-10.17,7.14v7h23.8L61.14,211.3c-2.07-7.58-1.75-13.9-3.15-17.37-1-2.85-3-6.54-4.33-6C49.31,191.42,45,187.39,45,183.69Zm9,3.36c3.71,2.68,4.7,7.06,5.46,10.95,0,0,1.95,13.19,2,13.37a1.71,1.71,0,0,1-.47,2c-3.42,4.71-10.12,14.82-10.12,14.82l65.62.39c-3.5-5.11-6.23-10.16-9.56-14.36a10.24,10.24,0,0,0-.81-4,2.13,2.13,0,0,1-.32-2.33c1-2.15,1.94-4.49,2.83-6.46,1.7-3.78,1.89-3.82-.43-5-2.75-1.6-3.24-2.13-2.66-4,.21-.67.24-.93-.61-1.11-.39-.08-1.35-.31-2-.49-1.85-.59-1.32-.22-2,.26-.52.26-1-.73-1.57-1.89-.7-1.33-.87-1.37.28-.68,2.13,1.27,5.92.78,4.59-.7a3,3,0,0,1-1.19-2.71c.07-1.61.09-2.09-1-2.31a15.25,15.25,0,0,0-6.6.25c-6.19,1.55-11.16,6.94-13,10.94-.42.7.55.66,1,.66,2-.18,3.47,3.06,2.14,4.52-.62.65-1.23.25-.57-.59a1.85,1.85,0,0,0-2-2.77c-2.06.59-2.12,3.26-2.37,5.12-.7,5.35,2,12.51,2.67,14,0,0,.15.22.1.22s-.38.3-.51.14c-.48-.54-1.68-4.92-2.33-8.05-1.26-8.66,1-16.62,8.15-21.14,6.36-4.6,9.56-3.61,13.17-3.82a45.75,45.75,0,0,0,4.24-1.76c11.33-5.93,21.65-11.72,31.15-19.41,6.94-5.25,10.26-9.52,16.21-14.88l-.6-30s-.6-.5-.6-1c.39-2-3.12,1.34-5.38,2.46C145.39,103.87,138,90.34,129,82.42l.37-.51s3,2,4.51,2.94V82.94l-3.62-2.28c-.16-.7-.07-.81.72-.81l2.9,2.15V80.24l-2.35-1.5.75-.95,1.26.82c-.53-1.39.22-1.34,1-.42a5.88,5.88,0,0,1,.91,1.47c.07.2.27.67.27.67l2.06,1.54a4.15,4.15,0,0,1,0-1c.35-1.09,2.83,2.42,2.52,2.5l2.11,1.52c.5-.76,2.38.76,2.45,1.51.16.33,7.26,4.91,7.26,4.91l.08-2.53.76-1,.34-58.44-9.42,6-.1,7.07c-4.45-1.44-8.31-7.91-8.87-11.95-.29-.16-1.58,8-.9,11.51A31.92,31.92,0,0,0,130.83,45l3.57,3.92a72.9,72.9,0,0,0-.55,9c.14,1.42.17,1.56.59,1.56a.73.73,0,0,0,.65-.69c.84-3.57,3.59-9.14,8.36-11,.32,0,0,31.84,0,31.84l-11.83-8.09c-.59-.51.77-.47,1.6-3.17,2.14-7-5.29-9.41-8.16-5.38-.47,0-2.45-2.45-2.74-3.47C120.12,55,119.7,50,119.27,46a52.14,52.14,0,0,0-1.48-6.63,2.54,2.54,0,0,1,.31-2.56c2.75-5.68,8-9.59,10-15.33l-65.79-.21c4.17,3.45,7.78,13.08,11.58,14.31-1.82.24-1.2,1.83-.49,3.55.87,2.11.77,2.54-1.43,6.89-3.23,6.37-3.4,5.81-.18,7.78,2,1.28,2.35,1.56,2.06,3.29s-.37,1.2,1.27,1.34a6.58,6.58,0,0,1,2,.41c.45.2.78.49,1.36.3,1-.32,1-.08,1,.63A4.09,4.09,0,0,0,80.16,61c.37.62.2.72-.49.29-2.12-1.34-5.65-.77-4.35.69a8.11,8.11,0,0,1,1.12,3.58c.08,1.77,1.23,2.4,3.64,2,4.62-.34,15-6.1,17.48-12.57-5.34,1.82-4.24-4.75-2.34-4.54a6.73,6.73,0,0,0-.53,1.83c-.06,2.35,1.9,2.53,3.26.87.59-.87,1.3-4.12,1-7.79-.42-4.44-2.22-9.41-2.54-10.64C104,53,97,61,86.25,66.26,82.14,68,81.57,68,79.15,68.09c-1.66.13-3.15,1-4.74,1.48C65.23,74,53.95,79.45,43.85,87.62a127,127,0,0,0-18.71,16.43l0,32.26c1.72-.27,4.51-1.95,6.16-2.91,1.89,12,8.07,26,18.3,34.34,0,0-.24.46-.25.45-1.46-1-2.91-1.94-4.33-2.68L44.94,167l3.44,2.37c.09.37-.59.88-.59.88l-2.84-2,0,1.56,2.2,1.41c.59.6-.72.91-.72.91l-1.3-.95a5.53,5.53,0,0,1,.05.89c-.34,1.15-2.22-1.4-2.56-2.67l-1.85-1.1c.26.75-.4.86-.93.67-1.39-.71-1.31-1.9-1.6-2.6l-2.46-1.57c-.42,2.35-2.93-1-2.53-1.76L30.06,161a2.29,2.29,0,0,1-1.67,0c-.54-.35-.73-1.79-.73-1.79l-1.9-1.18v2.06l19.49,13.65-.28.53-20.33-14,.82,60.56L35.38,214c-.19-2.27.23-4.29,0-6.87,5.09,3.18,6.81,5.34,9.05,12A19.17,19.17,0,0,0,45,208.35a9.72,9.72,0,0,0,3.22-3.72c-1.23-1.69-2.42-2.17-3.71-3.74-.1-1.91,1-7.61-.48-9.49,0,0-2.74,8.28-8.64,10.77-.18-8.74,0-30.71,0-30.71s6.06,4.2,9.15,5.9c1.45.78,2.46,1.27,2.48,1.82,0,.28-.57.64-.83,1a10.29,10.29,0,0,0-.57,4.46A4.61,4.61,0,0,0,47,187.55c1.95,2.07,5.51,1.09,6.92-.5ZM65.7,171.58,89,138.87a111,111,0,0,0,13.57,33.06Zm11.53-34.39s1.63-3.24,2.37-5H76.74l1.71-1.92H82.7l-2.27,4.86h1.8l2.5-4.86h6.63L89,135.18h1.53L93,130.32H99.2L97,135.18h1.44l1.27-2.45.31,4.47H93.94l2.42-5h-2l-2.73,5H85.92l2.49-5H86.22l-2.73,5Zm18.88-17.42,2.47-5.24h-2l-2.73,5.13H87.78l2.4-5.07H88.66c-1,1.6-2.68,4.85-2.68,4.85H79.5s1.83-3.44,2.56-5.13h-1.6l-1.3,2.08c-.46-.78-.16-2.84-.23-3.72H85l-2.46,5h1.95l2.68-5h6.45l-2.63,5h1.53l2.6-4.75h6.56l-2.3,4.75h2l-.89,2.07Zm-6-9.13-1.24.23C87.25,97.3,79.76,83.46,76.59,77.75l37.27.53Zm43.76-78.38A22.43,22.43,0,0,0,130,44.53l3.38-2.71C133.21,34,133.83,32.26,133.83,32.26Zm-3.75,12.85a20.48,20.48,0,0,0,3.33,12.22,58,58,0,0,1,.62-8.39ZM37.81,154.58l-12.05-8.33v1.83l14.32,9.76Zm-2.17-4.47c-3.23-1.63-9.88-6.66-9.88-6.66v1.66l10.59,7.46a.34.34,0,0,0,.59-.08C36.52,151.8,36,150.84,35.64,150.12Zm-3-7.23L25.76,138v1.51c1.77,1.59,7.62,5.39,7.62,5.39Zm-6.92-5.95,6.51,4.22-.41-1.87-4.62-3.15Zm117-58.53.35-30.09c-6.79,3.22-8.13,12.6-7.9,12.9-6.75-7-9.3-22,.17-32.16.71,3.25,1,8,7.65,12.26l.17-6.37,9.36-6V21.41H130c-3.49,4.44-7,9.6-10.44,14.31-1.3,1.77-1.62,2.6-1.37,3.52,2.27,8.19,1.82,18.28,6.59,23,6.4-6,12.39,3,7.42,8.65ZM45.48,208.51c.87,2.74.27,8.27.21,8.27,1-.56,3.84-8.57,3.14-11.57M81.43,58.27c-1.59-.45-2.79-1.14-4.47-1-1.32.14-1.77-.3-1-1C77,55.37,78.07,55,80,56c5.89,3.09,6.07-1.42,3.42-1.74-.75-.09-.72-.57,0-.45C87.59,54,86.34,59.47,81.43,58.27Zm-6.88-4.51a6.72,6.72,0,0,0-2.07-.67c-.87.24-.9-.25-.8-.82.25-1.38,1.66-1.13,3.51.06,2.66,1.7,3.68-.74,1.26-2.06-.81-.44-.56-.57-.09-.59,1.26-.05,2.45,1.67,2.11,3.08C77.63,55,75.57,54.14,74.54,53.77Zm7.79-4.17C80.62,49.3,78.12,47,77,46.82c-.65-.07-1.41,0-1.62-.26-.64-.8,1.16-.8,1.29-1.09,0-.68,0-1.1,0-1.33-.32-.43-1.57-2.16-1.53-3,0-.05.66.46,1,.46,3.07-1.62,5.17-.9,7.77.24a14.94,14.94,0,0,1,3.87,3c.06.58-1.17-.51-2.14-1.15-2.37-1.65-4.51-2.83-7.48-1.85-.46.16-.38.25,1.14.15s2.71.37,4.62,1.61c.47.31,1,.84,1.38,1,2.4,1.15,2.92,2.27,1.39,2-.33-.07-1-.41-1.58-.63-1.09-.39-.71-.27-1.76.22a7.58,7.58,0,0,1-2,.62c-.56.09-2.38.08-1.57.85A10.18,10.18,0,0,0,83,49.49C83.69,49.81,83.15,49.74,82.34,49.6Zm.2-3.73c1.12-.42.24-1.36-1.19-1.57-.33,0-1,1.5-1,1.83S81.93,46.09,82.54,45.86Zm-3.1.17a5.6,5.6,0,0,0,1.12-1.61c0-.8-1-.58-1.26.26C79,45.69,79,46.32,79.45,46Zm-3.58-6.46c-.92-.41-2.18-2.2-.74-1.9a26.76,26.76,0,0,0,3,.16,13.37,13.37,0,0,1,9.3,4c1.25,1.3,1.33,2.26.06,1.37C83,39.12,80.21,39.87,75.86,39.57Zm34.93,139.16-1.25.67c0,.7.25.59.81,1.08a7.23,7.23,0,0,1-1.33.09c-.91-.06-1.12,0-.72.6.19.3.44.74.44.74a2.84,2.84,0,0,1-1.24-.1c-1.13-.31-1.71-.15-1.28.48l.35.5a15.39,15.39,0,0,1-2.34-.93l-1.07.33C105.28,186.36,112.87,183.72,110.79,178.73Zm37-6c1.17-1,.6-2.2-1.11-3.08-.71-.37-.64-.37-1.8.31-1.42.84-1.53.88-.51,2C145.6,173.25,146.93,173.49,147.79,172.77ZM143.44,170c1.08-.48.68-.4.61-1.53-.31-1.3.42-1.39.78-2.61.15-.66-.41-.42-1.5.6-.9.76-1.16.94-1.16.57s-.62-1.1-1.26-1.21-.49-.22,0-.91a3.92,3.92,0,0,0,.68-4c-.78-1.68-1-1.93-2.77-.46-.89.82-2.14,1.45-2.74,2.46-.43.74-.18,1.46.5,2.93C138.32,169.44,141,171.08,143.44,170Zm6.06,0c1.9-.75,1.13-2.81-1.84-4.88-1.79-1.25-2.3-1.24-.78.12,1,.87,1.13,1.17.71,1.8s-.71,1.13-.37,1.61C147.77,169.4,148.7,170.32,149.5,170ZM42.43,166.58l-2.07-1.31v1.79l2.07,1.24ZM146,168.21a2.37,2.37,0,0,0,.77-1.46c.09-.83-1.26-.63-1.91.29S145,168.92,146,168.21Zm4.64-2.83c.94-1,.49-2-1.46-3.31-.75-.49-1.13-.81-1,.16,0,.3-.3.69-.51.93-.67.75-.37.89,1.54,2.11C150.18,165.89,150.13,165.94,150.67,165.38ZM42.43,163.47l-2.07-1.25v1.63l2.07,1.4ZM37.9,165.1l0-1.63-2.69-1.79,0,1.82Zm105.61-.66c-.35.93,1,.51,1.13.42.24-.47,0-.52-.09-.57S143.35,164.35,143.51,164.44Zm.61-1.18c.48-.15.53-.09.47-1-.1-1.3.1-1.41,1-2,.69-.46.7-.39.68-1.19,0-1,.05-1.38,1.32-1.58.52-.08.81-.21.86-.62.07-.69-1-1.85-2.4-2.52a36.42,36.42,0,0,0-4.13,3.6l-.52.56.63,1.18c1,1.83.82,2.51.24,4.94-.12.65.38.56.51-.23S143,163.47,144.11,163.26Zm4.68-6.49c-.24,1.48.53,2.39,1.25,1.65a8.87,8.87,0,0,0,.45-4.18C149,152.65,148.85,156.41,148.79,156.77ZM125,181.23c5.5-3.23,12.57-.59,16.55-3.24,1.86-2.05,3.73-3.36,2.67-4.78-.82-1.1-1.35-1.27-1.35-1.27a9.12,9.12,0,0,1-7.2,2C128.47,173.7,125.09,176,125,181.23Zm9.4-7.69c3.5.12,6.35-.49,7.65-1.51.81-.63.93-.74-.34-.85-2.72-.22-5.48-3.38-6.34-6.45-.18-.63-.38-1.32-.38-1.32-7.25,5.8-23.2,14.94-23.2,14.94,1.06,4.94-2.51,7.89-7.34,6.13-.84-.08-.73,1-.57,1.46a4.15,4.15,0,0,0,1,1.44c.72.62.85,1,.75,1.62s-.1.57.31.79c.73.39.69.95.29,2.09-.43,1.61-.46,2,.7,2.79,1.49,1,4.41,2,4,3.45a68.9,68.9,0,0,1-4,9.13,3.15,3.15,0,0,0,0,2.9c.51,1,.45,2.19,1.11,3.11,3.67,5.46,6.82,10.17,10.16,15.1h34.49V148s-5.82,5.32-5.8,5.69,1.26,1.15,1.8,1.24c0-.24,0-1.2.07-1.54,0-.49,1.6-.36,2.12.06.36.3.25,2.23-.12,3.8-.3,1.29-.26,1.3.29,2a3.63,3.63,0,0,1,.82,2.7,2.88,2.88,0,0,0,.11,1.38,3.13,3.13,0,0,1-.15,2.68c-.6.83-.61,1-.48,1.4.49,1.54.31,2.85-1.4,3.51a1.59,1.59,0,0,0-.6.79c-.75,2.46-2.14,2.46-4.06,1.75-1.35,5.29-6.86,6.63-10.83,6.47-4.13-.16-8.34.15-10.21,2.86.44-6.42,3.3-9.52,10.19-9.28Zm12.48-10.67a.81.81,0,0,0,.2-1.47c-.91-.72-1.95,0-1.52,1.06C145.75,163.05,146.15,163.13,146.83,162.87ZM38,160.54l-2.75-1.91,0,1.71L38,162.11Zm5.19,1.41-1.95-2.34c-5.74-3.52-10.72-7.46-15.5-10.64l0,2.17,1.37.69s.12-.48.21-.75c.18-.52,1.75.94,2.26,2.11l.4.94,1.84,1s0-.52,0-.67c0-1.11,2,.42,2.87,2.24.22.44.5.91.5.91l1.73,1.05c.68-.94,2.43.35,2.87,1.48.56,1.44,1.56,1.57,1.6,1.57Zm-10.37-.32V160L30,158.08l0,1.69Zm118.17.14c.08-.44-.35-2.14-1-2.23-.4-.06-1,.55-1,1S150.93,162.24,151,161.77Zm-2.33-2c.63-.69-.17-1.58-1.12-1.27-1.14.37-.74,1.4.53,1.42C148.37,159.91,148.54,159.9,148.67,159.75Zm-116-1.22v-1.59l-2.65-1.76L30,156.73ZM27.48,158l0-1.53-1.74-1.22v1.83Zm.06-4.58-1.78-1.16v1.66l1.86,1.07Zm7.23-5c-.18-.49-.94-2-.94-2l-8.07-5.65v1.74l9,6.09ZM31,134.93l-.09-.71-.72.38Zm-1.71.18-1.13.61,3.41,2.22-.27-1.58Zm118.4-18.74.88-.64L147,114.67l-.12,1.07Zm1.57-1,1.16-1-3.86-2.73.27,1.7Zm2.74-1.43v-1.17l-6.27-4.24.43,2.13c1.1.64,2.45,1.58,3.87,2.57C150.92,113.85,150.92,114.09,152,113.92Zm0-2.16v-1.85l-7.25-4.83.59,2.17Zm0-2.78V107l-8.77-5.82,1,2.57Zm0-4.88-11.06-7.42,1.41,2.85L152,106Zm0-2.84L138.11,92l1.56,2.59L152,102.95Zm0-3h-.52c0,1.33-1.48.36-2-1.1-.41-1-.5-1.22-.5-1.22l-2.8-1.9.22,1.49-1.88-1.15s-.54-1.83-.56-1.84l-3.22-2.19c.07.37.12,1-.09,1a3.82,3.82,0,0,1-1.43-1.07,3.27,3.27,0,0,1-.54-1.36L136,87.23l-.65.07s-.35-.24-.69-.51A4.05,4.05,0,0,0,132.49,85s1.85,2.16,2.83,3.44a12.3,12.3,0,0,0,2,2L152,100.33Zm0-3-1.13-.68.08,1.79L152,97ZM37.66,91.28c.07-.11-.22-.24-.54-.94a5.07,5.07,0,0,1-.45-4.18c.2-.87-.59-1.25-1-.32-.28.72-.72,1.13-1.14,1.08s-.48.12-.31.67a1.85,1.85,0,0,1-.88,2c-.64.17-.76.57-.58,1.17.3,1-.76,1.81-1.58,1.76-1.28-.07-.78,1.1.77,2.21.57.41.83.64,1.28.43C34.44,94.07,36.61,92.48,37.66,91.28Zm111.18,3.59-.06-1.71L145.56,91l.4,2.29Zm3.15-.72V92.43l-1.33-.85.07,1.83ZM30.68,91.49c.31.31.62.34,1.11,0s.35-.74-.24-1S30.21,91.09,30.68,91.49Zm-1-.75a.94.94,0,0,1,.7-.86c.66,0,.54-.39-.21-.85-.36-.22-1-.72-1.21-.89-1.13-.82-2.23.45-1.38,1.52C28.3,90.55,29.34,91.09,29.71,90.73ZM148.53,91.8l-.25-1.9L145.37,88l.23,2.09ZM42.71,87.17a1.37,1.37,0,0,0,.19-.83,7.52,7.52,0,0,0-1.54-3.78,7.32,7.32,0,0,0-2.21-2.06c-2.23-1.15-5.2-.65-4.77.83.31,1,.24,1.84-.62,2.34-.58.34-.66.8,0,.8a3.08,3.08,0,0,0,2.12-1.19c.7-1.1,1.1-1.74.94.06-.07.75,0,.7,1.19.63,1.57-.08,1.28.21.36.93a3.48,3.48,0,0,0-.93,4.28c.42.92.71,1.41,1.25,1.29A32.22,32.22,0,0,0,42.71,87.17Zm100.68,2.22-2.87-1.89.11,2,3.09,1.83Zm-110-1.85c-1.05-1.33-2.28.37-1.49,1.11C32.52,89.15,34,88.63,33.43,87.53Zm-2.48.18c-.13-.41.63-1.08.75-1.34.35-.77-2.76-2.91-3.73-1.64-.67.87-.2,1.75,1.59,2.95C30.64,88.4,31.16,88.4,30.95,87.72Zm112.16-1.28-2.65-1.65,0,1.75,2.81,1.7ZM138.44,88V86.22l-2.67-1.87,0,1.85ZM34.71,85.89c.48-.48.32-.64-.62-.59-.59,0-.77-.07-.81.2C33.2,86.11,34.22,86.38,34.71,85.89Zm-2.22-.67c0-.12-.29-.37-.83-.83-1-.88-1.16-1.42-.16-2.1,1.43-1-.07-2.36-1.73-1.8a1.55,1.55,0,0,0-.55,2.68C30.32,83.89,32.3,86,32.49,85.22Zm105.95-1.78-2.62-1.8v1.76l2.62,1.54ZM33,83.55c1.17-.6,1.23-2.1.06-1.55-.48.23-1.12.84-1.12,1.12C31.93,83.66,32.39,83.85,33,83.55Zm.86-3.44c1.51-.82,1.28-1.57-.23-2.52-1.84-1.06-3.13,1-1.61,2.35C32.8,80.66,33,80.57,33.84,80.11Zm2-1.47c2.46-2.65,4.09-2.52,7.35-2.45,8.39.08,11-3.95,10.69-6.76-4.08,2-7.71.94-11.59,1.53-6.69,1.5-7.48,4.66-7.95,6.46Zm33.62-9c2.16,0,2.06.09,1.17-1.7,2.1.29,3,1.3,2.26-.8,1.12.4,1.79.71,2.94,1.09l.73-.42c-4.45-4.34-9.39-.66-8.09,3.72l1.65-.79Z"/><path id="path3502-5-8-1" class="cls-2" d="M80.29,228.41l1-5,9.24.45s1.07,3.16,1.51,4.58ZM59,228.29l4.9-8.12,7,1.89-1.6,6.35Zm13.54.12,2.11-8.67c-4-.88-7.74-1.46-12.13-2.65l-7.13,11.3L51,228.29c3.7-4.94,10.45-14.92,10.45-14.92a91.54,91.54,0,0,0,46.83,3.42s5.79,7.67,7.87,11.82l-4.08-.2L107,219.89c-3.53.38-7,.86-10.7,1l2.53,7.51H94.8l-2.3-7.49c-4.42-.17-8.14.17-13.44-.66l-1.87,8.15Zm29.23,0-1.4-5.33,5-.58s2.31,4.06,3.58,5.91ZM57,178.89c6.2-9.45,28.08-39.76,28.08-39.76l3.21.13s-19.59,27.37-29,41.17ZM25.37,164.19,33,169.7l.05,42.94-7.76,5.48Zm31.7-70.25L61.69,103C42,121.68,45.9,143.58,56.42,159.2a30.87,30.87,0,0,1-4.32,7.21C37.86,157,33.53,132.52,33.64,132.26,49.33,118.22,51.45,113.75,57.07,93.94Zm80.26,66.89c1-13.82,7.75-22.85,15.3-28.37l.39,14.06C148.07,151.28,142.84,156.19,137.32,160.83Zm-20.51-13.92c17.2-16.11,17.79-39,5.26-55.79l5.13-7.18c7.27,7.8,14.4,16,17.43,35-10.89,8.61-20.52,22.84-23.08,37.21Zm-23.7-18.75,0-6.58,6.43,0-.18,6.57Zm-13.6-.05-.09-6.56,6.36,0-.1,6.65Zm11-17.57s21.32-29.93,29.69-40.74L122,71.12,93.64,110.71ZM40.73,89.61c0,11.81-7.57,21.17-15.28,27.27l.1-13.45Zm112-57,0,52.42-7.2-4.35.61-44Zm-34.34,3.1c-16.26-4.24-31.08-5.51-46.66-2.16C69.72,31.14,62.89,21,62.89,21l3.94.06L72.4,30,83,28.64l-2.73-7.28,4.38,0,2.18,7.14c0-.06,8.64.09,13.45.66.77-2.65,2.19-7.92,2.19-7.92h4.82c-.62,2.53-2.28,8.55-2.28,8.55a111.81,111.81,0,0,1,11.34,2.5c2.57-3.64,5-7.29,7.28-10.93l4.7,0C127,23.7,118.66,35.84,118.4,35.73Zm-3-6.28-7.19-1.68,1.88-6.35h10Zm-41.26-2.3-3.34-5.9h6.43l2.13,5.19Zm14.59-1.2-1-4.69H99.44l-1.19,5Z"/><path id="path3500-9-6-1" d="M62,20.86l10.38,15a83.17,83.17,0,0,1,11.49-1.43,81.48,81.48,0,0,1,12.42.25s1.78,5.37,2.38,8A21.66,21.66,0,0,1,98.58,53c-1.23,3.94-1.88,5.13-4.62,7.84a25,25,0,0,1-7.88,5.28c-4.11,1.72-4.53,1.71-6.95,1.83a4.56,4.56,0,0,0-2.64.59c-.27.09-.45.38-.69.46a1.52,1.52,0,0,1-.59,0A164.07,164.07,0,0,0,43.52,87.24c-.09.07-.15.37-.24.44-.65.53-1.24.93-1.87,1.42-.09.07-.28-.05-.37,0A187.35,187.35,0,0,0,24.55,103.8l.19,33.43s4.23-2.18,6.4-3.51A53.91,53.91,0,0,0,49.26,168l-4.41,6.1L24.53,160l.28,61.69,10.8-7.53v-6.51c3.22,2.17,6.36,3,8.65,12.92,1.83-3.48,1.67-8.66.85-12.12a16.58,16.58,0,0,0,3.58-4l-4-3.57s1-8.65-.85-10.39c-1.5,3.93-2.69,8.09-8.29,11.12l-.07-30c2.79,1.77,5.43,3.77,8.18,5.58l.38-.08,2.85,2s-.3.61-.58,1c-3.47,5.27,2.31,11.74,7,7.85,1.84-1.52,5.29,4.81,5.94,10.91.66,3.94,1,8.82,2.09,12.24a1.71,1.71,0,0,1-.5,2.16L50,228.59h5.21l.38-.6H51.75c3.31-4.42,6.47-9.57,9.9-13.88,12.8,4.83,33.76,5.95,46.42,3,2.62,3.68,5.16,7.53,7.67,11.28h-3.64l.5.79h4.92l-10.37-15.32C100,216,82.58,215.18,82.89,215c0,0,0-.12-.65-1.86-3-9.69-3.27-18.29,4.24-25.25,4-3.56,8.44-5.9,13.42-5.46,2.22,0,2.27-.17,3.19-.59a11.28,11.28,0,0,1,1.57-.47l5-2.8.67-.13,1.45-.77.3-.36,2.34-1.19.26,0,3.17-1.83,0-.26,1.25-.77.3.32a155.67,155.67,0,0,0,17.45-12.34l.31.12c5.88-4.77,13.87-12.29,16.24-15.15l-.13-14.31-.2-.17-.08-15.85h-.46l0-2c-2.6,1-5.46,3.39-5.65,3.29a55.81,55.81,0,0,0-17.88-34.85l4.29-5.94,19.9,13.43.05-3.92h.25c.24-15,.38-54,.38-54l-.2,0V28.8l-10.17,6.51-.14,6.58c-4.51-1.48-7.37-6.91-8.31-11.75-1.31.53-1.92,5.63-1.44,12.08a10.74,10.74,0,0,0-3.14,2.85,27.28,27.28,0,0,0,3.68,3.71c-.28.61-.88,9.23-.29,10.3.27.79,1.21.67,1.21-.15,1.37-6.72,7.73-11.13,8.08-10.72l-.16,31-11.29-7.94c2.37-2.68,2.87-7.21-.12-9.43A4.44,4.44,0,0,0,125,62.9c-3.67-2.4-4.9-11.28-5.44-14.75a42.74,42.74,0,0,0-1.07-6.06,20.33,20.33,0,0,1-.73-3.7,1.91,1.91,0,0,1,.54-1.47l11-15.62-5.6,0-.05.1h4.41l-9.9,14.1A96.14,96.14,0,0,0,71.3,32.63L63.14,21.12l3.71,0-.15-.25Zm8.61.13.16.28,6.41,0-.1-.24Zm9.51,0,.12.34,4.38,0L84.53,21l-4.37,0Zm22.35.12,0,.15h4.82l0-.15Zm-14.78,0,0,.2H99.42l0-.19Zm22.4.1,0,.16h10l.08-.16Zm42.38,8.59,0,2.12-6.75,4.3c-.17,9.07-.43,44-.43,44l-1.62-1.06.32-43.68S150,31.63,152.51,29.84Zm-17.7,1.71H135l.07.49h-.39Zm.48,1.28.18.67h-1l.17-.64.64,0Zm17,.34v1.38l-5.82,3.65V36.83Zm-18,1.15,1.52,0,.25.77h-1.92ZM97,34.74l1,.15a47.14,47.14,0,0,1,3.34,15.36c.93,6.47,2.81,13,4.11,15.72l-1.49,0A78,78,0,0,1,100,51a28.28,28.28,0,0,1-.16-3.13A47.85,47.85,0,0,0,97,34.74Zm1.91.22,1.3.13c.91,4,2.23,7.71,2.77,11.69.86,6.37,1.32,12.88,4.38,19.15h-1.21a53.45,53.45,0,0,1-3.75-13.46c-.58-2.75-.58-4.81-.89-7.29A65,65,0,0,0,98.88,35Zm2,.19,1.3.19c.86,3.94,2.32,8.27,2.71,11.83.79,7.25,1.93,14,4.21,18.79l-.91,0c-3.52-6.84-3.58-12.93-4.56-19.34-.58-3.78-1.81-7.55-2.74-11.44Zm2.07.31,1.15.18c.8,3.92,2.23,8.35,2.56,12.32a50.7,50.7,0,0,0,4.44,18L110,66c-3.15-5.53-3.57-12.32-4.55-19.19C104.92,43,103.69,39.2,102.93,35.45Zm49.39,0v1.71l-5.82,3.75V39.23Zm-47.51.33L106,36c.77,3.78,2.21,7.81,2.55,11.48a58.92,58.92,0,0,0,4.32,18.48l-1.11.07a49.31,49.31,0,0,1-4.44-18.07C107,44.14,105.58,39.5,104.81,35.79Zm31.7,0,.42,1-2.79.14,0-1.14Zm-29.73.36,1.43.28c1.51,6,1.91,11.73,2.94,17.46,1.29,7.12,2.64,10.69,3.75,12l-1.18,0c-2.88-6.16-3.9-12.29-4.57-18.63-.39-3.74-1.62-7.43-2.36-11.16Zm2.18.41,1.09.22a105.87,105.87,0,0,1,2.45,14c1,8.46,3.85,14.9,4.45,15.2l-1.2-.05c-2.6-3.61-3.56-9.75-4.84-18.41-.56-3.81-1.12-7.39-1.94-10.94Zm1.75.35,1.22.3s1.1,4.33,1.93,10.08c.69,4.79,1.05,14.22,6.25,19.64,2.59,2.71,7.16,5.06,10.28,2.5a4.25,4.25,0,0,0,1.39-4.91c-1.35-3.27-5.9-2.71-4.39.72.17.82-.9.86-1.65.05a2.11,2.11,0,0,1,0-2.73c1.17-1.89,4.31-2.09,6.15-.4,2.94,2.89,1.67,7.85-2.06,9.42-4.29,1.83-9.82-1.95-12-5.55-3.62-6.27-4.18-12.23-5-18.56-.43-3.42-1.26-7-2-10.57Zm1.84.51,1.24.3s1.36,6.11,1.8,9.71c.55,4.46,1.17,9.71,3.07,13.77a15.32,15.32,0,0,0,4.65,5.88c1.5,1.06,2.84,1.73,4.83,1.3,2.3-.5,2.4-4.07.21-4.08-1.12,0-.39-1.09.54-1.12,3.31-.11,3.4,5.12.29,6.29-3.57,1.34-7.42-1.18-9.81-4.34-4.18-6.51-4-12.44-4.93-17.69A98.79,98.79,0,0,0,112.55,37.43Zm25,.18.75,1-4.2,0,0-1,3.43,0ZM114.39,38l1.18.41a89.72,89.72,0,0,1,1.91,10.31c.85,5.39,1.13,9.87,3.91,13.76,1.16,1.62,3.34,3.78,4.72,4,.85.18,1.74,0,2-.65.35-1.06,1.26-.58,1.28.39A1.77,1.77,0,0,1,128,67.83c-4.09.71-7.83-4.44-9-7-1.54-3.8-2.2-8-2.86-13.32C115.9,45.23,114.55,38.1,114.39,38Zm37.93.19,0,1.71-5.8,3.67V41.86Zm-36.15.33,1.33.36a80.1,80.1,0,0,1,1.77,9.29c.67,5.21,2.11,11.26,4.79,14.39a6.63,6.63,0,0,1,.52.69c.19.43,0,1.14-.24,1.15-4.79-2.5-5.92-12.54-6.33-15.93A80.55,80.55,0,0,0,116.17,38.47Zm18.61.8,4.22.12,1,1-5.59,0C133.83,39.73,134.2,39.8,134.78,39.28Zm17.53,1.38v1.41l-5.82,3.7V44.33Zm-17.39.45,6.18.11,2.17,1.29-9.44-.08Zm17.39,1.79v1.7l-5.82,3.66V46.67Zm-19.67.32,10.5.11,0,1.14-11.39-.29Zm-1.37,2,11.87,0,0,1.26-10.8-.1-1.11-1.19Zm21,.2v1.77l-5.82,3.62V49.09Zm-18.81,1.86,9.1,0-1,1.05-6.86-.07Zm18.81.62v1.67L146.5,53.2V51.55Zm-12,1.28-1.1,1.08-4.72-.07.16-1Zm12,1.17V52.1l-5.82,3.57V54.11ZM134.47,51l3.89.09-.59.82-3.41,0,.11-.92Zm-35,1.43c.59,4.5,3.85,13.59,3.85,13.59H102a62.09,62.09,0,0,1-3.19-11.2c-.11-.52.25-2.28.63-2.4Zm34.74.26,3,.05-.65,1.16h-2.44l.1-1.21Zm18.1.28v1.57l-5.82,3.59V56.65Zm-18.2,1.58,2,.06-.47,1.08-1.54,0Zm18.2.84V57l-5.82,3.62V59Zm-54.07.35A78.1,78.1,0,0,0,101.5,66h-1.1c0,.15-2.58-5.91-2.85-8.5-.13-.54.16-1.62.69-1.82Zm35.85.7,1.18.05-.2.61-1,0Zm.11,1.48h.61l-.15.58h-.38l-.08-.6Zm18.11,0v1.35L146.5,63V61.68Zm-55.53.15c.88,2.63,1.77,5.31,2.81,7.88l-1.3,0a55.08,55.08,0,0,1-2.14-6,1.85,1.85,0,0,1,.63-1.88Zm-1.3,1.76,2.17,6.07H96.43C95.92,64.67,95.35,63.3,95,62S94.58,60.7,95.49,59.81Zm56.83.38v1.6l-5.82,3.61V64ZM94,61.49c.28,0,.3.33.55,1.06l1.19,3.36-1.52,0a10.42,10.42,0,0,1-.83-3c0-.5-.13-1,.22-1.21a1.1,1.1,0,0,1,.39-.16Zm-1.62,1.27c.25,0,.35.47.56,1.17l.63,2-1.42,0a4.3,4.3,0,0,1-.45-2.58c.32-.37.53-.53.68-.53Zm59.91,0v1.68l-5.82,3.51V66.39ZM91,64l.59,1.94-1.28,0a3.75,3.75,0,0,1-.08-1.52Zm-1.68,1,0,0c.18.86,0,.91,0,.91H87.55A8.89,8.89,0,0,1,89.28,65Zm63,.5V66.8l-5.82,3.64V69.08ZM83.11,67.58l35,.1,1.17,1.65s-3.4.09-14.55,0c-9.38.12-28.24-.2-28.24-.2l1.83-.87A22,22,0,0,0,83.11,67.58Zm69.21.2v1.47l-5.82,3.54V71.36ZM53.9,69.19a15.46,15.46,0,0,1-7.4,1.4c-4.22-.34-10.68,1.43-12,5.5-.41,1.44-.41,1.48.36,2.21a2.43,2.43,0,0,0,.83.61,9.1,9.1,0,0,1,2.54-2.05,13.76,13.76,0,0,1,4-.53c4.48-.2,5.5-.39,6.61-.68,2.45-.65,4.93-3.07,5.08-5.77A2.56,2.56,0,0,0,53.9,69.19Zm-.12.37c-.47,5.63-6.55,6.36-9.22,6.2-5.41-.33-7.55,1.3-8.4,2.3-.28.27-.45.21-.4,0,.63-3.12,5.65-3.23,8.18-3.2,6.19.28,7.76-2.71,7.59-2.74-.47.21-.82.4-1.29.62-.21.09-.16,0-.7-.35,0,0-.62,1.43-1.41.11,0,.07-.56,1.17-1.64.14,0,.11-.65,1.06-1.71.09-1,.85-1.47.38-1.89-.22-.31.19-1.23,1.43-2,.09-.82.52-1.16,1.09-1.86.75-1.64.3-3.06,2-3.64,3.53-.18.53-.55.62-.59,0-.19-1.61,2.46-4.41,5.11-5.18a20.18,20.18,0,0,1,8-.86A16.86,16.86,0,0,0,53.78,69.56Zm66.35.43,1.64,1.11L93.24,110.56l-2.52-.07L120.13,70ZM74.37,70h3.24v5.38h-2.8l-1-1.49A1.74,1.74,0,1,0,73,72.4a1.77,1.77,0,0,0,0,.25l-1-1.56a16.36,16.36,0,0,1,1.5-.74C73.71,70.24,74.37,70,74.37,70Zm10,0h5.5v5.38h-5.5Zm12,0h5.69v5.41l-5.69,0Zm12.28,0h5.68v5.38h-5.68Zm43.54.13.08,1.68-5.82,3.55V73.71Zm-40.91.56a1.84,1.84,0,1,0,1.84,1.84A1.84,1.84,0,0,0,111.32,70.7Zm-24.2.1A1.84,1.84,0,1,0,89,72.64,1.84,1.84,0,0,0,87.12,70.8Zm12,0A1.84,1.84,0,1,0,101,72.67,1.84,1.84,0,0,0,99.11,70.83Zm6.19.22a1.55,1.55,0,1,1-1.54,1.55A1.54,1.54,0,0,1,105.31,71.05Zm-24.39,0a1.55,1.55,0,1,1-1.54,1.55A1.54,1.54,0,0,1,80.92,71.08Zm36.56.05a1.42,1.42,0,0,1,1,.37l-1.68,2.29a1.43,1.43,0,0,1,.73-2.66Zm-24.15,0a1.55,1.55,0,1,1-1.54,1.55A1.54,1.54,0,0,1,93.32,71.14Zm-18.63.11a1.15,1.15,0,1,1-1.15,1.15A1.15,1.15,0,0,1,74.69,71.25Zm-3.53.06a83.49,83.49,0,0,1,17.3,39l-1.64-.08A85.38,85.38,0,0,0,69.65,71.92l1.51-.61Zm40.16,0a1.22,1.22,0,1,1-1.22,1.22A1.22,1.22,0,0,1,111.32,71.32Zm-24.2.1a1.22,1.22,0,1,1-1.22,1.22A1.22,1.22,0,0,1,87.12,71.42Zm12,0a1.22,1.22,0,1,1-1.22,1.22A1.22,1.22,0,0,1,99.11,71.46Zm30.5.87c.65,5-.63,8.15-4.4,8.67-4.8.66-5.43,1-5.46,5.59,0,5.41-.83,7-4.65,7.4-4.3.48-5.29,1-4.91,6.35.28,3.91-1.26,5.57-4.56,6.3-2.59.57-4.83,1.44-5.79,4l-2.37,0c.61-4.12,4.74-6.08,7.39-6.22,2.85-.68,3.45-1.64,3-6.65-.35-3.77,1-4.92,5.45-5.78,3.53-.7,4.4-1.72,4.21-4.62-.41-6.22,0-7.15,3.52-7.91,1.79-.43,4.72-.62,5.83-2,1.27-1.56.95-2.9.83-4.82l1.91-.4Zm22.71.16v1.63l-5.82,3.6V76.14Zm-85.54,1c-1.25,5.39,3,6.56,5.64,7.47,3,1.06,3.77,2.59,3.42,7.95-.26,4.05.18,4.95,2.8,6.34,4,2.07,5.08,5,3.3,9.32-1.1,2.66-.52,3.4.17,5.72l-1.94,0a6.44,6.44,0,0,1-.38-6.05c1.66-3.74,1.61-5.62-2.08-7.31-2.86-1.3-3.73-2.53-3.91-5.22a19.77,19.77,0,0,1,.2-4.15c.33-3.09-.77-4.43-5.33-6.13-2-.76-3.42-2.52-3.83-5.32a7.47,7.47,0,0,1,0-1.69l2-.92ZM135,74l17.35,11.58-.12,2.58L133.84,75.86Zm-11.18.26a1.52,1.52,0,1,1-1.52,1.52A1.52,1.52,0,0,1,123.83,74.3ZM69.24,75a1.38,1.38,0,1,1-1.38,1.38A1.38,1.38,0,0,1,69.24,75Zm83,.16-.06,1.55-5.71,3.54V78.67Zm-76.85,1H115l-1,1.37-37.77-.39Zm-13.71.07C67,83.07,72.12,90.14,76.1,103.46l-1.7.65a79.7,79.7,0,0,0-14.29-27l1.6-.91Zm90.6,1.22v1.7l-4.38,2.67L146.65,81Zm-92.92.18.78,1s-.84.66-1.79,1.34c-2.59,1.86-2.92,2.07-3.1,3.28-.41,2.87,2.53,4.29,5.49,2.63,1.06-.49,3.38-2,3.38-2l.67,1s-3.33,2.5-5.28,3.07c-4.29,1.25-7.49-4.2-4.32-7.44a16.35,16.35,0,0,1,2.32-1.69C58.37,78.31,59.39,77.62,59.39,77.62ZM77,78.29l36.42.22L90.2,110.4l-1-.06C87.37,98.41,82.89,88,77,78.29ZM61.16,79.64l2.13,3a19,19,0,0,1-3.68,2.59c-1.84,1-3.83-.82-2.67-2.47S61.16,79.64,61.16,79.64Zm91.16.3V81.5l-2.52,1.55-1.15-.74Zm-91.43,1.2a5.21,5.21,0,0,0-3.25,2.19.9.9,0,0,0,.07,1.08c.34.44.75.42,2-.23,2.47-1.32,2.94-2.11,1.85-2.88a.93.93,0,0,0-.53-.16Zm-.08.64c.16,0,.34,0,.5,0,.43.18.3.71-.15.83-.1-.16-.84-.18-.79.58-.18.43-.17.4-.72.46A.59.59,0,0,0,59,84c-.37.2-.83.14-.92-.09s.23-.86.49-.85.35-.18.58-.33c0-.41.48-.47.62-.47a.81.81,0,0,0,.83-.34A.33.33,0,0,1,60.81,81.78Zm91.51.37v2.4l-1.83-1.17Zm-101.07.3A67.55,67.55,0,0,1,65.7,110.25l-1.33.92c-2-8.11-5.1-16.69-14.26-27.83Zm77.61.13a54.56,54.56,0,0,1,17.66,34.8l-1.65,1A55.82,55.82,0,0,0,127.8,84Zm-5.93.71a1.52,1.52,0,1,1-1.52,1.52A1.52,1.52,0,0,1,122.93,83.3Zm-73.52.6s1.39,1.44,1.39,1.78c0,.68-.54,1.06-3.75,2.23-.54.2-2.91.75-2.91.75l-.09-1.15c1.21-.44,4.45-1.22,4.69-1.91.12-.27-.46-1-.34-1Zm22.1.29a1.39,1.39,0,1,1-1.38,1.39A1.38,1.38,0,0,1,71.51,84.19Zm55.83.4a56,56,0,0,1,16.83,34.5c-11.68,9.53-19.61,21.5-22.76,36.48-1.56-2.6-2.88-5.6-4.32-8.53,15.58-13.73,18.86-38.47,5.38-55.81l4.87-6.65ZM66,86.46l.7,1.09s-.15.13-2.33,1.49c-3.19,2-3.72,3.29-2.65,5.32s2.31,2.19,5.74.53c1.21-.59,2.24-1.21,2.24-1.21l.55,1.14a16.83,16.83,0,0,1-4.49,2.34c-2.78,1-5.41-.72-5.91-3.94-.36-2.34.66-3.6,4.72-5.91C65,87.07,66,86.46,66,86.46ZM113.8,87a1.52,1.52,0,1,1-1.52,1.53A1.52,1.52,0,0,1,113.8,87Zm-62,.06.92.87a9.9,9.9,0,0,1-2.66,1.95c-2,1.23-2.24,1-1.23,1.89,1.89,1.6,4.5,5.14,4.49,6.05s-.8,1.69-2.31,2.37c-.83.37-4.09,1.54-4.58,1.63-1,.1-1.22.49-.27,1.36,1.62,1.87,3,5.86,2.45,7.08-.63,1.37-1.38,1.6-7.39,1.88-.68,0-1-.16-.64.71A21.36,21.36,0,0,1,41.71,117c.48,2.42.4,3.5-.54,4-.54.29-4.72.19-6.44-.15-2-.39-2.19-.42-1.87.87.41,1.78.67,6.56-.67,7.48-.56.36-1.16.28-3.61-.55-1.56-.53-2.92-1.13-2.92-1.13l0-1.48c1.28.53,4.77,2,5.77,1.56,1.18-1.69-.46-7.64-1.08-8.91-.75-1.52,0-1.85,1.77-.91.91.65,8.78,3.76,8.33,1s-1.33-5.65-3-7.53-.77-2.46.94-1.69c3,1.35,9.27,1,9-.38-.41-2.28-2.48-5.38-5.31-7.78-.79-.67-.82-1,.11-1.12,2.64-.21,10.21-1,9.15-2.77a18.21,18.21,0,0,0-3.15-3.94A13.91,13.91,0,0,0,44,91.24l0-1.09C47.5,89.86,49.29,88.82,51.83,87Zm-8.34,1.08c-1.24,13-6.65,23.7-17.84,31.16l-.06-1.46c9.83-7.41,14.55-17.94,15.83-28.12Zm9.5.61.92.83A9,9,0,0,1,52.34,91c-1,.79-.67.48,0,1.43.62.75,1.74,2.26,1.74,2.26l-.33,2A33.7,33.7,0,0,0,49.92,92c-.88-.91-.83-.93.43-1.59C51.28,89.91,52,89.28,53,88.72Zm14.33.2h0a38.58,38.58,0,0,1,1.79,3.54c-1.07,1-3.87,2.44-5,2.1-1.77-.57-2-2.46-.35-3.58a20.45,20.45,0,0,1,3.54-2.07h0ZM78.09,90a1.38,1.38,0,1,1-1.38,1.38A1.38,1.38,0,0,1,78.09,90Zm-11.16.12a11.19,11.19,0,0,0-3.33,2c-.26.19-.05,1.14.2,1.46s.92.35,1.64,0c.3-.17.84-.44,1.2-.61,1-.47,1.43-.82,1.39-1.21S67.47,90.1,66.94,90.13Zm-26.44.5c.28,1.46-.59,4-1.09,5.46-2.94,3.86-7.21,5.83-11.26,7.18a5.7,5.7,0,0,1-2.11.15A99.43,99.43,0,0,1,40.5,90.64Zm26.51.1a.63.63,0,0,1,.52.78c-.63.34-1,.05-.9.53,0,0,.06.75-.86.77a.81.81,0,0,0-.81.11c-.65.27-1.21-.3-.51-.62.19-.09.66-.24.79-.53s.37-.65.69-.45c.17,0,.56,0,.68-.24,0-.31.17-.34.33-.35H67Zm-38,.65c-.16,0-.28,0-.31.05-.27.26-.71,4.28-.42,4.57s1.48.51,1.58,0a37.32,37.32,0,0,0,.42-4.09c0-.24-.79-.53-1.27-.57Zm.44.44c.14,0,.26.22.34.56a11.91,11.91,0,0,1-.35,2.81c-.16.6-.62.46-.79-.09a5.51,5.51,0,0,1,.31-2.87C29.12,91.92,29.28,91.79,29.42,91.82Zm26,0,1,1.2c-2,19.38-15.84,36.15-30.58,42.8l0-1.29C42.6,125.66,52.75,110.87,55.4,91.83Zm66.71.08,1.83,2.52-2.62.08Zm-78.39.82c.9,0,5.71,3,5.06,4.44-.51,1.18-4.53,1.27-6.37,1.11l.28-1.13a7.84,7.84,0,0,0,2.7,0c2.25-.15,2.08-.93-.49-2.56l-1.37-.87.19-1ZM57,94.32a68.44,68.44,0,0,1,4.22,8.53c-18.16,17.18-16.75,40.59-5.3,55.95L51,165.47a56.77,56.77,0,0,1-17-33.39C48.36,121.7,55.12,106.19,57,94.32Zm67.42.76,1.08,2.08-2.6,0Zm-11.24,1a1.52,1.52,0,1,1-1.52,1.52A1.52,1.52,0,0,1,113.2,96.12ZM71,96.53l.52,1.18c0,.15-3.67,1.32-4.86,2.82a3.26,3.26,0,0,0-.38,3.84c1.05,1.43,1.8,1.63,3.58,1.08a23.43,23.43,0,0,0,4-1.78l.23.59s-2.07,1.22-3.64,2.11a3.81,3.81,0,0,1-1.92.46,4.26,4.26,0,0,1-2.53-7.47A21.27,21.27,0,0,1,69,97.52Zm47.48.73c11.84,17.13,3.73,35.91-3.91,42.55l-.21-2a32.39,32.39,0,0,0,3-39.52Zm7.62.77.93,2.12-2.75-.29Zm-47.73.69A1.38,1.38,0,1,1,77,100.11,1.38,1.38,0,0,1,78.33,98.73ZM117,99c10.38,15.12,4.59,39.24-15.21,46.59l-.1-1.69c20.19-8.46,22.17-31,14.06-43.72Zm-45,.09,1.31,3.55a10,10,0,0,1-4.15,1.75c-1.46.33-2.59-2.19-1.47-3.16A11.81,11.81,0,0,1,72,99.09Zm-33.66,0c.24,0,0,.59-.64,2.12-1.38,3.35-1.47,3.42-5,4a17.15,17.15,0,0,1-4.44.24c-1.94-.19-2.77-.74-1.51-1A31.35,31.35,0,0,0,37.12,99.9,4.93,4.93,0,0,1,38.37,99.1Zm66,.41a1.71,1.71,0,1,1-1.7,1.71A1.71,1.71,0,0,1,104.34,99.51Zm-51.6.47-.15,1.32s-2.11,1.12-3.1,1.54c-.76.31-.81.38-.57,1.09a26.37,26.37,0,0,0,1.44,3.17l-.88,2a23.94,23.94,0,0,0-2.09-5.37c-.94-1.31-1.11-1.47.35-1.75A29.88,29.88,0,0,0,52.75,100Zm18.8.43c-1,0-3.18.91-3.39,1.74-.12.47,0,1.13.41,1.27a4.34,4.34,0,0,0,3.79-1.29c.18-.25-.09-.77-.28-1.09S72,100.4,71.55,100.42Zm.05.71h.05c.17,0,.81.79.1.72a.8.8,0,0,0-.67.28c0,.39-.58.53-.84.4a.43.43,0,0,0-.5.22c-.4.29-.91.28-1,.07s.27-.74.62-.71a1.6,1.6,0,0,0,.56-.37c.11-.4.54-.33.81-.31S71.33,101.15,71.6,101.12Zm55.76.06.76,2.12-2.72-.24Zm-12.6.47a1.32,1.32,0,0,1,.92,2,1.86,1.86,0,0,1-1.9.69,2,2,0,0,1,.32,2.63c-1,1-2.91-.54-2.77-.69Zm-73.9.78S45,106,45.08,107.67a.83.83,0,0,1-.68,1c-1.65.55-6.22-.86-6.22-.86l.59-1.12c.72.2,4.27,1.12,4.57.67s-3-3.68-3-3.68Zm20.79,1.51.5,1.75-1.71-.43Zm66.88.31.45,2.42-2.74-.64Zm-52.28,0,.41,1.42c-18.19,8.46-23.5,27.89-14,43.92l-1.07,1.48C48.87,130.48,61.73,109.53,76.24,104.29Zm-41.42,1.43c.36,0,.43.2.43.41a16.23,16.23,0,0,1-2.43,3.17c-1.29.52-6.27-1.56-7-3.18-.15-.47.34-.27,1.45,0,2.79.8,5.62-.3,7.57-.37Zm48.46,0a1.38,1.38,0,1,1-1.38,1.38A1.38,1.38,0,0,1,83.29,105.75Zm-23.43,0,.25,2.15L58,107.81ZM26,107.45a11.81,11.81,0,0,0,5.22,2.64c1.12.25.8.36-.24,1.44s-.89,1.15-1.89.65c-1.66-.84-3.46-2.76-3.38-3.8C25.72,108,25.8,107.45,26,107.45Zm103.32.23.34,2.3-2.59-.9Zm-72,.83.85,2.06-2.3-.07,1.45-2Zm56.91.49a1.4,1.4,0,0,1,1.51,1.47,7.68,7.68,0,0,1-.07.77c1.35-.86,3.15-.15,3.09,1.24-.08,2-1,2-2.6,1.72.86,1.43-.16,2.8-1.77,2.27s-1.19-2-.5-3a3.58,3.58,0,0,0-.39,7c-.81-1.25-1-2.74.74-3s2.31,1,1.61,2.48c1.52-.53,3,.35,2.5,1.83-.55,1.8-2.15,1.67-3.09.58a1.57,1.57,0,0,1-2.07,2.17c-1.86-1-.94-2.77.31-3.24-4.78-.49-5.89,6.14-2.37,7.09-.91-.57-1-3.18,1.06-2.82s1.55,2.3.24,3.16c1.57-.34,3,1,2.09,2.43-1.13,1.64-2.68.47-3.26-.65.18,1.5-.77,2.45-2,1.89-2.1-1-.55-3.38,1.09-3.23-3.33-2-7.85,2.17-5.19,5.59-.1-1.56.67-2.83,1.74-2.66a1.76,1.76,0,0,1,1.5,2,2.54,2.54,0,0,1-1.92,1.44c2.54.28,2.76,2.09,1.71,3-1.79,1.51-2.62-.23-3-1.25-.36,2.54-3.35,1.67-3.45-.16-.1-2,2.21-2,2.63-1.85a6.86,6.86,0,0,0-3.75-2.16V132a18.33,18.33,0,0,0,8-21.44L109,110c1.26,1,2.53,3,4.87,2.28a8.33,8.33,0,0,1-.81-.65c-1.2-1.19-.53-2.59,1.15-2.67Zm-51,1.47.8,1.18c-11.74,13.8-9.6,29.59-2.85,40l-1,1.19c-6-7.69-10.86-26.32,3-42.42Zm-37.22.17a20.48,20.48,0,0,1,2.52,2.15c.7.57.69.67.11,1.21-1.3,1.26-2-.56-2.45-1.31-.51-1-.57-2-.18-2.05Zm45.8.08a1.64,1.64,0,0,1,1.43,1.66,4.51,4.51,0,0,0,0,.56,5.18,5.18,0,0,0,.46-.69c1-1.68,3.16-.71,2.81,1.22-.17.91-1.69,1.26-2.1,1,.39,1.08,1.46,1.33,2.76,1.8.45.09,1.23.31,1.23.31l0,.73c-7,4.45-11,12-8.45,22.32l-.78,1.06c-1.42-3.43-2.72-3.35-5.05-3.49A5.91,5.91,0,0,1,65,138c.71.84.39,2.3-.59,2.46-2.27.35-2.29-1.26-2-2.36,0,0-.41.34-.61.47a1.39,1.39,0,0,1-2.13-1.19c-.1-1.1.27-1.81,1.4-1.94a4.32,4.32,0,0,1,1,0l-.35-.67c-.54-1.06.64-2,1.73-1.74,1.71.41,1.58,1.9.59,3.06,2.66.2,4-1.54,3.85-3.27a3.62,3.62,0,0,0-3.3-3.62s.34.53.48.79a1.46,1.46,0,0,1-1.36,2.11A1.5,1.5,0,0,1,62.24,130c.11-.25.54-.57.48-.6s-.64.16-.8.19a1.53,1.53,0,0,1-1.69-2.23,1.94,1.94,0,0,1,2.55-.67c.14.05.32.25.34.21a3.74,3.74,0,0,0-.13-.53c-.28-1.12.25-1.72,1.46-1.64,1.69.11,2.32,1.49,1.18,2.74l-.74.8c.06.24,2.41.42,3.61-.84,1.39-1.46,1.61-4.51.21-5.5l-.69-.49c.67,1.34-.56,2.88-1.64,2.59-2.16-.52-2-2.3-.55-2.86A5.33,5.33,0,0,1,64,120.08a1.46,1.46,0,0,1,.32-2.16,2,2,0,0,1,2.76.64c.37-1.12.89-1.88,2.42-1.27,1.07.51,1.06,1.95-.12,2.73a5.88,5.88,0,0,1-1.05.48,5.15,5.15,0,0,0,2.25.59,3.7,3.7,0,0,0,3.31-4.94,5.29,5.29,0,0,0-.68-1,3.94,3.94,0,0,1-.2,1,1.61,1.61,0,0,1-2.56.42,1.33,1.33,0,0,1,0-2,3.54,3.54,0,0,1,1.32-.77c-.63-.21-1.34-.37-1.65-1a1.47,1.47,0,0,1,.67-1.88,1.71,1.71,0,0,1,1-.21Zm58.18.27.16,2.43-2.7-1Zm-74.51.14,1,2.21H53.87Zm52.47,0c2.36,8.75-1,15-7.25,19.95l-.7-.92c4.92-4.19,8.6-9.14,7-17.94Zm-72.35,0s3.65,4.74,2.92,6.34c-1,1.53-6.72-1.76-6.64-1.94l.72-.7c.91.37,3.75,1.94,4.38,1.7.22-1.43-1.46-3.28-2.09-4.52Zm43.42,0,27.68.51-.83,1.46h-2.16l-4.28,7.58H79.47l-.53-9.56Zm-31.07.76-1,1.74c-.9.28-3.6.32-3.82.5a27.38,27.38,0,0,1,.69,3.5l-1.07,1.37c-.28-1.68-.76-3.81-1.18-5.37-.36-1.32-.26-1,2.55-1.25a25,25,0,0,0,3.78-.5ZM53.56,114l1.14,2-2.31,0Zm-27.72.14c.13-.05.84.75,1,1-.05.53-.87.81-1,.63a6.36,6.36,0,0,1,0-1.59Zm104.42,0,0,2.54-2.74-1.22Zm21.77.57,0,1.64c-9.94,4.87-24.78,18-29,41.41l-.87-1A61.79,61.79,0,0,1,152,114.77ZM52,117l1.24,1.87-2.23.24Zm78.31.72-.22,2.25-2.7-1.5Zm-51.95.47c0,.53.06.92.09,1.45-6.13,4-8.2,10.24-7.18,18.12L70.43,139A18.31,18.31,0,0,1,78.36,118.22Zm-50.16.31s2.33,5.27,1.41,6.51c-.9.73-3-.49-3.91-1l0-1.26s.72.37,1.44.66c1.48.66,1.49-.13.67-2.33-.29-.77-.57-1.67-.57-1.67Zm121.21.16a19.54,19.54,0,0,0,2.65,1l0,1.49-4.17-1.5Zm-98.86,1.63,1.6,1.68-2.22.51Zm96.86.19a2.48,2.48,0,0,1,.47,0,15.45,15.45,0,0,1,4.14,1.15l0,1.66a36.21,36.21,0,0,0-4.45-1.39c-1.16-.16-1.09.49-1.09,2.13a14.39,14.39,0,0,0,1.61,6.44c.88,1.84.42,2.33-1,1.51-2.57-1.77-8.06-3.11-8.91-2.08s.84,6.34,2.82,8.86c.8,1,.85,1.19.48,1.59s-.79.34-1.66.07c-2.85-.91-7-1.12-8.17-.34s1.89,6.05,4.47,7.76c1.67,1.2,1.35,1.79-1.35,1.85-4.41,0-7.81,1-7.62,2.22.32,2.05,3.18,4.87,6.46,6.37,2,.82,1.17,1.15-.17,1.63a43.57,43.57,0,0,0-6.48,3.1l-1-1.3s2.11-1.35,4.41-2.64c.54-.3.51-.41-.24-1-2.45-2.06-4.24-4.36-4.62-5.9s.38-2.45,2.61-3.3a18.11,18.11,0,0,1,3.09-1c1.75-.39,1.78-.45,1-1.79L131,143.86c-2.6-4.47-1.23-6.08,4.81-6.17,1.48-.08,1.77-.08,1.69-.6-.32-2.1-1.25-4.52-1.12-6.3.28-2.69,3-3.34,7.88-2.13,1.12.28,1.2.22,1-.69-.88-3.84-.08-7.32,2.18-7.49Zm-17.31.3-.42,2.61-2.58-1.72Zm-96.5.62,7.12.47-1.13,1.33-4.3-.08-.16,3.68L33.75,128Zm46.12.28h5.86l0,6.21H79.69Zm7,0h5.45v6.21l-5.41.06,0-6.27Zm6.53,0h5.85L99,127.91H93.23Zm51.07.5a37.44,37.44,0,0,0,.33,5.73c-.09.37-.35.32-1.88,0a22.36,22.36,0,0,0-4-.46l1.23-1.31c1,.12,1.8.11,2.85.24,0-1,0-3,0-3l1.45-1.12Zm-94.68,1.23,1.64,1.65-2.09.54Zm79.91.54-.65,2.66-2.37-2.14Zm19.16.07a4.53,4.53,0,0,1,3.27,1.34v1.36l-2.33-1.05A13.56,13.56,0,0,0,151,130l-1.11.52a9.39,9.39,0,0,1-1.68-4.75C148.2,125.14,148.11,124.06,148.69,124Zm-99.87,2.68,1.95,1.16-2.16.87Zm80,.6-1,2.73-2.08-2.37Zm-103.09.87L30.94,130,30,131l-4.36-1.38Zm73.59.72.43,9.69L72,138.36,73,137l1.8,0,4.75-8Zm-50.84.75,2.06,1.46-2.14.95Zm103.63.86v1.58c-6.69,5-13.93,13.51-15.16,28.62l-1.81,1.55C136,147.51,142.13,137.33,152.08,130.51Zm-24.41.06-1,2.46-1.92-2.29Zm8,.45a38.58,38.58,0,0,0,1.14,6,23,23,0,0,0-5.56.43l.93-1.66s.86-.09,1.61-.24c1.55-.31,1.39-.12,1-1.47a12.15,12.15,0,0,1-.36-1.54A13.81,13.81,0,0,1,135.64,131Zm5.11.31c1.82,0,4.55,1.65,5.77,2.58l-.64.72c-.18.06-2.73-1.31-4.74-1.63a24.68,24.68,0,0,0,2.42,4.34l-.94.93c-.28-.06-3.92-5.45-3-6.67A1.87,1.87,0,0,1,140.75,131.33Zm-107.4,1.26c2.39,14.55,8.12,24.54,17.14,33.53l-.92,1.2a56.13,56.13,0,0,1-17.92-33.8l1.69-.94Zm14.93.61,2,1.07-2,1.17Zm103.77,0v2.13l-1.22-1.24A7.5,7.5,0,0,1,152.06,133.25Zm-25.73.44L125,136.13l-1.74-2.32Zm23.83,1.06c1.77.25,2.34,3.79,1.75,4.48a23.53,23.53,0,0,0-3.82-2.59A7.64,7.64,0,0,1,150.16,134.74Zm-28.45,1.82,2.83.27-1.5,2.34Zm-73.4,0,2.21,1.08-2,1.41Zm99.6,1a2.83,2.83,0,0,1,1.3.45c2,1.11,3,2.33,2.93,3.42,0,.5-.33.6-.65.24a9.6,9.6,0,0,0-4.24-1.83c-1.28-.25-1.4-.36-1-1C146.83,138,147.31,137.6,147.92,137.6Zm-34.11,1a64.8,64.8,0,0,0,15.23,28l-1.4,1.2c-5.14-5.91-10.79-12.83-15.41-27.8Zm6.12.62,2.83.43-1.66,2.12Zm-40,.12c.33,0-1,5-5.48,5.31-2.85.47-3.17,1-3.21,5.4-.06,6-1,7.44-5.94,7.81-3.25.25-3.68.91-3.13,5.6.52,4.46-1.16,6.74-5.3,6.73-3.59.3-5.08,2-5.07,5.32,0,1.35,0,1.68,0,1.68l-2.32.18a28.75,28.75,0,0,1,.18-3.26c.71-4.32,2.55-6,6.44-6,3-.23,3.47-.72,3.37-5.28s-.18-4.62,1-5.83a4.7,4.7,0,0,1,3.24-1.28c4.91-.46,5.3-.79,5.29-5.84-.46-4.2.7-6.77,3.36-7,5.38-.43,5.25-3.36,5-3.48l2.5,0Zm11,0c3.16,17.07,13.14,33,18.61,38.94l-1.07.57c-8-9.95-15.24-21.37-18.83-39.49l1.29,0Zm-5.7,0,2.5,0L59,180l-1.51-1.15,27.76-39.46Zm3.49,0c2.7,9.84,4.83,19.46,13.32,32.32l-36-.24Zm9.95,0c.21-.1,1.06,5-.21,7.32-1.13,3.17-.58,5,1.89,6.11,4.24,2,5.3,4,4.77,8.84-.38,3.41.65,5.06,3.85,6.16,3.81,1.31,5.47,3.36,5.45,6.73a4.29,4.29,0,0,1-.2,1.11L112.13,177s0-.46.11-1c.55-3.73-.15-4.74-4.54-6.5-4.15-1.66-5.18-3.59-4.47-8.38a7.11,7.11,0,0,0-.73-4.33c-1.09-1.94-3.49-1.92-5.21-3.69-1.43-1.52-1.58-3.63-.37-7.26.75-2.25.87-3.1.28-5-.39-1.23-.54-1.34-.54-1.34Zm-50,.54,2.44.68-1.84,1.92Zm97.05.51a9.21,9.21,0,0,1,3.79.94c3,1.52,3.6,2.77.93,2.1a12.75,12.75,0,0,0-5.76.22c-2.21.55-2.16.57-1.4-.77C144.25,141.3,144.5,140.53,145.73,140.5Zm-11,.64a15.13,15.13,0,0,1,5.46,1.16l-.55,1a14.5,14.5,0,0,0-4.33-.65,14.93,14.93,0,0,0,2.86,3.48l-.45,1c-.11.13-3.51-2.72-4.2-4.63C133.22,141.55,133.5,141.17,134.74,141.14Zm-40,.22A1.66,1.66,0,1,1,93,143,1.65,1.65,0,0,1,94.7,141.36Zm34.2,0s2.69,5.34,2.52,5.54c-1.67.74-3.49,1.12-5.32,1.79l.35-1.55a12.12,12.12,0,0,0,2.66-.83c1-.37-1.07-3.11-1.07-3.11Zm-10.93.4,2.79.5-1.86,2.09Zm-52.16,0c.66-.05,1.68,1.23,1.68,1.23l-3.38,4.68a1.46,1.46,0,0,1,.21-2.84c.34,0,1,.06,1,.06a2.59,2.59,0,0,1-.71-.6C63.57,143.17,64.5,141.93,65.8,141.83ZM110.28,143c3.93,0,4,4.87,3.22,6.46-.55,1.1-1.38,1.71-3.89,2.84a8,8,0,0,1-2.42.92l-.52-1.17s1.27-.56,2.64-1.11c2.82-1.14,3.51-2,3.2-4.07-.44-2.9-2.67-3.35-7-1.41-.5.23-1.13.45-1.13.45l-.3-.58a29.45,29.45,0,0,1,5.36-2.28A5.56,5.56,0,0,1,110.28,143Zm-60.73.53,2.22.74-1.62,1.6Zm99,.62c2,0,3.58.33,3.58,1,0,.33-.08.36-1.84.61-2.68.37-7.16,2.67-9.68,4.79-1.49,1.26-1.11,1-.48-.86s1.56-4,2.06-4.32C143.42,144.56,146.29,144.14,148.51,144.14Zm-32.1.25,1.89.42L117.07,146Zm-6.33,1a1.24,1.24,0,0,1,1.28,1c.58,1.4,0,2.23-2.18,3.17a13.22,13.22,0,0,1-3,1.27l-1.38-3.71s.43-.16,1.87-.75A10.11,10.11,0,0,1,110.08,145.42Zm-6.39.45A82,82,0,0,0,119.07,173l-1.37.86a79,79,0,0,1-15.53-27.8Zm48.31.39c.19,0,.29.09.25.22,0,.52-7.86,8-12.36,11.8-2,1.73-2,1.72-2.15,1.51a21.61,21.61,0,0,1,1.29-6.69,24.65,24.65,0,0,1,12.14-6.76A3,3,0,0,1,152,146.25Zm-42.25.06a9.24,9.24,0,0,0-2.38.75c-1.54.6-1.67,1.32-1,2.21.3.39.61.3,2.09-.29s2.16-.87,2.26-1.41C110.87,146.78,110.43,146.29,109.75,146.31Zm.14.42a.56.56,0,0,1,.52.57c0,.24-.35.47-.71.47a1,1,0,0,0-.64.27c-.19.28-.32.55-.67.49a1.06,1.06,0,0,0-.73.08c-.69.6-1.38.1-1.06-.5a.7.7,0,0,1,.59-.23c.2,0,.64,0,.71-.29s.52-.37.83-.36a.73.73,0,0,0,.69-.26.8.8,0,0,1,.41-.24Zm-35.55.1a1.66,1.66,0,1,1-1.65,1.66A1.66,1.66,0,0,1,74.34,146.82Zm-23.89,0,2.5.34-1.58,2Zm50,1.28a1.66,1.66,0,1,1-1.65,1.66A1.65,1.65,0,0,1,100.41,148.13ZM51.56,150l2.72.17-1.55,2.09Zm14.34.4a1.66,1.66,0,1,1-1.65,1.66A1.65,1.65,0,0,1,65.9,150.4Zm67.84,1c1.13,0,2.45.1,2.45.1l-.32,1.27c-1.38.13-3.15-.25-4.63.37.55.9,3.77,2.18,4.13,2.5a10.72,10.72,0,0,1-.27,1.35c.09.31-5.45-2.25-5.64-4.42C129.46,151.87,131.85,151.47,133.74,151.44Zm-19.06,1.32c3.15,0,4.7,4.44,3.48,6.39a9.12,9.12,0,0,1-3,2.85c-.69.44-2.53,1.35-2.53,1.35l-.83-1.28a15.23,15.23,0,0,0,1.42-.67c1.73-1,5.25-3.08,3.55-5.93-1-1.54-2.38-1.84-5.35-.33a16.25,16.25,0,0,1-2.72,1.23l-.56-1C108.27,155.43,112.55,152.85,114.68,152.76Zm10.14.16a18.71,18.71,0,0,0,4.78,5.65s-2.56,1.65-4.09,2.7l-.9-1.06,2.2-1.89-2.47-3.46Zm-71.61.3h2.47l-1.06,2.23-1.42-2.24Zm95.74.41a40,40,0,0,0-.44,4.65A2.12,2.12,0,0,0,150,159a11.68,11.68,0,0,0,.59-5A2.91,2.91,0,0,0,148.94,153.63Zm.75.43a.3.3,0,0,1,.21,0c.31.15.28.37.29.65a7.91,7.91,0,0,1-.28,3.05c-.23.52-.76.33-.78-.38,0-1,.17-1.76.23-2.64C149.38,154.38,149.5,154.12,149.69,154.06Zm-35.2,1.32c1.62.12,2.25,1.48,1.65,2.46-1.47,1.88-3,2.22-4.89,3.31l-1.92-3.6S113.07,155.43,114.49,155.38Zm0,.8a7.72,7.72,0,0,0-2.65,1.1c-1.11.54-1.46,1.38-.71,2.14.83.92,3.71-1.28,4.19-1.81a.82.82,0,0,0-.17-1.2A1,1,0,0,0,114.44,156.18Zm-59.21.15,2.42,0-1.31,1.85Zm59.16.29a.55.55,0,0,1,.27.09.51.51,0,0,1-.2,1c-.29.08-.8.08-.81.47s-.45.4-.71.36-.7-.06-.78.26-.39.45-.7.14-.18-.77.48-.84a.82.82,0,0,0,.62-.45c0-.28.18-.44.49-.38a1.19,1.19,0,0,0,1-.57A.65.65,0,0,1,114.39,156.62Zm-13.87.14a1.66,1.66,0,1,1-1.65,1.66A1.65,1.65,0,0,1,100.52,156.76Zm-35.26,3a1.66,1.66,0,1,1-1.65,1.66A1.66,1.66,0,0,1,65.26,159.81Zm69.54,1.4v1.25c0,.06-2.57,1.21-4.1,1.91-.5.27-.3.8-.27,1.34l-.74.5s-1-.75-1.15-1.22C128.17,163.47,133,161.67,134.8,161.21Zm-109,.07,18.91,13-1.29,1.89-17.56-12Zm94.95.42c1.23,0,2.18.71,3.1,2.14,1.82,2.84.91,5.09-2.87,7.38l-1.77,1.08-.89-1.1s1.28-.75,1.81-1.09c3.1-2,4-3.7,2.61-5.66s-2.7-1.74-6.53.71a13,13,0,0,1-1.7.88l-.84-1.15s2.17-1.12,2.91-1.59A8.28,8.28,0,0,1,120.7,161.7Zm-13.21.85a1.66,1.66,0,1,1-1.65,1.66A1.66,1.66,0,0,1,107.49,162.55ZM56.26,163a1.66,1.66,0,1,1-1.65,1.66A1.65,1.65,0,0,1,56.26,163Zm64.37,1.32a1.42,1.42,0,0,1,1.35,1c.66,1.6-.23,2.79-3.47,4.6l-.84.46-2.38-3.3s.84-.58,1.63-1.05C118.69,164.91,119.82,164.37,120.63,164.34Zm-.32.79a1.14,1.14,0,0,0-.53.18,9.36,9.36,0,0,0-2.87,1.87c-.38.53-.21,1.06.52,1.74.61.41,3.79-1.93,3.87-2.61C121,165.58,120.77,165.11,120.31,165.13Zm-94.42.18.53.36-.53.42Zm94.46.4a.67.67,0,0,1,.47.18.54.54,0,0,1-.4.86.81.81,0,0,0-.74.48.85.85,0,0,1-.78.44.46.46,0,0,0-.62.32.6.6,0,0,1-1,.07c-.22-.24.18-.93.44-.92,0,0,.34.09.69-.39a.78.78,0,0,1,.76-.54c.3.1.47-.23.59-.41A1.1,1.1,0,0,1,120.34,165.7Zm-93.2.43.76.51-2,1.44v-1.16Zm1.47,1,1,.69-3.76,2.7V169Zm1.93,1.23,1.09.72L25.89,173v-1.5Zm2.07,1.05v1.25l-6.73,4.71v-1.27Zm.76.9,1.45,1,.36,42.48L26.12,220v-1.86l7.61-5.52-.37-42.34Zm109.39,1.15c-2,2.33-4.76,2.49-7.14,2.42-6.41.09-10.39.43-11.21,8.1,2.61-2,5.38-2.21,8.59-2.12,4.06,0,5.89-.27,7.54-1.1,2.65-1.33,4.33-3.7,4-5.37C144.23,173,143.4,171.53,142.77,171.44Zm-110.15.37v1.47l-6.73,4.52v-1.49Zm76.85.14a1.66,1.66,0,1,1-1.65,1.66A1.66,1.66,0,0,1,109.47,171.94Zm-43.94.17c11.89.37,37.15.23,37.15.23l1.35,1.95-39.71-.42Zm77.5.07c.36,0,.41.47-.34,1.21-1.42,1.4-2.9,2.08-7.58,2-4.94-.09-6.87.69-8.15,2.9-.37.64-.36.89.17.41s1.48-1.58,1.9-.59c.84-.55,1.57-1.39,2-.33.24-.05,1.67-1.49,2-.22.68-.76,1.26-1,1.58.08,1-.46,1.48-1.33,2-.13.78-.56,1.37-1.26,1.82-.19.67-.2,1.34-1.42,1.73-.44a8.57,8.57,0,0,0,3.15-2.86c.56-1.26,1.07-.42.44.87-1.63,3.16-4.41,4.32-10.81,4.33-3.88,0-5.49.39-6.71,1.1-2,1.14-.9-1.74.47-3.49,1.73-2.2,3.7-2.85,9.1-2.66,3,0,4.84-.39,5.63-1A3.7,3.7,0,0,1,143,172.18Zm-87.71.67a1.66,1.66,0,1,1-1.65,1.66A1.66,1.66,0,0,1,55.33,172.85Zm-22.71,1.23v1.49l-6.73,4.61v-1.53Zm32.54.72h5.22v5.53H65.16Zm11.7,0h5.62v5.53H76.86Zm12.51.18h5.42v5.35H89.37Zm11.75.11,3.61.12s2,2.56,2.85,3.74l-2.67,1.37h-3.79v-5.24Zm-33.45.38a1.84,1.84,0,1,0,1.84,1.84A1.84,1.84,0,0,0,67.67,175.46Zm12,.18a1.84,1.84,0,1,0,1.84,1.84A1.84,1.84,0,0,0,79.68,175.64Zm12.28,0a1.84,1.84,0,1,0,1.84,1.84A1.84,1.84,0,0,0,92,175.69Zm-29.31.37a1.43,1.43,0,0,1-1.58,2.37Zm5,0a1.22,1.22,0,1,1-1.22,1.22A1.22,1.22,0,0,1,67.67,176.08Zm30.29,0a1.48,1.48,0,1,1-1.47,1.48A1.48,1.48,0,0,1,98,176.13Zm6.22,0A1.84,1.84,0,1,0,106,178,1.84,1.84,0,0,0,104.18,176.13Zm-30.55.05a1.48,1.48,0,1,1-1.47,1.48A1.48,1.48,0,0,1,73.63,176.19Zm6,.08a1.22,1.22,0,1,1-1.22,1.22A1.22,1.22,0,0,1,79.68,176.27Zm-47.06,0v1.49l-6.73,4.72V181Zm59.34,0a1.22,1.22,0,1,1-1.22,1.22A1.22,1.22,0,0,1,92,176.31Zm-6.16.15a1.48,1.48,0,1,1-1.48,1.48A1.48,1.48,0,0,1,85.8,176.47Zm18.38.29A1.22,1.22,0,1,1,103,178,1.22,1.22,0,0,1,104.18,176.76ZM51.84,178a10.6,10.6,0,0,1,8.44,4.21c2.89,3.88,4.83,8.83,5.71,15.33.44,3.22,1.93,12.88,2.78,15.16l-1.17-.22c-.16.07-1.66-6.08-2.6-14.21a32.18,32.18,0,0,0-2.73-10.44c-2-4-5.37-8.34-9.87-8.68-2.63-.2-5.09,1.45-5.36,3.78a3.7,3.7,0,0,0,2.11,4.12c1.38.56,3,.14,3.22-1.75a1.91,1.91,0,0,0-.12-.91,1.23,1.23,0,0,1,1.39.73c.14,0,0,2.74-2.13,3.28-2.58.85-5.56-1.71-5.79-4.32a6,6,0,0,1,3.59-5.65A7.94,7.94,0,0,1,51.84,178Zm-19.22.85v1.52l-6.73,4.66v-1.53Zm19.37,1c3.77-.11,7.43,4.1,9,6.88a33.13,33.13,0,0,1,3.34,11.82c.75,7.36,2.16,13.37,2.45,13.64l-1-.22c-.21.14-1.63-6.5-2.49-13.89a30.84,30.84,0,0,0-3.84-11.42c-1.68-2.92-4-5.11-6.64-5.42-1.68-.17-3.42.32-3.76,2.1a1.73,1.73,0,0,0,1.6,2.16l.62.05c.65.12-.37,1.18-1,1.09a3.1,3.1,0,0,1-1.62-5.29A5.26,5.26,0,0,1,52,179.85ZM60,180.93l42.28.43s0,.76-2.59.63a13.36,13.36,0,0,0-5.17.68l-33.21-.07Zm-27.43.49v1.41l-6.73,4.72V186Zm19.65.6a4.52,4.52,0,0,1,2.26.56c5.24,3,7.24,10.59,7.93,15.35.94,7,2,13.58,2.33,13.74l-1.14-.26a93.59,93.59,0,0,1-2.18-12.94c-.63-5.53-2.51-11.08-6.25-13.42-2.4-1.64-2.87-1.8-4-.85-1,.83-1.93-.42-1.13-1.43A3.21,3.21,0,0,1,52.27,182Zm-19.65,1.91v1.16l-6.73,4.7v-1.37Zm30.77,0c.09-.08,3.64,6,4.76,15.5.59,5,2.28,13.58,2.55,13.64L69.47,213c-1.26-5-2-9.82-2.63-14.13-.76-4.87-1.37-9.2-4.4-14.84l.94,0Zm.81.05,1.1,0a46.11,46.11,0,0,1,4.57,14.76,72.93,72.93,0,0,0,2.92,14.86l-1.18-.33c-1.48-4.15-2-9.17-2.8-14.37C67.93,193.19,66.55,188.19,64.19,184ZM71,184c1.92,5,3.18,7.38,4.05,13.53a89.65,89.65,0,0,0,3.84,17.06l-1.11,0a67.48,67.48,0,0,1-3.44-15.82A48.28,48.28,0,0,0,70.1,184l.88,0Zm-1.89,0c.1-.16,3.67,7,4.49,14.86A72.41,72.41,0,0,0,77,214.29l-1.14,0c-1.31-1.52-2.3-8.75-3.38-15.49A50.65,50.65,0,0,0,68.11,184h1Zm-2.87,0h1a47.75,47.75,0,0,1,4.55,14.84c1,7.08,2,13.48,3.11,15.14l-1.23-.08a75.73,75.73,0,0,1-3.08-15.32A44.23,44.23,0,0,0,66.21,184Zm5.58,0,1.2,0a44.8,44.8,0,0,1,4.39,15.15,73,73,0,0,0,3.29,15.53l-1-.06a73.81,73.81,0,0,1-3.81-16.12,52.25,52.25,0,0,0-4.11-14.53Zm7.39,0a54.61,54.61,0,0,1,2.68,8.79l-.68,1.33a97.38,97.38,0,0,0-3.45-10.09Zm-5.47,0,1.46,0a68.63,68.63,0,0,1,4.15,14.1s.35,1.84.37,2.44c-.08,5.11.8,8.75,2.69,14.25l-.87-.06a69.52,69.52,0,0,1-3.35-15.25,44.51,44.51,0,0,0-4.46-15.5Zm3.38,0a113.63,113.63,0,0,1,3.67,11,4.09,4.09,0,0,1-.66,2.38c-1.22-4.42-2.25-9-4.13-13.35Zm2.76,0,1.16,0,2.31,6.63-.9,1C81.73,189.65,81,187.24,79.84,184.2Zm6.75,0,.85,2-.91.77a23.22,23.22,0,0,1-1.17-2.74Zm1.72,0,.42,1.15L88,186l-.59-1.71Zm-6.63,0h1.19c.48,1.39,1.76,4.8,1.76,4.8l-.86.9s-1.61-4.31-2.1-5.71Zm1.85,0h1.06c.32.9,1.31,3.41,1.31,3.41l-.73.7Zm5.53,0,1,0-.12.26-.65.33Zm-34.28,1.47c4.38,2.32,5.59,9.25,6.06,13.06a106.22,106.22,0,0,0,2,12.21l-1-.16s-.72-3.42-1.22-6.67c-.41-2.71-.73-5-.84-6-.07-.65-.18-1.4-.24-1.68a18.52,18.52,0,0,0-1.6-5,11.07,11.07,0,0,0-2.28-3.42,8.53,8.53,0,0,1-1.12-1.3C54.29,186.32,54.78,185.79,54.78,185.79Zm-22.16.36v1.31l-6.73,4.77v-1.49Zm0,2.29v1.5l-6.73,4.45v-1.33Zm0,2.56v1.4l-6.73,4.71v-1.44Zm11.24,1.41h.59l0,1-.92-.06.28-.92Zm-11.24,1.21v1.49l-6.73,4.46v-1.39Zm10.54.57,1.42,0,0,1-1.83-.06.42-1Zm-.83,1.64,2.34,0v1l-2.9,0,.56-1Zm-9.72.21v1.57l-6.73,4.49v-1.58Zm8.53,1.63,3.42,0,0,.82-4.08,0Zm-8.53.91v1.53l-6.73,4.32v-1.38Zm7.1.73,4.7.07-.12.79-5.36,0ZM32.62,201v1.47l-6.73,4.4v-1.42ZM38,201l6.18.14,1.3,1.19-9.62.06L38,201Zm-1.87,2.17,10.63.13.74.69-11.41,0Zm-3.47.34v1.56l-6.73,4.42v-1.43Zm3.48,1.37,11.78.05-.85.95-10.94,0,0-1Zm-3.48,1.18v1.43l-6.73,4.58v-1.64Zm3.18.75,10.18,0-1.2.94-7,.16-2-1.14Zm-3.18,1.77v1.37l-6.73,4.83v-1.53Zm6.16.17,6,0,.11.81H39.73Zm1.65,1.66,4.59,0,.22,1-4.08-.05-.72-1Zm-7.82.73v1.27l-6.73,4.71v-1.4Zm12.72,1,.05,1-2.74.1-.77-1,3.46-.06Zm0,1.76,0,1-1.91,0L43,214l2.36-.07Zm-1.7,1.85h1.51l-.13.8H43.83Zm.45,1.92h.73l-.12.63h-.37ZM59,228.29l-.35.45H69.13l.12-.45Zm13.56,0-.19.61h4.75l.13-.61Zm7.76.12-.15.58H92.27l-.2-.58Zm14.52,0,.25.7h4.08l-.27-.7Zm14.09,0h-7.17l.26.78h7.41l-.5-.79Z"/></g></g></g></g></g><path id="path163-0-2-5-8-7-5-0-7-4" class="cls-2" d="M48.16,64.85s-3.72-6.11-8.73-13.28c-3.35-4.8-6-10-6.29-14.48-.29-5.12,2.42-10.25,7.32-10.5s6.88,3.95,7.69,7.4c.81-3.46,2.8-7.65,7.69-7.4s7.61,5.38,7.32,10.5c-.25,4.48-2.93,9.68-6.28,14.48-5,7.18-8.73,13.28-8.73,13.28Z"/><path id="path163-0-2-5-8-7-7-8-0-0-6" class="cls-2" d="M130.62,184.8s-3.72,6.1-8.73,13.28c-3.35,4.8-6,10-6.28,14.48-.29,5.12,2.42,10.25,7.32,10.5s6.88-3.95,7.69-7.4c.81,3.46,2.8,7.65,7.69,7.4s7.61-5.38,7.32-10.5c-.25-4.48-2.93-9.68-6.28-14.48C134.34,190.9,130.62,184.8,130.62,184.8Z"/></g></g></g></svg>