<svg xmlns="http://www.w3.org/2000/svg" viewBox="0 0 178.78 249.65"><defs><style>.cls-1{fill:#fff;stroke:#000;stroke-width:1px;}.cls-2{fill:#131f67;}.cls-3{fill:#d40000;}.cls-4{fill:#e2cf00;}</style></defs><title>JS</title><g id="Layer_2" data-name="Layer 2"><g id="svg11376"><g id="JS"><rect id="rect7331-9-9" class="cls-1" x="0.5" y="0.5" width="177.79" height="248.65" rx="8.5" ry="8.5"/><path id="path7363-8-9" d="M14.21,40.35C10.78,44.72,7.1,47.24,7,50.65A3.31,3.31,0,0,0,9.79,54a2.85,2.85,0,0,0,3.27-2.75c0-.4.47-.39.47.16A10.41,10.41,0,0,1,12,56.3h4.5a10.43,10.43,0,0,1-1.56-4.9c0-.54.47-.55.47-.16A2.85,2.85,0,0,0,18.64,54a3.31,3.31,0,0,0,2.74-3.34c-.06-3.41-3.73-5.93-7.17-10.3Z"/><path id="path7367-3-1" d="M164.57,209.3c-3.43-4.37-7.11-6.89-7.17-10.3a3.31,3.31,0,0,1,2.74-3.34,2.85,2.85,0,0,1,3.27,2.75c0,.4.47.39.47-.16a10.42,10.42,0,0,0-1.56-4.9h4.5a10.43,10.43,0,0,0-1.56,4.9c0,.54.47.55.47.16a2.85,2.85,0,0,1,3.27-2.75,3.31,3.31,0,0,1,2.74,3.34c-.06,3.41-3.73,5.93-7.17,10.3Z"/><path id="path35-7-9-2" d="M14.13,11.53v2.75H16.8s.07,2.66.09,8.29c0,5.47.13,8.18-.22,9.74-.94,3.59-6.13,3.61-7.16,1A10.44,10.44,0,0,1,9,29.16H6.16s0,.76,0,1.69c0,4,1.35,6,4.47,6.73s7-.46,8.3-3.2c.8-1.57.7-1.67.72-11.15,0-6.32.11-8.95.11-8.95h2.46V11.53Z"/><path id="path35-7-8-1-4" d="M164.66,238.11v-2.75H162s-.06-2.66-.09-8.29c0-5.47-.13-8.18.22-9.74.94-3.59,6.13-3.61,7.16-1a10.44,10.44,0,0,1,.47,4.18h2.87s0-.76,0-1.69c0-4-1.35-6-4.48-6.73s-7,.46-8.3,3.2c-.8,1.57-.7,1.67-.72,11.14,0,6.32-.11,8.95-.11,8.95h-2.46v2.75h8.13Z"/><g id="g3851-4-2-7-4"><path id="path4037-8-0-2" class="cls-2" d="M24.08,19.56V230.09H154.7V19.56Zm41.49,1.16,59.17.22-9.17,14c-12-3.78-31.36-1.33-41.36.58C71.58,31.15,67.77,25.64,65.58,20.72Zm-39.77.54h38l8.92,16.2c.32.45,0,1.38-.18,1.91a41.27,41.27,0,0,1-4.3,8.57c-2.11,3.49-2.87,6.69-2.12,8.84a2.17,2.17,0,0,1,.17,1A5,5,0,0,1,64,60.95c-.83.13-2.57.24-3.57,1.23A5.26,5.26,0,0,0,59,66.54a11,11,0,0,0,.16,1.33C47.81,72.58,39.68,78.1,39.95,78.3c-.11,0-10-4.58-14.15-5.7Zm101.05,0h26.07V95.69l-9.84-6.48c.82-.57,1.33-.91,2.19-1.49.15,0,.44-.05.63-.09,1.74-.39,3-1.69,2.36-3-.41-.92.15-.86.66-1.61a2.07,2.07,0,0,0,.09-2.3c-.18-.35-.08-.49.22-1.14a2.28,2.28,0,0,0-.81-3.2c-.11-.16.11-.41.16-.63a2.19,2.19,0,0,0-1.4-2.81c-.6-.15-.8-.26-.59-.79.37-.94-.12-1.3-.9-1.6-1.31-.52-.94-.6.68-1.32,3.31-1.48,4.09-5.9,1.81-9.9-.29-.51-1.06-1.7-1.59-2.5S145.39,55,145.39,55l4.38-6.09a49,49,0,0,1-4.14-5.6c.26-1,3.31-4.07,3.71-7.07.62-4.7-3-7.71-6.34-7.36-2.35.25-5.24,1.74-5,6.1a10.16,10.16,0,0,0,1.55,4.44c.67,1.27,1.54,2.6,2.37,3.89l-4.41,6L142,55l-.16.24a45.18,45.18,0,0,0-2.29,4c-1.64,3.24-2.22,6.8,1.15,9.31a7.89,7.89,0,0,1,1.3.92c.33.33.13.58-.41.7a10.72,10.72,0,0,0-1.92.38,21.15,21.15,0,0,0-5.74,3.23,16.67,16.67,0,0,0-3,4.6c-.9,1.91-1.16,2.33-1.16,2.33L114.2,70.78s-.39-.31-.5-.43c-.29-.32-.18-.51,0-.87a4.37,4.37,0,0,0,.1-1.87,3.08,3.08,0,0,1,.74-2.49,1.77,1.77,0,0,0,.22-1.49c-.24-.73-.27-.5.2-1,.18-.22.4-.33.43-.57s0-.88,0-1.94c0-2.1,0-1.93,1.17-2.86,1.47-1.15,2-1.69,2.25-2.21.33-.75,0-1.31-.83-2.79-.38-.68-1-1.6-1.25-2.11a17.93,17.93,0,0,1-1.66-3.29,3.71,3.71,0,0,1,0-3.34c.64-1.14.82-1.83.8-4.13,0-2.13-.18-1.93.37-2.65C120.39,31.38,126.86,21.26,126.86,21.26Zm16.58,8h.26a5.52,5.52,0,0,1,3.74,1.61c1.61,1.61,1.5,3.92,1,6.34a8.3,8.3,0,0,1-.92,2.14,5.24,5.24,0,0,0-.5.84,14.93,14.93,0,0,1-.88,1.42c-.47.71-1,1.71-1,1.71a25.79,25.79,0,0,0,2.1,3c1,1.5,1.67,2.81,1.75,2.73a5.46,5.46,0,0,1-.61,1.11,47.34,47.34,0,0,0-3.1,4.61c0,.07-.22.15-.22.22,0,.27.4.59,1,1.39,3.54,4.85,4,8.94,1.38,11.34a4.92,4.92,0,0,1-4,1.42,5.16,5.16,0,0,1-4.65-5.64,7.07,7.07,0,0,1,.91-3.6,21.57,21.57,0,0,1,1.86-3.43,15.51,15.51,0,0,0,1.06-1.44,50.67,50.67,0,0,0-3.57-4.65,4.74,4.74,0,0,1-.67-1.17l4-5.86A14.09,14.09,0,0,0,141,41.11c-1.59-2.36-2.61-4.87-2.6-6.28C138.43,31.31,140.73,29.25,143.43,29.25ZM153.31,113c-2.34,1.24-4.62,5.49-.17,2.53l.11,2.44c-2.32,3.28-6.85.88-5.7-2.52-3.13.4-3.62-2.76-3.46-4.27-4.11-.89-2.69-5.24-2.69-5.24-2.38-2-2.79-4.06-.87-6.25-1.95-1.21-2.49-2-4.63-2.86,1.64,14.56,9.51,22.12,17.8,28.86-.22,0-.24,4.69-.76,3.82-11.83-8.82-19.44-18.91-20.75-35.23-.1.26-5.61-4.26-6.52-4-1.91,26.42,19.17,43.79,27.94,47.22a30.3,30.3,0,0,1,0,3.69c-13.29-5.78-28.06-22.76-30.91-43l-7.84,12.12L111.9,109l12.68-19.93L116,83.76l-14,22.07s-.37,1.84.64,1.81c19.59,2.09,48.73,25.58,39,63.81-.85-.33-2.19-1-2.26-1,1.53-3.29,5.8-24.63-7-41.87-5.89-7.9-15-16.3-29.67-18.79,1.21,2.49.68,8.15.68,8.15l3.41.69a10.31,10.31,0,0,1-2.57-3.53c-.64-2.05.3-3.27,2.58-2,.91.51,1.13.49,2-.17,1.83-1.36,3.93,0,3.45,2.3-.07.33,0,.54.89.62a8,8,0,0,1,5.25,2.7c.63.81.77.69,1.33.2,1.38-1.19,3.66.46,3.25,2.31-.23,1.06-.1,1.31.38,1.51,2.69,1.13,3.35,1.84,4.19,4.19.31.86.56,1.14.72,1.1s.55-.18.94-.33c2-.76,3.18,1.66,1.76,3.57-.29.39-.08.76.44,1a6.79,6.79,0,0,1,3,5.37c.08.87.17.87,1,.83,2.22-.09,3.28,2.9,1.47,4-.63.38-.51.88,0,1.46a5.36,5.36,0,0,1,1.49,4.39c-.15,2.33,0,2.28.74,2.57,2.16.82,1.76,4.27-.36,4.26,1.53,3.55-.48,7.88-.42,8,4.07,2.29.39,4.72-.79,4.29,0,0-.6,1.59.08,2.41-3.57,4.72-8.25,5.5-13.43,7.84L124,160.91c2.15,1.73,4.29,3.35,6.42,5,0,0,.54-.16,0-.62-.95-.88-3.34-2.42-4-3a88.94,88.94,0,0,1-7.67-7.33c-.42-.8-1.06-.34-1-.29a36.85,36.85,0,0,0,1.92,3.49c1.77,2.44,3.48,5.16,3.3,7.85a10.18,10.18,0,0,1-.94,3.81c-.25,1-1.9-.18-1.48-1,.73-2.38,1.34-4.33-1.28-8.16a53.93,53.93,0,0,1-2.93-5.25l-1.06.25,0,21.66c-.89,0-3.14.62-2.68.63,7-1.4,9.17,8.62,2.39,8.95-1.29,0-2.62,2.26-2.75,3.46.06,2.91.49,6-1.65,8.78a27.89,27.89,0,0,0-1.34,2.82c-2.61,4.6-3.77,7.24-3.5,8.43.07.31.13.71.13.71a95.13,95.13,0,0,1-22.88,2.79A100.51,100.51,0,0,1,88,201.39c1.56-3.07,2.36-5.17,1.92-5.81-6.63.33-5.36-9.37,1-9,0,0,1.59-5.59,3.37-8.11,1.69-.94,5.08.34,7-.92,4.48-1.37,7.42,3.92,7.42,3.92l1.21-5-39.63-.19s-3.86,1.6-5.94.74a19.12,19.12,0,0,1-3.24-2s15.29-24.45,17.51-28c.18-.29-.39-.9-.4-.9C78.1,145.3,60,174.36,60,174.36c-10.2-6.52-23-14.76-34.37-22l0-10.88c8.25-5.19,7.5-7.31-.13-1.65-.11.09-.16-4.09-.16-4.09,5.82-5.19,1-3.56-.17-1.77,0-1.29-.27-3,.56-3.82,2.54-2.34,5.54-.19,5.69,3.27,3.32.65,2.91,3.56,3.76,4.73,3.38,1.91,1.6,4.8,2.44,5.78,3.56,2.24,1.08,5.85.32,5.76.45.3,4.88,3.26,5.26,3.16-.38-15.53-15.93-28.06-18-29.57l.37-3.35S47,133.58,46.8,155.51l6.83,4c-.61-22.5-10.82-37.76-28-47.42L25.37,108c14.45,6.71,27.86,20.3,31,42.57l8-12.39,2.82,1.36L54.32,160.08l8,5.26c6.22-8.18,11.41-18.2,14.58-23-.08-.44-.26-1.06-.26-1.06-30.59-5-47.82-33.64-39.61-63.54l2.13.93c-6.38,22.14,4,54,37.3,60.52-.07-2.35-.48-8.14-.48-8.14s-4.37-1.31-3.73-.79c1.07.91,3.48,4.85,2.46,6.25a5.25,5.25,0,0,1-3.29-1.29c-.5-.37-.52-.29-1.09.31-1.57,1.67-3.86.71-3.88-1.59,0-1,0-1.18-1.43-1.19-2.1,0-3-.37-4.29-2.05-.89-1.19-.81-1.2-1.86-.84a2.15,2.15,0,0,1-3-2.7c.31-.77,0-1-.93-1.17-1.78-.29-3.79-2.52-4.16-4.34-.08-.37-.26-.47-1.31-.43-2.06.07-3.2-1.17-2.39-2.92.44-.94.56-1.32-.26-2a5.93,5.93,0,0,1-2-2.28,9.14,9.14,0,0,1-.65-2.84c-.08-.56-.27-.65-1-.74-2.13-.28-3-2.45-1.4-3.86.48-.43.48-.42-.25-1.36-1.39-1.8-1.91-4.15-1.31-5.71a.77.77,0,0,0-.49-1.06c-1.94-.48-2-2.63-.12-3.84.54-.35.57-.58.16-1.29-.71-1.24-.68-4.48,0-6,.45-1,.44-1-.25-1.47a2.26,2.26,0,0,1,.69-4c.85-.21.9-.32.67-1.34-.41-1.83-.48-2.3.6-3,3-1.93,10.59-5.61,10.59-5.61l2.52-1.2s.25,15.34.09,17.16c-.1.78.61,1.25,1.42,2.07,1.69,1.66,2.62,3.67,4.88,5.06,0,0,1.41-.78,2.28-1.34l.09-21.87c.18-.5.3-.55.88-.62s1.69-.23,2.09-.34c1-.28,1.12-.67-.15-.55-.38,0-1,.2-1.61.33-4,1.19-6.94-5-3.9-8.13a9.53,9.53,0,0,1,3.75-1.49c.29,0,1.14-1,1.72-2a2.87,2.87,0,0,0,.49-2.66c-.7-2,0-5.19,2.07-8.62a31.47,31.47,0,0,0,5-10.7c8.07-1,14.92-3,22.22-2.53.29,2.46-8,17-6.25,17.82,6.5,1.55,4.28,9.25-.66,9-.74,0-.81.06-1.28,1.7-.9,2.38-1.48,4.21-2.44,6.42,0,.57-3.23.42-5.93.4-1.16.89-6.14,3.31-8.86-2.88l-.1,5.29s37.22-.59,43.84.24c.14-1.66,3.68,1.28,3.68,1.28L99.72,102.34l.85.83C103.19,100,119,74.55,119,74.55l34.2,22c-.28,3.28,0,10.62,0,10.62-9.39,5-6.52,7.51-.06,1.48ZM96.63,35a135.13,135.13,0,0,1,14.55.86c4.25.68,4,.56,4,3.64,0,2.19,0,2.14-.58,3.19-1,1.94-.86,3.84.78,6.51A31.21,31.21,0,0,1,118.16,54c0,.57-.1,1.27-1.48,2.23-1.63,1.14-1.94,1.93-1.92,3.08,0,.93-.16,1.24-.72,1.24a9.45,9.45,0,0,0-1.87.77,4.49,4.49,0,0,1-2.89.69c-.7,0-1-.27-1.23-.19-.38.17-.72,1.43-.71,1.8,0,.13.24.05.65-.09,2.31-.79,5.76-.44,5.85-.09.47.42.47,1.07-.24,1.75a2.47,2.47,0,0,0-.47,2.2c.26,1.51.07,2.1-.71,2.62-2.35,1.59-5.5,1.79-10.52.82-5.29-1-8.92-3-11.93-6.64-1.34-1.61-1.68-2.18-1-2.29a10.6,10.6,0,0,0,2.57-.66c3.72-1.6,3.66-8.4-1.36-9.11C88.14,52.11,94.41,42.49,96.63,35Zm4.78,4.68c-1.8,1-2.74,2.23-2.74,2.9,0,.27.06.22.92-.34,2.5-1.64,9.07-4,11.41-2.64,1.69,1,2.35.68,1.37-.68C110.07,35.7,103.87,38.32,101.41,39.66Zm6.43,1.07a4.33,4.33,0,0,0-.82.09c-1.73.39-3.64,1.81-5.22,3.07a12.34,12.34,0,0,0-2.06,2.17c-.39.73.47,1.53,1.64.89a1.54,1.54,0,0,1,1.4-.2,14,14,0,0,0,5.91.94c.25.06.23.12.14.35a8.51,8.51,0,0,1-2.34,2.15c-.64.47-1.19.85-1.24.92-.2.31.65.34,1.59-.19a13.77,13.77,0,0,0,3.78-3.74,1.49,1.49,0,0,0,.25-.37c.09-.31-.47-.18-.76-.26-.13,0-.1-.36-.14-.51a5.86,5.86,0,0,1,.14-1.59c.06-.45.54-.8.86-1.13,1.39-1.45,1.29-2.1-.59-1a2,2,0,0,1-.87.33c-2.77.09-4.37,0-6.68,1.92-1,.83-1.64.91-.73,0,1.39-1.13,3.14-2.73,5.07-3.15,1.17-.29,2.28.6,2.79.37C110,41.18,109,40.72,107.84,40.73Zm-.4,4a2.79,2.79,0,0,1,.6,1.65c0,.42-.76.25-.87,0l-.4-1.2C106.6,44.83,107.13,44.6,107.44,44.73ZM106,45a4.53,4.53,0,0,1,.61,1.65c-.12.43-2.85-.15-3.19-.63A3.53,3.53,0,0,1,106,45Zm4.78,7.75a1,1,0,0,0-.72.34,2.58,2.58,0,0,0,.64,4.08c.72.34,1.81.09,3.41-.4a7.59,7.59,0,0,1,1.46-.34.87.87,0,0,0,.53-1.41c-.51-.51-1.71-.44-3,.56a2.67,2.67,0,0,1-1.65.74c-1.29,0-1.92-1.35-.6-2.74C111.3,53.08,111.15,52.75,110.8,52.72Zm-9.08,9.19c1.53,1.23,4.43.59,6.38-.7,1.74-1.15,2.46-1.49,3.86-1.25,1.71.29,1.65-.38.91-1.22s-2.92-.66-4.66.49c-3.86,2.55-5.25,3-6.37,1.6s.23-3.38,1.64-2.35c1.16.79,1.14.2.66-.34C101.36,55.78,99.34,60,101.73,61.91ZM88.18,63.12a20.88,20.88,0,0,0,6.61,6l0,.46-9,0A62.53,62.53,0,0,0,88.18,63.12ZM57.55,69.54c-.19,3.71.48,5.89,2.65,8.48,2.31,2.76,2.14,7.06.65,9.71-.66,1.17-2-.27-1.37-1,.9-1.13,1-3.88.53-5.6-1-2.84-3.12-4.24-4-7.24a18,18,0,0,1-.2-3.59Zm2.83.31c.16,0,.41.14.78.46,1.28,1.1,1.06,4.27-.4,6.3-.45.62-.82.44-1.25-.13s-.38-.63.11-1.63a6.85,6.85,0,0,0,.57-3.6C60.12,70.32,60.15,69.89,60.38,69.85Zm83,1.08c1.13,0,2.54.22,2.67.63s-.15.9-.78,1.16c-1.65.7-3.84-.28-3.29-1.47C142.1,71,142.68,70.94,143.35,70.93Zm-2.86.27a1.73,1.73,0,0,1,.78.16c.54.28-.31,2.18,2.39,2.14.64.09,1.12-.05,1,.24-.13.44-1.29,1.1-2.54,1.28-3.75.55-3.59.37-3.42,3a9.49,9.49,0,0,1-.24,3.36c-.41,1.82-.57,3.57-.29,3a14.49,14.49,0,0,0,1.3-4.6c0-2,.72-2.45,1-1,.13,1-.32,1.53.34,2.54.37.56.55.55.29,1.42a1.29,1.29,0,0,0,.2,1.39c.27.39.54.48.31,1a1.69,1.69,0,0,0,1.41,2.4c.52,0,.66.27.51.47a2.31,2.31,0,0,1-1.28.6l-11.93-7.61s.88-1.77,1.15-2.25c1.71-3.75,3.07-5.46,8.08-7.42A2.41,2.41,0,0,1,140.49,71.2Zm6.34,2.46a1,1,0,0,1,.85.51c.73.94.09,2.11-1.71,3.12-1.54.87-2,1-2.32-.39a1.85,1.85,0,0,0-.41-.67c-.36-.33-.28-.6.18-.84a13.22,13.22,0,0,0,1.46-.76A4.79,4.79,0,0,1,146.83,73.67Zm-5.08,2.73a2,2,0,0,1,1.05.28.86.86,0,0,1,0,1.4c-1,.39-2.47-.13-2.34-1C140.52,76.61,141.12,76.38,141.75,76.39Zm6.14,1a.89.89,0,0,1,.81.48c.56.87-.1,1.74-2,2.66-1.25.61-2.84.87-2.73.51a4.72,4.72,0,0,0-.56-1.93c-.08-.24,0,0,1.59-.52a8.39,8.39,0,0,0,1.58-.67A2.81,2.81,0,0,1,147.89,77.35ZM58.4,79.6a7.38,7.38,0,0,0-.6,5.23c.35,1.84.75,2.76,2.64,5.47,1.44,2.07,1.9,2.87,1.55,3.52-.24.35-.79.68-1.13.34-.7-.92-1.12-2-1.81-3.05-2.64-3.87-2.82-4.85-3.16-7.9-.15-1.39.65-4.36,1.34-4.81S58.64,79.11,58.4,79.6Zm61-1A6.51,6.51,0,0,0,117.87,81c.08.55.53.19,1.72-1.55C119.88,79,119.68,78.59,119.41,78.63Zm22.73.95c1.06,0,1.43,1,1,1.47a1.14,1.14,0,0,1-1.93-.83C141.17,79.79,141.36,79.57,142.14,79.58ZM148,80.92c.61,0,.69.63.36,1.5s-.89.95-2.34,1.4c-1.74.54-2,.46-2.29-1.13-.1-.61-.05-.48,1.55-.9a16.88,16.88,0,0,0,1.92-.68A1.94,1.94,0,0,1,148,80.92Zm-102.73.72.43,3.22.69-2.41Zm97.07,1.08c.86,0,1.32.77.88,1.23a1.18,1.18,0,0,1-1.16.11C141.39,83.57,141.52,82.72,142.35,82.72ZM116.2,84.41l1.67,1-13.55,21.35-1.63,0-.15-.34Zm30.74.21c1,0,1.09.93-.12,1.79a3,3,0,0,1-1.49.41c-.6,0-1-.13-1.06-.55-.26-1-.41-1.27.52-1.21a2.79,2.79,0,0,0,1.1-.19A2.86,2.86,0,0,1,146.95,84.61Zm-4.14.93c.69,0,1.13.75.67,1.12s-1.29.17-1.28-.51C142.19,85.72,142.31,85.54,142.81,85.55ZM45.31,87.05l-3.69,3.26c1.35,1.6,2.49,3.19,3.66,4.86Zm74.54.21c1.6-.06,2.12.71,1.37,1.23a4,4,0,0,1-3.08.5c-1.55-.29-.32-1.52,1.38-1.7Zm-1.7,2.32a4.43,4.43,0,0,1,1.42.29c1,.35,2.35,1.45,2.29,2.06-.1,1-2,.48-3.44-.93C117.48,90.12,117.44,89.6,118.15,89.59Zm-1.42,0c.91.09,1.81,3.15,1.11,4.09s-1.9-1.06-1.68-2.62c.09-.62.24-1.43.49-1.46Zm-59.25.67c.51.12,1.17.83,1,1.36-.1.21-.32.15-.55.1a1.24,1.24,0,0,1-.66-1.25C57.34,90.36,57.39,90.28,57.49,90.27Zm68.75.53,2.67,1.8-2.67.1Zm-11,3.65c2,0,2.48.67,1,1.47a4.9,4.9,0,0,1-3,.12C111.9,95.61,113.42,94.44,115.2,94.45Zm16.54,1.37.14,1.85-5.13.45-.26-1.93ZM114,96.75a3.66,3.66,0,0,1,1.66.52c1.4.72,2.19,1.92,1.47,2.3s-1.82-.06-2.64-.92C113.4,97.5,113.31,96.79,114,96.75Zm-1.75,0c.93.06,1.74,2.61,1.12,3.87-.34.69-.76.54-1.37-.6s-.62-3,.06-3.25A.53.53,0,0,1,112.25,96.75Zm-66.75.72L43.26,102l4.06,3.54Zm86.87,3.47.36,1.78-4.93,1.21-.48-1.94Zm-21.51.35a2.41,2.41,0,0,1,1.49.44c.45.39.35.57-.71,1-1.89.77-4.22.3-2.87-.84A3.32,3.32,0,0,1,110.86,101.29Zm32-.1c-1.88,1.26-.07,2,1.27,1A2.1,2.1,0,0,0,142.86,101.18Zm-33.38,2.52c1.35,0,4,1.89,3.42,2.77-.31.48-2.07.07-2.77-.6-.92-.88-1.41-2.06-.9-2.15Zm-1.7.08c.69-.13,1.8,3.1,1,3.93-.31.31-.4.29-.93-.17a2.9,2.9,0,0,1-.24-3.6A.32.32,0,0,1,107.78,103.79Zm41.35,1.7a2,2,0,0,0-.66-.69C141.92,107.31,143.6,109.7,149.13,105.49Zm-15.5.22.65,1.8-5,2-.73-2Zm-84.86,3.41-1.68,4.41a12.78,12.78,0,0,1,5.14,1.64Zm86.51,1.3,1.05,1.77-4.67,2.52-.93-1.87ZM26.87,113.88l1.91,1.35L26,118.71l-.26-.49,0-2.89Zm111,1.1L139,116.6l-4.49,3.12-1.1-1.77ZM31.69,117.06l2.06,1.59-3.26,3.93-2-1.5Zm22.71,1-.1,4.73,4.86.19Zm56.13,2.13,5.52,3.17-.83-4.84A46.76,46.76,0,0,0,110.53,120.17Zm30.32-1,1.29,1.6L138,124.25l-1.33-1.67ZM35.9,120.58l1.92,1.79L34.43,126l-1.78-1.68Zm108.49,2.59,1.49,1.51-3.78,3.92-1.49-1.51ZM40.27,125.09l1.49,1.73-3.87,3.07-1.43-1.74Zm22.31.41,1.09,4.63c-.08-.34,4.82-1.38,5.46-1Zm57,.39,4.62,4.87.52-4.69Zm28.59.77,1.67,1.3-3.1,4.41-1.89-1.48ZM43.6,129.6l1.38,2L40.92,134l-1.15-1.75Zm109,.47.26.26v3.15l-1.29,1.89-1.76-1Zm-26.15,3.54,4.09,7.42,1.15-5.53A11.89,11.89,0,0,1,126.42,133.61Zm-79.58,1,1,2.14-4.29,2-1-2.13Zm2.32,5.11.78,2.15-4.56,1.51-.72-2.07ZM28.78,143.6l1.42,1C37.59,140.71,35.29,139.56,28.78,143.6Zm41.79-2.47c.28,0,.6.36.86,1.21.39,1.29.18,2.88-.69,2.86-.59-.07-.81-1.58-.81-2C69.92,141.89,70.21,141.17,70.57,141.13Zm4.05.77,1.76.19v.5l-14,22.22-1.7-1.08Zm-7.55.51a3.3,3.3,0,0,1,2.1,1.16,3.75,3.75,0,0,1,1,1.78c0,.22-.39.14-.75.08a4.2,4.2,0,0,1-2.74-1.57C66.13,142.89,66.44,142.41,67.07,142.41Zm64.48.79,1.87,9.1c.58-2.28,1.8-3.59,2.71-5.38A12.72,12.72,0,0,1,131.55,143.21ZM51,145l.44,2.35-4.72,1.09-.49-2.28Zm17.62.82h.2c1.73.19,2,.58.81,1.35-.7.47-2.61.54-2.92,0s.91-1.39,1.92-1.4ZM34.3,147.25l1.47.86C38.28,146.29,35.54,145.93,34.3,147.25Zm31.8.79c.53,0,.85.95,1,1.81a2.64,2.64,0,0,1-.08,2c-.4.51-.78.61-1.1.1C65,150.47,65.06,148,66.1,148Zm-3.89,1.37a2.47,2.47,0,0,1,.92.19c1.23.46,2.85,2.33,2.16,2.59-1,.38-3.23-.73-3.65-1.85C61.43,149.77,61.66,149.42,62.21,149.41ZM52.1,150.92l.11,2.33-5,.2-.15-2.31Zm12.17,2a3.32,3.32,0,0,1,1.37.22c.71.31.19.86-1,1.29a3.19,3.19,0,0,1-2.36,0C61.31,153.67,62.8,152.92,64.27,152.87Zm-38.47.27c3.4,2.06,10.46,6.66,10.46,6.66a2.77,2.77,0,0,0-1,.58,3.31,3.31,0,0,1-.77.5,5.45,5.45,0,0,1-1,.24c-2.19.48-3.27,1.71-2.58,3.25.27.61.34.51-.13,1-1.31,1.25-1.15,1.62-.68,3.21,0,.23-1.56,2.14-.17,3.58.77.67.8.25.52,1.76a1.56,1.56,0,0,0,1.48,1.92c.74.34.73.22.46.84a1.22,1.22,0,0,0,.71,1.59c.57.36.8.45.4.77-4.42,2.26-5.77,6.18-1.61,12,.49.68,1.73,2.61,1.73,2.61-1.4,2.08-2.74,3.79-4.18,5.65l4.17,5.82a42.56,42.56,0,0,0-3.22,5.32c-1.46,3.18-.5,7.64,3.7,9a5.46,5.46,0,0,0,5.67-1.62,7.27,7.27,0,0,0,.77-7.11,28.37,28.37,0,0,0-3.62-5.79l4.46-5.59s-3.08-4.41-4.3-6c8.37-10.22,1.53-13.08.22-14-.2-.14-.16-.79-.16-.79,7.52-.86,10.08-5,12.3-10.2,4.48,2.88,10.9,6.76,15.4,9.79.43.4.72.65.65.87a8.38,8.38,0,0,0-.24,1.86c.21,1.36.11,2-.44,2.49s-.41.71-.33,1.24c.14.92.28,1-.13,1.47s-.68.84-.58,2.22a4.38,4.38,0,0,1-.05,1.92c-.28.63-1,1-2.05,1.74-1.76,1.38-1.52,1.8.91,6.81C64.57,203,64.81,204,64,205.5a6.94,6.94,0,0,0-.83,4.06c0,.46.06,1,.06,1.21,0,.59,0,.52-.34.89a12.44,12.44,0,0,0-1,1.26c-2.89,4.33-10.49,15.44-10.49,15.44H25.8Zm35.89,2c.3,0,.66.51,1.07,1.59a2.5,2.5,0,0,1-.17,2.13c-.76.83-1.81-1.12-1.48-2.66C61.27,155.53,61.47,155.17,61.7,155.16ZM133.6,154c0,3.94-.08,9.06-1.44,12.83l1.54.7c-.5-3.87.12-7.05,3.68-8.73A12.49,12.49,0,0,1,133.6,154Zm-75.73,2.49a1.31,1.31,0,0,1,.42.08,4.06,4.06,0,0,1,1.71.93c.73.74,1.49,1.64,1.3,1.72-1.21.53-4.28-1.09-3.87-2.35A.46.46,0,0,1,57.87,156.47Zm-5.38.17,0,1.93-3-1.9Zm67.85.93c.48,0,1.23.67,1.11,1.11s-.46.43-.79-.07S120.08,157.6,120.34,157.57ZM60.14,160c.72,0,1.34.14,1.41.51s-.55.81-1.23,1c-1.69.52-3,.18-2.49-.64C58.12,160.3,59.21,160,60.14,160ZM119,162.15c-.71,1.28-.8,5.36.46,7,2,2.16,3.77,5,3.56,8.71l-1.88.84c.1-3.07,0-5.07-2.42-7.73-2.86-3.11-2.19-8.49-1.2-10.07S119.55,161.58,119,162.15Zm-82.42-1.7c.6,0,1.34.32,2.67,1.2,3.41,2.41,5.25,3.33,8.63,5.71.49.46.47.4.38.76a12.46,12.46,0,0,1-10.59,9.56c-.64.08-.31-.32-.7-1.09a2.08,2.08,0,0,0-2-1.15c-2.29,0-.33-1.31,2.47-1.67a5.17,5.17,0,0,0,2.63-.82c.13.06-.49-3.86.14-5.23.32-1.24,0-1.84-.33-1.08a13.39,13.39,0,0,0-.69,3c-.14,1.09-.37,1.24-.62.71a1.86,1.86,0,0,1,.07-1.26c.21-1-1.09-1.8-.83-2.74a1.65,1.65,0,0,0-.45-1.94,2.13,2.13,0,0,1-.18-1.23,2,2,0,0,0-1.36-2c-.39-.2-.27-.41.13-.61A1.45,1.45,0,0,1,36.55,160.45Zm-2.79,1.41a2.48,2.48,0,0,1,.65.07c.45.27.81,1.83.31,1.89a8.3,8.3,0,0,0-1.21.22c-1.52.45-2.24.39-2.21-.49S32.58,161.87,33.77,161.85Zm2,.16c.6,0,1.08.7.71,1.08a.68.68,0,0,1-1.14-.45C35.37,162.34,35.5,162,35.8,162Zm.41,2.43a1.23,1.23,0,0,1,.57.12c.56.26.88,1.21.52,1.56a1.3,1.3,0,0,1-1.45-.18C35.1,165.32,35.46,164.47,36.2,164.44Zm-1.89.14c.35,0,.59.12.66.36s0,.39.05.69c.15.46.44.81.18,1-1.17-.07-3.59,1.39-4.29,1.32s-.65-.62-.14-1.49A5,5,0,0,1,34.31,164.58Zm.71,2.83c.25,0,.3.12.19.5a2.47,2.47,0,0,0,.17,1.3c.19.43.54.69.36.86a21.71,21.71,0,0,0-2.14.6c-1.09.6-4.14,2.41-3.37-.48.25-1,1.37-1.64,3.33-2.32A8.14,8.14,0,0,1,35,167.41Zm1.6,0a1.24,1.24,0,0,1,1.25.78c.71,1.41-1.33,1.61-2,.44C35.51,168,36,167.49,36.62,167.44Zm.39,3.28c1.06,0,1.88,1.31,1.11,1.81a2.55,2.55,0,0,1-1.92.12C35.22,172.22,35.67,170.71,37,170.72Zm101.15,0a77.67,77.67,0,0,0,14.78,5.47v52.14H116.7l-9.92-17.27s-.33-.56-.43-.8a1.83,1.83,0,0,1,0-1.34,29,29,0,0,1,2.24-5.1c2.4-4.39,5.8-9.21,4-13.42-.21-.48,1.9-3.1,1.9-3.1,3.26.27,6-1.85,5-6.86C126.24,177.69,131.84,175.44,138.15,170.75Zm-103,.25c.09,0-.18,1.14.39,1.84.36.55.3.53-.92,1a6.7,6.7,0,0,0-1.17.85c-1.75,1.56-3.48-.48-1.79-2.11A6.29,6.29,0,0,1,35.11,171Zm83.09,1.08c.59.1,1.35.88,1.1,1.31a6.22,6.22,0,0,0-.94,3.56c-.08,1.6.19,1.83-.42,1.56-.4-.19-1.14-.5-1.31-.91C116.28,176.65,117.26,171.91,118.22,172.08Zm-83.66,4a2.12,2.12,0,0,1,1.71.69c.32.41.35.76,0,.93-.76.4-3.26.19-3.39-.32C32.73,176.6,33.62,176.1,34.56,176.09Zm37.93,1A25.15,25.15,0,0,1,81.88,179,17.76,17.76,0,0,1,90,185.81c.24.49-.25.49-.67.53a5.08,5.08,0,0,0-2.29,9.25,4,4,0,0,0,2.23.69c1-.08-4.44,10.34-6.61,16.83-6.7-.27-11.77.76-18.32-1.49-.7-1.17-.54-3.75,0-5.08s1.09-2.14.79-3.53c-.52-2.42-2.74-5.58-3.48-7.58-.65-1.53-.61-2.1.52-3a8.8,8.8,0,0,0,2-1.77c.34-.49.2-.6.2-1.69,0-1.33,0-1.12,1.07-1.32a8.44,8.44,0,0,0,2-.72,3.22,3.22,0,0,1,3.27-.26c.37.1.33-.28.49-.78a3.87,3.87,0,0,0,.21-.68c0-.22-.51-.16-1-.08a11.65,11.65,0,0,1-4.69,0c-.75-.28-.75-.78-.31-1.62a2.6,2.6,0,0,0,.51-2.29c-.2-2,.07-2.37,1-3,1.14-.8,3.21-1.17,5.59-1.17Zm11.05,1.72h9.94a25.31,25.31,0,0,0-2.68,6.29c-.09.18-.2.35-.43.12A20.36,20.36,0,0,0,83.55,178.82Zm-8.24,7a10.51,10.51,0,0,0-4.54,1.67,5.09,5.09,0,0,1-3.65.93c-.77-.14-.87,0-1,.22-.45,1.12,1.23,2.33,2.93,1.54.49-.21,4.28-2.17,4.49-2.33a7.67,7.67,0,0,1,2.21-.64,1.83,1.83,0,0,1,1.87,2.13c-.21,1.52-2.36,1.59-2.5.24-.11-1-.54-.58-.58-.07a2.64,2.64,0,0,0,.69,1.65c1.82,1.13,4.22-1.07,3.07-3.34A3.1,3.1,0,0,0,75.3,185.81Zm-8.16,5.28a27.92,27.92,0,0,1-3.37.82c-1.1.24-1,1.11-.33,1.57.53.35,1.19.14,3.11-1.08a1.63,1.63,0,0,1,2,2.57c-.95.8-.3,1,.35.53C70.58,194.26,69.62,190.62,67.15,191.09ZM73,197.5a1.54,1.54,0,0,0-.68.18,8,8,0,0,0-3.18,2.23c-.12.2-.05.53-.11.79s-.21.46-.18.6.42.25.49.36a5.44,5.44,0,0,1-.05,2.48c-.07.41-.67.53-.92.78-.8.81-.6,1.05.25.74.59-.22.34-.63,1.81-.34a6.87,6.87,0,0,0,4.9-1c1.66-.92,2.26-1.43,2.33-1.32s0,.28-1.16,1.26c-3,2.46-5.17,3-6.83,2.11-.5-.34-.9-.48-.52.25a2.72,2.72,0,0,0,.73.52c1.71.77,3.85.12,6.58-2,.6-.47,1.13-1,1.82-1.58,2.26-1.89,1.67-2.75-.89-1.84-.81.29-1,0-2.12-.45a8.09,8.09,0,0,0-3.63-.65c-1.47,0-1.68.11-1.68-.13A4.18,4.18,0,0,1,72,198.6C73.12,198.13,73.42,197.53,73,197.5Zm2.7,4.66c.27.28-.12.45-1.18,1a8.46,8.46,0,0,1-1.23.51c-.09.17-1.09-2.07-.82-2.18A7.62,7.62,0,0,1,75.68,202.17Zm-3.84-.24a6.47,6.47,0,0,1,.53,1.53c0,.15.13.37-.11.37s-.5,0-.61-.13a4.3,4.3,0,0,1-.41-1.9C71.42,201.56,71.75,201.73,71.85,201.93Zm8.7,4a1.37,1.37,0,0,0-.52.22c-4.21,2.48-9.25,3.77-12.49,2.55-1.09-.41-1.29-.27-.9.48a2.73,2.73,0,0,0,1.66,1.35c2.65.73,6.92-.33,10.2-2.48C79.83,207.21,80.93,206,80.54,206Zm24.76,6.64s8.16,15.29,8.88,16l-60.48-.26L63.89,214C64,214.78,88.47,218.14,105.3,212.61Z"/><path id="path4035-6-4-6" class="cls-3" d="M54.08,228.36,63.84,214c14.45,2.74,27.44,1.29,41.68-1.24l9.48,16Zm76.59-53.64-.06-8.54,3,1.11c-1-4,1.58-8.13,4-8.29-7.61-5.73-1.29-11.85-1.42-12-8.32-4.29-4.15-10.86-4.72-11.45-10.14-2.62-6.18-10.65-6.95-9.82-5.9,1.77-9.15-3.16-9.25-7.18-5.11,2.89-13-1.2-10.52-5.8,0,0,2.71,1.28,3.18,1,4.17-3,3.84,1.32,4.71,2.26,3.11-.45,4.94,1.93,5.72,3.08,4.59,0,4.4-1.09,4.44,3.35,3.46.88,3.32,2.74,5.32,5.29,4.36,0,3.62,1.46,2.64,3.87,3.14,2.5,3.39,4.45,3.91,6.72,3.43,1.24,4,1.74,1.8,4.63,3,4.52,1.57,7.14,2,7.39,3.77,2.71,1.89,3.7.24,4.74.57,3.61,1,4.14-.3,7.81,4.33,3.07-.69,4.45-.94,4.39v3ZM25.74,152.43l-.09-10.59,36.74,23.69-4.64,7.27ZM74.54,168l8.68-18.14L80.1,130.09l24.89.54c2.8,6.35,4.49,11.74,11.65,22.25l-7.57,2.36.26,12.72Zm21.28-4.77a2.19,2.19,0,0,1-.35-1.12c.09-.3.32-.29.62-.12,1.06.51,2.12,1,2.9,0a1.39,1.39,0,0,0,0-1.65c-.6-1.21-2.47-.33-3.11-.29s-.81-.48-.33-1.18a1.8,1.8,0,0,0,.51-1c.33-2.77-4.41-1.79-2.76.9.75,1,.31,1.6-.79,1a1.81,1.81,0,0,0-2.83,1.41,1.67,1.67,0,0,0,2.6,1.12c.27-.15.48-.32.67-.4.54-.24.93,0,.75.57-.49.76-1.06,1.86-.58,2.58a1.62,1.62,0,1,0,2.73-1.73Zm57.41-55.61L116.43,83.83a50.85,50.85,0,0,0,4.89-7.69l32,20.51Zm-57.55-8,3.77,19.22-25.7.37c-1.41-6.45-10.24-21.06-10.21-20.8l6.85-16.8,34.1,0ZM86,92.43c.65-.59.61-1.5-.11-2.53s-.39-1.7.73-1a2.89,2.89,0,0,0,2.26.29A1.52,1.52,0,0,0,90,87.36c-.15-1-1.29-1.3-2.5-.86-.35.07-.56.36-.87.5-.65.29-.91-.5-.32-1.51A1.57,1.57,0,0,0,85.06,83a1.55,1.55,0,0,0-1.55,2.18c.76,1.17.21,2-.88,1.2-1.58-1.12-3.63.3-2.78,2,.41.81,1.77,1,3,.51,1-.43,1.31.07.7,1.1C82.26,92.12,84.33,94,86,92.43ZM48.76,73.56,48.49,83.8c-3.84-2.35-3.27-2.38-3.41-2.34a7.35,7.35,0,0,1-3.45,8.75c5.88,5.5,2.7,9.37,1.74,12a8.5,8.5,0,0,1,3.73,11.48c7.4,0,7.25,6.5,7.46,9.2,9.15-.57,7.93,6.72,9.13,7.35,4.44-2,9.62-1.3,11,4.65.89,3.38-2.37.12-3.79.26-5.06,3.14-4.08-1.65-4.37-2.32-4.19.4-4.75-1.6-6.59-3-4.53.87-4.15-.62-3.89-3.36-3.55-.72-4.32-2.93-5.74-5.09-4.9.16-2.9-3.3-2.88-4-.6-.53-3.41-3.3-3.55-6.46-5-1.42-1.87-4-1.69-4.82-1.9-2.37-2.4-4.11-1.77-7.09-4.47-2.08-.74-4-.42-5.22-1.46-3.88-.4-5,.18-7.15-2.87-3.36-1.16-3.18.95-5.22.27-.37-.47-2.06-.43-3.05Zm25.81-38L66.51,21.21h57.54s-6.26,8.66-8.69,13C101,32,87.58,33,74.57,35.6Z"/><path id="path4039-1-1-4" class="cls-4" d="M34.41,219c-5-1.14-5.9-7.47-1.17-12.74a4.2,4.2,0,0,0,.64-1.08c-1.64-2.52-2.39-3.41-4.06-5.92,1.47-2.22,3.2-3.92,4.31-5.85-.07-.33-.56-.67-1.15-1.53-3.42-5-3.79-7-2.06-10a4.93,4.93,0,0,1,7.9-.66c2.56,2.68,2.44,5.11-.88,10.05-.73,1.09-1.26,2.07-1.26,2.07.92,1.85,2.48,3.57,4.07,5.9a54.23,54.23,0,0,0-4.28,5.63,2.32,2.32,0,0,0,.42.78c5.29,6,4.87,12.85-1.11,13.43A7.28,7.28,0,0,1,34.41,219Zm42.53-76.3c-.14-.23-19,30.28-19,30.28l2.16,1.38,18.07-28.2c.27.21.54.45.48.79,0,0-14.88,24.2-17.36,28.07a36.42,36.42,0,0,0,3.82,2.33c5.54-2.72,28.62-.37,44-1.3.06,0-.24,5.37-.24,5.37s-3.5-4-4.2-4.06c-3.48-.12-7.15,1.36-9.78,1.19-1.68.51-3.59,6.61-4,8.14-3.05-.35-6,2.83-5.29,5.8,1,3.3,2.71,3,4.56,3.1-.17,3.73-6.77,13.57-6.8,18.41,7-.55,14.54-.68,21.74-2.85a68.76,68.76,0,0,1,6.12-12.88,10.45,10.45,0,0,0,1.21-6.75c-.29-2,.59-2.54,1.37-4,.48-.89,2.24-.85,2.46-.92,4.58-1.32,2.94-7.24,1-8.29-2.43-1.31-5.87.72-7.19-1.94-1.4-2.82-.95-8.64-.95-8.64L74.48,168s9.77-18.53,9.52-18.67C81.33,147.85,77,142.76,76.94,142.71ZM53.8,159.58c.16-1.87.46-32.33-28.37-47.47l.15-4c.18-.21,26.23,11.74,30.7,42.76l8-12.57,3,1.16C62.91,146,54.22,161.9,53.8,159.58Zm-17.51-11c1.19-3.52-.76-1.65-2.54-1.79-1.21-.66-2.41-1.51-3.53-2.25,8.43-4.45,3.41-4.24-1.5-1.11-1.27-.69-2.88-2.2-3-2.07,9.51-6.11,5.94-6.23-.14-1.81.21-4.14.06-2.59.14-4,5.19-5.55.36-2.53,0-2.47-1.28-5.53,4.83-4.38,5.39-.19,1.08.8,3.19,1.78,3.81,5.22,2.93,1.86,2.63,3.41,2.49,5.64,1.15,1.13,4.11,3.52.65,5.72ZM25.36,123.35l.2-3.06c.4-1.25,22.64,14.58,21,34.93.26-.14-2.46-1.42-3.24-2.12C43.35,138.13,27.43,125,25.36,123.35Zm127.55,17.17c-14.84-6.79-28.93-23.05-29.67-44.2l-8.38,14-3-1.26c.28.23,6.63-11.53,13.17-19.66,1.84,26.69,12.33,39.1,28.22,48.12ZM75.2,130.77C60.82,129,40,109.45,46.24,83,47.12,80.28,61,95.18,61,95.18c.09-.68,12.47,19.24,12.13,23.13,10.45,3,30.86.15,30.86.15,17,3.78,34.71,22,28.3,48a75.84,75.84,0,0,1-8.28-6.39c-11.45-11-15.08-20.12-19.14-30.14C90.2,128.62,76.46,131.24,75.2,130.77ZM153,108.71a32.93,32.93,0,0,1,.14,4c-3.82,4.15-4.22,4.23.57,2.89-.59,4-3.54,4.64-5.3,3.28-.65-.5-.65-3.24-.65-3.24-2.91-.73-3.9-1.6-3.49-4.72-3.35-.4-3.21-2-2.94-5.42-3-1.71-2.29-4.43-.48-5.6l1.51,1c-.48.43-.25,3.13,2.42,1.12,0,0,2.13,1.77,3.16,2.46-7.73,5-3,3.87,1.72.61.89.61,2.11,1.6,2.75,2C146.18,111.71,144.12,115.46,153,108.71Zm.38,16.86-.25,3.57c-15.25-9.31-19.38-21.6-20.52-34.68,0,0,2,1.5,3,2.13C137,113.47,152.48,124.87,153.42,125.57ZM69.85,81.28l36.58.23L96.73,100l5.12,6S114.56,86.31,120.95,76l-2.21-1.32L100.5,103.24l-.72-.8,18-28.58c-1.08-.71-3.12-1.84-3.12-1.84s-31.15.5-44.7.44a34.07,34.07,0,0,0,.53-5.17c2,2.86,4.14,5.42,8.79,2.6,0,0,5.51.19,5.71-.08a75.47,75.47,0,0,0,3.26-8.37c5.31-.35,4.78-2.92,5.39-3.76-.41-7.53-4.64-3.48-4.28-6.22,1.2-4.88,7.31-15.93,6.54-16.9-1.58-1-17.23,2-21.78,2.59-.42-.16-2.64,7.09-5,10.19-2.55,3.37-3.46,7-2.16,10.4-1.35,3.75-3.94,3.37-6,4.43-2.36,2.55-1.71,6.45.54,8,1.56,1,4,1,6.41-1Zm72.7-26.19-4.28-5.74,4.15-6c-1.64-2.59-4.34-6.56-3.85-9.7,1.06-6.23,9.48-5.32,10.22.64.4,2.77-1.62,6.16-3.67,9.05C146.45,45.78,147,46.18,149,49c-1.17,2.06-4,6.1-4,6.1,1.78,3,4.25,6.27,4.07,9.31-.19,2.61-3,5.25-5.69,4.69C135.1,67.38,139.72,58.56,142.54,55.09Z"/><g id="g4049-4-4-2"><path id="path4033-2-3-3" d="M65.15,20.55c2.27,4.25,8.71,15.73,8.71,15.73,15.32-3.17,28.21-4,41.75-1l9.67-14.64Zm2,.86h2.77l5.43,11.16,9.37-1.87-1.6-9.27,2.65,0,1.34,8.91L100.89,30l1.78-8.6,2.54,0-1.82,8.74,10.91,1.47,5.34-10.24h3.67l-8.12,12.64a96.26,96.26,0,0,0-40.78,1.08Zm5.23,0h8.09L82.4,29a18.28,18.28,0,0,1-5.94,1.28A97,97,0,0,1,72.37,21.42Zm15.6,0h12.31l-1.05,6.41-10.32.33Zm19.51,0H117l-3.74,7.79-7.15-1Zm36.11,7.8a7.3,7.3,0,0,0-1.54.14c-2.46.51-3.75,2.4-3.77,5.48,0,1.41,1,3.91,2.62,6.27a20.71,20.71,0,0,1,1.29,2.21l-4.13,6.05,4.39,5.72s-.68.8-1.09,1.37c-2,2.84-2.95,5.5-2.82,7.68a5.45,5.45,0,0,0,4.09,5,5.27,5.27,0,0,0,4.79-1.33A5,5,0,0,0,149.09,64c0-2.16-1-4.77-3.09-7.62a8.88,8.88,0,0,1-.84-1.38s2.91-4.14,4-6l-4-5.71c3.16-4.75,3.8-5.8,3.89-8.71A5.45,5.45,0,0,0,143.59,29.21Zm-.4.35h.41c3.61.28,5.52,3,5,6.4-.49,3.28-3.45,6.34-3.93,7.39a66.82,66.82,0,0,0,4.11,5.6C147.69,51,144.74,55,144.74,55a5.84,5.84,0,0,0,.36.6c3.07,4.35,3.92,6.4,3.71,9A4.82,4.82,0,0,1,145,68.9a5.21,5.21,0,0,1-6.17-4.76c-.2-2.69,1.54-5.3,2.89-7.34.57-.85,1.06-1.67,1.06-1.67l-4.37-5.73c1.33-2.11,3-4.18,4.25-6l-1.26-2c-2.4-3.78-3.07-5.72-2.7-7.81A4.69,4.69,0,0,1,143.19,29.56Zm.33,1.94a3.56,3.56,0,0,0-3.12,2.44c-.73,2.66,2.08,6.7,3.36,7.78,2.4-2.75,3.92-5.83,3-8A3.69,3.69,0,0,0,143.52,31.5Zm.33.86c2.42,0,3.33,2.92,1.46,6.18a20.52,20.52,0,0,1-1.59,2.28s-.89-1.1-1.42-1.93c-2.16-3.38-1.61-6,1.05-6.49A3.34,3.34,0,0,1,143.85,32.36ZM95.69,33.85a111.45,111.45,0,0,0-22.24,2.77,28.7,28.7,0,0,1-4.83,11.15c-2.1,3.43-2.86,6.42-2.16,8.46s-1.14,4.77-3.11,5a4.12,4.12,0,0,0-4,4.36c-.07,3.89,2.62,6.28,6.28,5a.8.8,0,0,1,.61.19L66,93a14.89,14.89,0,0,0-5.18,1.7,56,56,0,0,0-8.45-8.15c-.07-5,.13-9.94-.09-14.89A59.41,59.41,0,0,0,41.5,77.51c-1.08.72-1.19,1.12-.78,3,.23,1,.17,1.14-.67,1.34-1.74.43-2.29,3.2-.81,4.14.69.44.69.46.25,1.47a8.1,8.1,0,0,0,.05,5.76c.41.71.38.94-.16,1.29-1.86,1.21-1.73,3.79.21,4.27.5.12.63.34.46.76-.61,1.56-.05,3.94,1.34,5.74.72.94.72.92.25,1.36A2.43,2.43,0,0,0,43,110.78c.73.09.73.1.82.65a8.5,8.5,0,0,0,.71,2.8,6.06,6.06,0,0,0,2,2.37c.82.64.82.65.38,1.59-.81,1.74.48,3.47,2.54,3.4,1,0,1,0,1.13.33a6.28,6.28,0,0,0,4.32,4.25c.91.15,1.06.37.75,1.14A1.86,1.86,0,0,0,56.75,130a2,2,0,0,0,2,.13c1-.36,1.06-.35,2,.84a4.28,4.28,0,0,0,4.18,2.11c1.38,0,1.43,0,1.44,1a2.27,2.27,0,0,0,4,1.59c.57-.6.57-.6,1.07-.23,2.21,1.62,4.17,2,4,.52a9.57,9.57,0,0,0-3-5.7l3.21.84c.14,3.74.27,8.25,1.05,11.37l-14.3,22.73s-.87-.53-1.78-1.16c-1.34-.92-3-2-4-2.64a15.23,15.23,0,0,1-1.7-1.15c-.5-.41.31-1,.48-1.4C58.71,153,63.87,146,67.62,139.1L64,137.7c-2.78,4.36-4.82,7.87-7.41,11.9C54,130.74,40.82,114.19,24.86,107.22l.05,4.93a51.88,51.88,0,0,1,28.38,47,18.68,18.68,0,0,1-3.21-1.92c-1-.63-2.87-1.88-3.11-2,.77-23-22.13-36.67-22.17-36l-.21,4.36c9.76,6.53,17.43,18.4,18.2,29,0,.09-4.58-2.86-4.58-2.86a3.29,3.29,0,0,0,0-5.83c-.62-.28-.65-.41-.35-1.24.63-1.7-.52-4.27-2.11-4.7-.7-.19-.81-.37-.85-1.35a3.31,3.31,0,0,0-2.84-3.34c-.49-.11-.5-.11-.52-.73C31.43,129,28,127.62,25.5,130a4.21,4.21,0,0,0-.58.76l0,3.75c.87-.48,2.19-2.11,2.73-2s.31.47-1,1.63c-.87.75-1.72,1.54-1.72,1.54l.05,4.94c1.45-.94,2.9-2,4.26-2.94,1.17-.81,1.77-1.08,1.91-.84s-.1.61-.76,1c-1.78,1.19-3.86,2.58-5.36,3.75v3.4l.29.42.08,3-.27.07v3.75L60.3,174.59l17.92-28.22.29.3-17.93,28.1a9.25,9.25,0,0,0,1.43,1c.71.4,1.6.93,2.36,1.43a1.89,1.89,0,0,0,1.66,1c.62-.67,3.31-1.38,3.57-1.69,10-.15,38.82,0,38.82,0l.16,4.59c-1.29-4.46-5.47-5.37-8.75-3.38H94.46s-3.19,5.72-3.65,8.71c-2.26-.31-5.28,1.89-5.43,4.13-.37,3.18,1.73,5.5,4.46,5a14.87,14.87,0,0,1-2,5.6,86.28,86.28,0,0,0-4.37,10.42c-.85,2.32-.56,2.73-.41,2.78a76.67,76.67,0,0,0,23.06-3.35s-.14-.54-.21-.85c-.28-1.23.76-3.75,3.7-9,2.27-4,2.92-5.56,3.14-7.46a7.64,7.64,0,0,0-.24-3c0-.17-.15-.41-.12-.59a9.42,9.42,0,0,1,2.12-3.28s.67-.12.93-.15c4.16-.29,5.44-5.93,1.94-8.47a4.88,4.88,0,0,0-4.53-.65l0-21.86,2.53.09,2.78-1.37c4.46,3.8,7.37,7.69,12.17,10.61l-.08.19L126.68,163v14.32a66.12,66.12,0,0,0,11.69-7.13l-.75-.65,0-2c3.49.28,3.83-4.16,1-4.69a4,4,0,0,1,.34-.92,6.63,6.63,0,0,0,.35-5.37c-.39-1.14-.37-1.43.09-1.43,2.12,0,1.92-3.74-.24-4.56-.74-.28-.69,0-.54-2.38a5.63,5.63,0,0,0-1.61-4.47c-.49-.58-.45-.86.18-1.24,1.81-1.1.5-4.29-1.73-4.19-.87,0-.87,0-.94-.83a6.92,6.92,0,0,0-3.15-5.37c-.52-.28-.59-.51-.3-.9,1.42-1.9.09-4.5-1.92-3.74l-.91.33c-.16,0-.29-.17-.59-1-.83-2.34-1.58-3.08-4.24-4.2-.52-.22-.55-.37-.32-1.44.41-1.85-2.14-3.57-3.52-2.37-.56.49-.58.48-1.21-.33a8.33,8.33,0,0,0-5.12-2.64c-.87-.08-1-.15-.93-.48a2.22,2.22,0,0,0-3.56-2.38c-.88.65-1.11.67-2,.17-1.9-1.06-2.73-1.1-2.93-.14a6.64,6.64,0,0,0,.31,2.34,5.89,5.89,0,0,0,2.37,3.3s-2.18-.6-2.73-.71c.05-.06-.16-7.54-1.59-11.78l13.92-22.11,8,5.25-12.75,20.13,3.71,1.51s5-8.22,7.55-12.25c1.7,20,17.2,37.56,31.24,42.76,0,0,0-2.88.1-4.28-14.82-6.51-28.91-24.7-28-46.53l6,3.8c1.73,17.5,9.37,27.75,22.1,36.42v-5.36c-8.77-6.48-16.05-14.93-18-28.47,0,0,3,1.87,4.31,2.76a5.17,5.17,0,0,0-.57.38c-1.59,1.32-1.11,4,1,5.57.34.25.34.25,0,1.1a3.21,3.21,0,0,0,2,4.17c1,.25.94.23,1,1.32,0,2.11.89,3.08,3.14,3.58.31.07.32.1.31,1a3,3,0,0,0,4.19,2.92,26.48,26.48,0,0,0,2.54-1.91v-3.75s-.87.71-1.5,1.3c-1.1,1-1.45,1.15-1.45.53,0-.45.51-1,1.57-1.83a14.84,14.84,0,0,0,1.38-1.28V108.4a3.37,3.37,0,0,1-.46-1.71,10.89,10.89,0,0,1,.16-1.28h.53v-5.06l-.64-.5,0-3.35L118.65,74l-18.14,28.79-.45-.53,18.16-28.61-4.83-3.08L110.47,72S90.32,71.71,70.65,72c0,0,0-.54,0-2.07,0-1.92.1-2.19.45-1.38a5.09,5.09,0,0,0,5.06,2.81A4.89,4.89,0,0,0,79,70.43c.54-.29.63-.3,3.15-.28,2.7,0,3.19-.08,3.19-.65A56.15,56.15,0,0,0,87.8,63c.26-.9.37-1.3.59-1.49s.29-.11.69-.14A4.11,4.11,0,0,0,92.52,60c2.5-2.5,1.07-7.6-2.55-7.62-1,0-.3-2.55,1.72-6.68a67.63,67.63,0,0,0,3.47-7.79,17.91,17.91,0,0,0,1.13-4Zm-.19,1.23c.5.42-.75,3.5-3,8.17a50.71,50.71,0,0,0-3.09,7.18L89,51.73a1.52,1.52,0,0,1-.71.95c-.3.22-.73.54-.94.71-.61.49-.75.33-.6-.65.28-1.83,1-3.79,2.68-7.22a74.7,74.7,0,0,0,3.63-8.63c.23-.7.33-1.4.71-1.66A2.41,2.41,0,0,1,95.5,35.09Zm-2.71.18c.35.24-1.29,4.46-4.13,10.33-3.54,7.32-3.72,12.45-.54,13.7,2.51,1,5-1.77,3.49-3.78a1.8,1.8,0,0,0-2.91,0c-.3.55.12,1.18.66.41.78-1.12,2.35.17,2,1.49A2.36,2.36,0,0,1,89,58.85c-3.48-.69-2.82-5.58.78-5.85,3.45-.26,5,4.36,2.51,7A4.07,4.07,0,0,1,89,61.29c-2.25,0-4.34-1.85-4.13-3.57a6.72,6.72,0,0,0-.19-4.08,3,3,0,0,1-.37-1.29c0-1.39,1.18-3.55,3.74-8.88a50.26,50.26,0,0,0,2.6-7.32c.2-.61.1-.78.33-.87A2.86,2.86,0,0,1,92.78,35.27Zm-3,.07c.52,0-.68,3.87-2.21,7.15-1.16,2.51-2.74,5.73-3.91,8.72-.38.63-.63.68-1.4.27s-.6-1.17,1.4-5.14a61.62,61.62,0,0,0,4-9.87,1.36,1.36,0,0,1,.57-1A3.32,3.32,0,0,1,89.82,35.34ZM87,35.77c.28.37-1.55,5.56-4.39,11.41-.61,1.24-1,2.38-1.63,3.65a5.76,5.76,0,0,1-2,.56c-.58-.08,0-1.17,1.63-4.52,1.35-2.73,1.74-3.5,2.45-5.16.52-1.22,1.27-3.31,2-5.26.06-.16.11-.51.26-.59A2.2,2.2,0,0,1,87,35.77Zm-2.77.33c0,.12-.06.38-.1.58a43.93,43.93,0,0,1-2.21,6c-.09.27-.91,2-1.81,3.77S78.37,50,78.26,50.31l-.67,1.79c-1.63,3.49.12,6.25,2.29,6.44,3.37.28,3.69-4.44,1.31-4.89A1.5,1.5,0,0,0,79.3,55c-.06.54.6,1.16.59.39,0-1.41,1.93-1.34,2.18-.15.47,2.33-2.18,3.46-3.76,1.64a2.75,2.75,0,0,1-.52-2.38,3.1,3.1,0,0,1,5-2,4.27,4.27,0,0,1-1.94,7.68A4.44,4.44,0,0,1,76.69,59a5.19,5.19,0,0,1-1.29-3,8.74,8.74,0,0,1,0-2.32c.32-2.44,2.1-6,3.67-9,1.21-2.5,2.16-5.81,3.26-8.48C82.62,36,84.29,35.74,84.24,36.1Zm-3,.33c.18.06-.74,2.95-2.06,6.07s-3.32,6.8-4.39,9.92c-.33.77-.58.74-1.53-.14-.5-.47-.22-1.16,1.54-4.76A77.91,77.91,0,0,0,79,38.32c.19-.62.34-1.38.75-1.62A2.17,2.17,0,0,1,81.26,36.43Zm-2.71.69a51.37,51.37,0,0,1-2.83,7c-1,2.06-2,4.35-3,6.48-.56,1.31-.57,1.31-1.52,1.51-1.6.33-1.6.32-.19-2.54.42-.85,1.23-2.41,1.8-3.46a57.22,57.22,0,0,0,3.26-7.62,3.23,3.23,0,0,1,.63-1.24C76.87,37.12,78.13,36.74,78.55,37.13Zm-3.5.35a.79.79,0,0,1,.66.2c.07.65-1.69,4.8-2.77,6.72-.33.59-.66,1.35-1,2a37,37,0,0,0-3.46,8.12c-.68,2.77,2.49,4.86,4.14,2.85,1-1.22,0-3.41-1.55-2.8-.53.21-.31.45.41.51,1.18.1,1.27,1.92,0,2.32a1.93,1.93,0,0,1-2.42-2,2.74,2.74,0,0,1,4.53-2.08,3.78,3.78,0,0,1-.62,6.2c-2.56,1.29-5.72-.46-6.35-3.53-.48-2.34,0-4.49,2.3-8.1a45.17,45.17,0,0,0,4.35-8.82,4.89,4.89,0,0,1,.57-1.2A2,2,0,0,1,75.06,37.47Zm68.68,7.37-3.44,4.37c1,1.43,3.35,4.25,3.35,4.25l3.26-4.2Zm0,2.44,1.42,1.84-1.63,1.92L142,49.26Zm.13,9.49s-4.16,4.55-3.2,7.92c.85,3,5.39,3.74,6.49-.66a5.54,5.54,0,0,0,0-1.41C147.05,60.84,143.89,56.78,143.89,56.78Zm0,.9s1.19,1.73,2,3.26,1.19,5.53-2.16,5.4c-1.81.19-3.54-2.2-2.1-5.12A40.49,40.49,0,0,1,143.89,57.68Zm-68.66.73c.23,0,.46.46.61.83a3.91,3.91,0,0,1-1,2.62,19.37,19.37,0,0,0-2,.76,8.11,8.11,0,0,1,.54-2.21c.77-.76,1.43-1.67,1.74-1.94A.19.19,0,0,1,75.24,58.41Zm-8.29.26c.51.58,1,1.08,1,1.44,0,.52-.65,1.17-1.11,1.63s-1.75.23-1.75-.51A10.33,10.33,0,0,1,66.95,58.67Zm17.61.75A2.82,2.82,0,0,1,85.61,61a34,34,0,0,1-3.31,8.47A5.23,5.23,0,0,1,80,69.39a29.75,29.75,0,0,0,3.83-8.28C84.14,60,84.3,59.42,84.55,59.42ZM83,60c.28,0,.38.21.15.81-1.06,4.3-3.45,8.82-5.32,9.65a4.57,4.57,0,0,1-6-1.66c-1.14-2-.94-5.16,2.85-5.85,2.23-.23,4.51,1.53,3.32,4.35-1.32,2.09-4.88.93-3.84-1.77.79-1,2.44-.13,1.9,1-.27.57,0,.92.4.52,1.3-1.26-.84-3.42-2.28-2.34-2.35,1.77.55,5.65,3.29,4,.83-.51,2.34-3.36,2.91-5.43a4.74,4.74,0,0,1,1-2.28A3.37,3.37,0,0,1,83,60Zm-6.22.17a1.43,1.43,0,0,1,.51.18c.27.13.6.38.56.7a2.85,2.85,0,0,1-.67,1.55c-.25-.09-1-.37-1.44-.5-.3-.08.1-.73.28-1.08.3-.58.46-.82.7-.84Zm-7.75.15c.35,0,.91.38,1.28.44.07.53-.61,1.68-1.72,3-.91,1.11-.9,1.11-1.51-.11-.39-.79-.4-.77.72-2.16.6-.75.89-1.09,1.16-1.18Zm3.52.39A4.69,4.69,0,0,1,72.33,62c-1.26,3.75-4.19,7.46-6.62,8.37-3.16,1-6.06-.63-6.13-4.46.08-4.51,5.47-5.77,7.09-1.65.73,1.86-1.27,4.65-3,4.19s-2.48-3.19-1-3.86a1.18,1.18,0,0,1,1.71,1.3c-.07.35-.05.39.15.36.9-.17.42-2-.64-2.42-2-.85-3.52,1.84-2.17,3.85,1.62,2.4,4.16,1.94,5.63-1A9.2,9.2,0,0,1,68.38,65a14.1,14.1,0,0,0,2-2.78,11.78,11.78,0,0,1,.88-1.46A5.47,5.47,0,0,0,72.58,60.67Zm7.09.2c.38,0,.67.25.66.77a10.33,10.33,0,0,1-.93,2.73c-.11.17-.38.77-.41.63a7,7,0,0,0-1.12-1.93c-.11-.38.22-.74.37-1.08A1.73,1.73,0,0,1,79.67,60.87Zm6.69.58c.46,0,1.11.21,1.24.55.42.73-2.41,7.56-2.52,7.58L83,69.48a66.3,66.3,0,0,0,3.21-8Zm28.36,10.8,2.69,1.6-17.72,28.1-2.58-2Zm-44.21.58c16.55.06,39.34,0,39.34,0l-1,1.82s-24.9-.24-38.38-.22ZM48.17,74l0,9.24a63.47,63.47,0,0,0-6.92-4.71S45.68,75.54,48.17,74ZM119,74.9l1.66,1-18.62,29.57-1-2Zm-48.52.41h2.59v2.92H70.52Zm5.93,0H79.6v2.92H76.45Zm6.87,0h3.24v2.92H83.33Zm6.75,0h3.27v2.92H90.07Zm6.8,0h3.23V78.3H96.87Zm6.8.06H107V77.5l-.5.86h-2.8Zm17.79,1L153,96.78l0,2.81-32.87-21.2Zm-2.07,2.38.27.19-1.34,2-.28-.15Zm-48.78.3h35.45L105,80.87l-34.38-.05ZM41.51,80a3.68,3.68,0,0,1,1.43.6c1.74,1,2.84,3,2.09,3.78s-2.24-.76-3.21-2.78C41.3,80.52,41.16,80,41.51,80Zm62.72,1.76L92.79,100C90.21,96.46,87.31,93.4,81,95.47c-3.3-2.55-6.79-2.94-10.5-.78l0-12.88Zm-58.87,0,.89.77a9.74,9.74,0,0,0-.55,1.88A10.22,10.22,0,0,0,45.36,81.76Zm72.49.19,35.23,23.13v2.14L116.62,83.79Zm-77.17.53a1.56,1.56,0,0,1,1.24.59,1.67,1.67,0,0,1-.44,2.31,1.56,1.56,0,0,1-2.09-2.26A1.78,1.78,0,0,1,40.69,82.48Zm5.83.27,1.92,1.54c-3.34,19,6.2,38.19,26.75,43.94l.23,2.44c0,.12-8.73-2.6-12.56-5.46a39.56,39.56,0,0,1-12.71-14.3,41.58,41.58,0,0,1-4-11.17A47.43,47.43,0,0,1,46.52,82.75Zm-2.18,2.58c.74,0,.82.56.22,1.58a7.19,7.19,0,0,1-3.75,3c-1,.43-1.29.23-1.17-.85.18-1.63,1.32-2.83,3.29-3.46A5.35,5.35,0,0,1,44.34,85.33Zm5.66.21.76.65A1.6,1.6,0,1,0,52.86,88l.77.66A2.52,2.52,0,1,1,50,85.54Zm1.28,1.26a.9.9,0,0,1,.25,0l.56.48a.89.89,0,0,1,.09.38.9.9,0,1,1-.9-.9Zm-6.06.58A66.72,66.72,0,0,0,45.15,95a6.86,6.86,0,0,0-3.29-4.59A15.26,15.26,0,0,0,45.22,87.38Zm9.26,1.92,1.71,1.47c-1.47,20.12,16.2,27.75,16.67,27.42l.75,2.28C61.41,116.33,53,103.74,54.48,89.3Zm98.41,48.23-.09,2.53C139,134.71,123.18,114.93,123.38,96c-3.55,5.44-5.55,9.07-8.6,14l-2.43-1.15c4-5.94,7.79-12.29,11.8-18.12.46-.66.83-1,.85.48C125,97.67,127,124.49,152.89,137.54ZM40.33,90.88a3.35,3.35,0,0,1,1.88.72c1.27.85,2.69,3.46,2.2,4s-2.32-.1-3.25-1.08C39.31,92.61,39.19,90.95,40.33,90.88Zm10.79.26a2.52,2.52,0,1,1-2.53,2.52A2.52,2.52,0,0,1,51.12,91.14Zm5.65.24,1.65,1.93C58.74,110.19,72.1,115.4,72,115.44l.4,1.82C71.63,117.36,55.85,110.19,56.77,91.38Zm-5.65.67a1.6,1.6,0,1,0,1.61,1.6A1.61,1.61,0,0,0,51.12,92.05Zm0,.7a.9.9,0,1,1-.9.9A.9.9,0,0,1,51.12,92.76Zm8.53,1.53c.2,0,1.16,1.38,1.16,1.38s-1,.37-1.5-.09S59.11,94.28,59.65,94.29Zm73.13.62,2.48,1.69c1.15,11.39,7.69,21.78,17.56,29l-.06,2.82C140.74,120.31,134.07,109.31,132.78,94.91Zm-92.72.19h.12a1.58,1.58,0,1,1-1.7,1.79,1.71,1.71,0,0,1,1.2-1.72A1.68,1.68,0,0,1,40.06,95.1Zm20.65,1.52a1.74,1.74,0,0,1,1.24.69c1.08,1.22,1.08,1.58-.07,2-1.61.65-2.95-.25-2.41-1.63C59.75,97,60.2,96.62,60.71,96.62Zm-16.49.06a1,1,0,0,1,.36.06c1.19.46-1.39,5.17-3.09,5.64-1.08.3-1.31-.12-1-1.77C40.94,98.78,43,96.71,44.22,96.68Zm7.57.11a2.52,2.52,0,1,1-2.53,2.52A2.52,2.52,0,0,1,51.8,96.79Zm0,.91a1.6,1.6,0,1,0,1.61,1.6A1.6,1.6,0,0,0,51.8,97.7Zm-6.31.13a28,28,0,0,0,1.64,7.36,10.83,10.83,0,0,0-3.69-3.2C44.37,100.61,45.45,99.22,45.48,97.84Zm6.31.57a.9.9,0,1,1-.9.9A.9.9,0,0,1,51.8,98.41Zm14.29.28a4.19,4.19,0,0,1,4.38,4.18,58.71,58.71,0,0,1,0,6.94l-2.14-3.91c0-1.11.16-1.95.07-3a2.36,2.36,0,0,0-3.29-2.26l-.92-1.49A5.33,5.33,0,0,1,66.09,98.68Zm9.27.3a3.61,3.61,0,0,1,4,3.85c.14,4.72-.11,15.51-.11,15.51H73.89L71,111.14a7,7,0,0,1-.09-1.2c.19-2.31.07-4.88.15-7A4.52,4.52,0,0,1,75.36,99ZM63,99.73a1.2,1.2,0,0,1,.9.34c1.24,1.25,1.23,2.07,0,2.63-1.66.75-2.52.6-3.09-.5S61.78,99.74,63,99.73Zm77.81.34,1.35.87s-.29.44-.44.71c-.77,1.32.54,2.09,2.35,1.39a3.89,3.89,0,0,0,.61-.31l1.12.76s-.8.43-1.68.86c-2.26,1.1-3.88.63-4.43-1.27a2.77,2.77,0,0,1,.42-2.26A9.5,9.5,0,0,1,140.82,100.07Zm-57.25.16a4.71,4.71,0,0,1,4.55,3.7c.2,1-.06,14.41-.06,14.41h-8.2L80,104.28a3.59,3.59,0,0,1,.48-2.4A4.1,4.1,0,0,1,83.57,100.23Zm-8.51.62c-1.66.08-2.6,2.75-.89,4,.71.53.73.63.35,2.41a9.52,9.52,0,0,0,1,6.38c.78,1.3.62.63.22-.52-.51-2.17-.26-3.76,1-6.28,1.12-2.12,2.21-5.39-1.36-6A1.64,1.64,0,0,0,75.06,100.84Zm68,.61.74.5-.27.25c-.3.29-.89.33-1.07.11S143.08,101.45,143.08,101.45Zm-59,1c-1.78-.06-3,3.23-.67,4,.52.33.6.77.28,1.39a9.5,9.5,0,0,0-.79,3.62,13.77,13.77,0,0,0,.64,3.25c.6,1.47.48.88.32-.82a8.33,8.33,0,0,1,1.43-5.09c1.32-2.18,3.13-5.72-1-6.36Zm-30.61,0A2.52,2.52,0,1,1,50.89,105,2.52,2.52,0,0,1,53.42,102.5Zm11.7.25c.44,0,.76.29,1.16.88,1.09,1.62,1,2-1.14,3.11s-3.72-1.85-1.59-3.27a3.64,3.64,0,0,1,1.47-.7ZM42,102.88c2.35,0,6,3.37,4.23,3.86a2.88,2.88,0,0,1-.71.11C42.58,106.66,39.2,102.85,42,102.88Zm11.41.54A1.6,1.6,0,1,0,55,105,1.6,1.6,0,0,0,53.42,103.42Zm93,.47,1.17.79s-.72.33-1.56.78c-2.29,1.22-3,2.12-2.17,2.91a1,1,0,0,0,1.22.18,34.74,34.74,0,0,0,4.55-2.55l.88.6s-3.5,2.47-5.4,3.53c-3,1.53-4.69-1.6-3-3.68C143.38,105.18,144.75,104.76,146.44,103.89Zm-93,.23a.9.9,0,1,1-.9.9A.9.9,0,0,1,53.42,104.12Zm94.85.84.64.43-2,1.15c-2.13,1.22-2.22,1.24-2.34,1s0-.56.7-1A28.86,28.86,0,0,1,148.27,105ZM92.9,105a4.2,4.2,0,0,1,3.77,2.13,8.66,8.66,0,0,1,.46,3.33l0,7.87H88.85a74.42,74.42,0,0,1,0-9.83A4.11,4.11,0,0,1,92.9,105Zm-25.64,1.16c.52,0,.91.48,1.41,1.59s.12,1.72-1.43,2.39a1.54,1.54,0,0,1-.5.14,1.76,1.76,0,0,1-1.08-3C66.37,106.58,66.86,106.22,67.27,106.19Zm83.89.81.72.44s-.37.33-3,2.27c-2.15,1.57-2.46,2-2,2.87.36.71,1.15.62,2.24-.22,1.51-1.16,3.88-3.12,3.88-3.12l.08,1.34c-1.56,1.25-3.45,3.39-4.95,4.2-2.9,1.42-5-2.49-2.33-4.41A61.42,61.42,0,0,1,151.16,107Zm-57.94,0c-2.16,0-3,3.18-.64,3.85.67.36.61.54.17,2.13a7.13,7.13,0,0,0-.21,2.91c.17,1,.39.94.3-.09a8.61,8.61,0,0,1,1.17-3C96.15,109.79,95.59,107,93.22,107Zm-50.27,0a1.6,1.6,0,0,1,1,2.84c-.87.6-2.71-.13-2.7-1.09a1.82,1.82,0,0,1,1.42-1.73Zm4.1.17c.45,0,.71.65.7,2a5.7,5.7,0,0,1-1.81,4.43c-1.65,1.37-2-2.37-.48-4.84C46.1,107.71,46.65,107.2,47,107.2Zm105.63.49c.41,0,.34.3-.13.63s-1,.76-2.91,2.38c-.35.29-.85.68-1.11.85-.64.43-1.18.32-.87-.18A30.54,30.54,0,0,1,152.67,107.69Zm-96.73.09a2.52,2.52,0,1,1-2.53,2.52A2.52,2.52,0,0,1,55.94,107.78Zm0,.91a1.6,1.6,0,1,0,1.61,1.6A1.6,1.6,0,0,0,55.94,108.69Zm-30.2,0c17.08,8.62,27.72,24.74,30.35,43.1l8.3-13.13,2.24.84L54.55,159.21l-.52-.16c-.05-19.21-9.64-37.38-28.32-47.35Zm30.2.66a.9.9,0,1,1-.9.9A.9.9,0,0,1,55.94,109.4Zm-7,.1A30.93,30.93,0,0,0,52,114.85c-1.42-1.33-3-1.28-4.52-1.48Zm20.31.36a.84.84,0,0,1,.74.38c.7,1,.83,1.85.34,2.33a1.37,1.37,0,0,1-2.2-.54A1.56,1.56,0,0,1,69.2,109.86ZM153,111.19l0,1.49a8.7,8.7,0,0,1-.66.7A13.68,13.68,0,0,0,150,116c-.3,1.17.86,1.61,2,.74l1-.75v1.83c-1,.82-1.93,1.63-3.25,1.36a2.22,2.22,0,0,1-1.59-1.61c-.55-2.31,1.69-3.6,3.43-5.15C152.11,112,153,111.19,153,111.19Zm-93.46,1.3h.13a2.46,2.46,0,1,1-.13,0Zm50.71.57a1.66,1.66,0,0,1,1,2.89,1.8,1.8,0,0,1-2,.32C107.69,115.2,108.82,113.13,110.2,113.05Zm-2.75,1.47c.8.84,1.4,3.29.93,3.75-1,1.07-4.05-2.49-3.87-4.81C104.84,112.07,107.16,114.21,107.46,114.52Zm-36.9-1.33a.58.58,0,0,1,.55.82c-.12.29-.58.31-.93.17C69.56,113.93,69.85,113.18,70.55,113.19Zm-10.93.22a1.6,1.6,0,1,0,1.61,1.6A1.6,1.6,0,0,0,59.63,113.4Zm-12,.7c3,0,6.26,2.4,3.46,2.87a5.26,5.26,0,0,1-5-1.53c-.82-.75-.53-1.15,1-1.31A5.43,5.43,0,0,1,47.61,114.11Zm12,0a.9.9,0,1,1-.9.9A.9.9,0,0,1,59.63,114.11Zm4.22,2.28H64a2.46,2.46,0,1,1-.13,0Zm49.62.13a2.53,2.53,0,0,1,1.72.46c.45.41-.22,1.19-1.59,1.86-1.6.78-4.39.67-4.39-.17C109.21,117.54,111.63,116.55,113.47,116.51Zm-60.79.66c1.4,0,1.78,4.34.56,6.41-.63,1.08-1.48.36-2.09-1.77C50.65,120.08,51.61,117.17,52.68,117.18Zm11.3.12a1.6,1.6,0,1,0,1.61,1.6A1.6,1.6,0,0,0,64,117.3Zm52.32.28a1.24,1.24,0,0,1,.47.16c1.53.75,2.64,4.24,1.84,5.8S115.89,122,115.9,119c0-1,.07-1.38.35-1.42Zm-67.59.22h.1c1.38,0,2.39,1.94,1.09,2.92a1.87,1.87,0,0,1-2,.15A1.68,1.68,0,0,1,48,118,1.67,1.67,0,0,1,48.71,117.81ZM64,118a.9.9,0,1,1-.9.9A.9.9,0,0,1,64,118Zm-9.43.3a33.16,33.16,0,0,0,4.24,4.34,9.28,9.28,0,0,0-4.14-.07A10.7,10.7,0,0,0,54.54,118.31Zm49.23.25c20.76,4.85,33.44,26.84,28.43,47.46a9.18,9.18,0,0,1-2-1.44,43.63,43.63,0,0,0,.27-14.91A36.8,36.8,0,0,0,103.89,121,12.43,12.43,0,0,1,103.77,118.56Zm11.19.15a41.73,41.73,0,0,0,.81,4.1,25.81,25.81,0,0,0-4.82-2.68A11.94,11.94,0,0,0,115,118.71Zm6,.45a1.56,1.56,0,0,1,1.65,1.58,2.19,2.19,0,0,1-.86,1.44,1.58,1.58,0,0,1-2.19-2.07A1.52,1.52,0,0,1,120.94,119.17Zm-52.17.55a2.52,2.52,0,1,1-2.53,2.52A2.52,2.52,0,0,1,68.78,119.71Zm0,.91a1.6,1.6,0,1,0,1.61,1.6A1.6,1.6,0,0,0,68.78,120.63Zm-43,.24c10.32,6.08,19.57,19,20.26,33.61l-2.5-1.63C42.5,143,37.45,132.3,25.73,123.52,25.73,123.52,25.76,122.57,25.81,120.87Zm57.13,0H96.28v2.87l4-2.06V128l-4-2.42v2.77H82.94v-2.91l-4.08,2,0-6.31,4,2.26Zm-14.16.46a.9.9,0,1,1-.9.9A.9.9,0,0,1,68.78,121.33Zm5.24.5h0l.16.91h-.08a1.6,1.6,0,1,0,.6,3.09l.16.92a2.52,2.52,0,1,1-.89-4.92Zm30.12.32h.13a2.51,2.51,0,0,1,.57,5l-.15-.91a1.6,1.6,0,0,0-.42-3.15h-.11l-.16-.91Zm17.71.85c3.11,0,4.41,1.8,1.85,2.56a6.41,6.41,0,0,1-4.26-.51C118.17,124.49,119.93,123,121.85,123Zm-65.09.17a4.87,4.87,0,0,1,2,.37c1.3.62,1.27,1-.12,1.83-1.94,1.12-6.51,0-5.13-1.27A5.25,5.25,0,0,1,56.76,123.17Zm17.39.27.2,0,.28,1.63a.9.9,0,1,1-.48-1.66Zm30.13.32a.9.9,0,0,1,.29,1.74Zm5.49.64a2.52,2.52,0,1,1-2.53,2.52A2.52,2.52,0,0,1,109.78,124.41ZM60.62,125a.76.76,0,0,1,.5.21A5.87,5.87,0,0,1,62.79,131c-.57,1.85-2.93-1.44-2.91-4.06C59.89,125.77,60.17,125.07,60.62,125Zm65.38.22c.21,0,.43.16.65.52.94,1.56.9,4.79-.08,5.79-.55.57-.76.46-1.33-.7C124.25,128.89,125,125.26,126,125.27Zm-16.22.06a1.6,1.6,0,1,0,1.61,1.6A1.6,1.6,0,0,0,109.78,125.33Zm-47.15.43A48.12,48.12,0,0,0,68.51,129a6,6,0,0,0-4.75,1A5.77,5.77,0,0,0,62.63,125.76Zm57.29.34a13,13,0,0,0,4.48.12,13.89,13.89,0,0,0-.28,4.27A27.06,27.06,0,0,0,119.92,126.09ZM109.78,126a.9.9,0,1,1-.9.9A.9.9,0,0,1,109.78,126Zm-51.17.86a1.51,1.51,0,0,1,.07,2.73c-1.43.93-3.29-.7-2.4-2.1A1.77,1.77,0,0,1,58.6,126.89Zm56.24.82a2.52,2.52,0,1,1-2.53,2.52A2.52,2.52,0,0,1,114.84,127.7Zm14.77.42a1.55,1.55,0,0,1,.75.18,1.5,1.5,0,1,1-2,2.06A1.5,1.5,0,0,1,129.61,128.12Zm-24.36.37c12.43,4.22,20.75,18,18.75,31.3l-1.55-1.46c1.18-7.53-3-21.91-16.8-27.82Zm9.58.12a1.6,1.6,0,1,0,1.61,1.6A1.6,1.6,0,0,0,114.84,128.62Zm0,.7a.9.9,0,1,1-.9.9A.9.9,0,0,1,114.84,129.32Zm-47.26.16c.63.06,1.7-.06,2,.54.28.75-1.27,2.06-3.24,2.31-.8,0-2.52.25-2.88-.33S65.4,129.5,67.59,129.48Zm-39.46.44c1.68-.07,3.57,2.17,1.87,4a35.46,35.46,0,0,1-4.15,3.32V136s2.73-2,2.77-2.89a1.1,1.1,0,0,0-1.81-1c-.19.12-.94.73-.94.73l.06-2.06A3.26,3.26,0,0,1,28.13,129.92Zm42.92.53c1.25,0,4.13,4.49,3.4,5.4-.58.72-2.93-.88-3.81-2.59-.47-.92-.33-2.56.24-2.78A.43.43,0,0,1,71.05,130.45Zm19.21.54s.13,10.34-.45,11.31c-2.33,4.22-7.37,2-7.8-1.14-.31-1.91-.12-10.16-.12-10.16Zm.74,0H99s0,14.55-.36,15.39a5.46,5.46,0,0,1-2.17,2.17c-2.36,1-4.89-.43-5.52-3.19-.45-2,0-14.36,0-14.36Zm8.73,0h5.35s.18.77.39,1.4c.37,1.11,1.63,4.28,1.78,4.47.65.87.68,10.38,0,11.46-2.36,3.53-6.28,2.5-7.72-1.41C99.2,145.67,99.72,131,99.72,131Zm6.23.36c9.59,4.54,16.92,14.18,16,26.54l-1.76-1.75c.64-8.53-5.87-19.2-13.46-22.37Zm13.2.29a2.52,2.52,0,1,1-2.53,2.52A2.52,2.52,0,0,1,119.16,131.64Zm9.46.25a4.9,4.9,0,0,1,2.94,1c1,.84,1.17,1.51.37,1.75a4.71,4.71,0,0,1-4.54-1.12C126.32,132.51,127.24,131.87,128.61,131.89Zm-9.46.66a1.6,1.6,0,1,0,1.61,1.6A1.6,1.6,0,0,0,119.16,132.55Zm-50.51.2a1.65,1.65,0,0,1,.93,2.85,2.14,2.14,0,0,1-2.08.15A1.67,1.67,0,0,1,68.64,132.75Zm17.78.48a21.8,21.8,0,0,1-1.75,3.7c-1.59,2.64-1.38,4.41.29,5.31a2,2,0,1,0,1.82-3.6c-.85-.49-.85-.49-.54-1.8C86.63,135.21,86.69,133.26,86.42,133.23Zm32.73,0a.9.9,0,1,1-.9.9A.9.9,0,0,1,119.16,133.25Zm-24.1.52c-.11,0,0,.65,0,1.81,0,1.88-.17,2.46-1.38,5-1.54,3.22-1.33,5.42.57,6.14a2.22,2.22,0,0,0,2.93-2.3,1.58,1.58,0,0,0-.93-1.63c-.51,0-1.08-.27-1-.51C95.5,140.33,97.17,136.7,95.05,133.77Zm31.85.26a8.63,8.63,0,0,0,4.38,1.62,13.53,13.53,0,0,0-.84,4.78,30.07,30.07,0,0,0-3.54-6.4Zm-95.08.29.3,0A2.5,2.5,0,0,1,34,137.19c-.28,1-.37,1.16-4.2,3.71a20,20,0,0,1-2.35,1.48l-1.14-.77,2.49-1.67c2.94-2,3.37-2.44,3.07-3.33s-1.43-.76-3.17.58c-2.58,2-2.84,2.11-2.84,2.11v-1.18s1.13-.9,1.62-1.32C28.67,136,30.32,134.34,31.82,134.32Zm76.19.52a.4.4,0,0,1,.41.52c0,.12-.22.2-.44.2a.36.36,0,0,1,0-.72Zm25.85,1.37c.54,1.86-.63,5-1.34,5.37-.76.75-1.24,0-1.41-1.92C131.11,138.08,132.93,133.14,133.86,136.21Zm-30.66-1c.23,2.68.32,4.91-.94,7.09-1.63,2.83-1.21,5.25.54,5.78a2.18,2.18,0,0,0,3-2.4,2.47,2.47,0,0,0-1.24-1.47c-.54-.14-.6-.47-.29-1.53a9.93,9.93,0,0,0-.5-6.56c-.08-.28-.41-.92-.54-.91Zm5.86.89a1.69,1.69,0,0,1,1.06,2.92c-.61.56-1,.31-1.64-1.07S108.07,136.06,109.07,136.06Zm13.69.39a2.52,2.52,0,1,1-2.53,2.52A2.52,2.52,0,0,1,122.76,136.45Zm0,.91a1.6,1.6,0,1,0,1.61,1.6A1.6,1.6,0,0,0,122.76,137.37Zm0,.7a.9.9,0,1,1-.9.9A.9.9,0,0,1,122.76,138.07Zm-10.83.66a1.24,1.24,0,0,1,.59.12c1.33.64,1.18,2.48-.28,3.58-.93.69-1.32.45-2.19-1.34C109.58,140.11,110.81,138.78,111.93,138.73Zm-77.1.21a1.62,1.62,0,0,1,.38.06,2.77,2.77,0,0,1,1.9,3.19c-.76,1.87-3.32,2.5-5.26,3.28l-1-.74s1.42-.81,2.81-1.44,1.5-.83,1.41-1.58c-.19-1.47-.9-1.41-4.12.32-1.31.7-2.27,1.33-2.27,1.33l-.71-.59c1.07-.7,1.71-1.09,2.87-1.88,1.94-1.33,3.05-1.9,3.87-1.94ZM137.25,140c.47,1.42-.49,2.67-1.93,2.11a1.61,1.61,0,0,1-.85-2.22C135.12,138.9,136.94,139.08,137.25,140Zm-28.9-.49,2.27,4.07s0,1.13,0,1.76c.09,2.64.65,3.51,2.2,3.26.11,0,.66-.18.66-.18l1,1.66s-1.07.46-1.34.52c-1.83.38-4.35-1-4.74-2.81s-.08-8.28-.08-8.28ZM34,141.21c.69,0,.39.57.08.74-1.33.68-2.59,1.41-4,2.21l-.93-.58s.72-.4,1.21-.7A12.05,12.05,0,0,1,34,141.21Zm91.19.52a2.52,2.52,0,1,1-2.53,2.52A2.52,2.52,0,0,1,125.21,141.73Zm-10.68.34a1.49,1.49,0,0,1,1.38.75c.67,1.12,0,2.48-1.68,3.21-.91.41-1.07.32-2-1.12-.66-1-.65-1.15.07-1.77a3.89,3.89,0,0,1,2.26-1.08Zm-88.62.22,36.16,23.37-1,1.75L26,144.51Zm107.45.3c2.2,0,5.07,2.58,4,3.58a.7.7,0,0,1-.47.18C133.8,146.17,130.34,142.54,133.36,142.6Zm-8.15,0a1.6,1.6,0,1,0,1.61,1.6A1.6,1.6,0,0,0,125.21,142.64Zm-48.3.45,1,2.49-18,28.59L58.1,173Zm48.3.26a.9.9,0,1,1-.9.9A.9.9,0,0,1,125.21,143.35Zm6.61.3a7.69,7.69,0,0,0,4,3.34,5.84,5.84,0,0,0-2.31,4.74A44,44,0,0,0,131.82,143.65Zm-95.15.86a1.79,1.79,0,0,1,1,.27c3.37,2.31.28,4.59,0,4.41l-1.15-.72c.4-.65,1.29-1.54-.15-2.37a2.7,2.7,0,0,0-2.53.62l-1.21-.82A10.2,10.2,0,0,1,36.67,144.51Zm79.54,1.3a1.62,1.62,0,0,1,.37,0c1.9.37,1.77,2.38-.22,3.32-1.13.53-1.33.42-2.32-1.27C113.58,147.09,115,145.85,116.21,145.81Zm-80.15.74a.57.57,0,0,1,.49.35c.1.53-.88,1.06-.88,1.06l-1.13-.75A4,4,0,0,1,36.06,146.55Zm101.43.48a.5.5,0,0,1,.56.44c.39,1.57-1.36,4.47-3,4.94-.94.27-1.21-.17-.9-1.46.43-1.82,2.33-3.84,3.31-3.92Zm-58.33.12,2.93,2.12L64.52,177l-3-1.8Zm47.82.22a2.52,2.52,0,1,1-2.52,2.52A2.52,2.52,0,0,1,127,147.38Zm0,.91a1.6,1.6,0,1,0,1.61,1.6A1.6,1.6,0,0,0,127,148.29Zm0,.71a.9.9,0,1,1-.9.9A.9.9,0,0,1,127,149Zm-40.38.09c1.91,2.15,4,6.94,11.53,4.68a8.84,8.84,0,0,0,10.4,1l0,12.93-33.21,0ZM26,149.42l32.7,21.48-1,1.8L25.92,152.48Zm91.81,0h.08c1.67.41,1.86,2.08.31,2.71-.83.34-1,.26-1.8-.91-.32-.47-.5-.85-.45-1a3.42,3.42,0,0,1,1.86-.84Zm21,1.76a1.66,1.66,0,0,1,.77,3.11,1.63,1.63,0,0,1-2.23-2.21A1.59,1.59,0,0,1,138.74,151.21ZM118.27,153c.77,0,1.42.74,1,1.18s-.57.21-1-.26S117.83,153,118.27,153Zm9.38.32a2.52,2.52,0,1,1-2.52,2.52A2.52,2.52,0,0,1,127.64,153.28Zm7.11.14c1.9,0,4.54,3.18,4.09,4.92-.15.57-1.21.26-2.48-.71C134.65,156.32,133.54,153.41,134.76,153.42Zm-7.11.77a1.6,1.6,0,1,0,1.61,1.6A1.6,1.6,0,0,0,127.64,154.19Zm6.12.33a6.09,6.09,0,0,0,3.44,4.25c-3.68,1.71-4.39,4.59-3.83,8.29l-.86-.53A44.73,44.73,0,0,0,133.76,154.52Zm-6.12.38a.9.9,0,1,1-.9.9A.9.9,0,0,1,127.64,154.9Zm-.47,4a2.52,2.52,0,0,1,1.39,4.62l-.81-.61a1.6,1.6,0,1,0-2.17-1.62l-.82-.61A2.53,2.53,0,0,1,127.17,158.94Zm11.49.32c1.2,0-.67,3.33-2.38,4.24-1.31.69-2.5.74-2.5.11C133.79,162,136.83,159.25,138.66,159.26Zm-11.49,1.3a.9.9,0,1,1,0,1.8,1,1,0,0,1-.9-.9A.9.9,0,0,1,127.17,160.56Zm11.1,3a1.58,1.58,0,0,1,1.43.76,1.42,1.42,0,0,1-.39,1.8,1.55,1.55,0,0,1-2.48-1.85A1.56,1.56,0,0,1,138.28,163.59Zm-4.64,1.35a3.71,3.71,0,0,1,3.19,4c-.32.38-2.55-1.31-2.79-1.48A7.18,7.18,0,0,1,133.63,164.94Zm-2.76,1.56a67.22,67.22,0,0,0,6.34,3.8l-6.32,4.05Zm-56.44,1.88,34,.12v1.43l-35,0ZM73,170.61h2.29v2.78H72.19v-1.54Zm32.71.07h2.75v2.78h-2.75Zm-27,0h3.13v2.78H78.74Zm6.52,0h3.39v2.78H85.26Zm6.93,0h3.26v2.78H92.19Zm7,0h3.1v2.78h-3.1ZM70.8,174.2l37.76.09V176l-38.84-.09ZM103,177.71c3.84,0,6.08,4.24,3.08,7.25-2.76,2.76-7.37-.77-5.07-3.87,1.29-1.74,4.44-.34,3.65,1.51a1.15,1.15,0,0,1-2.17-.67c0-.53-.39-.17-.43.39a1.55,1.55,0,0,0,1.53,1.51c2.23,0,2.57-2.95.42-4-1.92-1-3.94.27-4.41,2.72a8.22,8.22,0,0,1-.61,1.41,14,14,0,0,0-1.3,3.87,3.87,3.87,0,0,1-1,.7c-1.1.55-1.05.32-.64-1.46,1.18-5.12,3.11-8.43,5.47-9.1A5.7,5.7,0,0,1,103,177.71Zm11.37.27a4.67,4.67,0,0,1,4.47,3.41c1.36,4.59-4.74,7.4-6.87,3.24-1.19-2.38,1.27-5.21,3.53-4.11,1.85.9,1.73,3.71-.16,3.7-1,0-1.65-.87-1.08-1.61.29-.29.64-.06.79-.55.06-.2-.23-.37-.93-.22-1.16.23-1,2.56.3,3,2,.69,3.71-1.41,2.76-3.5-1.14-2.5-4.24-2.51-5.66.1a12.8,12.8,0,0,1-.71,1.16c-2.11,2.86-2.28,3.29-2.91,4.88a.34.34,0,0,1-.36.26,4.47,4.47,0,0,0-1.55.28c-.26-.07.09-1.07.11-1.15C107.57,182.48,111.27,178.09,114.39,178ZM96,179.23a31.79,31.79,0,0,0-3.05,7.88,10.74,10.74,0,0,0-1.55-.67c-.2-.07,0-.3-.05-.66a19.38,19.38,0,0,1,2.95-6.86C94.57,178.71,96.41,178.65,96,179.23Zm2.15.84c-1.29,1.64-2.64,6-2.92,8.26a7.83,7.83,0,0,1-.14.84c-.2.67-1.46-.77-1.46-1.67,0-1.52,1.7-6.15,2.91-7.92.42-.62.47-.72,1.37-.75,1.44,0,.81.52.24,1.25ZM35.09,179a4.48,4.48,0,0,0-.95.12c-1.87.46-4.09,2.44-4.31,4.53a5.2,5.2,0,0,0-.19,2.27c.62,2.81,2.26,4.72,4.27,7.51a50.85,50.85,0,0,1-4.26,5.72l4.1,5.93c-1.13,2.24-3.11,3.93-3.6,6.69-.77,3.63,1.13,7.18,5.19,7.5,3,.09,5-2,5.39-5,.15-2.06-.69-4.63-3.74-8.71l-.45-.62s.34-.4.52-.67c1.07-1.45,3.87-5,3.87-5l-4.18-5.9a5.27,5.27,0,0,1,.5-.84c3.41-4.64,4-7,3.44-9.31a5.38,5.38,0,0,0-1.57-2.38A5.52,5.52,0,0,0,35.09,179Zm-.1.57a5.17,5.17,0,0,1,3.82,1.68c2.56,2.68,2.33,4.94-1,9.89-.73,1.09-1.45,2.28-1.45,2.28l4.2,5.79c-1.38,1.94-2.95,3.67-4.38,5.72.73,1.12,1.91,2.31,2.65,3.65A11.4,11.4,0,0,1,40.44,213c.33,2.91-1.56,6-4.81,6.09a5.54,5.54,0,0,1-5.48-5.89A9,9,0,0,1,31.52,209c.76-1.34,2.53-4,2.53-4L30,199.15l4.3-5.74s-3.13-3.83-4.09-6.58a5.86,5.86,0,0,1,.88-5.19A4.89,4.89,0,0,1,35,179.55Zm-2.66,8.31a11.4,11.4,0,0,0,2.79,4A18.18,18.18,0,0,0,38,187.4C41.18,179.88,29,179.27,32.33,187.86Zm2.75,3.25c-1.54-1.79-2.63-3.28-2.74-5.64a2.86,2.86,0,1,1,5.65,0C37.65,187.77,36.46,189.21,35.08,191.11ZM111,183.76c.12.66.76,1.77.71,2-.3.69-.73,1-1.34,2.17-.13.24-.07.29-.41.23a11.09,11.09,0,0,1-1.18-.31c-.17,0-.37-.14-.29-.36C109.08,186.2,109.73,184.61,111,183.76Zm-10.15,2-.72,1.87c-.07.2-.08.23-.29.19a5.69,5.69,0,0,0-1.18-.05c-.89-.11.79-3.44,1-3.95.37.06.91,1.49,1.14,1.95Zm.68.43h0a5.72,5.72,0,0,1,1.32.42c.22.09.23.1.13.38s-.46,1.59-.73,2c0,.06-1.27-.75-1.63-.91C100.64,187.87,101.06,186.26,101.53,186.2Zm10.73.22a2.6,2.6,0,0,1,1.22.61c.13.26,0,.53-.45,1.33s-.84,1.47-.95,1.39a5.78,5.78,0,0,1-1.18-1c-.21-.29.19-1,.47-1.46C111.8,186.69,112,186.46,112.26,186.42Zm-6.83-.09c.39.09-.23,2.08-.34,2.32a6.19,6.19,0,0,1-1.39,1.56c-.23.15-.94-.28-.93-.77a15.77,15.77,0,0,1,.91-2.61,6.35,6.35,0,0,1,1.74-.5Zm-15.79.76h.26A4.54,4.54,0,0,1,94,189.46c.46.79.47.83.36,1.56a7,7,0,0,0,.29,4c.52,1.21.44,1.63-.83,4.32s-2.84,6-4,9.08a32.45,32.45,0,0,0-1.31,4c-.2.77-1.13.54-2.07.5-.47.1.68-3.08,2.4-6.89,1.37-3,3.24-6.48,4-9.89.61-2.78.41-3.92.08-5.09-1.29-3.4-5.76-2.56-5.75.57.1,2,2.45,3.11,3.31,1.13.14-.91-.31-.38-.69.06-.81,1-2.2-.11-2-1.51a2.17,2.17,0,0,1,3.83-1c1.26,1.6,1,3.24-.84,4.48a3,3,0,0,1-4.53-.84,4.54,4.54,0,0,1,3.42-6.86Zm9.29,1.35c1.86,0,3.89,1.6,4.22,2.83.17.84-.09,1.82.21,2.63.25.65.49,1,.31,1.6-1.54,4.93-5.16,10.18-6.95,16-.21.41-.4.46-.86.59-.72.2-1,.18-1.07-.19a6.76,6.76,0,0,1,.59-2.29,44.1,44.1,0,0,1,2.26-5.32c1.51-2.84,2.36-4.78,3.46-7.2.21-.45.26-.72.59-1.37,1.38-2.8-.18-5.57-3-5.58-2.27,0-3.29,3.54-1.3,4.58s3.4-1.65,1.67-2.6c-.42-.23-.52,0-.19.39.77.92.08,2.17-1,1.67-1.66-.77-.8-3.59,1.13-3.43,3,.25,3.38,4.59.33,5.69-4.19,1.51-6.39-5.23-2.45-7.49A4.07,4.07,0,0,1,98.93,188.43Zm8.84.14a4.45,4.45,0,0,1,3.22,1.28c2.35,2.25,1.72,5.72-2.24,12.42a45.14,45.14,0,0,0-3.25,6.92,1.44,1.44,0,0,1-.71,1c-.69.38-1.47.43-1.57.16-.26-.68,1.71-4.92,5.2-11.58.92-1.77,2.08-3.83,2-5.95a2.65,2.65,0,0,0-3.5-2.33,1.89,1.89,0,0,0-.85,3,1.69,1.69,0,0,0,1.17.54c.58,0,1.24-.55.12-.62a1.16,1.16,0,0,1-.59-2.17c1.44-1,3.1.17,3,2.05-.24,3.78-5.77,3.21-5.92-.68A3.88,3.88,0,0,1,107.77,188.57Zm-15.62,6c.83-.06-.6,4.43-3.12,9.47a89,89,0,0,0-3.48,8.71c-.29.39-2,.46-2,.06,3.07-9.82,5.24-11.51,6.29-15.25.18-.65.32-1.58.34-1.66C90.95,195.71,91.6,194.79,92.15,194.62Zm-56.87.66L32,199.51l3.18,4.5,3.3-4.3Zm70.47,1.31A21.83,21.83,0,0,1,104,201c-3.19,6.42-4,8.15-4.53,9.86a.86.86,0,0,1-.46.59c-.4.15-1.5.36-1.59.21.67-3.75,5.83-12.29,6.83-16C104.7,195.62,105.72,196.22,105.75,196.59Zm2.55-.39c.22,0,.3.07.24.36a24.68,24.68,0,0,1-1.62,3.46c-2.69,5.27-4.09,8.39-4.54,10-.11.38-.17.67-.35.77-.37.2-1.66.72-1.72.16.4-2.38,2-3.93,6-13.86.19-.33.36-.49.54-.51C107.38,196.47,107.82,196.24,108.31,196.2Zm-11,1.63a29,29,0,0,1-2,4.27,60.65,60.65,0,0,0-3.95,9.5,2.27,2.27,0,0,1-.46,1,5.21,5.21,0,0,1-1.73.15c-.21-1.08,1.49-5.1,3.39-9.33,1-2.3,2.23-4.59,3-6.66C96.15,196.81,97.22,197.34,97.29,197.83Zm2.87-1c.57,0,.13,1-1.25,3.67a58.93,58.93,0,0,0-4,8.84c-.3.78-.65,1.75-.78,2.16s-.33.79-.54.89a2.05,2.05,0,0,1-1.59,0c-.28-.34,1.21-4.33,2.65-7.4,1.28-2.58,2.18-4.65,3.28-7,.3-.47.32-.51.62-.57a9.66,9.66,0,0,0,1.66-.54Zm-64.83.51L37,199.56,35,202l-1.64-2.38ZM35.09,207a14.06,14.06,0,0,0-1.44,2.11c-2.14,3.56-2.2,6.18.33,7.74a3.09,3.09,0,0,0,3.33-.34c2.86-2.49.73-5.91-1.11-8.23A11.67,11.67,0,0,0,35.09,207Zm.1.91a14.77,14.77,0,0,1,2.57,3.8c.82,2.13.29,3.81-1.3,4.59-2.51,1.24-4.8-1.55-3.61-4.53A15,15,0,0,1,35.19,207.88Zm70.39,4.21c.24.45-23.93,6-41.75,1.24L53,229l62.61-.11Zm-.92,1.11,8.68,15h-4L103.61,216a63.69,63.69,0,0,1-9.14,1.85l2,10.37h-3l-1.7-9.91a127.49,127.49,0,0,1-13.41.34l-2,9.57H73.27l2-9.51c-3.46-.47-6.91-.91-10.43-1.48l-5.9,11H54.52l9.26-13.79C77.6,217.16,90.35,216.51,104.66,213.2Zm-2.19,5.4,4.54,9.58H98.42l-1.58-8.55Zm-36.8.7,7.51,1-1.94,7.91H61.1Zm24.53,1.18,1,7.7H78.29l1.44-7.55Z"/></g></g><path id="path153-6-3-1-9-5-1-4" d="M48.16,26.57C40.82,37.06,33,43.1,32.82,51.29c0,2.65,1.39,7.16,5.87,8,2.91.56,6.91-1.8,7-6.59,0-1,1-.93,1,.38a27.2,27.2,0,0,1-3.34,11.75H53a27.2,27.2,0,0,1-3.34-11.75c0-1.31,1-1.33,1-.38.08,4.79,4.09,7.15,7,6.59,4.48-.86,5.91-5.37,5.87-8C63.37,43.1,55.51,37.06,48.16,26.57Z"/><path id="path153-6-3-1-8-6-9-9-4" d="M130.62,223.08c-7.35-10.49-15.21-16.53-15.34-24.72,0-2.65,1.39-7.16,5.87-8,2.91-.56,6.91,1.8,7,6.59,0,1,1,.93,1-.38a27.2,27.2,0,0,0-3.34-11.75h9.62a27.21,27.21,0,0,0-3.34,11.75c0,1.31,1,1.33,1,.38.08-4.79,4.09-7.15,7-6.59,4.48.86,5.91,5.37,5.87,8C145.83,206.55,138,212.59,130.62,223.08Z"/></g></g></g></svg>