<svg xmlns="http://www.w3.org/2000/svg" viewBox="0 0 178.78 249.65"><defs><style>.cls-1{fill:#fff;stroke:#000;stroke-width:1px;}.cls-2{fill:#e2cf00;}.cls-3{fill:#d40000;}.cls-4{fill:#131f67;}</style></defs><title>KC</title><g id="Layer_2" data-name="Layer 2"><g id="svg11376"><g id="KC"><rect id="rect6355-6-85-3-64-3-5" class="cls-1" x="0.5" y="0.5" width="177.79" height="248.65" rx="8.5" ry="8.5"/><path id="path147-6-9-8-7-0-5-6-9-6-3" d="M164.57,209.3c3.13-.07,4.53-3.74,2.21-6.59-.34-.42-.37-.65.24-.25,1.56,1.09,4.55.37,4.7-2.95.19-4.09-5.3-5.27-6.33-.92-.05.46-.41.45-.33-.2a14,14,0,0,1,1.35-5h-3.72a14,14,0,0,1,1.35,5c.09.65-.27.66-.33.2-1-4.35-6.52-3.17-6.33.92.15,3.32,3.14,4,4.7,2.95.62-.4.58-.16.25.25-2.32,2.85-.91,6.52,2.21,6.59h0Z"/><path id="path147-6-9-8-7-4-5-62-08-0-2" d="M14.21,40.35c-3.13.07-4.53,3.74-2.21,6.59.34.42.37.65-.24.25C10.19,46.1,7.2,46.82,7,50.14c-.19,4.09,5.3,5.27,6.33.92.05-.46.41-.45.33.2a14,14,0,0,1-1.35,5h3.72a14,14,0,0,1-1.35-5c-.09-.65.27-.66.33-.2,1,4.35,6.52,3.17,6.33-.92-.15-3.32-3.14-4-4.7-2.95-.62.4-.58.16-.24-.25,2.32-2.85.91-6.52-2.21-6.59h0Z"/><path id="path39-7-2-1" d="M14.85,34.95h2.64L13.6,25.23l-3,4.1,0,5.61h2.08v2.89H5.4V34.95H7.82V14.05H5.4V11.53h7.45v2.62H10.79l0,10.18,6.5-10.27H15V11.53h7.93v2.53H20.79l-5.36,8.39L20.68,35H23v2.89H14.87l0-2.9Z"/><path id="path39-3-8-1-1" d="M163.94,214.7h-2.64l3.88,9.72,3-4.1,0-5.61H166V211.8h7.34v2.89H171v20.9h2.42v2.53h-7.45V235.5H168l0-10.18-6.5,10.27h2.3v2.53h-7.93v-2.53H158l5.36-8.39-5.24-12.5h-2.33V211.8h8.15l0,2.9Z"/><g id="g5429-3-1-8"><g id="layer1-6-4-4-1"><g id="KC-7-1-9"><g id="g3440-6-4-8"><g id="g3454-7-1-1"><path id="path3450-5-0-3" class="cls-2" d="M128.69,21.19l-65.36.32,8.3,15.87c17-1.54,31.88-.17,47.39.34ZM84.05,77c-.07.09-2.72.78-2.45,1.39,6.92,15,10,27.13,12.9,42.5a6.7,6.7,0,0,1,3.82-1.15c-1.17-5.71,6-6.42,6-.45,1.37.32,2.78.33,4,1.72A96,96,0,0,1,122.6,74.79C113.81,78.3,100.91,87,100.91,87S90.18,82.57,84.05,77Zm53.43,1.79C125.78,90,121.2,121.1,122,121.53c-15.08-.51-19.65,16.27-6.58,25.31-.52,1.75-1.79,3.18-2.78,4.73a10.57,10.57,0,0,0,4.29,1.11c1.12,1.33,2.21,2.87,3.42,3a22.39,22.39,0,0,0,3.34-3.12,23.36,23.36,0,0,0,4-1.34c-1.15-1.62-2.51-3.25-2.54-4.77,11.37-8.08,9.8-19.08-.44-24.71,3.05-18.51,7.5-30.34,12.67-38.75ZM56.91,93.09c-1.49.73-2.3,2.28-3.38,3.49a12,12,0,0,0-4.32,1.21s3.39,4.72,3.18,5c-11,7.26-10.9,17.88-.35,24.88,1.79,15.11-10.94,39-11.58,38.33l0,4.94c9.06-10,14.23-28,14.75-42.59,18.09-1.21,18.73-18.85,6.28-25.48-1-.89,3.13-5,3.13-5-1-1-2.77-1.15-4.29-1.27A18.19,18.19,0,0,0,56.91,93.09Zm76.5,12.2c2.56,5.74,11.9-1.25,13.52,1.8,1.32,1.73,4.18,1.91,4-1-.54-2.89-2.42-3.53-9.9-2.27-2.84.48-4,.76-4-.54C135.1,100.87,133.42,104.13,133.41,105.29Zm8.68,8.38c-2.1,0-2.45,8.27-2.42,10.76-6.07,9.68,12.46,8.58,4.44-2,.28-1.38-1-3.62-1-4.62C142.46,117.76,142.17,114,142.09,113.66ZM33.64,126.14c-.19,2.5,1.63,10.1,2.3,9.84,2.37-3.86,2.09-7.16,1.85-10.93C43.44,114.08,24.12,118.59,33.64,126.14Zm35.25,1.77c-.84,16.16-4.77,32-13.66,45.77,7.65-3.6,15.08-8.24,22.27-12.22l16.8,10.49a6.62,6.62,0,0,0,2.29-1.28c-7.74-11.42-10.14-27.87-13.51-42.74a11.64,11.64,0,0,1-3.7,1.38c-.17,5.16-5.54,6.83-6.63.1ZM28.35,140.52c-1.79.11-3.14,4.59,1.94,5.25,3.58.51,8.17-1.27,10.44-.44,2.65,4.26,5-2,1.48-3-3.8-1.1-11.53,1.77-12.39-.67C29.39,140.79,28.85,140.49,28.35,140.52Zm30.47,70L48.68,228.58l64.79-.39L105,211C105.15,210.77,76.7,214.37,58.81,210.52Z"/><path id="path3446-6-3-4" class="cls-3" d="M72.64,39.11l1.28,2.35c15.17-2.52,27.13-2.92,42.83.14l1.43-2.45C103.86,36.55,89.24,35.47,72.64,39.11ZM87,74.51l13.24,8.65s6.34-4.52,9-6.44l-1.64-2.43C102,86.75,92.16,76.9,88.47,71,88.47,71,87.47,73.3,87,74.51Zm35.57,4.18A1.84,1.84,0,0,1,124.41,80c.52,1.06.72.8.38-.53-.53-2.09,1.67-3.46,3.75-2.06,1.5,1,1.43,3.45-.2,3.9-1.32.37-1.36.72-.2.66,2.08-.1,2.64,2.7,1.16,4.08a2.36,2.36,0,0,1-4.08-1.52c-.09-.56-.21-.55-.39-.24a5.45,5.45,0,0,0-.47,3.17l-3.08-1.93a7.89,7.89,0,0,0,2.56-1.71c.1-.11.18-.19.18-.24s-.34,0-1,.09c-1.86.2-3.29-1-2.91-2.79C120.47,79.38,121.24,78.72,122.53,78.7Zm-13.58,48.77c3.35-3.87,7.51-6.35,13.29-6,.73-16.2,6.3-30.62,15.22-43.6l-9.81-6-3.94,2.4C114.65,87.92,108.45,105.06,108.95,127.47ZM35.42,89.6s-6.64,5-9.73,7.44l.15,44.68.86.3c.06.1-.07-.66.32-1a4.43,4.43,0,0,1,1.13-.72c.85-.31.89-.89.09-1.38a1.88,1.88,0,0,1-.78-2,1.68,1.68,0,0,0-.27-1.33,2.33,2.33,0,0,1-.08-2.11c.14-.36.13-.46-.12-.94a2.47,2.47,0,0,1-.12-2,5,5,0,0,0,.15-1.34c0-1.78,1.42-3,4.11-3.33,1.05-.15,1.08-.19.6-1.08-2.72-5,3.39-7.63,3.85-6.83Zm83.78,2.49a4.54,4.54,0,1,1-4.43,4.6A4.52,4.52,0,0,1,119.2,92.09Zm0,.81a3.64,3.64,0,1,0,3.66,3.58A3.62,3.62,0,0,0,119.24,92.9Zm.09,1.15a2.47,2.47,0,1,1-2.41,2.5A2.45,2.45,0,0,1,119.34,94.06ZM30,95.92a1.81,1.81,0,0,1,.58.09,1.46,1.46,0,0,1,.91,2.3c-.48.74-.42.81.41.49a1.18,1.18,0,0,1,1.51.35c1.55,1.55-.76,4.16-2.28,2.58-.75-.78-.82-.55-.3.79.17.44.45,1.11.45,1.11l-2.23,0,.51-1.32c.39-1,.4-1.17-.41-.53A1.72,1.72,0,1,1,27,99.11c.34-.33.88-.34,1.64,0,.55.22.62.07.2-.46A1.64,1.64,0,0,1,30,95.92Zm46.18,4c-.91,6-.12,14.39-.13,18.88,2.42.46,2.44,2.13,2.81,4.19,1.17-.41,3.74,1.34,4.09,1.18C83.23,118.11,80.1,100.47,76.19,99.93Zm40.09,6c3.43.28,2.77,3,1.75,4-.48.56-.39.82.14.49,1.45-.88,2.6-.25,3.07,1.28.8,2.6-2.59,4.84-4.1,2.51-.51-.79-.82-.61-.7.21a11.35,11.35,0,0,0,.85,2.45l-3.37-.3s1-1.73,1.21-2.19c.37-1,.18-1.22-.54-.44-2.1,1.94-5-.54-3.66-3.12a2,2,0,0,1,3.24-.67c.9.59,1.09.34.29-.38C113,108.46,114.26,105.77,116.28,105.93Zm-86.11,2.12h.12a1.87,1.87,0,0,1,.89.26,1.51,1.51,0,0,1,.54,2.23c-.3.47-.21.76.14.46a1.45,1.45,0,0,1,1.91.5c1,1.64-1,3.79-2.28,2.42-.57-.6-.79-.63-.72-.23.19.74.67,2,.67,2l-2.33,0a15.29,15.29,0,0,0,.62-2c.08-.54-.13-.46-.68.17a1.13,1.13,0,0,1-1.72.22c-1.7-1.14-.34-4.05,1.43-3.07.61.34.7.14.22-.49A1.54,1.54,0,0,1,30.18,108.05Zm121-1c-3.77,3.93-2.59,1.61-.84,4.61,0,2,1.15,3.53.24,6.65a1.81,1.81,0,0,0-.16,1.51c-.28,3.45-3,3.4-5.67,3.94.44,0,4.22,7-2.83,7.56l.08,28.61,11-8.22L153,107ZM68.32,122.12c-3.13,2-7.53,7.13-13.06,6a78.74,78.74,0,0,1-14.75,43.55,93.6,93.6,0,0,0,8.93,5.07,28.1,28.1,0,0,0,6.29-3.84C65.68,157.39,68.83,140.43,68.32,122.12Zm26,3.26c.56,9.17,2,17.85,6.76,24.82l.32-19.48c-1.68-.41-3.06-1.51-3.55-4.62Zm-34.15,5.41,3.16.08s-.72,1.44-1,2.25c-.38,1-.2,1.18.52.5a2.37,2.37,0,0,1,3.22-.18c2.09,2.11-.1,5.55-2.56,4-1.06-.65-1.23-.43-.39.49,1.63,1.53-.07,3.73-2,3.74a2.44,2.44,0,0,1-2.38-2.34,2.06,2.06,0,0,1,1-1.92c.69-.39.2-.65-.55-.24-2.45,1.33-4.09-2.09-2.24-4,1.07-1.12,2.2-1,3.28.05q1.14,1.12.81-.2a11.18,11.18,0,0,0-.84-2.22Zm85.23,2.68h2.26c-.22.56-.51,1.14-.69,1.7s-.05.69.55.1c1.56-1.06,3.22,0,2.88,1.67a1.56,1.56,0,0,1-2.3,1.22c-1-.44-.66-.25-.11.42a1.52,1.52,0,0,1-.38,2.36,1.76,1.76,0,0,1-2.56-2.31c.6-.94.33-.84-.22-.39-.82.61-2.07-.25-2.09-1.44-.09-1.72,1.62-2.68,2.83-1.47.58.49.72.43.46-.28A12.66,12.66,0,0,0,145.39,133.47Zm.12,12.48,2.37,0a4.26,4.26,0,0,1-.4.88c-.43.81-.36,1.66.08,1.08a1.73,1.73,0,0,1,2.89.48c.61,1.37-.58,2.89-1.82,2.31-.81-.37-.86-.29-.33.49a1.55,1.55,0,0,1-.56,2.24c-1.67,1.07-3.66-1.07-2.27-2.44.37-.37.25-.55-.2-.3-1.84,1-3.19-1.5-1.6-3,.68-.62,1.19-.58,2.31.19.35.24.41,0,.16-.62A7.18,7.18,0,0,0,145.51,145.95Zm-88,1.5a4.82,4.82,0,1,1-4.71,4.89A4.8,4.8,0,0,1,57.5,147.45Zm.05.86a4,4,0,1,0,4,3.9A3.94,3.94,0,0,0,57.56,148.31Zm0,1.52a2.44,2.44,0,1,1-2.38,2.47A2.42,2.42,0,0,1,57.6,149.83Zm-6,11.69,2.76,1.36s-1.3,1.07-1.82,1.62c-.66.71-.62,1,.28.7a2.4,2.4,0,0,1,3.45,2.11c0,2.39-2.76,3.54-4.1,1.73-.4-.54-.88-.76-.69-.32a2.55,2.55,0,0,1-.62,3,2.72,2.72,0,0,1-2.38.27c-2-1.05-2.12-3.4-.19-4.32,1-.46,1-.9,0-.66-2,.5-3.14-1.92-1.71-3.59s4-1.4,4.27,1.21c0,.46.36.13.5-.58A16.42,16.42,0,0,0,51.59,161.52Zm25.71,3.93s-10.1,5.8-9.79,6c.06,0,2.24,3.13,2.24,3.13,5-11.46,17-2,18.93,3.88a5.42,5.42,0,0,0,.94.39c0-.41.88-4.48.88-4.48ZM60.75,207.76l-1.63,2.34c-.56.24,25.18,4.64,45.48.17l-1.4-2.69c-16.54,4.26-42.71.48-42.45.18Z"/><path id="path3444-9-5-7" class="cls-4" d="M24.08,19.56V230.09H154.7V19.56Zm39.16,1.63,65.58-.25L116.7,41.88c.12-1.1-23.57-4.49-42.92-.36Zm-37.32.49H61.59l12,21.73a4.12,4.12,0,0,1,.28,2.78,14,14,0,0,1-1.27,3c0-.45-3.47-.9-3.17,2.13A2.79,2.79,0,0,0,74.14,53c.31,0,.3.26.24.76-.18,1.18-1.41,4.9-2.26,5.15-4.32-3.57-5.86,3-2.95,4.25a4.54,4.54,0,0,0,5.49-1.91c.93-1.56.82-1.31,1.12.59.11.71.26,1.52.34,1.89.25,1.15,0,1.37-1.92,1.9a30.21,30.21,0,0,1-4.7,1.29A5.22,5.22,0,0,0,65,72.28c0,.58,0,.85-.12,1a136.48,136.48,0,0,0-39,22.58Zm81.86,51.68a42.22,42.22,0,0,1-2.37-6.42c-1.07-8.08-1.27-17.68-2.41-25.2l1.5.17A63.29,63.29,0,0,1,105.69,50c.3,2.92.62,9,.87,11.77.38,4.14,2.23,10.77,3.38,12.44,1.87,2.73,5.64,1,4.38-2.28-.65-1.68-3.18-1.41-2.83.34,0,.31.24-.22.61-.55a1.44,1.44,0,0,1,1.68,2.11c-.8,1.77-3.16,1-3.94-1.27-.94-2.66,2.21-4.65,4.57-3,2.63,1.81,2.63,6.39.52,7.83C111.37,78.65,109,76,107.79,73.36Zm8.8,3.37c-.14-.09,0-.36.18-1a6.23,6.23,0,0,0-1.34-6.22c-.88-1-1.21-1.19-.75-1.37,1-.39,3.15,1.2,3.74,2.76a5.82,5.82,0,0,1-.09,4.85C117.75,76.09,116.86,76.83,116.59,76.73Zm2.68-1.65c0-.29.19-1.2.23-1.65a6.05,6.05,0,0,0-2-4.84c-1.19-1.15-1.3-1.27-.17-1.29,2.9,0,4.74,4.68,3.41,7C120.36,74.68,119.31,75.43,119.27,75.08Zm2.45-1.6c.85-4-3-6.72-3.09-6.59.19-.9,1.73-.38,2.25,0,2,1.32,3.07,4.78,1.88,6.75a1.28,1.28,0,0,1-.5.51c-.4.26-.64.46-.72.28s.16-.72.19-.92Zm-34-13.07c.4-.4.52-.41,1.3-.12,2.43.93,4.37-.83,3.8-2.68a2.5,2.5,0,0,0-1.68-1.45c-.92-.1-.93.39.05.76a1.24,1.24,0,0,1,.27,2.34c-1.25.85-3.31-1.31-4.81-1.13a1.17,1.17,0,0,0-.77,1.73C86.23,60.44,87.31,60.79,87.75,60.41Zm-2.69-.26c-.84-.39-1.16-.39-1-1.32.11-.61,1-4.72,1.38-6.31,1.23-4.76.07-7.39-3.4-8.46a8.25,8.25,0,0,0-6.79.93l-.43-1.34c10.07-2.66,27.25-2.07,27.19-2a28.18,28.18,0,0,1,.6,4.1,49.2,49.2,0,0,0-4.9-2.12c-2.59-.8-6.68.08-7.4,1.58-.41.85-.2,1.42,1.54.47,2.85-1.55,8.66-.37,10.71,1.27.47.38.45.46.46.9,0,.68.05.71-.88.21-4.88-2.52-9.06-2.23-10.5,1.08-.33-.1-1.6-.32-1.6-.32l1.36,2L91.65,53s2.22,1.24,3.45,1.77.51,0-1-1.07c-1.09-.76-.22-1,.5-.72a7.3,7.3,0,0,0,6.12-.82,2.93,2.93,0,0,1,2.58.16s.24,1.86.47,5.73c.11,1.83.34,4.23.46,5.21.38,3,.49,3.14-1.05,1.71a18,18,0,0,0-1.4-1.22c-.2.92,2.09,2.54,2.62,3.09.81.84,1.46,3,1.13,3.13s-2.37-1.78-4.08-3.45a16.93,16.93,0,0,0-1.62-1.44c-.35.24,1.08,1.87,2.43,3.09,1.57,1.43,1.75,1.55,1.22,1.77-1,.4-1.85-.1-4.21-2.07a7,7,0,0,0-1.17-.79c-.21.29,2,2.37,2.46,2.55.92.33,1.18,1.23.46,1.58-.48.23-2.29-.76-3.73-2a3.08,3.08,0,0,0-1-.56c-.29.19,1.33,1.6,2.87,2.54s1.75,1.14,1.37,1.91-3.67-1-5.33-2.91c-.35-.4-.63-.57-.56-.44.72,2,3.1,3.47,4.87,4a3.83,3.83,0,0,1,1,.4c.5.4.39.82-.15,1.06-1.89.53-4.86-1.77-7-4.19-.25-.1-.1.21,0,.32,1.77,2.86,5.17,5,7.22,4.63,1.2-.24,2.16.13,2.17.53s-.65.86-1.94,1c-2.91.21-7.46-3-10.11-7.1-.08-.13-.18-.17-.19-.1-.07.87,1.58,3,2.85,4.21,3.77,3.62,7.33,4.84,10.11,2.8,1.57-1.23,3.08-3.9.75-4.8-1.24-.47-2,1.24-1,.75,1.39-.17,1.7.58,1.52,1.27a1.63,1.63,0,0,1-2.49.89c-1.67-.91-1.31-4,.84-4.58a3.32,3.32,0,0,1,3.86,2.77c.35,2.45-2.39,5.1-4.59,5.76C94.84,81.64,89,71.13,89,70.89c-.38-.73-.83-1.12-1.11-.27-.31,1.23-2,4.85-2.9,4.83.28-1.28,1.47-3.42,1.18-5.3-.5,1.54-1.56,4.83-3.57,6.59-.52.48-2.06,1-1-.19,1.28-1.81,2.95-4.29,2.6-6.61-.34.52-.52,1.84-.91,2.72-1,2.19-3.09,4.78-4.48,5.2-1,.31-.94,0,.12-1.17s3.14-4.74,3-6.26c-.06-.67-2.08,5.82-5.88,7.6a1.67,1.67,0,0,1-1.61-.1c1.5-.87,5.63-5,5.24-9.65L79.07,70c-1.4,4.46-4.41,7.39-6.75,7.63-1.87.19-3.18-.57-2.71-.91a6.54,6.54,0,0,0,6-3.22c1.58-2.43,2.17-6.33,1.21-10.45a71.09,71.09,0,0,1-1.36-10.65c2.66.92,5.33,1.53,7.92.51-.26,1.07-.69,1.2-1.37,2-.5.59-.33.73,1.61-.65.56-.4.77-.72.87-.62s-.09,1.27-.65,3.46c-.84,3.27-.62,3.51,2.49,4.74a2.15,2.15,0,0,1,1,.7c.1.12.61,1,.65,1.08s.08-.95,0-1.21A2.38,2.38,0,0,0,87.12,61a6.36,6.36,0,0,0-2.06-.88Zm58.78,42.67,0-3.4,3.27,2.34,0,1.12Zm-5.59.74-.12-62.83,3.76-2.52c.78,2.49.78,7.83.48,10.21-.49,1.55-.71,8.44-.15,12a35.75,35.75,0,0,1-.06,9.63,61.72,61.72,0,0,0,.27,8.67,26,26,0,0,1-.18,7,28.68,28.68,0,0,0,.13,7,59.88,59.88,0,0,1,.33,10.42C142.19,103.68,138,103.76,138.26,103.55Zm5-65.75s2.53,1.69,3.75,2.53L147,43l-3.65-2.41ZM105.5,42.18l1.56.1A91.94,91.94,0,0,1,108.21,53c.08,5.75.78,11.81,2.12,15.79L109.18,70c-2-4.55-2.11-11.74-2.55-16.6a92.92,92.92,0,0,0-1.13-11.22Zm38-.57,3.4,2.32,0,2.94-3.42-2.29Zm-35.77.79,1.37.15c.42,3.88,1.06,6.52,1.3,10.8.32,5.53,1.27,10.08,1.86,14.4l-1,.34c-.69.32-1.83-4.79-2.34-15.14C108.77,49.81,108.25,46.29,107.76,42.39Zm2.08.15,1.64.3a189.88,189.88,0,0,0,3.07,24.36l-1.43.09c-1.77-7.56-1.88-16.31-3.28-24.75Zm2.37.35,1.51.26c1.81,22.49,2.93,22.2,3.28,23.08l-1.63.67c-1.76-6.46-2.12-15.57-3.16-24ZM119,65c-.26.76-.87.69-1.54.77A33.92,33.92,0,0,1,116,58.8c-.69-5.3-.94-10.26-1.65-15.49l1.8.19C116.1,43.53,117.43,61.93,119,65ZM80.38,45.21c2.37.12,4.33,1.19,4.52,2.76,0,.35-.24.18-.56-.07a7,7,0,0,0-7.15-1.05c-.61.22-1.11.57-1.38.52a.64.64,0,0,1-.13-.86C76.33,45.42,79.21,45.15,80.38,45.21Zm-5.49,3.15c.05,2.48-.55,3.84-1.83,4.41-1.55.69-3.55-.79-2.58-2.44.73-1.25,2-.87,2.23.44l2-4.44S74.88,47.75,74.89,48.37ZM147,48l0,2.55-3.64-2.46.24-2.45Zm-64.62-.33c1.79.72,2.45,1.59,2.52,2-.1.29-.28.09-1.59-.62a6.23,6.23,0,0,0-7,.13c-.58.12-.64-.21-.06-.84A6.22,6.22,0,0,1,82.37,47.64ZM96,47.16a11,11,0,0,1,5.06,1.16,8.5,8.5,0,0,1,1.8,1c.37.19.4,1,.13,1.1s-.63-.16-1.22-.57c-3.79-2.48-6.51-2.18-8.7-.65a1.5,1.5,0,0,1-.65.16c-.42,0-.44-.2-.26-.43A5.46,5.46,0,0,1,96,47.16Zm47.34,1.79L147,51.52v2.53l-3.88-2.72Zm-65.9,1L78,50c1.24,3,2.8,1.47,3.45.26l.65.11C81.06,54.42,76.92,52.29,77.44,50Zm-.91.41c.6.07.58.76.77,1.26.42,1.12-1.18.17-1.45-.1C75.39,51,76,50.43,76.53,50.38Zm18.07-.12c1.57,2.42,2.48,1,3.38-.07l.43.14c-.11,1.73-3,3.59-4.38,0Zm4.84.27a3.11,3.11,0,0,1,.82.25c.86.35.82.61-.14,1-1.52.68-2.05.77-1.6-.19C98.79,51.19,99,50.6,99.44,50.53Zm-6,.37A1.46,1.46,0,0,1,94.14,52c0,.36-1.16-.05-1.16-.63C93,51,93.22,50.72,93.46,50.9ZM82.91,51c.78.29.69.67.14,1-1,.55-1.4.44-.77-.42C82.59,51.23,82.65,51,82.91,51Zm60.18,1.27,4,2.8,0,2.58-4-2.72A10.3,10.3,0,0,1,143.1,52.31Zm-68.33,4c.19,0,.26.63.31,1.54.07,1.52-1.46,3.64-3,4.37-1.87.88-3.87-.35-3.53-2.18s2.68-1.75,2.77-.2c-.23.41.09.75.22.72a5.84,5.84,0,0,0,2.63-2.93,5.74,5.74,0,0,1,.53-1.29A.13.13,0,0,1,74.77,56.3ZM143,55.83l4,2.91,0,2.56L143,58.57a13.52,13.52,0,0,1,0-2.75ZM95.05,59.88c-.3.51-.05,1.41.56.64a1.63,1.63,0,0,1,2.63,1.93c-1.11,1.34-2.47.91-5.35-.2-2.09-.81-2.43-.53-2.94.05s-.21,1.45.34,1.44c1.7.39,3.17.77,4.93,1.14,3.71.77,6-4.06,2.59-5.84A2.46,2.46,0,0,0,95.05,59.88Zm-16.4.56c-1.45,1.31-.26,4.76,1.87,5.07a4.58,4.58,0,0,0,1.87-.17c1.49-.43,3.14-1.33,3.2-1.84.31-2.36-3.17-.24-3.63,0a2.07,2.07,0,0,1-2.84-.21c-1.32-1.8,1-3.86,2.48-1.66.36.56.23-.39-.16-1A1.94,1.94,0,0,0,78.65,60.43Zm64.6-.74L147,62.34l0,2.46-3.6-2.62Zm.28,3.61L147,65.85l.06,2.56L143.42,66C143.49,65,143.51,64.17,143.53,63.3Zm-19.72,1.47c3.09.05,4.84,4.66,3.21,6.58-.49.57-.87.72-1.09.51a7.86,7.86,0,0,1,.06-1.14,5.42,5.42,0,0,0-1.64-4.54C123.34,65.11,123,64.79,123.81,64.77Zm-38.07.73c-.59.21-1.2.64-1.68.53s-.7.13-.88.51c-.71,1.43-.49,1.89.91,1.08.67-.38.9-.25,2.68.09A6.68,6.68,0,0,0,90,67.64c1.39-.36,2.22-.39,2.93,0s1.19.92,1.21.49-.52-1.82-.62-2.25c0-.21-.4,0-.72,0-1.16.08-2.53-1-3.42-.41-.71.44-.81.56-1.79,0C86.88,65,86.37,65.28,85.74,65.5Zm37.24.32c2.09,1.76,2.63,3.33,2.43,4.62-.1.93-.17,2-1.08,2.53a2.53,2.53,0,0,1-.65.17c.7-2.66-.13-5-3.09-7.57A2.12,2.12,0,0,1,123,65.82Zm-47.22,0a1,1,0,0,1,.3,0c.36.12.42,1.08.13,1.38s-.52.05-.85-.71C75.1,66.13,75.35,65.82,75.76,65.82Zm-1.93.75c.76,0,1.05.69,1.19,1.25s0,1.91-.44,1.41a4.5,4.5,0,0,0-.84-1.54C73,67.13,73.06,66.58,73.82,66.57Zm-2.15.71a2.24,2.24,0,0,1,.43,0c1.19.2,2.11,2.12,1.83,3.21-.63,1.17-.87.38-1.07-.68a6.49,6.49,0,0,0-1-1.48C71.28,67.62,71.19,67.29,71.67,67.28Zm71.76-.56,3.63,2.63v2.81l-3.8-2.58C143.35,68.6,143.39,67.66,143.43,66.72ZM69.31,67.86c1.78,0,3.3,2.09,2.74,4.11s-4.16,1.65-3.59-.44a1,1,0,0,1,1.41-.67c.88.54.78-.34.22-.66a1.55,1.55,0,0,0-2.31.79c-.92,3.43,3.44,4.59,5.82,1.05.87-1.29,1.81-2.68,2.33-3.27s.57-.47.49.21c-.3,3.18-2.5,7.16-6.62,6.94-4-.38-5.26-4.67-2.23-7.35A3,3,0,0,1,69.31,67.86ZM90.55,68a4.74,4.74,0,0,1-4.24.35c-1.07-.47-1.05,0-.59.46,1.34,1.15,3.78.63,4.82,0C90.88,68.62,91,68,90.55,68Zm56.53,5.09v2.56L143,72.94a11.63,11.63,0,0,1,.14-2.5Zm-3.91.85L147,76.54l.1,2.54-3.75-2.35Zm.27,3.56,3.69,2.58.05,2.77-3.66-2.43Zm-90,2.91-2.26,6.89,1.48.09,1,1.82,1-1.86,1.56-.12Zm90.14.92,3.56,2.47.05,2.56-3.69-2.58Zm-.14,3.13,3.65,2.66.07,2.72L143,87.09ZM61.87,86,59.63,93.4l1.26-.17,1.18,2,1.19-1.77,1.13.06ZM45,86.58l-2.13,7.33h1.43l1.21,1.85L46.6,94l1.62,0ZM143,87.93l4.28,3,0,2.88L143.13,91Zm4.23,6.85,0,2.53-3.6-2.59-.39-2.8Zm-76.38.43-2.61,7.45,1.75,0L71,104.47l.85-1.8h1.41Zm73.07.74,3.34,2.31,0,2.59-3.29-2.22Zm-63.3,30.14-1.9-1.85a2.73,2.73,0,0,1,2.53-.43,2.46,2.46,0,1,1-2.42,4.26Zm-1.69-3a3.9,3.9,0,0,0-2.68-4.16S76,100.82,76,100.28c0,.08-.32-2-.35-2.08h0l-.29-.08c.05,1.83.17,20.61.14,20.73-2.3.27-2.95,1.84-3.15,4a3.47,3.47,0,0,0-3,1.14c-.66-.92-.17-2.27-.69-3.23-1.59,5.62,1.5,9,4.21,8.67.43,5.39,6.32,6.37,6.12-.17,7.12-.42,4.71-7-.11-6.16ZM45.42,100.37l-2.58,7.3,1.81-.21.66,1.35c2.89-2.57,4.36,1.4,2.88-2Zm98,13a.91.91,0,0,1,.86.69c.06,1.23-1.58,1-1.63.18A.84.84,0,0,1,143.44,113.35Zm1.07,8a1.09,1.09,0,0,1,1.85.63c0,.78-.87,1-1.57.6A.81.81,0,0,1,144.51,121.36Zm.1,2.17c3.88.3,6.76-2.36,5.53-4.27,1-1.32.19-2.08.48-2.84a2.39,2.39,0,0,0-.07-2.69c-.17-2.46-.88-2.77-1.93-4.08-.32-.38.74-.75,1.14-1.4-1.24.33-1.9-.3-2.57-1.14-7.18.34-13.63.84-13.38,10.67-1,4.17.72,7.89,5.73,6.74,1.1-1,.37-2.42.24-3.11a8.58,8.58,0,0,1,.2-4c.43-2.75,2.42-5.3,2.64-1,.35-.54.18-.62.76-.84,1.38-.5,1.37.9,1.09,1.47-.18.29-.46.27-.73.23s-.92-.2-.93-.35c-.11.45.73,1.28.64,1.7s-.18.37.18.1c1.73-1.25,2.81,1.54.31,1.22C145.16,120.59,143.34,122.54,144.61,123.53Zm-2.56-15c1.36-.07,1.69-.08,1.62.64.26,1.33.59,1.95,2.31,1.81s2.28-.34.54.72a3.4,3.4,0,0,1-2.21.37c-1.05-.1-1-.2-1.57.16a3.71,3.71,0,0,1-1,.5l-1.12.23a7.91,7.91,0,0,1-1.87,4.09c-1.2,1.38-1.81,1.62-.34,1.51.54,0,.26-.24.5,2a11.69,11.69,0,0,0,.34,2c.38,1,.43,1.52-1,1.59-3.63.28-4.48-3.29-4-5.11,0-.29.21-1.24.24-2,0-.41-.06-.76-.05-1.18.08-3.4.88-4.29,3.87-6.5A7,7,0,0,1,142.05,108.53Zm3.19.18c1.68,0,3.29.78,2.49,1.31a4.15,4.15,0,0,1-2.93-.18C144.12,109.36,144.38,108.74,145.24,108.72ZM70.5,111.6l-.66,1.19a12.38,12.38,0,0,1-.57,6.65l1.37,1.81,1.09-1.88,1.71,0Zm78.37-.55a1.23,1.23,0,0,1,.85,1.83c-.61,1.35-4.67,2-4.67,2a3.12,3.12,0,0,0-.37-1.79,13.84,13.84,0,0,0,3.28-1.24C148.34,111.51,148.57,111.06,148.87,111.05Zm.8,3.08c.39,0,.6.29.71.88a1.2,1.2,0,0,1-.32.92,7,7,0,0,1-5,1.63,10.16,10.16,0,0,1,.18-1.82c1.39,0,3.74-1.2,4.41-1.61Zm-41.31,7c-1.38-2-4.46-1.72-4.13-1.58,0-1.73-.27-4.1-2.87-4.35s-4,3.29-3,4.76c-1.62-.68-4,1-4,1.18-.21,0-2.06,4.95,3.55,5.2a5.69,5.69,0,0,0,3.17,4.42l0,19,.63.86.06-19.95c2.87-.13,3.22-3.44,3-4.2a5,5,0,0,0,3.41-1l.33,3.25s.67-1.15.52-1.76c-1.25-18.69,5.45-38.91,14.25-52,.47-.55.61-1.21.85-1.21,2.14-1.17,3.5-2,3.5-2,3.54,1.72,9.85,5.86,9.85,5.86l.1,26.64c-.1-.26,11.77-1.34,11.59-1,0,0-1-.41-1.06-1.11l-.31-62.33-5.19-3.42s-4.27,2.82-5.46,3.78l.13,36.7-9.2-5.44s.15-1.3.16-1.72c-.15-5-2.58-6.69-7.22-5.2-.62.2-1.05.37-1.36.12-2-5.76-2.83-20.9-2.83-20.9L130,21.4l22.2-.12.38,85.5.8,44.81L142,159.92l-.17-28.71a14.36,14.36,0,0,0-2-.84.29.29,0,0,0-.08.53,10.54,10.54,0,0,0,1.44.64l.24,28.45s-4.41,3-6.37,4.24c-3.68,2-7.31,4-11.11,5.67s-12,5.09-12,5.09c-.72-2.39-7.8-8-15.77-4a10.46,10.46,0,0,0-2.24.94c-3,.56-4,3.83-4.49,7,0,.13.24.1.25.11s.72-3.06,1-3.64a4.2,4.2,0,0,1,1.71-2.12c.18,0,.33.25.09.69a13.54,13.54,0,0,0-1,3.58c-.1.78-.12,1.4,0,1.43s.71-2.35,1-3.19c.8-2.19,1.3-3.09,2.07-3.56s1-.41.82.1a16.33,16.33,0,0,0-1.88,6.51c0,.49.21.5.4-.31.64-2.58,1.52-6.07,3.61-7.11.89-.41,1.28-.39,1.19-.1a14.14,14.14,0,0,0-3.07,7.8c0,.38.16.3.48-.52.84-3.12,2.08-5.76,3.56-7.06a3.28,3.28,0,0,1,1.84-.71c1.75-.22,1.81.44.29,1.33-1.74,1-3.74,4.73-4,7.52-.08,1,.26,1.07.5-.22,1-5.54,5.74-9.2,9.51-7.51,1.7.76,2,1.82.53,1.35-3-1-6.31,1.18-7.68,4.17-1.24,2.7-1.21,4.12-.34,7.73.59,3.34,1.75,7.6,1.37,10.87-.41.63-1.71-.26-3.24-.45a5.71,5.71,0,0,0-3,.15c-.84.33-1.32.41-1.48-.05,0-.15.65-.87,1-1.26.5-.64.21-.74-.49,0a8.05,8.05,0,0,1-1.28,1.17c-.44.09-.46-.41-.1-1.7,1.26-5,.92-5.07-1.23-6.08-2.13-.82-1.46-1.23-2.4-2-.67.53.87,2.93,2.61,3.46,1.42.43,1.25,1.16.63,3.14-.63,2.76-1.71,6.42-1.08,8.87,1.31,5.15,6.49,5,10.46,3l.48,1.31c-3.36,1.37-21.05,2.54-27,1.85a16.91,16.91,0,0,1-.69-4,31.59,31.59,0,0,0,5.52,2c2.3.36,5.83.38,6.74-1.75.28-.63,0-1.15-.8-.79a13,13,0,0,1-11.09-.39,1.18,1.18,0,0,1-.52-1.63c.34-.08.79.31,1.06.44,3,1.55,4.72,1.85,6.7,1.26,1.51-.45,3.54-2.09,3-2.56-.51.18-2.2,1.61-3.36,1.92-2.4.64-5-.34-7.44-2-.77-.67-.42-1.16.52-.62,3.73,1.89,5.28,3.15,8.85.49.8-.6,1.24-.52,1.71-.16,1.85,1.67,1.85.73.49-1a5,5,0,0,1-.77-1.54,3.29,3.29,0,0,0-.41-1.16,5.94,5.94,0,0,0-2-1.11c-1.25-.56-1.67-.29-.74.17,1.62.8,2.4,1.65.4,1.19a7.63,7.63,0,0,0-6.58.84c-1.35.67-1.95,1.38-2.27-.13-.67-3.14,0-7.4-.91-12.88-.17-1-.38-1.71-.16-1.85s1,.49,1.83,1.71c.39.56,1.17,1.62,1.17,1.4,0-1.16-1.76-3.34-3.23-4.19-.81-.47-1.36-2.65-.43-2.17a27.39,27.39,0,0,1,5.15,4.83c.33.55.61.2.26-.45a14.43,14.43,0,0,0-1.94-2.36c-1.51-1.49-1.68-1.42-1.39-1.72.57-.6,1.8.17,4,2.17.56.71,1.3,1.36,1.21,1,.22-.56-2-2.93-3.27-3.57-.24-.15-.28-.32-.25-.61.12-1.12,2.64.53,4.72,2.45.78.72.13-.64-.77-1.56a9.58,9.58,0,0,0-2.64-1.93c-.77-.32-.82-1-.21-1.29,2.09-.09,4.25,2.07,5.54,3.76.36.47.68.82.31-.06a7.89,7.89,0,0,0-5.39-4.45c-1.39-.25-1.36-1.52-.05-1.37s3.8,1.47,5.81,3.51c.58.59,1.56,1.93,1.36,1.15a7.05,7.05,0,0,0-1.33-1.87A12,12,0,0,0,77.64,173c-.94-.27-3.75.28-3.76-.21s.29-.58,1.18-.88c3.46-1.16,8.53,1.84,11.3,6.46.2.33.57.47.6.4-1.34-3.77-5.5-7.19-8.8-7.78-2.25-.36-4.52.21-5.6,1.75-1.21,1.72-.74,4,1.08,3.84,1-.09.88-.64.86-.66s-.62.2-1,.13a1.2,1.2,0,0,1,.71-2.3c2.1.26,2.39,3.6,0,4.3-2.16.65-3-.35-3.55-1.53-.87-1.73.06-4.53,1.59-5.6,4.28-3,9.69-.49,12.74,2.49a13.69,13.69,0,0,1,3.31,5.1c.18.44.56.39.38-.06-4.3-11.09-17.15-12.38-19-3.77-3.11-4.92-5.83-5.27-10-3.12-4.25,1.77-6.34,3.22-10.28,5.08l-8.91-4.83c-.53-8.94-.23-17.91-.19-26.86,0-.21-1.93.14-5.19.66-8.67,1.75-7.92-2.94-9.06-3.18-.61-.12-.56.14-.73-16.36,0-4.79-.14-13.22-.21-18.73s-.09-10.09,0-10.19a6.42,6.42,0,0,1,1.1-.92c2.11-1.51,3.3-2.42,7.92-6a12.29,12.29,0,0,1,1.31-.94c.53,9.91.05,20.33.32,28.85h.39L36,89.56c-.8-.21,18.23-11.45,28.65-15.09.2-.07.68.15.68.15,6,7.4,21.73,5.16,23-3.85,2.61,5.49,14.07,16.17,19.3,3.3,0,0,1.9,3.7,3.53,3.94,3.66.49,4.07-.09,12.12-4a88.72,88.72,0,0,0-14.94,47.12Zm-4.89-3.52a3.87,3.87,0,0,1,.1,2.06c-.24.5-.59.49-.59.49l-1.78-1.54-1.75,1.63a2.44,2.44,0,1,1,4-2.65Zm46.08-.25c1.14-.07.55,1.25-1.14,2.15a3.05,3.05,0,0,1-2.32.52,1.94,1.94,0,0,1,.1-1.44,30.07,30.07,0,0,1,3.36-1.23Zm-73.71,2.5a2.35,2.35,0,0,1,2.41,2.5,3.13,3.13,0,0,1-.32,1.31l-2.12-1.58-1.62,1.74c-.28.1-1.27-1.15-.59-2.51A2.53,2.53,0,0,1,75.84,119.83Zm30.63.74a2.42,2.42,0,0,1,.36,4.3c-.82.46-2.12.72-2.73-.21l1.75-1.93-2-1.71A3,3,0,0,1,106.47,120.57Zm42.77-.66c.31,0,.38.12.47.41.25.82-.38,1.65-1.48,1.91s-.92.36-1.4-.55c-.38-.72-.48-.69.11-.91S148.42,120.25,149.24,119.91Zm-50.68,1.23s-1.26,1.3-1.82,1.84l1.9,2c.09.24-2.19,1.29-3.4-.29a2.75,2.75,0,0,1,.77-3.64C97.15,120.38,98.77,120.94,98.56,121.14Zm2.72-.23a2.05,2.05,0,1,1-2,2.08A2,2,0,0,1,101.29,120.91Zm-27.8,3.46-1.82,1.93,2,2.17a10.06,10.06,0,0,1-2.12.15c-2.69-.51-2.42-3.69-.35-4.53A2.41,2.41,0,0,1,73.48,124.37ZM37.67,125s.36,4.08.69,5.48c-.22,1.59-1.24,2.67-1.69,4.31-.25.73-1.16,1.7-1.34.68-.66-1.27,0-2.83-.58-3.73s-.19-1.33-.38-2.21c-.52-.73-.76-1.06-.67-1.71-.11-2.89-.82-2.31-2.09-2.08-4.92.43-4.92,3.29-4.62,6.92-.7,3.41.59,2.6.55,3.21-.07,1,.09,2.33.38,2.48,1.76,2,1.84,3.44,4.13,3.09,3.87.3,10-.28,11.34-5C44.2,129.74,44.46,123.36,37.67,125Zm38.44-.66a2,2,0,1,1-1.93,2A2,2,0,0,1,76.12,124.37Zm-36.75,1a3.13,3.13,0,0,1,2.3.83c1.52,1.47,1.58,2.8.91,8.45a5.44,5.44,0,0,1-1.48,3.5,13.3,13.3,0,0,1-4.78,2.36,7.68,7.68,0,0,1-2,.2c-.57,0-.91-.27-1-.76.13-1.32-1.2-1.44-2-1.37-1.37.06-1.51.2-.66-.47s3.23-.78,3.66-.33a4.26,4.26,0,0,1,2.92-1.12,2.49,2.49,0,0,1-.3-1.87c.58-1,1.56-2.85,2.59-3.53,1-1.34.15-.73-.48-.71-.36,0-.33-.11-.39-.35a22.46,22.46,0,0,1-.61-4.16C38.12,125.52,38.64,125.42,39.37,125.41Zm-6.47,1.45a.77.77,0,0,1,0,1.22.87.87,0,0,1-1.45-.61A.9.9,0,0,1,32.9,126.85Zm68.52,2.83A2.57,2.57,0,0,1,99,126.21c.34-.48.49-.41.49-.41l1.88,1.69,1.8-1.9A2.44,2.44,0,0,1,101.42,129.68Zm-70.53-2.75a3.23,3.23,0,0,0,.06,1.29c-.33.24-1.72.65-2.46,1a.65.65,0,0,1-.82-.76c.2-.83,1.42-1.38,2.3-1.64A1.13,1.13,0,0,1,30.89,126.93Zm.3,2.39c.5-.06.35,1,.17,1.61-.19.4-.74.39-1.24.42-.88.05-2,1.07-2.46.91-.16-.07-.27-.49-.29-.76C27.48,130,29.9,129.48,31.19,129.32Zm2.65,1.53a1.17,1.17,0,0,1-1.16.24.91.91,0,0,1-.2-1.64C33.63,129.07,34.31,130.16,33.85,130.85Zm72.82-2.43-1,1.54-1.52,0,2.46,7.61,1.14-3c.15-1.37.33-2.73.47-4.1Zm-32.33.64,1.94,1.6L78,128.94c1.24,2.79-.19,4.07-1.71,4C74.57,132.94,72.78,131.34,74.34,129.06Zm-42.66,2.88c.62-.12.35,1.56.27,1.61a8.85,8.85,0,0,0-2.8,1c-1.52,1.2-2.17.47-1.46-1C28.35,132.73,30.8,132,31.68,131.95Zm1.93.08a.88.88,0,0,1,.74,1.41.92.92,0,0,1-1.54-.6A.82.82,0,0,1,33.62,132Zm-1,4.26c.09.39,0,.27-.75.48a11.26,11.26,0,0,0-1.65.71c-.94.48-1.21.74-1.54.68s-.57-.17-.65-.45c-.33-1.09.55-2.19,2.59-3a7.93,7.93,0,0,1,1.44-.31C32.74,134.45,32,135.52,32.62,136.29Zm1.21-1.63c1,0,1.17,1.31.43,1.54C32.53,136.64,32.68,134.65,33.82,134.65Zm-1.22,4.87a.61.61,0,0,1,0,.94c-.57.28-2.76,0-2.77-.58,0-.41.72-.55,1.4-.56S32.39,139.31,32.61,139.52Zm98.75.68-1.8,2.43,2.42,6.11,2.21-7.4-1.74.69Zm-102,6.28c.42,18.82.35,61.95.35,61.95L35,212.06,40.63,208c-.06-13.57-.11-22.94-.16-35.51L48.65,177a4.34,4.34,0,0,1,.21,2.06c-.57,4.69,3.93,7.73,6.91,5.88,1.15-.49,1.24-.57,1.49-.21.67,1,1.43,5.33,1.55,8.09.19,4.15,1.27,12.62,1.53,12.68L47,228.22H25.93V143.68a7.22,7.22,0,0,0,3.46,2.79Zm77.32-1.81-1,1.54h-1.2l2.11,7.88,2.56-7.7-1.41-.18ZM40,207.47s-2.59,1.88-3.42,2.42c-.44.17-.65.2-.75-.22a14,14,0,0,1,.26-3.11,11.37,11.37,0,0,0-.08-3.71,19.2,19.2,0,0,1-.08-5.25,48,48,0,0,0,0-8.42,55.65,55.65,0,0,1-.05-8.52,30.42,30.42,0,0,0-.22-7.59c-.67-3.77-.79-5.07-.08-7.91a10,10,0,0,0,.34-3.41,42.4,42.4,0,0,0-.8-7c-.4-2.52-.43-2.87-.06-6.86.08-.8.1-1.34.41-1.6s4.05-.52,4.05-.52Zm-9.73-60.93,4,0a14.56,14.56,0,0,0-.41,3.16l-3.58-2.37Zm.06,1.63,3.54,2.33a20.37,20.37,0,0,0,.07,2.91L30.35,151Zm0,3.7,3.79,2.62c.15,1,.46,2,.58,3l-4.3-2.94Zm122.59,1,.2,75.31H115.38l-12-23.19a21.38,21.38,0,0,1,.42-3.22c.36-1.32.45-1.6,1-1.67a2.51,2.51,0,0,0,3.3-1.26c.56-1.26-.58-3.18-2.33-3.59a3,3,0,0,0-2.47.82c-.5.42-.61.46-.71.1-.22-.82.5-3,1.79-5,.72-1.06.91-1.37,1.14-1a2.3,2.3,0,0,0,3.71.37,2.85,2.85,0,0,0-1.36-4.34c-4.09-1.32-6,2.82-5.92,2.81l-.87-5c4.92-1.22,7.77-1.65,9.33-3.16a6.54,6.54,0,0,0,1.67-5.06s13.68-5.61,20.08-9.09a153.75,153.75,0,0,0,20.78-14Zm-20.83.54-1,1.8h-1.44l2.9,7.58,2.22-7.92-1.38.13ZM30.51,155.63l4.34,3a12.78,12.78,0,0,1,.09,3l-4.57-3.05Zm84.75-.93-1.08,1.45-1.25-.13,2.44,7.51c.74-2.17,1.42-5.12,2.15-7.29l-1.16.06Zm-84.82,4.79,4.5,3a5.64,5.64,0,0,1-.26,2.46l-4.24-2.75Zm93.24.43L122.58,162l-1.45-.2,2.6,7.2,2.84-7.13-1.76.09ZM30.44,163l3.9,2.89c.06,0-.22,1.32-.16,2l-3.71-2.31Zm.1,3.57,3.63,2.52a15.63,15.63,0,0,0,.22,2.67l-3.95-2.58Zm-.06,3.64,4.2,3,.22,2.43-4.45-2.82Zm34.58,1c4,1.52,7.81,9.25,7.7,19.27-.08,7,2,16.88,2,16.77s-1.17.16-1.5-.1a65.46,65.46,0,0,1-2.26-15,81,81,0,0,0-.64-8.2c-.66-3-1.38-6.49-3.28-8.76-1.48-1.72-3.16-2-4.17-.09-.82,1.58.91,4.19,2.35,3.32.35-.2.56-.53.1-.52a1.8,1.8,0,0,1-1.55-2.86c1.67-1.75,4.58,2.15,3.23,4.3-.6.93-2.15,1.09-3.4.75a5.43,5.43,0,0,1-2.54-6.85,3.2,3.2,0,0,1,4-2.07Zm-4.88,1c.33,0,.1.63-.2,1.58-.71,2.28.63,5.82,2.48,6.53.56.38.53.53.16.74-1.21.69-3.41-1.37-4-3.66-.42-1.66-.32-3.62.47-4.45a2.18,2.18,0,0,1,1-.73Zm-29.75,1.34,4.49,3a8.15,8.15,0,0,1,0,2.9l-4.49-3.16Zm27.07,0c.33,0,.21.55.12,1.58a6,6,0,0,0,2.18,5.54c.7.61.89.79.59,1.11s-1.66-.15-2.62-1.17c-1.77-1.86-2.35-5.37-1-6.64a1.33,1.33,0,0,1,.71-.43Zm49.9.41c1.92-.08,3.53.68,3.71,3,.26,3.46-2.94,5.35-5.17,3.37-2-2,0-5.12,2.34-3.65,1.16.74-.23,2.43-1.17,1.56-.43-.39-.61-.15-.31.31.91,1.37,2.71.23,2.58-1-.25-2.38-3.15-2.35-4.24-1.42a25.7,25.7,0,0,0-3.79,4.52c-.8,1.19-1,1.16-.86-.31a7.32,7.32,0,0,1,6.89-6.43Zm-52.2.76c.3,0,.18.43.21,1.57A6.82,6.82,0,0,0,58.3,182c.52.58-.15,1-1.12.71-2.23-.69-4.5-5.52-2.61-7.59C54.83,174.84,55,174.69,55.2,174.68Zm-2.16,1c.31,0,.13.63.16,1.85a6.2,6.2,0,0,0,2.74,5.37c.62.51.69.45.45.74-.65.75-2.84-.31-3.78-1.85-1.11-1.83-1.28-4.59-.24-5.63C52.66,175.82,52.88,175.65,53,175.64Zm-2.15,1.24c.26,0,.11.46.15,1.57.1,2.69.7,4,2.39,5.26,1.06.78,1.32.55,1,.86-.57.54-2.12.08-3.29-.92-1.75-1.49-2.24-5.17-.82-6.43C50.57,177,50.75,176.88,50.89,176.88Zm-20.37.38,4.31,3-.12,2.55-4.29-2.93ZM105.89,182a2.56,2.56,0,0,1-2.21-3.09c.07-.48.35-.76.65-.13.26,1,.92,2.4,1.83,2.67C106.53,181.59,106.22,182.1,105.89,182Zm-37.74-3c2,5,1.94,10.52,2.27,15.71.44,6.9,1.65,11.55,2,12.33,0,0-1.93,0-2-.26,0,0-1.82-9.15-1.55-13.68a42.72,42.72,0,0,0-1.55-11.52c-.63-1.77-.66-.6.82-2.59Zm-37.66,2,4.15,2.74c-.06.94-.07,1.87-.05,2.81l-4.07-2.9Zm55.77-.23c0,.15.6.28,1.53.05a5.85,5.85,0,0,1,2.87,0c.85.24.94,0,.17-.38a3.92,3.92,0,0,0-1.86-.52C88.08,179.94,86.25,180.43,86.26,180.76Zm16.8-.11a7.31,7.31,0,0,0,.7.94c.53.63.68.63.44.88-.56.59-1.73-.26-1.86-1.35C102.22,180.33,102.62,179.83,103.06,180.65Zm-37.13.21c1.94,2.79,2.22,9.32,2.26,14a70.73,70.73,0,0,0,1.55,11.81,1.68,1.68,0,0,1-1.44,0c-.5-.66-.8-2.49-1.38-7.46-.15-1.28-.44-5.36-.51-8.65-.06-2.9-1.66-9.17-1.66-9.17A2.57,2.57,0,0,1,65.92,180.87Zm-2.16.7c1.77,4,2.05,7.92,2.13,12.71a88.44,88.44,0,0,0,1.45,12.18c-.6.06-1.22.11-1.47-.16a2.51,2.51,0,0,1-.36-1,87.23,87.23,0,0,1-1.22-11.78c-.35-5.59-.43-7-1.22-9.75-.45-1.58-.6-1.55-.27-1.85a1.68,1.68,0,0,1,1-.34Zm19.85.91c0,1.85.28,1.1.93.8.49,0,.88.23,1.79.56,1.15.43,1.05.57,1.86.17.5-.25.9-.33,1.14-.14a2.2,2.2,0,0,0,2.86-.29,2.65,2.65,0,0,1,1.58-.09c.66.06.48-.36.57-1.2s-.21-.81-1-.56a3.69,3.69,0,0,1-2.23.09,7.42,7.42,0,0,0-3.85-.05c-2,.32-2.13.12-2.59-.18a4,4,0,0,0-1.1-.61c-.2,0-.13.68,0,1.49Zm18-.85c.19-.1.28.17.55.52.45.59.58.87.2.92-1,.14-1.24,0-1.21-.58s.14-.69.45-.86Zm-39.89.88c1.46,1.48,1.83,9.81,2,11.6.53,9.71,1.44,11.11,1,11.84-.55,0-.75.2-1.11-.29-1.25-3.56-1.18-7.21-1.38-10.93a44.12,44.12,0,0,0-1.46-10c-.46-1.62-.45-1.65.37-2.09A1.6,1.6,0,0,1,61.68,182.51Zm-2,1.17a45.83,45.83,0,0,1,1.69,11.17,87.85,87.85,0,0,0,1.14,10.9,1.54,1.54,0,0,1-1.43-.47c-1.59-7.08-1.09-14-2.93-21.08a1.08,1.08,0,0,1,1.52-.53Zm-29.17.87,4.3,3.11.09,2.66-4.39-3.14Zm63.92-.33c-2.43,1-3.06,1.73-2.67,2.42s1.29.38,3.88-.71c1.93-.81,2.54-.46,2.93.77,0,1.82-1.76,2-2.75,1.78-.42,0-.36,0,.09.59,2,1.58,4.46-1.51,3.23-3.48C98.22,183.78,96.57,183.27,94.47,184.22ZM79.23,185c-2,1.59-1.29,4.45.38,4.87a1.66,1.66,0,0,0,1.43-.06c.25-.17.25-.44-.26-.53-1.55-.26-2.43-1.41-1.68-2.57s2.07-.91,4.66.21c2.24,1,3.22.67,3.48-.5.12-.51,0-1-1.1-1C83.15,185.25,81.17,183.41,79.23,185ZM106,189.33c-.13-.82-1.46,0-2.34,1.48s-1,1.64-1.13.15c-.26-2.22,2-4,3.45-4,1.72-.2,2.84.77,2.89,1.89a1.46,1.46,0,1,1-2.87.5ZM30.45,188,35,191.17a18,18,0,0,1,.06,2.6l-4.57-3Zm54.69,1.06a2.29,2.29,0,0,0,.57,4.11c1.46.29,1.56-.74.11-1a1.15,1.15,0,0,1-.67-1.63c.69-1.14,2-.4,2.72,0,1.65.79,2.51,1.08,3,.54.93-1,.1-2.71-1.12-2.1a1.47,1.47,0,0,1-1.28.15,5.35,5.35,0,0,0-3.35,0Zm-54.65,2.69,4.48,3.1-.14,2.74-4.21-3.12Zm.09,3.76,4.21,3a16.41,16.41,0,0,0,0,2.35l-4.26-2.78Zm74.52.58c3.38.33,2.26,4.25-.1,3.19-.63-.48-.82-.44-1.52,1.28-.89,2.2-1.11,2-1-.52S103.72,196.14,105.1,196.12Zm-26.62.6a.31.31,0,0,1,.18,0c.23.26-.46,1.28-1,1.88-.43.28-1.47-.48-1.22-.86A4.74,4.74,0,0,1,78.48,196.71Zm4.51,2-.6.09c-.91-2-2.81-1.58-3.39.32l-.83-.1C79,196.71,82,195.28,83,198.73Zm17,.47-1,.06c-.92-2.22-2.21-2.56-3.32-.36l-.79-.23C96.24,195.86,98.51,195.64,100,199.2Zm-5.11-2.54c.52,0,.46.21-.09,1s-.59.76-1.06.4C93,197.44,94.26,196.7,94.89,196.66Zm4.84.07a1.83,1.83,0,0,1,.35,0c1.05.26,1.54.77,1,1.41-.32.4-.63.56-.85.29C99.55,197.3,99.15,196.69,99.74,196.73Zm-15.91.7c.11.44-.24.75-.62.39a.83.83,0,0,1-.27-.59.66.66,0,0,1,.89.2Zm-53.28,1.51,4.33,3.14a18.81,18.81,0,0,1,.16,2.7l-4.46-3Zm63.16,1c2.5,1.73,5.42,1.7,7.25.19.41-.34.77-.35.77,0-.26,1.21-3.44,2.76-5.93,1.88a6.09,6.09,0,0,1-3.38-2.25C91.88,198.84,93,199.39,93.7,199.89Zm-1.06.84c3.65,3.18,6.55,2.29,8.75.69.32-.08.33.21.4.76.09.7-.49,1-2.07,1.53-3.05.92-6.64-.09-7.29-2.16C92.36,201.15,92.21,200.62,92.64,200.73Zm-62.11,1.9,4.39,3L34.78,208l-4.28-2.92Zm.07,3.56L34.74,209V211l-4-2.9Zm30.12.9c17.69,4,30.23,2.12,42.53-.07l10.9,21.58-65.69.09C52.75,221.68,56.32,214,60.72,207.1Z"/><path id="path3442-2-7-0" d="M62.37,20.47c1.89,3.28,3.39,6.68,5.09,10l.27.18.41.78,0,.38,1,1.63v.35l4.29,8c3.54-1.33,32.57-3.73,43.32.19l1.57-2.68h.38l2.76-4.89,0-.41.93-1.07.13-.49,3-4.81v-.78l3.81-6.41Zm65.74.92s-2,3.86-3,5.41c-.83-.66-3.23-.21-3.09,2.34-3.92-1.5-4.86,3.22-1.83,4.28-1.55,1.37-3-.18-4.22-1.23-1.15.29-3.55,1.14-4.9-1.37,0,0,.57.31,1.13.64,3.2,1,3.46-3.38,1.08-4.09a5.78,5.78,0,0,0-.86-.11c.8-3.36-4.34-4.53-4.44-.49a3.79,3.79,0,0,0-1.08,0c-2.73.5-2.1,4.56.68,4.37a3,3,0,0,1,.73,0c0,.65-3.42,1.89-5.85-.34-1.15.89-3,2-5.35-.21,1.56-.06,3.06-.51,3-2.3a2.46,2.46,0,0,0-2.54-2.26,2.75,2.75,0,0,0-2.29-2.64A2.48,2.48,0,0,0,93,26.05a2.36,2.36,0,0,0-2.23,2.61c.38,1.8,1.75,2,3.33,1.68-1.91,3.1-5,1.48-6,.49-1.14,1.08-3.13,2.53-5.58.54,1.31-.23,2.76-1,2.51-2.84a2.34,2.34,0,0,0-2.51-1.8,2.28,2.28,0,0,0-2.41-2.37c-1.85.18-1.74,2.53-1.71,2.55a2.28,2.28,0,0,0-2.2,2.84c.53,1.41,1.64,1.84,3.67,1.46-2.38,2.25-3.88,1.38-5.18.9a3.07,3.07,0,0,1-4.25.53c3.51.17,3-6.1-1.21-3.83-3-3.52-2.91-2-5.57-7.13ZM95.36,27.58a1,1,0,0,1,.53.12c.55.28.65.78.32,1.5a1.75,1.75,0,0,0-.26.82c3.87,7.2,12.4,4,13.21.64A1.06,1.06,0,0,0,109,30a1,1,0,0,1,.14-1.38,1.06,1.06,0,0,1,1.68,1.23,1.33,1.33,0,0,0-.18,1c2.19,5,6.55,5.4,10.21,3.41-1.69,3-8.22,4.92-11-2.42-4.38,6-11.33,5.87-14.49-.88C92.56,37.82,84,38,80.88,32.25c-2.84,6.56-9.42,5.07-11.28,1C75.71,37.68,79.74,33,80.46,31a2.58,2.58,0,0,0-.34-.42c-.78-.78-.76-1.69,0-2a1.11,1.11,0,0,1,1.48,1.53c-.15.28-.28.34-.18.58,1.9,4.47,11.27,5.77,13.17-.5a1.38,1.38,0,0,0-.13-1A1.07,1.07,0,0,1,95.36,27.58ZM68,30.11c1.48.08,1.06,1.37.77,1.46Zm54.86.8s-.91,1.66-.91,1.66C121.47,31.79,121.6,30.81,122.87,30.91Zm-5,8.27a12,12,0,0,1-1.26,2.28c-17.5-4.52-41.91-.59-42.51-.16l-1.08-2C88.38,36.17,103.67,36.83,117.88,39.18ZM88.32,70.48c-1.69,6.58-5.78,7.25-10.72,8-6.12,1-10.11-1.26-12-4.7,0,0-8.75,3.34-11.94,5.28C60.32,82.17,69.1,89,74.08,96.69c1.78,2.35,1.69,1.82,1.68,7,0,11.2,0,15.36,0,15.36,2.74.41,2.89,2.32,2.74,4.45,2.2-1,4.31.22,4.3,2.31,0,3.85-3.76,2.8-4.54,2.38,1.22,3.39-.21,4.8-1.67,5-1.8.21-3.87-.67-3.26-4.55a3.68,3.68,0,0,1-4.79-3l-.1-4c4.85-9.22-1.24-16.71-7-19.18,0,0,1.62-3.38,3.71-4.33.21-.07-1.27-2.26-3.76-1.78-1.15,0-.88,0-2-1.4-2.13-2.8-3.14-3-5.22,0-.91,1.32-1.13,1.35-2.22,1.38A4.87,4.87,0,0,0,48.65,98c-.09.18.38.36,1,1.09.89,1.05,2.27,2.5,2.05,4C47,105,39.18,113.51,47.39,124.38l-5.94.08-.28-38.7L37,88.08l.18,30.31L36,118c.09-9.67-.05-19.33-.36-29l-10.9,8,.49,45.45,1.16.25c.86,6.19,13,1.86,13.72,2.4l.15,25.25-.53,1.25L49.44,177l8.87-4.64a8.43,8.43,0,0,0,1.65-.45c3.68-2,6.42-1.52,8.42,1.35,1.23,1.77,1.44,2,1.44,2,.75-5.11,5.23-7,9.59-5.66,3.2,1,7.57,4.2,8.91,8.13a3.82,3.82,0,0,0,.48.86l.18.08c0-.1-.21-.59-.29-.83-4.49-10.41-17.14-12-19.09-3.5l-1.79-2.53L77.23,166l12.87,8.55s-.6,3-.67,4.3l.22.1a11.63,11.63,0,0,1,1.29-4.7A4.69,4.69,0,0,1,92,172.89c.77-.45,1.48-.4,2.26-1.14l-1.88-1.42,0-4.55,3.78,5.34c1.19-.28,5.81-1.67,8.56-.13.31.1,4.33-1.06,6.84,4.6l12.06-5.06s.77-.44.78-.55c-12-4.48-24.17-20.34-23-20.6,0,0,0-1.63.06-5.62.1-4.45,0-9,.12-13.46-4.09-1.32-3.08-4.65-3.08-4.65-2.46.55-2.85.06-3.48-.37l-.42-4.21a3.93,3.93,0,0,1,4.19-1,4.12,4.12,0,0,1-.08-3.34,3,3,0,0,1,3.92-1.1c1.86,1.28,1.27,4,1,4.34a3.58,3.58,0,0,1,4.88,2,107,107,0,0,1,1.92-17.09,97.48,97.48,0,0,1,9.82-25.82c.7-1.24,1.6-2.48,2.32-3.63a16.67,16.67,0,0,0,1-1.7,10.09,10.09,0,0,1-1.89.78,11.45,11.45,0,0,0-2.61.91,14.35,14.35,0,0,1-3.46,2c-3.86,1.52-6.46-.75-8.06-4.2-.89,4.39-4.88,8.1-10.76,5.8-3.32-1.78-4.37-2.92-7.47-7.56A4.6,4.6,0,0,0,88.32,70.48Zm.13.72c2.2,4.39,5.49,7.49,8.69,8.74a8,8,0,0,0,10.54-5.19l1.1,1.88-8.65,6.2-13-8.37A22.87,22.87,0,0,0,88.45,71.19Zm39.26.3-3.87,2.3s-2.57,4.19-3.44,5.77a89.2,89.2,0,0,0-9.68,25.51A118.14,118.14,0,0,0,109,116.87a70.51,70.51,0,0,0-.27,10.38l.3.33s-.47.84-.81,1.55a9.54,9.54,0,0,0-1.09,5.25,13.85,13.85,0,0,0,7.59,12.06l.57.26a11.63,11.63,0,0,1-2.11,3.48c-.91,1-1.1,1-.78,1.48.45.66,1.89,1.23,3.67,1.2.63,0,.63,0,1.8,1.27,2.28,2.51,3,2.46,5-.39a2,2,0,0,1,1.87-1.07c1.33,0,3.75-1.11,3.74-1.62-1.63-.73-3.53-4.5-3.23-4.54,8.94-4.77,10.83-14.66,4.3-21.94l6.23-.1.23,39.46c1.22-.82,4-2.58,4-2.58L140,130.66a15,15,0,0,0,1.7.53l.25,29.24s8-5.7,11.82-8.67L153.48,107h-.91l.15,44.72-10.58,7.8-.07-27.79,1.15-.17c3.1-.44,4.53-4.42,2.48-7-.73-.92-.21-.86,1.34-1.16,2.75-.25,4.27-2.34,3.47-3.84-.34-.64.1-.57.39-1.18a3,3,0,0,0,.07-1.55,1.94,1.94,0,0,1,.3-1.29,2.07,2.07,0,0,0-.4-1.9,2.59,2.59,0,0,1-.31-1.68c0-.91-.34-1-1.3-1.92-.72-.66-.14-.81.92-1.36,1.67-.87,1.78-3.93-.44-5.24-1.19-.7-3.35-.64-8,.1-1.77.28-3.86.47-3.86.47s0-17.49-.14-26.51Zm0,.62s9.5,5.61,9.43,5.77c-3.19,4.41-15.09,22-15.18,43.24-8.73-1.11-12.3,5.78-12.72,5.76A87.13,87.13,0,0,1,123.9,74.35Zm-6,3.42,0,.64L119.8,79l0-2.84Zm-2.91,1,.07,4.57-3.86,3-.23-4.77Zm-35.75,1L85,79,85,83.49,82,78Zm54.27,1.53,0,3.28c-7.61,10.83-11.6,23.2-12.82,38.86l-1.85-.06A74.55,74.55,0,0,1,137.32,79.1Zm-51.51.34,4.69,3.09-.2,5.18L86,85l-.4-1.06Zm28.4.22,0,4.81-3.62,2.72-.17-4.78ZM70.28,80.92c.54,0,1,.4,1.07,1.15.4,3.2,2.81,2.28,3.38,3.24.22.33-.3.61-1.95.48-3-.23-5.23-2.7-3.68-4.33A1.77,1.77,0,0,1,70.28,80.92ZM91.2,83l4,2.58v5.31l-3.93-2.42Zm18.28,0,.31,4.7-4.39,2.94L105.25,86Zm8.35,0-2.52,5.41L100.62,99.1l-12.19-8-2.26-5.22,14.22,9.37ZM78.21,85.16c3.9,0,6.9,4.13,7.92,7.8.75,2.42.86,3.3.94,7.14s.2,4.6.93,5.15c.45.34.58.25.63-.44.13-1.54,2-.59,2,1,0,1.8-1.93,2.38-3.38,1-.77-.74-.78-.73-1,.72-.16,1-1.28,7,1.58,8.56.54.05.67-.38.27-.89-.8-1,.8-2.19,2.11-1.54,1.58.78,1.42,3.35-.27,4.27-1.93,1-4.43-.14-5.6-2.66-.86-1.85-.85-4.41,0-8.22a25,25,0,0,0,.67-4.22,10.5,10.5,0,0,1,.11-1.07c.09-.41-.11-.43-.8-.08-1.89,1-4,.28-4.46-1.48-.61-2.1,1.71-4.27,3.15-2.94.54.5.48,1-.17,1.33-1.13.56-.74,2,.45,1.74,3.95-1.19.34-12.37-4.11-13.14-2.94-.51-5.25,2.87-3.12,4.67.83.71,1.68.33,1.5-.67-.25-1.4,1.58-1.25,2.26.19,1.1,2.33-1.75,4.22-4.41,2.93C70.61,91.45,73.88,85.25,78.21,85.16Zm17.7.89,3.94,2.67,0,5.19L96,91.57Zm8.68.45,0,4.76-3.8,2.79V89Zm10.24,3.12-1.94,5.47-12.27,8.47-10.12-6.4-1.74-5.06,11.92,7.8Zm-79.6.4v27.67c-4,.17-6.26,4.14-3.28,7.89l-1.12.15c-2.69.37-4.49,1.81-4.13,3.55a2.11,2.11,0,0,1-.15,1.34,2.2,2.2,0,0,0,.15,1.88,1,1,0,0,1,.07,1,2,2,0,0,0,.13,2c.44.44.32.79.26,1.49-.07,1,.11,1.39.72,1.77.8.5,1.09,1.31.19,1.24-.45,0-2,1.51-2,1.51l-.15-44.4Zm21.55,3.55c.71,0,1.44.9,2.5,2.42.63,1.09.65.94,2.1.88a4.13,4.13,0,0,1,2.78,1c.15.17-.24.22-1.18,1.18a9.39,9.39,0,0,0-1.76,2.51.56.56,0,0,1-1,.07c-.19-.3.3-1.26,1.22-2.4,1.3-1.27,1-1.4-.86-1.2-1.33.14-1.47.07-2-.74-1.51-3-2.31-2.92-3.75.09-.39.84-.24.79-1.94.66-1.34-.1-1.68.24-.92,1a6,6,0,0,1,1.58,3.27l-.91.08a9.28,9.28,0,0,1-.4-.85A8.85,8.85,0,0,0,50.61,99c-1-1.12-.46-1.73,1.83-2,1.28-.14,1.3-.16,1.89-1C55.36,94.47,56.05,93.57,56.76,93.57Zm55.64,2.75L111.08,101l-10.46,7.41-8.51-5.73L91,98.28l9.78,6.25Zm-36.07,3.74a72.11,72.11,0,0,1,4.12,9.8c1,3.35,2.28,13.06,1.93,13.65-.74-1-3.2-.8-3.23-.79a3.75,3.75,0,0,0-2.8-3.88Zm34.42,2.17-1,4.65-8.91,6.5-7.35-5.07-1-4.49,8.14,5.49ZM59,102.5l1.16.41.22,8.39,8.91,1.5.2,1.44-10.32-1.68C59,109,59,102.5,59,102.5Zm-4.52.25.25,9.76c-.1,0-7.43,1-10.24,1.77l.16-1.34s5.1-1.12,8.79-1.55c0-2.73,0-5.6,0-8.38Zm82.92,1.8a16.06,16.06,0,0,0,3.81-.35c6.69-1.18,8.5-.7,9.36,1.38.93,3.23-2.57,3.31-3.2,1.26-.4-1.33-1.83-1-6.63.11-4.1,1-6.7.2-6.65-2.15S136.81,102.17,137.35,104.54Zm-55-1.77a1.51,1.51,0,1,1-1.47,1.54A1.51,1.51,0,0,1,82.38,102.78ZM60.64,103l1.06.32s.16,6.37.19,6.38c2.27.51,7,1.41,7,1.41l.25,1.26c-2-.47-8.37-1.53-8.37-1.53C60.62,108.12,60.64,103,60.64,103Zm-7.71.12s0,5.08-.08,7.81c0,0-5.4.87-8.17,1.45l.21-1c2.19-.5,4.56-1,7-1.51,0-2,0-6.38,0-6.38Zm3.88,1.09a1.21,1.21,0,0,1,0,2.43,1.22,1.22,0,0,1,0-2.43Zm90.51,3.17a1.78,1.78,0,0,0,2.09,1c-.18.05-1,.57-1,.74s-.36,1.48.23,1.54c2.22.22,1.1,2.54,1.36,2.9.6.69,1,1.13.63,2s-.89.74-.48,1.39c.88,1.34-.34,1.62-.23,2.53a3.74,3.74,0,0,1,.07,1.73c-.61,1.29-2.75,2-5.14,2.13-.34,0-.08-.54-.24-.9-.59-.38-.27-1-.07-1.43s.2-.55-.17-.83c-1-.64-1-.93-.88-1.39.22-1.36,0-1.5-.39-1.7s-.45-.83-.22-1.57c.16-.51,0-.64-.2-1.1a1.24,1.24,0,0,1-.19-.59c.07-.7-.55-.7-1.43,0a33.25,33.25,0,0,0-1.46,4.06c-.36.82-.42,1.68,0,3.58.82,2.9.21,3.38-3,2.76-2.43-.6-3.15-3.22-2.47-6.42a4.36,4.36,0,0,0,0-1.42A6.67,6.67,0,0,1,136,110.6c2.54-2.42,3.8-2.78,9.07-2.45a7.9,7.9,0,0,1,2.22.28,5.44,5.44,0,0,1,.07-1Zm-37.9.66-.61,4.49-4.94,3.52c-2.33-1.85-4.12-1.24-5.76.75-1.3-.66-3.89-2.47-3.89-2.47l-.66-5.1,7.18,5Zm-52.51,1.07a1.21,1.21,0,1,1-1.19,1.24A1.21,1.21,0,0,1,56.92,109.16Zm51.68,4.6-.27,4.33-1.76,1.33-1.77-.18-.42-2.68Zm-51.71,0a1.21,1.21,0,0,1,0,2.43,1.22,1.22,0,0,1,0-2.43Zm4.84.14a1.21,1.21,0,1,1-1.19,1.23A1.2,1.2,0,0,1,61.74,113.93Zm-9.63.23a1.22,1.22,0,1,1-1.19,1.23A1.21,1.21,0,0,1,52.11,114.16Zm89.47.2c.34,0,.84.48.6,1.24s-.1,1.16.45,1.87.38.68.31,1.06c-.11,2.5,1.49,1.42.8,3.23a3.23,3.23,0,0,0,.12,1.42c-.16-.43-3.09-.39-3.34,0-.42-.06-.95-2.84-.52-3.21a3.75,3.75,0,0,1,.52.75c.39.67.48.65.36-.13C140.37,117.53,140.66,114.38,141.57,114.36Zm-75,.22a1.21,1.21,0,1,1-1.18,1.23A1.21,1.21,0,0,1,66.59,114.57Zm-19.49.22A1.21,1.21,0,1,1,45.92,116,1.21,1.21,0,0,1,47.11,114.8Zm47.18.35,3.61,2.36a7.21,7.21,0,0,0,.21,2.17,4.28,4.28,0,0,0-3.54,1.13Zm-25.68,3.77-.28,1.28a44.8,44.8,0,0,0-22.63.08l-.59-1.35A39.57,39.57,0,0,1,68.61,118.92ZM35,118.84a3.48,3.48,0,0,1,1.58,6.66,3.57,3.57,0,0,1-4.78-4.66A3.46,3.46,0,0,1,35,118.84Zm73.21.38,0,1.29-.9-.76Zm-18.82.06A2.39,2.39,0,1,1,87,121.7,2.38,2.38,0,0,1,89.36,119.28ZM35,119.35a1.92,1.92,0,0,0-1.09.36c-.63.59,0,.6.83.76,1.48.27,1.88,1.56,1.75,2.94s.3,1.24.63.77A3,3,0,0,0,35,119.35Zm68.53.63-.07,0S103.54,120,103.57,120Zm-46.66.75c1.77,0,2,2.9.39,6.17-.47,1-.71.86-1.22-.62C54.8,122.61,55.08,120.77,56.9,120.74Zm4.09.08a1.14,1.14,0,0,1,.94.43c1,1.09.22,2.86-2.31,5.58-.62.66-.93.92-1.16.92-.63,0-.63-.09.09-2.46.32-1,.63-2.19.7-2.54A2.18,2.18,0,0,1,61,120.82Zm-6.4,2.62c.17.81.48,1.94.67,2.51a4.3,4.3,0,0,1,.29,1.2c-.16.44-1.28-.16-2.09-1.1-1.62-1.9-2.27-3.55-1.93-4.44a1.65,1.65,0,0,1,2.33-.4A4.58,4.58,0,0,1,54.6,123.44Zm11.18-1.89c1.71,1-.26,3.34-4.09,5.27-1.64.83-1.52.45-.28-1.17a17.37,17.37,0,0,0,1.42-2.26C63.52,122,64.2,120.65,65.77,121.55Zm-17.07,0c.54,0,1.1.58,2.13,2.09a23.67,23.67,0,0,0,1.66,2.12,3.58,3.58,0,0,1,.79,1.1c-.18,1.05-5.51-2.29-5.89-3.69A1.38,1.38,0,0,1,48.71,121.56ZM125,124.62c1,2,1,3.24.25,3.69a1.85,1.85,0,0,1-2.61-1.76,14.81,14.81,0,0,0-.94-3.23c-.37-.89-.42-1.44-.12-1.48A6.6,6.6,0,0,1,125,124.62Zm-6.38-1.51a17.4,17.4,0,0,0-.76,3.44,2.71,2.71,0,0,1-.27.93c-1,2-3.29.37-2.44-1.75.77-1.91,2.72-3.9,3.49-4C119.2,121.71,118.71,122.94,118.66,123.1Zm1.56-1.1c.39,0,.71.81,1.21,2.24.67,1.93.64,3.44-.08,4.08-1.55,1.38-3.18-.62-2.56-3.13C119.28,123.19,119.78,122.05,120.21,122Zm-52.13.35C70,151.1,55.42,173.2,54.38,173.81l-5,2.74-8.71-4.79a75.75,75.75,0,0,0,14.83-43.44A13.48,13.48,0,0,0,68.08,122.36Zm47.85.09c.61-.17.18.37-.42,1.25s-1.48,3.49-2.15,3.9c-1.49.72-3.17-.65-2.27-1.85A12,12,0,0,1,115.93,122.45Zm8.86.19a3.77,3.77,0,0,1,1.3.47c3.1,1.53,4.63,3.54,3.3,4.51-.93.68-1.93.15-2.86-1.63a16.22,16.22,0,0,0-1.28-2C124.56,123.09,124.4,122.65,124.79,122.65Zm17.43,1a3.64,3.64,0,1,1-3.56,3.69A3.62,3.62,0,0,1,142.22,123.67Zm-1.1.95c-2.34,1-1.64,4.76.38,5.3.85.24,1.89-.12,1.46-.53-2.67-.85-2.69-2.83-1.61-4.29C141.53,124.87,141.3,124.54,141.12,124.62Zm-97.66,5.11c-.09,2.1.36,4.54-.63,6.81-1.51,3.5-6.34,5.11-8.93,4.79a2.27,2.27,0,0,0-1.7-.21,1.31,1.31,0,0,1-1.06,0c-.33-.16-.65,0-1-.07s-1-.84-.91-1.27c.12-.61.07-1.06-.63-1.26-1-.28-1.18-.81-.89-2.37.06-.34.14-.49-.08-.64a1.74,1.74,0,0,1-.52-2.34c.31-.55.55-.93,0-1.37-.22-.5-.18-.69.29-1.33s.59-.68.27-1.19c-.72-1.16.1-2,1.07-2.5a13.55,13.55,0,0,1,3.83-1c.51,0,.49.49.8.92.45.71-.19,1.74.18,2.11A1.2,1.2,0,0,1,34.3,130a2.69,2.69,0,0,0,.31,1.74,2.15,2.15,0,0,1,.13,1.87c-.24.51-.22.48.1.78a3,3,0,0,1,.36,1.76l1.34-.12a13.16,13.16,0,0,1,2-5.06c-.08-1.78-.76-3.42-.7-5.77C41.19,124,43.59,126.82,43.46,129.73Zm51.45-4a10.22,10.22,0,0,0,2.94,1,4.21,4.21,0,0,0,3.09,4.12c0,3.2,0,18,0,18-3.45-5.83-5.58-13.35-6-23.06Zm-57.66.52a9.22,9.22,0,0,1,.25,1.25c.21,1.68,0,1.91-.46.76-.52-1.34-.54-.3,0,2.78a2.07,2.07,0,0,1,0,1.42c-.11.32-.32,1-.47,1.62-.47,1.69-.74,2.18-1.22.83-.24-.69-.45-.79-.27-1.33a1.87,1.87,0,0,0-.27-1.83,1.85,1.85,0,0,1-.26-1c.13-1.56-.55-1.58-.69-2,0-.61-.26-2.09.16-2.05a6.75,6.75,0,0,0,2.17-.15C36.45,126.43,37.26,126.25,37.26,126.25Zm51.38.19a2.34,2.34,0,1,1-2.29,2.38A2.33,2.33,0,0,1,88.64,126.44Zm-35.79,1.42,1.76.34c.39.13.11,24.58-14,42.22l-.12-4.09C47.22,156.56,52,144.58,52.85,127.87Zm29.79.51.32,5.84c-1-.85-3.5-2.44-3.48-2.47v-2.16S81.64,129.76,82.63,128.38Zm-13.54.08a5.44,5.44,0,0,1,1.16.89l-1.15.78Zm40.24.29a43.51,43.51,0,0,0,22.44.54l.51,1.43a41,41,0,0,1-23.89-.48Zm-36.73,1.09.41,2.52-4.28,2.8.21-3.82,2.23-1.46Zm37.89,2.1a1.27,1.27,0,1,1-1.23,1.28A1.26,1.26,0,0,1,110.5,131.95Zm19.49.1a1.27,1.27,0,1,1-1.23,1.28A1.26,1.26,0,0,1,130,132.05ZM93.49,136c.56,2,.44,6.5-.28,9.56a40.8,40.8,0,0,0-.35,4.18c-.13.17,4.3-3.7,5.72,1.38A2.46,2.46,0,0,1,95.74,154c-.26-.09-.18-1,.07-1.47.74-1.52-1.37-2.31-2.57-1-2.77,3.11.08,11,4.43,11.74,3.61.63,6.5-3,4.1-5.15-1.05-.95-2.74.36-2,1.56s-.69,1.8-1.84.61c-2-2.08.25-5.2,3.27-4.48,4.83,1.11,3.84,8.73-1.23,9.16a7.84,7.84,0,0,1-8.12-4.4c-1.54-2.9-1.65-5.22-.95-10.31.42-3,.07-5.57-.76-5.55a.82.82,0,0,0-.88.77c-.15,1.11-.27,1.31-1,.91a2,2,0,0,1,.07-3.27c1.46-1.14,3.36.64,3.28.95a5.47,5.47,0,0,0,.38-1.64c.64-4.22-.78-8.67-2.53-8-.38.16-.34.33.17.62,1.17.66.14,2.36-1.33,2.19-2.08-.24-2.55-3.17-.72-4.46C90.52,131.31,92.86,133.77,93.49,136Zm-14.18-3.51s3.68,2.27,3.88,2.85c.13.37.28,3.63.28,3.63l-6.39-4-9.17,5.72c.15-1.25.81-4.49.81-4.49L73.59,133C73.61,133.21,77,135.44,79.31,132.47Zm45.78.22a1.27,1.27,0,1,1-1.23,1.29A1.26,1.26,0,0,1,125.09,132.68Zm-9.76,0A1.26,1.26,0,1,1,114.1,134,1.26,1.26,0,0,1,115.33,132.7Zm4.91.29a1.27,1.27,0,1,1-1.23,1.28A1.26,1.26,0,0,1,120.24,133ZM108,134.78c3.32.7,6.65,1.41,9.83,1.76l.13,9.86-.93-.05-.13-8.81a48,48,0,0,1-8.7-1.6Zm24.69.32-.17,1.16s-5.74,1-8.74,1.39c0,2,0,8.62,0,8.62l-1.15.21v-10C125.93,136.07,129.34,135.69,132.64,135.1Zm-55.58.56,6.76,4.51.8,4.78-7.88-5.29s-7.15,4.86-9.82,6.66l.82-4.51Zm31.22.89a67.15,67.15,0,0,0,8.17,1.42l.12,7.93-1.25-.34-.1-6.44a54.32,54.32,0,0,1-6.51-1.07Zm24.08.24-.23,1.08s-4.36.66-6.61,1.07c-.2,0-.13,7-.13,7l-1.08.17-.13-8.1Zm-12.2.89a1.27,1.27,0,1,1-1.24,1.29A1.26,1.26,0,0,1,120.15,137.67ZM77,140.54l8,5.45a32.61,32.61,0,0,1,1.13,4.41l-9.2-6-11.51,7.7,1.33-4.76Zm-48.46.17a1.33,1.33,0,0,1,1.19,1.06c.35,1,1,1.34,2.7,1.31,3.34-.18,6.85-1.77,10-.58,1.53.57,2.08,2.85.79,3.45s-2,.24-2.47-.87c-.45-.47-1-.4-4,.12-1.32.22-2.88.41-4.18.52-3.34.27-5.19-.79-5.6-2.8A1.82,1.82,0,0,1,28.5,140.7Zm91.59,1.84a1.27,1.27,0,1,1-1.24,1.28A1.26,1.26,0,0,1,120.08,142.55Zm-24.49,1.54a1.65,1.65,0,1,1-1.6,1.67A1.64,1.64,0,0,1,95.59,144.09ZM77,145.24l9.63,6.49,1.68,4.88-11.21-7.35-13.71,9,1.64-5Zm47.5,1.53a12.69,12.69,0,0,0,2.82,4.11s-.64,1.22-2.91,1.15c-1.24,0-1.31.16-1.73,1a9.13,9.13,0,0,1-1.71,2.13c-.8.62-2.29-.31-3.52-2.19-.45-.69-.63-.85-2-.82-2.08,0-2.83-.54-1.75-1.48.94-1.16,1.62-2.43,2.46-3.64l.93.11a7.83,7.83,0,0,1-1.8,3.42c-.55.62.22.85,1.55.56.85-.26,1.06-.16,1.69,1.15,1.31,2.49,2,2.37,3.54-.15.54-1.13.52-1.24,2-.92,1.6.16,2.08,0,1.42-.6a9.33,9.33,0,0,1-2.06-3.82ZM77,150.1s11.9,7.87,11.87,7.7l2.38,5.67-14-9.37-17.06,11.2,2.55-5.61Zm.46,5.16L81.63,158v5l-4.24-2.87Zm-1.06.14.08,4.89-3.72,2.24L72.57,158Zm-4.72,3.15,0,.19.09,0h0l.13,4.41-4.28,3,0-5Zm11,.05,3.9,2.63.16,5.25-4.23-2.8Zm4.81,3.2,3.91,2.74.14,5.24-4-2.71Zm-20.7,0,0,4.84-3.89,2.74-.18-4.94Zm41.16,6.25c-.77.81-1.06.71-1.72-.63a3.24,3.24,0,0,0-3.21-2c-1.88,0-.65-1.21,1.34-1.36C107.8,163.93,109.55,166.26,107.93,168.09ZM61.8,165.25l.1,4.86-3.87,2-.12-2.3,2-3.52Zm-5,6.49.13.88-.72.28Zm46.61,35c-16.3,3.52-31.92,2.28-43.14.18l-5.12,8.84-.35,0L53.48,218l.14.26s-4.26,8.25-6,10.85c20.95-.2,66.92-.31,66.92-.31l-2.8-5.69.15-.15-2.77-5.94-.9-1a21.22,21.22,0,0,1-1-2.22c-.38-1.06-2-4-2-4l-.23,0ZM60.87,208c.22.17,20.88,4.1,42.29.07l1.17,2c-18.74,4.35-45.86.2-44.79-.21Zm.36,3.89a6.29,6.29,0,0,1,5.09,2.66,15.23,15.23,0,0,1,1.08,2.15,11.25,11.25,0,0,1,1.79-2.27,7.8,7.8,0,0,1,5.6-2c2.32.08,4.87,1.35,7.17,5,.58-2.11,8.2-9.29,14.47-.34.72-2.38,4.07-7.13,9.51-3.81.37.8.75,1.68.75,1.68-3.21-2.27-8.5-.75-9.75,2.79a1.49,1.49,0,0,0,.2,1.07c1.65,2.38-2.65,2.33-1.37.4a1.16,1.16,0,0,0-.12-1.37,9,9,0,0,0-6.27-3.38A8.62,8.62,0,0,0,83,217.81a1.54,1.54,0,0,0-.12,1.66,1,1,0,0,1-.23,1.25,1,1,0,0,1-1.57-1.2c.28-.48.24-1.06-.34-1.88a8.4,8.4,0,0,0-6.18-3.31c-3.35.08-6.74,2.51-6.52,4.52.09.88-.14,1.21-.86,1.11-.87-.12-1-1-.35-1.62a1.21,1.21,0,0,0,0-1.12c-3.54-4.83-8.84-3.42-10-2.34a5.41,5.41,0,0,1,4.49-3Zm-3.15,3.35A4.27,4.27,0,0,1,61.28,217c.33-.34,3.33-1.79,4.79.28-3.82-.29-3.87,3.8-1,4.2-1.29,4,4.49,4.19,4.12.48,4.32.64,3.78-4.88-.28-4.29,2.13-1.56,3.58-1.06,6.13.73.86-1.13,4.37-2.19,5.23-.21-4-.25-3.33,4.45-.33,4.49-.89,3.26,5,4.45,4.1-.41,3.75.26,3.21-4.85-.39-4.42.27-.93,3.91-1.33,5.52.44,1.48-1.36,3.11-2.3,6.07-.35-4-.68-4.08,4.6-.34,4.28-.35,3.49,4.94,3.55,4.05-.48,4-1.1,1.81-5.44-1.14-4.25,1.32-1.58,3.55-.83,4.44-.51,2.74-3.16,5.12-.52,5.12-.52-4.77-.5-3.73,6.35.92,3.87a2.54,2.54,0,0,0,2.49,2.83L113,227.9l-63.87.42,3.52-6.26A2.32,2.32,0,0,0,55.48,220c4.2,1.34,4.48-3.59,1.34-4.37A2.11,2.11,0,0,1,58.07,215.22ZM55.58,217c.42.68.07,1.12-.65,1.14A8.19,8.19,0,0,0,55.58,217Zm52.55.87.41.88C108.09,218.57,108,218.38,108.13,217.88Z"/></g></g></g></g></g><path id="path147-0-8-1-3-6-2-4-7" d="M130.62,223.08c7.82-.17,11.33-9,5.53-15.81-.84-1-.93-1.57.61-.61,3.9,2.61,11.38.89,11.76-7.08.47-9.82-13.25-12.65-15.83-2.21-.14,1.1-1,1.08-.82-.49a32.51,32.51,0,0,1,3.38-12.08H126a32.49,32.49,0,0,1,3.38,12.08c.22,1.56-.68,1.59-.82.49-2.58-10.44-16.3-7.61-15.83,2.21.38,8,7.86,9.68,11.76,7.08,1.54-1,1.45-.39.61.61-5.79,6.84-2.29,15.64,5.53,15.81h0Z"/><path id="path147-0-8-1-0-3-83-7-5-7" d="M48.17,26.57c7.82.17,11.33,9,5.53,15.81-.84,1-.93,1.57.61.61,3.9-2.61,11.38-.89,11.76,7.08.47,9.82-13.25,12.65-15.83,2.21-.14-1.1-1-1.08-.82.49a32.49,32.49,0,0,0,3.38,12.08h-9.3A32.52,32.52,0,0,0,46.9,52.77c.22-1.56-.68-1.59-.82-.49-2.58,10.44-16.3,7.61-15.83-2.21.38-8,7.86-9.69,11.76-7.08,1.54,1,1.45.39.61-.61-5.79-6.84-2.29-15.64,5.53-15.81h0Z"/></g></g></g></svg>