<svg xmlns="http://www.w3.org/2000/svg" viewBox="0 0 178.79 249.65"><defs><style>.cls-1{fill:#fff;stroke:#000;stroke-width:1px;}.cls-2{fill:#131f67;}.cls-3{fill:#e2cf00;}.cls-4{fill:#d40000;}.cls-5{fill:#100f08;}</style></defs><title>KD</title><g id="Layer_2" data-name="Layer 2"><g id="svg11376"><g id="KD"><rect id="rect7234-2" class="cls-1" x="0.5" y="0.5" width="177.79" height="248.65" rx="8.5" ry="8.5"/><path id="path6351-0" class="cls-2" d="M24.39,19.9c.07,63.29,0,140.91,0,209.85h130V19.9Zm38.05,1.19c22.44.61,45,0,67.62.13,0,0-8.21,14.41-10.7,18.94-.54,1-.6,1.7-.31,2.12a2.09,2.09,0,0,1-.09,2.35,1.24,1.24,0,0,0-.33.6c0,.16.13.33.24.62.4,1.38-.64,2.34-1.72,2.78a10.43,10.43,0,0,1-3.55.44c-7.5-.36-22.21-6.74-28.28-7.24-4.21-1.18-9.64-.77-14.12-.51-.85.05-.7-1.93-.7-1.93C69.8,32.82,65.19,27.11,62.44,21.09Zm68.84.72h21.46v3.35l-9.08,9.21c-.84.86-1.5,1.58-1.5,1.58l-.05,8.31C136,41,134.81,37,133.7,32.71c-10.17,7.55-10.64,24.08.46,32.59.09-3.7,2.89-11,7.85-11.5l.07,28.79-6.1-6-13.26.17c2.18-3.57,2.23-6.41.82-9.75-2.38-5.47-6.06-18-5.78-17.91a.6.6,0,0,1,.41-.34,2,2,0,0,0,1.48-2.6c-.06-.41-.06-.32.22-.85a4,4,0,0,0-.21-3.87ZM61,21.81l8,14.53a5.25,5.25,0,0,0-.06,1.05A3.76,3.76,0,0,0,69.42,39a3.22,3.22,0,0,1,.41,1.25c.08.72.08.72,1.12,1.67.22.2.26.32.18.53-.35.88-.14,2.68.54,4.83.86,2.71,1.09,2.68-.52,6.31-.34.76-.74,1.77-1.18,2.7-2,4.11-2.29,5.22,1.12,7.41a1.9,1.9,0,0,1,1,2.38c-.19,1-.23,1.58.23,2.13.3.35.57.41.5.68a4.91,4.91,0,0,0-.2,1.66c.2,1.82-1.89,4.5-3.79,5.44-.38.27-.49-.06-.71-.44-2-3.48-6.89-2.07-7.21,2.08-.09,1.1-.05,1.57-.33,1.81a4.23,4.23,0,0,1-.38.24s-7.35,4.81-12,7.29a5.12,5.12,0,0,1-.79.47.59.59,0,0,1-.59-.15c-1.73-3.31-.77-7.21-.62-8.59,0-.49-.45-.58-1.08-.59a3.66,3.66,0,0,0-2.93,2.08c-.28.86-.46,1.42-.72,1.41s-.38-.35-1-1.59a17.73,17.73,0,0,0-2.78-4.41c-1-1.19-1.84-1.35-2.81-.46-.68.62-.66.08-1.23-.23-1-.68-2.49-.07-2.53.89,0,.81,0,1.41-.85,1.46s-1.29,1.23-1,2.9c.13.88.16,1-.11,1.34a2.83,2.83,0,0,0-.51,3.25c1.37,4.19,3.35,7,5.21,10.81,0,0-4.6,2.7-7.4,4.27v-78ZM152.89,26,153,93.67l-10.15-10s-.2-13-.19-18.27.09-10.6.07-11.59.05-5.18.08-9.49c.07-9-.75-7.91.91-9.64ZM133,34.12l.56,1.63c-4.26,2.46-9.46,16.13.1,26.18L133.51,64C123.49,54.85,125.35,41.73,133,34.12Zm.73,1.93c1.46,3,3.12,5.72,5.39,7.37a11.9,11.9,0,0,0,.32,10.53c-1.45.8-3.46,2.93-5.55,7.28C126.39,53.55,128.07,42.43,133.77,36Zm-56.1,5.73a44.18,44.18,0,0,1,12.54,1.91c2.52,12.84,7,21.47,6.93,26.5a3.15,3.15,0,0,1-1.09-.6,4,4,0,0,0-5.5,1.1c-1.21,1.6,0,3.82-.61,4.75-1.18,1.74-4.21,5-4.72,4.85s-.31-.24,1-2.25,2.39-4,1.94-4.45c-.19-.2-.29.22-1.3,2-2.37,4.14-4.45,6.71-5.28,6.37-.39-.16-.19-.5,1.57-2.83,2-2.64,2.53-4.29,2.33-5-.15-.56-.46.35-1.28,2a55,55,0,0,1-3.74,5.46,3.37,3.37,0,0,1-1.59,1.35,4.36,4.36,0,0,1-1.74.51c-.23,0-.07-.17.25-.49a30.26,30.26,0,0,0,5.94-8.35c.19-.37-.08-.89-.39-.51-1.89,3.35-4.53,7.53-7.39,9.38a4.07,4.07,0,0,1-2.37.66c-1.41,0-.91-.36.37-1.19,2.74-1.78,6.59-6.88,7.22-8.68.15-.43,0-.67-.29-.64-2.26,3.64-5.24,7.64-8.71,9.31-1.87.9-4.23,1.08-5.38.51-.85-.42-.64-.56.87-.66,3.63-.36,7.87-3.79,10-7.41,1.23-2,.37-1.55-1,.39C73.78,79,69,82.18,66.05,81.93s-4.71-2.51-4.33-4.51a3.45,3.45,0,0,1,2.76-2.8c2.86-.61,4.74,4,2.12,4.82-.89.29-1.23.07-.91-.29a1.8,1.8,0,0,0-.56-3.45,2,2,0,0,0-2.28,2.16c0,1.2,1,2.37,3,2.4,2.33,0,5.91-1.66,8.09-4.77,1.54-2.38.12-1.58-1,0a13.67,13.67,0,0,1-4.54,3.29l.11-1.61c.05.28,5-3.16,4.75-5.73-.19-1.86.08-2.43,2-2.41,1.44,0,3.26.52,3.8,1.19s1.16.86.89-.24c-.44-1.8.09-2.09-.95-1.75-.71.24-1.35-.34-2.06-.85a4.68,4.68,0,0,0-3-.76c-.89,0-1.29,0-1.15-.87a3,3,0,0,0,0-1.53c-.28-.63-1.39-1.29-2.65-2.22-1.48-1.1-1.21-1.16,2-8.5,1.33-3.08,1.33-3.71.54-6-1.26-3.59-1.45-5,.9-5.53a35.39,35.39,0,0,1,4.1-.23ZM91,43.86l1.22.35s3.82,13.13,6,19.54a27.75,27.75,0,0,1,1.3,7.08c-.06,3.42-2,5.87-4.3,6.14A4.15,4.15,0,0,1,91,74.45a3.32,3.32,0,0,1,1.82-4.55c3.45-1.24,6,3.19,2.59,4.56-1.75.71-3.41-.57-2.62-2a1.36,1.36,0,0,1,2.47.15c.3,1.14.8.6.58-.17a2,2,0,0,0-4,.39c0,2.81,3.05,3.47,4.88,1.89,1.41-1.26,1.56-3.54,1.21-5.52-.48-4.11-2.79-9.43-4.43-15.51A83.67,83.67,0,0,1,91,43.86Zm48.67.15,2.3.92L142,52.54l-1.95.68c-2.55-3.92-.43-9.21-.3-9.21Zm-46.56.49,1.68.65c.92,5.38,5.27,15.66,6.8,23.34.43,4.61.5,6-2.61,8.43v0H97.36s0-.1.73-.66c4.06-3.06,1.64-9.81.1-15-2.67-8.28-5.06-16.75-5-16.74ZM77.43,45l-.65,0c-2.54.14-3,.3-3,.86,0,1,.41,1.51,2.77,1.25a15.6,15.6,0,0,1,7,1c2.33,1,2.88,1.25,3.72,1.68,2.1,1.09,1.73,0-.17-1.25C83.31,46,80.63,45,77.43,45Zm18.32.37,1.58.61s.42,1.24.57,2c1.54,6.87,5.72,14.59,6.21,22.63.11,2.63-.34,5.09-2.25,6.27h-1.45c1.55-1.55,2.58-2,2.14-7.37C101.86,62.58,97.34,53.95,95.75,45.41Zm2.8,1.12,1.46.54c1.68,9.27,10,23.13,4.7,29.82h-1.32a8.88,8.88,0,0,0,1.49-6c-.51-8.43-4.78-16.61-6.33-24.37Zm2.44.85,1.57.48c2.13,9.4,10.31,24.8,4.48,29.06l-1.15,0C110.29,68.61,103.63,60.05,101,47.38Zm2.73.88a8.52,8.52,0,0,0,1.69.55c1.65,7.11,4.67,14.09,6,20.71.46,3.62-.33,6.34-2.59,7.37h-.48c2-3.08,1.65-7,.56-11.18C107.5,60.05,104.67,53.83,103.73,48.25ZM79,48.38a7.24,7.24,0,0,0-2.3.36c-.83.31-.72,1,0,.83l1-.18c1.88-.33,4.2.35,7,2.07.68.41,1.42.81,1.6,1,.52.39,1.07.39.88-.11a8.6,8.6,0,0,0-2.12-1.58c-2-1.25-4-2.32-6.14-2.34Zm27.38.62,1.58.24c3,13.75,9.49,22.3,3.92,27.4h-1.4a7.8,7.8,0,0,0,1.71-6.93c-.52-3-2-7.67-3.3-11.82-1.46-4.8-2.64-8.86-2.51-8.89Zm2.27.39,1.34.25c1.57,5.59,4.23,12.52,5.83,18.29,1,3.55.59,7.92-1.61,8.73l-1.13,0c1.87-2.51,2.13-5.13,1.28-8.51C112.62,61.21,110,55.15,108.66,49.38Zm8.26,0a169.69,169.69,0,0,0,5.76,17.69c1.55,3.12,1.09,7.73-1.25,9.56l-1.1,0a6.7,6.7,0,0,0,1.58-5.56c-.6-6.2-5-14.79-6.53-21.39Zm-5.87.27,1.38.13c1.38,6.06,4.07,12,5.82,18a14.74,14.74,0,0,1,.5,4.27c-.24,2.58-1.3,4.61-2.23,4.61h-1c1.94-2.33,1.85-5.51,1-8.92C115.2,62.12,111.88,55.32,111.05,49.66Zm-35.94,0c-.57,0-.58.53.33,1.34.56.5.52.33.49.64-.14,1.34.07,2.57.62,1.19.15-.37.36-.79.58-.73.41.13.2.88.39,1.25.33.67,0,.83-.82.63-.58-.15-.61.17-1,.57-.63.7-.53,1.12.44.9a.88.88,0,0,1,.42,0,3.86,3.86,0,0,1,1.3.82A9.46,9.46,0,0,0,81,58.14c1.36.23,1.06-.42-.06-.85a4.54,4.54,0,0,1-2.13-1.67c0-.22.3-.09,2-.56A17.55,17.55,0,0,0,83,54.18a2.9,2.9,0,0,1,1.91-.3c1.95.06,2.24,0,.88-1-2.76-2.06-6.43-3.4-8.38-2.54-.59.26-.58.1-1-.15a2.9,2.9,0,0,0-1.32-.47Zm39.44.19c1.91,7.41,5.6,14,6.5,21.07a6.65,6.65,0,0,1-1.79,5.67l-1.12,0c-.16,0,1.56-2.69,1.42-5a13.14,13.14,0,0,0-.44-3.85c-2.17-6.25-4.31-11.91-6-17.87ZM80.18,52.33c.43.08.44.29.3.55s-.62,1.18-.62,1.18-.53.1-.64,0,.43-1.52.78-1.69a.26.26,0,0,1,.18,0Zm1.2.22a.75.75,0,0,1,.24.07c.5.2,1.37.61,1,.92a3.45,3.45,0,0,1-2.08.39l.58-1.07C81.23,52.64,81.29,52.55,81.38,52.55ZM76.11,59a.23.23,0,0,0-.11,0c-.1.06.13.46.46.92,1.52,2.07-.59,2.68-2.08,1.58s-3.61-1-3.29.16c.11.41,0,.61.79.62a2.06,2.06,0,0,1,1.52.49c2.42,1.67,5.56-.57,4-3A2,2,0,0,0,76.11,59Zm6,3.23c-.88,0-1.44.66-.33.86,3.94.71,1.3,4.82-1.48,2.7-2.5-2.27-5.85-2.26-5.89-.64,0,.41,0,.42.61.53A21.46,21.46,0,0,1,79.27,67a9.12,9.12,0,0,0,1.1.49c1.67.61,3.81-.18,4.23-1.6S84.67,62.26,82.09,62.26ZM32.7,75.49a2,2,0,0,1,1.49,1.15c.92,1.57,2,4.21,2.76,5.67a1.7,1.7,0,0,1,.18.87c.06.85.34,1.18.84.79s1.18-1,.38-1.11c-.81-.61-1.26-1.52-.76-2.07s.22-.67-.07-.68c-1.13,0-2.83-3.42-2-4.15,1.08-1,2.26.24,4.8,5.29,1.12,2.23,1.17,4.68.21,3.47-.33-.3-.26-.15-.64.82a5.24,5.24,0,0,1-1.61,2.12,10.89,10.89,0,0,0-2.17,2.53c-.06.43.72,0,1.29-.71,1.26-1.24,1.31-1.57,1.3.07,0,1.49-.09,1.76.18,1.75s.64-1.2.83-2.62a3.72,3.72,0,0,1,2-2.64c.3-.2.31-.33.25-.9-.2-1.81.82-5.19,1.28-4.35.07.19.27.63.38.93.09.48.38,1,.84,1.05.57.43.56.66.76,2.22a8.61,8.61,0,0,0,.45,1.68c.29.76.55,1.2.39,1.42l-.32.32-9.22,5.5s-.72.4-1,.51A1.08,1.08,0,0,1,33.95,94a63.33,63.33,0,0,1-4.67-9.26c-.82-1.8,0-3,1-1.54.41.56.2.92,0,2,0,.2.14.12.49.18.54-.06.8.43.78,1.25-.34,1.18.13.54.35.48.43,0,.52.26.76.75.15.69.45.49.89,0s.36-.37-.37-1.25a18.58,18.58,0,0,1-3.47-6.39,2.22,2.22,0,0,1,0-1.22c.57-1.3,1.37-1.3,2.24.51a9.91,9.91,0,0,0,.64,1.1,2.55,2.55,0,0,1,.53,1.68c-.26.65-.3.66-.08.75a3,3,0,0,1,1.57,2.12c0,.91.2,1.39.91.85s.47-.86-.33-1.65a2,2,0,0,1-.39-2.6c.08-.24,0-.31-.26-.28a1.38,1.38,0,0,1-1.24-2.09c.31-.55.28-.7-.17-.71a2.11,2.11,0,0,1-.79-.07,5,5,0,0,1-.88-1.92c.28-.87.72-1.23,1.19-1.22Zm57.78,0a18.75,18.75,0,0,0,5,2.48A27.47,27.47,0,0,1,79,91.19a3.35,3.35,0,0,0,1.25,2.52,10.93,10.93,0,0,1-.35-2.21c7.71-2,14.51-9.59,16.24-13.52L130,77.61c-25.13,24.28-26.14,58.45-5.63,87.09l-2.36,1.39c-15.8-23.83-15.64-46.8-10.9-62.18a61.78,61.78,0,0,1,14-24s-18.38-.25-27.53.09a39.23,39.23,0,0,1-4.35,5.65s4.65-4.52,4.53-5.3c8.48,0,17.22-.5,25.69.1-9.91,11.94-14.79,24.27-15.64,35.87,0,1.51-.12.67-.62,1.22L105.64,120l-1.25-2.54c-.85-.28-2.53.17-3.24-.09-3.49,15.66,0,34.56,4.63,46.9a5,5,0,0,1-2.57.54c-1.55-.35-1.93.08-3.27.36-1.55.3-2.09.29-2.43.69a3.62,3.62,0,0,1-.92.74c-3.77,1.38-8.18,6.54-8.18,6.47l-4.15-1.87c3.82-7.55,8.3-10.27,16.18-13.62l-.73-3.37c-8.39,3.15-13.73,6.92-17.95,14.24-5.11-.07-25.81-.22-25.83-.15C64.36,158.58,71,144,71.75,132.62c.18-2.21-.13-1.15.84-1.81L74.12,129l1.2,1.81s.87,1.11,1.42.19c1.54-15.86-.09-33.94-7.68-46.54a6.48,6.48,0,0,1,4,.64,80.93,80.93,0,0,1,5.48,21.39,103.2,103.2,0,0,1-.15,24.48l.51.07a102.84,102.84,0,0,0-.38-29.55A75.85,75.85,0,0,0,74,85.73c-.43-1-.76-1.2-.35-1.34,9.25-.78,13.5-3.89,16.82-8.85Zm-25.64.83a1.29,1.29,0,1,1-1.28,1.29A1.29,1.29,0,0,1,64.84,76.37Zm69.5.66a76.5,76.5,0,0,0-7.17,7.75c6.76,9.36,14.28,19.51,20.6,27.62a16.51,16.51,0,0,0,2.18-1.47c0-.09-.17-.52-.21-.42a11,11,0,0,1-1.77,1.17L128,85.25l1.42-1.72c1.55-.51,5.88-5.91,6.09-5.79,3.39,2.61,13.6,13.69,17.54,17.08l.05,30.75c-.41,1.23-11.3,6-19,23.66-3.87,2.18-8.15,3.36-12.14,5.25a15.07,15.07,0,0,0,1.51,2c-.61-1.32-.72-1.58.66-2.14l28.79-11.82-.05,2.39c-2.89,2.25-22,16.15-27.85,19.44C97.44,125.73,115,92.66,131,77.2Zm-89.7,2.09c.75,0,.56,1.77.28,2.37-.55.44-1.11,0-1.1-.77a.94.94,0,0,0-.12-.56C43.29,79.88,44,79.1,44.64,79.11Zm16.82,1.1A3.49,3.49,0,0,1,62.56,82c-.85-.13-3.14-.79-2.07-1.31ZM57.3,82.49c19.87,30.25,19,62.38-3.19,86.74l28.05,0c3.57-7.09,9.52-11.42,17.13-14.08l.66,2.23c-8.75,2.83-13.17,7.51-16.69,14H49.8c12.85-13.92,18.74-25.69,19.67-41.6.88-15.15-2.95-29-14.58-45.65Zm5.6.35,4.69,2.23-.69,4.84L62,87.63ZM54.45,84.2c25.05,38.16,14.31,65-5.7,87.35l-3.68.06-8.59-8,.16,48.82s-8.37,8.26-9.34,9.25-1.66-.49-1.66-.49l0-64.72.37-2.54.12-13.95,5.34-2.83,20,26.42a7.29,7.29,0,0,1-1.18,1.41c.43,1,1.85-1.44,2-1.82-7.26-9.06-20.76-26.79-20.76-26.79l-5.62,3s.16-11.58.06-16c.22-1,1-.77,1.52-1.24C34.8,117.23,40.83,110.36,46,98.64c3.9-1.28,8-3.09,11.9-4.72l-5.63-8.51Zm-15.35.49a3,3,0,0,0-1.48.91c-1.34,1.23-3.11,3.24-3.12,3.62.36.13.68-.08,1-.37,1.12-1.67,2.86-2.32,3.88-3.78C39.51,84.79,39.34,84.68,39.1,84.68Zm12.62,1.77s3.89,5.7,4.88,7.22c-10.24,4.08-21,9.48-30.45,13v-2.29S44,90.89,51.72,86.46ZM67,90.22l3.83,2-1.08,4.35-3.87-2.18Zm3.16,7.24,3.15,2.31-1.44,3.69-3.17-2.2Zm-25.69,2.71a18.89,18.89,0,0,1-1.3,3.24c-3.9,6.82-7.71,12.87-15.58,18.13a14.09,14.09,0,0,1-1.16-1.78l-.08-2c4.17-3.38,7.78-5.86,13.31-15.77l1.6-.66,1.37.59.92-1.66Zm16.38,0c-3.63,7.75-7.2,15.75-13,21.79l15.83,22.24C68.86,128.52,66.93,113.8,60.81,100.19ZM40.9,101.88l-.76,1.32,1.32.76.76-1.32Zm-2.15.14a33.27,33.27,0,0,1-12.82,15l-.22-9.47Zm1,1.93L39,105.27l1.31.76.76-1.32Zm32.34.28L75,107l-1.7,3-2.93-2.44Zm43.71,1.34h0c-5,15.69-3.51,30.68,3.37,43.73a91.16,91.16,0,0,1,12.74-23.12c-4.06-5.35-15.69-20.78-16.1-20.62Zm-77.17.25-.8,1.3,1.29.8.8-1.3Zm21.88,1.83a43.16,43.16,0,0,1,1.72,29.19L50.95,122.48A104.1,104.1,0,0,0,60.52,107.65Zm-23,0-.86,1.26,1.25.87.86-1.27Zm-1.26,1.81-.94,1.21,1.2.94.94-1.21Zm37.19,1.29L76,113.22l-1.61,3.17L71.75,114Zm-38.67.59-1,1.16,1.15,1,1-1.16Zm82.46.34,11.39,14.8a77.52,77.52,0,0,0-9.81,15.74C115.61,132.24,114.18,122.41,117.2,111.72Zm-84.06,1.5-1.05,1.1,1.1,1.06,1.05-1.1Zm26.6,1.48-5.21,7.59,6,7.68A37.33,37.33,0,0,0,59.74,114.69Zm-28.3.25-1.12,1,1,1.13,1.12-1Zm-1.64,1.48-1.18,1,1,1.19,1.18-1Zm44.51.78,2.14,2.52-2.17,2.59-2-2.3Zm27.2.45,1.45.05c-2.38,23.67,2.3,35.65,6.45,46.07,0,0,0,.42-.15.54a3.14,3.14,0,0,1-3.14-.48c-5.58-14.43-6.79-32.21-4.61-46.18ZM27.88,118l-1.23.9.89,1.24,1.23-.9Zm91.09.84c-.37,0-.69,9.74.7,14.49l5.24-7.15Zm-13.55,1.61,1.75,2.37-1.86,2.55-1.9-2.42Zm-79,.65c.09,0,.23.23.51.43s.22.26-.07.49c-.46.37-.6.31-.59-.27s.07-.64.14-.65Zm47.95,1.78,1.94,2.79L74.2,128.4l-1.83-2.92Zm30.86,3.54,2,2.5-1.75,2.75L103.32,129Zm47.23.53.18,2.88-.71-1.05-1.3,1,.91,1.21,1.13-.89.07,1.16c-7.18,5.23-10.28,11.23-13.2,15.74l-1.3.55-1.48-.47-.72,1.29-1.25.3a59.74,59.74,0,0,1,6.89-11.13A78.06,78.06,0,0,1,152.5,126.9Zm.83,4.51.06,10.25-12.86,5C143.87,140.94,147.81,135.63,153.33,131.41Zm-3.19-1.25-1.17,1,1,1.17,1.17-1Zm-1.81,1.54-1.13,1,1.05,1.13,1.13-1Zm-42.94.57,2.42,2.6L106,137.95l-2.52-2.44Zm41.11,1.09-1.06,1.09,1.16,1.12,1.06-1.09Zm-1.67,1.73-1,1.13,1.23,1.08,1-1.13ZM143.15,137l-.95,1.2,1.28,1,.95-1.2Zm-36.93,1.84,3,2-1.48,3.63-3-2.32Zm35.46,0-.89,1.24,1.37.94.9-1.29Zm-1.37,2-.83,1.29,1.38.9.82-1.33Zm-1.22,1.94-.76,1.32,1.43.82.76-1.34Zm-1.1,2-.76,1.32,1.59.69.63-1.26Zm-30.12.82,3.1,2.12-1.37,3.8-3.28-2.33Zm44.88,3.74v78.39h-33.9s-1.6-2.84-4.94-9.38c-1.42-2.77-2.61-3.94-2.73-6.14a3.54,3.54,0,0,0-1.51-3.34c-.35-.2-.94,0-.74-.51s-.45-1.54-.63-1.74c-.21-.35-.08-.44-.1-1.74a9,9,0,0,0-.36-2.74c-.68-2.41-.83-3.61-.44-4.86a69.76,69.76,0,0,1,3.42-8.54c.79-1.73.67-2.4-1.76-3.66-1.82-.94-2.06-.93-1.83-2.3a2.7,2.7,0,0,0,.07-1.36,2.39,2.39,0,0,0-.56-.61c-.24-.2-.17-.63.08-.94s.24-.75,0-1.48c-.5-1.54.63-3.58,2.75-5,.94-.62.91-.49,1.89.54,2.86,3,7.11,1.12,7.12-3.14,0-1.33-.45-1.25.8-1.88,4.23-2.71,12.92-7.64,12.86-7.51a19,19,0,0,1,1.11,3.4c.31,1.07.27,1.15.15,3.24-.1,1.89-.16,2.32.28,2.44,2.51.28,3.08-.62,3.56-2.24.21-.72.61-.57.86-.27,1,1.75,2.16,3.56,3,4.81,1,1.59,2.66,2.38,3.53,1.63.18-.62.33-.64,1.44-.38a1.67,1.67,0,0,0,2.24-1.44c.05-.4-.24-.38.48-.77,1.78-1.33,1.1-3.14.84-4.24a1.62,1.62,0,0,0,.78-1.48c.09-5.31-4.49-13-4.38-12.76Zm-43,3.06,3.63,1.76-.86,4.36-3.73-1.69ZM145,154c2.09,2.44,3.6,6.51,4.38,9.16.38,1.32.43,2.83.09,3s-.5,0-.43-.8.07-1.17-.21-1.16c-.81.21-.84-1-.76-1.32a2.88,2.88,0,0,1,.2-.44c.2-.48-.32-.41-.86-.42s-.6-.28-.58-.74-.68-.41-1.06,0-.27.76.2,1.05c.67.42,1.31,1.44,2.88,5,.91,2,.64,3.5-.44,3.48-.75,0-1.63-2.1-2.34-3.63-.18-.4.28-.84.44-1.05.42-.55.35-.72-.26-.73s-.82,0-1.17-.68a1.82,1.82,0,0,1-.18-.95c.3-.79-.31-1-.91-.68-.75.31-.74,1,.4,2.09.74,1.21.54,1.13-.15,1.95-.15.29-.06.47.25.47.88-.27,1.85,1.33,1.58,1.88-.27.24-1,1.09-.29.93,1.46-.4,2.34,1.75,1.48,2.48-1.28.65-1.58.44-3.55-3.52-.61-1.23-1.35-2.55-1.44-2.69a1.82,1.82,0,0,1-.13-.79c.09-.72-.22-.88-.84-.59-.46.11-.88.5-.29.86.69,1.19.93,1.38.55,1.69-.86.69-.49.66.48.85a1.22,1.22,0,0,1,.84.68c.5,1.12,1.38,2.71,1.46,3,.29.82-.24,1.19-1,1.16s-1.1-.58-1.46-1.09c-1.37-1.92-2.36-3.82-3.75-6l.19-2a1.12,1.12,0,0,0,.57,0c.4-.2.64-.83.87-1.68s2.54-2.41,3.37-3.31a.62.62,0,0,0,.28-.37c0-.33-.94-.11-1.56.6-.9.81-1.29.53-1.26-.5-.09-1.28-.86-.64-.9.61a2.83,2.83,0,0,1-1.12,2.14c-1.29,1-1.08.78-1,2.22.1,2.52-.86,4.59-1.49,3.22-.22-.49-.49-1-1.05-1.07-.4,0-.6-.41-.82-1.39-.33-1.58-.78-2.59-1.2-4Zm-32.15,5.42,4.18,1.68-.78,4.4-4.14-1.59Zm31.87.41-.1,0a40.08,40.08,0,0,1-3.55,2.67,2.8,2.8,0,0,0-1,1.22c0,.19.57.19,1.13-.06a20.84,20.84,0,0,0,3.57-3.36C145,160.13,144.94,159.85,144.74,159.87Zm-38.38,5.34c1,0,.41.29-1.74,1.8s-5.58,6.12-6,7.85c-.18.78.31.84.87-.23,2.56-4.95,7.39-9.47,11.82-9.27,2.17.1,3.34.69,1.54.95-4.92.61-8.6,3.43-11.82,9.07,0,.13.29.12.63-.1,2.95-3.63,6.27-8.43,12.1-8,4.21.26,5.4,5.29,1.91,7-3,1.5-5.85-2.15-3.33-4.32.82-.7,1.33-.39.55.32-1.69,1.54.38,4.29,2.44,3.25a2.36,2.36,0,0,0,.66-3.69c-2.46-3-7.74-.73-11.43,4.17-.39.51-.72,1.63-.39,1.51a2.87,2.87,0,0,0,1.25-1.2,11.1,11.1,0,0,1,4.11-3.75c1.38-.76,1.46-.62.95.7a1.86,1.86,0,0,1-.92,1.09c-2.24,1.54-3.64,3.61-3.69,4.93,0,1,.66,2.22-.1,2.48-1.29.61-4.79.11-5.74-1.1-.68-.87-.95-.37-.43,1.05.34.94.32,1.47.83,1.37.64-.34,1.09-.26,2.33.42a10.78,10.78,0,0,0,2.32.79c1.19.28,1.43.16,1.41.68a8.71,8.71,0,0,1,0,.88c-.19,1.56,1.1,2.08,2.86,3.11,1,.6.62,1.21-.57,4.17-.62,1.34-1.15,3.14-1.91,4.5a7.52,7.52,0,0,0-.31,5.11c.85,3.54,1.47,5.34-.05,5.66-3.91.6-12.56.57-17.28-1.25C88,196,81.63,182.47,82.45,179c1.64,2.49,8.5,1.83,6.43-5.12a15.16,15.16,0,0,1,1.68-2c2.88-2.94,3.59-3.43,2.22-.84a35.41,35.41,0,0,0-2.42,5.1c0,.4.29.5.53.17a8.09,8.09,0,0,0,.58-1.25c1.72-4,4.65-7.7,6.68-8.58.52-.23.5,0,.13.46a31.5,31.5,0,0,0-5.49,9.34.33.33,0,0,0,.63.17c2.23-4.71,2.9-5.78,5.64-9.1,1.08-1.3,2.08-2,2.88-1.89s.49.18-.15.86a36.31,36.31,0,0,0-2.38,2.74c-2.07,2.62-4.14,6.88-3.38,6.65.13.35.78-.78,1.33-1.86,1.51-2.55,3.11-5.92,6.7-8.14a6.34,6.34,0,0,1,2.29-.5ZM37,166l6.38,6.42,12.84-.17c-2.12,3.31-1,8.45.18,11.45,2.29,5.88,5.64,15.6,5.4,15.74,0,0-1.87.48-2,1.68-.25,1.77.51,1.64-.59,3.23a1.79,1.79,0,0,0,.18,1.58,1.5,1.5,0,0,1,0,1.45L48.07,227.74H26.36V223.8l11-11-.13-8.07c5.87,1.76,7.89,7.86,8.39,12.38,10.6-9.74,10.34-24.41.32-33.62-2,9.73-8.95,11.75-8.8,11.56Zm79.86,1.15a6,6,0,0,1,2.24.5,4.4,4.4,0,0,0-1,.88A6.21,6.21,0,0,0,116.89,167.19Zm17.8.07c.57,0,1.27,1.68.87,2.08a1.37,1.37,0,0,1-1.23.14C134,169.22,134.16,167.26,134.69,167.26Zm-20.25,2.92a1.34,1.34,0,1,1-1.33,1.34A1.34,1.34,0,0,1,114.43,170.18ZM58,172.09l1,0c-1.75,2.36-2,4.38-1.37,7.32.7,3.31,6,15.73,6.36,19.16,0,.16,0,.59,0,.59l-1.31.09-.14-.49c-1.83-6.2-3.65-10.92-4.92-14.53-1.27-3.9-3.21-9.67.38-12.16Zm7,0h.95a16.37,16.37,0,0,0-1.48,4.69,18.75,18.75,0,0,0,1,6.32c1.55,4.65,3.83,9.82,5.09,15.68,0,.07.15.64.15.64l-1.37-.19s-.13-.6-.15-.68c-.95-5.16-3.58-10.51-5.15-15.59A17.34,17.34,0,0,1,63,175.68a6.74,6.74,0,0,1,2-3.57Zm11.18,0a11.24,11.24,0,0,0-1.93,4.94,22.25,22.25,0,0,0,1.56,7.61,141.43,141.43,0,0,1,4.93,17.68l-1.32-.57s-.05-.34-.08-.44c-.7-3.81-.75-3.48-4.89-16.3-1-3.08-1.89-5.77-1.71-8.34,0-1.46,1.31-4.35,2.64-4.58Zm1.58,0H79s-.68.72-.87,1c-2.15,3-1.53,6.22-.46,10.07,1.47,5.29,4.19,11.2,5.61,19.25,0,.15,0,.93,0,.93l-1.46-.59c-1.33-7.39-4.61-15-6.2-21.69-.93-3.9-.67-6.37,1.48-8.49A3.38,3.38,0,0,1,77.75,172.13Zm-15,0h.92s-1.54,2.54-1.54,4c-.26,2.68.71,5.64,1.81,8.75,1.7,4.77,4,10.54,4.64,13.58,0,.12.12.66.12.66l-1.61-.09a9.62,9.62,0,0,0-.18-1.07c-1.85-6.53-3.66-10.76-5.79-16.72a15.57,15.57,0,0,1-.23-6.78A3.53,3.53,0,0,1,62.73,172.17Zm-2.47,0,1,0-.53.93c-1.81,3.3-1,6.32.12,9.68,1.5,4.48,3.85,10,5.32,15.14.08.29.2,1.17.2,1.17l-1.43,0s-.29-1.05-.31-1.17c-.81-4.8-5.17-12.81-6.3-18.9C57.69,175.76,58.23,173.74,60.26,172.17Zm13.3,0a15.33,15.33,0,0,0-1.71,4.26c-.28,3,.66,5.46,1.74,8.83,1.86,5.81,4.48,12.63,4.71,15.75,0,.1,0,.48,0,.48l-1.61-.58s-.07-.33-.1-.44c-1.41-5.64-3.07-11.26-5.31-17.6-.55-2.14-1.28-4.29-1.21-6.12a6.17,6.17,0,0,1,2.19-4.57Zm7.1,0,1.3,0a6.69,6.69,0,0,0-1.32,1.21c-5.13,4.72,3.19,18,5.11,30.17,0,.13.08.59.08.59l-1.43-.52c-.14-.6-.24-1.34-.4-2-1.55-6.2-3.63-12.58-5.53-18.36-1.07-4.21-1.46-7.93.46-10A4.6,4.6,0,0,1,80.66,172.18Zm-13.37,0,1.38,0a8.91,8.91,0,0,0-1.64,5,19,19,0,0,0,1.17,6.21c1.39,4.37,3.37,9.12,4.73,15,.08.39.14.64.18.81a6.58,6.58,0,0,0,.21.7l-1.46-.29s-.15-.38-.25-.58a6.26,6.26,0,0,1-.4-1.15c-.71-3.07-3.31-10.05-4.9-14.94-1.26-3.08-1.6-8.47,1-10.78Zm17.28.05a4,4,0,0,1,3.75,2.87,3.47,3.47,0,0,1-1.75,4.05c-2.68,1.36-5.55-2.26-3.44-4.26,1.6-1.51,4-.39,3.45,1.54a1.33,1.33,0,0,1-2.55.07c-.09-.42-.3-.85-.45-.61-1,2.33,2.32,3.42,3.7,1.25a2.62,2.62,0,0,0-3-3.54c-3.13.58-3.49,4.58-2.19,9.24,1.81,7.37,6.14,17.28,6.13,21.83,0,.06,0,.25,0,.25l-1.37-.41,0-.14C86,198,81.31,187.5,80,179.41c-.58-3.69.84-6.37,4.05-7.1A3,3,0,0,1,84.58,172.24ZM71,172.3a9,9,0,0,0-1.62,4.63,22,22,0,0,0,1.3,6.14c1.52,5.24,5.06,14.9,4.93,16.71,0,.2.13.8.13.8l-1.37-.41a2.54,2.54,0,0,1-.16-.34c-.46-1.8-2.63-9.5-5.06-16.16a18.43,18.43,0,0,1-1.33-6.54,7.64,7.64,0,0,1,2-4.83ZM97.07,181c-3.55.2-3.21,4.56-1,5.3.79.22,1.25,0,1.37-.14s0-.5-.53-.57c-1.49-.49-2-2.26-.68-3,.74-.39,1.91-.14,3.33.92,2.53,1.89,5.64,2,5.23.1-.1-.46-.3-.53-2.15-.78a6.91,6.91,0,0,1-2.84-1A5.45,5.45,0,0,0,97.07,181Zm-50.8,4c9.17,9,7.81,23.14,0,30.22-.16-.57-.5-2-.54-1.93,5.89-6.17,8.66-16.29.14-26.65A16.12,16.12,0,0,0,46.27,185Zm57.45.24a.75.75,0,0,0-.23,0c-2.37.65-2.87,3-1.33,4,.94.6,1.67.23.5-.49a1.22,1.22,0,0,1,.71-2.22c.53,0,.9.24,2.25,1.25,1.12.83,2.17.89,2.4-.23.14-.67-.08-1-.79-.79-.31.08-.5-.11-.92-.41A5.47,5.47,0,0,0,103.72,185.27ZM45.32,187c8.26,9.66,5.61,19.73,0,25.63a17.14,17.14,0,0,0-5.28-7.38c1.41-3.16,2.26-6.45-.39-10.62A20.49,20.49,0,0,0,45.32,187ZM99,190.56c-.39,0-.26.37.65,1,2.18,1.49,2.36,1.76.25,1.73a6.17,6.17,0,0,0-1.85.51c-2.76.93-2.89.85-4.21.54-.44-.1-.88-.29-1.08-.11s-.63.45-.26.86a6.72,6.72,0,0,0,1.4.88c3.2,1.85,3.49,2.29,7.25,2.39.43,0,.65-.21.91-.22a2,2,0,0,1,1.56.71c1.14,1,1.19.29.51-1.08-.35-.72-.67-.89-.49-1.44.4-1.25-.17-1.49-.91-.39-.55.87-.62.84-1.14-.27-.7-1.39-.37-2,.69-1.12.8.68,1,.18,1.32-.37.41-.71.35-1.35-.38-1.3a1.4,1.4,0,0,1-1.14-.53A6.14,6.14,0,0,0,99,190.56Zm.91,3.75a.17.17,0,0,1,.18.13,5.3,5.3,0,0,1-.56,1.88c-.08.22-.22.25-.42.29-.66.12-.71-.08-.59-.5.24-.63.44-1.54,1.29-1.8Zm-1.68.32c.27,0,.28.09.17.34a6.27,6.27,0,0,1-.77,1.12c-.53.34-1.39-.71-1-1a4.6,4.6,0,0,1,1.48-.46l.13,0Zm-59.2.69a1.09,1.09,0,0,1,.44.09,8.54,8.54,0,0,1,.31,9.14.32.32,0,0,1-.43.13,11.92,11.92,0,0,0-2.15-.78v-8c.65-.14,1.22-.64,1.83-.64Zm52.7.65c-.15,0-.22.11,0,.31,2.92,2.12,6.93,4.59,10.63,3.63.34-.07.61-.26.55-.61s-.42-.41-.83-.3a10.19,10.19,0,0,1-3.14.15c-2.55-.42-4.79-2.06-6.75-3A.73.73,0,0,0,91.74,196Zm-.85,2c-.13,0-.12.13,0,.37.41,1.23,4.54,4.1,7.79,5,2.8.81,6.82,0,6.58-1.32-.12-.7-.63-.86-2.42-.64-3.93.77-7.72-.85-10.59-2.65A7.05,7.05,0,0,0,90.89,198Zm-25.75,1.68a29.25,29.25,0,0,1,5.26.43,46.14,46.14,0,0,1,11.25,3.37c6,2.26,13.48,4,19.84,3.76a28.27,28.27,0,0,0,4.91-.27c1.42-.32,1.81,0,2.15,1.76.06.39.18.5.67.83.75.51.63,1,.54,2.16-.08,1,.5,1.49,2.8,5.76,2.62,4.86,5.17,10.51,5.17,10.51-22.94,0-44.82-.87-68.29-.14,2.11-5,7.87-14.13,11.47-21.42-.87-2.24.21-2.63-.25-3.16A2.28,2.28,0,0,1,62,199.89,30.31,30.31,0,0,1,65.14,199.68Z"/><path id="path6353-8" class="cls-3" d="M49.7,228s7.52-15.3,10.68-19.88c4.56-5.82,25.12,2.53,35.35,4.61,4.16.81,13.79.43,13.79.43l8.05,14.62ZM34.1,210.63,33.78,163l2.35,1.48.54,47.85L26.5,222.13l-.06-2.87Zm6.16-5.43c2.42-4.91-.28-10.91-.28-10.9,1.4.35,5.32-7.13,5.67-6.92,6,7.4,7,18.43-.29,25.26a19.42,19.42,0,0,0-5.1-7.44Zm4.47-33.69c4.55-4.69,8.16-8.34,11.77-13.58.3-.43-19.21-25.38-18.91-25.81,3-3.35,7-5.81,10.18-9.85,0,0,16,21.09,16.37,20.9,1.62-6.6,2.81-12.57,2.5-19.47-1-17.65-8.48-28.45-8.54-28.24-2.53,16.21-27.42,40.78-32.33,39l0-11.33c.3.57,15.77-10,19.85-24,.29-1,12.3-4.87,12.22-5-.51-1.31-5.76-8.8-5.76-8.8a23.11,23.11,0,0,1,2.36-1,68.53,68.53,0,0,1,13.69,30.45c2.12,11.52,3.49,33.17-19.45,56.82Zm68.76-29.8a64,64,0,0,1-1.84-30.94c2.52-14.69,11.74-25.21,19.14-33.24H134L128.76,83a81.74,81.74,0,0,0-5.87,8.54L142,116.72l10.91-2.37s-.33,11.27,0,11.27c-8.48,7.07-14.57,13.46-18.95,23.76-2.68,1-11.57,4.86-11.57,4.86-4.23-1,12.57-27.56,9.38-28-1.32-1.09-15.89-20.89-16.17-20.84-6.72,20.71-.16,42.46,11.65,57.64-1.34.88-2.55,1.56-2.44,1.35-5.06-7.07-9.5-15.51-11.37-22.66Zm-35-10.38c.76,1.18,4.16-25.27-4.79-46.45C74.58,84.23,82,82.8,82,82.8l2,6.34-5,2.15.93,3c3.91-1.91,12.38-4.73,17.59-13.44,0,0,25.31-.22,25.85-.17s-5.16,5.53-10.56,16.64a50.57,50.57,0,0,0-4.83,19.34c-.08,1.52-5.79-7.16-5.79-7.16,1.42-7.33,5.23-14.55,9-21.77,0,0-5.82-.33-9.89-.21-6.32,7-10.29,10.63-19.82,13.95,3.48,11.21,24.75,16.6,20,15.58-1-.23-2.19,10.31-1.17,22.19.2,9.5,5.27,25.32,5.45,25.2,0,0-3.38.77-3.65.22l-5,1.29L95,160l5.42-2.51-.88-3.33s-12,3.64-17.81,14.13l-26.16,0C65.69,157.31,69.8,146.41,72,132c2.14.39,6.52-.67,6.52-.67Zm64.33-95.16c3.29-2.77,9.89-10,9.89-10l.09,3.7-7.49,7.85.08,48.44-2.54-2.45Zm-3.46,17.73c-1.35.65-4,3.83-5.32,7.41-8.68-7.81-5.11-22.16-.35-25.14,1.38,3.13,5.37,7.29,5.28,7.2C138.08,46.63,137.38,50,139.39,53.89ZM62.54,21.37l66.94.12c-3.82,7.57-7.32,13.69-11.38,21.14-2.11,2.57-47.83-8.28-48-7.2Z"/><path id="path6355-9" class="cls-4" d="M26.36,218.37l-.45-63.6,7.61,7.44L34,211.05ZM61.27,206c-1.58.24-.68-1.23-.4-2.62.16-.78-.59-1.51-.58-1.75,0-1.38,1-2,5.7-1.91,11,.77,16.65,4.3,22.94,5.95,6,1.57,12,1.54,18.66,1.39.49.28,2.27,4.91,1.94,5.37-15,3-34.25-8.14-48.26-6.43Zm27.12-32.93a9.66,9.66,0,0,0-4.54-1.62c2.58-4.57,5.71-8.74,10.92-11.34l2.43,6.05a25.39,25.39,0,0,0-8.81,6.91ZM56.69,157.4a28,28,0,0,1-4.38,5.51c-6.32-8.53-20.45-26.7-20.45-26.7l-6,3.06a36.47,36.47,0,0,1,.11-3.76c16.2-8.4,27.31-24.29,32.2-39.16,0,0,2.61,2.68,2.26,3.81a75,75,0,0,1-22.88,32.32Zm20.2-17.31,20.45,0,.91,7.16c-7.83,2.64-14.29,8-20.33,14.28l-9.7-.17c3.18-7,7.6-14.13,8.68-21.29Zm75.7-30.15c.66,2,0,4.19.25,4.1-24.49,12.2-31.49,39-31.49,39s-2.32-3.71-2.22-4.28c12.68-28.37,21.16-29.21,22.79-32.29L122.64,91.31l4.36-6,20.68,27.09C149.73,111.48,150.9,110.68,152.59,109.94Zm-12.08,36.7c4.15-7.52,8.44-11.89,12.71-14.9l-.21,9.92ZM26,117.12l.11-9.63L38.74,102C35.25,109.68,30.51,113.79,26,117.12Zm56.2-8.66-.75-6.77a56.27,56.27,0,0,0,19.89-14c5.87-.28,9.88.12,9.84,0A80.94,80.94,0,0,0,101.91,109Zm63.45-71.14,7-7.09.22,63.41-7-6.83ZM84.4,88.86l-2.21-6.27c3.48-1.31,6.11-4.17,8.57-7a12.72,12.72,0,0,0,4.56,2.31C96.33,78.14,88.26,87.9,84.4,88.86ZM71.33,41.34s-.87-.51-.77-1.22c.29-.93-.93-3-.93-3,14.84-4.53,36.46,8.23,49.29,5.54a10.36,10.36,0,0,1-.32,2.83c.4,1.81.69,1.87-1.06,3-9,2.57-18.51-2.91-27.32-5.53-7.18-2.28-13-1.7-18.88-1.57Z"/><path id="path6357-5" class="cls-5" d="M61.78,20.48l2.71,5.14-.47.32c.74,1.24,1.37,2.63,2.12,3.86l.54-.06c.89,1.72,1.25,2.35,2.42,4.39h-.53c.27.91,1,1.51,1,2.16,0,.81-.2,1.63.29,2.17s.65.83.53,1.21a1.59,1.59,0,0,0,1.51,2A46.22,46.22,0,0,1,91.6,43.57c4.75,1.51,9,3.2,13,4.39a31.81,31.81,0,0,0,6,1.14c6.08.45,9.49-.8,8.47-3.34-.08-.2-.26-.35-.28-.46s0-.4.35-.69c1-1,.44-1.77-.17-2.91,0,0,7.81-14,11.71-21Zm67.59,1.26-5.7,9.91A3,3,0,0,0,119.86,34c-4-1-3.35,4.14-1.36,4.49.13.75-3.25,1.68-5-.08,2.74.37,3.71-3.28.36-4.09,4.41-3.3-3.86-8.24-4-1.41-3.89-.69-3.38,4.48-.92,4.89-1.26,1.4-5,1.44-6.91-1.51,3.3,1.72,5.08-2.73,1.66-4,4.23-3.73-4.05-7.18-3.86-1.14-3.12-1.86-5.27,2.89-1.1,3.61-.24.85-5.69.86-7.08-1.35,3.87.89,4-3.85.63-4.24,3.43-4.38-5.27-6.59-3.81-.62-3.36-1.34-4.63,2.88-1.36,4.24.18.67-5.3,1.24-7.22-1.18,4.21-.64,2.74-4.75,0-4.42,0,0,0-.12.19-.52,1.29-4.13-5.64-4.47-4.68-.1.15.4.32.94.32.94-1.91-.39-3.08.39-2.94,2.2.48,2.4,1.73,2.22,3.34,1.74.67.71-3.88,3.08-6.74,1,3.5-1,1.73-5.14-1.2-4.59-.12-1.32-1.54-3.17-3.4-2.27l-2-3.89Zm5.73,55-4.11.06c-2.89,3-23.81,22.37-20.28,51.68,1.51,12.54,5,23.38,14.28,36.19l2.48-1.47.38.26,25.76-14.92V144l-29.9,12.63a13.72,13.72,0,0,1-1.44-2.13l12-5.13s.29-.73.38-1.07c3.94-10,11.94-17.3,18.91-22.91,0-9.88-.08-30.56-.08-30.56l-18-18.06A79.84,79.84,0,0,0,129,83.49l20.68,27.41-1.83,1.2L127.42,84.84a105.34,105.34,0,0,1,7.68-8.07Zm18.37,17.82s-.1-47.06-.24-69.79h0L142.5,35.89l0,47.7Zm-.91-65.31L145,37.16l.08,48.49-1.95-1.93V36.53l9.47-10Zm-73.8-1.17a1.3,1.3,0,0,1-.24,1.42c-1.55,1.94,3.32,5.3,6.83,4.72,2.67-.45,4.94-2.06,4-3.29-.8-1-.28-2,.68-2s1.78.8.92,1.88c-1.9,2.41,1,5.24,5.44,5.29,3.14,0,4.18-.74,4-3-.08-1.05.13-1.35.86-1.51,1.16-.26,1.75,1.09.79,2.11-2.08,2.21.29,5.47,4.23,5.68,1.44.08,1.73,0,3.34-.92,1.26-.71,1.7-1.79,1.08-2.63A1.21,1.21,0,0,1,112.16,34c.88.38,1.32,1.06.34,2.22-1.28,1.52-.68,2.77,1.79,3.61,1.92.66,3.26.58,4.16-.25.28-.26.9-.79.89-.63-.61,1.05-1.14,2-1.14,2a6,6,0,0,1-7.07-1.7c-4.15,2.41-7.83,1.9-10.94-2.15a10.51,10.51,0,0,1-10.78-3.11c-4.22,2.13-8.14,1.24-11.62-1.15-2.57,2.45-5.29,2.83-8.11,1.66l-.83-1.69c.21-.08,1.12,1.7,5.53.87,1.48-.28,4-2.79,2.6-4-.65-.93-.67-1.35-.1-1.92a1.26,1.26,0,0,1,1.87.29ZM67.94,30.33c.25.48.28,1.28,0,.8-.14-.25-.89-1.38-.86-1.42.35,0,.69.33.85.62Zm84.62.39,0,62.57-6.46-6.45-.31-49Zm-74.79,3,2,1.29-3.64,0ZM89.2,34.83l1.71,1.67-3.59-.76Zm32,.87-.76,1.58C120,36.77,119.86,35.72,121.19,35.69Zm12.91,26c1.3-2.93,3-6.66,5.84-7.85-2.09-4.18-1.82-8.36-.34-10.65a21.26,21.26,0,0,1-5.65-7.79C127.25,41.37,126.17,53.6,134.09,61.71Zm-.2-25.15.46,1.14c-6,7.35-4.12,17,.2,22.15l-.62,1.3C128.65,55.55,126.34,43.69,133.89,36.56ZM98.23,40.72c6.91,2,12.45,5.23,20.44,2.39l0,1.57c-5.09,3.29-15.22-.19-22.07-2.73A57,57,0,0,0,71,38.56c-.54-.11-1-1.52-.1-1.53C82.29,36.9,80.44,35.47,98.23,40.72Zm1.56-2.77,2.27,2.42a36.91,36.91,0,0,1-4.9-1.88Zm34.65.6.45.62c.19.27-1.26.41-1,.09ZM95.44,43c8.25,3.12,17.34,6.23,23.3,3.44,0,0,0,1.19-.64,1.53a6.1,6.1,0,0,1-2.73.8c-9.65.8-15.91-3.22-23.7-5.6A53,53,0,0,0,79.09,41a66.75,66.75,0,0,0-7.32.29c-1-.08-1-.65-1-1.22A48.23,48.23,0,0,1,95.44,43Zm39.9-3a1.62,1.62,0,0,1,.32,0l.84,1.09-1,1.6a8.06,8.06,0,0,1-1.33-1.62C133.93,40.56,134.59,40,135.34,40ZM111,40.3l2.61,2a14.66,14.66,0,0,1-6.36-.7Zm22.13,1c.21,0,.42.21.67.65.49.83.42,1-.52,1.3-1.24.4-1.34.31-.94-.81C132.65,41.69,132.89,41.32,133.16,41.31Zm4,.51,1.77,1.49a13,13,0,0,0,.35,10.46c-.22,0-1.49,1.28-1.88,1.49-1.12-.47-3.58-9.7-.23-13.44Zm-2,2-.45,2.83c0,.23-2-1.34-1.78-2.12C133.23,43.55,134.4,43.75,135.12,43.78Zm-3.17,1c.23,0,.6.57,1,1.3.35.58.28.79-.49,1.49-1.14,1.16-1.36.78-1.11-1.19C131.51,45.41,131.68,44.77,131.95,44.77Zm2.35,2.56a.63.63,0,0,1,.39.12l.13,2.75c0,.25-2.13-.1-2.41-1.15-.36-.67,1.06-1.74,1.9-1.73Zm-2.83,2.33a4,4,0,0,1,1.09.57c.79.47.81.68.13,1.56-.8,1-1.2.87-1.32-.93C131.32,50.2,131.27,49.69,131.47,49.66Zm3.15,1.05a.27.27,0,0,1,.18.07,6.67,6.67,0,0,1,.72,3.37c-.35.41-2.18-.13-2.59-.78S133.95,50.71,134.62,50.71ZM132.37,54a3.06,3.06,0,0,1,1.16.41,2.67,2.67,0,0,1,1,.75c.22.47-.15,1.17-.63,1.75-.32.38-.62.1-1.23-1.19C132.23,54.65,132,54,132.37,54Zm3.7,1.23a.22.22,0,0,1,.12,0c.62.35.52,1.38-.22,2.15-.88.92-1.65.23-1-.94C135.31,55.69,135.78,55.2,136.07,55.19ZM84.61,80.87a2.92,2.92,0,0,0-1.75,1,1.25,1.25,0,0,1-1.38.48,6.6,6.6,0,0,0-2.81.71,4.52,4.52,0,0,1-2.09.46,6.33,6.33,0,0,0-1.52.21,8.66,8.66,0,0,1-1.09.39c-.92.27-.59.53-.06,1.72a89.28,89.28,0,0,1,5.29,21.49,101.25,101.25,0,0,1-.5,23.58c-2.56,0-4.17-.12-6.86-.07-1.84,15-6.83,27-16.79,37.74l26.95.07c3.09-8.29,17.18-14.61,17.64-14.15l.74,3s-10.13,1.46-17,14.41c.7-.42,3.24-.13,4.92,1.62a27.92,27.92,0,0,1,8.89-7l.18-.52a16.62,16.62,0,0,1,1.89-.51,9.87,9.87,0,0,0,1.25-.3,3.32,3.32,0,0,1,1.82-.35,10.79,10.79,0,0,0,3.81-.39c-5.72-15.88-7.07-30.22-4.84-46.88,2.11,0,6.73.1,6.73.1a65.93,65.93,0,0,1,2.48-13.78,53.44,53.44,0,0,1,7.6-15.77c2-3,3.76-5.18,5.84-8l-26.38.06C94.12,86.07,87.39,91,82,93.05c-1.84.7-2.1.59-2.4-.28-.54-1.56-.52-1.49.92-1.9.48-.14,2-1,4.42-2.08,5.09-2.6,8.59-7.37,10.65-10.58.82-1.27.27-1-1.13-1a4.33,4.33,0,0,1-3-1.58c-.42-.4-.61-.68-.8-.66-1.5,2.18-4,5-6,5.9Zm6.19-5a7,7,0,0,0,4.44,2.27A29.63,29.63,0,0,1,84.52,88.66l-2.11-6C87.58,80.25,89,77.82,90.8,75.84Zm43,1.9c-27.9,26-26.25,58.71-6.72,85.3l-2,1.24c-18.35-24.76-21.67-61.38,6.37-86.65Zm-17.59,3.17H123L118.39,87l-6.25,0Zm-1.07.05-3.8,6-10.26.13A43.13,43.13,0,0,1,81.63,101l-1.31-6.51A31.49,31.49,0,0,0,97.83,80.87Zm-10.42.5-2.38,2.65,2.47,2.53,2.25-2.57Zm5.38-.06-2.41,2.52,1.88,2.54,2.5-2.46Zm-11.88.46-.41,4,3.1,1,.45-3.39Zm18.85.15-2.25,3.54,3.39.05,2.37-3.52Zm-35.4.9L83.87,89,81.94,90l-2-6.4Zm-2.6,1,2.26,6.34-1.89.63-2.08-6.59Zm2.71,25c.25,8.81.38,14.12-1.09,21.87-.08.41-1.65,0-1.65,0,.2.07.89-8.75.83-14.29a87.07,87.07,0,0,0-6-31.44,9.52,9.52,0,0,1,2.72-.73C79.2,92.29,81.5,100.81,81.79,108.9ZM54.4,84.47c9,12,15.44,28.35,14.37,44.46-1,18.73-8.08,29.52-20.47,42.49l-3.19.08c14.66-14.15,21.14-26.26,21.66-42.24.59-18.38-5-30.6-14.37-43.63ZM25.59,101l0,4.38L56.3,92.14l-4.42-6.56ZM97.5,86.66l-3.34.17.11,3.39,3.48-.08ZM127.27,86l19.88,26.25-4.92,3.68-19-24.67ZM111.69,87.8l6,.09-2.3,3.84-5.75,0Zm-1.1.09c-2.74,5.12-6.51,11-8.63,20.41l-19.59,0a50.16,50.16,0,0,0-.63-6.47c8.44-3.11,15-7.76,19.79-13.91Zm3.62.27-2.55,1.48,1.56,1.81L116,90.38ZM90.89,90.06,90,93.4l3.17,1.23.59-4Zm18.27,2.5,5.71,0-2.4,4.83-5.66-.09Zm13.59-.63,18.81,24.56-1.76,1.41-18.39-24Zm-11.43,1-2.57,2.16,1.94,2.25,2.37-1.91S111.33,92.95,111.33,92.95Zm-25,.18-.79,3.25,3.3.88.59-3.49Zm-4.57,2.16-.67,3.2,3.11.85.66-3.08ZM56.11,95c.16,0-.52,3.81-1.52,4.5-.48.33-.72.26-1.14-.19s-1.58-2.44-1.58-2.44l1.1-.56c1.34,2.16,1.34,1.12,1.85-.72ZM51,97.18c.44,0,1,.54,1.57,1.61.87,1.54.84,1.64-.59,2.08-2.57.68-3.52.85-2.73-.86s1.19-2.82,1.75-2.83Zm7.64-.3,1.76,3q-10.56,27.07-34,38.83l0-3C44.72,125.17,52.27,112.69,58.59,96.87Zm47.87,1.3,5.54.1-1.48,4.27-5.89,0ZM49.29,98c-4.51,10.82-10.67,20.26-23,28.24l0-2.87C40.09,115,46.07,99.23,46.06,99.22Zm70,0c3.28.09,6.73,3.69,6.38,6.66-.25,2.09.15,3.64.72,2.79,1.25-1.89,4.93-.63,4.9,1.64,0,1.21-.82,1.41-1.28.32-.68-1.61-2.59-1.65-2.87,0s1.07,2.75,4.64,4c4.18,1,6.7,4.76,5.21,6.93-.52.57-.83.71-.92.42,0-.09-.13-.53-.23-1-.47-2.27-1.56-3.23-2.87-2.45-.66.39-.58.91-.19,1.59.51.91.19,1.26-.72.8-1.45-.73-1.92-2.46-.52-3.26,1.67-.67,1.1-.82-1-1.54-4.53-1.56-6.48-4.42-6.72-9.87.09-2.48-.25-3.37-1.41-3.71s-2.27,1-1.5,1.76c.42.39.75.74.53,1-.7.69-2.47-.43-2.45-1.63,0-.79.31-.95,1.47-1.87.32-.26,0-.74-.43-.75C118.24,100.43,118.37,98.05,119.33,98Zm-10.27.63-2.77,1.6,1.44,2,3.07-1.45Zm-53.9,1.58a.58.58,0,1,1-.58.58A.58.58,0,0,1,55.16,100.18Zm5.68.25A61.47,61.47,0,0,1,64,142.65L48.22,122a68.52,68.52,0,0,0,12.62-21.54Zm-21.35.94-14.09,6L25.32,118C33.19,112.56,36.53,107,39.48,101.37ZM53,101.28c1.39,0,.7,3.73-1.1,5-.66.51-1.11.45-1.32-.57a8.11,8.11,0,0,0-1.37-2.55c-.81-1-.8-1.08.38-1.15s2.38-.61,3.41-.74Zm-1.37,1.6c-1,0-1.33.47-.72,1.13s.92.44,1.26-.37C52.41,103.16,52.22,102.9,51.65,102.89Zm-25.41,13.8,0-9,12-5.11a36.87,36.87,0,0,1-12.08,14.14Zm107,7.29-1.6,1.62-15.55-20.42,1-2.58ZM48,103.33c.52,0,1.7,1.83,2,3.13.25,1,0,1.17-1.84,1.45-.76.21-2.8,0-2.63-.54a23.41,23.41,0,0,1,2.44-4Zm56.34.21,5.67.06-1.3,4.69-5.94-.09Zm2.51.29-2.64,1.84,2.09,2.07,2.8-1.74Zm8.9,2,15.73,20.56c-4.69,6-9.37,12.92-12.45,22C113.47,135.25,111.42,122.41,115.79,105.84Zm-63.9,1.75a.58.58,0,1,1-.58.58A.58.58,0,0,1,51.89,107.59Zm-1.81.78c1,.07.06,3.22-1.42,4.37-1.16.91-1.67.49-1.94-1.17a8.11,8.11,0,0,0-1.27-2.42c-.61-.9-.36-1,1.2-.68A15,15,0,0,0,50.08,108.37Zm52.58.77,6,0-.92,7.12Zm-58,.33c.94.88,2.12,4,1.51,4.19a9.33,9.33,0,0,1-4.26-.49c-.25-.25-.25-.26.28-1,.29-.39.84-1.16,1.22-1.72C43.78,110.09,44.16,109,44.68,109.47Zm3.31.11c-.91,0-1,.16-.54,1.14.35.8.59.87,1.2.35C49.49,110.33,49.14,109.54,48,109.58Zm104.45.62.21,3.51c-22.87,11.42-31.44,38.4-31.56,38.4L119.43,149c10.5-26,24.46-33.58,33-38.79ZM44.66,114.35c1.36,0,1.76-.12,1.75.39a5.18,5.18,0,0,1-2.8,4c-1,.49-1.07.5-1.18-.73a9.54,9.54,0,0,0-.89-3.15c-.15-.36-.75-1.19,0-1a12.53,12.53,0,0,0,3.13.42Zm3.05-.32a.58.58,0,1,1-.57.58A.58.58,0,0,1,47.71,114Zm-7.29.8c.25,0,.48.5.76,1.25.61,1.63.8,2.52.62,2.9-.28.59-4,.21-4.67-.45A38.84,38.84,0,0,1,40.43,114.83Zm2.7.41c-.54,0-.25.36.15,1.31.28.66.65.76,1.08.3.57-.61.65-1.1.29-1.36A3.62,3.62,0,0,0,43.13,115.23Zm109.47,3.55,0,1.18c-.89-.27-1.44-.65-2.46-1-.62-.21-1-.36-.44-1a10.65,10.65,0,0,1,2.84-2.32V117c-1.68.75-1.52,1.44,0,1.82Zm-66.12-1.19H92.8v4.2h4.94l-.38,4.79H92.8v4.2H86.48v-4.2H82l.36-4.79h4.15Zm14.27,0c-3.2,16-.26,32.92,4.67,46.73l-2.49.28c-3.85-11-6.91-26.77-3.8-47C99.14,117.61,100.25,117.59,100.75,117.6Zm46.91.31a.58.58,0,1,1-.58.58A.58.58,0,0,1,147.66,117.91ZM36.49,119.25a13,13,0,0,1,1.42.43,8.71,8.71,0,0,0,2.32.36c1.57,0,1.78,0,1.1,1.32A7,7,0,0,1,39,123.91c-1.09.58-1.5.5-1.44-.57a8.23,8.23,0,0,0-.72-2.9C36.51,119.73,36.14,119.26,36.49,119.25Zm6.65.51a.58.58,0,1,1-.58.58A.58.58,0,0,1,43.14,119.77Zm106.33-.08a5.13,5.13,0,0,1,1.91.61c1.85.9,1.8,1.11-.71,2.9-1.82,1.39-2.25,1.54-2.31-.65-.07-1.84.13-2.84,1.11-2.86Zm-113.92.53c.73,0,1.54,3.85.89,4.2-1,.53-4.2-.51-4.19-1.38a14.68,14.68,0,0,1,3.31-2.82Zm111.71-.16c.44,0,.5.33.46,1.55a21.35,21.35,0,0,0,.13,2.2c.09,1,0,1.1-.8.64a7,7,0,0,0-2.69-.87c-.93-.08-1-.46-.71-1.08A5.07,5.07,0,0,1,147.26,120.06Zm-109,.58c-.64,0-.48.34-.08,1.3.28.68.77.75,1.27.17.7-.81.56-1.25-.46-1.4A7.11,7.11,0,0,0,38.27,120.64Zm108.14.92a2.21,2.21,0,0,0-.81.35c-.6.38-.85.65,0,1s1.19.38,1.13-.29c0-.41,0-1-.35-1Zm-59.31.5v4.19h5v-4.19Zm54.82.36a.58.58,0,1,1-.58.58A.58.58,0,0,1,141.92,122.42Zm-94.18.65,15.87,20.51-1.05,2.67L46.21,124.6Zm105-.1,0,2.68c-1.79,1.32-13.18,9.63-19.07,23.61l-3.08,1.32A57.11,57.11,0,0,1,152.7,123ZM32,124.11a22.57,22.57,0,0,0,3,1.17c1.12.14,1.51.07,1.2.65A6.56,6.56,0,0,1,32.85,129c-1,.32-1.42.2-1.27-.41a10.34,10.34,0,0,0,.3-3.1c.15-.56-.32-1.35.1-1.44Zm-1.21.24c.66.57.53,4.15-.21,4.92-.38.4-1.5,0-3.17-.92-1.09-.62-1.3-1-.75-1.39.92-.56,3.63-2.75,4.13-2.62Zm113.39.08a5.39,5.39,0,0,1,1.28.17c2,.45,2.42.9.73,2.25a12.88,12.88,0,0,0-1.48,1.36c-.91,1.12-1.54.31-1.74-1.73-.14-1.42.07-2.23,1.2-2Zm-2.48.19c.32,0,.53.17.52.57a19.82,19.82,0,0,0,.56,3.35c.36,1,.1,1.28-.76.82a7.76,7.76,0,0,0-3.17-.53c-1,.08-1-.19-.69-1.05.53-1.52,2.57-3.17,3.54-3.17Zm-108.73.74c-.39,0-.4.52-.14,1.73.08.38.41.36,1-.08s.7-.84-.12-1.34A1.74,1.74,0,0,0,32.93,125.36Zm4.5.13a.58.58,0,1,1-.58.58A.58.58,0,0,1,37.43,125.49Zm102.36,2.25a1.77,1.77,0,0,0,1.47.1,1.7,1.7,0,0,0-.08-1.55C140.6,126.09,139.44,127.31,139.79,127.74ZM44.53,130c.35,1.66,2.66,1.57,2.4-.16-.15-1-.19-1,.31-1,2.39.12,2,3.91-.78,3.62-.57.07-.65.31-.17.51a16.58,16.58,0,0,0,2.62.68c3,0,7.32,4.63,7.21,8.75-.07,2.69.84,4.63,1.76,4.85.74.17,1.81-.5,1.71-1.32-.13-1.14.79-.78,1.32,0,.81,1.13-.23,2.76-2.15,2.63-.82.16.6.68,1.65,1,1,.05.15,1.24,0,1.45-.54.63-2.3.15-3.69-1-1.7-1.38-2.43-3.23-2.63-6.87-.13-2.34-.3-2.81-1-1.85-1.21,2.15-4.12,1.1-4.49-1.17-.2-1.2.85-2.07,1.19-1,.9,2.27,3.11,1.72,2.75-.53-.24-1.49-1.71-2.3-4.63-3.13-3.5-1-4.55-2.2-5.23-5.1-.3-1.28-.25-2,.42-2.62.33-.33.75-.67.75-.67s.47,1.95.66,2.85Zm91.69-1.84a.58.58,0,1,1-.58.58A.58.58,0,0,1,136.22,128.12Zm-110,.55c1,.38,1.94.94,3,1.31.7.24.51.8-.22,1.6a7.22,7.22,0,0,1-2.72,2v-1.62c1.36-.48,2.22-1.62-.06-2Zm112.73.9a8.06,8.06,0,0,1,1.61.16c1.66.35,1.86.49.86,1.67l-1.22,1.46c-1,1.38-1.51.91-2-.88S137.51,129.41,138.93,129.57Zm-107.52.66a.58.58,0,1,1-.58.58A.58.58,0,0,1,31.41,130.23Zm105.84,1.26c.16.59.4,1.34.58,1.87.9,2,.33,1.23-1.29,1.05-1.09-.12-2.82.06-3.25-.24-.19-.24,0-.89.33-1.61a5.8,5.8,0,0,1,2-2.29C137.38,129.49,137,130.49,137.25,131.5Zm-97.17-.71,18.13,24.13-1.42,2L38.14,132.14Zm113.61.09a46.43,46.43,0,0,0-13.78,16.27l13.82-5.37Zm-18,.79c-.52.14-1.26,1.11-.94,1.49a1.74,1.74,0,0,0,1.31.09C136.64,133,136.26,131.66,135.7,131.66Zm-79.45,26.1-3.86,4.9L32.28,136.45l5.08-3.69Zm96.43-25.47.14,9-11.82,5A48.72,48.72,0,0,1,152.69,132.29Zm-80.8.76,4.73,6.2-5.78-.13Zm59.85.51a.58.58,0,1,1-.58.58A.58.58,0,0,1,131.74,133.56ZM135.2,135c2.17,0,2.89.15,2.26,1.22-.84,1-1.34,2-2.25,3-.53.54-1.19-.58-1.74-2.36-.45-1.44-.22-1.81.63-1.82S135.09,135,135.2,135Zm-2.5,2a12.44,12.44,0,0,0,.92,2.08,6.61,6.61,0,0,1,.67,1.32c-.06.27-.31.29-.88.07-1.23-.56-4.13,0-4.21-.24-.43-.62.21-2.3,1.43-3.47a3,3,0,0,1,1.45-.95c.31,0,.37.43.61,1.19Zm-101.12-.44,20.47,26.77L50.64,165l-20.7-27.29s-3.27,1.61-4.23,2.15l.13,13.85-.56,0,.08,70.13,11.42-11.47-.15-47.59c2.42,2.3,4.5,4.74,7.27,7l4.75,0c12.4-12.7,19.2-23.57,20.69-43,1-13-3.3-29.4-14.7-45.27l-2.78,1.7,5.5,8.34L45.71,98.7c-4.64,9.85-10.14,18.94-20.2,24.14l-.06,12.75-.18.26.13,4Zm100.1.91c-.54,0-1.39,1.22-1,1.63a1.27,1.27,0,0,0,1.46-.19A1.07,1.07,0,0,0,131.68,137.45Zm-61.07,2.76,6,0L75,145.44l-5.86-.11Zm57.11,0a.58.58,0,1,1-.58.58A.58.58,0,0,1,127.72,140.19Zm-30.63.16.78,6.75a45.3,45.3,0,0,0-19.81,14c-1.06-.07-9.49.07-9.49.07.21,0,7.81-14.41,8.69-20.68ZM73.28,141l-2.76,1.91,2.16,2.31,2.85-1.95Zm57.38,0a12.17,12.17,0,0,1,2,.18c1,.2,1.17.22.82,1.06a16.37,16.37,0,0,1-1.75,3.3c-.93.58-3-3.59-2.29-4.31a2.17,2.17,0,0,1,1.22-.24ZM128,142.28c.27,0,.62.5.73.95a9.53,9.53,0,0,0,1.66,2.58c.74.83.71.95-.36,1a13.58,13.58,0,0,0-3.22.61c-1.11.41-1.26.32-1.12-1,.21-2,1.51-4.12,2.31-4.19Zm-1,4.06c.14.38,1.86-.32,2-.77,0-.2-.69-1.39-1.1-1.44C127.22,144.24,126.93,145.8,127,146.34Zm-58-.27,5.68.05-1.86,4.71-5.62,0Zm2.54.63-2.72,1.73L71,150.51l2.61-1.81Zm57.79.85c.48,0,1,0,1.1.22.3.5-.93,3.3-.93,3.3l-2,.8a12.41,12.41,0,0,1-1.35-2.79c-.07-.42.14-.58.61-.84a6,6,0,0,1,2.57-.69Zm-5.37.23a.58.58,0,1,1-.57.58A.58.58,0,0,1,124,147.79Zm-25.91.08s1.23,7,1.29,6.22c-9.48,3.59-15,8.9-17.65,14.07H63.95l4-6.2,10.53-.05A43.08,43.08,0,0,1,98.08,147.87Zm-2.28,1.64-.88,2.82L97.59,154l1-3Zm29.13.05c.23,0,.45.36.91,1.18.34.6.78,1.48.78,1.48l-.79.3c-.64-2.21-1.23-1.39-1.3.56l-1.09.44a8.49,8.49,0,0,1,.74-3c.36-.63.56-1,.75-1ZM67,151.5l5.51.07-2.3,4.81-5.6-.16Zm24,.39-.44,3.57,3,.63.41-3.39Zm-21.69,0L66.6,153.7l1.79,2.37L71,154.3Zm17.44,3.12-.56,3.29L89,159l.63-3.31Zm-60.5.19,7,7,.38,48.52-6.93,7ZM64.16,157s5.56.16,5.56.16l-2.23,4.06-1.91-.09,2.51-1.73-1.61-2.07-2.58,1.7,1.44,2.1-3.77-.08Zm35.94,1.2,1.89,6.29-2.28.4L98,159A13,13,0,0,1,100.1,158.22Zm-17.87.39,0,3.78,3,.26.12-3.54Zm15.1.6,1.73,6-1.44.41-2.07-5.68A5.87,5.87,0,0,1,97.32,159.22Zm-2.63,1.23,2.22,5.86a26,26,0,0,0-8.66,6.62,9.26,9.26,0,0,0-3.92-1.75,24.77,24.77,0,0,1,10.35-10.72Zm-33.57,1.47,5.84.18-4.06,6.11H56.29Zm17.4.23-.38,3.58,3.13,1.86.48-3.67Zm-3.77.5L72.52,165l2.36,2.71L77,164.9Zm-5,.12-2.64,2.44,2.1,2.76,2.42-2.78Zm-33.66,2.28.26,47.4-9.71,9.47-.07-2.55,7.72-8.11q0-24-.1-48.09Zm25.83-1.53-2.68,3.68h3.18l2.3-3.56ZM45.41,186.46c-1.06,3.83-5.93,8-6,7.91,2.41,3.48,2.33,8.45.2,10.89,0-.05,3.88,3.18,4.42,4.86a22.45,22.45,0,0,0,.82,2.15c.1.18.43.61.43.61C54.71,203.23,50.21,191.92,45.41,186.46Zm.14,1c9.17,11.46,3.13,22-.07,24.88l-.61-1c6.82-8,3.93-17.78,0-22.42Zm-1,2.23c.06.19.42.73.15.69l-.46-.09ZM44.48,191a.52.52,0,0,1,.46.2c.19.31-.76,2.95-1.35,2.33-.18-.35-.38-.65-.55-1s-.07-.64.37-1.06A1.64,1.64,0,0,1,44.48,191Zm1.32.71c.46,0,1.12,1.51,1.19,2.56a3.61,3.61,0,0,1-2-.74A4,4,0,0,1,45.8,191.68Zm-3.59,1.2c2.76,5.59,2.59,10,.16,14l-1.91-1.64a11.27,11.27,0,0,0-.24-10.46Zm1.86,1.4a4.65,4.65,0,0,1,1.3.24c1.85.6,1.92,1.81.14,2.71-.74.37-1,.21-1.39-1.66-.21-.92-.37-1.26-.05-1.29Zm3.57,2.14c.36,0,.52.68.56,1.85s-.19,1.2-1.08.41-1.12-1.06-.25-1.76c.26-.21.6-.49.76-.49Zm-2.52,1.83a3.29,3.29,0,0,1,1.19.7c1.26,1,1,1.63-.45,2.1-1,.33-.95.37-.92-1.37C45,198.83,44.9,198.28,45.13,198.26Zm16.73,1.58a2.22,2.22,0,0,0-1.68,3c.23.57.59.57.17.92-.46.54-.71,1.78-.2,2.24s.76-.25.12.92l-11.62,21.5,69.76-.13L110,212.49s.67-2.61-.67-2.92a1.11,1.11,0,0,1-.76-.89,2.65,2.65,0,0,0-.8-2.14,47.18,47.18,0,0,1-17.15-.61c-6.86-1.55-11.75-4.24-14.94-5.08A36.21,36.21,0,0,0,61.86,199.83Zm3.76.15a41.6,41.6,0,0,1,15.69,3.48,58.43,58.43,0,0,0,13.75,3.89,55.67,55.67,0,0,0,11.46-.05,1.22,1.22,0,0,1,1.13.32c.77.86.25,1.4-1.68,1.58a47,47,0,0,1-10.32-.37,61.29,61.29,0,0,1-16-4.32c-6.15-2.33-11.8-3.1-16.27-2.42-2.45.38-2.81.44-2.8-.23,0-1.29,1.08-1.88,5.05-1.88Zm-17.71,3.75c-.24.55-1.92-1.25-1.9-1.75a9.93,9.93,0,0,1,1.94-1.48c.26-.2.24-.1.25.14A13,13,0,0,1,47.91,203.73Zm-2.59-1.32c.78.11,2.05,2.21.93,2.54s-1.9.47-2-.2c.51-1.65.71-2.3,1-2.34h.09Zm45.11,7.2a72.08,72.08,0,0,0,15.7,1c2.44-.25,2.95-.17,2.93.85,0,.64.06.63-3.08.62a60.82,60.82,0,0,1-7.49-.24,50.93,50.93,0,0,1-14.38-2.7c-4.87-1.27-9.1-3.72-13.87-4.22-4.37-.43-8.31.35-9.13.81-.28,0-.42-.41-.4-.79a1.13,1.13,0,0,1,.46-.9C73.71,200.9,80.42,207.72,90.43,209.61ZM47,205.39c.42,0,.28.63-.4,1.95-.58,1.12-.81,1.12-1.14,0s-.32-1.37.38-1.54A11.47,11.47,0,0,1,47,205.39ZM44,206c.49,0,1.18,2.24.83,2.66s-1.3.11-1.6-.29C42.78,207.76,43.4,206,44,206Zm21.92.6a31.67,31.67,0,0,1,5.67.5,19,19,0,0,0-3.11,1.35A18.65,18.65,0,0,0,66,206.62Zm2.53,2.71c6.87-3.86,9.78,1.47,10.77,2.33,6-1.34,7.19-.68,10.54,3,6-3,8.93-.44,11.44,1.15,2.95-2.77,6.68-2.85,8.63-1.46a11.7,11.7,0,0,1,.91,1.62c0,.18-.24,0-.92-.52-3.53-2.54-9.4.63-7.83,4,.42.9.35,1.29-.28,1.66a1,1,0,0,1-1.37-1.44c1-1.73.26-3.17-2.28-4.51-3.57-1.88-9.41.23-8.21,3,.77.89.06,1.51-1,1.48s-1.54-.81-.8-1.64c.92-1.06.68-2.13-.39-3.35-3.21-4.6-9.7-2.78-8.84,1.25.38,1-.7,1.41-1.81,1-.71-.28-.6-1.39.17-1.78.89-.09,1-1.39.91-2.23-.15-1.22-1.94-2.41-3.7-3a8,8,0,0,0-3.39-.47,2.84,2.84,0,0,0-2.75,3.55c.19,1.19-.14,2.43-1.53,1.77-.76-.36-.57-1.23.21-2,2.73-2.69-2.77-6-6.09-3.7a2.48,2.48,0,0,1-1,.55C62,204.23,68.54,209.12,68.48,209.33Zm9.05-.7,4.15,1.57a12.12,12.12,0,0,0-2.31.73Zm-10.84,1.7c-3.83-.73-4,3.58-1.54,4.28-3.43,4.75,5.56,6.59,3.91.73,4.56.83,3.73-4.39.34-4.35.79-1.95,7-.47,6.78,1-4.23.45-2.54,4.33-.71,4.34-4.42,4.21,4.43,8.1,4.19,1.75,3.55.75,4-4,.55-4.3,1.25-1.77,5.71-.65,7,1.37-3.52.47-3.3,3.59-.55,4.09-3.49,4.48,5.1,6.13,4.21.93,3.08,1.07,4.77-3.07.78-4.25,4.09-2.45,8.53,1.2,8,1.28-4.67-.28-3.74,4.43-.36,4.17-2.15,4.89,6.36,5.16,4.21.09,3.83.07,3.49-4.4-.17-4.7,2.31-1.7,4.91-1.84,6.59-.26-3.49.92-2,5,1.47,3.88.32,3.42,3.09,2.69,3.15,2.59l2.47,4.64-66.94.11,5.71-10.62a2.72,2.72,0,0,0,3.11-3.18c2.25,1.61,4.66-2.4,1.38-3.55,2.68-2.83,6.66-.22,6.43,0ZM44.9,210c-.14.14-.18.23-.41,0C43.91,209.38,45.5,209.32,44.9,210Zm13.84,1.78c.29.24.09.91-.15,1.14-.6.65-.81.6-.28-.52.16-.34.31-.62.42-.61Zm29.33.3,3.48.85-1.65.94A21,21,0,0,0,88.07,212.11Zm10.88,1.41,3.79.24a9.35,9.35,0,0,0-1.6,1.29A12.56,12.56,0,0,0,98.94,213.52Zm12.61,3.89a18.76,18.76,0,0,1,1,2C111.3,219.64,111,217.81,111.55,217.41Z"/><path id="path12536" class="cls-4" d="M48.35,64.85C44.22,58,39.87,51.38,34.44,45.71,39.87,40,44.22,33.4,48.35,26.57,52.48,33.4,56.82,40,62.25,45.71,56.82,51.38,52.48,58,48.35,64.85Z"/><path id="path12538" class="cls-4" d="M14.55,56.3a45,45,0,0,0-5.79-8,45,45,0,0,0,5.8-8,45,45,0,0,0,5.79,8A45,45,0,0,0,14.55,56.3Z"/><path id="path12540" class="cls-4" d="M130.44,184.81c-4.13,6.83-8.48,13.47-13.91,19.14,5.43,5.67,9.78,12.31,13.91,19.14,4.13-6.83,8.48-13.47,13.91-19.14C138.91,198.28,134.57,191.64,130.44,184.81Z"/><path id="path12542" class="cls-4" d="M164.24,193.35a45,45,0,0,1-5.79,8,45,45,0,0,1,5.79,8,45,45,0,0,1,5.79-8A45,45,0,0,1,164.24,193.35Z"/><path id="path12544" class="cls-4" d="M15.18,35h2.64l-3.88-9.72-3,4.11L11,35h2.08v2.89H5.74V35H8.16V14.05H5.74V11.54h7.45v2.62H11.13l0,10.18,6.5-10.27H15.3V11.54h7.93v2.53H21.13l-5.36,8.39L21,35h2.33v2.89H15.21l0-2.9Z"/><path id="path12546" class="cls-4" d="M163.6,214.7H161l3.88,9.72,3-4.1,0-5.61h-2.08v-2.89h7.34v2.89h-2.42v20.9h2.42v2.53H165.6V235.5h2.06l0-10.18-6.5,10.27h2.3v2.53h-7.93v-2.53h2.09l5.36-8.39-5.24-12.5h-2.33V211.8h8.15l0,2.9Z"/></g></g></g></svg>