<svg xmlns="http://www.w3.org/2000/svg" viewBox="0 0 178.78 249.65"><defs><style>.cls-1{fill:#fff;stroke:#000;stroke-width:1px;}.cls-2{fill:#d40000;}.cls-3{fill:#e2cf00;}.cls-4{fill:#131f67;}</style></defs><title>KH</title><g id="Layer_2" data-name="Layer 2"><g id="svg11376"><g id="KH"><rect id="rect6355-6-85-90-3-5" class="cls-1" x="0.5" y="0.5" width="177.79" height="248.65" rx="8.5" ry="8.5"/><path id="path163-0-2-7-7-1-8-7-00-1-2" class="cls-2" d="M14.21,56.3S12.44,53.75,10,50.76c-1.6-2-2.88-4.17-3-6-.14-2.13,1.15-4.27,3.49-4.37s3.28,1.64,3.67,3.08c.39-1.44,1.33-3.19,3.67-3.08s3.63,2.24,3.49,4.37c-.12,1.87-1.4,4-3,6C16,53.75,14.21,56.3,14.21,56.3Z"/><path id="path163-0-2-7-7-1-8-1-9-4-6-8" class="cls-2" d="M164.57,193.35s-1.77,2.54-4.16,5.53c-1.6,2-2.88,4.17-3,6-.14,2.13,1.15,4.27,3.49,4.37s3.28-1.64,3.67-3.08c.38,1.44,1.33,3.19,3.67,3.08s3.63-2.24,3.49-4.37c-.12-1.87-1.4-4-3-6-2.39-3-4.16-5.53-4.16-5.53Z"/><path id="path39-51-8-0-0" class="cls-2" d="M16.14,36h2.64L14.9,26.24l-3,4.1L12,36H14v2.89H6.69V36H9.11V15.06H6.69V12.54h7.45v2.62H12.09l0,10.18,6.5-10.27h-2.3V12.54h7.93v2.53H22.09l-5.36,8.39L22,36h2.33v2.89H16.16l0-2.9Z"/><path id="path39-3-9-6-0-8" class="cls-2" d="M163.94,214.7h-2.64l3.88,9.72,3-4.1,0-5.61H166V211.8h7.34v2.89H171v20.9h2.42v2.53h-7.45V235.5H168l0-10.18-6.5,10.27h2.29v2.53h-7.93v-2.53H158l5.35-8.39-5.24-12.5h-2.33V211.8h8.15l0,2.9Z"/><path id="path3876-2-1-7" class="cls-3" d="M65,211.44a227.63,227.63,0,0,0,43,.93c3.81,5.3,11.45,16.12,11.45,16.12l-69.25.57Zm-18,3.69c1.86-3.78,2.22-7.42,1.86-12.67-.28-4,2.22-7.16,4.8-6,2,.93,1.07,4.74-1,3.93-.79-.31-1.48,0-1.37,1.78.18,4.46,1.36,9.48.35,13.76C51,220.13,45.33,218.22,47.06,215.13Zm-17.4-5.83a3.32,3.32,0,0,1,4.19-4.89c1.16.55,1,1.74-.47,1.11-2-.89-4.25,2.26-2.47,3.52.82.58,1.13.5.51-.22-1.66-1.95,2.59-2.81,2.46-1.53a23,23,0,0,1-.47,2.53C32.55,211.19,30.88,210.49,29.66,209.3Zm6.1-13.92a3.65,3.65,0,0,1,.31-5.23c.7-.77-5.63-12.67-4.83-12.75,8-.86,16.08-.21,24.09,0,0,0-4.27,7.75-6,11.59-.69,1.55.92,3.37.25,4.51-2.06,2.27-.78,4.79-2.07,4.91a26.2,26.2,0,0,0-11.07,0c-.32,0-.27-2-.72-3Zm34.61-82.74c4,20.77-1.92,42.78-15.58,57.3-1.93-1.87-3.41-5.42-5.33-7.74-5.34-1.62-9.18.29-12.93,2.15a21.1,21.1,0,0,0-10.73-3l-.12-3.21c3.7-.08,7.6.26,10.89,2.32l5.15-2.11L25.66,141.52l.22-2.87,19.49,19.84,2.51.09c-5.51-14.79-.69-38.29,22.49-45.94Zm27.17,26,2.82,13.56s-15.8,15.8-24.1,23.87l-6.94-.64c3.46-5.2,5.44-10.46,7.74-15.71Zm56,18.6c-6.61,7.47-14.52,12.23-23.29,17.46-3.51-4-7.77-8.31-10.23-12.21,7.66-4.13,15-7.33,22.45-14.55-.41.47-9.56,3.6-9.54,3.24-.33,1.54-.13,2.49-1.62,2.9-1.76-2.49-3.47-4.5-6.25-5.61a6.3,6.3,0,0,1-2.71-.67c.78-.16.44-9.7,0-9.81.85-.28,1.72-.94,2.89.37.54.37,5.82-5,7.62-6.83,7.05-.59,13.3.12,20.25-.07-.05,8.49.43,17.29.43,25.78Zm-44.78-21.5c-.18-.36-2-14.43-.27-23.25,4.64-14.84,3.46-19,15.46-33.58.79-.78,3.55,1.73,5.61,6.08,6,3.81,13.67-1.11,13.67-1.11s3,2.46,9.72,3.8l-.12,2.64c0,.77-7.58-.82-9.21-2.35,0,0-5.65,1.9-5.65,2.25C138,91.76,153,105.8,153,105.8l-.08,3.29c.1,0-20.64-21.71-20.91-19.44,5.87,25.5-4.12,38.42-23.28,46.14Zm-24.94-4.48-.33-13.49,12.7.15.52,13.63ZM25.7,116.72c.34-.48-.49-25.14-.44-25.14,8.08-8.12,16-12.66,23.92-17.6,3.58,3.58,6.63,6.61,9.27,11l-10.94,6.8c.42,1.66-.66,2.26,6.39,8.71.12-.44,2.44-1.76,2.85.21-1,4.15.42,7.68.61,9.91-1,1.31-3.11-.1-3.11-.1-1.39-1.47-6.85,5.77-8.41,6.58C39,116.8,25.32,117.26,25.7,116.72ZM102.1,72.87c0,.08,7,0,6.93.17-1.26,3.13-4.14,9.35-7,16.24C99.59,93.29,82.35,110,82.35,110c-.82-4.84-2-9.57-3.33-14.28Zm30-23.25c2.5,1.08,9.52.51,10.64,0,1.43,1,.54,2.28.36,3,1.47,1.87,2.27,2.54.6,5.56-.38,0,5.12,12.51,5.27,12.52s-5.81-2.79-7.86-4.67l-4,5.39-4.66-6.08c0,.55-9,6.55-9.08,6.26-.28-.29,8.18-9.49,6.5-14.89-.4-1.3.52-2.63,1.15-3.77.43-.79-.15-2.31,1.09-3.36Zm-4.65-1.12c.38-.44-2.17-11.75.59-16.32,1.17-1.66,3.29-1.75,4.17-.39.68,1.89-1.34,4.52-1.74,5.81-1.31,3.58.64,8.3-.32,11.69-2.85,7.39-7.89-.73-2.71-.79Zm18.95-5c-1.5.07-.45-4.47-.21-5.76,0-.26,2.75-.91,3.74.88,1.6,2.66-.32,6-3.53,4.89ZM128.48,20.63,114.35,38c-14.29-1.66-28.63-2.72-43.25-.46L59.35,21Z"/><path id="path3874-3-1-4" class="cls-4" d="M154.7,19.56H24.08V230.09H154.7Zm-26.35,1.09L112.69,40.12l-.39.13a91.57,91.57,0,0,0,4,9.86c2.26,4.73,8,13.41,4.41,20.36-.35.6-.67.89-1.11.88-.6,0-.59-.36-.23-1.06a15.1,15.1,0,0,0,1-7.1,27.87,27.87,0,0,0-2.16-6c-5.95-11.1-7.81-17-7.47-17a1.34,1.34,0,0,0-.43-.17l-.58-.2c2.06,7,5.41,12.92,8.06,18.39,2.17,5.08,2.41,7,1.27,10.75-.44,1.43-1.24,2.35-2,2.34-.59,0-.55-.12-.15-.85,2.08-3.78,1.6-7.91-1-12.71-3.76-7.93-6-12.95-7.36-18,0,0-.69-.22-.92-.28,1.12,5.29,4.23,11.4,7.14,17.65,2.4,4.81,3.09,8.32,2.23,11.09-.28,1.2-1.19,3-2.33,3-.45,0-.52-.24-.09-.86,1.78-3.08,2.09-5.92-1.09-12.4-2.93-6-5.86-12.61-6.86-18.43-.06-.48-1.34-1-1.06-.25,1.57,6.87,4.7,13.91,8,20.77,1.87,4.26,2.06,7,.66,9.37-.79,1.33-1,1.63-1.57,1.65s-.68,0-.3-.77c1.7-3.58,1.42-6.74-.85-11.91-3.11-7.1-5.73-13-6.85-19.22-.2-.06-1.25-.47-1.1-.16a102.07,102.07,0,0,0,6.11,17.06,57.21,57.21,0,0,1,2.81,7.59c.89,3.6-1.11,8.53-3.73,8.78-1,.09-.85-.4.23-1.42,1.87-1.76,2.23-4.57,1.6-7.83a41.28,41.28,0,0,0-2.43-7.94c-2.28-5.53-4.77-11.33-5.55-16.43,0-.46-1-.46-.72,0a58.64,58.64,0,0,0,3.39,11.48c1.62,4.16,4,8.81,4.81,13.92.64,4.17-1.93,8.11-5.05,8.35-3.76.28-4.5-3.48-3.6-5.25,1.48-2.64,5.76-1.13,4.49,1.57a1.48,1.48,0,0,1-2.88-.56c0-.16.21-.62.17-.65s-.41.26-.51.45c-.76,1.38,1.53,3.23,3.12,2.12,5.33-2.92,1.73-11.82-.59-17.26a56.4,56.4,0,0,1-4.61-14.34c-.19-.14-1.07-.36-1-.2.65,2.5.94,4.62,1.58,6.72,1,3.3,2.81,7,4.28,10.69s2.68,6.73,2.07,10.53a2.08,2.08,0,0,1-.44,1c-.24.25-.44.21-.51-.75,0-.13-.19-.3-.22-.47a11.83,11.83,0,0,0-.33-4.18,20.43,20.43,0,0,0-2.16-4.45c-.49-.81-1.79-3.3-1.33-1.58a23.57,23.57,0,0,0,2.07,4.69,9.67,9.67,0,0,1,1,4.13c-.19.5-.62.53-.83.36s-.18-.86-.23-1.3a13.68,13.68,0,0,0-3.28-6.17c-.91-1,2.14,4.36,2.36,5.79.09.61.28,1.1.08,1.4s-.41.2-.68.13-.25-.25-.52-1.17A9.28,9.28,0,0,0,100.3,60c-.41-.49-.68.12,0,.92a9.16,9.16,0,0,1,1.81,4.23c-.59.84-.87.68-2.1-1.45-.81-1.41-1.3-1.77-1.51-1.76-.54,0,0,.7,1.48,3.1.78,1.28.8,2.08-.09,2.08a9.53,9.53,0,0,1-2.41-2.69c-.35-.68-.79-1.19-.79-.37A10.79,10.79,0,0,0,98.43,67c1.13,1.32,1.45,1.59,1.6,2.17.07.28.21.77.3,1.08.29,1,.14,1.22-.44.72-.26-.71-.48-.78-1.21-1.32a12.12,12.12,0,0,1-2-2.48c-.21-.32-.39-.72-.61-1-.55-1-1.27-1.12-.75-.08a15.6,15.6,0,0,0,1.08,1.87c.71,1,.56,1.55-.28,1.55-.36,0-1.37-1.34-2-2.38-.41-.68-1.05-1.16-1-.49a7.91,7.91,0,0,0,1.26,2.3c.81,1,.92,1.56.13,1.55-.54,0-1-.52-1.68-1.57s-1.05-1.35-1.24-1.24.93,2.13,1.89,3.21.24,1.61-.8.7a11.59,11.59,0,0,1-2-2.67c-.57-1.25-.93-.91-.56.08A9.07,9.07,0,0,0,91.91,72c.4.41,1.22.73,1.62,1.08,1.13,1,1.85,1.91,1.76,2.07-3.23.18-5.89-3.31-6.62-5.42-.52-1.39-1.1-1.59-.55.37C89.7,75,94.62,77.52,98,75.33c2.05-1.32.24-4.75-1.44-3.65-.45.3-.48,1.15.1.7,1.09-.86,2.19,1.26,1,1.88-1.67.88-3.53-.84-2.39-2.93s5.63-.92,4.75,2.55a6.17,6.17,0,0,1-4.88,3.53c-3.73.07-6.3-2.82-7.73-5.67-.18-.37-.51-1.09-.79-1.68a7.39,7.39,0,0,0-.44-.88c.42,3.46,3.69,7.75,6.62,8.46,4.87,1.16,6.2-1.78,9.39-4.81,0,0,2.33.31,2.41.25a28.79,28.79,0,0,1,4.66-.2,106.39,106.39,0,0,0-1.12,98.74c1,2.11,1.16,1.71-.48,1.28s-3.23.24-4.61-.08c-2.85-.59-3.46,1.38-5.65,2.43-2.73,1-2.11,3-2.76,4.82-.21.29-.35.52-.24.48a1.72,1.72,0,0,0,.81-1.09,4.49,4.49,0,0,1,1-2.69c.47-.47.8-.7.91-.5a1.7,1.7,0,0,1-.21,1.15c-.66,1.27.22,5.5.27,2.49a7.53,7.53,0,0,1,3.48-6.15c1.61-.79,2.1-.71.8.51A8.66,8.66,0,0,0,99,180.06c0,1,.35,1.77.49.9-.06-4.42,4.31-9.34,9-6.9.23.17.43.49.36.67-4.54-.77-8.48,1.74-7.9,7.67a19.56,19.56,0,0,0,.63-2.32c.71-3.63,4.78-5.22,7.63-4.23.54.23,1,1,.88,1.1-3.49-1.11-7.31,2.23-7.53,5.84-.07,1.17,0,2.18.55.06,2.25-8,9.19-4.39,8.34-3.73-5.37-.65-7.32,3-7.19,7.24.08.39.27.52.43.88a13.2,13.2,0,0,1,1.1,5.85c-.05.74.55,5.49-.06,5.29-2-.73-3.44-1.59-6.82-.05-.3,0-.4-.15-.3-.42a10.25,10.25,0,0,1,1.59-2.12c2.08-2.24.88-1.64-.82-.09-1.1,1-.86.32.18-3.11.42-1.39.16-1.56-1.65-2.49s-3.16-1.1-1.57-.1a13.39,13.39,0,0,0,2,1.07c.83.46.73.65.12,2.65-1.18,3.89-1.6,5.31-1.53,7.93.15,6.36,6.14,5.73,9.56,4.3l.14,4.19,12.85,18.31s-44.92,0-69,.35c1.37-3.33,15.9-17.45,16.77-20,.08,0-1.61-5.16-2.5-7.41-4.2-10.63-9.73-15.1-6.53-22.08.69-1.38.81-1.85,1.33-1.85.71,0,.94.48.14,1.83-3.43,5.83,3.89,15.88,6.37,22.29a73.19,73.19,0,0,1,2.35,7.46c0,.5,1.19.66.87.09-.91-3.28-2.06-6.85-2.59-8.14-2-4.73-4-8-5.92-12.59-1.07-2.92-1.63-6.3,0-9.33.6-1.1.77-1.72,1.17-1.77s.54.12.57.4a3.35,3.35,0,0,1-.62,1.59c-2.89,5,2.25,13,4.79,18.73a45.47,45.47,0,0,1,3.65,11.2.58.58,0,0,0,1,.45c-1.1-6.62-4.33-13-7.16-19.21-2.42-4.83-3.33-9-.09-13,.28-.27.88-.23.93.18a5.23,5.23,0,0,1-.69,1.86c-2.85,6,1.56,10.92,3.63,16.66,2,4.8,3.9,8.84,4.65,14,.57.22.85.49.92-.23-1.48-7.23-4.66-13.73-7.42-20-1.28-2.72-1.73-4-1.81-5.85-.12-2.51,1.13-5.68,2.25-6.51.29-.22.47-.25.74-.11s.29.33-.43,1.7a10,10,0,0,0-.22,8.68c2.19,4.79,4,8.71,5.35,12.23a42.23,42.23,0,0,1,2.56,10.21s1,.44.83-.22a55.45,55.45,0,0,0-3.47-12.3c-1.4-3.5-3.16-6.86-4.59-10.33a8.85,8.85,0,0,1,3.25-11l1.63,0c-.09,0-3.72,1.41-3.91,6.66-.18,5,2.16,8.06,3.85,12.3,2.06,5.1,3.91,9.58,4.34,15a1.53,1.53,0,0,0,1,.15,53,53,0,0,0-3-11.44c-1.61-4.56-3.2-6.58-4.7-11.36-1-3.24-.87-7.62,1.37-9.62,3.36-3.44,8.06-1,6.88,2.94-.91,2.77-4.66,2.22-4.64-.38a1.46,1.46,0,0,1,2.71-.86c.16.25.26,1.32.33,1.36a3,3,0,0,0,.28-1,2.3,2.3,0,0,0-3.21-1.84c-1.88,1-3.11,3.16-3,6.1.13,3.13.69,5.16,3.23,10.07,3,5.72,3.93,11.92,4.56,16.1.27-.12.6,0,.71,0a48,48,0,0,0-4.59-16.41c-2.79-5.89-3.58-9.49-2.64-12.13.14-.39.27-.68.44-.71s.41.46.7,1.52a3.46,3.46,0,0,1-.09,1.23c-.24,2.41,1.43,7.44,3,9.67.46.64,1,.62.54-.52a19.22,19.22,0,0,1-2.71-9.11c0-1,1.16-.57,1.19-.05a12.18,12.18,0,0,0,1.05,5.11c1.63,2.81,2.53,2.93.87-.21-.37-.73-1.43-3.81-1-4.87.24-.21.53-.25.67,0a12.14,12.14,0,0,0,2.27,4.8c.6.7.7.38.39-.49-.53-1-2.19-4.38-1.42-5.14.25-.21.1-.09.77,1a12.5,12.5,0,0,0,1.89,2.59c.6.6.75.2.13-.86-1.24-2.1-2-3.85-1.51-4.29s.54-.23,1.52,1.46c.44.75,1.07,1.86,1.29,2.12s.41.33.42.11a8.27,8.27,0,0,0-2.66-4.77,11.5,11.5,0,0,1-.06-1.8c2.6,1.36,2.71,2.89,4.44,5.24.18.17.43,0,.36-.36a14.15,14.15,0,0,0-1.72-3.26c-.5-.68-.53-1.06-.1-1.26.69-.32,1.65.72,2.68,2.57.48.86,1.11,1.36,1.12.91a10.29,10.29,0,0,0-1.5-3.1c-1-1.07-.52-1.81.66-.83a5.33,5.33,0,0,1,2,2.41c.44,1,.81,1.07.81.31A6.5,6.5,0,0,0,85.77,178c-.74-.45-1.16-.95-1-1.28.65-1,3.27,1.49,4.16,3.77.26.67.73,1,.84.72s-.33-1.8-.87-2.56c-.9-1.74-3-3.42-4.28-3.22-.24,0-.91-1.39-.91-1.39,3.21-.52,6.33,3.36,6.89,4.82,1.05,2.76,1.59,2.44.67,0-1.8-4.73-7.39-7.38-10.49-5.09-1.77,1.3-.71,4.42,1.11,3.89.72-.27,1.42-1,.15-.77a1.26,1.26,0,0,1-.42-2.47c2.32-.7,2.85,3,1,3.86a2.53,2.53,0,0,1-3.7-2.57c.34-4.07,5.3-5.25,10.19-2,1.38.93,3.07,3.95,3.65,5.86.19.63.84.85.92.77s-1.36-3.55-1.87-4.41c-2.13-4.93-9.83-5.17-9.83-4.92a28.33,28.33,0,0,0-5.69,5.08l-6.88-.64c17.53-28.45,18.91-70.27.93-99.88.23.15,3.46,1,4.57.11a1.91,1.91,0,0,1,2-.21,3.08,3.08,0,0,0,3.21-1c.84-.77.85-1,1.39-.94,1.6.21,2.66-.73,3-3.06.13-.91.22-1.86.09-1.72a9.14,9.14,0,0,0-.38,1.37A3.7,3.7,0,0,1,83,72.53c-.87.73-1.37.32-1-.79a4.89,4.89,0,0,0,.16-3.41c-.08-.15-.1.42-.22.88-.95,3.64-1.94,5.5-3.66,5.92-.81.2-1.18.08-.92-.39,3-3.26,2.83-6.88,2.6-6.57-.64,2.09-1.84,5.21-3.81,6.49a5.5,5.5,0,0,1-5.57.28c-.79-.53.4-.68,2.18-.71,3,0,5.79-4.08,5.33-7.48-.11-.63-.28,0-.52,1.08-1.1,3.69-3,6.28-7.33,5.5a1.83,1.83,0,0,1-.75-.42c-.7-.49-.45-.83,1-.65,3.13.41,5.85-2.55,5.84-6.13,0-1.72-.25-1.7-.52-.42-.38,1.81-1.77,7.34-6.83,5.53-.91-.5-1.41-1.14-1.08-1.23,3,.6,5.66-.05,6.71-4a8.24,8.24,0,0,0-.12-4.73c-.15-.94-.46-1.66-.56-2.61a53.47,53.47,0,0,1-.57-8.18c.24-.24.28-.19,1.13.38,1.67,1.12,2.93.86,4.63.2,2.18-.8,2-.65-.3,2a13.13,13.13,0,0,0-1,1.31c-.58,1.1.51.29,1.33-.74,1.13-1.44,1.37-1.77,1.6-1.77a19,19,0,0,1-.77,4.72c-.38,1.41-.37,1.74.52,2.1.39.16,1.13.47,1.55.67,1.87.9,1.69.17.21-.68-2-1.15-2-1.09-1.45-3a47.92,47.92,0,0,0,1.37-6.38c.9-5.47-3.18-8.48-8.6-6.57-.31.16-.67-2.87-.62-3.68,0-.29-.82-.23-1.53-1.11.22-.2-8-10.6-11.82-16.9,23.81.06,47.27-.44,68.81-.38ZM110.71,40.19l.08.06S110.73,40.19,110.71,40.19Zm18.59-19h23.63v50.3l-2.34.05s-3.84-6.68-4.85-9.83c-.25-.79-.69-1.87-.87-2.3-.39-1-.66-1.08-.14-1.67a4,4,0,0,0-.18-4.72c-.31-.37-.47-.25-.46-1.15a3.83,3.83,0,0,0-.12-1.68c-.34-.67-.57-.72-.08-1.46a12.85,12.85,0,0,0,1.48-3c.46-1.6.14-1.89,1.17-1.52a3.52,3.52,0,0,0,4.69-3.67,3.7,3.7,0,0,0-4.5-3.59c-.55.14-.66.09-1.51-.45a6.08,6.08,0,0,0-.93-.6c-.39-.15-.72-.14-.88-.42A3,3,0,0,0,140.87,34a5.07,5.07,0,0,1-2-.37c-.42-.22-1.62,0-3.13-.27a5.49,5.49,0,0,0-1.54.17c-.93,0-.55-.1-.73-.82-1.17-3.73-4.58-3.29-6.15-.48a14,14,0,0,0-1.21,4.43L117,36.51Zm-71.14.11c3.43,4.41,6.72,9.36,10.18,13.87,4.26,5.46,4.4,6.09,3.26,11.58-.64,3.11-.91,3.82-2.21,3.59a2.15,2.15,0,0,0-2.41,2c-.31,2.3,1.88,3.72,4.09,2.57,1.16-.61,1.2-.67.81,1.33-.55,2.87-1.67,5.35-2.38,5.27-1.85-4-6.34-1.14-4.85,3-.47.72.15,1.63.38,2.38a12.69,12.69,0,0,1-2.56.95c-12.6,3.77-28,13.62-36.51,22.86V21.44Zm72.32,9.44a2.05,2.05,0,0,1,1.46.54c1.1,1,.84,2.39-.68,5-1.59,3.66-1.16,6.54-.79,10.38,0,2.23-.76,4.35-1.94,5.27a2.11,2.11,0,0,1-3.3-2.52c.51-1,1.6-.42,1.85-1.36.35-3.49-.51-7.05-.56-10.48a12.82,12.82,0,0,1,1.21-4.91,3.46,3.46,0,0,1,2.76-1.93Zm3,6c-.44.37-1.16.37-1.25-.08a5.21,5.21,0,0,1,.63-2.18C134.46,34,134,36.26,133.5,36.66Zm2.36-2.39c1.3-.05,2.16,3.32,1,5.29-.21,0-1.79,0-1.8.06a9.16,9.16,0,0,1,.19-1.73,3.32,3.32,0,0,0,0-1.63c-.43-1.54-.71-1.83.59-2Zm2.48,0h.15c1.32,0,2.08,2.59,1.66,5.41-.06.41-.09.83-.24.93a6.25,6.25,0,0,0-2.11.4,3,3,0,0,1,.11-1.68,5.67,5.67,0,0,0,0-3.62c-.31-1.2-.32-1.42.39-1.45Zm3.29.74c1.45.25,1.55,4.32,1,5.64-.14.2-.69.15-.89.22-1.24.36-1,.54-.82-1.45a13.87,13.87,0,0,0-.08-3.55c-.1-.5-.14-.84.22-.87a1.5,1.5,0,0,1,.62,0Zm-7.25,1.59c.58.8.11,2.66-.33,3.35s-.71.82-.43,1.16a1.64,1.64,0,0,1,.21,1.16c-.28.56.43.66,1.08,1,1,.55,1.56,1.58,2.34,3.44.27.65.83.44.56-.25s-.32-1.48-.48-2.07,0-.91.7-.73c1,.27.89,0,1.27-.12.83-.47,1.39.19.89.56a6.37,6.37,0,0,1-1.58.53c-.58.16-.44.72.14.72a17.68,17.68,0,0,0,3.07-.75c2.87-.88,3-1.35,2.7.31A5,5,0,0,1,141,49.33a17.44,17.44,0,0,1-7.36-.17c-1.66-.76-1.77-1.29-2.27-2.77-.69-2-1.09-5.45-.3-7.44.69-1.68.63-1.5,1.29-1.42a1.42,1.42,0,0,0,1.56-.39c.09-.18.32-.5.42-.49Zm11,1.21a4.49,4.49,0,0,1-.13,2.52c-.18.33-1.18.31-1.57.31-.23.05-.21-3,0-3.38.58-.89,1.34-.17,1.67.54Zm-29.14-.54,2.84,0v.7l-3.36,0Zm10,.12v.91h-4.28v5.7l4.79,0,0,1.19-6.41,0,0-7.8h5.86ZM148,37.26c4.39,1,2.43,5.9.79,6.2-2.05.37-3.79.14-3.22-1.69.57-1.24.17-2.79.34-3.91A2.85,2.85,0,0,1,148,37.26ZM114.86,39l4.23,0V40h-4.83Zm9.39.87A1.24,1.24,0,1,1,123,41.1,1.23,1.23,0,0,1,124.25,39.86Zm11.92.49c.79.09.85,1.31.53,1.66a.88.88,0,0,1-1.41-.4A1,1,0,0,1,136.17,40.35Zm-22.49.53,5.41,0v.76l-5.46,0-.14-.49Zm30.43.33c.75,0,1.21.62.74,1.17C144.15,43.17,142.71,42,144.11,41.21Zm-57.6,1.67c-1.21,1-.24,2.05,1.37,1.07,3.46-2.11,8.56-.44,11.88,1.32.65.34.74-.45.1-1-3.07-2.74-9.61-4.32-13.34-1.4Zm52.38-1.44c.84,0,.83,1.07.29,1.45a.94.94,0,0,1-1,0c-.49-.19-.12-1.48.71-1.48Zm3,0c1,.05.89,2.09-.62,1.36A.78.78,0,0,1,141.88,41.45Zm-27.94,1.05,5.25,0v.87l-4.91-.05ZM80,44.55c1.44,1.16,1,1.23-1.39.37a7.23,7.23,0,0,0-4.08.26c-1.15.46-1.42.33-.92-.45,1.34-1.53,5-1.22,6.39-.19Zm6.9,1.91c-.14.36-.64-.29-1.3-.16-.95.18-.67.23.33,1.38s1.33,1.43,1.27,1.88c-.09.66.09,1,.74.95.31,0,.68.33,1.15.77a16.58,16.58,0,0,0,3,2.5c2.18,1,1.2-.12-.2-1.1-2.32-1.62-3.12-2.71-1.48-2.13A8.17,8.17,0,0,0,96.33,50c.67-.41,1.1-1,2.05-.74,1.34.43,1.85-.37,1.48-.81-.61-.4-2-.87-3.31-1.76a8.16,8.16,0,0,0-7.74-.24c-1.16.69-1.57.2-.43-.48,4.57-2.5,8.18-.11,11.11,1.69.51.31.86.29.86.07-.08-.73-1.38-1.17-1.91-1.5-4.07-2.52-8.35-3.32-11.55.25Zm27.73-2.21h4.57v.91l-4.23,0ZM77.48,45.42c1.26,0,4,1.15,4,2.1-.05.36-.74,0-1.34-.33a6.77,6.77,0,0,0-4.6-.59c-1.28.24-1.69.46-1.87.3C73.19,45.88,76.31,45.42,77.48,45.42Zm49.37.68v1.64c-2.48.18-3,3-1.4,4.54,1.3,1.28,3.46.77,4.54-1,.19-.32.21-.52.33-.36a2.58,2.58,0,0,1,.19.7c.17.86-.07,1.08-.63,1.82a3.63,3.63,0,0,0-.46,3.81c.16.31.48.75.43.95.32,0-2.81,8.89-7.39,13.37-.77.52-1.32-.09-.93-.92,3.73-8.64-3.4-16.67-6.17-24.4l11.48-.1ZM93.72,47.59l.65.06c-.53,4-4.33,3.34-4.48.1l.55,0c.74,3,3.29,1.78,3.28-.13Zm-21.5.08a1.93,1.93,0,0,1,.27.69c0,.93,0,2.27,0,2.67-.22,3.83-5,4.54-4.65,1.26A1.26,1.26,0,0,1,70.26,52c.62,1.58.73-.38.74-1a18,18,0,0,0,1.22-3.35Zm23.08.27a1.41,1.41,0,0,1,.83.48c.31.34.2.51-.54.9s-1.16.38-.87-.46C94.9,48.34,95,47.94,95.3,47.94Zm35.83.2c.11,0,.38.15.32.57-.11.7-.7,1.09-.86.93C130.7,49.27,130.82,48.29,131.13,48.14ZM89.58,49.49c-.09.28-.26.16-.67-.2s-.44-.65,0-.94c.68-.42.72.88.64,1.14Zm-14.5-1c.8,2.56,2.43,2.24,3.16.12h.7c-.15,3.3-4.27,3.24-4.31,0Zm-1.44.32c.24,0,.07.82.07.82s-.68-.35-.28-.73A.55.55,0,0,1,73.64,48.77Zm6,.22a.84.84,0,0,1,.41.17c.4.27.33.43-.13.81-.7.6-1,.26-.64-.54C79.47,49.14,79.58,49,79.68,49Zm52.58.56a6.71,6.71,0,0,1,1.6.36,17,17,0,0,0,8.47-.14c.88-.25,1.53,1.31,1.05,2.45-.21.5-.17.56.47,1.24a3.43,3.43,0,0,1,.36,3.89c-.5,1-.47.93.13,2.67a61.7,61.7,0,0,0,5.11,10.77l-2.62-1S135,80.12,126.62,80.51l3,4.79A14.19,14.19,0,0,0,143.32,84c-.11.4,5.3,3.08,9.74,3.37l0,3.22c-3.29-.37-6.63-.45-9.69-2.41,0,0-2.81,1.19-5.63,2.09l15.78,16.57v2.77s-6.74-6.38-13.67-13.58L140,131.4l13.66.27c-.43,9.21-.26,15.06-.16,25.61A90.21,90.21,0,0,1,130,174.76a68.5,68.5,0,0,1-9.87-12.28c-.06-.09.28-.27.22-.36s-.57-.19-.66-.32c-1.71-2.58-5.67-9.73-5-9.9,1.21.08,6.84-.62,8-4a5.64,5.64,0,0,1,0-1.54,13.24,13.24,0,0,0-.07-6.46c-1.21-3.23,2.43-2.19,2.55-2V125.69c-4.73,3.85-9.5,7.64-15.83,9.22-3.93-20.12,2.3-45.15,20.09-62.13l-1-.08c-18.27,19.19-23.06,40.29-19.95,62.52,0,0,.12.69.13.93,0,.55-.09.76-.57,1.16s-.88.64-.84,1c.08.71-.6.74-1.48.73-.41-.36-1,.09-1.28.26s-.69-1.83-1.27-.44c-.22.88-.65.95-1.62.51-.61-.18-.63.13,0,.85.82.89,1.5,2.22,1.37,2.62a1.67,1.67,0,0,0,1.08,2.31c-.07,0-.75,2.73,1.18,2.65a18,18,0,0,1,2.17.33,1,1,0,0,1-.3,1l-1.34-.68-.35,1.62-1.79-.13,4.36,5.46.51-4.26,5.09.65c.82,2.15,6,14.09,15.8,23-.11.29-6.76,3.08-6.76,3.08l-1.05-3.31-.84,1.23-1.5-.39-.18,1.39-1.34.44,2.42,1.59-6.12,1.77C96.68,152.57,89,113.84,110.32,72.58l5.4.07-1.05,1.83,1.53-.25.43,1.33,1.13-.54,1.13,1.44,1.29-3.85s3.82.09,4.3,0,8.08-6.61,7.92-6.86-8.4,6-8.67,5.72c0,0-.83.2-.18-.58a29.67,29.67,0,0,0,3.16-4.51,21.6,21.6,0,0,0,3.28-8.2,1.61,1.61,0,0,0-.08-.78c-.74-1.5-.58-2.47.76-4.24.47-.62.5-.77.36-1.15a1.94,1.94,0,0,1,.6-2.17,1,1,0,0,1,.63-.35Zm-45.48,6c3.39,1.41.67,4.54-1.85,1.81C83.61,55.9,82.57,56,81.85,57c-.32.47.15,1.3.57,1s.79-.53,1.35,0c4.28,4,7.36-1.6,3.67-3-.46-.21-1.11.26-.66.45Zm-14-.14a.23.23,0,0,1,.12,0,4.52,4.52,0,0,1,0,2.11c-.54,3-2.65,10-7,6.59-1.73-1.36-.16-4.78,1.91-3.62,1.61.91.52,3.07-1.22,1.83-.85-.6-.58.64.14,1,1.21.64,3.41-.46,4.44-2.43a18.78,18.78,0,0,0,1.23-4.17c.22-1,.24-1.36.37-1.36Zm.37,5.22c.36,2.18-1.28,6-3.6,6.56-1.78.43-4-.75-3.83-1.84,0-.32.17.1,1.79.37,2.25.38,3.69-.86,5-3.7a9.26,9.26,0,0,1,.66-1.4Zm5.61,1A8.46,8.46,0,0,1,78.58,63c-.24,1-.39,1.41.71.9a3,3,0,0,1,2.89-.06A4,4,0,0,0,86,63.76c1.24-.42,1.85-.42,2.54,0,1.27.74.83.27.67-1.6-.11-1.31-.46-1.14-.92-.64a1.28,1.28,0,0,1-1.57,0,2.41,2.41,0,0,0-2.29.08c-.37.31-.92.35-1.65-.15-.49-.33-.76-.16-1.36.11a1.48,1.48,0,0,1-1.89-.21c-.48-.36-.71-.25-.72.29Zm-4.88,1.57c.13,0,.14.5.05,1.51-.41,3.74-3.29,5.82-6.69,4-1.49-.86-1.28-1.47.18-.93,2.33.86,4.69-.34,5.84-3.41C73.61,63.6,73.81,63.21,73.92,63.21Zm8.28,2.67c1.68.7,3.54.48,4-.14s-.28-.59-.71-.48a4.84,4.84,0,0,1-3.07,0C80.69,64.53,80.8,65.27,82.2,65.88ZM64.69,68A42.61,42.61,0,0,1,69,74.28c13.7,23.61,18.09,53.45,9.08,80.54A97.66,97.66,0,0,1,68.24,176l-4.69.05,1.61-1.86-2.18.16-.13-1.23-1.66.54-.8-1.86-1.5,4.26-8.7,0c20.37-20.09,24.38-44.44,20.58-64,0,0,1.7-1.08,1.94-1.71a4,4,0,0,1,.3-.9c.76-.5,1.26-1,1.63-.89a.76.76,0,0,1,.48.39c.72,1.07.87,1.23,1.26.16.28-.77.16-1.05,1.08-.9.54.29,1.26.28,1.2.17s-.82-1-1.18-1.51c-.86-1.23-1.11-1.45-1-2a2.2,2.2,0,0,0-.92-1.93c.12-2.21-.72-2.43-3.08-2.92a2.07,2.07,0,0,1,.22-1l1.39,1.12.5-2.08,1.89.11L71,92.82a41.2,41.2,0,0,1,0,4.51c-2.56-.14-5.09-1-5.13-.82A69.57,69.57,0,0,0,50.27,74l6-2.95L58,74.34l.42-1.88,1.5.27.25-1.21,1.66-.24L60,69.52Zm36,3.88c.23.29.42.32.73.58l-.62.45a2.75,2.75,0,0,0-.11-1ZM60.47,73a.94.94,0,1,0,.93.95A.94.94,0,0,0,60.47,73Zm5,.15a.95.95,0,1,0,.93.95A.94.94,0,0,0,65.52,73.11Zm-16.25.69c3,2.53,5.75,5.82,9.09,11l-.07.69,1,.38s5.55,7.42,5.26,10.72c-1.91.4-3.65-.12-7.06,3.12-1.61-.88-2.56-.6-4.23-.1a1.18,1.18,0,0,0,.6,1,2.15,2.15,0,0,1,3-.38c-.24.1-.84,7.47.33,9,.88,2.5-1.43,2-3,1.41l.46,11.71c5.28-6.12,16.44-10.2,15.65-9.75,5.6,30-7.71,50.05-21.65,64.74l7.3,0s-6.3,10.25-6.76,13.09c.36.94,1.35,2.89-.32,4.26-.57.63-.63,3.49-.63,3.49-3.84.13-7.17-1.22-11.6.36-.46.16-.56-2.45-.58-2.92-2.47-2.23-.21-6.05.13-5.77a91.43,91.43,0,0,0-6-13.06l-3.89-.22c-.31-.26-.51-7.2-.2-7.37,10.95.88,28.07-.13,28.07-.13l-4.6-6.52c-5.66-2.24-13.44,1.59-13.07,1.79,0,0-6.22-3.45-10.54-3L26,158a19.85,19.85,0,0,1,10.48,2.56l5.26-2L25.67,141.41l.19-2.83c5.25,4.93,13.87,14.48,13.87,14.48V117l-13.86,0-.37-7.27-.36-.64L25,103.86l.38-.53-.13-2.23-.13-.32-.18-5.33.3-.45,0-3.36c6.7-6.65,24-17.84,24-17.84Zm11.84,1L62.72,82l1.08-1.36,1.66.53.11-1.66L67.1,79ZM116.17,76a.95.95,0,1,0,.93.95A.94.94,0,0,0,116.17,76Zm-4.36.59a.95.95,0,1,0,.93.95A.94.94,0,0,0,111.81,76.6Zm-53.4.84a.95.95,0,1,0,.93.95A.94.94,0,0,0,58.41,77.44Zm56.74.57-6.48,6.19,1.82-.08.33,1.81,1.63-.75,1.32,1.23Zm2.76,2.08a.95.95,0,1,0,.93.95A.94.94,0,0,0,117.91,80.08ZM66.36,81.3a.95.95,0,1,0,.93.95A.94.94,0,0,0,66.36,81.3Zm4,.79a.95.95,0,1,0,.93.95A.94.94,0,0,0,70.39,82.09ZM66.74,83.5c.18,2.53.47,5.53.54,8.06l1.23-1.23,1.42.58.5-1.55L72,89.29Zm39.91,2.11a.95.95,0,1,0,.93.95A.94.94,0,0,0,106.65,85.61Zm-42.58.17a.95.95,0,1,0,.93.95A.94.94,0,0,0,64.06,85.77Zm46.28.23a.94.94,0,0,0-.93.95.93.93,0,1,0,1.86,0A.94.94,0,0,0,110.34,86Zm-.55,2-5.37,5.61,1.76.17.55,1.59,1.13-1,1.37,1Zm3,1.2a.95.95,0,1,0,.93.95A.94.94,0,0,0,112.74,89.25ZM70.37,91a.95.95,0,0,0,0,1.89.95.95,0,0,0,0-1.89Zm-23,.77-1.36,1.05a4.11,4.11,0,0,1,1.75,1.39,22.35,22.35,0,0,1-.39-2.45Zm27.36.64a.95.95,0,1,0,.93.95A.94.94,0,0,0,74.78,92.4ZM68.1,93.75a.95.95,0,1,0,.93.95A.94.94,0,0,0,68.1,93.75Zm38.48,1.91a.95.95,0,1,0,.93.95A.94.94,0,0,0,106.58,95.65ZM102.91,97a.95.95,0,1,0,.93.95A.94.94,0,0,0,102.91,97Zm37.53.23,1.94,2.13v31.24l-1.89,0Zm-75.35.22c1.58,0,3.33.23,3.89,1.21.87,1.09-1,.67-2.54.91s-.6.48,1.43.6c2.8.17,3.9.24,4.32.9a5,5,0,0,1,.11,1.68l-3.18-.15a18.59,18.59,0,0,0-3.11.1c-.39.1-.28.42-.14.55a24.16,24.16,0,0,0,2.81.13c4,.11,4.86.24,5.14,1.54s-.74,1-4.83.56a5.77,5.77,0,0,0-3.06.42c-.45.22,1.3.44,1.87.35a29.57,29.57,0,0,1,3.95.42c.81.12.1.1-.31.6s-.19.89-.61,1.13-1.55.28-3.41.28c-2.12,0-3.11.52-.2.65,1.88.08,2,0,2.15.6.42,1.36-.48,1.6-2.4,1.91a15.61,15.61,0,0,1-3.3,0c-4.05-.29-5.46-1.27-6-3.09-2-6.77.48-10.9,6.39-11.23.33,0,.68,0,1,0Zm41,.3-4.58,6.76,1.76-.7.84,1.83,1.41-1,1.41.88Zm-34.26.82c.24.29.13.51-.26.73a1.65,1.65,0,0,1-1.27-.12c-.49-.22-.54-1.11-.14-1.21a1.87,1.87,0,0,1,1.67.59Zm-33.17-.34-2.1,2.33s1.94-.7,3-1.12Zm70.29,1a.95.95,0,1,0,.93.95A.94.94,0,0,0,108.93,99.31Zm34.1.82s2.33,2.34,3.29,3.32h-.87l0,1.84,2.76,0,1.52,1.51-4.21,0v1.88h5.22l0-.81,2.06,1.89.24,20.95-9.94,0c0-10.32,0-20.26-.06-30.57ZM74.81,102.4c-.14.45-.46.45-1,.23-.81-.33-.69-1.24-.08-1.33,1.15-.13,1.37.41,1.09,1.1Zm3.13.4a.95.95,0,1,0,.93.95A.94.94,0,0,0,77.94,102.8Zm-3.28.72a1.54,1.54,0,0,1,.93.42c.51.52.33,1-.24,1.31s-1.09-.12-1.28-.89A.61.61,0,0,1,74.66,103.52ZM103.9,106a.95.95,0,1,0,.94.95A.94.94,0,0,0,103.9,106Zm-30.78,1.15a.78.78,0,0,1,.63,1.31,1,1,0,0,1-1.67-.23A1,1,0,0,1,73.11,107.15Zm27.44.38a.95.95,0,1,0,.93.95A.94.94,0,0,0,100.56,107.54Zm3.31.63-4.17,7.1,1.69-.68,1,1.37,1.05-.93,1.59.79Zm-32.71,1.19c.75,0,1,.6.41,1.14a.82.82,0,0,1-1.21,0C69.71,110,70.21,109.35,71.16,109.35Zm35.63.09a.95.95,0,1,0,.93.95A.94.94,0,0,0,106.79,109.44Zm-30.35.75a.91.91,0,0,0-.89.95.93.93,0,1,0,1.86,0A1,1,0,0,0,76.44,110.18Zm69.06.21v2h5.25v-2Zm-69,1.78-2,7.46,1.68-1,1,1.09,1-1.22L80,119Zm3.58.81a.95.95,0,1,0,.93.95A.94.94,0,0,0,80.09,113Zm-6.56.38a.95.95,0,1,0,.93.95A.94.94,0,0,0,73.53,113.36Zm72,.59v1.8h5.25V114Zm-43.23,2.36a.95.95,0,1,0,.93.95A.94.94,0,0,0,102.27,116.31Zm43.23,1v1.94h5.25v-1.94Zm-108.31.24,1.85,0,0,33.84-1.8-1.93Zm-.77.07-.09,30.93-3.5-3.74h.93V142.7l-3,0-1.29-1.28h4.32v-2.07l-5.13,0v1.25l-2.52-2.73,0-20.2Zm66,.95-2.8,7.36,1.76-1,.91.91.94-.86,1.6.79Zm-73.77.35,0,2h5.18v-2Zm76.94.4a.95.95,0,1,0,.93.95A.94.94,0,0,0,105.58,119.32Zm-6.34.11a.95.95,0,1,0,.93.95A.94.94,0,0,0,99.25,119.42Zm-21.92.35a.95.95,0,1,0,.93.95A.94.94,0,0,0,77.33,119.77Zm68.18.76v2.08h5.25v-2.08Zm-68.29,1.17-.78,1.22-1.78-.62,2.43,7.47,3-7.79-1.75,1Zm-48.57.54v2h5.15v-2ZM145.5,124v2.06h5.25V124H145.5ZM28.64,125.75v2h5.15v-2Zm73.7.37a.95.95,0,1,0,.93.95A.94.94,0,0,0,102.34,126.12Zm-28,1a.95.95,0,1,0,.94.95A.94.94,0,0,0,74.3,127.11Zm6,.18a.95.95,0,1,0,.94.95A.94.94,0,0,0,80.28,127.29Zm65.22.13v1.86h5.25v-1.86H145.5Zm-43.17.87-1.12,1.19-1.6-.46,3.63,6.87,1.83-7.39-1.6,1Zm-73.69.7v2.25h5.15V129Zm48.6,1a.95.95,0,1,0,.94.95A.94.94,0,0,0,77.25,130Zm-.06,2c-.4.29-.57.79-1,1l-1.7-.74,1,9.35,4.73-8.83-2.16.37Zm-48.54.31v2.34h5.15v-2.34ZM106,133.35a.95.95,0,1,0,.94,1A.94.94,0,0,0,106,133.35Zm-6,.11a.95.95,0,1,0,.94,1A.94.94,0,0,0,99.94,133.46Zm-71.3,2.2V138h5.15v-2.34Zm74.67.52a.95.95,0,1,0,.94.95A.94.94,0,0,0,103.31,136.18Zm13.2.08c5,.16,5.74,1.8,5.77,7.44,0,4.51-1.3,6.27-4.53,7.14a21.86,21.86,0,0,1-6.83-.38c0-.39-.64-1.28-.78-2a18.9,18.9,0,0,1,3.23.23c1.54.15,1.94-.1,1.45-.41-2.91-.7-4.88-.51-7.68-1a4.38,4.38,0,0,0-.71-1.83c.15-.06,4.3.39,6.49.32,1,0,.38-.5,0-.58-2.55-.37-4.21-.31-6.92-.66a2.61,2.61,0,0,0-.71-1.88s1.37,0,4.18,0c1.48,0,2.77.09,3.42.06,1.09,0,1-.52,0-.59-1.15-.13-5.68-.16-5.68-.16a4,4,0,0,0,.6-2.24s1.17,0,1.92,0c3.63-.14,4.26-.08,4.33-.22.48-.44-.81-.62-2.15-.61-.58,0-1.42.13-1.42-.19a3.35,3.35,0,0,0-.3-1.52,15.19,15.19,0,0,1,6.28-.94Zm-43.18,1.16a.95.95,0,1,0,.94.95A.94.94,0,0,0,73.34,137.41Zm35.73.2c.62,0,.81,1.13.23,1.31-.89.27-1.37.06-1.34-.48,0-.3.71-.83,1.11-.83Zm-29.62,1a.95.95,0,1,0,.94,1A.94.94,0,0,0,79.44,138.59Zm26.63,1.07c2.12,0,1,2.9-.61,1.85C104.66,141,105.23,139.66,106.08,139.66ZM72.61,142s-.07,0-.06.15L73,151l5.09-8.3-2,.76-.87-1.34-1.09.87c-.45.36-1.3-1-1.53-1Zm31.51.91c.95.13,1.58,1.1.92,1.56C103.56,145.13,102.76,143,104.12,142.9Zm-2.28,1.95a.95.95,0,1,0,.94,1A.94.94,0,0,0,101.84,144.85Zm3.6.8a.83.83,0,0,1,.39,1.55,1.14,1.14,0,0,1-.9,0c-.94-.71-.45-1.45.51-1.52Zm-35,1.46a.95.95,0,1,0,.94.95A.94.94,0,0,0,70.42,147.12Zm71.44,1.19-3.47,1.18v1.66c1.51-.49,2.38-1.74,3.47-2.85Zm-32.48.8c.6.26.76,1.08.25,1.36a1.92,1.92,0,0,1-1.78-.18c-.7-1.14.8-1.46,1.53-1.18Zm-32.68.33a.95.95,0,1,0,.93.95A.94.94,0,0,0,76.7,149.44Zm-3.83,1.64a.84.84,0,1,0,.83.84A.83.83,0,0,0,72.86,151.08Zm38.88,1.41a.95.95,0,1,0,.94.95A.94.94,0,0,0,111.74,152.49Zm-41.89.05,0,8.39,5.51-6.87-1.91.42-.82-1.7-1.18.78Zm35,1.93a.95.95,0,1,0,.94.95A.94.94,0,0,0,104.84,154.48Zm27.59,0-.91,1.57,2.57-1.45Zm-23.85,1.12a.95.95,0,1,0,.94.95A.94.94,0,0,0,108.57,155.63Zm3.15,1-1.12,1.62-1.47-.48-.43,1.54-1.77-.07,5.75,5.08Zm-44.78.65a.95.95,0,1,0,.94,1A.94.94,0,0,0,66.95,157.3Zm86,2.28v69h-32l-13.45-18.91a25.1,25.1,0,0,1,1.14-10.23c1.31.92,4.2.42,4.1-3.16-.06-2.35-3.63-3.55-5.4-1.78.09-2.27,1-5.68,2.31-6.68.9.83,1.1,2.05,3.13,1.71a2.8,2.8,0,0,0,2-3.78,5.08,5.08,0,0,1-.24-1.46,9.66,9.66,0,0,0,0-1.48,10,10,0,0,1-.14-1.08c15-3.46,28-12.66,38.68-22.12Zm-79.44.28a.95.95,0,1,0,.94,1A.94.94,0,0,0,73.49,159.85Zm-4.41.93a.95.95,0,1,0,.94.95A.94.94,0,0,0,69.08,160.78Zm46.28.46a.95.95,0,1,0,.94,1A.94.94,0,0,0,115.36,161.24Zm-49.63,1-1.46,8.84,6.37-6.61-1.73,0-.34-1.51-1.62.53ZM109,164.14a.95.95,0,1,0,.94,1A.94.94,0,0,0,109,164.14Zm4.13,1a.95.95,0,1,0,.93.95A.94.94,0,0,0,113.15,165.17Zm-51.39,1.15a.95.95,0,1,0,.94.95A.94.94,0,0,0,61.76,166.32Zm55.11.72-1.52,1.17-1.4-.87-.33,1.88-1.2.64,5,3.56Zm3.7,2.53a.95.95,0,1,0,.94,1A.94.94,0,0,0,120.58,169.57Zm-52.89.32a.95.95,0,1,0,.94.95A.94.94,0,0,0,67.69,169.89Zm-4.15,1.24a.95.95,0,1,0,.93,1A.94.94,0,0,0,63.53,171.13Zm54.65,2.51a.95.95,0,1,0,.93,1A.94.94,0,0,0,118.18,173.64Zm-3.92.85a.95.95,0,1,0,.94.95A.94.94,0,0,0,114.26,174.49Zm-36.21,1.35h0a1.64,1.64,0,0,1,.14,1.42c-.15-.07-.82-.71-.65-.92s.41-.5.49-.5Zm-21.22,1.49a6.43,6.43,0,0,1,1.1.14,5.29,5.29,0,0,1-.46,1.32A11.87,11.87,0,0,0,57.3,188c1.95,4.21,7.44,14.16,7,15.07l-12.14.05.05-1.87c3.41-.14,3.95-2.25,3.1-4a2.94,2.94,0,0,0-3.75-1.27c-2.18.92-2.32,2-3.09,3.71l-.35-.45a3.91,3.91,0,0,0,.82-2.7c-.05-1-.08-.69.25-1.21a4.58,4.58,0,0,0,.66-4.77c-.23-1.66,5.69-12.23,7-13.2Zm-27.76.27c3.45,2.79,6.44,12.18,6.26,12.33a4.11,4.11,0,0,0,0,6,5.52,5.52,0,0,0,.37,2.67c-1.25,2.63-1.47,2.83-1.57,5,0,0-.22,0-1.37,0-5.72,0-6,7.36-.27,7.76.78.06,1.05-.12,1.52.35s.91,1.21,1.73.89a1.58,1.58,0,0,1,.84.5,2.4,2.4,0,0,0,2.48,1.09,5.13,5.13,0,0,1,1.25.32,2.15,2.15,0,0,0,2.05.4,1.22,1.22,0,0,1,.91,0,2.08,2.08,0,0,0,2-.1c.77-.4.94.24.9.84A2.65,2.65,0,0,0,48,218.73c2.75.86,4.13-.85,4.72-4.25.15-.75.27-1.63.27-1.63l9.2.24-13.2,15.48h-23v-51c1-.06,2.13,0,3.12,0Zm82.69,2.77c1.68.66,1.81,1.86.14,1.34a5,5,0,0,0-6.24,3.24,3.29,3.29,0,0,1-.3.86c-.38.47-.36,0-.25-1.29a4.66,4.66,0,0,1,4.38-4.55,7.2,7.2,0,0,1,2.27.4Zm-.83,1.83a3,3,0,0,1,2,.7c.63.7.44,1.17,0,1.14-2.27-1-5.16.2-6.29,3.11-.7,1.79-.82.83-.51-.55a5.25,5.25,0,0,1,4.85-4.4Zm-15.8.69a3.69,3.69,0,0,0-2.41.66c-.91.87-.15.89,1.5.31a6.12,6.12,0,0,1,3.33.19c.83.29,1.12.41,1.07.15C98.57,183.42,96.77,182.88,95.12,182.89Zm18.53,2.92c.42,1,.15,2.68-1.31,2.86-1.72.2-2.61-2.73.53-2.21-.41-1.17-1.82-.85-2.51-.55-1.42.63-2.39,2-3.26,4.65-.26.77-.45,1.17-.55,1.1a4.78,4.78,0,0,1,.14-2.77c.68-2.6,2.35-4.17,4.12-4.22a2.75,2.75,0,0,1,2.84,1.16ZM89,184.69c-.15,0,.12.58.53,1.43a4.43,4.43,0,0,1,.39,1.2c0,.46.35.58.86.28s.69-.6,1.52-.22a2.27,2.27,0,0,0,2.29.26c.39-.23.65-.22,1.4,0s1,.28,1.7,0a2.3,2.3,0,0,1,2.1.13c.21.23.09-.09.55-1.19.22-.51.53-1.13.44-1.3s-.9,0-1.75.25a3.16,3.16,0,0,1-1.79-.17,5.4,5.4,0,0,0-4.21.18c-.65.31-2.29-.12-3.94-.8l-.1,0Zm3.67,5.07a2.18,2.18,0,0,0-2,1.26c-.41,1,.29,2.88,1.34,3s.9-.44.43-.6c-.71-.24-1.55-1.27-1-2.17.37-.62,1.5-.62,2.28.15,1.58,1.54,3.39,1.64,3.73.3.1-.53-.3-1.24-.91-1a3.14,3.14,0,0,1-2.5-.44A2.54,2.54,0,0,0,92.68,189.76Zm16.67,4.88c4-.25,2.3,5.34,0,3.91-.83-.51-.46-2.39,1.75-2.36-2.17-1.71-3.64.37-3.11,2.71a19.11,19.11,0,0,0-.94,3c-.49.94-.87-1.52-.38-3.9s1.29-3.31,2.72-3.4Zm-22.79.19c-.83,0,0,.92.15,1,2.51,2,3.74,3.24,1.72,2.58-3.28-.79-4.12.15-6.62,1.27-.46.22-.59.08-1.14-.08-2.19-.66-2,.74.26,2,3.46,1.9,6.32,2.33,9,.91,1.73-.92,1.82-.32.21.7-2.75,1.63-5.65,1.38-10.1-1.43-1.44-.91-1.64-.3-.17.65,3.36,2.06,7.88,3.93,11.58.89.73-.66.87-1,1.43-.71,1.48.75,1-.56,0-1.78-.36-.43-.62-.78-.6-1.08.08-1.06-.5-1.06-1-1s-.56-.18-1.34-1.05c-1.13-1.26-2.52-2.62-3.35-2.84ZM53,200.5c-1.39.11-1.71.18-1.37,3.08.06.55.3,2.18.37,2.79.83,7.6.16,11-1.93,11.89a2.57,2.57,0,0,1-2,0c-1.32-.54-1.86-2.16-.91-4.1a11.86,11.86,0,0,0,.69-1.79c.13-.47.41-1.49.62-2.27a21.62,21.62,0,0,0,.5-7.57,5.13,5.13,0,0,1,.3-3.31c1-1.87,1.67-2.83,3.8-2.86,2.39.25,3.05,3.92,0,4.15Zm51.28-.17-.65,0c-.79-2.66-2.43-1.8-2.7.07h-.55c.1-3.55,4.47-2.58,3.91-.09Zm-61.3-2c4.45.45,5.27,1.57,5.62,7,0,2.64-.14,4.24-.54,4.84-.67.32-1.31-.28-2.26.33-.52.32-.42.36-.65,0a5.94,5.94,0,0,1,.38-2.84c.33-1.06-.23-1.68-1.71-3a5.33,5.33,0,0,1-1.11-1.61c-.77-2.09-1.16-1.17-.52.63.32.78.39,1.16-.57.83a1.79,1.79,0,0,0-1.49.27c-1.22.32-2.28-.36-1.22-.77a10.17,10.17,0,0,1,2.16-.61c.26,0,.39-.06.39-.18,0-.52-2.36-.47-4.15.16-2.21,1-2.33.85-2.13-.76.52-4.07,4.25-4.57,7.8-4.29Zm43.56.36a2.14,2.14,0,0,1,2,2.4l-.54,0c-.25-2.12-2.23-2.21-2.75.16l-.78,0C85,199.42,85.79,198.74,86.56,198.71Zm13.24,0c.45.27.14,1-.34,1.15-.18,0-.75-.36-.62-.61a2,2,0,0,1,1-.54Zm5.11.36a.73.73,0,0,1,.77.59c0,.63-.45.5-.61.44-.31-.29-.43-1-.17-1Zm-15.62.5c.83.1,1.14,1.16.19,1.23C89.07,200.93,89,199.86,89.3,199.61Zm-5.08.12c.1,0-.05.87-.26,1-.41.25-.94,0-.92-.29,0-.63.8-.72,1.18-.72Zm14.57,2.12a8.19,8.19,0,0,0,5.6.52c.71-.27,1.28-.6,1.28-.29s-.56.81-1.58,1.09a5.22,5.22,0,0,1-5.05-.73c-.41-.31-.55-.59-.25-.59Zm-.66.91c2.58,1.53,4.91,1.68,7,.57.85-.3.88,0,.88.53C102.23,207.22,97.51,203.72,98.13,202.76ZM34.8,205.09c-.64,1.31-1,4.54-2,5.49C25.64,210.16,30.23,200.62,34.8,205.09ZM79,204c-.4.21,0,1.24.59,1.52,5.45,2.38,8.25,2.67,11.35,1.57a3.12,3.12,0,0,0,2.05-2c.07-.62-.75-.68-2.21,0-4.42,1.76-7.19.39-10.76-1a1.45,1.45,0,0,0-1-.05Zm-20.88.07,0,8.07-5.19-.09.06-1.19,3.89.12-.06-5.76-4.51,0v-1.07l5.84,0Zm1.21,0h5.18l.26.82H59.3v-.83Zm-20.9,2.56a1,1,0,0,1-1.18.13c-.55-.56,0-1.6.88-1.59s1,.87.3,1.46Zm2.39-1.31c.78,0,1,.75.45,1.34-.4.37-.61.4-1,.12A.88.88,0,0,1,40.79,205.36Zm-5.11.2a.51.51,0,0,1,.52.22c.48,1-1.09,1.67-1.41.94S35.15,205.58,35.68,205.56Zm29.29.11.3,1-6,0v-1ZM43.6,206c.89.11.75,1,.34,1.42-.71.67-1.4.45-1.22-.45C42.84,206.38,43.19,206,43.6,206Zm-4.8,3c-.31,1.14.36,3.43.16,3.67-.43.52-1.14.25-1.45.08-1.08-.7-1.15-4.83-.1-5.07.67.34,1.12-.27,1.43-.36S38.94,207.74,38.8,208.94Zm15.78-1.69a1.08,1.08,0,1,1-1.07,1.08A1.07,1.07,0,0,1,54.58,207.25Zm4.72.14h6.11a1.25,1.25,0,0,1,.22,1.22H59.3v-1.23Zm-17.94.14c.28,0,.42.6.23,1.29a8.17,8.17,0,0,0-.09,3.69c.16.51.31.86.22,1-.32.51-1.28.16-1.7-.51-1-1.89-.84-5.41.36-5.14C40.84,208.1,41.1,207.74,41.37,207.53ZM36,208c-.29.48-.08,3.16-.11,3.38s-.79.13-1.21-.06c-1-.49-.75-1.75-.55-2.76.23-.79.72-.85,1.34-.93.34,0,.79,0,.54.36Zm8.31.15c.33,0,.38.23.3,1.23a8.58,8.58,0,0,0,0,2.17c.27,1.56.3,2-.09,2.29a1.19,1.19,0,0,1-1.55-.17c-1-.79-1-4.66-.28-5,.72.18,1.17-.39,1.58-.52Zm21.09,1.17-.88,1.22H59.3v-1.22h6.08ZM46.82,211c.81,0,.68,1.47.24,2.38-.37.55-.64.61-1.2.09S46,211,46.82,211Zm17,.41-.73.68H59.32v-.68Z"/><path id="path3872-3-7-5" class="cls-2" d="M38.31,182.26l-6.33-5c7.53-.17,15.05,0,22.58.14L47,182.8c-1.54-1.71-2.45-4-4.63-5.11C40.78,178.37,39.67,180.72,38.31,182.26Zm55.21-1.83c-.17-.11-.29-.36-.41-1.17-1.88-8.89-11.11-8.26-11.05-8C82,170.9,93.53,160.32,100.32,152c2.05,6.35,8.27,20.84,8,20.79,0,0-1.8,0-6.46-.1-4.25,1.95-7.2,3.84-7.06,6.58,0,1-.25,1.37-.57,1.29A7.3,7.3,0,0,1,93.52,180.43Zm21-28.55c6-.1,7.14-3.07,7.83-3.43,3.95-.66,6.38,1.95,8.11,4.74,2.21,1.35,1.93.1,2.39-2l5.5-1.64v1.78a28.11,28.11,0,0,0-4.22,3.31l-1.67-.1-1,1.3c-3.82,2.1-7.56,4.6-11.59,6.22,0,0-4.83-6.33-5.38-10.17Zm-74.85.56-.06-35.16c2.49-.18,7.06-.15,7.06-.15,1.91-3.43,4.52-5,7.21-7a118.49,118.49,0,0,1,.44,12.81c-7.12,8.82-11.07,19.68-6.68,35.9L45,158.5Zm39.34,2a123.3,123.3,0,0,0,4.25-22.46l13.55-.2.27,4.71Zm46.15-16-.25-13.16c9.89-12,10.48-22.46,6.81-35.68,3.27.76,4.95,3.35,8.06,6.91v34.31c-2.16.33-7.53.65-7.53.65-.16,1.61-4.69,5.45-7.09,7ZM83.32,117.66l-.6-5.8,17.61-17.08c-1.45,7.4-3.21,15-3.72,22.87ZM54.1,99.53c-1.26.84-5.89-4.05-6.65-7.34,1.16-1.59,11.36-6.66,11.36-6.66s6,7.76,5.72,11c-2.65.71-4.94.92-7,3.11C56.42,99.75,56,98.44,54.1,99.53Zm-8-6.56c1.42.23.51,2.17.29,3.6l-7.49,2.25c2.58-2.23,4.4-4.13,7.2-5.85ZM70.46,75.8c1.54,0,3.15.6,4.33.11a4.25,4.25,0,0,1,2.3-.26c2.24.7,3-1.8,4.45-1.81,1.85,0,2.87-1.31,2.89-3.94,0-1.14.1-1.26.31-1.38a1,1,0,0,1,1.39.76c1.33,4.84,4.67,9.19,9.95,8.85-4.2,4.35-17,17.71-17,17.71a130.18,130.18,0,0,0-8.64-20Zm54.38-4.17,7.7-5.67,4.61,5.69,4-5.42c2.34,1.7,7.67,5.5,7.67,5.5s-16,.24-24-.1Z"/><path id="path3870-4-7-1" d="M129.2,20.22l-70.78.46L72.18,39.32c14.61-3,27.33-1.06,40.53,1.28Zm-1.81.95-4.71,5.94c-1.3-1.2-4.21-.76-3.8,1.85-3.61-1.91-4.38,3.33-1.31,3.11-.38,1-3.48,1.3-4.35-.57-3.18,1.81-4.15.05-5-1.08,4,2.78,6-2.94,1.56-3.26,1.75-3.59-4.48-5.21-4.12-.55-4.11-.94-3.17,4.92-.15,3.72-2,3-5.17,1-5.83.4C98,32,94.92,32,94,30c4.57.93,4.07-5.18,0-3.77,2.16-4.69-5-4.06-3.29-.22-4.1-.16-3.19,5,.41,4.1-3.2,3.06-5.59.21-6.1.15-1.89,2.12-5.22,1-5.67-.29,3.26,1.31,4.33-4.25.22-3.92,1.05-3.58-4.86-4-3.56.05-3.26-.75-3.44,4.55.21,3.72.23,1.45-2.65,2.84-4.41,1.44-1.3.72-2.71,1.84-4.4.18,2.57-.42,3-4.83-1.16-3.87.2-2.71-1.33-2.85-3.22-2.17l-3-4.16ZM78.57,27.81c-.23.5-.61.85-.52,1.23a4.77,4.77,0,0,0,.84,1.34c3.54,4.69,10.72,4.53,12.88-.3.44-.9.35-1.1-.18-1.86a1.12,1.12,0,1,1,1.68.07c-1.22,1.56,2.13,5.09,5.49,5.65,4.3.71,8.37-2.36,7.8-5.1,0-.16-.11-.3-.14-.47-.46-2.3,3.14-1.2,1.84.27-.49.53-.75.69-.68,1.27,1,4.87,6.88,5.38,9.65,3.88C113.64,39.72,108,35.15,107,31c-5,7.38-11.08,5.84-14.45-.64.4.4-6.64,11.62-14.62.12-3.38,9.25-9.55,3-9.12,2.62,2.83,1.6,8,1,8.47-3.93.07-.61-.39-.65-.65-1.13-1.34-2.45,3-2.46,2-.23Zm-13.31.61c.64.06.75.33.64,1Zm54.92,1.74-.93,1.18C119,30.76,119,30.23,120.18,30.16Zm10.09.39c-2.2.09-3.9,3.18-3.79,7.3.05,2,.4,7,.54,7.75.19,1,0,2.46-.38,2.6-1,.39-1.31.65-1.57,1.11a2.21,2.21,0,0,0,1.29,3.16c1,.43,2.28-.16,3.15-1.47a7,7,0,0,0,1-2.87,10,10,0,0,0,0-3.51c-.51-2.91-.13-6.53.85-8.23,1.77-3.05,1.73-5.05-.09-5.68a2.61,2.61,0,0,0-1-.15Zm-.11.46a1.81,1.81,0,0,1,1.07,3.4,1.88,1.88,0,0,1-1.9-.14c-.76-.44-.65.06.13.64s1.31.64.82,2.22a19.35,19.35,0,0,0-.45,6.49c.69,5,.11,7.45-2,8.31a1.83,1.83,0,0,1-2.39-1c-.44-1.3.34-2.41,2.28-2.1,0,0,.14-.41-.37-4.73-.7-6-.42-10.19.66-11.66A3,3,0,0,1,130.16,31Zm17.38,6.19a3.88,3.88,0,0,0-1.9.55s-.07,2.7-.15,3.11c-.44,2.28-.31,2.56.74,2.88,2.54.79,4.63-.93,4.54-3.61A3.18,3.18,0,0,0,147.54,37.2Zm.34.36c1.39,0,2.65,1.61,2.52,3.16a2.77,2.77,0,0,1-3.4,2.55c-.46-.07-.95-.16-1.1-.52-.32-.49.19-.67,1.25-.67s1.37-.16,1.76-.81c.76-1.3-.21-3-1.45-2.65-.42.11-.49.3,0,.44,1.52.7,1,1.67.43,2.06s-1.67-.17-1.84-.56l.11-2.52a2.63,2.63,0,0,1,1.73-.49ZM132.21,49.23a4.43,4.43,0,0,0-.86.54,2.11,2.11,0,0,0-.44,2.31c.13.38.11.44-.36,1.06-1.33,1.76-1.5,2.64-.82,4.23.31.72.31.72,0,1.67A37.52,37.52,0,0,1,123.37,71a3.42,3.42,0,0,0-.57,1,3,3,0,0,0,1-.21c2.73-1.38,5.62-4.05,8.3-5.8-4.24,3.49-8.76,6.62-8.76,6.62l5.77.31c-1.45,1.51-26.76,23.28-20,62.32,7.9-2,11.58-5.3,15.79-9.13,0,3.15.11,11.61.13,11.61s-3.66-1.43-2.77,1.69a16.75,16.75,0,0,1-.14,8.49c0,.1.4.27.36.36s-.6.11-.6.11c-1.43,2.72-5.13,3.31-7,3.23-.67-.06-.4.87-.31,1.21.34,1.4,1.93,4.39,4.89,9.2l.78.1-.45.42A20.29,20.29,0,0,0,121,164.4l0,.41s1.63,2.3,2.5,3.38c.06.07.2-.1.26,0,.48.59,1.06,1.25,1.56,1.84,0,0-.08.21,0,.26.93,1,2.75,3.1,2.75,3.1l.36-.09,1.43,1.64c11.89-5.49,24.32-17.63,24.19-17.6l.1-26.13-14.08,0-.06-34.62,14.06,14.11-.09-4c-3.19-3.08-16-16.21-16-16.21a15.72,15.72,0,0,0,5.42-1.84,15.79,15.79,0,0,0,10.07,2.23V86.92a12.36,12.36,0,0,1-8.8-3.17l-2.63-.09c-4.85,3.75-8.28,2-12,1.27l-2.55-3.73,26.12-.14-.19-9-4,.09L147,70.18l3,1.28A3.85,3.85,0,0,0,149.3,70a61.28,61.28,0,0,1-4.88-10c-.59-1.74-.59-1.67-.09-2.69a3.69,3.69,0,0,0-.37-4.05c-.64-.67-.62-.82-.41-1.32a1.77,1.77,0,0,0-1.21-2.59c-4.38,1.71-10.25-.05-10.14-.1Zm10.18.72c.87,0,1,.38,1,1-.07,1.21-1.63,1.65-2.33,1.82-3.36.78-9.21.32-9.59-1.27-.28-1.17.44-1.82,2.82-1.24C138.08,51.14,140.45,50.24,142.38,50Zm-10.83,3.37a1.07,1.07,0,0,1,.88.95,3.75,3.75,0,0,1-.84,2.32c-1.07.84-2-.47-1.32-1.89.41-.82.83-1.37,1.28-1.37Zm11.45.17a1.22,1.22,0,0,1,.63.17c.84.61.92,2.71.13,3s-1.55-.54-1.55-1.88c0-.82.3-1.31.78-1.3Zm-2.68.43a1.14,1.14,0,0,1,.54.12c.7.33,1,2.53.35,3.24a1.22,1.22,0,0,1-2-.62c-.41-1.35.23-2.69,1.16-2.74Zm-6,.06c1,0,1.27,2.33.26,3.29-.84.8-2.13,0-1.73-1.58C133.09,54.91,133.56,54,134.37,54Zm2.93.37c1.51.26,1.38,4-.6,3.64C135.58,57.2,135.61,54.42,137.3,54.36Zm-6.6,4,2.13.2c-.06,0-3.4,7.17-6.38,9.07a57.53,57.53,0,0,0,4.25-9.27Zm12.79,0a104.59,104.59,0,0,0,4.23,10.25c-2.59-2.53-4.87-6.42-7-10.07Zm-10,.33,1.41,0a10.84,10.84,0,0,0,2.24,4.77A21.6,21.6,0,0,0,139,58.89h1.12c.43.26-1.32,6.84-3,7.65C135.24,65,133.71,61,133.46,58.74Zm-.6,1.56c-.12.16,2.19,5.8,4.15,7.61a15.36,15.36,0,0,0,3.81-7.06l6.07,8.64L141,65.38A30.23,30.23,0,0,1,137,70.85a71.46,71.46,0,0,1-4.5-5.91c-2.28,1.72-3.88,3.55-6.84,5.15C125.7,70.16,131.49,63.76,132.86,60.3Zm-.57,6.14,4.13,5.12-11-.16Zm8.94.08,6.93,4.84-10.33.11ZM86,68.91a4,4,0,0,0,.13.49c1.23,5.09,4.62,9.33,9.73,8.83l-16.79,17a99.35,99.35,0,0,0-8.39-19.33l1.82.37a4.37,4.37,0,0,0,1.88-.07c.43-.06.76-.35,1.14-.43a3.86,3.86,0,0,1,1.89.25c1.15.22,1.94-.43,3.38-1.73.38-.34.53-.26,1-.26,1.81,0,3-1.57,2.76-4L84.48,69l-.23,1.22c-.43,2.3-.73,3.29-3,3.39-.54,0-.75.39-1.61,1.14-1.2,1-2.05,1.14-2.91.73s-1-.17-1.77.22a5.26,5.26,0,0,1-3.54,0c-1.72-.5-1.51-.33-1.51-.33,10,18,13.48,35.3,13.26,50.66a99.29,99.29,0,0,1-14.47,50.18s1.13-.12,2.15-.27a2,2,0,0,1,1.34.17,2.45,2.45,0,0,0,1.23.1,9,9,0,0,1,1.73.08c1.23.18,1.31,0,2.65-1.3,3.79-3.74,3.55-3.6,6.3-3.51,4.12.14,7.42,2.9,8.8,7.37.17.57.4,1.36.43,1.36L93.07,179c-1.21-6-6.26-8.2-10.49-8.12l17.82-18.14c-.09,0,4.13,13.8,7.81,19.94a7.07,7.07,0,0,0-3.17-.22,11,11,0,0,1-3.06-.12c-.9,0-1.45.25-2.57,1.19a6,6,0,0,1-1.8,1.24c-2.17.93-3,1.89-3,4.3,0,.44-.07,1-.06,1.22a.56.56,0,0,0,0,.16s.09-.09.13-.15a4.29,4.29,0,0,0,.49-1.61c.3-1.8.67-2.43,2.36-3.23a14,14,0,0,0,2-1.28c1.55-1.25,2.07-1.54,3.33-1.25a5.81,5.81,0,0,0,2.29.14,4.42,4.42,0,0,1,2.43.12c.83.22,1.86.43,1.86.43-17.27-35.21-16.7-67.84.35-101,0,0-5,.06-5.26.19a4.78,4.78,0,0,1-1.36-.13c-1.37-.25-1.07-.08-4.31,3.22-4,4.09-10.42.83-12.35-6a3.09,3.09,0,0,0-.34-.83,1.85,1.85,0,0,0-.18-.22Zm16.33,4c.74.08,1.29.28,1.2,1L79.74,97.56,79.37,96Zm5,.14c-.29.59-1.09,1.32-1.43,1.88l1.29,1.64-.72,1.32-2-1.7L100.7,80l3.16,3.6-3,3.06-1-1.14,1.58-1.68L99,81.5l-4.33,4.27,3.52,3.63-2.58,2.51-1-1,1.36-1.52L93.64,87l-4,4.17,3.19,3.6-2.46,2.48-1.09-1.12,1.18-1.25-2.28-2.42L84,96.56l3.33,3.67-2.45,2.22-.86-.93,1.18-1.29L83,97.8l-2.55,2.34L80,98.54l25.19-25.4Zm1.45.38-1.06,2.16-.82-.92L108,73.58Zm-59.41.14c-.65.16-15.65,8.64-24.19,17.95l0,3.47-.32.41.15,5.37.21.29.07,2.19-.34.58v6l.45.08.07,7.35,14,0v35.14s-8.24-9.19-14.17-14.61l0,4.11L41,158.41a12.13,12.13,0,0,0-4.6,1.6,17.26,17.26,0,0,0-11-2.24l0,4.18a15.41,15.41,0,0,1,11.05,2.84c3.24-2.23,7.14-3.58,13-1.81a39.54,39.54,0,0,0,3.84,5.56l-27.78.21,0,8.47c1.23,0,4.31,0,4.31,0,1.56,3.11,4.63,7.35,5.91,12.69-1.75,2.13-1.61,3.85.09,6,0,1-.3,2,.77,3.12,3.54-1.75,7.53-1,10.5-.08,1,.3,1.39-.86,1.35-2.32-.09-.84-.09-1.2.55-1.76,1.51-1.33.57-4.06.34-4.12-.09-2.4,7.48-14.4,7.48-14.18l-1.51.55-6.47,0c17-16.65,24.12-35.64,22.63-57.08a34.27,34.27,0,0,0-1.16-7.88c-6,2.7-10.91,4.67-15.7,9.87l-.32-11.18a2.38,2.38,0,0,0,2.84.34c.54-.36.6-.75.1-2.1-.73-2-.9-6.19-.36-7.63a6.08,6.08,0,0,0,.16-1c.06-.59-.06-.62-.12-.61.14,0,.72.09.79,0a10.86,10.86,0,0,1,6.92-3.09l.07-1.33c-2-5.11-3.68-7.12-5.49-10a2.06,2.06,0,0,0-.84-.1l.42-.45c-2.53-4.08-6.14-7.8-9.46-11.32,0,0,0,0,0,0Zm-.11.69L51.07,76A95.45,95.45,0,0,0,25.69,94.61l.11-3.06A108,108,0,0,1,49.27,74.29Zm55.1,3.06,1.08,1.09L104,80.2l1,1-.54,1.34-2.49-2.62Zm-53.57.14a1,1,0,1,1-1,1A1,1,0,0,1,50.81,77.48Zm73.42,1.43c17.49,19.76,8.51,48.48-14.84,55.38l-.26-1.62c23.56-8.05,29.08-35,13.8-51.94ZM53.84,79,55,80.36c-10,4.83-19.7,12.07-29.1,22.53l-.09-2.64A100,100,0,0,1,53.84,79Zm-6.43.4a1,1,0,1,1-1,1A1,1,0,0,1,47.41,79.45Zm-3.12,2a1,1,0,1,1-1,1A1,1,0,0,1,44.29,81.4Zm10.37.68a1,1,0,1,1-1,1A1,1,0,0,1,54.67,82.09Zm44.43.72,1,1.1L98.5,85.55,100.81,88,103,85.83l-1.11,3.23L82.33,108.93l-.41-2.09,1.54-1.57-2.36-2.39-.42-1.6L83,99.07l1,1-1.36,1.59,2.19,2.19,4-3.71L85.5,96.5l2.71-2.66.94.93-1.29,1.35,2.28,2.51,4.08-4-3.35-3.59,2.69-2.69,1,1L93.21,91l2.32,2.27,4-4-3.28-3.5Zm-57.86.7a1,1,0,1,1-1,1A1,1,0,0,1,41.24,83.5Zm16.13.2L58.15,85C46.28,91.1,38.07,97.2,25.92,111.21v-1.76A95,95,0,0,1,57.37,83.7Zm-6,.16a1,1,0,1,1-1,1A1,1,0,0,1,51.41,83.86Zm91.85.4c2.09,1.89,6.49,3.78,9.33,3.58l.08,2.27c-4.94.48-9.26-2.74-9.26-2.74A14.46,14.46,0,0,1,131.68,89l-1.55-3.38c6,2.82,11.61.13,13.14-1.37Zm-23.66.62a3.51,3.51,0,0,0,1,.89c4.61-1.22,6,3.61,3.9,6.36l.61,2a5.36,5.36,0,0,1,2.13.86,3.91,3.91,0,0,1,1.6,3.59c.16,1.56-2.14,3-2.26,2.9l0,2.22a8.86,8.86,0,0,1,1.92,1.84,3.51,3.51,0,0,1-1,5,3.56,3.56,0,0,1-2.15.71l-1.06,2.53a3,3,0,0,1,1.35,2.1,4,4,0,0,1-1.89,3.94,5.1,5.1,0,0,1-3.66.1l-1.51,1.53a5.25,5.25,0,0,1,.29,2.9,3.76,3.76,0,0,1-4.1,2.54,4,4,0,0,1-2.2-1l-1.68.65s0,2.15-.82,2.81a11.14,11.14,0,0,1-1.21.9l-.22-1.48a2.91,2.91,0,0,0,.94-2.52l3.62-1.8a3.56,3.56,0,0,0,1.67,1.25,2.38,2.38,0,0,0,2.84-2.11,8.11,8.11,0,0,0-.55-1.88l3.07-3.23c1.27.44,2.16.52,2.73.19A2.55,2.55,0,0,0,124,115.9a3.69,3.69,0,0,0-1.11-1.61l1.71-4.4a3.09,3.09,0,0,0,1.92-.54,2.4,2.4,0,0,0,.57-3.27,2.47,2.47,0,0,0-1.69-1.1l.13-4.57s1.73-.84,1.92-1.86c.27-1.5-.35-2.46-2.17-2.88-1-.24-1,0-1,0l-1.44-4.13c2.27-1.41,1.55-3.65.4-4.4a3.54,3.54,0,0,0-2.93-.06s-.78-.79-1.37-1.42Zm-60.87.84a48.56,48.56,0,0,1,5.44,9.78,5.47,5.47,0,0,1,0,1c-4,.36-5.42,2-6.86,3.09-1.11-.58-1.58-1.26-3.59,0,0,.06-5.13-3.14-6.11-7.49a114.93,114.93,0,0,1,11.09-6.37Zm-20.49,0a1,1,0,1,1-1,1A1,1,0,0,1,38.24,85.74Zm9.7.21a1,1,0,1,1-1,1A1,1,0,0,1,47.94,85.94Zm70,1.27C119.72,89.57,122.38,94,123,98c.89,5.55.3,11.37-2.21,15.44-4.55,8.7-12.44,10.55-12.44,10.85l-.08-1.78c.07.4,6-2.15,10.08-7.89a23,23,0,0,0,3.44-13.81c-.3-6.26-4.68-12-4.71-12.05Zm-82.9.85a1,1,0,1,1-1,1A1,1,0,0,1,35.05,88.06Zm9.69,0a1,1,0,1,1-1,1A1,1,0,0,1,44.74,88.08Zm87.35,1.75c2.27.25,5,4.43,7.57,6.81l0,34.06-7.55.16c-1,2.4-3.26,4.76-6.89,7.1V125.2c12.38-13.47,9-28.21,6.84-35.37Zm-99.82.39a1,1,0,1,1-1,1A1,1,0,0,1,32.27,90.22Zm9.33.19a1,1,0,1,1-1,1A1,1,0,0,1,41.6,90.41Zm95.81.08,15.43,15.79-.05,2.32L135.4,90.66ZM47.26,92l.41,2c-.5-.8-.52-1.09-1.38-1.23Zm-8.35.58a1,1,0,1,1-1,1A1,1,0,0,1,38.9,92.55Zm-9.24.29a1,1,0,1,1-1,1A1,1,0,0,1,29.66,92.84Zm86.81,0,3,2.19-1,3.95-3.12-2.84Zm-70.4.32.54.33L46,96.19l-7,2.57a52.74,52.74,0,0,1,7.1-5.6Zm1.15,1.26a36.35,36.35,0,0,0,2.91,7.47c-.9.47-4.14,2.33-4.13,3.2.46,1.57,3.88,3,3.88,3a39.66,39.66,0,0,0-3.54,7.54c-.58-1-.65-5,.61-6.65a16,16,0,0,1-4.23-2.81c.83-3,4.38-4.78,4.54-4.8-.06.15-1-6.24,0-7Zm-11.38.5a1,1,0,1,1-1,1A1,1,0,0,1,35.84,94.92Zm78.1.08c4.55,8.61,1.84,16.09-5.42,21.44l.17-2c5-3.69,8.25-11,4.6-17.88Zm-86.75.25a1,1,0,1,1-1,1A1,1,0,0,1,27.2,95.25Zm72.82.05a105.18,105.18,0,0,0-3.65,21.86l-13,.11-.5-4.56Zm-51.81.35s2.81,2.65,5.34,5l-.3.6-2.45.33A48.53,48.53,0,0,1,48.21,95.66ZM45.88,97h0l.16,1.88c-.84,0-10,3.83-17,10a22,22,0,0,1,4.51-5.18C37.22,100.15,45.88,97,45.88,97Zm-13,.43a1,1,0,1,1-1,1A1,1,0,0,1,32.92,97.47Zm5.74,1.18.52.54-2.42,1.27Zm16.87.55h.1a1.26,1.26,0,0,1,.74.41A5.34,5.34,0,0,0,55,99.49a.76.76,0,0,1,.53-.28Zm-9.26.39.22,1.41c-5.25,3-11.49,5.89-20.57,14.61v-2.9A65.34,65.34,0,0,1,46.27,99.6Zm7.06.13a1.83,1.83,0,0,0,.92,0s-.19.38-.42.39-.5-.4-.5-.4Zm2.23.08c.66,0,1.11.57,1,1.36a16.77,16.77,0,0,0,.06,7.27c.42,1.47.53,2,.18,2.24-3.09,2.17-4.79-7.6-2.21-10.37a1.64,1.64,0,0,1,1-.51Zm-25.26.34a1,1,0,1,1-1,1A1,1,0,0,1,30.3,100.15Zm88.9.24,1.92,3.27-2.68,3-1.63-3.54ZM53,102.17l-.1,1.13a9.84,9.84,0,0,0-3.62,1.92c-.2.17,3.2,1.73,3.56,1.37v1.2c0,.4-5.62-1.4-6-2.74.63-.89,4.16-3,6.17-2.89Zm-25.38.6a1,1,0,1,1-1,1A1,1,0,0,1,27.6,102.77ZM42.81,104a8.25,8.25,0,0,0-1.09,2.89c-3.83,2.35-7.75,4.55-12.52,10l-2.57,0-.06-.69A70.54,70.54,0,0,1,42.81,104Zm9.86.33,0,1.42a3.84,3.84,0,0,1-2-.62,3.72,3.72,0,0,1,2-.8Zm28.79.15.72.76-.45.43Zm-38.76,3,1.42.89a39.38,39.38,0,0,0-10.81,8.51H30.5c3.54-3.9,7.36-7.4,12.2-9.41Zm75.56,1,.28,3.87-3.56,2,.07-4.08Zm-67.66,0,2.45.27.25,1a38.6,38.6,0,0,0-5.55,4.5A22.06,22.06,0,0,1,50.59,108.44Zm-5.87.42,1,.49-.42,1.82a27.51,27.51,0,0,0-7.94,5.64H34.53a41.06,41.06,0,0,1,10.19-8Zm9.1,1.71h0l.38,11.92c-10.57,12.56-10,24.71-6.91,35.72l-2-.09a71.87,71.87,0,0,0-5.46-6V117.48l7.29,0c1.72-4,6.45-6.91,6.71-6.94Zm-8.6,1.67.09,1.59a21.1,21.1,0,0,0-3.89,3H38.69C40.58,115,42.46,113.22,45.22,112.24Zm24.85.78.4,1.88c-24.53,9-29,35.19-14.49,53.17l-1,1.12C38.37,151.06,45.67,121.46,70.07,113ZM45.42,114.9s.13,1.44.18,1.91H42.84A4.81,4.81,0,0,1,45.42,114.9Zm69,.6-1.58,3.74-4.22.07,1.92-3.74Zm-26.7,2.56h3.84v3.73H87.75Zm-16.64.37.06,1.64c-1.71.88-1.28,2.29-1.71,2.26a29.22,29.22,0,0,0-3.82,1.76,2.41,2.41,0,0,0-2.92-.24,2.9,2.9,0,0,0-.8,3L59,130.34c-1.42-.62-2.8-.58-3.49.38s-.48,2.43.8,3.93l-1.6,4.17c-.18-.25-2.86.55-2.9,2.16s2.21,2.82,2.21,3l-.11,4.6c-.1-.22-2.3.69-2,2.89.27,2,3,1.78,3,1.95l1.48,4.4c-.1-.13-2,1.76-.84,3.55,1,1.49,3.79.53,3.77.43l.78,1.12-.87,1s-.37-.46-.58-.42A4.2,4.2,0,0,1,54.35,162c-1.2-1.88.14-4.81.56-4.79l-1-2.53a3.74,3.74,0,0,1-3.5-3.12,4.38,4.38,0,0,1,2.21-4.15l.07-2.74a4,4,0,0,1-2.3-3.25,4.48,4.48,0,0,1,2.5-3.53l1-.48.92-2.25a6,6,0,0,1-1-3.84c.63-2.92,4.37-2.72,5-2.43l1.74-2.21a3.59,3.59,0,0,1,2.55-4.74,13.85,13.85,0,0,1,3.26.44l2.23-1.17c0-1.23,1.29-2,2.52-2.79Zm12.65,4.08h3.29v3.73H83.77Zm8.78,0h3.71v3.73H92.54Zm-21.16.93,0,1.43C50.07,135.33,58.77,157,61.8,159.53l-.68,1.53c-3.73-2.3-13.35-27.31,10.26-37.62Zm16.37,3.77h4l0,3.83h-4Zm-17.29,1.86-1.27,3.49-3.91.33,1.44-3.48Zm79.8,2.55,2.67,0c-5,5.93-10.39,10-15.71,12.19a2.76,2.76,0,0,1,.15-.95,2.91,2.91,0,0,0-.08-1.17,38,38,0,0,0,13-10.09Zm-13.69.05a8.65,8.65,0,0,1-2.45,2.12l-.39-2.16C134.55,131.64,136.56,131.68,136.56,131.68Zm4.7,0c.27.69-7,4.68-7,4.34l0-1.33,3.93-3Zm1.57,0h2.07c-1.85,3-11.64,8.35-11.24,7.59l.39-2.17a44.25,44.25,0,0,0,8.78-5.43Zm3.46,0H149c-4.06,5.23-8.17,7.14-12.12,9.39a1.83,1.83,0,0,0-.87-.1l-1.35-1.07C134.9,140.1,143.72,134.85,146.29,131.64Zm-75.48.19-.09,1.58c-5.68,5-8,11.29-5,18.64l-.7,1.57c-3.18-7.84-2.24-15.46,5.79-21.79Zm25.85.25.3,4.27L79.35,153.75a128.73,128.73,0,0,0,4.15-21.66Zm56.44,1v2.37c-6.95,7.77-14,11.25-20,12.66l-.14-.91,2.8-1.75c9-4,13-8,17.33-12.37Zm-21.09.06c.12,1.71-1.38,4.94-3.09,6.76H126l-.32-1.29a18.92,18.92,0,0,0,6.36-5.46Zm.89.51c1.08,1.76-.54,6.33-.61,6.15-.13.31,9.23,2.32-.39,7,.21,1.38,1.11,4.33.42,6.15-.22-.7-1.89-5.43-3.18-6.64,3-.87,5.17-2.73,4.93-3.35-.49-.87-1.83-1.95-4.1-2.74a16.85,16.85,0,0,0,2.92-6.6Zm-68.77.86.3,3.6L61,140.2l-.26-3.95Zm59.51,3.34a.91.91,0,0,1,.64.21c1.69.69,1.81,9.06.28,9.91a1.21,1.21,0,0,1-1.86-.63,25.21,25.21,0,0,0,0-8.92c0-.39.52-.57,1-.57Zm29.47.12v3c-9.93,10.45-20.64,18.69-31.56,23.32l-1-1.72A99.27,99.27,0,0,0,153.11,138Zm-1.74.27c-4.6,6.5-10.21,10.75-17.88,12.67l-.15-1.84C142.9,146.87,151.61,138.25,151.37,138.25ZM26.15,139.3c6,6.22,12.13,12.38,18.23,18.76l-2.42.13L26.08,141.47Zm71.33.31.21,1.54L96,143.09l2.76,3,.14.71-2.37,2.51-1.07-1.07,1.31-1.49-2.22-2.37-4.12,4,3.39,3.74-2.56,2.47-1-1.06L91.52,152l-2.27-2.44L85,153.82l3.18,3.56-2.12,2.38-1-1.07,1.09-1.27L83.88,155l-4,3.95,3.32,3.73-2.7,2.73-1-1,1.51-1.67-2.49-2.41-2,1.91s.75-1.9.86-2.22c.16-.47.82-.84,5-5,5-5.06,10.15-9.81,15.15-15.34Zm28.74,1a14.13,14.13,0,0,1,5.17,1c2.24,1.2,1.54,2.15.08,2.85a11.67,11.67,0,0,1-5.14,1.31l.06-1a13.24,13.24,0,0,0,3.34-1.13,2.35,2.35,0,0,0,.87-.71,5.15,5.15,0,0,0-1.76-1.1,13.78,13.78,0,0,0-2.53-.39Zm-65.54,1.29,1.84,2.81-2.18,3.72-2.1-3.21Zm37.19.3c.06.53.72,2.58.38,2.19L97,143Zm28.46.28a8.58,8.58,0,0,1,2.84.48,5.83,5.83,0,0,1-2.82,1Zm25.58,1.4A1.13,1.13,0,1,1,150.8,145,1.12,1.12,0,0,1,151.92,143.91Zm-57.53,2,1,.93-1.23,1.45,2.23,2.38L99.1,148l.37,1.67L73.61,175.51l-1.44-.11,1.64-2-1.87-1.94.77-1.4,2.21,2,4-3.93-3.28-3.5,2.8-2.92,1.06.93-1.61,1.77,2.34,2.43,4.23-4.22L81.2,159l2.64-2.56,1,.93-1.23,1.32L86,161.23l3.57-3.77-3.25-3.63L89.2,151l.88.9-1.33,1.5,2.42,2.55,3.89-4.06-3.2-3.53Zm54.94.67a1.13,1.13,0,1,1-1.11,1.13A1.12,1.12,0,0,1,149.33,146.54Zm-21,.05a12.34,12.34,0,0,1,3,6.93,21,21,0,0,0-5.53-5.74l.4-1Zm24.8.17v2.53A85,85,0,0,1,126,169.82l-1.66-2C135.89,162.53,144.25,156,153.11,146.76Zm-11.52,1.76-3.18,2.5v-1.08l3.18-1.42Zm-16.37.19a12.93,12.93,0,0,1,6.32,7,119.53,119.53,0,0,1-11.61,6.15,54.26,54.26,0,0,1-5.18-9.77c6,0,7.59-3.35,7.63-3.37,1.44.55,1.74.62,2.84,0Zm21.4.49a1.15,1.15,0,0,1,1.13,1.09,1.11,1.11,0,1,1-2.23,0c.12-.78.61-1.1,1.1-1.09Zm-8.24.74V151c-1.52,1.35-4.47,3.54-4.47,3.54l-1.22-.07.4-3.1a47.5,47.5,0,0,0,5.29-1.47Zm-77.79.13,2.92,2.43-.89,3.77-2.87-2.21Zm39.17.71.27,1.09-24,24-1.36-.22Zm44.21.93a1.13,1.13,0,1,1-1.11,1.13A1.12,1.12,0,0,1,144,151.72Zm8.85,0c.13,0,.29,0,.29.12v2.08a1.07,1.07,0,0,1-.37.07,1.05,1.05,0,0,1-1-1.13A1.12,1.12,0,0,1,152.8,151.71Zm-2.7,2.52a1.13,1.13,0,1,1-1.11,1.13A1.12,1.12,0,0,1,150.1,154.24Zm-9.37,0a1.13,1.13,0,1,1-1.12,1.13A1.12,1.12,0,0,1,140.73,154.25Zm-8.06.35,1.15,0-2.13,1.29a9,9,0,0,0,1-1.33Zm20.43.53,0,2.33a89.29,89.29,0,0,1-23,16.89L128.79,173A86.32,86.32,0,0,0,153.11,155.13Zm-15.56,1.27a1.13,1.13,0,1,1-1.11,1.13A1.12,1.12,0,0,1,137.54,156.39Zm9.91.08a1.13,1.13,0,1,1-1.11,1.13A1.12,1.12,0,0,1,147.45,156.48ZM36.44,161c3.78-2.23,6.82-2.49,11.16-1.82l1.29,2.59c-4.22-.76-8.66-.69-12.46,2.29-3.94-2.53-6.93-3.26-10.17-2.84l-.06-2.73A14.35,14.35,0,0,1,36.44,161Zm98-2.46a1.13,1.13,0,1,1-1.12,1.13A1.12,1.12,0,0,1,134.47,158.56Zm10.19.46a1.13,1.13,0,1,1-1.11,1.13A1.12,1.12,0,0,1,144.66,159Zm-13.54,1.69a1.13,1.13,0,1,1-1.12,1.13A1.12,1.12,0,0,1,131.12,160.71Zm10.39.66a1.13,1.13,0,1,1-1.11,1.13A1.12,1.12,0,0,1,141.51,161.37Zm-13.83,1.34a1.15,1.15,0,1,1-1.13,1.15A1.14,1.14,0,0,1,127.68,162.71Zm10.85.95a1.13,1.13,0,1,1-1.12,1.13A1.12,1.12,0,0,1,138.53,163.66Zm-14.15.78a1.13,1.13,0,1,1-1.12,1.13A1.12,1.12,0,0,1,124.38,164.44Zm-49.28,1L77.87,168,75,171l-1-1,1.6-1.69-1.08-1.48Zm60.35.25a1.13,1.13,0,1,1-1.11,1.13A1.12,1.12,0,0,1,135.45,165.72Zm-3.21,1.92a1.13,1.13,0,1,1-1.11,1.13A1.12,1.12,0,0,1,132.25,167.63Zm-3.49,1.92a1.13,1.13,0,1,1-1.11,1.13A1.12,1.12,0,0,1,128.76,169.55Zm-57.33,3.2.9.75-1.42,1.74-1.08,0Zm-17.51,4.68A27.38,27.38,0,0,0,47.06,182l-3.16-4.44Zm-21.5,0,8.41.12-2.8,4A17,17,0,0,0,32.42,177.47Zm10,.44c.91.29,3.3,3.75,4.42,5.63,2.39-1.93,4.74-4.09,7.29-5.25a57.37,57.37,0,0,0-7.6,9.88c-.54-1.47-2-5.67-3.93-7.5a17.52,17.52,0,0,0-4.17,6.25,54.27,54.27,0,0,0-5.79-8.18c-.37-.51,2.73,1.45,5.79,4.48.86-2.21,3.18-5.23,4-5.32Zm-10.1,2.17c1.45,1.17,5.37,6.28,5.83,9.36l-1.88.12c-1-3.16-2.68-6.32-3.94-9.48Zm20.92.52c-1.42,3-3.19,6-4.45,9.26l-1.86-.08C49,185.26,49.73,184.44,53.26,180.6ZM42.6,181.92h0a17.81,17.81,0,0,1,3.13,7.72l-1.37-.05a26.49,26.49,0,0,0-1.61-3.93c-.42-.63-.76-.55-1.06,0a17.1,17.1,0,0,0-1.31,3.8l-1.57-.12c-.29-2.19,3.19-7.35,3.74-7.4Zm-.25,8.44c.64,0,1.31.71,1.3,1.95,0,.58-.39,1.86-.87,1.93-.89.48-1.94-1-1.68-2.25.23-1.06.69-1.63,1.25-1.62Zm-3.09.23c1.26.11,1.54,3,1,3.58a1.5,1.5,0,0,1-2.29-.85C37.48,192,38.41,190.6,39.26,190.58Zm6.23,0c1.38.2,1,3.35.32,3.82-1.11.59-1.95-.4-1.58-1.88C44.53,191.31,45,190.6,45.48,190.57Zm3.18.52c1.58.18.67,3,0,3.52-1,.79-2-.39-1.48-1.8.37-1.09,1-1.73,1.51-1.72Zm-12.71.08c1.15.19,1.81,2.82,1.13,3.57-.36.43-1.39-.2-1.87-.92S35.18,191.17,35.95,191.18Zm12.2,5.73c.14,1.38-.89,1.38-3.85.71a17.13,17.13,0,0,0-5.5.12c-2.28.42-2.6.26-2.6-.68,0-1.09,1.28-1.71,4.24-1.8C42.56,195.19,47.82,195.17,48.15,196.91Zm4.6-.81c-3.52.34-4.46,4.82-4.07,6.47a21.94,21.94,0,0,1-.35,7.57A23.58,23.58,0,0,1,47,214.21c-.93,1.87-.69,3.26.69,4a2.78,2.78,0,0,0,3.39-.55c1.57-1.72,1.76-5.36.8-13.63-.34-2.92-.16-3.5,1.24-3.34,2.93,0,2.81-4.6-.37-4.61Zm-.42,3.77c-.79-.31-1.32.42-1.22,2.23a24.19,24.19,0,0,0,.27,2.43c1.14,7.94.71,13.25-1.69,13.51-2.09.34-3.5-1.22-2.49-2.84.58-.91,1.08-1,2.2-.56,1.54,1,1.16-.44-.23-1.49-.89-.64-1-.64-.48-2.64a23.31,23.31,0,0,0,.63-8c-.33-2.42.46-5.62,3.49-5.81A1.69,1.69,0,1,1,52.32,199.86ZM30.69,210.32a3.37,3.37,0,0,0,2.92,0,18.62,18.62,0,0,1,1.51-5.38,3.7,3.7,0,0,0-5.88.83,3.34,3.34,0,0,0,1.45,4.54Zm3-5.86c1.13.24,1,1.45-.1,1.05C31,204.3,29,207.95,31,209.32c1,.59,1.5.25.47-.56-.42-.5-.32-.7-.06-1.19.53-1,2.46-.84,2.32-.11-.44,2.31-.73,3-1.41,3-3.93.21-4.67-7.27,1.34-6Zm33.42,4.15S55.38,222.06,49.74,229l70.76-.33L107,209.76C95.48,212.47,81.91,211.69,67.1,208.61Zm-.35,4.3c1.77,0,3.78,1.32,5.52,5.67.09,0,7.78-11.85,14.44.46,1.09-2.76,7.36-10,14.6-.72,2.57-6.19,8.51-4.1,9.07-1.94-.12-.46-5.66-1.8-8.05,2.31a1.82,1.82,0,0,0,0,2.18,1.19,1.19,0,1,1-1.66.18c1.2-.91-1.26-3.74-3.29-4.76-2.78-1.4-6.66-.78-8.52,1.22a6.48,6.48,0,0,0-1.76,2.82.76.76,0,0,0,.18.79c.81,1,.28,2.35-.82,2.18-1.43-.22-1.24-1.58-.28-2.32.29-.15.18-.32.09-.58-2.62-7.48-12.37-6.06-13.43-.88a1.44,1.44,0,0,0-.08.58c.11.5.4.91.29,1.3a1.26,1.26,0,0,1-2.5-.18c0-.6.6-.78.91-1.33a1.26,1.26,0,0,0,.09-1.14c-2.64-5.62-7.18-4.44-9.43-3.17,0,0,2-2.7,4.6-2.67Zm-2.93,3.26a3.35,3.35,0,0,1,2.67,1.42c2.77-1.49,4.74,1.09,4.41,1.34-3.92-2.59-5.2,3.44-1.33,3.21-1.7,3.57,4.37,5.09,3.69.54,3.74,1.33,4.36-3.89.57-3.81,1.23-2.15,4.41-1.56,5.75-.21,1.58-2,5.47-.09,5.85,1.58-4.36-2.27-4.8,4.66-.58,3.19-1.25,4.41,5.46,3.78,3.6,0,4.18,1.39,3.61-4.94-.5-3.66-.25-.33,3.25-4,5.79-.55.34-.61,4.31-2.59,6.48.53-4.7-1.61-3.81,4.81-.44,3.53-.9,4.26,5.18,3.57,3.63-.06,4.71,1.21,2.63-6.08-.69-3.39.54-2.93,4.5-1.71,4.46-1.26,0,0,2.1-2.31,4.46-.62-3.68.31-2.43,5.35,1,3.92a2.31,2.31,0,0,0,3.26,2.26l3,4.22-67.83.43,5.42-6.56c1.81,1.52,3.69.8,3.92-1.58,3.94,2.46,5-3.38,1.27-3.63a4,4,0,0,1,2.12-.81ZM60,218.06c.24.17-.08,1-.6.74Zm52.89,1.69.55.77C113.56,220.79,112.4,220.39,112.92,219.76Z"/><path id="path163-0-2-5-8-7-5-6-5-5" class="cls-2" d="M48.16,64.85s-3.72-6.11-8.73-13.28c-3.35-4.8-6-10-6.28-14.48-.29-5.12,2.42-10.25,7.32-10.5s6.88,3.95,7.69,7.4c.81-3.46,2.8-7.65,7.69-7.4s7.61,5.38,7.32,10.5c-.25,4.48-2.93,9.68-6.28,14.48C51.88,58.74,48.16,64.85,48.16,64.85Z"/><path id="path163-0-2-5-8-7-7-8-9-1-8" class="cls-2" d="M130.62,184.8s-3.72,6.1-8.73,13.28c-3.35,4.8-6,10-6.28,14.48-.29,5.12,2.42,10.25,7.32,10.5s6.88-3.95,7.69-7.4c.81,3.46,2.8,7.65,7.69,7.4s7.61-5.38,7.32-10.5c-.25-4.48-2.93-9.68-6.28-14.48-5-7.18-8.73-13.28-8.73-13.28Z"/></g></g></g></svg>