<svg xmlns="http://www.w3.org/2000/svg" viewBox="0 0 178.78 249.65"><defs><style>.cls-1{fill:#fff;stroke:#000;stroke-width:1px;}.cls-2{fill:#131f67;}.cls-3{fill:#e2cf00;}.cls-4{fill:#d40000;}</style></defs><title>KS</title><g id="Layer_2" data-name="Layer 2"><g id="svg11376"><g id="KS"><rect id="rect7467-2-2" class="cls-1" x="0.5" y="0.5" width="177.79" height="248.65" rx="8.5" ry="8.5"/><path id="path7499-2-5" d="M14.21,40.35C10.78,44.72,7.1,47.24,7,50.65A3.31,3.31,0,0,0,9.79,54a2.85,2.85,0,0,0,3.27-2.75c0-.4.47-.39.47.16A10.44,10.44,0,0,1,12,56.3h4.5a10.42,10.42,0,0,1-1.56-4.9c0-.54.47-.55.47-.16A2.85,2.85,0,0,0,18.64,54a3.31,3.31,0,0,0,2.74-3.34c-.06-3.41-3.73-5.93-7.17-10.3Z"/><path id="path7503-7-0" d="M164.57,209.3c-3.43-4.37-7.11-6.89-7.17-10.3a3.31,3.31,0,0,1,2.74-3.34,2.85,2.85,0,0,1,3.27,2.75c0,.4.47.39.47-.16a10.43,10.43,0,0,0-1.56-4.9h4.5a10.44,10.44,0,0,0-1.56,4.9c0,.54.47.55.47.16a2.85,2.85,0,0,1,3.27-2.75,3.31,3.31,0,0,1,2.74,3.34c-.06,3.41-3.73,5.93-7.17,10.3Z"/><path id="path39-5-1-0" d="M14.85,34.95h2.64L13.6,25.23l-3,4.1,0,5.61h2.08v2.89H5.4V34.95H7.82V14.05H5.4V11.53h7.45v2.62H10.79l0,10.18,6.5-10.27H15V11.53h7.93v2.53H20.79l-5.36,8.39L20.68,35H23v2.89H14.87l0-2.9Z"/><path id="path39-5-7-0-0" d="M163.94,214.7h-2.64l3.88,9.72,3-4.1,0-5.61H166V211.8h7.34v2.89H171v20.9h2.42v2.53h-7.45V235.5H168l0-10.18-6.5,10.27h2.3v2.53h-7.93v-2.53H158l5.36-8.39-5.24-12.5h-2.33V211.8h8.15l0,2.9Z"/><path id="path4096-2-4-0" class="cls-2" d="M24.08,19.56H154.7V230.09H24.08Zm92.71,209.18c-4.86-8.86-12.53-23.28-12.76-23.4-2.84,1.52-31.78,5.42-45.71,1.64-4.76,7.19-9.44,14.32-13.58,21.45ZM72.34,202.25c-.73,0-1.54.46-1.39.07.09-.22.29-2.5.38-3.31.22-.36.52.59.49,1.47,0,.5.22.14,1.87.23a23.1,23.1,0,0,1,3.85.56c2.11.46,6.19.13,7.94-1.15.95-.69,1.3.06.33.8-4.41,3.35-7.9,2.08-11.73,1.51a10.38,10.38,0,0,0-1.74-.19Zm1.87-3.18a.69.69,0,0,0-.8,0c-1.35.63-1-.28,0-1.19.45-.42.43-.63.09-1.07-.17-.22-.46-.25-.39-.58.29-1.44,2.3-3.61,4.55-4.58.93-.4,1.08,0-.1.74-1.82,1.07-2.4,2-1.38,1.61,2-.72,3.81-.21,6.36,1.07a2.54,2.54,0,0,0,1.68.37c.46-.38.87.08,1.15.32s.22.21.42.16c1.45-.34.58.59-1.4,2-3.55,2.52-7.42,3.71-10.16,1.16Zm5.46.62A12.76,12.76,0,0,0,84,197.38c1.32-1.16.57-1-.94-.25a11.83,11.83,0,0,1-6.2,1.31c-2.07,0-2-.13-2.08.13C74.5,199.47,77.34,200.4,79.67,199.69Zm-4-3.54a1.93,1.93,0,0,0,.1-1.08c-.19-.31-.6-.08-1.12.58-.32.41-.28.47,0,.79l.38.24c.44.19.51-.22.61-.54Zm.9.54c.64-2.17,2.06-2.13,3.07-.05h.72c-1.47-4-4.32-2-4.42,0A1.18,1.18,0,0,0,76.57,196.68Zm5.31-.37c.67-.37.57-.63-.28-1.07-.61-.31-.93-.38-1-.17a2.79,2.79,0,0,0,.28,1.44C81.11,196.68,81.48,196.51,81.88,196.32Zm-9.41-6.18c-.12-.2-.1-.58.37-.79,2.88-1.34.78-4.16-1.44-2a2.62,2.62,0,0,1-2.56.5c-.76-.33-.78-1.27.24-1.47a5.42,5.42,0,0,0,1.5-.47c3.87-2.08,5.92,2.44,3.18,3.94-.56.33-1.16.51-1.27.33ZM61.64,186a2.47,2.47,0,0,1-.31-4.16c.94-.64,1.89-.82,4.47.46,1.82.9,2.86-.07,2.82,1,0,.64-.07,1.29-1.13,1.44-1.72.25-2.9-2.09-5.11-1.87a1.26,1.26,0,0,0-.24,2.46C63.68,185.87,62.74,186.49,61.64,186Zm28.85.36c-.29.14-.42-.5-.3-.83.78-1.87,1.51-3.35,2.22-5.1.57-1.39.95-2,1.2-2s.38.21-.05,1.06c-.66,1.73-3.06,7-3.06,6.86Zm-12.88-.48c-.69-.5-.58-1.23.21-.67,1,.72,2.68-.59,2.34-1.83-.41-1.49-2.39-1.86-4-.52-2.61,2.11-5.48,2.22-5.48.57,0-.47-.06-.58,1-.65a8.51,8.51,0,0,0,3.4-1.1c3.18-1.94,6.56-.6,5.86,2.64A2.33,2.33,0,0,1,77.6,185.91Zm-11.66-4.79c-.26,0-.73.25-.86.15s-.23-.77-.44-1.39c-.39-1.09,0-.75.67-.46a3.64,3.64,0,0,0,2.58,0,8.18,8.18,0,0,1,3.54,0,7.08,7.08,0,0,0,3.35-.23c1.34-.42,1-.27.76.56a5.29,5.29,0,0,1-.5,1.45,2,2,0,0,0-2.23,0,3.34,3.34,0,0,1-2.52.27,1.53,1.53,0,0,0-1.84,0c-1.06.52-1.54-.34-2.5-.39Zm19.93-2.27c.19-.33.46-.79.71-1.3,2.07-4.12,2.21-5.26.75-6.65-2-1.86-3.63-1.05-5.5,2.67-.46.9-.73,1.58-.91,1.86s-.46.07-.58-.05,1.85-4.19,2.67-5.05A3.44,3.44,0,0,1,88.86,173c-.13,1.55-.42,2.39-1.83,5.23-.35.7-.65,1.3-.84,1.58-.66.44-.51-.58-.32-.91Zm-19.46-.16c.33-1.47,5-2.14,6.24-.22.12.19,0,.18-.48,0-2.38-.79-2.85-.75-5.13.16-.34.13-.59.19-.63,0Zm17.87-.28a4.43,4.43,0,0,1,.44-1.2c1.56-3.1,2-3.84,1.52-4.42-.93-1.13-2.17-.15-3.32,3.09-.43,1.21-.72,1-.93.76-.4-.37,1.37-4.13,2.22-4.69,1.94-1.24,3.46.19,2.6,2.72-.67,1.14-1.22,2.9-1.84,3.82-.3.41-.69.29-.69-.07Zm-7-5c-.09-.16.09-.37.76-1.81.92-2,1.21-2.72.83-3.85a2.93,2.93,0,0,0-4.71-1.19,4.33,4.33,0,0,0-1.08,1.55,26.21,26.21,0,0,1-1.34,3.15c-.29.29-.69.35-.66-.16a16.73,16.73,0,0,1,1.39-3.47c2.14-4.67,8.32-2.51,6.87,2.41a12.88,12.88,0,0,1-1.52,3.58A.32.32,0,0,1,77.28,173.38Zm-1.43-.86a8.53,8.53,0,0,1,.48-1.2c1-2.59,1.05-3.39-.47-3.42-.91.12-1,.49-1.84,2.54a8.25,8.25,0,0,1-.56,1.34c-.16.22-.48.09-.6,0-.33-.33,1.1-3.69,1.85-4.32,1.73-1.51,4,.64,2.92,2.57a13.88,13.88,0,0,1-1.21,2.68c-.26.37-.58.32-.57-.14ZM39,142.28l-5.26-.36a47.48,47.48,0,0,1,0,16.29,32,32,0,0,0-.57,9.83c.28,3.81,1.88,7,2.29,11.08a30.94,30.94,0,0,1-.93,8.89c-1,4.86-.76,5.37-.62,11.08.13,5.29-.36,5.1-.66,4.79a13.45,13.45,0,0,1-.08-2.1c0-1.11-.06-3.83-.12-5.72a38.86,38.86,0,0,1,.59-8.48c.62-2.79,1.31-5.66.88-8.75-.87-3.9-2.09-7.8-2.51-11.56-.53-4.64.77-9.29,1.2-12.66s0-8.88-.87-11.22a6.12,6.12,0,0,0-.84-1.8,16.63,16.63,0,0,0-2.7-.22c-.06,22.34,0,44.69,0,67L33.71,213l5-4.82Zm.35,25.63s7.49,4.33,15.74,8.59c-.79-4.87,1.71-5.61,4-6.17-.56-9.41,8-7.48,9.33.7h.84c1.49-4.08,3-6.89,6.34-7.57,2.62-.52,5.21,1.15,5.86,5.08-.12-.28,8.7-5.2,8.94,5.2,4-2.5,6.86-.34,8,2.83,1.69-2.59,5.92-2.7,7.27-2.89.47-.55,1.3-.86,2.81-.85,1.29-.07,3-1,3.93.15,1.36.22,2.4,0,3.56.87.93.71,2,2.29,3.5,1.2,2.94-1.42,6.24-2.06,8.86-3.78,0,0-.7-.9-.49-.77a3,3,0,0,0,.89.67,9.42,9.42,0,0,0,1.79-.9c-10.94-12.67-19.94-37.42-14-60.31.16-.39-.5-.54-.82-.68.1-.17,1.71.06,1,1.52-.69,4.39-1.46,9.14-1.64,12.78,0,.44,0,.84,0,.84,24.53,11.38,21.52,36,15.22,44.6l1,1.33c.44.3,19.3-10.76,18.67-11.22l3.57-1.79L153,109l-14.11-1.08a1.27,1.27,0,0,1,.33-.51c.13-3-.13-7.31,0-11,.05-10.44.16-14,0-14.28-4.35-2.88-10.84-7.1-16.3-9.14a18.41,18.41,0,0,1-.25,4.57c-5.11,1.64-2.74,3.74-4.63,6a4.05,4.05,0,0,1-5.67,0c-1.71-1.67-2.52-5.49-2.52-5.49-2.7,2.91-2.15,6.42-5.77,7.74-5.82,2.9-7.66-5.78-7.33-5.58-2.23,2.16-8.49,3.92-9.16-5.21-2.81,2.6-6,1.31-7.3-1.89-1.72.06-3.64,1.41-5.38,2.15a13.3,13.3,0,0,1-5.21,1.11,12.11,12.11,0,0,1-5.22-.29,3.44,3.44,0,0,1-3.2-1.66,2.19,2.19,0,0,0-2.44-.9C56.12,75,53.12,75.4,49.82,77c-.21.14.29.42.12.36s-1.73.82-1.73.82c16.71,22.1,17.62,44.42,14.12,60.23a1.35,1.35,0,0,0,.15,1.38c-.53-.09-.54.06-.64-.28l1.74-13.28c.05-1.6.25-1.48-1.15-2.08a27.05,27.05,0,0,1-3.59-1.75c-4.08-3-8.68-6.78-10.93-11.44-6.4-10-4.29-22,.51-31.47L47.22,78.2A106.5,106.5,0,0,0,24.94,92.88L25,140.3,39.4,142Zm-6.95-31.67a1.86,1.86,0,0,0-2.13-.21c-.11.1-.36.6-.43.58-.65-.17-1.1-.3-1.19-.86l.69-1.05c.55-.83,1.34-1.13,2.67-1.44.47-.11,1.18-.21,1.44-.32,1-.43,1.35-1.38.34-1-.74.2-1.77.14-1.91-.54a.92.92,0,0,0-1.11-.71A10.07,10.07,0,0,0,28,132c-.38.23-1.11.76-1.11.76-.11.18-.54-1.14-.14-1.52a2.62,2.62,0,0,0,1.39-.13c1.19-.48,2.34-1.05,3.54-1.51.77-.3.84-.28.63-.82a2.13,2.13,0,0,1-.06-1.22c.14-.37.13-.56-.11-.72-.54-.36-1.84,0-3.66.86a6.25,6.25,0,0,0-1.27.66c.23-.58.09-.69.09-1.29a3.39,3.39,0,0,0,2-.52,6.17,6.17,0,0,1,2.39-.69c.37,0,.2-1.4-.22-1.79a2.46,2.46,0,0,0-2.24-.08,3.82,3.82,0,0,0-2.64,1.39c-.78.74,0-1.23,1.44-2a17.11,17.11,0,0,0,2.33-.38c.55-.12.64-1.42-.16-2-.5-.44,1.82-.45,1.77-.32s-.05.63.13.77a1.54,1.54,0,0,1,1.08,1.47c1.15,1.89,1.71.71,2.5.05-.17,4.12,1.27,4.59,1.46,4.85-2,3.69-.48,3.78,1.36,4.63a3.45,3.45,0,0,1-1.17.26A5.71,5.71,0,0,0,34.59,134c-.34.29-.35,0-1.71,0a3.11,3.11,0,0,0-2,.32c-1.15.51-1.14,1,0,.8a2.11,2.11,0,0,1,2.5,1.52.7.7,0,0,1,0,.51c-.25,0-.81,0-.8-.07a1.56,1.56,0,0,0-.22-.89Zm1.74-5a.71.71,0,0,0,.1-1,2,2,0,0,0-1.66.18C31.87,130.94,33.14,131.86,34.13,131.25Zm.7-2.48a1.15,1.15,0,0,0,.1-1.51,1.34,1.34,0,0,0-2.21.64c-.09,1,1.27,1.53,2.11.87Zm-.5-3.4a1,1,0,0,0-1.48-1c-.93.49-.36,1.51.8,1.45C34.28,125.83,34.28,125.83,34.32,125.37ZM31.61,122a.6.6,0,0,0,0,1.05C33.19,124,32.7,121.58,31.61,122Zm113.49,4.91c-.71-2.64-2.68,0-2.68,0-.07-2.71.44-3.92-1.58-4.84,2-3.09,1.6-3.52-.55-4.7.2,0,2.85-.58,3.31-2.11.1.07,4.17,1.08,4.67-1.15-1.23.56-3.64.65-3.67-1.75.23-.07.8,0,.75.13-.32,1.54,2.47,1.92,2.92.7a6.85,6.85,0,0,0,1.35.73,5.42,5.42,0,0,1-2.47,2.14c-2.16.72-2.91.91-2.91,1.35,0,.17.35.19,1,.33,1.34.09,1.31.38,1.49.83s.31.48.75.43a7,7,0,0,0,3.37-1.86c.13,0,.28,1.13.36,1.17,0-.18-1.08.14-2.77,1.13-1.37.81-1.91.93-2.09,1.15s.2.67.24,1.23-.28.69-.05.84a1.61,1.61,0,0,0,1.21,0,10.14,10.14,0,0,0,3.13-1.42c-.23.43.15,1.53.15,1.53a1.13,1.13,0,0,0-1-.18,24.57,24.57,0,0,1-2.55,1,1.41,1.41,0,0,0-.64.25c-.17.15-.14.49-.15,1,0,.36-.1.69.12.8a4.57,4.57,0,0,0,2.53-.25c.44-.19,1.37-.7,1.37-.7l-.29,1.52c-.39-.44-1.51-.12-2.25.18a.84.84,0,0,0-.59.69.93.93,0,0,0,.6,1.14,1.59,1.59,0,0,0,.7.07c-1.94.74-1.55,1-2.68.45a4.49,4.49,0,0,1-1.15-1.79Zm2,0a1.2,1.2,0,0,0-1.21-.44c-.29.16-.19.48-.09.73C146.07,127.92,147.77,127.7,147.13,126.95ZM146,125.06c.45-.6,0-1.41-.88-1.41a.79.79,0,0,0-.89.82C144.24,125.34,145.62,125.56,146,125.06Zm-.93-2.28a1,1,0,0,0,.52-1.65,1.91,1.91,0,0,0-2.06-.09c-.89,1,.11,2.13,1.54,1.74Zm.7-3c.49-.25.59-.68.15-1.16-.79-.68-2.17-.15-1.73.84a1.16,1.16,0,0,0,1.58.32ZM44.51,97a15.78,15.78,0,0,0,2.06-1.3c.53-.29.37-.24-.31-.64-.53-.25-1.59-1.33-1.69-1.07A8,8,0,0,0,44.51,97ZM63.3,123.44c0-.52.09-1.29.08-1.86.1-1.09-.09-.77-.68-.41-.43.28-1.12.71-1.4.84-1.07.54-.94.57.56,1.3,1.27.57,1.41.51,1.43.14Zm-1.47-2.54c1-.65,1.36-1,1.41-1.71s-.09-1.14-.82-.56c-2.49,2-5.06-1.9-2.78-4.06a4.75,4.75,0,0,0,1.06-1.3c0-1.25-1.36,0-2.51,1.68-1.27,1.56-2.06,3.52-.95,5.4.89,1.37,2.87,1.65,4.57.56Zm-5.66-2.53a4.16,4.16,0,0,1,.21-1.5c.28-.72.27-.81-1-.21A5.91,5.91,0,0,1,54,117c-1,0-.78.32.71,1.57s1.54,1.37,1.43-.16Zm3.53-6c.16-.38-.17-.52-.49-.45,0,0-.57.41-1.21.92-1.94,1.53-3.36,1.71-4.32.54s-.57-2.59,1.61-4.2c1-.71,1.19-.76.73-1.07s-.37-.2-1.75.74c-2.78,1.9-3.62,3.19-3.34,5.08a1.93,1.93,0,0,0,.85,1.48C54.44,117.78,58.12,114.52,59.7,112.37Zm2.81,1.12-.17-2.61a22.69,22.69,0,0,1-6.44-10.12c-.94-3.09-.19-9.53,0-9l-1.53-2.91a19.05,19.05,0,0,0-.46,12.61c1.23,4.08,3.69,9,8.65,12.08ZM50.59,112c.9-1.74.93-1.55-.81-1.56-2,0-1.76-.26-.64,1.44C50,113.22,49.88,113.34,50.59,112Zm1.19-2.38a6.46,6.46,0,0,0,2.4-1.28c1.74-1.14,1.81-1.76.07-.88-2.24,1.13-4.21.84-4.94-.63-.65-1.31.71-2.94,2.95-3.58.76-.22,1.17-.4,1.17-.74,0-1-3.8.34-5.37,1.89-3,3-.38,6.54,3.74,5.22Zm-4.9-4.66c.1-.16.38-.53.63-.92,1.07-1.25.17-.88-.78-1.22a3.46,3.46,0,0,0-1.31-.33c-.57.09.19,1.19.38,1.91C46.3,106,46.24,105.92,46.88,104.93Zm4.06-2.87c1.92-.19,2.12-.38,2.12-.78s-.23-.32-1.2-.19c-2.55.36-4.24-.3-4.61-1.67s1.35-2.75,3.66-2.67c1.25,0,2.08-.39,1.32-.81a16.15,16.15,0,0,0-4.61.06c-2.28.67-3.21,1.95-3,3.72.32,2.18,1.5,2.81,4.39,2.66C49.55,102.35,50.26,102.13,50.94,102.06Zm1.49-7.12c0-.34-.55-.39-2.36-.66-2.41-.36-3.49-2.61-2-4a3.66,3.66,0,0,1,2.6-.6c1.59.29,2.56.62,2.58.08s-.46-.52-3.45-1.15c-4.51-1-7,3.5-3.38,5.68C47.75,95.16,52.42,95.63,52.42,94.95Zm1.12-6.38c0-.17-.15-.3-.49-.44a6.73,6.73,0,0,1-2-1c-1.49-1-1.94-3-.95-4.08S49.39,80.83,48,82s-1.32,3.09.34,4.58S53.54,89.37,53.54,88.57Zm-7.31-.27c1.57-.74,2.7-.31,1.5-1.34-.67-.63-1.25-2.41-1.72-.9a14.19,14.19,0,0,0-.63,2.65C45.48,88.83,45.46,88.64,46.23,88.3Zm55.49-3.84a3.83,3.83,0,0,1-2.55-4.54,19.6,19.6,0,0,1,1.53-4c.79-.63.68.21,0,1.66s-1.17,2.68-1,3.56a2.88,2.88,0,0,0,2.09,2.54,2.94,2.94,0,0,0,2.36-.57c.77-.55,1.5-2,2.37-3.9.28-.55.65-2.23,1.12-1.2.22.53-1.64,4.06-2.33,5A3.67,3.67,0,0,1,101.72,84.46Zm10.77-1.18a3.72,3.72,0,0,0,3.3,1c2.36-.84,3.43-3.08,2.54-6.68-.45-2-.84-3.27-1.23-3.52-.19-.12-.4.11-.58.39s.09.6.35,1.55c1.13,4,.83,5.81-.54,6.58-2,1.11-3.7-.17-4.28-3-.09-.44-.37-1.34-.37-1.34-.15-.4-1.39-.31-.94,1A9.93,9.93,0,0,0,112.49,83.28ZM122.6,72.8c0-1.41-3-7.52-3.17-6.87a14.68,14.68,0,0,0,.1,2,2.52,2.52,0,0,0,.32.63c2.56,4.59,2.16,7.82-.05,8.53-.76.34-.92.68-.58,1,.68.75,2.4-.73,2.73-1.27C122.78,75.65,122.66,73.46,122.6,72.8Zm-42.83-1A28.71,28.71,0,0,0,83.5,65c2-5.83,4.11-12.55,4.7-18.75.06-.78.1-2,.14-2.08a2.28,2.28,0,0,0-1.49.09c-.16.21-.05.67-.11,1.28a85.27,85.27,0,0,1-5,19.8,31.41,31.41,0,0,1-3.37,6.61c-.23.34-.51.69-.63.89-.33.47-.09.79.29.58a8.14,8.14,0,0,0,1.74-1.65Zm-3.29,1.7a48.22,48.22,0,0,0,7-15.4A94.66,94.66,0,0,0,86,46.18c.12-.86.21-1.43,0-1.69a2.2,2.2,0,0,0-1.46.17c-.17.25-.06.75-.21,1.91a84.09,84.09,0,0,1-2,9.94c-2.62,8.72-5,13.6-8.2,17.87-.26.36-.48.59-.46.75s.34.2.84-.11a12.11,12.11,0,0,0,1.88-1.55Zm-4.68,2.26c1.5-.86,4.15-4.6,6-8.62a93.78,93.78,0,0,0,5-14.77,53.49,53.49,0,0,0,1.11-7.46c-.12-.4-1.59-.07-1.39.21a109.41,109.41,0,0,1-3,12.69c-2.92,8.37-5.44,14-8.16,16.78L70.3,75.6s0,.31.24.36a1.78,1.78,0,0,0,1.25-.24Zm-2.3-.33c3.39-1.91,7.37-10.84,10.62-22.05.55-1.92,1.57-8.34,1.57-8.34s-1.35.05-1.61.34-.22,1.38-.6,3.72a75.73,75.73,0,0,1-7,20c-1.43,2.83-3.81,5.5-5.31,6.26-.84.42-1.08.89-.47.93,1,0,1.13.26,1.88-.15ZM116,175.25c-2.54,0-4.71,2.45-6.63,5.54-4.1,6.34-6.85,16.93-7.52,22.55l1.55-.29c-.23.11,2.89-15,7.65-21.44,2.57-4.08,2.46-4.14,3.91-4.51,1.83-.47,3.29,1.52,2.38,2.72-.33.41-.69.11-.58-.47.32-1.84-2.35-2.2-3.09-.39-.86,2.09,1.42,3.95,3.65,3.12,2-.71,2.83-3.52,1.43-5.59A3.84,3.84,0,0,0,116,175.25Zm-13.4-.26c-3,3.86-4.56,7.82-6.43,13.23A70.47,70.47,0,0,0,92.38,205l1.64-.21c-.06-3.9,4.18-22.48,10.14-29.44a2.85,2.85,0,0,0,.58-.91C104.41,173.5,103,174.63,102.61,175Zm6.73-1.44c-4,3.26-7.11,10.39-9.19,17-2.25,7.12-3.26,13.65-3.09,13.65l1.57-.23c-.12-.41,4.41-25.5,12.81-30.07.73-.37.88-.74.27-.9A3.5,3.5,0,0,0,109.34,173.56Zm4.42,0c-8.63,1.14-14.26,27.82-14.45,30,0,0,0,.21,0,.21l1.72-.36,0-.13a70.11,70.11,0,0,1,5-17.75c2.1-4.56,5-10.4,9.31-11,.35,0,.68.1.56-.32-.26-.65-1.55-.74-2.15-.72Zm-51.41-8.4c-3.12.81-3.22,4.58-1.14,9.39.16.36.13.56.29.7.35.31.63-.12.67-.41a4.33,4.33,0,0,0-.46-1.88c-1.29-3.33-1-5.25.3-6.1,3.26-1.69,4.14,1.78,4.63,3.38.12.39.16.93.38,1a1.3,1.3,0,0,0,1-.14,43.31,43.31,0,0,0-1.39-4.12,3.5,3.5,0,0,0-4.23-1.77Zm-22.62,3.56,0,39.71-6,5.65c-2.56-2.21-5.93-5.68-5.93-5.68l.11-67.13L26,141.13c-.47,28.84,0,58.26,0,87.16H43.48l14.61-23a3.36,3.36,0,0,0,.24-.42c.18-.44.16-1.11.07-3.55a9,9,0,0,0-.07-2c-.15-.24-.46-.07-.75.06s-.47.09-.31-.27c.09-.2.38-.64.63-1.06.82-1.36,1-1.79.74-3.3a3.73,3.73,0,0,0-.7-1.12c-2.46-3.66-3.46-9.09-2.24-13.06a3.49,3.49,0,0,0-.59-3.48ZM117,126c-1.61-.83-1.57-.81-1.58.76,0,1.18,0,1.46.47,1.3.63-.32,1.41-.62,2-.87C119,126.84,117.56,126.34,117,126Zm6.35,4.09c-1.25-1-.79-.89-1.14,1.37-.21,1.37-.49,1.4.91.95.79-.28,2.43-.1,1.7-1Zm-50,34.72c-1.91,1.17-3.86,6.82-3.86,6.82-6.67.8-9.47,7.43-9.77,13-.24,4.36-.53,9.45-.09,9.9,4.38-2,6.06.31,6.48-.31.19-.27-1-1.17-2.43-2a9,9,0,0,1-1.06-.69c-.53-.44,1.06-.06,2.07.63,1.28.88,1.5.7.94-1.88-.61-2.8-.71-3.15,1.43-4.26a6,6,0,0,0,2-1.51c.49-.55.61-.69.43.12-.31,1.41-1.55,2-2.67,2.59a1.52,1.52,0,0,0-.79,1.36,31.25,31.25,0,0,0,.84,4.12c.25.83.34,1.66.53,2.51a8.42,8.42,0,0,1,.28,4.23,8.1,8.1,0,0,0-.17,2c0,.51.12,1.21.12,1.21s-1.19-1.24-3.81-.2a5,5,0,0,1-4.43-.59,9.47,9.47,0,0,0-.16,2.8,95.41,95.41,0,0,0,28,.91,91.22,91.22,0,0,1,3.26-16.44,43.51,43.51,0,0,1,2.93-7.67,8.42,8.42,0,0,1,1.78-2.39c.08-.05.09-.08.09-.11v-.21a2.08,2.08,0,0,0-.5-1.4c-.9-.73-2.34.21-2.81,1.83a52.82,52.82,0,0,1-2.44,5.1c-.11-.07-.37-.08-.28-.4.72-1.7,1.72-3.5,2.28-5,.77-2.2,2.46-3.36,3.71-2,.43.48.61.91.8,1.06s.35,0,.47-.15c.47-.72-.62-2.36-1.8-2.69-1.7-.47-3,.78-4.9,4.84-1.11,2.35-1.31,2.94-1.49,2.76,0,0-.33,0-.23-.44a33.16,33.16,0,0,1,2.78-5.62c1.59-2.67,4.53-2.88,5.77-.57.19.32.2.73.41,1,.38.5,1,.4,1.16-.42-.17-.54-1.2-2.49-1.92-2.83a4.14,4.14,0,0,0-5.36.6c-.38.35-.78,1-1.91,3.35-1.65,3.69-1.7,3.7-2.15,3.11.67-1.79,2.41-4.71,3.12-6.5a1.66,1.66,0,0,0,.15-.83c0-1.3.17-3.6-2.55-5.23A4.77,4.77,0,0,0,81,171c-.8,1.9-1.38,3.21-1.79,3.48-.57.38-.46-.15-.4-.34.8-1.72,1.94-3.47,2.12-5.2a4.69,4.69,0,0,0-7.66-4.06ZM49,76.87a62.94,62.94,0,0,1,9.94-3.71c.51-.22.59-.28,0-1.35-2.37-4.75,4.14-8.53,6.35-3.87.29.62.36,1,.65.67a29.67,29.67,0,0,0,1.86-2.91c2.49-3.9,3.62-8.35,4.95-12.28a50,50,0,0,0,1.54-7.19c-4.94-8.69-13.63-24.62-13.63-24.62H26V91.28c9.67-8.16,16.26-11.11,23-14.41Zm39-2.57c.42-.45.78-1.19,2.29-4.31.27-.56.7-1.42.87-1.82.23-.73,1.07-1.19.66.12a9.08,9.08,0,0,1-.51,1.17c-.5.91-1,2-1.33,2.75-1.92,3.9-1.83,6.17.32,7.86A4.6,4.6,0,0,0,97,79.3a7.32,7.32,0,0,0,.59-1.11,16.9,16.9,0,0,1,1.5-3.06c.8-1,.93.24-.27,2.2a5.8,5.8,0,0,0-.21,6.37,4.63,4.63,0,0,0,7.17.57h0a14.9,14.9,0,0,0,2.64-5c.15-.46.31-.81.43-1.08s.42-.57,1.07-.7c4.44-.86,8.17-5.47,8.7-10.5.07-.68.26-1.88.33-2.6.14-1.43.14-8.81,0-9.25a.45.45,0,0,0-.5-.36,3.33,3.33,0,0,0-1,.24,4.28,4.28,0,0,1-3.56.15,2.58,2.58,0,0,0-1-.21c-.62.05.2,1,2,1.95.78.43,1.39,1,.76,1A28.78,28.78,0,0,1,113,56.52c-1-.62-.74.16-.22,2.2.69,2.74.29,3.51-1.85,4.59a5.63,5.63,0,0,0-1.2.89c-1.14,1.7-.84.45-.27-.46,1-1,.38-1.39-1.63-.67-2.29.82-3.32.22-4-1.06-.72-1.45.64-3.32,1.77-3.28.37,0,.3.15-.24.52a2,2,0,0,0-1,1.66c-.14,1.57,1,2.24,2.53,1.18a6,6,0,0,1,1.87-1c.55-.13,1.38.08,1.38.53a4.4,4.4,0,0,0,0,.73c.15.5.93-.21,1.28-.46,1.17-.88,1.13-1.06.81-2.49-.52-2-.79-3.84-1.29-5.87a8.86,8.86,0,0,1-.15-3.36c.08-.54.29-1.66.33-2.43s0-1.86,0-1.86c1.16.9,1.63,1.06,2.77.62a4.62,4.62,0,0,1,4.34.06c.55.26,1,.45,1,.45l.07-2.3s-1.37-.29-3.9-.62c-7.62-1-23.24-1.22-23.82-.29-.15.24-.3,1.88-.71,4.17-.92,4.75-2,9.49-3.34,14.13-.28.95-.55,1.33-.41,1.35s.34-.35.47-.51c.74-.86.17,1.19-.95,3.66a2.19,2.19,0,0,0-.18.54,27.87,27.87,0,0,1-1.19,2.91c-.3.65-.55.84-.55.43.34-1.42,1.24-3.26,1.37-4.53-.79,1.15-1.93,3-2.8,4.18-.16.3,0,.4.15.78.52,1.41,1.78,1.53,2.51.26.41-.71,1.67-3.38,2.11-4.56a5.91,5.91,0,0,1,.92-1.92c.3-.16.36.53-.18,1.67-1.63,3.46-2.32,5.39-3.12,6.11A1.47,1.47,0,0,1,83.54,72c-1-1.67-1.87-1.12-.94.6a2.45,2.45,0,0,0,4.28.34,51.39,51.39,0,0,0,2.7-5.33,4.63,4.63,0,0,1,.75-1.42c.59-.23-.08,1.54-1.79,5.08-.55,1.37-1.44,2.8-2.64,3.25-2.92.65-3.32-.91-4.33-2.69-.49-.44-.94.26-.75,1a3.67,3.67,0,0,0,1.77,2.4,4.19,4.19,0,0,0,5.35-1Zm13,7.41a2.65,2.65,0,0,1-.09-1.75,14.47,14.47,0,0,1,1.41-3.56c1-.46.23,1.37.11,1.64-1.16,2.44-1.27,3.38-.19,3.66.93.24,1.42-.33,2.3-2.52.45-1.12.63-1.62.79-1.68.34-.14.5,0,.48.34a16,16,0,0,1-2,4.14C102.85,82.77,101.45,82.77,101,81.72Zm-8.68-1.87a4.57,4.57,0,0,1-1.57-1c-1.63-1.51-1.37-3.6.66-7.54.16-.3.75-1.49.94-1.88.34-.7.67-.43.67,0a18.05,18.05,0,0,1-1,2.22c-2.24,4.42-2.16,6.22,0,7.28s3.08.44,4.77-2.94c1-2.53,1.46-2.58,1.41-1.61a18.21,18.21,0,0,1-2,3.92C95.09,79.92,94.13,80.21,92.28,79.85Zm.16-2.13a2.32,2.32,0,0,1-.68-2.88c.45-.87,1.6-4.23,2.14-4.42.87,0,.4.7-.67,2.77C92,75.92,92,76.65,93,77.06s1.34-.41,2.68-3.6c.21-.5.5-1,.68-.91s.58.15-.12,1.59c-.17.35-.45,1.07-.76,1.75-.92,2-2,2.48-3,1.82Zm15.05-5.8c-.37-.19-2.09-.87-1.83-1.44,0-.05.13,0,.18,0a4.56,4.56,0,0,0,5.58-.14c.34-.31.6-.1.41.29C111.21,71.88,108.46,72.41,107.5,71.91Zm-5.06-1.8a8.06,8.06,0,0,0,.31-.95c.19-.71.14-1.24.31-1.15a3.09,3.09,0,0,0,2.61,0,3.16,3.16,0,0,1,2.58-.22,1.13,1.13,0,0,0,1.6-.14c.57-.45.58-.26,1.62.1.76.27,1.06.45,1.39.39.12,0,.38-.31.46-.29.25,0,.28.76.5,1.57s.09.89-.55.46a4.54,4.54,0,0,0-3.25,0,3.22,3.22,0,0,1-2.06.06c-1.92-.33-3.3-.58-4.74.26-.76.45-1,.68-.78-.07Zm-4.78-3.55c-.93-1.88,1.21-4.38,3.09-3.5.62.29,1.18,1.4.26.89-4.28-.87-3.21,5.45,1.38,2.11,3.05-2,5.21-2.36,5.39-.38-.09.73-.73.61-1.21.68a10.07,10.07,0,0,0-3.2,1c-2.23.71-4.41,1.29-5.71-.82Zm16.74.87c-1-.27-2-.69-3-.88S109.8,65.8,110,65s1.28-.88,2.9.12c1.8,1.11,3.1,1.38,3.76,1,1.33-.85.61-2.22-.66-2.57-1-.27-.25-.64.77-.33,1.65.63,1.69,3.65,0,4.27a4.68,4.68,0,0,1-2.36,0Zm-14.57-10a19.28,19.28,0,0,0,2.8-1.89c.22-.24.83-1,.36-.79-2.48,1.5-5.35.25-7.43-.77-1-.47-.75-.26-1.52-.21-.52,0-.94.15-1-.23,0-.17-.33-.1-.52-.12-.77-.08-.28-1.1,1.33-2.24A14.82,14.82,0,0,1,99,48.64a5,5,0,0,1,4.75,1.08c.49.48.45.8.9.5,1-.67,1,.22.17,1-.6.57-.38.72.35,1.26.35.26.06.5-.13.88a4.12,4.12,0,0,0-.05.65c-.16.81-3.79,3.65-5.11,4.14-.9.17-.43-.52-.08-.74Zm2.52-5.23h-.6c-.69,2.11-2,2.83-3,.3l-.48,0C98.24,54.74,101.9,56.09,102.35,52.23Zm-4,2c-.25-.42-.53-1.39-.79-1.4-.71,0-1.69.1-1.45.54C96.51,54.05,98.68,54.7,98.39,54.22Zm4.85-.38c.65-.4.79-.67.37-1.11s-.84-.28-1,.62S102.56,54.25,103.24,53.84Zm-8.85-1.49c4.37-2,6-2.25,7.8-1.76a5.73,5.73,0,0,0,1,.33c.85-.05.31-1-1.22-1.56-1.74-.63-2.85-.34-6.2,1.42-2,1-3.56,2.56-1.39,1.57Zm12.67-2.42a12.46,12.46,0,0,1-.4-1.2c-.08-.29-.14-.59-.22-.59a11.46,11.46,0,0,1-4.29-.17,14.05,14.05,0,0,0-8.24.29,8.89,8.89,0,0,0-1.27.62c-.17.16-.43,0-.43-.23a6.67,6.67,0,0,1,2.22-1.75,11.34,11.34,0,0,1,8.37-.71,5.33,5.33,0,0,0,4.49.08c.62-.27.18.4,0,1.3a4.47,4.47,0,0,0,0,1.5c.08.85,0,1.27-.23.87Zm45.68,178.36V158.43c-17.43,12.11-25,14.52-33.24,17.49,2.74,5.63-3.29,10.45-6.76,4.73-3.56,4-8.47,18.17-8.64,22.86,0,0,9.47,16.54,14.1,24.78Zm-63.33-22.9A71.69,71.69,0,0,1,92.79,189a55.19,55.19,0,0,1,3.81-9.24c.66-1,.71-1.45,0-1.07a16.31,16.31,0,0,0-2.75,3.13c-3.11,6.62-4.55,14.57-5.69,20.65a25.77,25.77,0,0,0-.33,3.06Zm2.27-.29c.74-8.54,3.85-20.07,8.53-27.58.44-.72,1-1.34,1-1.58-.06-.73-1.86.53-3.26,2.69a72.72,72.72,0,0,0-4.32,10.14,65.7,65.7,0,0,0-3.4,16.54Zm4.5-.71c.47-4.92,2-9.44,3.25-14a45.53,45.53,0,0,1,6-13.26c.77-1.18,1.69-2.28,2.56-3.4a.8.8,0,0,0,.2-.48,2.06,2.06,0,0,0-1.43.32,8.27,8.27,0,0,0-1.94,1.84c-3.44,4.42-5.29,9.59-7,14.81a56.08,56.08,0,0,0-3.07,14.37ZM65.3,200.61c.69-.05,1.14.08,1.34-.11s.13-.68.2-1.31c.13-1.35,0-1.28-.84-.41-1.39,1.45-3.92,2-5.43,1.13-.76-.44-1.29-.75-1.36-.38a.89.89,0,0,0,.36,1C61.39,201.36,63.12,200.78,65.3,200.61Zm-1.63-1a4.89,4.89,0,0,0,2.49-1.63c.53-.75.52-.86.12-.72-2,1-3.24,1.46-5,1.19-2.37-.36-2.46-.06-.9.93A3.44,3.44,0,0,0,63.67,199.57Zm-3.47-3c.37-.27.46-1.38.16-1.45s-.73.49-.84.94.32.75.68.51Zm3.66,0,.63-.06c-.32-2.78-3.32-2.9-3.87.28l.47.07c.62-2.54,2.43-2.47,2.77-.29Zm2-.45c.92-.52.6-1.15-.64-1.4-.81-.19-.77.48-.35,1.38.21.45.36.37,1,0Zm-7.06-3.41a3.25,3.25,0,0,0-.28-1.11,16.44,16.44,0,0,1-1.52-8c.09-2.3.11-3-.36-3-.66.32-1.05,4.59-.21,8.15C57,191.22,58.82,194.33,58.78,192.64Zm0-3.48c-.06-1.2.2-3.89.07-4.48a3.29,3.29,0,0,0-.88-1.65c-.4-.29-.5.26-.36,1.71.32,3.38.86,5.94,1.17,4.42Zm.33-6.16c.26-.47.16-1-.42-2.11-2.26-4.46-2.56-7.5-.19-8.61.26-.12.43-.15.61-.25.75-.42.46-1.17-.65-.86-3.08.86-3.69,3.77-1.09,9.16C58.67,183,58.87,183.4,59.09,183Zm.56-2.53c0-.19.12-.92.15-1.06a12.15,12.15,0,0,0-.61-1.44c-.87-2.24-.89-3.17.06-3.83.31-.18.62-.19.67-.4s.07-.86-.12-1a2.17,2.17,0,0,0-2.22,1.57c-.36,1.2,0,3,1.08,5.15.52.68.79,1.93,1,1Zm1-2.9c.73-1.48,0-3.4-1-2.74-.65.42-.68.87-.28,2.1C59.93,178.44,60.22,178.54,60.69,177.57Zm2.55-4c.29-.29,0-.71-.5-2.34-.46-1.4-.25-2.36.63-2.63,1.26-.31,1.7,1.76,2,2.64.14.67.58.86,1,.39.11-.13.14-.24,0-1-.81-3.22-1.87-4.24-3.59-3.44s-1.38,2.41-.23,5.9c.15.47.26.81.37.86S63.08,173.78,63.24,173.62Zm1.4-1.09c.38-.37.35-.21-.08-1.55-.49-1.53-.75-1.85-1.28-1.32-.32.32-.16.68.21,1.93.43,1.45.54,1.54,1.14.94Zm65.74-5.24c2.5-1.74,1.47-4.86-1.82-6-.39-.14-.82-.3-1-.37-1.51-.73-2.69-1-2.69-.39,0,.34.45.51,1.9,1.22,2.15,1.05,2.63,2.27,1.57,3.81C127.63,166.64,129.06,167.91,130.38,167.28Zm2.27-3.8c.22-.89.54-1.66.69-2.18.21-.82-.06-.63-.6-.5-1.38.72-2.37.33-1.7,1.32C131.8,163.45,132.42,164.47,132.65,163.48Zm-.17-3.12a3.18,3.18,0,0,0,.5-5,5.79,5.79,0,0,0-1.85-1,11.4,11.4,0,0,0-4.84-.46c-.18.22-.19.57,0,.67a6.23,6.23,0,0,0,1.3.21c2.39.25,3.57,1,3.46,2.67s-1.52,2.44-4,1.88c-1.36-.3-2-.16-1.45.17a12.72,12.72,0,0,0,3.41,1.15,5.27,5.27,0,0,0,3.51-.3Zm-8.25-.45c1.93-4.38,3-15.86-8.1-24.16l.37,2.3a20.19,20.19,0,0,1,6.73,19.8Zm9.87-7.85a14.58,14.58,0,0,1-2.16,1.32c-.53.24-.55.3.18.7a5.73,5.73,0,0,1,1.15.79c.38.42.83.58,1,.42C134.25,154.65,134.47,152.49,134.1,152.07Zm-3.27.83c2.24-.71,3.44-1.8,3.18-3.62-.37-2.66-2.59-3.23-6.73-2.19-2,.5-2.17,1.44-.28,1,2.39-.61,4.26.31,4,2.08-.15,1.52-1.36,2.4-3.49,2.4-1.12,0-1.47.1-1.32.51S129.91,153.19,130.83,152.9Zm-3.7-6.33c3.66-1.26,5.36-3.23,4.53-5.43-1-2.59-4.18-2.62-7.39-.21-1.5,1.11-1.27,1.52.18,1,1.88-.87,3.1-1,3.87-.31,1.39,1.25.45,3.44-1.66,4.22-1,.43-1.35.66-1.35,1,0,.49.18.37,1.83-.2Zm6.18,0c.09-.77-.77-3.43-1.14-2.82a5.33,5.33,0,0,1-.87,1.3c-1.26,1.14-1,.71.23,1.05C132.22,146.26,133.21,146.76,133.31,146.53Zm-9.68-5.69c3.7-2.16,5.11-5.25,3.2-7.3-1.72-1.84-4.58-.77-7.24,2.58-1.22,1.54-.3,1.34,1.34-.12,1.91-1.7,4.34-.88,4.33,1.24,0,.91-1.28,2.43-2.49,3.14a.57.57,0,0,0-.3.78C122.61,141.41,122.91,141.26,123.63,140.84Zm6.49-2.25c-.19-.58-1.58-3.07-1.88-3-.32.64-.34,1.48-.72,2.16-.52,1-.45.86,1.19.85,1.22,0,1.37.17,1.41,0Zm-10.88-2.82c3.11-3.25,3.38-7.06.47-7.93-1.61-.49-4.19.69-4.2,1.9,0,.75.14.89.79.62,2.75-1,4.92,1.63,2.4,4.69-.61.89-.7,1.11-.52,1.29S118.56,136.48,119.24,135.77ZM152.74,108V21.61H134.53L120.08,44.55l0,5.63c0,.19.33.32.54.07.82-.64.5,0-.44,1.48s-.66,2.67.38,4.24c2.21,3.32,3.37,9.4,2.43,12.62a3.52,3.52,0,0,0-.2,2.38,2.62,2.62,0,0,0,1.2,1.69A130.74,130.74,0,0,1,139,81l0-40.48,5.58-5.39,5.89,5.68.21,66.83c0,.71,2.13,1.34,2.13.3ZM149.54,41,144.6,36.4,139.72,41c0,21.77.12,66.45.12,66.45l4.85.35a8.33,8.33,0,0,0-.1-3.65c-.68-4-.64-8.78.46-16.13a30.49,30.49,0,0,0-1-12.53,19.75,19.75,0,0,1-.77-7.73c.34-3.91,1.41-6.86,1.54-12.49.08-3.21-.08-6.35,0-10.3,0-.53.27-.46.31.08.15,3.58.29,7,.32,10.48-.11,4.55-1.21,9.23-1.33,13.39a15.67,15.67,0,0,0,1.07,7.39c1.9,5.52.65,14,.63,14.14-.8,5.43-1.39,12.38,1.33,17.57l2.63.24Zm-34,41.07c1.46-.67,1.74-1.86,1-4.73-.14-.51-.3-1.12-.35-1.35-.17-.71-.48-.79-.91-.22-.25.34,0,.41.37,2,.58,2.38.25,3.17-.63,3.17s-1.39-.65-1.61-2.2a3.12,3.12,0,0,0-.31-1.1c-.21-.35-.47-.29-.67.1s.23,2.59.9,3.6S114.54,82.58,115.58,82.1Zm-.4-2.14c.31-.59-.08-2-.28-3-.18-.53-.39-.66-.74-.57-.52.13-.49.7-.3,1.63C114.25,80,114.45,80.19,115.19,80Zm4.43-3.44c1.67-1,1.83-2.61.71-5.61-.46-1.23-1-2.1-1.35-2.11-.12.78-.24,1.2-.1,1.51s.35.72.5,1.09c.95,2.21.69,3.49-.22,4.18s-.31,1.19.46.94ZM65.09,75.36c3.91-.84,7.43-7.17,9.65-12.81,2-5.68,4.17-11.93,4.51-17.14,0,0-1.48.07-1.66.38a8.36,8.36,0,0,0-.4,1.89,74.51,74.51,0,0,1-3.61,12.93A48.4,48.4,0,0,1,67.67,72a6.1,6.1,0,0,1-3.93,2.37,6.13,6.13,0,0,0-1.25.1c-.3.21,0,.7.74.89a4.27,4.27,0,0,0,1.86,0Zm53.84-.74c.6-.64.65-1.4,0-3-.19-.45-.27-.71-.5-.64-.47.13-1,1.38-.7,2.44.42,1.38.67,1.78,1.21,1.21Zm-55.2-1a6,6,0,0,0,3.64-2.51,42,42,0,0,0,4.74-8.58c.88-2,2.48-6.39,2.91-8a80.8,80.8,0,0,0,1.84-7.93,1.53,1.53,0,0,0,0-.69,2.4,2.4,0,0,0-1.75.26,80.23,80.23,0,0,1-2.76,10.94c-1.57,5.47-6.05,14.22-8.5,14.63-1.31.22-2.82-.93-2.58-2.11.15-.72.25-1,.6-1.18.85-.3,1.35.28.41.66-1.08.95.87,2.4,2.06,1.39,2-1.72-1-5-3.39-3.49-2.7,1.67-2,4.57-.31,6a3.73,3.73,0,0,0,3.07.63Zm19.14-3.93a17.13,17.13,0,0,0,3.84-6.76,105.18,105.18,0,0,0,4.21-19.1s-1.43-.15-1.74.16,0,.42-.62,4.54a80.21,80.21,0,0,1-4.65,17.13,21.05,21.05,0,0,1-1.75,3.43C81.27,70.61,81.6,71,82.86,69.69Zm37-13.08c-.15-.08-.14,0-.21,0-.23.16-.08,1,.44,2.2,1.36,2.21,1.52,6.51,1.43,8.12a2.76,2.76,0,0,0,.07,1.19c.15.42.4.91.81.09a17.13,17.13,0,0,0-1.11-9.2,7.46,7.46,0,0,0-1.42-2.42ZM121,66a13.85,13.85,0,0,0-.75-5.44c-.22-.48-.62-.52-.57,0,0,1.18-.12,3.41,0,4.07.6,1.38,1.06,2.26,1.32,1.34Zm-3.08-13.71h-.64c0,2.22-1.93,2.84-2.65.17l-.58.13c.77,3.76,4.24,2,3.87-.31ZM114,54c-.33-1-.2-1.34-1-.9-.65.34-1,.7-.12,1.14s1.38.38,1.17-.24Zm4.89-.57c.27-.55.24-1-.17-1s-.4.25-.49.78C118,54.07,118.44,54.24,118.86,53.39Zm.34-3.69c.25-.08.18-.43.11-.88-1.06-1.48-3.68-1-4.62-.73a2.17,2.17,0,0,1-2.1-.12c-.61-.11-.7,0-.85.33a5.08,5.08,0,0,0-.2,1.61c0,.72,0,1.06.24.83a6,6,0,0,1,3.73-2,7.46,7.46,0,0,1,3.68,1Zm-7.21,2c0,.3.25.11.9-.3a5.77,5.77,0,0,1,5.72-.54c.45.15.73-.32.24-.73C116.46,48.17,113.52,49.43,112,51.71Zm8.52-9.11,12.75-21.25-71-.05L74.28,43.85A107.37,107.37,0,0,1,120.51,42.59Z"/><path id="path4098-7-2-7" class="cls-3" d="M57.5,208.81c1.5-2.26,9,1.77,9.35,3.36,4.41-3.5,9.77-3.75,14.08.63,4.43-4.88,9.17-4.55,14.11-1.72-.55-1.1,6.31-6,10.48-2.88l11.28,20.24-72.25.23C48.81,222.22,52.59,214.51,57.5,208.81ZM25.94,103.24c-.39-1.09-2-12.34,2-12.62,6.5,2.9,14.8,13.29,18.64,19.64,4.77,7.87,9.58,26,6.92,25.17-.38-.11,8.21,8.55,8.8,9.4,1,1.39-14.48,27.33-17,26.4-.77-.28-5.92-3.38-5.92-3.38l.15-8.65.12-17.46-14.16-1.24.5-3.8c4.75.39,9.63,1.29,14,.26,2.89-5.34,1.79-13.31-1.69-16.52-1.84-1.13-3.58-.77-5.45-.53C25.3,118.63,29.23,105.75,25.94,103.24ZM152.76,109l0,3.19c-5,1.1-13.82-3.16-16.49,3.7.33,7.42,2,10.74,3.13,13,.87,2,6.94-.28,9.07,1.75,6.13,7.61,4.69,17.74,4.74,26.87l-2.66,1.35c-18.39-10.93-32.52-44.89-34.47-54.56C116,98.09,133,78.14,133,78.14s6.19,3.78,6.19,3.78-.13,26.18-.13,26.06C143.93,108.23,148.64,108.71,152.76,109ZM116.29,85.14c-21.45,37.82-12.68,65.8,3.11,89.95,0,0-1.36.31-1.52.18-3.46-3.1-5.87-2.56-7.64-2.58-3.38-.05-4.31,1-6.25,1.16-5,.5-4.55.62-8.75-1a56.53,56.53,0,0,0-18-9.45c-4.53.41-11.43,2.57-14,.82,18.16-33.78,15.44-55.41-3.36-90.82,1.56.46,1.8,1.93,3,2.29,3.86,1.5,9.19.93,12.38-.47,5.07-2.33,10.49,3.93,26.07,10.81,1.27.66,2.88-.38,4.28-.67,2.87-.59,5.33-1.83,7.48-1.1C113.66,84.51,116.29,85.14,116.29,85.14ZM73,40.93c-.92-1.73-10.38-19.87-10.38-19.87l70.34.43L122.4,39c-1,.95-6,3.6-11-2.4-.09.86-7.5,6.19-13.87-.23-3.83,3.51-7.74,5.54-14.19,1.59-.14,1.1-5.17,6-10.34,3Z"/><path id="path4094-0-9-9" class="cls-4" d="M80.69,212.39c-6.82-6.44-13.91-.63-13.75-.26-2.7-2.76-5.34-5-8.89-3.92,0,0,0-1,0-1,10.6,2,26.84,2.46,45.82-1.54l1,2.05c-5.09-1.82-7.71.64-10,3.51C86.73,206.11,84.74,210.62,80.69,212.39Zm15.9-74.91,4.82-.09c.91,14.15,12.62,35.81,12.91,35.81-.82-1.14-8.55-.24-8.49-.1C101.56,161.65,96.89,150.21,96.58,137.48ZM68.46,171.06S66.91,167,66,165.27c5.06-8.73,9.21-17.76,11.35-27.8l3.45,0C79.75,151.36,68.76,172.42,68.46,171.06Zm62-1.86c7.59-13.83,6.28-33.77-15.26-44.79,0,0,.56-14.61,2.16-14.65.36.11,9.75-.12,9.75-.12,2.46-6.09,6.42-13.46,12-18.44l.14,16.33c-4.09.41-6.59,1.73-7.83,5l-5.67,1.27c.42,16.41,6.54,31.57,24.68,45.19-4.34,3.76-19.15,11.4-19.1,11.26ZM39.58,158.89l.16-17c2.75-.6,4.92.21,7.19-4.77,0,0,3.81,1.83,5.08,2.5C48.45,146,45.38,152.92,39.58,158.89ZM75.7,128.78l.19-8.64,8.12.24a16.28,16.28,0,0,0,0,8.79Zm18.53-.1c.55-2.83,1-5.67-.2-8.67l8.8.15-.21,8.6ZM77.51,111.79c-1.46-16.94-13-36.11-13.12-35.7,1.35.22,3.74.9,5.05.27a6.07,6.07,0,0,0,3-.06c.11-.59,10.69,24.59,9.28,35.46-.17.37-3.9.39-4.25,0Zm20.33.15c1.24-7.82,4.45-22.14,12-33.75a43.32,43.32,0,0,0,2.76,6.11c-5.71,8.38-9.22,18-11.35,27.73Zm-52.59-4.22c-3.46-7.13-17.86-18.35-17.13-17.22,6-5.4,12.61-8.82,19.25-12.28,0,0,1.18,1.13,1,1.42-4.08,6.49-6.06,20.25-2.11,28.13,3.8,8.42,10.53,13.4,17.4,17.31a93.3,93.3,0,0,1-2.07,14.3s-4.31-2.29-7.85-3.77c-.56-9.94-2.6-18.83-8.49-27.89ZM83.39,37.85c5.08,3.12,9.62,2.79,14-1.44a10.23,10.23,0,0,0,14,.42,9.63,9.63,0,0,0,9.85,3.26l-1.1,2.34c.26-1.24-30.75-3.27-45.75,1a13.22,13.22,0,0,1-.78-1.78c1.31-.08,5.65,1.54,9.71-3.76Z"/><path id="path4092-7-7-9" d="M61.58,20.5,74.11,44.08l.55-.1c17.38-3.43,31.13-3.9,45.91-1.27l13.14-21.95C109.8,20.48,61.58,20.5,61.58,20.5Zm1.4,1,69.71.08-3.92,6.49c-2.35-.73-3.66.36-4,2.63a3.16,3.16,0,0,0-.84-.19,2.4,2.4,0,1,0-.66,4.75c.82.14,1,0,1,0-2.86,2.43-4.49.79-5.83,0a3.39,3.39,0,0,1-4.95-.09c3.41.34,3.94-3.11,2.31-4.42a7.93,7.93,0,0,0-.69-.6,2.12,2.12,0,0,0,.46-2.72c-1-2.16-4.28-2-4.77.33a10.12,10.12,0,0,0-.2,1.08,2.63,2.63,0,0,0-2.25,4.05,2.93,2.93,0,0,0,2.68.91c-1.4,2-4.61,1.32-6-.33-2.27,2.69-4.85,2.36-6.14.92a2.8,2.8,0,0,0,2.29-.77,2.53,2.53,0,0,0-1.24-4.2,3.11,3.11,0,0,0-.67-.15,4.11,4.11,0,0,0,.13-.83c.48-4-5.41-3.58-4.84.33a2.52,2.52,0,0,0,.19.7,2.6,2.6,0,0,0-1,.13c-3.27,1.53-1,5.72,1.51,4.64a9.28,9.28,0,0,1,1-.42c-3.13,3.92-5.77,1.14-6.46.72-2.12,3.17-5.79,1-5.87.79a3,3,0,0,0,1.57-.42,2.52,2.52,0,0,0-.13-4.51,4.35,4.35,0,0,0-1.77-.14,4.7,4.7,0,0,0,0-1,2.4,2.4,0,1,0-4.57,1.32,2,2,0,0,0,.38.57,8.33,8.33,0,0,0-.92.65,2.41,2.41,0,0,0,2.67,4c.34-.18.67-.56.76-.54-1.24,2.28-3.11,3.07-5.78,1.19a2.92,2.92,0,0,1-5.1.22c2.51.23,4.14-4.63-.69-4.79-.37-1.32-.36-3.33-3.42-3Zm34,8.35a1,1,0,1,1-1,1A1,1,0,0,1,97,29.85Zm15.58.12a1.07,1.07,0,1,1-1.06,1.08A1.07,1.07,0,0,1,112.59,30ZM82.06,31.15a1,1,0,1,1-1,1A1,1,0,0,1,82.06,31.15Zm43.74,1.27L124.91,34C123.93,33.15,124.6,32,125.8,32.42Zm-55.93,2.2L69,33C70.56,33.08,70.1,34.22,69.87,34.62Zm27-.9c6,6.89,11.35,4.85,14.86.27,1.5,3.9,4.86,6.6,10.63,4a18.21,18.21,0,0,1-1.22,1.73c-5.1,1.39-7.63-1-9.6-3.35-5.19,4.35-10.07,3.3-14.11-.54-3.44,4.38-9,5.32-14.17,1.75-2.36,3.52-5.74,4.94-10,3.18,0,0-.9-1.43-1-1.52.62.52,8.45,3.81,10.36-4.09,2.73,4.68,11.67,4.92,14.23-1.39Zm.6,2.83c6.73,6.36,13.79.86,14,.47.11.35,3.95,5,9.48,3.25l-.9,1.56c-10.42-1.78-20-2.93-42,.34a10.46,10.46,0,0,0,5.28-3.87C84.35,38.94,92,43.24,97.49,36.55ZM73.9,41.82s2.93.35,3.16.41-2.47,1-2.48.9Zm5.94,30.34c-.18,0-.4.21-.77.57-.79.79-1,.89-1.75,1a6.63,6.63,0,0,0-2.55,1.49,2.19,2.19,0,0,1-1,.42l-1.22.21a2.57,2.57,0,0,0-.66.19,2.4,2.4,0,0,1-1.74.1,2.1,2.1,0,0,0-1.56.07,2.78,2.78,0,0,1-2.37,0,2.61,2.61,0,0,0-2-.29c-.81.26-2.91-1-2.91-1.76a3.66,3.66,0,0,0-1.49-1.08c-1.06-.16-10.42,3.57-10.37,3.79,11.48,14.33,21.15,36.17,13.87,62.9L62,139.17a97,97,0,0,0,1.84-14.71c-21.55-9.4-23.41-31.27-15-45.08l-1.42-1.53c-5.07,2.73-10.22,4.29-22.75,14.91l0,17.2c0,15.55,0,30.69,0,30.69,4.54.51,9.53.92,14.45,1.35,0,0-.06,15.37-.18,21.39-.1,5.09.09,4.77.09,4.77l16.31,8.69c-1.15-4.58,1.68-6.4,4.05-6.21-1-4.41,1.55-6.43,4.52-5.87,2,.38,2.71,1.5,3.85,5.19l.44,1.4,1.14,0c1.43-3.11,2.39-7.06,5.75-7.57,4.41-.67,6,2.39,6,5.45,4.27-3.8,9.38-.86,9.05,4.82,2.15-1.4,5.79-2.66,8.08,2.72.86-.18,1.3-1.15,2.51-1.46a8.8,8.8,0,0,0,1.48-.65v-.19a14.72,14.72,0,0,1,2.23-.54c1.1.41.78.4,1.37-.34a5.18,5.18,0,0,1,2.55-.49,3.24,3.24,0,0,0,1.75-.08c.79-.35,1.52-.44,2,.09s.82.2,1.34.17a3.1,3.1,0,0,1,2.86,1.33,9,9,0,0,0,2,1.32l1.13-.26.13-.42,9.24-3.56c-18.84-20.85-18.35-48.5-13.91-62.5l1.7.83a56.09,56.09,0,0,0-1.8,14.6c17,7.64,25.4,27.4,15.12,44.65l1.09,1.42c4.28-1.81,15-7.92,18.76-11.24l.79.07S153,158,154,157.21l.13-45.77-.79.21-.14-2.67-14-1.12c.18-.13.31-.19.35-.46l-.08-25.34c-.52-.8-12.23-7.74-16.59-9.36-.17,0-.05.3,0,1,.21,2.49-1.45,4.7-3.37,4.7-.69,0-.81.3-.78,1.73a3.82,3.82,0,0,1-2.79,4.16c-2.51.91-4.2-.41-5.6-5.62-.37-1.37-1.08-1-1.77.84a45,45,0,0,1-2.1,4.37,4.47,4.47,0,0,1-2.4,1.8,5.08,5.08,0,0,1-3.75-.19c-1.92-1-2.67-2.17-3.22-5.11-.07-.38-.32-.35-.95.12C92.76,83.11,88,80.44,88,76c0-1.31,0-1.37-.81-.74-2.3,1.9-5.43.94-6.69-2.06-.29-.7-.45-1-.68-1ZM60.32,73.75c.24,0,1,1,1,1a10.22,10.22,0,0,0,2.58,1.73c.09-.14,11.24,15,13.14,35.85l5.19,0c-1-20.27-6.5-30-9-36.26L75,75.5c4.17,8.08,9.26,24.48,9.09,38.83H75.56a79.21,79.21,0,0,0-14.48-39c-.54-.82-1-1.39-.8-1.53l0,0ZM57,75.89l.87,2.76a1.93,1.93,0,0,1,.37-.89c1.69-1.54,3.31.49,2.55,3.24-.17.85-.51,2.52-.51,2.52a25.37,25.37,0,0,0-2.56-1.16c-2.36-1-3.15-3-1.34-3.24.3,0,.92-.07.92-.07-.75-.6-2.41-2-2.41-2ZM65,76.2a5.36,5.36,0,0,0,3.61.45A4.82,4.82,0,0,1,71,76.58a7.1,7.1,0,0,0,1.52-.18,97.61,97.61,0,0,1,9.14,35.29l-4,0A85,85,0,0,0,65.34,77.28c-.27-.41-.62-1.06-.37-1.08Zm16.67.19c1.55,0,3.16,1.57,4,4.12.49,1.42.68,1.33,1.34,1.1,1.68-.58,3.48,1.29,1.22,1.6s-1,4.75-1.14,5.14c-.9.16-2.59-3.57-2.54-4.67.11-2.72-2.42-5-4-3.85-.74.54-.66.92-.89.73a2.49,2.49,0,0,1,0-3.19A2.59,2.59,0,0,1,81.63,76.39Zm45.89.94s.09,3.57,0,4.36c-.26,2.38-3.34,2.63-3.46.73A8.17,8.17,0,0,0,123,85l-2.18-1.52A11.46,11.46,0,0,0,123,81.58c-1.62.12-2.52-1.29-1.44-2.5,1.2-1.38,4.53-1.53,5.95-1.76ZM47.28,78.45l1,1.1C39.64,95,42.68,114.65,63.43,125a65.51,65.51,0,0,1-1.85,13.94l-7.66-3.75c.05-17.42-9.71-34-25.29-44.94A91.64,91.64,0,0,1,47.28,78.45Zm62.7.13c.37,2,2.27,5.72,2.41,5.51,0-.12-7.93,10.24-11.37,27.57H98.08A97.48,97.48,0,0,1,110,78.58Zm24.38.48,1.56,1c-8.2,6.94-13.59,15.73-17.56,25.21l-2.07-1c6.15-13.75,12.22-19.86,18.07-25.17Zm2.19,1.54c.43,0,.94.58,1.73,1s.58.65-.87,1.78c-1.72,1.33-1.88,1.27-1.87-.63,0-1.26.33-2.1.93-2.16h.08Zm-1.89,2a.21.21,0,0,1,.21.1,8.27,8.27,0,0,1-.09,2.79c-.16.75-2.37,2.63-3.15,3.37-.32.21-.46.13-.52-.24,0-.59.08-1.37.09-2.17,0-.25,0-.5.17-.69C132.45,84.43,134,82.6,134.66,82.56Zm4.09.61h0a8,8,0,0,1,0,2.87,6.29,6.29,0,0,1-2.8-.34c-.1-.3,2.33-2.56,2.74-2.54ZM62,84l.6,2.53s.17-.34.21-.41c1.19-1.83,2.63-.76,2.61,1.79a40,40,0,0,1-.73,4s-4.46-2.16-4.8-3.11a1.26,1.26,0,0,1,1-1.83,3.36,3.36,0,0,1,1,0l-1.91-2Zm51,.34,2,.75c-4.22,6.93-8.57,13.78-11.73,29.39H94.79a91.93,91.93,0,0,1,7.87-28.05s1.66-.52,2.6-.82c0,0-7,16.19-7.82,26.61l4.09.09C103.72,102.17,107.81,91.65,113,84.35Zm-16,.25c1.14,0,2,.77,1.91,2.2s-.13,1.5-1.05,1a2.66,2.66,0,0,0-3.24.08c-.59.43-1.18.79-1.18.79a7.79,7.79,0,0,1,1.32-3A3.66,3.66,0,0,1,96.93,84.6ZM92.59,88a8,8,0,0,1-.51,1.78s.66-.26,1-.41a2.21,2.21,0,0,1,3.05,2.14,2.41,2.41,0,0,1-2.35,2.27,2.3,2.3,0,0,1-1.41-.5c.34,1.88.41,2.75-1,3.7A2.35,2.35,0,0,1,88,94.74l.08-1.3-1.15.15a2.28,2.28,0,0,1-.68-4.5,3,3,0,0,1,2.16.61,3.63,3.63,0,0,1,.16-3.45c1.63-1.92,4.22-.17,4,1.71Zm28.11-2.5c.18,1.5.77,3.13.6,4.53-.25,1.79-1.75,2.85-2.94,1.69-.15-.14-.41-.44-.41-.44a8.32,8.32,0,0,0-.87,2.61L115,92.56a10.8,10.8,0,0,0,1.85-1.61,1.49,1.49,0,0,0,.16-.47,1.51,1.51,0,0,1-1.83-1.89c.63-1.73,3.75-2.38,5.52-3.11Zm14.58,1.08a26.82,26.82,0,0,1,2.94.3c.73.13.33.55-1.32,2.17s-1.46,1.35-2.63,1.33c-2.72,0-3.19,0-1.61-1.71a10.3,10.3,0,0,1,2.15-2,1.91,1.91,0,0,1,.46-.06Zm-4.9.31a.13.13,0,0,1,.09,0c.18.17.12.94.1,2.09s0,1.22-.51,1.86c-.64.81-1.18,1.65-1.85,2.43s-.56.57-.91-1-.15-2,1.75-4.11C129.68,87.38,130.14,86.86,130.38,86.87Zm8.49.85,0,3a51,51,0,0,0-12,18.65l-2-.79a57.09,57.09,0,0,1,13.94-20.88ZM90.25,89.54a1.7,1.7,0,1,0,1.68,1.69A1.68,1.68,0,0,0,90.25,89.54Zm0,.53a1.17,1.17,0,1,1-1.16,1.17A1.17,1.17,0,0,1,90.24,90.07Zm-62.31.72c17.49,11.34,25.34,28.93,25.3,44l-1-.45c-1-21.35-12.5-34.47-24.91-43ZM131.5,91c.4,0,.94.06,1.72.16,1.45.08,1.63.17.63,1.33-.27.32-.8,1-1.17,1.48a4.18,4.18,0,0,1-1,1.09,22,22,0,0,1-3.57-.12c-.24,0,.07-.28,1.31-2.07.95-1.37,1-1.82,1.95-1.87Zm7.29.58s.35,9.73.1,15.94c-4-.15-6.33,1.38-7.31,4.28l-4.19-2.1A55.13,55.13,0,0,1,138.79,91.53Zm-12.35.22c.23,0,.36.48.42,1.41.26,1.67.23,1.87-.46,2.94-.34.53-.82,1.29-1,1.68-.4.68-.69.88-.79.55-.55-1.8-.72-2.92-.52-3.29.32-.6,1.81-2.74,2-3S126.34,91.76,126.44,91.76Zm-99.8.18c14.06,8.8,24.35,23.83,24.78,42,0,0-3-1.42-4.85-2.46l-.1-1.76,1,0,.31,2,2.15-.07-.57-5-3.36.32-.68-2.81,1-.22.56,1.81,2.19-.58-1.16-4.42-3.38.93-1.08-3,1.12-.41.91,1.79,2.06-.72-1.94-4.43-3.11,1.48-1.58-2.89,1.21-.65,1,1.72,1.92-1-2.38-4.08-2.95,1.66-1.48-2.24.91-.65,1,1.18,1.69-1.21-2.59-3.52-2.82,2.23-2.09-2.44,1-.82,1.44,1.3,1.6-1.42-3.07-3.39-2.69,2.48-2-1.76,1-1.1,1.25,1,1.33-1.59-3.35-2.79-2.51,2.51-2.4-1.61v-1.2a21.8,21.8,0,0,1,2.35,1.06l1.24-1.9-3.59-2.45Zm39.16.75.53,3.1c.5-.84.91-1.42,2-1.1,1.31.54,1.33,2.54.22,5.59a10.1,10.1,0,0,1-.46,1.06,6.32,6.32,0,0,1-1-.51,9,9,0,0,1-2.84-2.28c-.72-1.15-.74-2.76.59-2.63a4.78,4.78,0,0,1,.79.13l-2-2.57Zm-39.94.92,2.44,1.59-.51.93-1.93-.88Zm61,.73c.71,1-1.78,3.93,1.47,5.11a1.18,1.18,0,0,1-.6,1.09c-1.59,1.17-3.87-1-3.16-3.16C85.08,96,86.39,94.35,86.92,94.35Zm6.74.09s1,.72,1.17.91c1.81,1.75,1.83,4.26.19,5.14a2,2,0,0,1-2.75-.73.56.56,0,0,1,.54-.8c.78,0,1.38-1.5,1.14-3.1C93.87,95.23,93.66,94.44,93.66,94.44ZM115,95a21.29,21.29,0,0,0,.53,3.1c.95,2.67-.26,4.3-2,3.4a3.5,3.5,0,0,1-.7-.71l-.18,3.07-2.52-.74c.55-.89,1.33-1.52,1.92-2.52l-.71,0c-1.51.05-2.06-1.64-.48-3A29.16,29.16,0,0,1,115,95Zm13.19.71,1.21,0c1.6,0,2-.22,1.31.79-.28.39-.95,1.49-1.14,1.86-.4.75-.48,1-1.16,1.14a23.18,23.18,0,0,1-3.19.11c-.24,0,.25-.85.53-1.37.68-1.28,1.09-2.15,1.68-2.42a1.77,1.77,0,0,1,.77-.13Zm-4.95,1c.19,0,.34.34.52,1.06.43,1.69.54,1.73-.15,3.12l-1.19,2.38c-.63,1.26-.67,1.25-1.06.12-.76-2.16-.83-1.94.43-4.36C122.56,97.52,123,96.74,123.23,96.72ZM31,97.31l2.26,1.83-.64.63-1.25-.93-1.85,2,3,2.8,2.57-2.56,2.21,2.33-.67.58-1.3-1.26-1.94,1.67,2.89,3.45,2.91-2.24L41,108l-.75.47-1.19-1.17-1.89,1.33L39.54,112l3-1.72,1.69,2.81-.94.46-1-1.54-2.13,1.24,2,3.93,3.21-1.35,1.29,3-1,.4-.82-1.8-2.16.86,1.45,4.12,3.25-.94.79,3.06-1,.28-.49-1.7-2.07.5.87,4.14,3.31-.21.39,3.35-1,0-.26-2-2.11,0c0,.7.09,2.14.09,2.14l-1.27-.6A46,46,0,0,0,25.92,99.8l-.05-1.52,2.45,1.57S30.57,97.83,31,97.31Zm96.67,3c.7,0,.39.54-.46,2.19-1,1.84-1.12,1.87-2.91,2.31-2.17.54-2.11.66-.93-1.88a7,7,0,0,1,1.2-2.16c.54-.43,1.6-.26,2.75-.44l.36,0ZM26,100.82c10.45,6.82,17.06,20.91,17.88,29.46a6.75,6.75,0,0,0-.85-.46c-.79-.37-1-.61-1.22-1.77A43.59,43.59,0,0,0,26,102.47Zm94.26,1.75c.44-.09,1.25,3.12,1,3.79-.17.48-1.73-.66-2.29-.9-.28-.12,1-2.82,1.29-2.89Zm-50.41.15,0,3.33a5.54,5.54,0,0,1,.6-.63c.78-.57,2,.22,2,1.2.06,1.36-.14,1.91-1.22,3.81-.33.59-.84,1.33-.84,1.33a24.06,24.06,0,0,1-2.67-2.32c-1.51-1.52-1.22-3.54.1-3.55a3.43,3.43,0,0,1,1.09.24,20.34,20.34,0,0,0-1.34-2.88Zm40.86,2.49a12.56,12.56,0,0,1,1.47,3.3c.75,2.28-.4,4-2,3.14a2.69,2.69,0,0,1-.57-.49,17.29,17.29,0,0,0,.11,3.11l-2.52-.45A19,19,0,0,0,108.7,111s-.16.12-.85.12c-2.54,0-2-3,.92-4.74.44-.25,1.93-1.22,1.93-1.22Zm14.53,0c.55,0,.29.51-.32,1.76s-.5,1.27-1.92.53c-2-1-1.87-1.13.65-1.82A6.93,6.93,0,0,1,125.23,105.25Zm-36,.41c2,0,3.45,2,3.16,4.81-.5,4.83-.21,4.54.31,5,.95.88-.33,1.41-1.47.57-.79-.58-1-1.16-1-3.83,0-3.07-.12-3.85-1.21-3.58-.68.17-.89.75-.82,2.82.11,2.9-.09,3.63-1.18,4.56s-2.44.1-1.37-.51c.49-.56.58-1.27.39-3C85.86,111,85,105.63,89.25,105.65Zm49.88,2.45c3.82.14,13.49.94,13.49.94l.08,2.89c-.43.27-7.65-.84-13-.74-1.24,0-2.12.58-3,.11.86.36.78,4.71-3,3.66-3.22-1.17-1.65-5.57,2.47-6.68a18.46,18.46,0,0,1,2.94-.18Zm-22,1.93,8.26,4.12c1.16,15.68,6.51,32.24,24.75,44.79a100.88,100.88,0,0,1-18.84,11l-.69-.75c10.06-17.29,2.46-36.31-15.15-44.93A69.2,69.2,0,0,1,117.1,110Zm29.06,2.63c1.58-.06,2,.12,2.13.85s.63.85,1.23.63c1.45-.54,2.34,2.07,1.14,3.23-.75.72-.62,1,0,1,1.52,0,1.47,2-.07,3.16-.64.47-.63.69,0,1,1.12.56.9,1.67-.53,2.58-.78.5-.8.62-.16.79,1.61.44,0,2.76-1.8,2.35a2.6,2.6,0,0,0-2.1.45c-1.89.79-2.21,1-4.24.7-1.79-.33-2.59-.93-3.05-2.52-1-3.23-2.18-6.81-2.19-10.33-.16-2.17,3.43-4.12,5.13-4.21,1.39-.21,3,.29,4.48.31Zm-113,.05a3.47,3.47,0,1,1-3.44,3.47A3.46,3.46,0,0,1,33.15,112.71Zm38.21,1-.31,3,.62-.5a1.24,1.24,0,0,1,2,1.27,13.86,13.86,0,0,1-2.58,4.76s-2.84-3.13-3.14-3.74c-.67-1.36.25-2.78,1.47-2.17a8,8,0,0,1,.68.46L69.2,114Zm-38,.24c-1.21,0-2.37.79-2.21,1.8.1.43.75-.19,1.39-.6a1.71,1.71,0,0,1,1.63-.12c.49.18.71.64,1,1s.51.55.66.4a.63.63,0,0,0,0-.54,2.35,2.35,0,0,0-2.5-1.94Zm92.59.47,1.23.63c1.65,22.15,12.74,35.18,24.38,42.94l-.93.56A54.81,54.81,0,0,1,126,114.44Zm1.86.91s3.09,1.6,4.7,2.33l.06,2-1.08,0-.37-1.88-2.24.16.7,4.64,3.62-.45.5,2.8-1.22.26-.63-1.72-2.08.51,1.34,4.5,3.26-1.06,1,2.95-1.09.4-.7-1.73-2.15.76,1.66,4.4,3.4-1.1,1.37,2.75-1,.46-1-1.71-2,1.05,2.39,4.11,3.07-1.63,1.43,2.19-1.13.76-1-1.34-1.65,1.1,2.64,3.65,2.64-2,2,2.3-.87.78L142,144.25l-1.6,1.44,3.15,3.49,2.73-2.4,1.94,1.83-.57.61-1.31-.82-1.73,1.86,3.3,2.91,2.62-2.91,2.22,1.66v1.22l-2-1-1.33,2,3.32,2.54,0,1c-19-11.43-23.94-29.15-24.9-42.33Zm-38.8.22c.82,0,1.68.75,3.11,2.43,4,4.68,2.93,11.91-2.29,15.68-.76.55-1.07.5-2-.31-5.36-4.65-5.66-10.87-.9-16.33.82-.94,1.43-1.45,2.07-1.47Zm19.14.64c1,1.53,2.23,3.09,2.37,4.95-.07,1.83-1.29,2.17-2.56,1.1a9,9,0,0,0,.38,2.84l-2.29-.25a7.76,7.76,0,0,0,.93-2.58,1.58,1.58,0,0,1-2.59-1.52c.45-2,2.08-3.35,3.75-4.55Zm-19.07,1.2a1.41,1.41,0,0,0-.68.39,10,10,0,0,0-3.06,4A8.51,8.51,0,0,0,87.65,131c1.38,1.37,1.86,1.28,4-1.56a8.29,8.29,0,0,0,1-8.1A8.93,8.93,0,0,0,90,117.91c-.44-.35-.67-.52-.91-.5Zm44,.57,1.78.88c2.27,15.11,9.61,24.33,17.85,30.68l0,1.4-2.21-1.73L147.9,152l-2.14-1.78.8-.79,1.22.79,1.56-1.77-3.07-2.77L143.59,148l-2.23-2.32.68-.57,1.54,1.36,1.73-1.55-3-3.39-2.67,2-1.87-2.5.81-.49,1,1.35,2.06-1.3-2.18-3.39-3.11,1.61L134.76,136l.9-.44,1,1.63,1.93-.94-1.95-4-3.17,1.06-1.17-3.14.91-.34.8,1.86,2.15-.7-1.46-4.3-3.28.94-.81-3.16,1-.22.53,1.71,2.26-.46-.83-4.09-3.36.43a30.49,30.49,0,0,1-.6-3.28l1-.08.33,1.8,2.26-.08Zm-43.93.33c1.23.17,2.73,2.57,3.07,3.44a7.69,7.69,0,0,1,.11,5.26,11.86,11.86,0,0,1-2.85,4.14c-.74.41-1.36.1-2.42-1.35-2.09-2.88-2.5-6.34-.85-8.71,1.26-1.81,2.2-2.78,2.94-2.78Zm46.31.75.89.43c1.1,8.75,6.23,20.77,16.33,28v1.1c-7.86-5.7-15.07-15.53-17.23-29.48Zm-46.47.6c-3.52,2.68-3,6.88-.29,9.7C91.65,127.44,92.66,122.25,89.07,119.65Zm-53.7.18c2,0,3.24.65,3.85,2a13,13,0,0,1,1.26,3.7c.11.65.28,1.63.38,2.17,1,5.87.27,8.08-3.25,9a8.13,8.13,0,0,1-3.55.11c-.27-.07-1.25-.07-2-.1a3.69,3.69,0,0,1-2.78-.85,1.86,1.86,0,0,0-.88-.46c-1.76-.28-2.29-1.91-.95-3.12.76-.69.84-.78.77-.89a1.42,1.42,0,0,0-.72-.12c-1.77,0-1.75-1.86,0-3.17.85-.63,1.23-1.22.67-1.07-1.62.39-2.19-2-.5-2.74.9-.51,1.55-.93.68-1s-1.32-.48-1.1-1.12A2.54,2.54,0,0,1,29.84,121c.67.21,1.32.4,1.73.09a4.73,4.73,0,0,1,2.33-1.18,10.82,10.82,0,0,1,1.46-.08Zm59,.45,8.16.16-.24,8.08-7.68-.15A10.55,10.55,0,0,0,94.36,120.28Zm-18.27.19,7.81.1a12.48,12.48,0,0,0-.33,7.94l-7.65-.12Zm13,0c2.1,1.24,2.68,5.74-.24,8C86.11,125.64,86.67,122.14,89.13,120.48ZM69.86,124l2.09.2-.75,3a2.51,2.51,0,0,1,.45-.39c2.69-1.28,2.88,1.62.15,4.23-.61.58-1.58,1.37-1.58,1.37s-.76-1.16-1.37-2.22a4.92,4.92,0,0,1-1-2.79c.17-.87,1.21-1.45,1.87-.92a8.79,8.79,0,0,1,.71.66Zm37.39,2.22s.88.91,1.41,1.5c1.85,2,2.17,4,1.23,4.54a1.62,1.62,0,0,1-2-.41A12.72,12.72,0,0,0,109,135l-2.76.45a18,18,0,0,0,.62-3.5,6.24,6.24,0,0,1-.82.55c-1.8.67-2.7-1.4-1.21-3.47A21.47,21.47,0,0,1,107.25,126.21ZM145,130a3.39,3.39,0,1,1-3.35,3.39A3.37,3.37,0,0,1,145,130Zm1.65,1.55c-.15,0-.26.37-.28,1.11a1.77,1.77,0,0,1-2.79,1.43c-.55-.29-1-.71-1-.38a3.93,3.93,0,0,0,.76,1.39c1.16,1.05,4,.8,3.92-1.65C147.17,132.33,146.85,131.54,146.61,131.59Zm-60.9,1.27a1.5,1.5,0,0,1,1.12.44c.92.63,1.09,1.44,1.15,4.49.05,2.69,0,2.76.44,3.08,1.08.8,1.72-.42,1.42-3.15s.64-4.53,2.21-4.52c.77,0,.92.46.33,1s-.77,1.37-.57,2.89c.5,3.89.07,5.8-1.55,6.59A3,3,0,0,1,86,141.47a18.12,18.12,0,0,1-.07-4.74c0-1.69,0-1.88-.59-2.85C84.94,133.22,85.25,132.9,85.72,132.87Zm-42.44,1.26a2.78,2.78,0,0,1,2.48,1.75c1.4,2.92-1.63,5.31-4.41,5.5A110.6,110.6,0,0,1,26,140.1l.08-2.75c4.44.26,9.45.62,14.84.88-.62-2.56.84-4.09,2.4-4.1Zm25.35.56,2.68.6-1.71,2.82a1.64,1.64,0,0,1,1.36-.19c1.09.4,1.11,1.8.31,3.11a12.65,12.65,0,0,1-3.63,2.78c-.68-1.48-2.19-4.08-1.59-5.5a1.45,1.45,0,0,1,2-.71c.27.16.79.43.79.43Zm6.34.08,8.18.1c-1.19,8.36-3.51,19.52-8.1,28.61l-1.93.5a95,95,0,0,0,8-27H77c-2.35,10.17-5.83,19.59-11.18,27.78L63.47,164c5.72-9.16,10.25-19.39,11.51-29.22Zm18.65.15h9.12c1.68,17,7.37,28.63,15.83,40.12a1.73,1.73,0,0,1-.85,0,5.28,5.28,0,0,0-3-2.12c-7.12-10.35-11.89-24.83-13-35.9H96.27c.62,13.91,4.43,25.31,9.5,36.35l-2.75.51c-4.07-9.88-8.54-18.48-9.39-38.94Zm14.19,2.1c.75.59,1.56,1.16,2.32,1.72,2.05,1.46,2,4.21,0,4.19l-.71,0s.82,1.8,1.33,2.72c-.83.22-2.57.55-2.57.55a22.28,22.28,0,0,0,.2-3.24,2.56,2.56,0,0,1-.61.51c-1.32.56-2.44-.61-2.28-2,.22-1.86,2.28-4.43,2.28-4.43Zm-60.9.33,4.49,2.25c-3.06,7-6.56,13.62-11.62,18.63L39.91,142C42.67,141.89,45.51,141.87,46.91,137.35Zm30.68.25h2.76c-1.22,13-9.71,30.53-11.3,32.65l-.52.4s-1.09-4-2.36-5.41C71,158.72,76,146.19,77.6,137.61Zm19.41,0h4.17c1.3,10.34,4.46,21.51,12.48,35.08a2.6,2.6,0,0,1-1.42-.29c-1.37-.86-2.32.28-3.13.23a7,7,0,0,0-2.8.17A96.15,96.15,0,0,1,97,137.61Zm-45,2.32,1.49.71c-3.2,7.49-6.07,13.43-13.66,20.74l0-2.17C45.1,154,48.7,147.11,52,139.93Zm2.17,1A19.16,19.16,0,0,1,56.31,142c.22.09.16.29.16.5-.28.71-1.52,1-2,1.16s-1.13.28-1.23.3c-.65.15-.44-.5.26-1.94C53.83,141.42,54,141,54.14,141Zm3,1.59a7.8,7.8,0,0,1,2.63,1.34c.14.43-.25,1.1-.82,2.34-.87,1.91-1,2-1.31.38,0-.27-.3-1.16-.46-1.76-.37-1.37-.4-2.17,0-2.31Zm3.26,1.54s1,.51,1.39.74c-4.67,14.14-17.11,25.83-17,25.56l-1.94-1.15A66.91,66.91,0,0,0,60.37,144.1Zm-4.94.2c.45,0,.06.57-.55,1.93s-.77,1.8-1.31,2a20,20,0,0,1-2.88.47c-.42.07-.25-.25.41-1.59.76-1.57.81-1.9,2-2.22A17,17,0,0,1,55.43,144.3Zm1.64,2.81c.48,1.75.47,2.1.15,2.7-.6,1.14-1.39,2.47-1.61,2.83-.54.9-.7.71-1-1.48a7.53,7.53,0,0,1-.23-2.56c.27-.67,1.08-2.25,1.54-3.17C56.55,143.47,56.9,146.94,57.07,147.11Zm8.6-1.53,2.45.81-1.92,2.34a5.57,5.57,0,0,1,.9-.11c1.93.13,1.61,2.07.12,3.24a26.81,26.81,0,0,1-3.67,2c-.33-1.73-1-2.84-.84-4.62.11-1,.2-1.82,1.36-1.85.61,0,.86.6,1.26,1.11Zm44.42,2.1a21.36,21.36,0,0,1,2.84,1.83c1.79,1.39,2.09,3,.31,3.65a3.3,3.3,0,0,1-.79,0,16.46,16.46,0,0,0,1.66,2.15,8.71,8.71,0,0,1-2.32,1s-.23-2.15-.44-3a2,2,0,0,1-.53.65c-1.72,1.08-3.07-1-2.14-3.53A14.34,14.34,0,0,1,110.09,147.69ZM91.2,148c4.29-.11,1.78,7-.37,6.54,0-.06,1.77-4.2-.66-4.86-1.12-.3-.15-1.69,1-1.68Zm-7,.5c1.33,0,2.3.94,1,1.54-2,.94-.81,3.2-.77,4.47,0,.78-1.79-.68-2.17-2.27-.5-2.05-.27-3.57,1.91-3.75Zm-31.74.75a1.26,1.26,0,0,1,.59.08c.13.33-.47,1.38-1.35,2.72a2.91,2.91,0,0,1-1,1.08,5.88,5.88,0,0,1-2.42.34c-1.18,0-1,0,.33-2.06a9.09,9.09,0,0,1,1.3-1.91,15.44,15.44,0,0,1,2.49-.26ZM54,150.78c0,2.57.86,3.41.23,4.22a35.6,35.6,0,0,1-2.12,3.08c-.61.74-.54.6-.7-1.33a8.76,8.76,0,0,1-.06-2.76c.52-1.26,1.13-1.86,1.78-3.2C53.59,149.71,54,149.89,54,150.78Zm33.88,1.29c1.25,0,2,1.36,2,2.58l-.05,1.18c1.61-.62,3.61,0,3.7,1.58.15,2.71-1.82,2.39-3.49,2.28.17.06.42,2.45-.58,3.36-1.56,1.76-4.46,0-3.73-2.62a5.49,5.49,0,0,0,.18-.87,6.36,6.36,0,0,1-1.41.36c-3.16-.14-2.92-4.65.26-4.12a6.92,6.92,0,0,1,1.09.27s-.07-.29-.18-.69C85.12,153.63,86.09,152,87.84,152.07Zm63.22.8,1.7,1v1.92L150.33,154ZM48.92,154.16c.67,0,1.2,0,1.09.21a14.67,14.67,0,0,1-2.34,3.35c-.74.8-.84.69-2.66.6-.71,0-1.18,0-1.16-.23.83-1.11,2-2.53,2.78-3.72A12.38,12.38,0,0,1,48.92,154.16Zm1.66.9c.13,0,.16.27.16.87s.06,1.85.13,2.45c.12,1.1.12,1.1-.35,1.76s-1.15,1.53-1.88,2.24c-1.1,1.23-1,1.3-1-1.33,0-2.06-.14-2.06.27-2.55.23-.27.93-1.13,1.39-1.81C50,155.65,50.4,155.06,50.58,155.06Zm10.51.36,2.27,1.22L61.08,159a6.51,6.51,0,0,1,.76,0c1.46.29,1.35,1.85-.12,3a35.17,35.17,0,0,1-4,1.71,31.31,31.31,0,0,1-.33-3.93,2.89,2.89,0,0,1,.57-1.92,1.21,1.21,0,0,1,1.71-.08,3.13,3.13,0,0,1,.64.8Zm26.75.79a1.63,1.63,0,1,0,1.61,1.62A1.62,1.62,0,0,0,87.83,156.22Zm25.34.38a17,17,0,0,1,4.3,2.36c1.25,1.05.66,2.79-.58,2.82-.09,0-.62-.08-.62-.08.42.65,1.83,2.23,1.83,2.23l-2.29.94s-.37-1.78-.65-2.79c-.8,1.87-2.77.65-2.9-.51-.32-1.7.4-3.37.91-5Zm-25.34.14a1.13,1.13,0,1,1-1.12,1.13A1.12,1.12,0,0,1,87.83,156.74ZM44,159.05c.8,0,1.8,0,2.24.06.34.26-.37,1.08-1.75,2.54-1.1,1.17-1.27,1-2.6,1-2.24,0-2.3,0-1.27-1.15a12.56,12.56,0,0,1,2.3-2.4,6,6,0,0,1,1.06-.07Zm2.73,1.14c.24,0,.17.56.13,1.95l-.06,2.34-1.74,1.7c-2,1.82-1.78,1.94-1.76.23a8,8,0,0,1,.29-2.91c.88-1.07,1.8-2,2.8-3a.91.91,0,0,1,.35-.26Zm44.29.58c.49,0,1.72,2.1,2,3.89.71,4.1,3.13,6,4.84,4.39.7-1,.77.09.74.59-.36,5.19-6.18,3-6.84-2.12-2,1.34-3.95-1.37-2.73-1.32,2.88-.92,2.09-3.59,2-5.43Zm-6.74,0c.29,1.79-2.92,4.87-4.72,2.71-.92-1.1-.08-3.36,1.08-2,1.29,1,2.54-.15,3.63-.75Zm-44,2.46c.66,0,1.61.11,2,.05.59.06.17.35-1.1,1.52-1.09,1-1.41,1.46-1.53,1-.06-.68,0-1.49,0-2.45a1.1,1.1,0,0,1,.64-.13Zm14.92,1.19,2,1.44-1.94,1.8c1.74-.09,1.89,1.56,1.23,2.48-.43.64-2.07,1.32-3.72,1.59l-1.8.28s0-.77-.07-2.05c-.06-2.62.12-3.66,1.12-4.17a1.91,1.91,0,0,1,2.22.88,5.71,5.71,0,0,0,.36.61Zm-12.57.14h0c.11.15-.29,4.42-.29,4.42l-2.83-1.61s2.86-2.76,3.1-2.81Zm74.88.5c2,1,3.53.77,4.88,2a1.59,1.59,0,0,1,0,2.73,3.32,3.32,0,0,1-1,.05,14.71,14.71,0,0,0,2.27,2l-2.48,1s-.34-1.69-.66-2.61a1.78,1.78,0,0,1-2.85.69c-.62-.48-.87-2.08-.58-3.47.08-.37.47-2.42.47-2.42Zm-13.25,39.74C79.87,210.71,60,207.08,58,206.39l-1.56,2.35c-.19.4-.31,1.59-1.36,1.92L53.52,213l.31.33-1.41,1.24.34.41-1,1.5-.4,0L49,220.13l.36.41-5.43,8.59,73.5,0c-4.27-8.14-8.84-16.13-13.07-24.3Zm-.44,1.06.44,1.23c-1.21-.15-2.63-.23-4.08-.29C101.51,206.58,102.79,206.25,103.89,205.9ZM99.62,207a12.43,12.43,0,0,0-4.81,3.76,12.71,12.71,0,0,0-5.07-2.26Zm-41.3.6,1,.12s-.35.27-.6.22A1.23,1.23,0,0,1,58.31,207.57Zm46.82.61.66,1.32c-1.59-.85-8.4-2.81-10.33,4-2-2.78-10.42-6.8-14.67,1.76-1.21-2.32-8.25-9-14.67-.49-2.53-5.29-4.64-5.73-9.29-5,3.3-3.21,7.95.13,9.91,2.86,5.54-4.64,10.17-3.25,14.22.53,5.22-5.75,10.43-4.36,14.09-1.48C97.63,207.89,100.15,206.73,105.14,208.18Zm-42.76,0c3.29.45,6.58.65,9.87.82a15.51,15.51,0,0,0-5.41,2.74,12.67,12.67,0,0,0-4.46-3.55Zm23.75.53a24.52,24.52,0,0,0-5.28,3.49,16.49,16.49,0,0,0-5.28-3.17A72.47,72.47,0,0,0,86.12,208.74Zm21.07,2.72s-.66.11-.88.17a2.5,2.5,0,0,0,.72,4.92c.28,0,1-.11,1-.11-.06,2.8.79,3.49,3.62,3.33l4.8,8.68-71-.31,4.51-7.29c2.27.27,3.69-1,3.19-3a12.19,12.19,0,0,0,1.79.43c2.57,0,3.23-4,.77-4.66-.27-.08-1-.15-1-.18,1.13-2.84,4.22-1.16,5.1,0a3.1,3.1,0,0,1,5.14,1.23s-.37-.21-.49-.29c-2.34-1.73-4.51,1.85-2.22,3.5a3,3,0,0,0,.7.3,2.69,2.69,0,0,0-.53.66,2.64,2.64,0,0,0,3,3.84c1.77-.7,1.8-2,1.79-3.53,0,0,.61,0,1.16.05,2.13,0,2.74-2.73,1.43-4a3.34,3.34,0,0,0-2.08-.73c2.45-2.43,4.11-.75,5.84.37.26,0,3-3.33,6.26-.07a2.48,2.48,0,0,0-3.22,2.28c0,1.07.79,2,2.43,2.09a4.67,4.67,0,0,0-.3,1.46,2.46,2.46,0,0,0,3,2.57,2.5,2.5,0,0,0,2-3.2,1.86,1.86,0,0,0-.54-.84,2.4,2.4,0,1,0,.79-4.73,2.46,2.46,0,0,0-2,.9c1.76-3.63,5-2.9,6.17-1.42,1.65-1.21,3.92-2.87,6.64.08a3.71,3.71,0,0,0-1.63,0,2.25,2.25,0,0,0-.46,4.19,3.58,3.58,0,0,0,1.7.35,2.59,2.59,0,0,0,3.79,2.87c1.3-.8,1.63-2.68.23-4.4C100.77,217,101,214,99.64,213c-1.07-.82-2.33-.43-3.24.65-.29-.85,2-3.82,5.33-1.68,1.75-1.48,3.48-1.93,5.46-.46Zm1,2.32.92,1.7A1.07,1.07,0,0,1,108.22,213.78Zm-11.91,1.72a1.06,1.06,0,1,1-1,1.06A1,1,0,0,1,96.31,215.51Zm-43.11.06c.14.57.2,1.13-.82,1.24Zm12,1a1,1,0,1,1-1,1,1,1,0,0,1,1-1Zm15.93.3a1,1,0,1,1-1,1A1,1,0,0,1,81.15,216.89Z"/><path id="path153-6-3-1-9-0-4-7" d="M48.16,26.57C40.81,37.06,33,43.1,32.82,51.29c0,2.65,1.39,7.16,5.87,8,2.91.56,6.91-1.8,7-6.59,0-1,1-.93,1,.38a27.2,27.2,0,0,1-3.34,11.75H53a27.2,27.2,0,0,1-3.34-11.75c0-1.31,1-1.33,1-.38.08,4.79,4.09,7.15,7,6.59,4.48-.86,5.91-5.37,5.87-8C63.37,43.1,55.51,37.06,48.16,26.57Z"/><path id="path153-6-3-1-8-6-4-8-4" d="M130.62,223.08c-7.35-10.49-15.21-16.53-15.34-24.72,0-2.65,1.39-7.16,5.87-8,2.91-.56,6.91,1.8,7,6.59,0,1,1,.93,1-.38a27.21,27.21,0,0,0-3.34-11.75h9.63a27.2,27.2,0,0,0-3.34,11.75c0,1.31,1,1.33,1,.38.08-4.79,4.09-7.15,7-6.59,4.48.86,5.91,5.37,5.87,8-.13,8.19-8,14.22-15.34,24.72Z"/></g></g></g></svg>