<svg xmlns="http://www.w3.org/2000/svg" viewBox="0 0 178.78 249.65"><defs><style>.cls-1{fill:#fff;stroke:#000;stroke-width:1px;}.cls-2{fill:#d40000;}.cls-3{fill:#e2cf00;}.cls-4{fill:#131f67;}</style></defs><title>QC</title><g id="Layer_2" data-name="Layer 2"><g id="svg11376"><g id="QC"><rect id="rect6355-6-85-3-5-0-1" class="cls-1" x="0.5" y="0.5" width="177.79" height="248.65" rx="8.5" ry="8.5"/><path id="path147-6-9-8-7-0-5-6-46-4-5" d="M164.57,209.3c3.13-.07,4.53-3.74,2.21-6.59-.34-.42-.37-.65.24-.25,1.56,1.09,4.55.37,4.7-2.95.19-4.09-5.3-5.27-6.33-.92-.05.46-.41.45-.33-.2a14,14,0,0,1,1.35-5h-3.72a14,14,0,0,1,1.35,5c.09.65-.27.66-.33.2-1-4.35-6.52-3.17-6.33.92.15,3.32,3.14,4,4.7,2.95.62-.4.58-.16.24.25-2.32,2.85-.91,6.52,2.21,6.59h0Z"/><path id="path147-6-9-8-7-4-5-62-9-4-5" d="M14.21,40.35c-3.13.07-4.53,3.74-2.21,6.59.34.42.37.65-.24.25C10.19,46.1,7.2,46.82,7,50.14c-.19,4.09,5.3,5.27,6.33.92.05-.46.41-.45.33.2a14,14,0,0,1-1.35,5h3.72a14,14,0,0,1-1.35-5c-.09-.65.27-.66.33-.2,1,4.35,6.52,3.17,6.33-.92-.15-3.32-3.14-4-4.7-2.95-.62.4-.58.16-.25-.25,2.32-2.85.91-6.52-2.21-6.59h0Z"/><path id="path37-5-2-4" d="M8.42,29.14H6.22v-3h2.2s0-1.62.08-4.47c.14-6.07.29-7,2-8.69,3.47-3.3,9.28-.61,9.21,4.36-.1,7,0,13.7-.23,14.64-.36,1.67-.4,1.76-.25,2.07.3.61,2.93.88,2.93.71v3a5.42,5.42,0,0,1-4.44-1.18,6.58,6.58,0,0,1-6.47.8C9.44,36.46,8,34.22,8.42,29.14h0Zm7.42,5.23c-1.09-1.58-2.92-3.72-4.64-4.49-.11,1.81,0,3.33.68,4.15a2.53,2.53,0,0,0,4,.34h0Zm.9-17.32c-.81-2.29-2.88-3.07-4.4-1.63-.95.89-1.1,1.83-1.12,6.93,0,3.15,0,4.47,0,4.47,3,1,5.71,4.41,5.69,4.36L17,21.66a26.71,26.71,0,0,0-.23-4.61h0Z"/><path id="path37-3-2-7-4" d="M170.36,220.51h2.2v3h-2.2s0,1.62-.08,4.46c-.14,6.07-.29,7-2,8.69-3.47,3.3-9.28.61-9.21-4.36.1-7,0-13.7.23-14.64.36-1.67.4-1.76.25-2.07-.3-.61-2.93-.88-2.93-.71v-3a5.42,5.42,0,0,1,4.44,1.18,6.58,6.58,0,0,1,6.47-.8c1.84.87,3.24,3.11,2.86,8.19Zm-7.42-5.23c1.09,1.57,2.92,3.72,4.64,4.49.11-1.81,0-3.33-.68-4.15a2.53,2.53,0,0,0-4-.34Zm-.9,17.32c.81,2.29,2.88,3.07,4.4,1.63.95-.89,1.1-1.83,1.12-6.93,0-3.15,0-4.47,0-4.47-3-1-5.71-4.4-5.69-4.36L161.8,228a26.72,26.72,0,0,0,.23,4.61h0Z"/><g id="g5457-6-3-6"><g id="g3405-1-0-4"><path id="path3391-4-8-9-0" class="cls-2" d="M95.65,228.53c.44-6.51.06-13.5.36-18.8-.2-.37.52-1.4.56-1.4a7.18,7.18,0,0,1,0-4.59c4.24-16.23,11.93-28.87,19.84-40.65,6.44,19.47-13.78,33.13-18,50.14-1.42,5.89-1.21,10-1.75,15.33Zm-33.6.25L38,191.48l5.22-2.55,24.71,39.71Zm31.1-69.09c.21,1.07,1.05,1.65,1.94,1.16s1-.51.43.33a1.74,1.74,0,0,0,2.79,2.07,1.43,1.43,0,0,0,.14-2c-.57-.53-.69-.8.15-.4,2.1.85,3.26-2.2,1.22-3.23a2,2,0,0,0-1.93.37c-.46.49-.53.32-.41-.06a9.34,9.34,0,0,1,.3-1,5.94,5.94,0,0,0,.24-.8l-2.15,0s.17.5.35.91.23.68.31.85c.29.59-.06.37-.64-.06a1.68,1.68,0,0,0-2.44.37A2.47,2.47,0,0,0,93.15,159.69Zm3.1-30.34,4.62-.14L106,143.29c-4.07,6.78-5.16,14.43-.43,22.18l-14.66,0c3.44-11.68,4-24.07,5.38-36.15Zm4.83,18.32a1.63,1.63,0,0,0,.13-2.24c-.71-.85-.55-.89.41-.34,1.38.8,2.69-.93,1.88-2.45a1.81,1.81,0,0,0-2.82-.32c-.53.72-.47.06-.06-.89.15-.35.37-1,.37-1l-2.24,0s.29.64.44,1c.41,1.09.43,1.43-.2.73a1.73,1.73,0,0,0-3,1.34,1.49,1.49,0,0,0,2.17,1.5c.61-.36.89-.45.2.38a1.76,1.76,0,0,0,.32,2.27A2,2,0,0,0,101.08,147.67Zm-31,4.39c.18-.13.25,0,.14.13a6.61,6.61,0,0,1-.54.6c-1,1.17.31,2.65,2,2.42,1.15-.16,1.82-2,1-2.68-.27-.18-.49-.22-.7-.47,0-.1,0-.17.13-.13s.45.31.61.35a1.64,1.64,0,0,0,2.14-.91,2.2,2.2,0,0,0-.7-2.3,1.63,1.63,0,0,0-2.21.44c-.58.78-.66,0-.19-1a6,6,0,0,0,.3-1l-2.06.11s.11.44.29,1c.46,1.17.79,1.5.2.9-2.52-1.49-3.35.54-3.39,1.34A1.79,1.79,0,0,0,70.12,152.06Zm10.07-22.84h3.72c-2.8,15-8.54,27.48-18.2,36.11l-18.18-.06-8.76-6.15,3.38-4.41C65.22,157.11,75.05,145.62,80.19,129.22ZM63.46,163.89a1.65,1.65,0,0,0,.82-2.55c-.65-.75-.72-1,.28-.4,1.34.78,2.63-.78,2-2.31a1.75,1.75,0,0,0-2.62-.6c-.81.61-.8.34-.37-.62a7.94,7.94,0,0,0,.37-1.24l-2.28,0a9.57,9.57,0,0,0,.33.92c.38.86.52,1.25.34,1.25s-.37-.26-.53-.41a2,2,0,0,0-2.15-.06c-1.36,1.31-.6,3.59,1.14,3.17,1.12-.27,1.38-.7.45.36-1.14,1.3.63,3.18,2.25,2.46Zm-14.37-.45a1.53,1.53,0,0,0,.73-2.24c-.53-.71-.79-1.16.15-.53,1.25.63,2.35-.21,2.34-1.64a1.78,1.78,0,0,0-2.93-1.3,2.09,2.09,0,0,1-.51.29c-.15,0,.12-.81.42-1.34.13-.23.36-.7.36-.7l-2.28-.09a9,9,0,0,0,.31,1.1c.36,1,.45,1.3-.18.75-1.71-1.61-3.54.44-2.82,2.21a1.44,1.44,0,0,0,2.24.5c.63-.49.31.16-.12.67C45.63,162.52,47.34,164.26,49.1,163.44Zm104-37.5.12,2.77L123.8,153.34l-1.23-1.9ZM43.64,131.12c4.24-3,9-8.46,13.6-11.3C60.64,127.67,52.67,135.36,43.64,131.12ZM121,129.68c-3-16.58,14.75-13.13,13.81-11.65ZM25.73,119.54,54.87,95.69l1.32,2L25.46,123Zm79.82-24.06c.08.25,1,1.2,1,1.29-.25-.19-1.75-1-2.48-.21a2.79,2.79,0,0,0-.54,1.76,1.73,1.73,0,0,0,2.88.89c.31-.26.57-.58.63-.47a2.49,2.49,0,0,1-.25.92c-.16.37-.75,1.15-.32,1.15h2.07a4.41,4.41,0,0,0-.32-1c-.46-1-.44-1.55.12-.83,1.09,1.41,3.19.23,3-1.46a1.58,1.58,0,0,0-2.3-1.34c-.1.06-.39.35-.43.35s.19-.46.39-.85c.67-1.28-.33-2.47-1.85-2.35a2.13,2.13,0,0,0-1,.4A1.69,1.69,0,0,0,105.55,95.48Zm25.16-12a50.07,50.07,0,0,0,8.75,6.39l-2.75,4.36c-18.64-1.73-32.2,5.67-37.86,25.73l-3.07.59c1.16-12.52,5.33-24.93,17.68-37.06Zm-17.87,3c0,.59,1.09,1.3.85,1.46s-.76-.5-1.05-.54c-2.15-.23-2.6,3.13-.47,3.51a2.72,2.72,0,0,0,1.54-.4c.34-.28.58-.51.65-.49s-.17.65-.4,1.09a13.07,13.07,0,0,0-.52,1.27h2.45s-.22-.75-.44-1.29-.34-1.12-.15-1.07.17.23.35.38a1.82,1.82,0,0,0,3-.9c.38-1.34-1.21-2.72-2.33-2-.39.26-.39.07,0-.52a1.79,1.79,0,0,0-.05-1.84A2,2,0,0,0,112.84,86.51Zm17.57,4c-.06-.3,0-.21.33.11a1.8,1.8,0,0,0,3.1-.49c.43-1.36-.88-2.91-2-2.38-.59.28-.6.18-.26-.27A1.69,1.69,0,0,0,130,84.83a1.65,1.65,0,0,0-1.52,2.48c.27.47.18.57-.3.33-1.41-.68-2.72,1.55-1.69,2.87a2,2,0,0,0,2.81.09c.43-.41.42-.21.11.64a14.53,14.53,0,0,1-.57,1.34l2.43,0A10.5,10.5,0,0,1,130.42,90.49Zm-52.09,30c.71-.18-2.5-10.38-4.85-14.93,2.68-6.43,6.34-12.67.18-21.94l15,0C84,94.12,83.9,120.68,82.81,120.74Zm1.31-11.81a4.44,4.44,0,0,1-.78-1.85c-.09-.53,0-.56.32,0,1.33,1.48,3.14.05,3.15-1.26s-1.24-2.23-2.14-1.63c-.63.42-.8.3-.24-.48a1.61,1.61,0,0,0-1.48-2.51c-1.84,0-2.54,1.74-1.22,3,1,.91.07.37-.71,0-1.5-.63-2.49.9-1.82,2.46a1.58,1.58,0,0,0,2.63.48c.44-.48.85-.75.61,0a10.43,10.43,0,0,1-.8,1.81ZM82,92.52a5.89,5.89,0,0,1-1-2c-.05-.31.17-.23.67.2,1.61,1.39,3.82-1.1,2.32-2.62a1.28,1.28,0,0,0-1.64-.36c-.75.39-.69.2-.32-.2a1.65,1.65,0,0,0-.08-2.22c-1.64-1.46-4.23.72-2.71,2.28.66.68.35.59-.38.16-1.38-.83-2.9,1.44-1.87,2.77,1.23,1,2.15.53,3-.12.18-.1.34-.14.34-.06s-.85,2.16-.85,2.16ZM62.32,86.23c-.91-.06-1.57-8.63-.45-11.34C64.25,63.45,71.52,55.12,76,48.11,83.29,37.68,82.39,20.34,82.69,21l1,.12s-.8,10.16-.35,14.75c.47,4,.37,4.29.08,4.69-.08.38,0,1.48,0,1.85C80.18,57.39,72.48,72.76,64.53,84.36Zm74.56-26.11L112.39,21.35l5.88-.53c2.18,3.47,23.46,36.6,23.46,36.6Z"/><path id="path3395-8-0-1-6" class="cls-3" d="M36.05,229.47c2.78-10.25-4.76-34.09-9.47-37.2,5.53-.23,12.18-.13,12-.65,0,0,23.51,37.13,23.32,37.33s-25.82.53-25.82.53Zm95.29-58.15c-5.7-.81-3.45-5.56.21-6.05-.48.08.39-2.36,3.35-3.35.67-1.22,1.2-3.31,1.81-4.28-1.77.58-3.92,2.08-12,.9.7-3.83,8.4-4.48,11.17-3.89,1.6.37,3.18,2.77,3.67,2.82,4.94-.83,11.22,3.66,9.32,8.22-.29.65-1-.77-2.71-1.38-5.37-2-5.75-4.88-7-6.19-.45-.09-2.83,4.64-2.83,4.64l.74,3.21c1.29-.12,7,3.44-.11,5.84C135.05,178.64,131.34,173.82,131.35,171.32Zm13.5-30.48c-.3-.31.24-2.44,1-3.66a2.11,2.11,0,0,1,1.82-1c.94.17.8,1.54-.45,5.57C147.13,142.33,145.85,142.39,144.85,140.84ZM31.38,112.62c-1.56,0-.16-4.27.8-5.63.32-.42,1.56.48,1.63,1.09C33.92,109.19,32.23,113.06,31.38,112.62Zm-1.11-29A23.47,23.47,0,0,1,36.63,87c1.79,1.34,1.3,4,2.73,4.21,1-.48,2.74-4.79,2.74-4.79s.45-2.22-.82-2.9c-3.14-1.7-3.08-3.53-2.88-3.69.93-2.42,2.79-2,3.79-2.13,0-1.33,0-4.13,2.71-3.84,2.39.23,2.63,3.66,1.62,3.69,0-.06,4.52-.65,4.48,2.35,0,1.63-2.72,3.72-3.56,3,0,0,.45,3.25-3.62,4.37-1,1-1.73,5.1-1.73,4.74,2.45-2.22,6.3-2.75,12.36-1.95-3.76,7-14.14,3.72-15,2.37C34.28,90.84,29.38,88.78,30.27,83.59ZM75,66.83c5.53.5,11.57-1.24,16.17-.32.52.07,1.09.85,1.41,1,2.38,1.3,4.86.9,8.69-.56.94-.36,18.47-.22,18.47-.22,4,5.92,11.09,17.06,11.24,16.68,0,0-9.71-.11-14.19.16-3.15.19-1.3.62-3.48.71C98,95.86,95.08,120.81,95.08,120.81s4.87-1.29,6.14.06c6-17.68,17.45-25.75,33.39-24.17,7.37.73,16.15,8,16.15,8L135,117.58c-12.21-6.18-17.44,12-13.74,12.09l31.74-26s.54,2.13.49,2.2c-2.26,3-40.1,33.82-40.1,33.82l-1.66-1.84s-1,.93-1.59,1.55A3.4,3.4,0,0,0,111.2,142c-7.5,6-7.74,17.12-2.22,23.17,0,0-2.45.17-2.71.22-3.11.54-6.34-14.88-.16-22.06-3.11-6.13-5-14.47-5.42-14.86.08,1-4.92.66-4.92.66a169.29,169.29,0,0,1-4.66,36.45l23,.5-9.78,17s-11-.28-15.7-.61c-4.93-2.88-7.78-.69-12.41.38-6.59.19-16.29-.11-16.29,0a79.9,79.9,0,0,0-11.63-17c-.61-1,19.51-.39,19.51-.39s10.06-15.27,11.89-19.59c1.43-3.37,4.64-15.62,4.64-15.62.15.64-1.83-3.19-6.42-3.1C74.07,152.53,44,161.08,26,144.74l-.17-3,39.83-32.44,1.77,2.05c-.38-.31-24.45,19.81-24.05,19.68,7.13,3.75,15.39.71,14.43-11.59a135.29,135.29,0,0,0,15.58-13.76c.11-.19,5.49,12.13,5.36,14.5,3.1-1,4.93,1.15,4.87.77-1.11-7.13,5.1-34.14,5.22-37.25-3.45-.28-8-.15-15.21-.44,5.77,11.21,3.76,18.8-4.3,25.7l-1.69-2.13c.68.38,11.77-9.25,2.84-23.65-.41,0-4.71-.39-4.71-.39S74.56,68.82,75,66.83Zm42.8-46.31s25.14-.61,25.15.13A59.16,59.16,0,0,0,152.9,58s-11.13-.4-10.93-.26Z"/><path id="path3393-8-5-4-3" class="cls-4" d="M154.7,19.56H24.08V230.09H154.7Zm-12.28.92s-1.69,22.28,9.9,36.88c-7.08-1.08-11.13,0-15.25,2.94l.56.58c5.67-3.5,10.49-2.58,15.42-2V87.52c0,1.39-5.9.77-9.52-2a17.1,17.1,0,0,1-4.93-4.76c-.3-.49-.62-1-.71-1.07q-.5-.58-6.18-11.55c-1.93-3.72-4.47-8.79-6.54-12.71-1.34-2.54-3.83-7.35-4-7.73-.37-.8-3.08-6.11-4.13-8-2.79-5.1-7.29-14-8.89-17.2-.35-.83-.89-1.21.07-1.18a3.23,3.23,0,0,1,.55,0c.17.09.38-.29.38-.29ZM25.89,141.07v-2.25l38.06-31.45,1.21,1.57ZM62.74,86l-.5.17c-1-4.37-.42-10.2.73-14.59,1.67-6.09,4.8-11,8.29-15.88C79.22,44.48,82.74,36,82.6,21l1.14.12c0,2.38-.36,4.17-.45,7.33a57.2,57.2,0,0,0,.27,9.28c.18,1.63.28,2.68,0,2.89a1,1,0,0,0-.13.88c0,.45-.08,1.35-.08,1.35C81.54,51.79,71.76,74.77,62.74,86Zm4.75,20.38-2-2.48a1.74,1.74,0,0,1-.16-2.67c4-4.09,4-9.3.16-14-.26-.59,1.21-3.6,1.21-3.6l3.06.05c4.77,5.83,6.08,16.13-2.26,22.67ZM70.3,83.22c.1-.4-4.54-.24-4.54-.24,2.88-4.3,5.32-8.73,7.73-13.17,3.73-6.72,8.9-18.49,10.52-27,1.21,10,3,24.79,11.47,25.38,2.79.19,6-1.73,6.55-1.41l17.67-.14a68.76,68.76,0,0,0,12.13,17.18,45.43,45.43,0,0,0,11.26,4.37c2.22.55,2.43.19,6.81.81a8.84,8.84,0,0,0,2.9-.33c-3.5,2.77-7.53,2-12,.8-.25-.07-.51-.14-.77-.24l-3.35,5.07c-7.47-1.78-31.43-.52-37.75,25.65,0,0,.65.33.5.15,5-22.71,26.22-27.24,36.32-25l-.87,1.33c-16.77-2.06-30.42,8.47-33.67,23.4l.32.29c6.29-22.58,32.74-30.93,49.14-15.28l3-2.14-.1,2.89-40.32,33.92-1.61-1.67s-.28.22-.61.48c-1,.87-1.45,1.08-1.16,1.57s1.42,1.58,1.47,1.7c-6.69,5.47-8.81,16-2.45,23.41.71.78.58,1,.45.11-5.7-6.23-5-17.24,2.13-22.46l1.43,1.88c-3.13,6.9-4.8,17.66,3.43,18.59,2.95,7.93-.44,17.33-4.23,23.63-4,7.26-8.87,13.29-11.91,21.19-1.48,3.3-3.82,13.08-3.7,20.56h-.88c0-3,.2-6.67.23-9,.12-11.27.11-10.6.36-10.89.08-.09.32-.2.34-.27s-.18-.35-.27-.63a3.93,3.93,0,0,1-.22-1.2c0-.42.41-1,.33-1.16-1.77-6.22-1.92-17.4-7.63-22.54-2.8-2.42-6.52-2.51-11.34-.53-10.63,0-9.06.57-17.65.08a79.91,79.91,0,0,0-12.52-17.61c-2.18-2.44-5.21-3.78-8.06-5.54a13.68,13.68,0,0,1,3.85-4.8,7.16,7.16,0,0,1,.87-1.23c29,2.79,35.24-25.36,33.92-24.65l-.26.22c-7.92,29-36.09,28-50.26,15.41,0,0-2,1.75-2-.17,0-1.74.63-2.25.63-2.25l39.75-32.54c.73.46,1.51,2,1.83,1.84.73-.39,1.81-1.18,1.78-1.64a19.54,19.54,0,0,0-1.45-2.62c10.63-11.05,5.84-16,2.42-23.57ZM85.37,21.09a.58.58,0,0,1,.51.3c.24.38-.72,2.63-1.32,3s-.61-.06-.2-2.23A1.24,1.24,0,0,1,85.37,21.09Zm58.33.07h9.35V56.64C146.17,46.93,142.61,35.77,143.7,21.16Zm-55.86.06c.23,0,.43.05.5.22.24.6-1.11,3.18-2.79,5.33-.87,1.11-1.3,1.43-1.57,1.17-.23-.51-.22-1.09.58-2a20.13,20.13,0,0,0,2.24-3.54C87,21.79,87.2,21.26,87.84,21.22Zm9.45.13c.27,0,.54,0,.62.13a18.34,18.34,0,0,0,7.73,7.85c.45.26.24.9.39,1.36-3.48-.52-8-5.47-9.27-9.08C96.77,21.33,97,21.34,97.3,21.34Zm5.44,0c.69.71,1.78,1.56,2,2.36a2.6,2.6,0,0,1,.15,1.33c-.6.38-3.61-3.12-3.49-3.53A1.53,1.53,0,0,1,102.74,21.34Zm-13-.05c.29,0,.75,0,.81.22C90.9,23,87.43,29,84.9,30.67c-.9.6-1,.44-.89-.56,0-.68.11-.62,1-1.51a17.81,17.81,0,0,0,3.55-4.94C89.61,21.44,89.37,21.3,89.71,21.29Zm2.36,0a.91.91,0,0,1,.72.26c.12.2,0,.52-.15.92a26.12,26.12,0,0,1-7.33,10.58c-1.3,1-1.52,1-1.61,0-.05-.6.22-.78.83-1.2A17.8,17.8,0,0,0,91,23c.21-.68.13-1.29.5-1.5A1.18,1.18,0,0,1,92.07,21.32Zm17.58,5.63c.14.23,1.11,1.76.31,1.18a25.1,25.1,0,0,1-1.86-2c-2.23-2.54-2.3-2.38-2.25-3,0-.82-.56-2.17.7-1.82C107.8,22.74,108.58,25.11,109.65,26.95ZM99.5,21.37a4,4,0,0,1,.8.09c1.47,2.77,5.05,5.2,5,5.19a5.37,5.37,0,0,1,0,1.42c-.08.37-5.69-3.91-6.32-6.48C99,21.43,99.25,21.37,99.5,21.37Zm-4,.05c1.32,2.43,4,8,10.43,10.18.46.1.95,1.41.6,1.78a18,18,0,0,1-12-11.92A1.05,1.05,0,0,1,95.5,21.42Zm-1.72.47c-.22,0,3,9.39,12.24,12.18.8.25,1.27.6,1.21,1.07s0,.67-.93.23a10.17,10.17,0,0,0-9.1-.41c-.47.24-.94.89-.57,1.3.21.21.74.05,1.42-.21,3.49-1.36,8.82-.56,9.77,1.58.67,1.52.78,2.64.42,2.83s-.75-.37-1.59-1.1c-2.65-2.34-5.83-3-8.35-.74-.54.49-1.09.4-1.28.6s0,.63.19,1.06a1,1,0,0,1,0,.94,3.94,3.94,0,0,0-.2,1.67c.06,1.2.85,2.23,3.12,3.81,1.77,1.23,3.15,1.92,1,.17-3.71-3-4.39-4.25-2-3.2s5.74,0,8.09-1.81c.8,0,1.28-.15,1.71.16,1.76,4.15,3.2,9.67,5.54,15C111.71,60.19,102,67.95,95,67.67c-6-.24-8.1-10.08-9.43-15.52a34.34,34.34,0,0,1-.89-7.89A.34.34,0,0,1,85,44.2a11.17,11.17,0,0,0,3.61.12c1.59-.37,1.91-.66,2-.42s-.55.9-1.71,1.7c-.5.35-2,1.06-1.82,1.16.35.24,2.13-.71,2.42-1,.46-.4.78-.42,1-.2s.31,0-.54,2.12c-.95,2.36-.86,2.57,1,4A8.66,8.66,0,0,1,92.32,53c.18.29.3.63.38.74.31.42.12-.26-.07-1.33a4.11,4.11,0,0,0-1.54-2c-1-.7-.85-1.39,0-3.79,2.46-7.07,1.83-10.22-.88-11.75-1.22-.69-4.64-.51-5.72.4-.53.45-.46-.43-.37-.49C90.6,30.3,92.13,26,93.78,21.89Zm12.55,3.46a75.53,75.53,0,0,1,5.52,6.11,24.69,24.69,0,0,1,1.76,2.91c.11.18.23.39.15.47s-.29-.12-.44-.23c-1.35-1-6.94-7.41-6.94-7.41C106.13,26.16,106,25.8,106.33,25.35Zm1.1,4.33s4.84,5.3,7.61,7.91a32.32,32.32,0,0,1,1.56,3.08c0,.12-.59-.33-.59-.33-3.06-2.83-5.89-6-8.83-9,0,0-.23-1.25-.24-1.76C107,29.31,107.31,29.59,107.43,29.68Zm10.49,13.59c.65,1.06,1.13,2,1.44,2.64.52,1,.34,1-.11.65-3.46-2.84-6.36-6.31-9.62-9.48-.42-.44-1.27-1.41-1.27-1.41s-1.06-2.29-.38-2.24c.54.21.89.79,1.23,1.17C110.93,36.44,114.19,39.6,117.93,43.28ZM87.74,35.7a4.41,4.41,0,0,1,3.54,1.21c.65.8.91,2.07.55,2.43s-1-.42-1-.42c-3.36-1.89-4.52-1-6.34-.43-.26.08-.54-.62-.2-1.32C84.93,36,86.63,35.73,87.74,35.7Zm21.15,1.79c3.6,3.62,7.25,7.64,11.14,10.75.54.47.92.77,1.17,1,.51,1,1.7,3.46,1.7,3.46-4.17-2.93-13.56-13-13.46-13S108.65,37.92,108.89,37.49Zm-7,.6a5.39,5.39,0,0,1,1.94.43c1.81.72,3,1.49,1.08,1.23a14.38,14.38,0,0,0-4.46-.22c-1.78.29-1.91.48-2.07.2C97.93,39,99.88,38.11,101.85,38.09ZM87,38.3a5.09,5.09,0,0,1,2.06.45c2.21,1,2.61,1.61.72,1.3a11.64,11.64,0,0,0-4.06.19,7.8,7.8,0,0,0-1,.38c-.45.15-.58-.2-.39-.77A2.6,2.6,0,0,1,87,38.3Zm16,2.84.46,0c-.57,3.25-3.8,2.93-4.67.14h.46C101,44,102.28,42.4,103.06,41.14Zm1.8.17c1.49,0,1.4.88-.16,1.49-1.19.46-1.33.38-.89-.52S104.19,41.31,104.86,41.31Zm-15.38.12a2.1,2.1,0,1,1-4.16.27l.39,0c1.33,2.51,2.87,1,3.35-.25Zm1.81.4c.46.31.17.75-.82,1.36s-1.13-.12-.39-1.06A1,1,0,0,1,91.29,41.82Zm7,0c.18-.06.6.73.24.92s-.53-.21-.56-.45A.44.44,0,0,1,98.33,41.82Zm12.16.18a103.45,103.45,0,0,0,13.42,12.53,24.84,24.84,0,0,1,1.37,2.8c-.19.24-.29.21-.85-.07a91.41,91.41,0,0,1-13.83-13.5C110.41,43.13,110,42.5,110.49,42Zm-25.84.3c.31,0,.74.68.5,1.09-.2.16-.5-.09-.64-.28a.78.78,0,0,1,0-.69A.21.21,0,0,1,84.65,42.3Zm27,4.15c0-.1,12.6,12.74,14.22,12.5.75.45,2.63,4.1,2.63,4.1s0,.33-.26.18c-2.13-1.06-11.06-8.49-15.62-14A22.33,22.33,0,0,1,111.62,46.45Zm-15,1.89c2.2,1.07,1.25,3.26-1.07,1.87C93.72,49.09,92.27,49,92.28,50a1.09,1.09,0,0,0,1,.93,17.5,17.5,0,0,1,2.61.59c1.39.3,2.42-.07,2.77-.92a2.22,2.22,0,0,0-1.74-2.92c-.92.08-.69.53-.3.71ZM114,51.85a89.31,89.31,0,0,0,15,12.78,23,23,0,0,1,1.32,2.71c0,.19-.23,0-.23,0-4.43-2.57-10.27-7.67-15.81-13.45a14.52,14.52,0,0,1-.7-2.12C113.8,51.72,113.93,51.8,114,51.85ZM99.44,54.4c-.2,0-.47.33-.8.51-.67.37-.89.47-2.54,0-.9-.27-1-.25-1.58.15a1,1,0,0,1-1.25.17c-.94-.42-1.38-.12-2.25.19s-1.12-.07-1.86-.24a16.35,16.35,0,0,0,0,3.13s.78-.46,1.2-.67c.72-.37.62-.31,1.68-.27a8.19,8.19,0,0,0,4.15-.23,3.26,3.26,0,0,1,3.22.44c.55.45,1.27.38.85-.45a5.18,5.18,0,0,1-.44-1.73c.06-.59-.07-1-.29-1Zm16.68,2.36c3,2.85,6.61,7.2,15.2,12.24.45.79,1.05,1.83,1.43,2.65,0,.23,0,.43-.24.35A71.94,71.94,0,0,1,116.9,59.7a19.26,19.26,0,0,1-1.32-3C115.66,56.4,116,56.68,116.12,56.76Zm-1.25,1.09L118.15,64l-11.06,0A42.78,42.78,0,0,0,114.87,57.85ZM96.54,58c-1.82.72-2.09.88-3.89.43-1-.26-.76.35-.22.61a4.82,4.82,0,0,0,4.06-.32C97,58.4,97.29,57.69,96.54,58ZM94.68,59.9c-1.9,0-3.7.69-3.83,1.47,0,.15.13.32.43.14,1.29-.78,4.49-1,6.91-.16.39.14.46-.1.05-.44A5.54,5.54,0,0,0,94.68,59.9Zm24.13,2.64a70.91,70.91,0,0,0,14.74,10.81,20.8,20.8,0,0,0,1.5,2.79C127.83,72.62,120,65.68,120,65.68a25.35,25.35,0,0,1-1.52-3.16C118.41,62.2,118.71,62.46,118.81,62.54Zm2.46,5.17a82.54,82.54,0,0,0,14.11,9.4c.3.29,1.06,2.09,1.31,2.29s-.3.19-.84-.08c-3.93-1.82-12.37-7.64-12.37-7.64C122.67,70.34,121.51,69,121.27,67.71ZM42.4,91.09A41.78,41.78,0,0,0,44,87.18a3.72,3.72,0,0,0,3.31-1.47c.91,0,1.6,0,2.84-.06,0-1.23,0-3,0-3,1.26-1.3,2.11-2.8.16-5.09,0,0-.08-1.07-.11-2.89a20.9,20.9,0,0,0-2.91-.05,3.15,3.15,0,0,0-5.38,0s-1.3.07-2.18.08c0,.49-.17,2.64-.17,2.64S35.8,80,39.73,83l-.05,2.57a15.75,15.75,0,0,1,2.22.19S40.4,89.29,39.41,91c-.34.09-.26-.11-.67-1.27a9,9,0,0,0-2.55-3.61c-1.28-1-3-1.3-4.25-2.16s-2-1.9-2.38-1.7a11.85,11.85,0,0,0,.19,4.35C30.37,89.1,34,90.72,37,91.93c.23.15.44.38.44.46,0,.42-.4.29-1.39.19a2.14,2.14,0,0,0-2.65,1.55,7.61,7.61,0,0,1-.83,1.23,4.76,4.76,0,0,0-.67.87c0,.15-.36.94-.67,1.59a3.46,3.46,0,0,0-.53,1.42,31.94,31.94,0,0,0,.17,5.79c.2,1.13,1.62,1.78,2.11,1.87.75.14.89.91.77,1.53-.58,3.08-2.35,5-2.91,4-.15-.27-.31-1.53-.35-1.51a4.07,4.07,0,0,0-.19,1.5,1,1,0,0,0,1.28.59c.86-.31,1.54-1.17,2.08-3.13.22-.8.43-1.25.8-1.3.68,0,1.75,1.46,1.75,1.46-3.55,3-10.36,8.35-10.36,8.35V21.16H81.81A48.86,48.86,0,0,1,78.44,42.3C75.17,49.69,70.1,55.19,66.22,62a36.5,36.5,0,0,0-4.59,25.31A58.13,58.13,0,0,1,49,99.54l-4.46-4.72s.67-.06,1.46-.09c3.63-.41,7.57-.93,9.09-4.73.22-.42.13-.61-.13-.67-2.85.4-5.32,0-6.93.11-3.95.28-5.62,1.65-5.62,1.65Zm.43,2.8s-4.57-2.18-4.91-2.24c-2-.36-6.79-2.87-7.6-4.58-.11-.22-.37-3.34-.46-4,0-.2.11-.2.31-.05.51.36,2.5,1.66,3.24,2,3,1.48,4.21,2.53,5,4.76a6.49,6.49,0,0,0,.49,1.26c.24.26.35.24.65,0A15.06,15.06,0,0,0,42,86.17c.08-.2.25-.41.15-.7-.24-.8-.82-1.84-.22-2.62-1.9.09-3.72-1.31-3.49-2.7.51-2.59,1.6-2.12,3.65-2.5-.24-6,5.34-4.53,5.33-.36,6.13.52,3.23,6.21-.33,5.34,1.41,3.23-2.83,4.45-3.43,3.9-.24,1-1.86,4.41-2.2,5.41,4.54-3.23,11.85-1.8,12.91-2C51.75,95.47,43.12,94.12,42.83,93.89Zm81.8-20.4c1.15.89,10.94,7,12.74,7.17,0,0,.86,1,1.58,1.86s.91,1,1,1.12-.25.16-.31.15c-4.4-1.92-8.88-3.94-12.68-7.13a4.58,4.58,0,0,1-.88-1C125.73,75.24,124.74,73.65,124.63,73.49Zm3.24,5c4.47,2.52,8.28,5,12.35,6.29a5.54,5.54,0,0,1,1.17.44c.29.2,1.53,1,1.83,1.15,1.86,1.09,2.05,1,1.59,1.23s-3.78-.75-6.54-1.78c-4.9-1.82-6.63-2.85-8.4-4.45C129.48,80.9,127.62,78.67,127.87,78.44ZM38.68,92.52a2.92,2.92,0,0,1,1.61.71,21.58,21.58,0,0,0,3,1.89l.46.19,4.4,5-11.33,9.25s-.92-.94-1.21-1.26-.2-.55.15-.89a1.5,1.5,0,0,0,.25-1.15,1.22,1.22,0,0,1,.48-1.31,1.29,1.29,0,0,0,.48-1,1.49,1.49,0,0,1,.62-.82,1.77,1.77,0,0,0,.77-2.12c-.11-.35-.17-.44.28-.75a2.1,2.1,0,0,0,1.07-1.84,1.39,1.39,0,0,0,0-.36c-.16-.84.58-.63,1.19.43a8.59,8.59,0,0,1,.59,2.59c.2,1.27.33,1.61.4,1.43.39-1-.07-4.86-1.23-5.38-1.7-.76-3.12-2.31-2.7-2.92.15-.21.17-.14,1.21.34a9.18,9.18,0,0,0,1.25.51c1.2,0,.47-.48.08-.53a5.3,5.3,0,0,1-2-1.22C38.15,92.78,38.3,92.53,38.68,92.52Zm-2.9.66c1.11,0,1.32.29,1.33,1.24,0,.56.22,1,1.1,2.12.36.46.6.81.58,1s-.15,0-1.37-.16c-.43-.05-.65-.06-.8.17-.42.63-1.31,0-1.86-.95C33.46,94.4,33.92,93.2,35.78,93.18ZM56.87,94.5l12,14.8-1.36,1.06L55.47,95.76Zm-2,.91,1.29,2.19s-3.73,3.2-4.71,4.1c-7.93,6.45-25.82,21.08-25.82,21.08l-.24-2.94Zm-21.74.4c.23,0,.5.3.88.89a12.83,12.83,0,0,0,1.79,2.22c1.47,1.36,1.61,1.23.42,1.36-.47.05-.63,0-.92.72-.87,1.09-3.46-2.83-2.85-4.33C32.69,96.09,32.89,95.8,33.12,95.81Zm4.2,2.12a1.56,1.56,0,0,1,.84.28c.64.26.68.42.58,1s-.54.74-1.42,0C36.65,98.57,36.77,98,37.32,97.93Zm19.22.36L58,100.12,25.89,126.2v-3C26.67,123.3,47.23,105.33,56.54,98.29Zm-24.91.3c.08,0,.22.28.58.82a9.23,9.23,0,0,0,2.15,2.39c.72.54.8.85.31.85a.94.94,0,0,0-.65.49c-.3.52-.33.4-.8.12a3.53,3.53,0,0,1-1.61-1.77,5.24,5.24,0,0,1-.07-2.67C31.57,98.67,31.6,98.59,31.64,98.59Zm5.07,2.08a1.07,1.07,0,0,1,.87,1.7c-.3.29-.57.44-1.17.08-.79-.47-.93-1.19-.29-1.59A1.2,1.2,0,0,1,36.71,100.67Zm-5.27,2.07c.17,0,.48.24,1,.78a6.24,6.24,0,0,0,1.37.92c.62.35.65.47.31.75-.14.12-.62.13-.75.5-.37,1.08-1.93-.17-2.08-1.72C31.22,103.18,31.22,102.75,31.44,102.74Zm3.92.13a1,1,0,0,1,.69,1.83c-.45.32-1.57-.25-1.68-.84C34.3,103.48,35,102.85,35.36,102.86Zm23.95.89a1.08,1.08,0,1,1-1.08,1.08A1.08,1.08,0,0,1,59.31,103.76Zm-3.21.45A1.08,1.08,0,1,1,55,105.28,1.08,1.08,0,0,1,56.1,104.2Zm-21.54,1.44h.21c1,0,1,1,.45,1.5a.75.75,0,0,1-1.12,0C33.28,106.53,33.58,105.7,34.56,105.65Zm23.93,1.58a1.08,1.08,0,1,1-1.08,1.08A1.08,1.08,0,0,1,58.49,107.22Zm94.43.06V110l-38,31.71L113.68,140Zm-96.61.23-2.81,6.33-.84-1.63h-2.1l.64-1.89L50,108.82Zm59.76,26.33,5-4c-2.15-10.9,6.44-15.23,14.59-12.07l5.07-4.34C131.31,105.46,109.18,110.86,116.07,133.85Zm-67.6-21.3a1.08,1.08,0,1,1-1.08,1.08A1.08,1.08,0,0,1,48.47,112.55Zm-3.26.26a1,1,0,0,1,1,1,1.06,1.06,0,1,1-1-1ZM62.57,115l-5,4c1.28,10.43-3.78,15.75-14.64,12.17l-5.26,4.19C51.92,145.15,70.51,132.51,62.57,115Zm-15.25.94A1.08,1.08,0,1,1,46.25,117,1.08,1.08,0,0,1,47.33,115.95Zm104.22.27a1.08,1.08,0,1,1-1.08,1.08A1.08,1.08,0,0,1,151.54,116.22Zm-106.44.26-3.17,6.29-.79-1.89-2.13,0,.69-2.2-1.33-1.13Zm102.19.66,1,1.66,2.08.05-.78,1.58,1.5,1.55-6.77,1.67ZM37.55,121.71a1.08,1.08,0,1,1-1.08,1.08A1.08,1.08,0,0,1,37.55,121.71Zm-3.09.12a1.08,1.08,0,1,1-1.08,1.08A1.08,1.08,0,0,1,34.45,121.83Zm107.6.64a1.08,1.08,0,1,1-1.08,1.08A1.08,1.08,0,0,1,142.05,122.47Zm11,.17V125l-30.82,25.73-1.3-1.67ZM36.61,125a1.08,1.08,0,1,1-1.08,1.08A1.08,1.08,0,0,1,36.61,125Zm107.65.26a1.08,1.08,0,1,1-1.08,1.08A1.08,1.08,0,0,1,144.25,125.24Zm-3,.19a1.08,1.08,0,1,1-1.08,1.08A1.08,1.08,0,0,1,141.21,125.43Zm12,.38-.09,3.05c-9.6,8.22-29.24,24.54-29.17,24.55l-1.48-2.06S144,132.74,153.23,125.81Zm-118.6-.45-3,6.71-1.28-1.81-1.87-.13.45-1.82-1.72-1.17ZM137.34,128l1.89-.36-.33,1.94,1.33,1.4-7,1.54,3.37-6.27Zm10.41,32.69c1.41,2.12,1.32,4.44.73,4.79-.62-.35-1.17-1-1.81-1.24-3.25-1.41-5.84-2.56-6.3-4.63C138.6,154.95,146.57,158.94,147.75,160.7Zm-17.06-12.42,10.92-8.93a11.1,11.1,0,0,1,2,1.26c.11.43-.19.57-.63,1a1.58,1.58,0,0,0-.34,1.08c0,.61.19.89-.06,1.16-.41,0-.74.52-.72,1s-.42.7-.68,1c-.45.45-.58.54-.87,2,0,.15,0,.54-.23.75-.63.06-1.09,1.61-1.38,1.71a1.83,1.83,0,0,1-1.37-1.43,7.19,7.19,0,0,1,0-2.28,6.65,6.65,0,0,0,.17-1.74c-.12-.45-.42-.17-.41.46a10.69,10.69,0,0,1-.26,1.75c-.16.73-.6,1.69-.41,2.27.3.85,1.39,1.22,1.88,1.67a7.18,7.18,0,0,1,1.72,2c1,1.9,1,2.22.78,3.65-.15.82-.95.68-1.43.35,0,0-3.07-2.24-4.41-3.36a15,15,0,0,1-4.3-5.33Zm4.14,6.13a35.19,35.19,0,0,1,4.22,2.7l-2.78,5.8a11.32,11.32,0,0,1,.71,3.16c3.51-.27,5.42,5.67-.06,5.13.62,3.67-5.27,6.55-5.11,0-6.14.48-4.08-6.51-.29-5.2-.11-3,1.85-3.34,3.24-4.07a12.51,12.51,0,0,0,1.83-4.21l-.28-.89h0c-1.16,2-6.12,2.63-11.57,1.55,1.47-3.51,6-3.41,10.08-3.93ZM124,158.83c-.19.7-.19.69.65.61.43,0,2.13,0,3.33,0,2.19.17,5.64.19,7.37-1.14.33-.32.52-.3.58-.12.15.86-1.53,3.67-1.53,3.67l-2.77,1.54s-1.14.05-2.54,0l0,2.51a3.26,3.26,0,0,0,0,5.61l-.1,2.73,2.68,0c1.78,1.71,3.23,1.7,4.86.09h3.09v-2.95a3.25,3.25,0,0,0,.18-5l0-3h-2.38s-.49-.38-.51-.69a40.47,40.47,0,0,1,2.07-4c.43-.62.32-.27,1,1.17,1,2.06,2,2.9,4.48,4.12a13.61,13.61,0,0,1,3.69,2.22c.52.5.82.34,1-.4a6.06,6.06,0,0,0-.6-4.79c-1.9-3.18-5.22-3.32-5.75-4.06-.07-.17.61-.38,1.33-.7a10.31,10.31,0,0,0,3.33-4,5.86,5.86,0,0,1,.47-2.17,4.55,4.55,0,0,0,.27-2.3,5.22,5.22,0,0,1,.09-2.34,5.14,5.14,0,0,0-.88-2.8c-.22-1-.17-.77.5-3.11.11-.38.86-3.64-.1-3.86,0,0,.1.13.13.18a5.56,5.56,0,0,1-.14,3c-.75,2.62-.77,2.92-1.46,2.7a16.49,16.49,0,0,1-1.4-1,12.74,12.74,0,0,1,.24-2.44c-.15.41-.25,1.48-.73,1.73-.26.06-.61-.17-1.28-.75-.25-.22-.8-.6-.8-.6s7.75-6.67,10.68-8.88v98.77l-55.67,0c-.7-6.12,1.13-14.21,4.17-22.32,1.88-5,4.57-8.73,7.61-13.21,5.82-8.55,10.23-17.24,8.53-28.25a17.49,17.49,0,0,1-.37-2.86,32,32,0,0,1,5.57-7.06c3-2.47,7.2-6.16,7.54-5.94a13.31,13.31,0,0,0,3.75,4.69c.28.3.28.57-.35.7-4.16,0-8.44.88-9.83,4.57ZM27.13,130.77a1.08,1.08,0,1,1-1.08,1.08A1.08,1.08,0,0,1,27.13,130.77Zm104.28.24a1.08,1.08,0,1,1-1.08,1.08A1.08,1.08,0,0,1,131.42,131Zm2.34,3a1.08,1.08,0,1,1-1.07,1.08A1.08,1.08,0,0,1,133.76,134Zm-3.48.46a1.08,1.08,0,1,1-1.08,1.08A1.08,1.08,0,0,1,130.28,134.43Zm-3.84,2.46,1.94-.1a15.08,15.08,0,0,0-.51,2.15l1.58,1.17-6.85,1.17,3-6.1Zm-4.67,17.78-11.54-15,1.39-1.13,11.63,14.79Zm-1.41-14.53a1.08,1.08,0,1,1-1.08,1.08A1.08,1.08,0,0,1,120.35,140.14Zm24.23,1.68c.94.73,0,1.75-.89,1.35a.76.76,0,0,1-.11-1.43A.9.9,0,0,1,144.59,141.81Zm1.25.7c1,0,2,2.3,1.83,3s-.55.81-1.9-.34-1.36-1.18-.82-1.8c.3-.35.44-.81.89-.83Zm-22.82.42a1.08,1.08,0,1,1-1.08,1.08A1.08,1.08,0,0,1,123,142.93Zm-3.33.42a1.08,1.08,0,1,1-1.08,1.08A1.08,1.08,0,0,1,119.68,143.34Zm23.62.77c1.06.16,1.34,1,.85,1.56-.66.81-2.15.07-1.8-.89a1,1,0,0,1,.95-.67Zm1.9,1.22c.42,0,1,.54,1.73,1.5s.83,1.42.61,2.08c-.32,1-.52,1.13-1.21.2a20.62,20.62,0,0,0-1.3-1.63c-.92-1-1.06-.72-.52-1.46C144.77,145.67,145,145.35,145.2,145.33Zm-2.5,1.13c1,.49,1,1.14.48,1.59a1.64,1.64,0,0,1-2.06-.73C140.79,146.36,141.81,145.87,142.7,146.46Zm1.62,1.42c.54,0,1,.52,1.64,1.59,1.12,1.82,1.18,2.43.23,3.63-.69.86-.76.91-1.43-.47a10.67,10.67,0,0,0-2.57-3.23c-.4-.33-.55-.79-.25-.82l.8,0a1.19,1.19,0,0,0,1-.37A.94.94,0,0,1,144.32,147.88Zm-3.87,1.42a2.15,2.15,0,0,1,1.63.81c.55.58.48,1.11-.59,1.21-.48.19-1.8-.68-1.81-1.26A.72.72,0,0,1,140.45,149.3Zm2.53,2.11h.08c.45,0,.68.46,1.19,1.48.78,1.57.55,2.42-.79,3.11-.91.47-1.61.61-1.73.07,0-.16,0-.61-.11-1a4.65,4.65,0,0,0-.75-2c-.82-1.24-1-1.69-.07-1.32a1.76,1.76,0,0,0,1.54-.12,1.59,1.59,0,0,1,.63-.21Zm-4.56,2.52c-.31,0-.51.19-.43.7.28.14.73,0,1.07.13s.74.91,1.23.79c.05-.63-1.18-1.6-1.87-1.62ZM45.33,164.86c-2.51-1.2-8.74-4-11.74-4-5.56-1.57-5.75-.86-7.7-1.36a20.54,20.54,0,0,1,19.85,5C46.91,165.65,46.27,165.31,45.33,164.86ZM51.9,189.3c5.91,10.29,11.41,21.89,20.65,39.08l-.89.28-35.23.06c1.74-19-8.47-37.07-9.17-36.37,8,.15,14.6-1.4,16-4.35l-1.14-.33c-4.64,4-11.61,4.21-16.25,3,.11-9.89-.31-20.34,0-30.23A14.06,14.06,0,0,1,38.8,166C43.91,172.81,47.38,181.42,51.9,189.3ZM35.74,161.89c1.41-.11,9.12,3.08,12.58,5.46a20,20,0,0,1,2.36,2.89c0,.46-.68-.11-4-2A77.69,77.69,0,0,0,39,164.57l-.35-.15a3.91,3.91,0,0,0-.51-.47c-.91-.7-2.67-2-2.38-2.06Zm3.75,3.61a57,57,0,0,1,13.79,7.71,11.12,11.12,0,0,1,1.82,3.09c-.55-1-10.26-6.87-13.67-8.2Zm2.72,3.73c.42-.25,11.72,6.44,13.37,8.17a11.79,11.79,0,0,1,2.51,3.94c0,.5-.54.07-1.55-.87A53.77,53.77,0,0,0,43.77,172Zm2.1,3.89c5.3,2.25,12,7.67,15.33,10.9a6.27,6.27,0,0,1,1.55,2.61c.07.35-.1.33-.17.51-4.36-5-13.94-10.75-15.21-11.2A20.3,20.3,0,0,1,44.31,173.11Zm17.61,15.65c.61.62,1.58,2.82,1.36,3.08s-.1.06-.35-.12A99.35,99.35,0,0,0,48.4,180.38c-.56-.28-2.44-3.26-2-3.32,3.12,1,12.06,8.19,15.57,11.71ZM49,181.64a2.87,2.87,0,0,1,.61.32c5.5,3,13.46,10.71,15,12.55a5.08,5.08,0,0,1,.85,2.25c-.07.5-.27.08-2.49-2.12a80,80,0,0,0-12-9.76c-.84-.58-.68-.65-1.28-1.71S48.77,181.63,49,181.64Zm35.15.12c3.93.11,5.46,3.1,7.88,8.59a45.56,45.56,0,0,1,2.89,14.33c0,.26-.47,0-.69,0a7.38,7.38,0,0,0-3.87-.16c-1.11.28-2.17.25-1-.5.37-.24,1.37-1.17,1.9-1.5,1.08-.67.42-.66-.65-.14-.81.4-1.35.91-1.68,1s-.08-.63.12-1.12c1.14-2.82,1.49-4.49-.21-5a4.19,4.19,0,0,1-1.37-.85c-.23-.23-.43-1.14-.51-1.18s-.13.83-.13,1A3.2,3.2,0,0,0,88.07,198c1.18.85,1.42,1.09.77,3.1-.9,2.82-1.09,3.52-1.26,4.17-.1.38-.28,1-.37,1.43a15.45,15.45,0,0,0-.25,4.33c.39,3,3.58,4.44,7.86,2.79.41-.16.57,0,.57,0-3.41,3.48-7.24,5.71-9.47,12.75-2.87-5.81-6.94-10.36-13.7-12.18l-.1-1.21c2.36,1.13,6.93,2.68,9.83.94,1.55-1.06,1.08-1.75-.8-1-2.24.87-6.3.77-8.32-.37a1.09,1.09,0,0,0-1,0c-.11-.68-1.08-3.26-.94-4.22-.08-.14.62-.14.75,0a8.9,8.9,0,0,0,6.36,2.81,5.43,5.43,0,0,0,4-1.89c.11-.09.63-.16.7-.24s0-.32,0-.39-.22-.38-.35-.7a1.26,1.26,0,0,1-.17-.79c0-.19.13-.28.22-.41a1.08,1.08,0,0,0,0-.73.45.45,0,0,1-.09-.66c.4-.45-3.44-4-4.19-4-.27,0-.11.51.44.87,2,1.3,3.37,3,3.05,3.22s-1.12-.2-2-.41a7,7,0,0,0-6.26,1c-.87.72-3.17.83-3.17.83,0-1.26-5.32-15.31-5.34-14.7,1.93-2.25,8-7.59,14-9.89a13,13,0,0,1,5.21-.75Zm-23,3.14,11,.17c-2.77,1.4-7.8,6.42-7.8,6.42C62.93,188.58,62.49,187.13,61.16,184.9Zm-9.52,1.46c.82,0,9.56,7.15,10.8,8.84.15.2,1,1.14,2,2.08,2.26,2.28,3.19,3.59,3.2,4.53,0,.44-.4.15-1-.51a64.61,64.61,0,0,0-13.07-11.66c-.63-.34-2.61-3-1.94-3.27Zm29.89,1.32c-.25,0-.21.23-.07.45,1.39,1.23,5,1.18,6.31.18s-.36-.43-.82-.22a5.58,5.58,0,0,1-3.79,0,13.7,13.7,0,0,0-1.62-.42Zm3.38,2c-1.28,0-2.62.4-2.32.87.11.17.46.5,1.3,0,1.21-.6,3.69.19,3.76.21.25.07-.83-.71-1.19-.87A4,4,0,0,0,84.91,189.68ZM54.06,191c4.7,2.88,10.42,8.66,13.85,12.78a4.19,4.19,0,0,1,1,2.1c0,.74-.15.33-3.27-2.84A90,90,0,0,0,57,195.28c-1.47-1.08-1.73-1.21-2.42-2.49S53.75,191,54.06,191Zm29.26,1a4.34,4.34,0,0,1-3.2-.06c-1-.36-.79-.05-.4,1.08a6.82,6.82,0,0,1,.29,1.35c0,.25,0,.27.73-.14s.77-.48,2.12-.16,1.4.2,2-.14.68-.47,1.07-.32a2.88,2.88,0,0,0,2.58-.08,1.09,1.09,0,0,1,1.33,0c.47.24.65.09.46-.38a6.65,6.65,0,0,1-.21-1.23c0-.48-.12-.91-.32-.81a4.59,4.59,0,0,1-2,.76c-1.29,0-2.43-.8-4.45.08Zm-57.43,1c11.71,14.64,9.84,35.75,9.45,35.58l-9.45,0Zm30.66,3a72.63,72.63,0,0,1,13.32,13c.53.69.1.9.36,1.73.1.31-.42-.15-1.91-1.75-1.85-2-4.89-5-6.9-6.74a24.5,24.5,0,0,1-3.3-3C57.76,198.59,56.26,196,56.54,195.92Zm26.31,1.35h-.15a1.82,1.82,0,0,0-1.08,3.27c.54.5,1.39.79,1.38.52a1.78,1.78,0,0,0-.46-.48c-1.19-.92-1.07-2.35.29-2.36.47,0,.5.16,1.58.94,1.27.92,2.78.92,2.76,0,0-.68-.27-1.37-1.4-1.26a3.16,3.16,0,0,1-1,0,3.66,3.66,0,0,1-.75-.35A2.88,2.88,0,0,0,82.86,197.27Zm-23.27,4.31c3.58,2.41,8.49,7.86,11,11.08a2,2,0,0,1,.38,2c-.06.09-.5-.19-.5-.19-2.91-3.43-6.2-6.56-9.43-9.73C61,204.78,59.12,201.68,59.58,201.58Zm34.68,5.22-.77.39c-1.17-1.76-2.24-1.79-3.14.27l-.58-.15c-.43-.47,1.54-5,4.49-.51Zm-.17-1.5c.32,0,.89.19,1,.52a.43.43,0,0,1-.46.63,4.18,4.18,0,0,1-.71-.85C93.78,205.39,93.84,205.28,94.09,205.29Zm-13.14,2.16-.87,0c-1.65-2.17-2.88-.71-3.62.19l-.93-.13C75.69,205.17,79.89,204.34,80.95,207.45Zm8.41-1.86a1.12,1.12,0,0,1,.38.07,3.23,3.23,0,0,0-.48,1.42c-.34.14-.81.43-1.17.06C87.43,206.54,88.45,205.57,89.36,205.59Zm-13.51.24c.41,0,.29,0,.11.2a4.14,4.14,0,0,0-.55,1c-.06.26-.1.35-.34.36a10.78,10.78,0,0,1-1.38-.14C73.34,206.93,74.8,205.87,75.85,205.84Zm5.23.3c.27,0,.21.36.12.51s-.24.27-.34,0a1.1,1.1,0,0,0-.18-.29c-.13-.17-.12-.18,0-.21Zm14.13,1.73c1,0,.33,1.69-1.07,2.11a5.25,5.25,0,0,1-5.13-.44c-1-.59-1.34-1.21-.44-1,3.38.94,4.2.76,6.24-.56A.65.65,0,0,1,95.22,207.87Zm-32.54-.37c3.37,2.86,5.9,6.11,8.59,9.1a2.31,2.31,0,0,1,.68,1.74c-.13.54-1.23-.75-1.23-.75s-6.57-7.06-6.57-7.06A20,20,0,0,1,62.68,207.5Zm10.06,1a9.05,9.05,0,0,1,1.45.31c3.24,1,4.22.95,6.08.09,1.19-.55,1.68-.47,1.17.35-.93,1.51-4.23,1.68-6.71.84A6.83,6.83,0,0,1,72.86,209C72.52,208.64,72.44,208.48,72.74,208.49Zm14.94,1a2.83,2.83,0,0,1,1,.46c2.71,1.54,4.72,1.26,6.39.22.3-.28.47-.14.51.13.14.94.18,1.62-.24,2.07A3.3,3.3,0,0,1,94,213c-2.63.89-5.82.25-6.44-1.72C87.38,210.23,87.25,209.52,87.68,209.49Zm-21.53,4.24h0c.19,0,.63.41,1.32,1.2,3.61,4.11,5.61,6.48,5.25,7.66,0,0-.06.26-.21.12a24.21,24.21,0,0,1-4.82-5.57C66.39,215,65.85,213.76,66.15,213.74Zm29.12,2.89c-3,2.34-6.74,7.91-7.08,10.65-.06.52,0,.92-.2,1.11s-.5.16-1,.07c-.28-.05-.22-.08-.28-.4-.26-1.25.94-4.41,3.42-8.14,1.3-2,4.26-4.59,5.08-4.61C95.79,215.54,95.25,216.66,95.26,216.63Zm-22.57-1.27a2.88,2.88,0,0,1,1,.31,18.86,18.86,0,0,1,5.53,3.06c3.3,2.7,7,9.12,5.89,9.72-.47.26-.81.1-1-.5a14.69,14.69,0,0,0-.79-1.77,19.93,19.93,0,0,0-9.14-8.87c-1.5-.73-1.65-.65-1.76-1.27C72.34,215.57,72.42,215.37,72.69,215.36Zm22.52,2.36c.27,0,.34.48.25,1.49-.08.82-.12.81-1,1.77a14.92,14.92,0,0,0-4,6.82.68.68,0,0,1-.21.43c-.38.32-.85.17-1.18.16s-.17-.64-.13-.93a20.9,20.9,0,0,1,4.9-8.54C94.54,218.15,95,217.74,95.22,217.72Zm-22,.07c1.45,0,6.6,3.83,8.68,7.21,1.36,2.21,1.73,3.12,1.42,3.44a1.71,1.71,0,0,1-1.28,0c-.35-.14-.48-.67-1.13-1.9a15.12,15.12,0,0,0-6.8-6.76,2.84,2.84,0,0,1-.92-.55C73,218.9,72.82,217.87,73.26,217.79Zm.78,2.87a11.94,11.94,0,0,1,2.73,1.66c1.84,1.36,4.64,5.5,4.06,6.09a1.42,1.42,0,0,1-1.16.07,21.85,21.85,0,0,0-5.57-6.17C73.8,221.78,73.06,220.52,74,220.66Zm-4.09.62c.08,0,.43.32,1.06,1,1.85,1.95,3,4.11,2.75,5.2-.23.92-.5.42-2.61-3.63C70.25,222.12,69.83,221.31,70,221.28Zm25.29.05a6.35,6.35,0,0,1-.17,2c-.08.4-.35.59-.6.91a11.72,11.72,0,0,0-1.7,3.24c-.3.89-.16,1.1-1.25,1-.51-.07-.38-.2-.19-.79.68-1.92,2.32-5,3.9-6.33Zm-21,2.11c0-.58,5,4.41,4.28,5-.64.11-1,.14-1.29-.09a18,18,0,0,0-2.88-3.44ZM95,225h0a9.5,9.5,0,0,1-.08,3.37,1.75,1.75,0,0,1-1.37,0,.44.44,0,0,1-.2-.57C93.55,227.22,94.61,225.1,95,225ZM76.34,228.4c-.16.24-1.12.29-1.48,0a4.6,4.6,0,0,1-.09-1.89C75.13,226.28,76.46,228.07,76.34,228.4Z"/><path id="path3389-2-3-5-0" d="M111.45,19.94l.62.82-3.62,0c.59.5,14,27.57,31.12,58.85,2.84,5.49,8.25,7.47,14.53,7.71l-16.64-26.9c1.77-1,5.29-3.56,7.42-3.08.13.66.76.4.77-.19l.77,0,.27.42h3.23l.26-.38,2.79.4c-7.45-9.22-11.38-23.42-10.1-37.29l-24.7.05-.33-.43Zm-3,.84s0,0,0,0Zm-28.4,18C77.25,47.93,70.3,55.42,66.18,63,61.76,71.19,60.72,78.36,62,86.19l.81.07a134.9,134.9,0,0,0,20.81-43.5c.09-.33-.06-.91,0-1.25a1,1,0,0,1,.09-1c.24-.25.15-1.24,0-2.86a66.59,66.59,0,0,1,0-13C84,21.33,84,20.8,84,20.8l-1.61,0A50.44,50.44,0,0,1,80.05,38.82Zm38.8-17.65,2.65.05c.41,8.13,7.23,9.19,8.29,9.07-1.74,5.5,1.14,11.54,8.09,12.4-1.59,5.1,1.23,11.82,6.78,11.64l.59.37a6.8,6.8,0,0,0-.41,2.27,18.25,18.25,0,0,0-2.71.43C134.95,46.53,118.85,21.17,118.85,21.17Zm23.56,0c-.8,9.09,1,21.57,5.26,28.94a3.83,3.83,0,0,1-.22.63c-.41.61-.61.08-.85-.41-.91-1.68-2.62-1.94-3.37-1-1.65,2.26.14,3.16,1.53,4.44-5.69-.35-7.59-6.64-6.27-9.75a4.13,4.13,0,0,0,.7,2.12c1.6,2.44,3.94.38,3.27-1.55a10.87,10.87,0,0,0-1.3-2.13,7.33,7.33,0,0,0,2-.55,1.59,1.59,0,0,0,.73-1.71,3.47,3.47,0,0,0-.48-1.5,2.3,2.3,0,0,0-1.77-.85c-1.17.08-1.32.89-2.09,1.45-.19-1.46-1.12-2.57-2.65-2.3a2,2,0,0,0-1.28,3c.36.79.86,1,1.37,1.72-8.18-.92-7.29-10.67-6.38-10.49,0,0,.25,0,.17.33-.47,2.38,2.48,3.81,3.78,2.08.83-1.41-.95-3.63-.95-3.63a8,8,0,0,0,1.71-.56c2.13-1.24-.14-4.79-2.13-3.92-.7.32-.87,1-1.55,1.31-.46-.51-.48-1.06-1.3-1.52-2.24-1.25-3.64,1.71-2.4,3,.51.53,1.41,1,1.23,1.08-7-.88-6.88-8.19-6.73-8.13Zm-59.76.06h1c-.28,4.33-.9,10.05-.5,14.28.47,4,.49,4.61.2,5s-.19.65-.11,1a1.86,1.86,0,0,1,0,1A88.46,88.46,0,0,1,79.95,53c-4.47,12.38-11.77,25.89-17.5,33,0,0-.26,0-.27,0a36,36,0,0,1,3.53-21.5c3.54-6.85,9.11-12.7,12.41-19.88a49.62,49.62,0,0,0,4.54-23.38Zm35.22,0,23.32,36.4-4.25,2.09L113.08,21.32Zm13.66,7.11a1.1,1.1,0,1,1-1.09,1.1A1.09,1.09,0,0,1,131.54,28.3Zm7.73,12.14a1.11,1.11,0,1,1-1.11,1.11A1.11,1.11,0,0,1,139.28,40.44ZM83.72,42.61c.4,1.59-7.4,25.39-18.48,40.54l4.84.1.15.54c6.78,10,2.54,18.94-2.93,23.07l1.9,2.54-1.71,1.39-1.71-2c-13.87,10.45-40.94,33.57-40.94,33.57L25,146l2.11-1.67C40.83,157.69,69.95,157,77.58,129.42l2,0C75,149.65,56.22,157.55,42,154.21L38.71,159l.89.48c-.16-.25-.31-.34-.07-.58l2.82-3.65c21.22,2.73,34-9.33,38.19-25.67l2.71,0a66.52,66.52,0,0,1-17.87,35.26c-6.59,0-18.19-.18-18.19-.18,4.22,4.11,12.28,16.64,12.61,17.91,0,0,8.29.26,17.19,0,3.26-1.47,7.62-2.06,9.66-1,3.58,1.81,6.95,8.53,8.46,19.32a45.87,45.87,0,0,0,.85,4.52c0,.1.26.17.3.16s-.22.49-.23.91a2.3,2.3,0,0,0,.2,1.27c.25.28.22.46.19.58a4.79,4.79,0,0,1-.51.53c-.07,6.28,0,12-.38,19.72h1.23c0-12.44,3.73-23.94,9.49-31.86,3.5-5.2,7.21-10.8,9.25-16.13A30.6,30.6,0,0,0,116.89,163l-.84,0c-5.07-3.49-7.13-10.93-.89-16.24l-2.21-2.89c-6.23,4.84-7.66,13.76-1.21,21.14h-2.53c-6.3-7.89-4.9-17,2.37-23.42L110,139.55l1.77-1.57,1.6,1.75L154,105.65l0-3.73-3.11,2.54c-18.23-16.92-45.26-5-49.22,15.33l-2.48,0c5.19-21.93,24.33-28.13,38.18-25.21l3.42-5.19a20.33,20.33,0,0,1-7.28-4.36,18.22,18.22,0,0,1-2.3-2.18c-6.56-7-11-16.62-11.22-16.64l-17.83,0C99.48,67.49,95,69,92.54,67c-5.28-4.28-7-12.91-7.78-18.47-.22-1.73-.41-4.74-.57-5.74a.41.41,0,0,0-.47-.16Zm63.22,9.6a1.09,1.09,0,1,1-1.08,1.09A1.08,1.08,0,0,1,146.94,52.21Zm2.32,1.28a13.27,13.27,0,0,1,2.1,3.57c-.41,0-.79.12-1.25-.24A5,5,0,0,0,148.84,54ZM146,55.09c.36.18.65,1.54.39,1.78-.43.09-.73.06-.88-.09A1.92,1.92,0,0,1,146,55.09ZM75.09,67l16.55,0c2.88,2.22,5.7,1.92,9.78.15h18.41l1,1.9H74.19C74.45,68.32,75.09,67,75.09,67Zm-1.37,3h47.64l1.2,1.95h-50Zm4.6,2.83h5.34l-2,3.38H76.17Zm11.87,0h5.1L93,76.13H88Zm16.5,0-2.15,3.37H99.35l2.23-3.34Zm6.4,0h5.11l-1.91,3.37H111Zm-68.63.52c-3.31,0-2.7,4.37-2.39,4.24C40,77,38.45,78,38.19,79.81a3.06,3.06,0,0,0,3.57,3.14,3.88,3.88,0,0,0,.33,2.7,11.69,11.69,0,0,1-1.23,3c-1.51,3.15-1.81,3.3-2.5,1.23-.73-2.23-1.87-3.36-4.82-4.8a18.21,18.21,0,0,1-2.48-1.49c-1.32-1-1.33-1-1.27,1,.08,2.63.88,3.79,3.67,5.34a20.4,20.4,0,0,0,4.47,1.83,14.39,14.39,0,0,1,3.38,1.52,8.34,8.34,0,0,0,3.13,1A16,16,0,0,0,52,92.78c1.21-.7,1.68-1.33,2.57-3.13a20.76,20.76,0,0,1-4.46-.21c-2.9-.17-4.35,0-6.55,1.15-1.84,1-1.94,1.13-1.18-.45a23.44,23.44,0,0,0,1-2.44c.32-.85.41-.92,1.21-1a3,3,0,0,0,2.94-3,4.89,4.89,0,0,0,0-1c1.2.18,3.66-.42,3.59-2.92-.07-2.25-1.67-2.77-3.63-2.92A3.15,3.15,0,0,0,44.45,73.28Zm0,.7c2.9,0,2.83,2.7,1.57,4.21l-1.54-1.28-1.25,1.15C41.92,77.2,41.92,74,44.49,74Zm79.42,0,1.43,2.12h-2.95Zm-54.19,3h5.46L73,80.14H67.83S69,78.17,69.72,77.05Zm17.23,0-2.07,3.21H80.1L82,77.12Zm6.4,0h4.94l-2,3.43H91.45Zm11.62,0h5l-2,3.43H103Zm11.33,0h5.15l-2.13,3.43h-5Zm-71.74.64L47,80.17l-2.39,2.41-2.47-2.37Zm6.23,2.42c-.43,2.89-3.21,2.73-4,1.32l1.13-1.29-1.38-1.36C47.89,76.6,51.12,77.93,50.79,80.11Zm-8.25-1.38-1.33,1.5,1.46,1.41c-.94,1.31-4.55,1.21-3.82-1.95A2,2,0,0,1,42.54,78.73Zm84.18-.37,1.52,2.1-2.85,0ZM67.45,80.93l61.12.2,1.64,2c-21.34.37-42.23-.34-64-.36ZM46,82.24c2.42,1.49.63,4.63-2,4.1-1.94-.85-2.33-2.87-.59-4l1.37,1.13Zm21,1.2H65.25l-1.62,1.91c6.14,6.5,5.91,12.13.19,17l2.3,2.59C72.54,99.47,74,90.81,66.92,83.44Zm6.31.25c3.44,5.4,6.42,15.63-3.84,25l-1.24-1.51C77.08,98.42,75,91.06,71,83.76Zm1,.13,13.88.05c-3,11.37-5.06,18.06-5.37,35.84l-4,0c.44-.41-2.08-10.74-5-14.32C79.82,94.94,76.51,89,74.18,83.82Zm-43.65,0a6,6,0,0,1,1.69.89c.86.52,2,1.18,2.49,1.46a6.46,6.46,0,0,1,3.4,3.63c.41,1.16.15,1.18-1,.09a33.42,33.42,0,0,0-4.1-3.1c-.81-.56-1.07-.47-.6.21A8.84,8.84,0,0,0,35,89c1.08.66,2.56,2,2.44,2.17s-.29.16-.81-.07l-1.72-.71c-3-1.23-4.31-2.74-4.5-5.26C30.31,84.24,30.26,83.84,30.53,83.84Zm63.33.05a3.71,3.71,0,0,1,.47.78c.12.5-.37,1-1.91,1.64-.53.24-1,.36-1,.67.07.73,1.45,1.83,1.28,2.82-.32.76-2.24,1.5-2.72,2.39,0,.61,1.25,1.55,1.07,2.38-.1.25-.5.5-1.09,1-1.22,1.06-1.29,1.22-.85,2.05,1,1.92,1.08,1.78-.34,3.14s-1.4,1.36-.72,2.55.7,1.23-.29,2.05-.93,1-.41,2,.62,1-.23,1.74-1.17,1-.48,2.07.77,1.09,0,2-.86.92-.44,1.53c.52.75.62,1,.07,1.79s-.59.83,0,1.67a2.54,2.54,0,0,1,.38,1.49H84.92a4.27,4.27,0,0,0-.21-1.36c-.49-.88-.47-1.16.1-1.94s.49-.87-.06-1.68-.48-.81.25-1.73.7-1.25.32-1.74c-.9-1.15-.9-1.64,0-2.4.69-.58.75-.84.16-1.83s-.66-1.06.41-2,1.08-1,.35-2.09-.67-1.16.47-2.22,1.17-1.08.41-2.44-.71-1.25.67-2.49,1.85-1.3.47-3c-.77-1.31-.22-1.44,1-2.09,2.2-1.35,1.2-1.27.27-3.27-.77-1.34-.33-1.35,1-2a11.5,11.5,0,0,0,1.09-.52c.9-.5.41-1,.41-1Zm2.88,0,6.63.08c-7.68,9.85-11.37,22.44-12.7,35.72l-2.5,0C88,109.32,91.26,96.36,96.74,83.92Zm34,.23c3.79,3.2,6.6,5,8.6,5.76,0,0-2.67,4.45-2.88,4.29A32.44,32.44,0,0,0,98.7,119.63l-2.42,0A53.45,53.45,0,0,1,102.84,99,57.06,57.06,0,0,1,114.91,84.1ZM104.32,84l3.26.06s.61.74.89,1c1.41,1.6,1.53,1.29-1.57,3-2,1.11-2.83,1.63-2.94,2.09s.86,1.4,1,2c0,.07-2.67,1.86-3.15,2.12-.67.33-.71.61,0,1.77.77,1.34.71,1.29-1,2.45s-1.93,1-1.25,2.15c1,1.57.51,1.92-1.75,3.14-.57.31-.58.62-.19,1.69.55,1.48.7,1.34-.47,2.14-1.37,1-1.62,1-1.31,1.56.88,1.69,1.24,2.1.05,2.65-.9.42-.92.66-.42,1.77s.63,1.08-.26,1.71-1.31.46-.51,1.41c.63.76.58,1.36.06,1.82-.45.19-.65,1-.52,1.06l-1.15,0a1.3,1.3,0,0,1,.32-2c.15-.28,0-.48-.39-1.13-.5-.91-.48-1,.24-1.54s.75-.4.26-1.58c-.56-1.37-.54-1.53.35-2.17s.88-.77.29-2-.62-1.27.92-2.3c1.09-.72,1.1-.68.53-2-.4-.93-.12-1.25,1.36-2.26.84-.58.91-.69.51-1.39-1.1-1.91-1.08-2,.8-3.19,1.54-1,1.53-1.09.94-2.43s-.7-1.34,1.42-2.61c1.74-1,1.84-1,1.12-2.25-.89-1.57-.84-1.31,2.65-3.32,1.26-.87,2.39-.57,1.14-2C105,84.75,104.32,84,104.32,84ZM42.7,86.58c.24,0,.43.29.42.84a6.81,6.81,0,0,1-.76,2.33c-.74,1.58-1.47,2.75-1.86,2.75-.91,0-.89-.2.32-2.57.55-1.09,1.12-2.33,1.21-2.57C42.23,86.83,42.49,86.58,42.7,86.58Zm11.22,3.57c0,3.34-10.42,5-11,3.34,1.82-1.43,7.2-.8,8.34-2.07-1.37-.08-3.23.15-4.51.17-1.59,0-4.16.71-4.19,1-.17-.88,2.73-2.53,5-2.63C49.77,89.85,52.1,90.1,53.92,90.15Zm.89,5.1s-20.35,16.9-30.41,25.08l.06,3.65L56.65,97.52Zm-.07.83L56,97.67,25.83,122.38l-.11-2.59Zm95.51,8.67-1.09,1.16c-29.51-22-56.69,11.43-41.7,35.37a6.09,6.09,0,0,1-1.18,1.07C89.58,114.57,121.54,82,150.25,104.75ZM134,99.93a9.64,9.64,0,0,1,6.06,2.74c1.52,1.83,1.08,2.65-.85.92-2.07-1.51-3.78-1.86-.91-.08a4.49,4.49,0,0,1,1.23,1.25c.11.31-.43,0-2.83-.9A8.05,8.05,0,0,1,133,101C132.64,100.23,133.13,99.92,134,99.93Zm-6.21.05a4.89,4.89,0,0,1,1.32.13,9,9,0,0,1,3.56,1.54c.54.42.37.72-.26.45a16.4,16.4,0,0,0-3.45-1c-.6.06,0,.46.86.67,1.91.48,2.85,1,1.49,1a35.31,35.31,0,0,1-4.66,0c-1.41-.17-3.53-1.46-3-1.93S126.23,100,127.8,100Zm-6.05,2c2.5,0,3.86,1,1.12,1.16-4.7.75-5.61,1.77-.39.55,1.21-.28,1.19.16.35.57-.69.33-1.54.5-2.25.85a10.15,10.15,0,0,1-5.38.22C113.5,104.66,118.82,101.93,121.75,102Zm20.14.43c1.26,0,4,1.87,5.16,3.6.79,1.13.39,1.94-.79,1-.24-.18-1.94-1.64-2-1.67s1.41,1.44,1.64,1.86.65,1.18-.2,1.2c-1.33-.16-4.44-3.66-4.46-5.38C141.2,102.58,141.46,102.39,141.89,102.4Zm-15.69,1c.53,0,.26.26-.74,1-1.8,1.28-.86,1,1.25-.07a8,8,0,0,1,1.69-.64c.27-.05.59-.12.72-.16.57-.17.13.53-.79,1.27a16.86,16.86,0,0,1-5.65,3.17c-1.93.48-2.34.54-1.62-.67,1.13-1.92,2.78-3.46,4.36-3.75A5.72,5.72,0,0,1,126.19,103.38Zm6.49,0a15.57,15.57,0,0,1,3.36.49c1.1.34.81.42-.51.56-2.48.27-1.45.56,1,.52,3.29,0-1.65,1.19-3.25,1.43a15.06,15.06,0,0,1-4.34-.5c-1-.2-.42-1,1.55-1.9A5,5,0,0,1,132.68,103.41Zm20.33.45.09,2.13-39.82,33.43-1.35-1.5Zm-13.55,1.83c1.59,0,3.88,1.08,3.64,1.75-.09.25-.27.24-1.48-.09-.8-.21-2.22-.44-2-.26a11.18,11.18,0,0,0,1.6.59c1.4.34,3.08,1.13,2.71,1.37-.65.4-1.25.09-2,0-1.93-.27-5.09-1.25-5.61-1.73S137.75,105.71,139.46,105.68Zm-18.57.13c.29,0,.39.28.12.65a12.81,12.81,0,0,0-1,1.68,10.21,10.21,0,0,1-3.45,3.68c-1.28.8-1.46.66-1.35-1a5.69,5.69,0,0,1,3.12-4.4c.8-.11,1.26-.33.42.69-1.5,1.8-.47,1.62.92-.43C120.14,106,120.6,105.79,120.89,105.81Zm-5.17.24c.86,0,1.15.3,0,.82a17.21,17.21,0,0,0-3.2,2.13c-.09.27.7-.16,2-.87,1.74-1,1.89-.93,1.05.16a12.15,12.15,0,0,1-5,3.35c-2.51.69-2.45.21-1-1.67,1.34-2,2.48-3,4.19-3.56A7,7,0,0,1,115.72,106.05Zm-42.65.31c9.13,15.8,4.06,31.85-6.53,40-11.07,8.56-28.29,8.05-38.45-2.22l1.41-1.34s16,16.39,36.2,1.85c10.24-7.38,14.47-24.81,6-37Zm-40.87,0-.07,0a20,20,0,0,0-1.7,5,1.26,1.26,0,0,0,.37,1.15c.24.23.62.08.74,0,.77-.35,1.2-.89,1.87-2.59a4.54,4.54,0,0,0,.42-2.43,1.63,1.63,0,0,0-.6-.73A2.81,2.81,0,0,0,32.19,106.4Zm.18.71a1.69,1.69,0,0,1,1.18,1c0,.74-.42,2-.73,1.79-.53-.66-1.13-.24-1.23-.48a5,5,0,0,1,.72-2.32Zm98.55.59A16.55,16.55,0,0,1,142,111.53L140.39,113a17.24,17.24,0,0,0-19.83-.16c-4.75,3.32-8.95,10.67-4.83,21l-1.49,1.35a18.66,18.66,0,0,1,6-24.54,20.09,20.09,0,0,1,10.26-3Zm-60,1.22c.12,0,.31.4.29.9s-.28,1.37-.68,1.54-.74-1.17-.74-1.17A5.22,5.22,0,0,1,70.92,108.91Zm72.65.47a2.63,2.63,0,0,1,.46,0c.45.06.46.46,0,.85s-.7.44-1.16.1-.44-.53-.08-.78A1.6,1.6,0,0,1,143.56,109.38Zm-77.93.09L67,111.14l-4.66,3.77-.56,0L26,144.64V142Zm74.61,4-4.86,4c-9.72-5.07-17.51,4-14.76,12.17l-4.21,3.67C108.88,112.63,130.88,105.54,140.24,113.49Zm-25.46-3.16h0a.22.22,0,0,1,.1.06,10.47,10.47,0,0,1-.42,3.42,1.53,1.53,0,0,0-.16.53,21.75,21.75,0,0,1-1.6,3.36,8.07,8.07,0,0,0-.63,1.37c-.56,2.72-1.78-1.65-1.35-4.19.2-1.19,1.89-3.66,2.38-3.48.25.09.23.28-.2,1.23-1.22,2.66-1.52,4-.24,1.46C114.16,111.13,114.55,110.37,114.78,110.33Zm-82.61.05a.44.44,0,0,1,.4.32,1.2,1.2,0,0,1,0,.74,1.39,1.39,0,0,1-1.29.9.58.58,0,0,1-.51-.47,1.14,1.14,0,0,1,.31-.9A1.63,1.63,0,0,1,32.16,110.38Zm37,.17c.58,0,1.18,1.58.8,2.29s-.37.47-.93-.65a12.88,12.88,0,0,1-.51-1.23l.47-.37.12,0Zm-1,.66a7.84,7.84,0,0,1,.75,2c.09.54.08.44-.51.21a2.72,2.72,0,0,1-.85-.82,5.66,5.66,0,0,0-.38-.58Zm3.64.24c.31,0,.64.3.94,1.06,1.13,2.85,1,6.06-.24,7.57-.21.25-.26.26-.52.11a2.9,2.9,0,0,1,0-1.87,5.94,5.94,0,0,0,.26-1.4c0-1.1-.27-1.23-.41-.22-.17,1.17-.35,2-.67,1.29a10.29,10.29,0,0,1-.36-1.1C70.2,114.41,70.94,111.48,71.86,111.44Zm-4.92.73s1.09,1.41,1.54,1.91c.16.27.15.34-.1.44-.43.17-1.87-.8-2.44-1.1-.31-.25-.17-.43-.17-.43A13.2,13.2,0,0,1,66.93,112.17Zm42.9.05c.58,0,.58.2,0,1.09-3.46,5-2.76,4.25-.56,1.52,1.22-1.52,1.44-1.66,1.57-1.32a18.25,18.25,0,0,1-2.11,4.28,8.93,8.93,0,0,1-2.39,1.82c-1.65.84-1.46.5-.85-1.57C106.23,114.83,108.18,112.24,109.84,112.22ZM64.9,114c9.48,23.68-16.49,34.07-28.2,23.12L38.07,136c16.3,11.1,32.39-6.68,25-20.6C63.09,115.39,63.76,114.83,64.9,114Zm2.2.58c1.56.16,3.87,3,4,4.63.25,1.13-.07,1.33-.63.53-.94-1.73-.82-.64,0,1.09.42.87.52,1.91.08,2-.6-.12-1.9-2.2-2.3-3.06a10,10,0,0,1-1.54-4.35C66.58,114.81,66.72,114.53,67.1,114.53Zm-4.72.78c7.22,13.91-8.32,30.62-24.12,19.82L43,131.35c8.25,4,17.45-1,14.82-12.38Zm72.07,2.59-13,10.9C118.74,119.76,128.59,114.6,134.45,117.9Zm-24.21,0c.43-.09.79,2.65.87,6.49s.17,4.13-1,2.75a11.21,11.21,0,0,1-1.35-1.61c-.77-1.47-.53-3-.31-5.15s.91-1.69.8.41c-.07,1.35-.06,3,.15,3s.1-.13.05-.31a33.77,33.77,0,0,1,.55-5.25C110.09,118,110.17,117.89,110.25,117.88Zm-35.92,1.65c.94.37,1.21,3.52.19,6.57a4.37,4.37,0,0,1-2.12,2.69c-.72.38-.88.26-.56-.4A10.87,10.87,0,0,0,73,124.83c.1-1.35-.61-.27-.55.31-.55,2.52-1.29,2.9-1.19.24a6.46,6.46,0,0,1,1.24-4.14C73,120.58,73.45,119.66,74.33,119.53Zm32.69.32c.39,0,.48.52.14,1.54a31.22,31.22,0,0,0-1,3c.06,0,.94-2.06,1.12-2.39.29-.55.4-.65.66-.63a9.94,9.94,0,0,1-.13,3.33c-.53,2.74-2.39,5.56-3.1,4.72-1.16-1.37-.62-6.92.92-8.6C106.24,120.16,106.72,119.84,107,119.85Zm-49.64.42c1.4,9.67-6.55,13.8-13.42,10.88C44.11,131.12,57.38,120.27,57.38,120.27Zm32.5.18,1.38,1.83,2.54.13-1.3,1.92,1.29,2.46-2.83.05-1.63,1.88L87.92,127l-2.48-.13,1.44-2.31-1.16-2.21,2.67-.13Zm-21.29.83a7.15,7.15,0,0,1,2,2.84c.47,1.85.3,5.34-.36,5.22-.72-2.52-.44-3.81-.7-3.53-.45.46.28,4.32,0,5.27-.11.24-.5,0-.93-.67-1.15-1.66-1-8.16-.12-9.12Zm84.73,3.92-31.31,26,1.81,2.33,29.56-24.51Zm-45.23.45c.14,0,.45.19,1,.84a16.37,16.37,0,0,1,2.51,4.77,16.54,16.54,0,0,0,.54,1.68c.22.53.24.68.11.84-.54.67-2.81-1-3.54-2.64-1-2.27-1.05-4.32,0-2.33.38.73.84,1.78.83,1.36a13.38,13.38,0,0,0-.8-2.32C108.53,127.42,107.74,125.72,108.09,125.65Zm44.89.63.07,2.16-29.16,24.49-1.14-1.4Zm-45.53,1.33c.14,0,.21.21.17.65-.13,1.42-.48,4.52-.41,4.8s.46-2.05.56-2.45c.5-2.05,1.26,2.86.8,5.06-.07.35-.22.9-.29,1.25a5,5,0,0,1-.42,1.08c-.83,1.3-2.77-3.89-2.44-6.54C105.62,129.81,107,127.56,107.45,127.61Zm-33.74,1.14c.38,0,.46.36.39,1.15-.22,2.71-2,5.55-4,6.31s-2.14.6-1-.8c.88-1.07,1.41-2.19,1.26-2.33s-.28.37-1,1.29c-.89,1.15-1,.18-.23-1.51a6.88,6.88,0,0,1,2.68-3.12A5.07,5.07,0,0,1,73.72,128.75Zm17.73.82a86.17,86.17,0,0,1-8.88,35.36H77.34c6.4-9.46,10.48-21.18,11.62-35.32Zm2.3,0a9.82,9.82,0,0,1,1.1,1.37c.35.61.45,1.14-.19,1.59-.74.63-1.05.4.16,2,.64.82.43,1-.36,1.65s-.86.75-.1,1.72,1,1.19-.1,2-1,.89-.22,2.06.89,1.07-.42,2.18c-1.12,1-1.15.69-.07,2.44.4.65.37.69-.36,1.34-1.8,1.59-1.7,1.5-1.45,1.91,2,2.83,1.08,2.75-.85,4.1-.39.33-.29.71.58,2.12.74,1.2.63,1.46-1.1,2.66s-1.86,1.41-1,2.68.91,1.16-.53,2.45c-.65.58-1.18,1.12-1.18,1.12H84.51s.67-.62,1.13-1c2.62-1.95,2.61-1.74,1.5-3.15-1-1.24-.88-1.32.11-2,.71-.51,1.67-1,2.39-1.56.39-.28.1-.51-.55-1.74s-.76-1.22.58-2.33,1.5-1.17.7-2.72-.82-1.41.2-2.25c1.51-1.23,1.58-1.17.79-2.6-.63-1.14-.64-1.11.43-2.18s.94-1,.3-2-.61-1.14.24-1.9.79-.77,0-1.82-.74-1,.17-1.76c.48-.42,1-.85.94-1a6,6,0,0,0-1-1.93c-.18-.27.18-.35.75-.94s.56-.45.12-1.26c-.24-.44-.69-1.17-.69-1.17Zm-8.55,0,.91,0a5,5,0,0,0,.37.42c.58.6.61.95,0,1.27s-.35.74.12,1.43.5.65-.22,1.37-1.12.77-.3,1.92c.46.53.41,1.08-.31,1.55-.55.36-1.47.67-.5,2.05.47,1,.51.92-.48,1.63-1.31.93-1.56.77-1,2.13.67,1.51.74,1.54-.64,2.55-1.6,1.18-1.65,1.27-1,2.69s.69,1.06-1,2.38c-1.24,1-1.52,1-1.15,1.82.69,1.5,1,1.9-1,2.93-2.31,1.19-2.43,1.28-1.32,3,.9,1.44.7,1.24-.79,2.1-2.16,1.25-3.11,1.79-3.18,2.17s1.68,1.74,1.68,1.74l-3,.08s-1.26-1-1.76-1.51c-1.36-1.33-1.37-.89,3.15-3.1,2.5-1.22,2.29-.94,1.88-1.65-1.2-2.1-1.25-2.31,1-3.46,2-1,1.63-1.06,1.15-2.56-.41-1.31-.35-1.19.68-2,2.5-1.86,2.43-1.67,2-2.58s-.68-1.32-.39-1.76c.9-1.3,2.82-1.57,2-3.12-.37-1-.5-1.22.61-2.08s1-.73.36-1.83-.66-1.17.47-2c.81-.74.8-.72.34-1.45-.63-1-.6-1,.3-1.82.73-.64.85-.67.39-1.38-.62-.94-.51-1.14.3-1.6.5-.28.5-.4.45-.87a5.2,5.2,0,0,0-.27-.62Zm11.29.05h4.19a34.68,34.68,0,0,0,5,13.47c-5.3,8.54-4.09,15.63-.86,21.9l-13.27,0A117.26,117.26,0,0,0,96.48,129.66Zm-28.75,0c.15,0,.26.24.52.68.84,1.44.25,3.47-1,5.61-.92,1.6-1.08.38-.67-1.92.26-1.45-.46.72-.81,2.47-.19.95-.64,1.71-1.13,1.67s-.32-1.41-.31-1.7c.1-2.1.88-3.58,2.39-5.66C67.32,130.06,67.55,129.71,67.73,129.7Zm42.76,4.1a1.63,1.63,0,0,1,.82.27l1.08.63c1.16.64,1.26.84.7,1.48-.68.8-1.12.49-2.3-.84C110,134.45,110,133.82,110.49,133.8Zm-.39,1.76a1.68,1.68,0,0,1,1,.64c.76.88.67,1.62-.17,1.41-.35-.51-.53-1.28-.86-1.85C110,135.62,110,135.55,110.1,135.55Zm37.42.11a2.92,2.92,0,0,0-2.22,2c-.72,3.05-.72,2.92-.07,3.36l.43.28c.38.3.89.76,1,.67.62,0,1.55-3.91,1.52-4.71s.07-1-.14-1.34A.5.5,0,0,0,147.52,135.66Zm-38,.07a.25.25,0,0,1,.19.08,5.84,5.84,0,0,1,.93,2,1.23,1.23,0,0,1-.12.49c-.42.81-1.07,0-1.14-1.37,0-.78,0-1.14.15-1.17Zm37.87.6h.09c.5,0,.42.54-.27,1.29-.36.39-1.11.58-1.36.34s.38-1.33,1.2-1.56A1.55,1.55,0,0,1,147.41,136.33Zm-84.14.43h.08a.91.91,0,0,1,.65.33,1.78,1.78,0,0,1,0,1.58c-.39,1.39-3,4.09-3.93,4.1-.56-.1,1.77-3.06,1.84-3.56-.17-.17-1.61,1.5-2.29,2.66a6.12,6.12,0,0,1-.84,1.29c-.49.06-1,.37-1,0,.08-1.48,3-4.71,4-5.61a2.52,2.52,0,0,1,1.55-.84Zm7,.14c2.23,0-2.16,4.88-5,5.59a5.91,5.91,0,0,1-2.63.09c-.12-.18,0-.33.38-.43a15.36,15.36,0,0,0,3.49-2.23c0-.27-1.2.18-2.23.85-.66.43-1,.34-.62-.18a7.87,7.87,0,0,1,6.61-3.69Zm38.63,0c.13,0,.25.26.33.83.41,1.05.42,1.34,0,1.65-.65.53-.82.38-.81-.84,0-1,.22-1.66.43-1.64ZM35.35,138.3s.81.31.48.7-1.24,0-1.24,0Zm112.11,0c.27,0,.27.23.13.85a6,6,0,0,1-1,2.52,3.63,3.63,0,0,1-1.12-.67c-.1-.11-.42-.35-.47-.5a1.59,1.59,0,0,1,.4-1.53,1.16,1.16,0,0,1,.63-.21,3.34,3.34,0,0,0,.85-.28A1.79,1.79,0,0,1,147.46,138.33ZM35.63,139.52a5.53,5.53,0,0,1,1.75.24A23,23,0,0,1,42.51,142c.68.65-1.09,1.34-3.21,1.36-1.12,0-1.34-.22-2.89-1.16-.2-.13-1.11-.73-.84-.95s1.16.09,2.24.64c.35.18,1.21.13,1.21,0a17.18,17.18,0,0,0-3.78-1.51c-1.06-.34-1-.68-.39-.83a5.91,5.91,0,0,1,.79-.05Zm-2.13.74s.45.4,1,.84a7.63,7.63,0,0,1,1.87,1.84c.74.9,1.9,3.15,1.77,3.55-.3.93-3.41-.7-6-3.26a18.19,18.19,0,0,1-1.31-1.45l1-.88s.85.72,1.84,1.59c1.85,1.64,1.83,1.07,0-.65l-1-.92C32.71,140.6,33,140.32,33.51,140.26Zm76,.08s1,1,1.36,1.51c-6.05,5.94-8.37,14.24-2.52,23.08h-2.8c-5.25-10.38-2.76-18.19,4-24.58Zm-51.2.24c.38,0,0,.43-.63,1.57-1.25,2.13-1.5,2.67-3.52,3.2a9.22,9.22,0,0,1-1.57.07c-.87.11-.48,0,.85-.87,1.85-1.2.28-.58-1.43.3-1,.51-2,.49-2.12.22s.4-.53.69-.79c2.6-2.34,3.4-2.24,5.83-3.08A12.39,12.39,0,0,1,58.3,140.58Zm-10.88,2.13A12.29,12.29,0,0,1,50,143c.52.12,1.36.22.65.87a8.8,8.8,0,0,1-4.59,1.87c-.23,0-3.54-.23-2.83-.94a8.06,8.06,0,0,1,1-.13c1.83-.35,1.34-.65-.92-.52-2.83.15-3-.14-.82-.73a18.71,18.71,0,0,1,4.52-.68Zm15.12.22c1.26,0,2.24.21,2.24.7,0,.78-2.38,2.5-3.94,2.83l-1.16.26a21,21,0,0,1-3.86-.09c-1.42-.52-.43-.72,2.17-1,1.13-.13,1.67-.43,1.67-.64a4.67,4.67,0,0,0-2.07,0c-1.38.18-1.11-.23.61-1.13A10.69,10.69,0,0,1,62.53,142.93ZM39.23,144a5.43,5.43,0,0,1,1.31.45c1.51.44,3.58.94,5,2.49,1.15,1.11,1.42,1.47,1.18,1.86s-3.85.11-5.34-.53a7.09,7.09,0,0,1-2.7-2.12c-1.3-1.91-.75-2.41.9-1.08,2,1.61,2.29,1.77,2.65,1.7.14,0-.21-.36-.88-.86-1.68-1.25-2.5-1.93-2.11-1.92Zm12.3,2a6.54,6.54,0,0,1,3.66.87c2,.72,1.54,1.36-2.07,2.26a6.63,6.63,0,0,1-4.94-.69c-2.9-1.79-2.71-2.15.53-1.35,1.07.26,2.13.31,2.19.11a9.14,9.14,0,0,0-2.29-.83c-1.13-.38-.16-.34,2.11-.37Zm83.58,7.75-.54.27a13.79,13.79,0,0,1-2.23.28,15.77,15.77,0,0,0-4.94,1,8.06,8.06,0,0,0-3.31,3.27c1.48-.1,9.88,1.42,12.2-1.61.49-.64-1.25,4.8-2.14,5-2.21-.27-3.14,3.22-2.92,3.07-2.23.87-4,1.38-3.39,4,.25,1.13,1.39,2.48,3.82,2.14-.66,4.51,4.83,5.67,5.44.24,0,0,1.07-.21,1.48-.25,2.5-.6,3.11-4.27-.56-5.44-1-.3-1.08-.5-1.08-.5a3.37,3.37,0,0,0-.45-2.67c.81-1.94,2.83-5.68,2.83-5.68Zm.39,1.12c.51.68-2.13,1.8-4.94,2a17.15,17.15,0,0,0-2.05.25c-.3.53,5.43.15,7.21-.86.61-.34.67,0,.4.49-2.07,2.68-7.08,2-11,1.55-.22-.23,0-.5.84-1.22a8.4,8.4,0,0,1,5.3-2C132,155.15,135.17,154.55,135.49,154.93Zm3.1,2.77a50,50,0,0,1-2.24,4.66c-.23.23-1.06.4-1-.49s1.79-4.89,2.27-5A.84.84,0,0,1,138.59,157.7Zm1.19.27c.55,4,3.6,5,6.52,6.26.77.35,1.42,1,2.19,1.39,1.44-2-.18-5.82-2.73-7.07-1.89-.89-3.61-1.59-4.68-1.51-.62,0-1.3.44-1.31.93Zm1.56-.24a11.65,11.65,0,0,1,2.5.55,6.49,6.49,0,0,1,4.87,5.11c0,.1.15,2-.29,2-.67-.19-1-.87-2.11-1.32a16,16,0,0,1-4.39-2.36,4.54,4.54,0,0,1-1.56-2.56c-.12-.82.16-.9.84-.24,1.53,1.22,3,1.64,4.55,2.82.42.33,1.93,1.17.9.12a19.07,19.07,0,0,0-3.84-2.47c-1.52-.73-2.34-1.62-1.47-1.63Zm-116.07,4,17.28,27.12c-4.25,2.25-6.35,3.24-13.41,2.68l0,.36-3-.18c5.18,8.12,11.58,18.72,9.76,37.2l21,0,.36.33c.31.21.77-.37.77-.37l9.49-.05.26.31,4.43,0S52,191.08,41.88,172.2c-4.18-7.57-8.53-10.94-16.61-10.45Zm108.95.9a2.17,2.17,0,0,1,2.27,2.28,4.75,4.75,0,0,1-.66,1.9l-1.54-1.48-1.47,1.48a2.55,2.55,0,0,1-.92-2.4,2.72,2.72,0,0,1,2.32-1.78Zm-17.87.54c1.46,5.72,3,13.61-9.64,31.84-7.5,10.78-10,21-10.25,33.37H95.7c.36-6.81.41-19.17.41-19.17l.71-.63a4.32,4.32,0,0,1-.46-1.14c-.24-1,0-.69.58-3.48,2.59-13.48,19.42-40.79,19.42-40.79Zm-67.71,2.62,64.26.29-.85,1.69-62.19-.45Zm85.66.49,2.39,2.33-2.33,2.63-2.46-2.58Zm-2,1-1.3,1.39,1.13,1.19c-1.16,2.45-4.25.54-4.15-1.29.12-2.14,2.62-3,4.32-1.29Zm4.12,2.76,1-1.32-1.17-1.29c1.92-1.9,3.73-.23,3.91,1.36S137.8,172.41,136.47,170.06Zm-76.11-1.62,5.26,0-2,3.68-5.34,0Zm11.73,0h4.83l-2,3.73H70Zm11.42,0h5.13l-2.08,3.73H81.28Zm11.48,0h5.25l-1.91,3.73H92.88Zm11.69,0h5.06l-2,3.73h-5.21Zm-55.87,0h3.4l-1.39,2.45Zm84.77,2.35a2.33,2.33,0,0,1-1.43,4.19,2.39,2.39,0,0,1-1.23-4.27l1.46,1.34Zm-71.51,2H69l-1.86,3.36H62.31Zm11,0h5.42l-1.91,3.36H73.41Zm11.61,0h5.4L90.3,176.2H84.85Zm11.57,0h5.35l-1.67,3.36H96.26ZM54.09,173H57.5L56,175.66Zm2.57,3.89,50.09.45-.85,1.63h-48Zm1.76,2.92,46.94.12-1.08,2.26-16.22-.07c-3.16-2.37-6.78-1.28-10.91.07,0,0-12.41.13-17.3,0Zm-15.61,9.56,24.76,39.23-5.47-.06L38.59,191.61Zm-5,2.56,23.37,36.67c-1.07,0-2.07,0-3.14,0a9.34,9.34,0,0,0-8.28-10.22c1.93-8-3.88-11.38-7.76-12,1.57-10.41-7-11.88-7.13-11.78a9.4,9.4,0,0,0-.23-2.18Zm-3.79.58c-.05.22.44,2.29-.48,1.91l-.07-1.91Zm-4.92.05c.33,1.38,1,1.65,2,2.58,0,0-1.23.21-1.51,0a12,12,0,0,1-1.57-2.6Zm3.66,2.33a1.08,1.08,0,1,1-1.07,1.08A1.08,1.08,0,0,1,32.8,194.87Zm2.12.83c3.07-.2,7.53,3.11,6.36,9.3a10.18,10.18,0,0,0-.95-2.06c-2.12-2.87-4.62,1.06-2.93,2.67.82.79,1.21,1.1,1.12,1.17A2.25,2.25,0,0,0,36,210c1.31,2.42,3.14,1.14,4.2-.3,0,0,.65,2.17,1.3,2.44a2.22,2.22,0,0,0,2.82-1.31c.69-1.79-1-2.25-1.36-3.24,3.56.12,8.09,5.33,6,9.86.27-1-.83-3.34-3-2.75-1.07.38-1.44,1.94-.58,3.55a5.55,5.55,0,0,0,.42.71,5.14,5.14,0,0,0-1.17.27c-2.78,1.72.8,6.4,2.87,3.47a6.56,6.56,0,0,1,.56-.75c.34.65.45,1.57,1.07,1.89,2.56,1.29,3.7-1.44,2.62-2.78l-1.29-1.62c-.11-.48,7.67,1.57,6.72,9.16l-20.62,0c1.91-11.67-2.72-25-5.08-29.09l1-1.36c.26.5.68,1.77,1.43,2,2.39.77,3.12-.91,2.8-2.63-.17-.92-1.45-1.66-1.86-1.79Zm5.46,11a1,1,0,1,1-1,1A1,1,0,0,1,40.38,206.68Zm7.74,12.16a1,1,0,1,1-1,1A1,1,0,0,1,48.12,218.84Z"/></g></g><path id="path147-0-8-1-3-6-7-5-8" d="M130.62,223.08c7.82-.17,11.33-9,5.54-15.81-.84-1-.93-1.57.61-.61,3.9,2.61,11.38.89,11.76-7.08.47-9.82-13.25-12.65-15.83-2.21-.14,1.1-1,1.08-.82-.49a32.51,32.51,0,0,1,3.38-12.08H126a32.51,32.51,0,0,1,3.38,12.08c.22,1.56-.68,1.59-.82.49-2.58-10.44-16.3-7.61-15.83,2.21.38,8,7.86,9.68,11.76,7.08,1.54-1,1.45-.39.61.61-5.79,6.84-2.29,15.64,5.54,15.81h0Z"/><path id="path147-0-8-1-0-3-83-6-6-4" d="M48.17,26.57c7.82.17,11.33,9,5.53,15.81-.84,1-.93,1.57.61.61,3.9-2.61,11.38-.89,11.76,7.08.47,9.82-13.25,12.65-15.83,2.21-.14-1.1-1-1.08-.82.49a32.5,32.5,0,0,0,3.38,12.08h-9.3A32.49,32.49,0,0,0,46.9,52.77c.22-1.56-.68-1.59-.82-.49-2.58,10.44-16.3,7.61-15.83-2.21.38-8,7.86-9.69,11.76-7.08,1.54,1,1.45.39.61-.61-5.79-6.84-2.29-15.64,5.53-15.81h0Z"/></g></g></g></svg>