<svg xmlns="http://www.w3.org/2000/svg" viewBox="0 0 178.79 249.65"><defs><style>.cls-1{fill:#fff;stroke:#000;stroke-width:1px;}.cls-2{fill:#e2cf00;}.cls-3{fill:#d40000;}.cls-4{fill:#131f67;}</style></defs><title>QD</title><g id="Layer_2" data-name="Layer 2"><g id="svg11376"><g id="QD"><rect id="rect7166-7" class="cls-1" x="0.5" y="0.5" width="177.79" height="248.65" rx="8.5" ry="8.5"/><path id="path6307-8" class="cls-2" d="M112.36,21.47s20.19,29.3,27,34.5c.5.24,8.95-1.38,8.95-1.38-4.33-10.4-7.11-21.16-4.3-33.22ZM123.58,67.8C109.66,71.74,95.76,75.45,80.67,69L64.19,85c-.14.41,19.91,9.1,20.25,8.09-9.83,26.55,5.49,31.37,15.25,2.16,12.77-1.68,28.09-3.42,40.75-12.24A60.21,60.21,0,0,1,123.58,67.8ZM39.85,72.53c-5.28-3.25-9.4,3.44-5.54,6.78-.45,2-.61,4.86,1.27,6.13,1.73,1.1,5,0,5.42,0,0,0,.08,3.51-.18,3.5-.5,0-2.39-1.63-3.55-2-3.93-1.18-9.46-1.77-9.37-1.56s-1,1.15,3.41,3.92c1.63,1,6.78-.13,10.88,1.17,2.5.79,4.74,2.05,6.1,1.4,3.58-1,5-5.67,4.73-5.64-.12-.14-10.82,2.76-9.81,3.27l0-4.07c4.22.47,8-2.6,3.88-7.87,3.09-3.08-1.23-10.43-7.21-5ZM57.43,91.16c-10.38,10.5-31.59,30.21-31.59,30.21l.23,14.71,20.73,18.62c1.64-19.76,12.83-38.2,23.48-47.43C71.25,104.45,59.69,92.14,57.43,91.16Zm73.94,3.63c-1.56,12.15-3,28.72-23.52,47.14,3.56,6.08,8.09,12.27,14.61,15.23.46,1,18.84-19.09,30.15-28.61l-.06-12.9ZM38.82,97.4c0,.26-.8,3.46-1,3.37,0,.17,2.1-.78,2.34-1.65s.69-1.81.72-2C40.41,93.88,39.51,96.21,38.82,97.4Zm-7.69,8.5a17.57,17.57,0,0,0-1.19,7.29c3.68,1.85,4.68-5.84,3.69-6.57A9.61,9.61,0,0,0,31.13,105.89Zm113.55,35.23c-.34,1.53-.27,2,.41,2.29,1.19.52,1.72-.11,2.68-2.6.57-1.49,1.08-3.72.62-4.61-2.26-1.58-3.45,3.77-3.71,4.93ZM80.37,154c-15.09,2.4-30.19,3.88-42.17,13.26,1.35-.16,15.87,13.53,16.63,15.46,22.2-10.88,43.76-2.66,43.76-2.66l16.24-15.71c.63-.3-17.67-7.86-21.11-9.14,12.46-33.66-7.27-28.6-13.34-1.21Zm59.4-3.84a12.17,12.17,0,0,0-2.25,2.56l.78,1.26,2-2.2Zm-14.22,14.16c2.09-.95,9.52-4.56,9.83-3.72l-.16,3.62c-1.14-.37-8.47.84-4.23,8.44-2.67,6,3.28,9.15,7.45,5.16,8.74,3,7.57-5.76,5.76-7.18,1.42-2.21-.37-6.93-1.25-6.95,0,0,7.62,1.73,6.88.36a6.54,6.54,0,0,0-2.46-2.83c-2-1.31-5.38-.83-8.16-1.42-3-.62-4.88-1.69-7.37-1.84-3.76.34-7.28,3.66-6.29,6.37Zm-85,28.48-10.5,2.82a77.32,77.32,0,0,1,4.57,15,72.83,72.83,0,0,1,.29,18l30.48.16Z"/><path id="path6309-7" class="cls-3" d="M68,228.67c-13.38-19.16-25.77-37.39-42.22-57.48,0,0,0-7.76.07-15.46l50.55,72.75Zm27.08-30.94A79.68,79.68,0,0,0,92.83,186l9.23-8.73C101.06,185.05,99.53,191,95.06,197.73Zm44.11-27.53c2.06,2.75-1.42,4.28-2.74,3.06A2.06,2.06,0,1,1,139.17,170.2ZM47.66,152.85c-1.53,1,2.75-24,14.51-36.93C69.32,136.48,56.7,148,47.66,152.85Zm58-.09-7.81-2.12,3.68-11s7.54,1.72,6.92,4A83.44,83.44,0,0,1,105.67,152.76Zm-36.15-4.21a67.3,67.3,0,0,0,5.2-11.27l7.82-.16L78.6,148Zm47.07-15.38c-6-12.08,1.08-31.2,14.23-36.46A58.21,58.21,0,0,1,116.58,133.16ZM76,129.73A62.54,62.54,0,0,0,75.14,117a152.23,152.23,0,0,0,27.49,3.68l1,11.57A126.06,126.06,0,0,0,76,129.73Zm20-17.62a59,59,0,0,1,3.58-10.48l9.53-.45c0-.19-4.06,6.36-5,11.09-1.52-.16-8.08-.16-8.08-.16Zm-18.06-2.86c-2.78-1-6.58-1.26-8.06-3.42l2.89-9.2,8.56,2.64Zm24-87.76,6.71-.06S140.86,62.84,153,79c-.4,1.64.13,15.54.13,15.54C136,70.32,101.9,21.49,101.9,21.49ZM40.06,79.28a1.51,1.51,0,1,1,2.26-1.93C43.36,78.88,41,80.31,40.06,79.28Zm36.19-6.79c.1-9.6,6.88-21,6.81-20.7-.08,0,1,9.38,2.27,12.34C85,64.65,76.56,73.09,76.24,72.49Z"/><path id="path6311-0" class="cls-4" d="M24.38,19.9V229.75h130V19.9Zm119.09,1.59c-1.06,11.62-1.24,20.61,4.76,32.66C147.15,55.29,139,55.62,136.4,57c0,.33.66.89.66.89,2.69-1.25,13.2-2.4,13.2-2.4-4.4-7.7-8-22.6-5.3-34h7.89V77.57s.09,10.66.32,16.74c-4-5.24-9.24-12.41-12.74-17.84-4.24-6-9-13-13.82-19.61-1.43-2.08-3.47-4.77-5.13-7.2C118.88,45.91,116.72,43,114,39c-2.89-4.18-5.67-8-9.1-12.82-2.91-4.13-3.05-4.66-3.05-4.66Zm-49.81,0c4.92,8.58,13.72,11.58,15.93,12.16l1.29,1.89A28,28,0,0,1,92.34,22.68a3,3,0,0,1-.18-1.18Zm-4.87,0a23.37,23.37,0,0,1-5.07,7.16l.06-2.08a18.92,18.92,0,0,0,3.61-5.07Zm2.38,0a3.31,3.31,0,0,1-.12,1.1c-1,3.38-7.51,9.79-7.32,8.83l-.07-1.65c0,.07,4.86-4.77,6.14-8.28Zm-4.7,0c-.5.94-2.38,3.89-2.55,3.1l.17-3.1Zm14.78,0c.82,1.18,1.56,2.15,2.41,3.36a.93.93,0,0,1,.21.61c-.13.34-.52.09-1.59-.87a26.19,26.19,0,0,1-3-3.1Zm-6.54,0H96.3a23.11,23.11,0,0,0,11.24,9.14c.54.6,1.13,1.71,1.36,2C103.39,31.09,97.21,26.32,94.71,21.49Zm3.86,0c1.75,2.54,4.5,4.39,6,5.61.83.65,1.93,2,1.83,2.26-3.44-1.09-7.47-5-9.32-7.86Zm-6.75,1.64,1,1.53a32.49,32.49,0,0,1-9.11,10l0-2c4.4-3.18,6.3-6.38,8.17-9.55Zm1.55,2.22a29.39,29.39,0,0,0,18.28,11.26A11.33,11.33,0,0,1,113,38.19c1,1.37,1,1.43,1.15,3.68a45.86,45.86,0,0,0,2.75,13.22c-.16.87-.32,1.32-2,3.54-6.84,9.28-21.42,18-28.6,6.07-2.39-3.84-2.63-11.19-2.78-15.78,0,0,0-.32.06-.41.17-.83.41-.7,1.71-.34,1.31.57,2.68.11,4.07-.27,1.58-.64,1.71-.15.19,1.28a9.42,9.42,0,0,0-1.11,1.21,8.78,8.78,0,0,0,1.35-.7c1.22-.93,1.51-.58,1.06.45-1.92,4.35-2.26,4.53.44,5.74a4.87,4.87,0,0,1,1.26.81c1.84,1.74,1.18.8.67,0-.79-1.25-.08-1.91,1.26-1.14a4.28,4.28,0,0,0,2.71.74c1.24-.41,1.62-1.77,1.25-3.27-.29-.83-2-2.3-1.6-.76a1.44,1.44,0,0,1,1,2.39c-.67.91-1.86.42-3.69-.8-1-.76-2.24-.37-2.19.57,0,.63-.86.49-1.43-.32-.32-.45-.1-1.73.5-2.94,3.79-7.65.6-15.07-6-13-.72.23-1.37.42-1.37.42l0-2.93a34.85,34.85,0,0,0,9.67-10.31ZM97.2,39.09c-1,1.2-.64,2.27,1.54,1.19a6.92,6.92,0,0,1,3.94-1c2.74-.1,5.2.77,8.24,2.65,2,1.24,2.31,1.33,1.76.56C111.05,39.31,101.43,34.56,97.2,39.09Zm-9.3.36c1.9.48,3.72,1.74,3.41,2.26-.12.19-.22.22-.47.1A7.32,7.32,0,0,0,84,41.37c-.35.15-.55-.08-.55-.51,0-.83,1.39-1.49,2.87-1.55A6.86,6.86,0,0,1,87.91,39.45Zm11,2.43c-1.13.59-1.52.91-2,.64-1.15-.63-.91-.14-.19,1.13.5.9.5,1.08.42,1.63s-.07.62.51,1.26a15.73,15.73,0,0,0,3.78,3.88,10.18,10.18,0,0,0,1.23.72c.16,0,.1-.12-.19-.41-2.07-2-3.71-3.79-1.6-3,2.46.8,4.8-.2,6.71-.85a11.21,11.21,0,0,1,1.81-.45c1.77,0,2.19-.74,1.06-1.87C106.65,40.23,103.47,39.22,98.95,41.88Zm9.09.81c.79.73,1.21,1.13,1.13,1.32s-.69-.14-1.71-.69a9.25,9.25,0,0,0-7.3-.51c-2.26.65-1.59-.38.93-1.36a6.52,6.52,0,0,1,7,1.24ZM86.93,41.2a7.24,7.24,0,0,1,4.73,1.58c.84.73.23.89-1.14.33a6.43,6.43,0,0,0-5.49-.2,5.81,5.81,0,0,1-1.31.53.91.91,0,0,1-.16-1.15A5.22,5.22,0,0,1,86.93,41.2Zm28.45.59c.13,0,.32.21.6.61.52.73.54,1.09.11,2.36-.52,1.56-.73,1.3-.86-.87C115.14,42.49,115.14,41.78,115.38,41.79Zm1.71,2.35c.2,0,.43.32.79,1,.26.5.2.65-.61,3-.34,1-.65,1.77-.66,1.78-.25.2-.21.18-.32,0-.57-.73-.53-2.16,0-3.87.37-1.3.58-2,.83-2Zm-15.55.18a4.34,4.34,0,0,1,.44.08c0,3.49,2.65,2.79,3,.31,0,0,.66-.07.76.1.32.52-.42,2-1.53,2.5a2.45,2.45,0,0,1-2.56-.33,5.23,5.23,0,0,1-.63-2.17c.13-.31.32-.46.51-.48Zm-1.6.41H100a.53.53,0,0,1,.56.41l.58,1.77c-.42.51-2-.52-2-1.29a.86.86,0,0,1,.81-.88ZM89,44.72c.41,0,.55,0,.6.39a2.5,2.5,0,0,1-2.5,2.47,1.9,1.9,0,0,1-2.17-2.05c0-.83.72-.93.79-.28.23,1.9,1.84,2,2.58,1C88.6,45.79,88.53,44.78,89,44.72Zm17.67.39a1.5,1.5,0,0,1,.49.12c1.48.48,1.52.7.25,1.16-1.51.55-1.61.62-1.26-.44C106.38,45.35,106.44,45.12,106.69,45.11ZM91,45.27c1.1.07,1.19,1,.23,1.32-1.44.64-1.93.6-1.37-.35C90.11,45.58,90.38,45.29,91,45.27Zm-6.88.34a.74.74,0,0,1,.44.17c.17.5.45.89.67,1.41a.92.92,0,0,1-1.11-.05c-.69-.55-.57-1.52,0-1.52Zm34.6,1.08c.43,0,.86.68,1,1.19-1.49,1.92-1.26,5.52-1.61,6.61-.3.88-.4.12-1.23-2.17-.34-.92,1.35-5.51,1.75-5.62Zm1.53,2a1.77,1.77,0,0,1,.86,1.32,5,5,0,0,1-.28,1.46,38.91,38.91,0,0,0-.86,5.79c-.06.93-.06,1.76-.1,1.84-.45.88-1.4-1.49-1.32-3.39.29-1.51.46-6.8,1.69-7Zm2.11,2.72a2.33,2.33,0,0,1,.41.77,4.81,4.81,0,0,1-.24,2.09,26.54,26.54,0,0,0-.14,9.48c.09.69-.39.35-1.11-.85a6.62,6.62,0,0,1-.78-2.64,33.2,33.2,0,0,1,.65-8c.18-1.11.31-2.08,1.21-.84Zm1.14,1.81,1.2,1.45a46,46,0,0,0-.51,5.12,78,78,0,0,0,.82,8.5c-.74-.83-1.08-1.32-1.89-2.36-.09,0-.79-7.14-.31-9.88a21.48,21.48,0,0,1,.69-2.83Zm1.88,2.88c.2,0,.46.22.78.67a2.08,2.08,0,0,1,.45,1.25c0,.37-.17.66-.18,1.32a58.18,58.18,0,0,0,1.17,11.25c.24,1.28-.22.76-1-.05a4.32,4.32,0,0,1-1.08-2.08c-.07-.21-.81-7.48-.81-8a13.22,13.22,0,0,1,.35-4.06C125.11,56.17,125.2,56.08,125.33,56.07ZM121,64s-1.4.72-1.76.47c-.59-1.61-2.72-5.93-2.75-6.7a8.64,8.64,0,0,1,.87-1.39C118.5,58.94,119.56,61.56,121,64ZM94.69,58.81c-.42.5-.92.29-1.94-.16-.52-.16-.44.05-1.3.5a2.28,2.28,0,0,1-1.34.35c-.58,0-.79-.21-.79.2a9.82,9.82,0,0,1-.17,1.79c-.19.72-.35,1-.25,1.17.3.27.55.11,1.17-.5,1-1,1.74-.72,2.89-.34,1.31.42,1.58.58,2.79.16,1.7-.6,2.73-.6,3.4-.16,1.17.75,1.52.7,1-1.34-.16-.66-.17-1.68-.26-1.85s-.41.37-.72.58c-.59.4-.9.39-2.24,0C96.18,58.9,95.29,58,94.69,58.81Zm21.54.27c.52,1.23,2.58,5.32,2.52,5.78-.4.36-.94.63-1.26.3a37.22,37.22,0,0,1-2.18-5c-.25-.51.5-1.8.92-1.05Zm11.08-.15c.15,0,.45.28.68.59a2.59,2.59,0,0,1,.77,2.08A44.49,44.49,0,0,0,130.33,73c.2.66.59,1.46.55,1.57-.35.51-2-.85-2.44-2.92a57.67,57.67,0,0,1-1.27-7.14c-.27-3.14-.27-5.38.14-5.54Zm-12.37,2c.59,1.15,1.34,3.13,1.85,4.33.23.52-.95.92-1.21.75-.47-.35-.69-1.34-1-1.94-1-2.15-1.16-2.2-.61-2.87C114.29,60.76,114.69,60.19,114.93,61Zm14.7,1.32c.09,0,.2.09.34.27a5.74,5.74,0,0,1,1.2,1.84,7.19,7.19,0,0,1,.06,1.41c.11,1.88.6,4.44,2,9.68a7.25,7.25,0,0,1,.3,1.28c-.13,1-1.54-.6-2-2.21a48.4,48.4,0,0,1-1.6-6.33c-.53-3.43-.82-5.95-.35-5.95Zm-15.94,1.39c1.17,2.74,1.26,2.74.53,3s-.83.15-1.74-1.71c-.67-1.36-.8-1.53-.24-2C113.1,61.87,113.32,62.84,113.69,63.67ZM97.4,63c-.13,0-.53.3-.92.46a6.74,6.74,0,0,1-3.73.09c-1.85-.75-1.33.22.31.81,1.27.43,3.79.1,4.18-.7C97.49,63.42,97.57,63,97.4,63Zm14.09,1.44c1,1.62,1.36,2.27,1.18,2.39a1.78,1.78,0,0,1-1.33.31c-.43-.21-.8-1.21-1-2C110.49,64.78,111.18,64.09,111.5,64.45Zm-26.16.68c.47,0,1.68,1.64,1.43,1.94-.07.15-.52,0-1.59-.29-.36-.13-1.16-.24-.9-.75A3,3,0,0,1,85.34,65.14Zm25,2.25c-.1.28-.89.35-1.23.33a4.68,4.68,0,0,1-.44-1.29c.11-.24.65-.86.91-.74A8.54,8.54,0,0,1,110.38,67.38ZM132.1,65.8c.17,0,.45.3.88.91.81,1.16.7,1.08,1.28,3.85.66,3.15,1.45,5.39,2.24,8.6,0,.53-.2.39-.8,0-1-.59-1.28-1.24-1.58-2.95-.52-2.82-1.61-5.42-2-8.75-.22-1.1-.24-1.7,0-1.7Zm-24.29,1.12c.57,0,.49.86.33,1-.42.36-1.56.25-1.76.28C105.95,67.51,107.44,66.95,107.82,66.93Zm27.18,3c.17,0,.62.66,1.46,1.85s.63,1,1.11,2.83c.68,2.59,1.82,4.46,2.48,6.85,0,.27-.33.24-.64.11a7.07,7.07,0,0,1-1.68-1.12c-.36-.38-.35-.87-1.4-4.49-.38-1.3-.48-1.64-.95-3.63-.39-1.66-.57-2.42-.38-2.4ZM47.41,77.66c2.75,5.07,1.73,7.32-4.18,8-.43-.06,0,2.6,0,3.79,3-1.7,6.54-2.1,9.84-3.16-.9,2.89-2.48,6.16-7.25,5.66-5-3.87-10.87-1.55-14.85-3.12a5.27,5.27,0,0,1-3-3.64c2.6.26,5.54.82,8.06.64-2.75-2.13-1.95-5.07-1.56-6.42-3.22-4.08-.53-8.66,4.15-7.6a9.55,9.55,0,0,1,1.44.58c4.51-4.05,9.74-.25,7.42,5.25Zm91.29-2.47c.19,0,.6.47,1.43,1.63a74,74,0,0,1,4.55,6.83c-.11.59-2.66-.45-3.31-1.3a29,29,0,0,1-2.8-6.75C138.57,75.35,138.6,75.2,138.7,75.19ZM38.77,90c1.28.19,1.63.3,1.62.8s-3.1.48-3.53.17.1-.8.44-.94a3.31,3.31,0,0,1,1.47,0Zm88.39.46c-17.91,8.49-25.24,31.08-16.2,48.39l-1.25.9c-8.87-18.3-2.27-37.91,12.13-47.82.58-.42,1.87-.74,2.47-1.14,0,0-5.87,1.34-7.87,2.13a4.85,4.85,0,0,0-2.86,1.79,39.8,39.8,0,0,0-4.48,6l-9.25.37v.34l9.08-.21c-9.35,15.45-7.05,30.15-1.28,40.43l.14.1c.34.23,1.22-.42,3.05-2.16.75-.72,1.71-1.61,2.11-2a55.55,55.55,0,0,0,3.85-4.13c-6.29-12.86-.08-29.79,14.62-37.43a13.83,13.83,0,0,0-.16-1.65s-.56-.5-.88-.45c-16.39,7.25-23,25.24-16.29,41.6l-1.1,1.2c-8.37-16.94.62-38.12,16.28-44.12,0-.38-.35-.87-.77-.58a33.54,33.54,0,0,0-16,45.17l-1,.93c-9.43-18.79.51-39.84,16.08-47,.46-.11-.41-.68-.41-.68ZM36,90.58s-.12,1,.23,1.34c.16.71-.1.64-.7.49-1.49-.36-.33.49.89,1.18s1,.65,0,1.32c-.7.45-.63.62-.54,1,.14.5.24.17.53-.1A2.23,2.23,0,0,1,38,95.07c.82,0,.9.66.76,1.17-.33,1.08-1.43,1-2.33.75-1.48-.44-3.9-3-3.86-4.53C32.5,91.1,34.35,90.52,36,90.58Zm6.65.33c.57.21,1.29.49,2.09.83a12.46,12.46,0,0,1,2.92,1.4,4.86,4.86,0,0,1,1.89,4.67L38.27,108.54,37,107.92c-1.9-1-2.35-1.48-1.3-2a1.65,1.65,0,0,0,.75-1.37c.1-.73.06-.61.5-.94.76-.58.8-.82.8-1.79a2.28,2.28,0,0,1,.3-1.34,6.13,6.13,0,0,0,.51-1.75c0-.13,0-.44.05-.55a1.61,1.61,0,0,1,.45-.91,4,4,0,0,0,.47-1c.32-.89.26-.76.76-.66.74.14.63.58.55,1.26a1.62,1.62,0,0,1-.19.49,2.7,2.7,0,0,1,.65-.34c.24-.05.47,0,.53.4,0,.21-.06.59,0,.88a10.06,10.06,0,0,0,.22,2.28c.84,2.9.67,2.5.39.08a9.78,9.78,0,0,1-.07-2.13,4.4,4.4,0,0,1,.39-1.45c.5-.87.52-1-.55-1.46-.4-.16-1.08-.44-1.22-.71a2.15,2.15,0,0,0-1.35-1c-1.62-.38-2.56-2-2.33-2.19s.81,0,1.22.06c1.48.05,1.79,0,2.45-.59.35-.3.51-.57.78-.59a2.81,2.81,0,0,1,.88.29Zm76.75,1.74c-15.15,12.3-17.8,32.2-10.25,47.56l-1.31,1c-9.5-18-3.12-37.44,8.55-48.07ZM31.94,94.12c.27,0,.56.37,1.62,1.51a10.6,10.6,0,0,0,1.85,1.66c.89.43.7.25,0,1-.76.87-.34,1.59-1.25,1.15-2.36-1.11-4-4.38-2.48-5.17A.85.85,0,0,1,31.94,94.12Zm-1.17,3.44a.58.58,0,0,1,.18,0c.29.07.64.62,1,1a7.54,7.54,0,0,0,2.37,1.9c.82.37.84.45.27,1.1a2,2,0,0,0-.39.67c0,.16-.06.36-.24.39-.92.18-4-1.68-4.09-3C30,98.49,30.29,97.6,30.77,97.56Zm6.46.36c.53,0,.84.46.84,1.23,0,.53-.3.75-.91,1-1.29.49-2.09-.44-1.19-1.47A2,2,0,0,1,37.23,97.92ZM36.44,101c1,0,1.26.83.54,1.54s-2,.67-2-.06A1.89,1.89,0,0,1,36.44,101Zm-6.06,1c.66.2,2.27,1.36,3,1.5,0,.39-.43.5.23,1.24.3.33.33.56.07.7-.81.43-3.6-.93-3.79-2.34C29.78,102.44,30,102.05,30.38,102ZM34,103.71c1,0,2.05.07,1.94.53s-.43,1.22-.87,1.05a1.93,1.93,0,0,1-.57-.44C34,104.36,33.88,103.7,34,103.71Zm36.38,4c2.8,2.55,13,29.15-8.23,48.53l-4.5,1.35c20.37-16.05,17-38.84,11.48-48.68,0-.29-.08-.26-.59.21s-.49.49-.31.56c6.21,9.59,8.53,36.69-15.94,49.77-.41.43.42.36.42.36,0-.35,11-3,10.25-3.1,10.23-9.08,19.14-30.72,8-49.59-.27-.18-.62.58-.62.58Zm-3.53,3-.14.6c8.88,17.5.4,38.93-16.1,46.87a5.09,5.09,0,0,0,.88.48c18.72-10.12,24.12-31.54,16-48.13ZM65.39,112l-.1.63c7.35,14.89,1.52,35.56-16,43.94-.17.9,0,.64.82.6,20.3-10.93,22.21-31.71,15.86-45.2Zm-1.26,1.79c-.57.76-1.62,1.15-2,2.13,5.9,15.64-1.72,30.71-14.63,37.05,0,.79-.57,2.74.79,2.42,15.94-7.25,22.88-26.51,15.91-41.68ZM144.2,144c.59,0,1.11.22,1.66.29,2,.26,3.26,1.71,2.38,2.59-.29.29-.7.12-2-.51-.59-.29-.69-.56-.81-1.22s-.3-.86-.5-.26-.42,1-1.09.84C142,145.29,142.67,144,144.2,144ZM123,157.31c-4.75-2.71-10.63-7.59-14-13.14A80,80,0,0,0,105.4,153l-7.46-2.09-.09.16,7.38,2.13-.72,2.47c-.08.27-1.22,3.08-1.22,3.08l11.52,5.4a18.81,18.81,0,0,1-2.48,2.89,2.22,2.22,0,0,0-.58,1.35l16-15.29a36.87,36.87,0,0,0,2.83,3.76c.72.65.94.81.1,1-3.75.55-6.67,3.41-5.65,7.23.16.43.5.27,1.21-.18,2.49-2.26,8.58-4.36,8.79-3.83l0,2.44c-6.56.1-5.88,4.93-5.41,7.53,0,.06-1.9,1.72-1.9,1.72a17.69,17.69,0,0,1,1.95,1.15c-.58,3.23,2.16,7.91,7.55,5.51.47.48.91,1,1.42,1.56a10.94,10.94,0,0,0,1.19-2.15c2.67,1.21,8.22-1.5,5.38-7.73l1.56-1.5-1.5-1a7.62,7.62,0,0,0-1.22-4.38,28.68,28.68,0,0,0,4.39.75h0c1.15.1,2.13.13,2-.57a14.07,14.07,0,0,0-.31-1.54c-.56-1.63-3.45-2.83-6.25-3-.46,0-1,0-1-.13s.15-.54.45-.49a2.92,2.92,0,0,0,3.28-2.32,3.52,3.52,0,0,1,.82-1.22c.8-.88.86-.86.85-2.12a2.2,2.2,0,0,1,.55-1.67,4.09,4.09,0,0,0,.5-3.08,2.51,2.51,0,0,1-.13-1.77c.47-1.46-.56-2.8-1.92-3.56-.11,0-.08.08-.17.18a4,4,0,0,1-2.73-.5c-.31-.15,1-8.08,3.86-7.37.47.29.67,1.66.63,1.69.13,0,.2-.81,0-1.35a1.23,1.23,0,0,0-1.47-.94,3.93,3.93,0,0,0-1.74,1.43c-1.32,1.68-1.33,2.75-1.77,4.54-.21.85-.23.8-1.4-.12-.84-.66-1.24-.87-1-1.25.13-.17.67-.72.67-.72l10.66-9.84v98.87H94.77l.4-13c1.08-8.9-.82-27.6-2.26-29.36,1.11-1.25,4.55-4.27,4.36-4.41l-.46-.27L95,182.91l-4.5-1.37a19.44,19.44,0,0,0-5.91-3.08c-3.32-.85-9.7,1.87-9.71,1.9a52.86,52.86,0,0,0-18.26,4.89,8.71,8.71,0,0,1-1-1.71c-5.26-7.35-10.43-11.46-17.49-16.48l8.95-5-21.2-22.24-.19-18.05L56.36,92.32c.18-.51,9.8,6.82,13.38,12.78a71.37,71.37,0,0,1,3-8.42c.11-.26,6.11,2.23,7.89,2.33a.67.67,0,0,0,.48-.27l-7.92-2.58,1.62-4.66s.56-1.26-.07-1.47c-3.61-1.17-7-3.24-10.45-5,0,0,1.61-1.8,1.64-1.88s.68-1,.52-1.37c-1.76,1.71-16.09,15-16.09,15A7,7,0,0,0,48,92.33,6.44,6.44,0,0,0,50.59,91c2.1-1.54,3.24-4.28,3-5.88A45.9,45.9,0,0,1,47.2,87a8.1,8.1,0,0,0-3.58,1.59l-.12-2.55s3.4.6,5-1.69c1.35-2,.8-4.22.49-5.37,0-.25,0-.23.54-.77.43-.4,1.1-.91,1.1-.91s-1.75-.81-2.05-1.41c.47-4.73-3.29-6.56-6.48-5.72-.6.18-.88.29-1.59-.5l-1-1s-.37.87-.57,1.25c-.63,1.24-.8.87-2.15.93-3.42.17-4.94,2.94-4.16,6.34.18.8.1.67-.42,1.68-.27.52-.7,1.17-.7,1.17s.63.35,1,.54c.63.28.66.61.66,1.23A6.34,6.34,0,0,0,34.4,85.3a19.57,19.57,0,0,1-7.15-1c.37,3.74,3.12,5.13,6.48,5.68a2.74,2.74,0,0,1-.72.48A1.7,1.7,0,0,0,31.73,92a3,3,0,0,1-.85,1.51,2.28,2.28,0,0,0-.75,2.34,2.18,2.18,0,0,1-.53,1.5A2.79,2.79,0,0,0,29,99.63a9.66,9.66,0,0,1,.1,2.26c-.14,1.55.41,2.14,1.12,3.23.46.71.36.73.25,1.24a28.31,28.31,0,0,1-.79,2.81c-.61,2.1-.64,3.7-.14,4.11a2.1,2.1,0,0,0,2,.31c3-.92,2.46-3.86,2.62-5.82.08-.51.26-.75.42-.73a9.25,9.25,0,0,0,2.88,2.18c-4,4-6.5,6.52-11.5,10.94V21.49H83.21s.06.83-.08,4.39c-.25,7.25-.55,14.84-.08,22.23a67.52,67.52,0,0,0,.39,7.61c.36,2.46.51,5.12,1.66,7.42.46,1.25.48,1.15-1.28,2.78a6.78,6.78,0,0,0-1.56,1.8s0,.24.09.13.72-.7.79-.79c.48-.56,1.27.16,4,.93A7.28,7.28,0,0,1,89,69.08c4.06,3.44,9.78,2.36,14.05.49a9,9,0,0,1,3.46-.82,67.19,67.19,0,0,0,14.91-4l.94,1.55a.62.62,0,0,1,.61.32c4.15,7.87,17.7,16.86,17.46,16.44L131.58,88c6.45,8,21.28,21.57,21.28,21.57V129a130.92,130.92,0,0,0-11.35,10.38c-1,1-1.71,1.56-1.33,1.58.9-.14,1.68.76,2.42,1.38.47.52.35.47-.18,1.19-.38.5-.52.65-.52,1a1.77,1.77,0,0,1-.61,1.69,2.47,2.47,0,0,0-.67,1.37,2.4,2.4,0,0,1-.46,1.45c-.67.14-.73,1.12-.61,1.55a1.44,1.44,0,0,1,.44,1.29c-1.33,1.45-2.73,2.71-1.84.68a6.13,6.13,0,0,0,.54-1.38s-.64.67-1,1c-.51.48-.7.2-.72-1.29a9.82,9.82,0,0,0-.73-3c-.1-.17-.12.12-.07,1.2a6.43,6.43,0,0,1-.26,3.25c-.67,1.92-1.15,2.19-.06,2.12s1.91-.07,2.37.55a2.14,2.14,0,0,0,.77.78,7.83,7.83,0,0,1,2,1.5c1.53,1.67,1.09,3.17-1.87,2.16-1.56-.53-.54-1.21,1.14-1.05,1,.1,1.2-.29.31-.56-1.66-.31-1.93-.5-3,.81a10.66,10.66,0,0,1-8.42-5.14c-.52-.88-.68-1-.32-1.54.14-.2.06-.14-.19.14s-.91.5-1.13.69c-1.54,1.55-3.11,3.21-4.5,4.46Zm20-10.83c.78.1.76.75.07,1.39s-1.1.59-1.47.22C141,147.44,141.8,146.48,143,146.48Zm2.27.46a3.85,3.85,0,0,1,2.38,1.08c1.14.95,1.4,3.25.35,3.64-.44.17-.5,0-1.44-.89a8.16,8.16,0,0,0-2-1.46c-1.37-.66-1.55-.9-.62-1.35a1.7,1.7,0,0,0,.56-.52C144.79,147.06,144.86,146.94,145.29,146.94ZM143.81,150a2.18,2.18,0,0,1,.81.32c2.31,1.27,3.44,3.25,2.66,4.37-.51.73-1.35.45-2-.59a6.45,6.45,0,0,0-2.39-1.89c-1.24-.63-1.26-.72-.37-1.15a1.82,1.82,0,0,0,.82-.74c.21-.37.23-.33.46-.33Zm.74,4.73c1.75,1.75,1.55,2.69.41,3.4-.77.49-2,.61-2.42.2-.66-.58-.64-1.24.09-1.45s.42-.42-.21-.58c-2.26-.64-3.65-1.85-1.19-1.59a2.25,2.25,0,0,0,1.76-.92c.53-.65,1.25.61,1.57.93Zm-119,.67,50.84,72.85H35.27c1.45-11.59-1.46-24.45-5.3-32.84a122.53,122.53,0,0,0,12.15-2.92l-.81-1.05A49.39,49.39,0,0,1,28,194.52c5.48,9.37,7.44,22.28,5.8,33.74H26V171.7Zm9.11,10.84a4,4,0,0,1,2.73,2.2,23.15,23.15,0,0,0,1,2.46c0,.2,1.78,3.4,1,3.12-1.54-2.11-4.3-5.69-5-7.44C34.38,166.36,34.41,166.25,34.61,166.25Zm5.5,3.2a17.4,17.4,0,0,0,1.05,2.82c1.1,2.37,2.8,6.1,2.46,7.16-.23.71,0,.68-.62-.21-.3-.43-1.26-1.76-1.48-2.07-.56-.75-.18-.06-.5-1.28-.76-3.46-2-5.27-2.78-7.29C38,167.64,39.75,169.07,40.12,169.45Zm1,.53c.15.1,2.17,1.53,2.37,1.73.72,2.55,3.58,10.74,2.84,12.2a6.63,6.63,0,0,1-1.5-2.2,27.38,27.38,0,0,0-2.89-9.64C41.54,171.18,41.24,170.3,41.09,170Zm3.8,2.87a4.55,4.55,0,0,1,1.68,1.67,7.11,7.11,0,0,1,.61,2c.73,3.34,2.13,6.72,1.5,10.29-.39.53-1.24-.68-1.37-1.87a46.42,46.42,0,0,0-2.13-10.48C44.92,173.59,44.72,172.88,44.89,172.85Zm3.24,3.06c.14,0,.42.26.88.7a2.67,2.67,0,0,1,1,2.59c0,2.08.72,4.47.83,6.57a29.36,29.36,0,0,1,.1,4.54c-.26.37-1.44-1-1.35-3a24.9,24.9,0,0,0-1-8.55c-.48-2-.73-2.8-.52-2.85Zm94.06-12.39c3.64,2.35,2.36,6.67,1.58,7.21,5,6.38-2.79,9.64-5.27,7.35-3.67,3.66-10,.59-7.54-5.44,0,0-4.61-8.84,4.48-8.25,0,0,.16-3.57-.1-3.74-3.25-.22-7.66,2.92-8.91,3.79-.69.42-.84.22-.84.22-.17-1.85-.18-2.7.57-3.74,1.31-1.8,3.47-2.41,6.32-3,3.52,1.09,6.87,2.8,10.13,2.53a11.23,11.23,0,0,1,5.37,1.24c1.17.56,1.79,2.64,1.79,2.64C147.93,165.25,142.2,163.52,142.2,163.52Zm-1.73-13.11a1.4,1.4,0,0,1,1.43-1.26.84.84,0,0,1,.23,1.64c-.25.2-1-.1-1.09.13.06.39-.33.23-.41.09A1,1,0,0,1,140.47,150.41Zm-.59,2.5a2,2,0,0,1,1-.32c.55-.07,1.25,0,1.4.59s-.93.9-1.8.91c-.44,0-1,.09-1.09-.22s.31-.83.48-1ZM29.71,112.59c.7-2.45.26-3.82,1.43-6.84l2.85,1a16.24,16.24,0,0,1-.45,4.61C33,113,31.07,114.28,29.71,112.59Zm21.23,66.27c.34,0,1.16,1.22,1.54,2.3s.23,2.27.48,3.35a38.82,38.82,0,0,1,.38,8.51c-.07.56-.43.33-.92-.2-.71-.77-.61-.79-.61-2.93a66.57,66.57,0,0,0-.59-7.3A15.27,15.27,0,0,1,50.8,179C50.82,178.89,50.87,178.86,50.93,178.86Zm33.33.44c3.67.59,6.6,3.1,8.28,7.24s2,10,2.27,15.23c0,1.26-.54.94-1.9.16s-1.8-.52-4,0c-1.35.31-1.23-.61,1-2.14.76-.5,1.64-1.16,1.35-1.26A2.24,2.24,0,0,0,90,199c-2.18,1.77-2.78,2.2-2.15.48.16-.43.66-1.64.88-2.22.79-2.16-.12-3.09-2.81-4.46-.67-.34-1.11-.92-.44.28.55,1-.59,1.77-2,.62a2.77,2.77,0,0,0-3.57.73,2.5,2.5,0,0,0,.92,3.34c1.07.46,1.46.13.43-.59-1.33-.92-1.07-2.48.42-2.47a10.42,10.42,0,0,1,2.66,1.31c1.17.64,2,.37,2-.58,0-.64.36-.58,1.14-.2,1,.52.93,1,.38,2.43-.37,1-.55,2.15-.89,3.2-.88,3.54-1,7.56,0,8.81,2.58,3.33,5.31,3,7.66.78l-.1,3.64c-2.39,1.92-5.18,3.24-9.49,10.37-1.5-1.89-7.95-9.64-18.29-11.39l-2.33-3.2c0-.2-1.74-11.88-2.9-15.86,0,0,1.28-1.95,2.44-3.39,4.64-5.74,12.49-12.31,20.32-11.37Zm-13.48,3.32c-.4.13-.53-.67-.31-.82a5.56,5.56,0,0,1,1.13,0C72,181.83,71.95,182.25,70.78,182.62ZM53.33,182a10.82,10.82,0,0,1,1.76,2.27c.34.5.15,1.33.2,2.15.07,1.16.2,3.08.29,4.26a12.45,12.45,0,0,1-.39,4.91c-.34.83-1,.26-1.21-.88,0-.27.18-3.09.18-4.64C54.17,187.44,53.49,184.15,53.33,182ZM69,182a.44.44,0,0,1,.44.15c.56.72.78,1.15.28,1.54-.67.56-1.28.42-1.66-.65C67.8,182.29,68.37,182.05,69,182Zm-2.07.63a3.5,3.5,0,0,1,1.26,2.23c0,.21-.22.39-.62.72s-.53.34-1-.36c-.7-1.1-1-1.82-.89-2.2A1.23,1.23,0,0,1,66.91,182.64Zm24.44.14a21.14,21.14,0,0,1,3,.78L92.82,185C92.38,184.26,91.88,183.52,91.34,182.78Zm-26.66.75a8.07,8.07,0,0,1,1.46,3.29,1.68,1.68,0,0,1-.59.58c-.18,0-.35-.27-1-1.37-1.08-1.91-1.39-2.45-.83-2.68A1.26,1.26,0,0,1,64.68,183.53Zm-2.17.44a11.91,11.91,0,0,1,2.08,4.19,1,1,0,0,1-.22.57c-.9,1-.68.82-2-2-1.14-2.29-1.44-2.51-.69-2.77a1.48,1.48,0,0,1,.84,0Zm-2.16.74c.39,0,.51.66,1.28,2.17,1.29,2.85,1.77,3.25,1.48,3.55-.36.46-.57.78-.91.22-.78-1.27-1.55-2.88-2.27-4.3-.58-1.06-.63-1.19-.26-1.45a1.35,1.35,0,0,1,.69-.19Zm23,.81c-.48.14-2.43.76-1.24.87.24,0,.85-.13,1.28-.16,1.2-.08,3.71.14,3.62-.09C86.77,185.28,84,185.36,83.34,185.53Zm-24.67.27s.31.6.62,1.15c1.83,3.55,2.85,4.84,2.52,5.4-.27.34-.68.76-.92.66s-.92-1.32-2.23-4-1.5-2.92-.8-3.27c.29-.13.63-.23.81,0ZM56.84,187c.84,1.37.73,1.19.72,5.66,0,2.78-.36,4.55-.83,5.24-.24.36-.67.15-.88-.55-.1-.32.18-.8.23-1.3.33-3.34.1-6.69.11-9.85C56.44,186.21,56.7,186.83,56.84,187Zm21.7,1.1c.39.56.3,1,.29,1.77,0,1.07.07,1.15.81.61s.7-.51,1.87.28a1.7,1.7,0,0,0,2.12,0c.4-.37.53-.2,1.06-.06.58.32.74.37,2-.23.84-.37.87-.43,1.37-.16.88.77,1,.49.89-.52a7.75,7.75,0,0,1,.21-1.44c.44-1.8-.27-1.82-1.2-.67A1.63,1.63,0,0,1,86,188a7.63,7.63,0,0,0-4-.09,3,3,0,0,1-2.78-.67c-.34-.29-1.11-.55-1.2-.33s.09.57.56,1.24Zm-20,2.53c.19,0,.47.51.89,1.69.54,1.51-.4,6.78-1,7.64-.3.45-.49.73-1.11-.11-.25-.37-.05-.49.19-1.52a32.19,32.19,0,0,0,.7-5.31c0-1.54.09-2.35.3-2.39Zm1.9,5.11c.13,0,.29.31.51.91a6.62,6.62,0,0,1-.24,3.63,9.56,9.56,0,0,1-.84,2.1c-.13.36-.82.23-1-.56-.12-.5.29-1.12.49-1.91s.43-1.81.54-2.32C60.13,196.38,60.28,195.77,60.47,195.78Zm14.68,2.33H75.1s1.43,1.63,1.82,2.08c.2.17,2,2.32.87,1.83a7.51,7.51,0,0,0-8,1.34c-.25.24-.46,0-1.21-.06-1.55-.12-2.11.5-1.17,1.27.14.12.45.17.58.36s.09.48.15.57c3,4,8.53,4.76,12,2.16.44-.33.68-.44,1.09-.32.81.24.88-.44.17-1.39-.31-.41-.7-.89-.47-1,.44-.38.66-1-.11-1.24a2.52,2.52,0,0,1-1.42-1.58c-.35-1-3.76-3.93-4.27-4Zm-13.58,1.75c.65,0,.68,3.84,0,5-.37.44-1.21-.38-1.09-1.23a26.63,26.63,0,0,1,.94-3.69.29.29,0,0,1,.18-.09Zm13.26,2.41a2.94,2.94,0,0,1,1.89.78c.32.29.88,1.55.65,2-.07.25-.74.24-.8.05-.37-2.54-2.43-2.91-3.08-.54,0,0-.42.36-.48-.33.15-1.35.78-2,1.82-2Zm16.55.22a1.68,1.68,0,0,1,1.6,1,1.56,1.56,0,0,1,.16,1.11c-.07.16-.29.09-.29.09-1-2.87-2.46-1.54-3,0,0,0-.54.17-.6,0a1.35,1.35,0,0,1,.19-.94,2.22,2.22,0,0,1,1.92-1.32Zm-14,.18a2.35,2.35,0,0,1,1.48.76c.48.49.53.78.14,1.14-.23.22-1.06.43-1.22.05l-.7-1.64c-.07-.16.14-.3.31-.31Zm-5,.08c.41,0,.5.09-.15,1.61-.14.32-1.8-.15-1.49-.77A2.76,2.76,0,0,1,72.4,202.74Zm16.69.12c.17,0,.3,0,.36.09a10,10,0,0,0-.78,1.65c-.59-.07-1.31,0-1.43-.48s.12-.74,1-1.06A3.41,3.41,0,0,1,89.09,202.86Zm4.88.41a.94.94,0,0,1,.7,1c-.06.21-.36.21-.57,0s-.5-.63-.47-.9S93.77,203.2,94,203.27Zm-31.44,1.48c.19.37.54,2.44.13,2.39s-.58-.73-.65-1.29C62,205.73,62.36,204.76,62.53,204.75Zm6.94,1.11a3.08,3.08,0,0,1,1.33.53,10.37,10.37,0,0,0,7,.7c1.42-.37,1.78-.59,2-.34.34.41-.2.83-2.2,1.51-2.2.74-4.48.62-7.49-1.51-.81-.57-.91-.85-.67-.88Zm25.11.57c.37.7-.9,1.36-1.54,1.55a6.61,6.61,0,0,1-4.6-.49l-.28-.19c-1-.71-.56-1.22.5-.67a6.39,6.39,0,0,0,4.68.1C94,206.43,94.39,206.06,94.59,206.43Zm-28.1,1.3c-.13,0,.09.35.53.83,3.1,3.49,10.48,5.38,14.63,1.79,1.3-1.22,1.1-1.78-.95-.8a19.45,19.45,0,0,1-8.28.43,12.15,12.15,0,0,1-4.74-1.54c-.71-.52-1.09-.73-1.2-.7Zm21.34.1a3.39,3.39,0,0,1,1.24.46,7.26,7.26,0,0,0,4.21.07c1.64-.61,2,.16.42,1a4.71,4.71,0,0,1-5.53-.72c-.43-.39-.67-.87-.48-.91C87.72,207.76,87.8,207.83,87.83,207.84ZM67.31,214c6.09.56,15.29,7,18.88,14.25H84.13c-3.6-5.74-9.15-10.69-15.73-12.41-.26-.2-1.23-1.59-1.09-1.84Zm27.05,1.34-.28,2a32.65,32.65,0,0,0-7.54,8.83c-.58,0-.86-.73-.76-1.2,2.22-4.4,4.88-6.83,8.59-9.64Zm-24.63,1.58c1.4-.1,10.5,5.14,13.56,11.34H81.62c-3.45-4.5-7.28-7.77-10.68-9C70.11,218.43,69.21,217,69.73,216.92Zm24.35,1.4,0,2.73a24.87,24.87,0,0,0-5,7.21H87.37a3.89,3.89,0,0,1-.24-1.54,24,24,0,0,1,7-8.39Zm-13.82,9.94H78.63a20,20,0,0,0-5.31-5.3c-.77-1-1.64-2.14-1.29-2.34,0-.71,7.26,4.53,8.24,7.63Zm13.86-5.87,0,1.58c-1.11,1.42-2,2.94-2.92,4.3H89.77c1.27-2.75,4.46-6.62,4.35-5.87Zm-18.77,3c.5.13,2.35,2.23,2.29,2.82h-.83a17.41,17.41,0,0,1-1.34-2.16c-.21-.38-.34-.74-.12-.66Zm18.45.49h0l0,2.34H92.4a4.66,4.66,0,0,1,1.4-2.34Z"/><path id="path6313-8" d="M101.4,21.23l52.09,74.18,0-16.48L136.82,57.28A62.82,62.82,0,0,1,148.93,55c-4.7-10.45-7-20.27-5-33.73C129.35,21.06,114.68,21.09,101.4,21.23Zm41.68.35c-.41,4.75-.94,10-.09,15.93-2.71-1-3.35.7-3.8.88-.51-1.14-2.4-3.12-4.54-.79-1.11,1.21-.57,3.48,2,4.5-3,.23-4.49-2.31-5-4.92-1.6-1-3.28-2-3.44-5.64l.82.14a2.52,2.52,0,0,0,3.85,2.59c1-.76,1.09-1.92.7-3.74a2.64,2.64,0,0,0,2.15-3.33c-.67-3.29-4-2.91-5.59-.74-1.28-1.59-3.63-1.89-4.57.58a2.63,2.63,0,0,0,2,3.22c-3,.58-4.54-3.59-4.7-6.42l-1.25-2.23C129.81,21.57,133.38,21.58,143.08,21.58Zm-40.83.08h6L152.45,79l.09,14.28Zm15.3,0h1a12.52,12.52,0,0,0,8.59,10.48c.26,4.12,2.24,9.73,9.75,11.62-.22,4.66,2.76,9.11,6,11.24a12.72,12.72,0,0,1-1.54.28c-4.29-3.41-5.35-8.44-5.77-10.52-.15-.3-.55-.37-.88-.45a13.28,13.28,0,0,1-8-8l-.79-3.63c0-.47-.09-.25-1.18-.65-2.83-1-5.45-4.12-6.62-7.79a5.63,5.63,0,0,1-.45-2.57Zm-3.89,0H117s0,.6.07,1c.46,3.62,3.69,8.16,7,9.66a8.19,8.19,0,0,1,1.27.65c.92,5.93,3.6,9.5,9.25,11.94.09.09.34.15.42.27.77,3.67,2.45,7.92,5.66,10.25l-1.38.14Zm16.56,6.22a1.39,1.39,0,1,1-1.39,1.39A1.39,1.39,0,0,1,130.21,27.9ZM83.44,35.5c.08.2-19,16.37-17.1,46.78l-.55.62.15.22c-.63.72-1.23,1.29-1.92,2a69,69,0,0,0,10.85,5.21l-1.31,3.06L81.77,96l-1.1,2.91-8.09-2.7a72.1,72.1,0,0,0-2.73,8.06c-.08.22-.27.11-.56-.31-4.27-7.31-13-12.59-12.75-12.07L25.42,121.56l-.21,18.31,21.53,22.28a103.07,103.07,0,0,0-9.18,5.1c2.29,1.88,4.89,3.33,7.17,5.1,4.71,3.34,7.9,8.25,11,11.57a52.49,52.49,0,0,1,41.46-2.42c-1.46,1.54-3.09,2.88-4.6,4.55,3.64,9.6,2.48,28.66,2.29,29.17a63.29,63.29,0,0,0,17.37-47.95l3.19-3.21c-.06-.16-8-4.42-11.29-5.35l.91-2.92-7.91-2.48L98,151l7.88,2.29c1.49-3.68,3.07-8.83,3.07-8.83a40.61,40.61,0,0,0,13.76,13.4l30.94-29.71-.2-19.1L132.39,87.9l8.77-4.59c-.84-.68-2.06-1.33-2.93-2-.06,0,.17-.2.11-.24-.22-.17-.38-.31-.61-.46,0,0-.21.19-.26.16a52.64,52.64,0,0,1-8.29-6.66c-.06-.06,0-.32,0-.39-1.22-1.31-2.43-2.52-3.67-3.8a19.94,19.94,0,0,1-1.52-2l-.05-.46-1.33-1.68c-4.28,2.54-22.55,8.9-40.22,1.85l3.36-3.37A25.77,25.77,0,0,1,84,57.73c-.92-7.94-.57-22.23-.57-22.23ZM139.14,40a1.47,1.47,0,1,1-1.46,1.47A1.47,1.47,0,0,1,139.14,40Zm4.58,1.75a66.66,66.66,0,0,0,4,12.54l-1.95.22c-1.58-1-3.26-2.54-3.44-4.68-4.29,0-5.54-6.71-4-5.9a2.55,2.55,0,0,0,3.06,3c1.39-.2,2.59-2.12.94-4.25A2.31,2.31,0,0,0,143.73,41.74ZM83,52.55A60.93,60.93,0,0,0,85,64.17l-8.47,8A43.85,43.85,0,0,1,83,52.55Zm40.61,15.4,1.08,1.55c-12.24,7.21-33.12,7.72-45.85,1.64l1.69-1.61c11.19,5.07,29.4,5.45,43.08-1.58ZM44.13,70.36A6.81,6.81,0,0,0,40,72c-5.61-2.57-9.29,3.43-5.82,7.41-.51,2.86-.9,3.39,1.24,6.29-2.28.29-5.15-.31-7.6-.69.41,4.24,6.46,5.22,9,4.76a9,9,0,0,1,5.39.79c1.6.45,2.59,1.22,4.16,1.59,2.6.62,6.4-2.43,7-5.34.05-.39.17-.74,0-.8-1.78.46-3.73,1.1-5.46,1.48a10.27,10.27,0,0,0-4.26,1.84l-.11-3.5c8.79.42,5-8,4.47-8.33,1.63-3.31-.33-7.07-3.74-7.11Zm79.93.26L126,75.24,120.89,77l-1.3-4.52Zm-80.3.14c3,0,5.66,3.19,2.79,6.73,5.56,4.93-1.57,10.2-5,6.54-4.52,4.16-9.32-.18-6.8-4.71C30,75,35.92,69.18,40,72.92A4.4,4.4,0,0,1,43.77,70.76Zm34.7,1.69a1.3,1.3,0,1,1-1.3,1.3A1.3,1.3,0,0,1,78.47,72.45Zm-33.11.1a.4.4,0,0,0-.26.12c-.14,0-.46.56-1.25,1.47-1.37,1.6-1.52,1.61-1.52,1.61a3.62,3.62,0,0,0-3.4.39,6.5,6.5,0,0,1-2.61-1.48c-.69-.58-1.06-.71-1.18-.39s.19.66,1.51,1.56C38.48,77.09,38.36,77,38.36,77a5,5,0,0,0,.48,2.83,13.5,13.5,0,0,1-1.63,2.5,3.63,3.63,0,0,0-.67,1.17c0,.67.58.22,1.91-1.47.52-.66,1.24-1.61,1.24-1.61a3.6,3.6,0,0,0,3.09-.14s.34.25,1.19.93c1.56,1.25,1.9,1.38,2.09,1.22s.22-.28-.37-.71a13.88,13.88,0,0,1-2.37-2,4.55,4.55,0,0,0-.42-3.29s0-.18,1-1.29a9.32,9.32,0,0,0,1.67-2.29A.25.25,0,0,0,45.36,72.55Zm36,.28L86,74.26,85,79l-4.88-1.58ZM114.51,74l1.28,4.66L111,79.93,110.25,75Zm3.34.08a1.3,1.3,0,1,1-1.3,1.3A1.3,1.3,0,0,1,117.86,74.08Zm10.82.17,4,3.58-4.44,2.25-2.14-4.66Zm-37.74,1,4.65.55-.19,5-5.34-.72Zm-16.13.05L80,77.61l-1.87,5.23-5.3-2.28Zm13.34.41a1.3,1.3,0,1,1-1.3,1.3A1.3,1.3,0,0,1,88.14,75.74Zm16.73,0,.64,5-4.83.29-.1-5.1Zm3.32.57a1.3,1.3,0,1,1-1.3,1.3A1.3,1.3,0,0,1,108.19,76.32ZM41,76.79a1.34,1.34,0,1,1-1.33,1.34A1.34,1.34,0,0,1,41,76.79Zm57.17,0a1.3,1.3,0,1,1-1.3,1.3A1.3,1.3,0,0,1,98.15,76.74Zm22.74.32,1.88,5.16-5.28,1.71L116,78.63Zm3.7.14a1.3,1.3,0,1,1-1.3,1.3A1.3,1.3,0,0,1,124.59,77.2Zm9.12,1.46,3.41,2.42-1.69.94C135,81,134.21,79.7,133.71,78.66ZM85,79.13l5,1.09-.77,5.29-5.49-1.1Zm-15,.29,2.67,1.26-1.76,4.41-4.32-2.31ZM82,79.71A1.3,1.3,0,1,1,80.68,81,1.3,1.3,0,0,1,82,79.71ZM111,80l.9,5.29-5.68.8-.35-5.4Zm21.25.1A1.3,1.3,0,1,1,131,81.4,1.3,1.3,0,0,1,132.28,80.1Zm-4,0,1.88,4.66-5.55,2.33-1.64-4.67Zm-14.16.34a1.3,1.3,0,1,1-1.3,1.3A1.3,1.3,0,0,1,114.1,80.47ZM95.35,81l5.31.1-.06,5.35-5.82-.16Zm42.5.37,2.09,1.46c-21.51,13.88-51.72,15.6-75.3,1.94,0,0,1-1,1.51-1.53C87.4,96,118.43,94.22,137.84,81.38ZM92.47,82a1.3,1.3,0,1,1-1.3,1.3A1.3,1.3,0,0,1,92.47,82Zm10.91.29a1.3,1.3,0,1,1-1.3,1.3A1.3,1.3,0,0,1,103.37,82.27ZM78.07,83l5.55,1.61L82.67,89l-6.08-1.76ZM74.4,83a1.3,1.3,0,1,1-1.3,1.3A1.3,1.3,0,0,1,74.4,83Zm43.1.94,1.33,4.93-6.13,1.32-.74-4.85Zm3.52.72a1.3,1.3,0,1,1-1.3,1.3A1.3,1.3,0,0,1,121,84.67Zm-80.14.77V88.9c-1-.84-2.17-1.74-3.34-2.64a6.4,6.4,0,0,0,3.35-.82Zm-12.63.08a14.87,14.87,0,0,0,1.72.22c2.5,0,7.16.77,8.54,1.91A5.91,5.91,0,0,1,40,89c0,.29-.41.3-1-.08a15.09,15.09,0,0,0-5.66-1.72c-.46-.06-.52,0-.52.17s.43.43,1.79.65a15.21,15.21,0,0,1,2.52.57c1,.29.38.67-.7.77-4.38.41-7.66-1.48-8.32-3.64C28.06,85.57,28.12,85.52,28.24,85.52Zm61,.08,5.51.72-.25,4.63-6-.69ZM42.39,86c1,.76.3,3.06-.22,3.73-.34.38-1.13.18-1.13-.36s0-2.77.05-3.48a1.28,1.28,0,0,1,1.3.1Zm63.85.21.29,4.77-6,.28,0-4.69ZM86,86.53a1.3,1.3,0,1,1-1.3,1.3A1.3,1.3,0,0,1,86,86.53Zm-33.5.07c.22,3.5-5.14,5.88-7.14,4.8-.89-.48-.52-.77,1.24-1.13,2.28-.61,3.78-1.19,3.78-1.62,0-.26-.34-.23-1.27.12-1.43.48-2.92.69-4.28,1.3-1,.46-1.42.63-1.65.35-.48-.59,1.79-2.07,4.14-2.46C49.05,87.67,50.83,86.72,52.47,86.6Zm57.09.44a1.3,1.3,0,1,1-1.3,1.3A1.3,1.3,0,0,1,109.56,87Zm-12,1a1.3,1.3,0,1,1-1.29,1.3A1.3,1.3,0,0,1,97.51,88Zm28.87,2.21c8.67,8.29,18.17,17.83,26,25.67,0,4.11,0,12.32,0,12.32l-29.94,28.56a38.92,38.92,0,0,1-14.24-14.85,9.09,9.09,0,0,0,1.26-1.13l-1.56.94c-5.52-8.87-7.87-26.53,1.52-40.69l-9.48.35,1.55-3.24,10.32-.56L116,93.07s1.32-.25,2.42-.5,3.3-.89,4.93-1.42,3-1,3.07-1Zm-70,2.29a37.55,37.55,0,0,1,13.86,14.59c-16,13.81-22,29.89-23.38,46.62-8.7-8.17-13.1-12.69-21-20.63l.29-11.84ZM90,94A124.94,124.94,0,0,0,84,110.21l-2.48-.74s1.6-.67,2.32-1.1l-1.29-2.08,2.44-1-1.44-1.76L86,102.08l-1.24-1.56L87,99.38l-1.41-1.62L88,96.43l-1.24-1.56Zm.76,0,.69.14c.09,0-.45,1.3-.39,1.34.87.18.92.13,1.18.21l.66-1.37,1.08.21a90.11,90.11,0,0,0-5.86,16.23l-1.28-.27s.37-1.24.37-1.4c-.15,0-.87-.33-1.09-.42-.08.19-.53,1.62-.53,1.62l-1,0A77.16,77.16,0,0,1,90.79,94Zm4.15.19,2.26,1.88-2.57,1L96,98.9l-2.72,1,1.56,1.85-2.7,1L93.72,105l-2.8.95,1.77,2-2.53,1.19,1.51,1.51-1.67.55a5.72,5.72,0,0,1-1.32-.2,88.25,88.25,0,0,1,6.25-16.68Zm-55.06,1c-.62.41-.27,1.29-1.05,2.05a1.71,1.71,0,0,0-.18.72c0,.21-.66,2.68-.66,2.68a3.39,3.39,0,0,0,.4-1c.21-.67.4-2,.51-2.16.58-.18.66-2.07,1.25-1.81.34.15.27.46.08,1.18-.42,1.45-.58,2.06.13,1.07,1.07-1.29,1.17-2.46,0-2.71a4.57,4.57,0,0,0-.46-.05Zm16.17.54-28,26.36L28,131.93l9.74,9.9,6.91,6.72c2.51-15.06,8.26-29.42,22.43-41.85a33.82,33.82,0,0,0-11-11Zm75.4.27C115,103.75,111.24,119.65,116.33,134,124.16,123.94,130.31,114.44,131.46,96ZM73,96.8l7.46,2.41-2.81,9.62-6.72-2-.69-1.7Zm57.67.25a59.66,59.66,0,0,1-14,35.29A28.14,28.14,0,0,1,130.63,97.05Zm-40.2.07L90,98.32l1,.29.44-1.22Zm-1,2.83L89,101.16l1.06.36.4-1.23Zm44,.22c-2.3,17.85-11.91,34.09-22.06,42.36A39.38,39.38,0,0,0,122.27,154l28.59-27.49-.11-9.17Zm-75.54,4.74c-.18.65-.24,1-.24,1a6.58,6.58,0,0,1,1.2-.78c5.62-2.81,3.8,1.46,1.16,3-.59.32-1.2.69-1.2.69s.56.13,1.17.24c3.41.71,2.68,2.71-.87,2.4-.53,0-1.14-.15-1.14-.12a13.12,13.12,0,0,0,.46,1.4c1.2,3-1,3.27-2.51,1.34-.21-.27-.67-1-.67-1s-.14.56-.23,1.1c-1.27,4.75-4.41,4.63-3.24-.19.15-.5.32-1.39.32-1.39a15.19,15.19,0,0,1-1.47.77c-4.06,1.82-4.72-.05-1-2.79,1-.78,1.4-1.08,1.4-1.08a10.7,10.7,0,0,1-1.79-.28c-2.94-.74-3.73-2.51,1-2.42.7,0,1.41.06,1.41.06s-.23-1-.48-1.78c-1.14-3.54,1.15-4,3.09-.79.41.67.53.68.53.68a7,7,0,0,1,.59-2.33c2.34-4.35,3.26-.38,2.55,2.25Zm50.56-3.52a39.85,39.85,0,0,0-4.49,10.55l-7.64-.13a41.13,41.13,0,0,1,3.49-10.05C102.91,101.67,105.71,101.53,108.44,101.38Zm-20.17,1.54-.44,1.28,1.11.34.4-1.25Zm-57.12,2.4a48.29,48.29,0,0,0-1.55,6.42c-.19,1.1,0,1.56.66,1.81a2.81,2.81,0,0,0,3-1.21c.43-.61.74-1.88.8-4.12l.07-2a19.69,19.69,0,0,1-3-.9Zm56.09.28-.37,1.18,1.07.4.41-1.19Zm49.47.44a4.14,4.14,0,0,1,2.72.85l2.27,2.34a3.14,3.14,0,0,0,2.16,5.41,5.49,5.49,0,0,0,2.2-.91l3.6,3.74c-2.1.92-4.15-1.2-4.92-2a1.1,1.1,0,0,1-.23-.33,1.42,1.42,0,0,1,0,.52c-.3,1.67-1.94,6.58-3.5,6.32-1.76-.29,0-7.32.05-7.16-1.21,1.29-7.12,2.66-6.7,1.22.82-2.85,5.24-4,5.82-4.45-2.35-1.42-5.33-5.35-3.42-5.52Zm-105.27.09a5.32,5.32,0,0,1,1.77.36c.24.06.25.26.27.45,0,.84.21,3.31-.56,3.34a3.58,3.58,0,0,0-2.24.6c-.46.35-.61.1-.49-.8s.55-2.7.74-3.44A.53.53,0,0,1,31.44,106.14Zm23.34,0a3.14,3.14,0,1,0,3.13,3.14A3.14,3.14,0,0,0,54.78,106.18Zm0,1.1a2,2,0,1,1-2,2,2,2,0,0,1,2-2Zm16.15,0c7.18,12.43,6.34,29.5-2.12,41.92l9.1-.64-1.2,2.34-9.7.95c-1.48,1.36-2.83,2.92-4.29,4.37v.51a87.74,87.74,0,0,0-10,2.89c-1.79-1.76-5.15-5.29-5.13-5.38l.22-1.14c23.06-11.81,16.32-35.5,14.69-37.44a69.73,69.73,0,0,1,8.48-8.38Zm64,2.26a1.7,1.7,0,1,1-1.69,1.7A1.69,1.69,0,0,1,134.94,109.57Zm7.52.46,2.83,2.93a2,2,0,1,1-2.83-2.93Zm-97.34.36a1.7,1.7,0,1,1-1.69,1.7A1.69,1.69,0,0,1,45.12,110.39Zm-12.58.71c.79.27.61,1-.42,1.66a1.73,1.73,0,0,1-1.85.2C29.16,112.38,31.45,110.72,32.54,111.11Zm13.08,4.16-10.19,9.9a14.17,14.17,0,0,0,.71-4.93c3.07.32,4.35-1.24,3.9-4.46a18.17,18.17,0,0,0,5.58-.51Zm16.33,1.13c4.73,13.52.62,27.84-14.16,36.12C48.39,139.56,53.81,127.17,61.94,116.39Zm13.46,1.18a107.76,107.76,0,0,0,26.93,3.13,64.14,64.14,0,0,0,1,11.27,100.42,100.42,0,0,0-27.25-3C76.49,125.14,75.83,120.76,75.4,117.58Zm60.14,2-8.64,10.14.36-5.54c2.91.37,3.94-1.17,3.52-4.21A15.16,15.16,0,0,0,135.54,119.58Zm-83.92.56-.68,4c-1.72,0-3.42.66-3.39,4.52l-5.15-.06Zm95.05.75a1.7,1.7,0,1,1-1.69,1.7A1.69,1.69,0,0,1,146.67,120.89Zm-102.89.51a1.7,1.7,0,1,1-1.69,1.7A1.7,1.7,0,0,1,43.78,121.4Zm99.11,1.74-.9,6.13c-2.35-.21-4.32.16-3.71,4.31a40.26,40.26,0,0,0-6.61.44Zm-8.43,1.11a1.7,1.7,0,1,1-1.69,1.7A1.7,1.7,0,0,1,134.46,124.25ZM31.38,125.57a1.7,1.7,0,1,1-1.69,1.7A1.7,1.7,0,0,1,31.38,125.57Zm5.61,2c2.16.49,1.16,5.54.67,6.92,0,0,6-3.19,6.39-1.76.24,2.86-5,4.85-5,4.85s3.54,3.09,3.64,5c0,1.26-1.48,1-3.42-.57l-2-2a3.14,3.14,0,1,0-4.43-4.42c-.45-.43-1-.94-1.64-1.59-1.12-1-1.9-1.88-1.79-2.26,1.47-1,4.41,1.76,4.67,2C33.82,133.25,35.44,127.87,37,127.58Zm-3,6.22s0,0,0,0Zm92.1-2.27c1,0,1,2.33.6,3.55-.25.93-.5,1.69-.5,1.69a10.77,10.77,0,0,1,1.25-.86c2.8-1.31,3.84.17,2.43,1.9-.68.89-1.6,1.08-2.35,1.83a7.21,7.21,0,0,1,3.22.83c.72.43,1.28,1,1.28,1.28,0,.73-1.78,1.12-3.44.93a9.6,9.6,0,0,1-2-.36,11.91,11.91,0,0,1,.75,1.49c.62,1.73.4,3.75-.49,3.75-1.5-.4-2.23-2.08-2.82-3.28a9.05,9.05,0,0,1-2,3.77c-1.06,1-1.61.17-1.55-1.5a22.52,22.52,0,0,1,.51-2.65c-6.3,2.13-5.83-.75-.92-3.28-3-1.45-4.87-2.75.28-3-.14-.12-1-2.89-.07-3.54s2.8,1.47,2.89,1.57a7.25,7.25,0,0,1,1.41-2.95c.69-.79,1.21-1.1,1.58-1.11Zm-5.81,6h0Zm27.58-1.83c-1.1.1-1.78,1.08-2.29,1.93-.1.17-.29.23-.36.46a29,29,0,0,0-1.09,5.42,5.68,5.68,0,0,0,3,.51c.2-.08.13-.59.2-.76a19.15,19.15,0,0,0,1.63-6.1C149,136.17,148.6,135.66,147.91,135.72ZM35.19,135.6a2,2,0,0,1,1.26,3.64c-1.31-1.31-2-2-2.86-2.86A2,2,0,0,1,35.19,135.6Zm113.11,1c.28.67-.61,1.4-1.75,1.39-.68,0-.9.09-.6-.5s1.83-2.18,2.35-.89Zm-15.35-.47a1.7,1.7,0,1,1-1.69,1.7A1.7,1.7,0,0,1,132.95,136.1Zm-89.23.12a1.7,1.7,0,1,1-1.69,1.7A1.69,1.69,0,0,1,43.72,136.22Zm80,.69a3.14,3.14,0,1,0,3.13,3.14A3.14,3.14,0,0,0,123.74,136.91Zm-41.84.42a52,52,0,0,1-3.69,10.51c-3,.18-6.28.32-8.43.63,3.58-6.3,3.67-7.78,5-11.12Zm5.19.51c.85.1,1.78.23,2.61.39a98.69,98.69,0,0,1-6.21,16.41l-1.59-.25-.76-.94,2.53-1-2-2,3.27-1-2-2,3.23-.81-1.73-2.11,2.9-1.13L85.52,141l3.08-.85Zm36.66.17a2,2,0,1,1-2,2A2,2,0,0,1,123.74,138Zm-33.46.31,1.08.17L91,139.65l1.23.26.4-1.25a6.53,6.53,0,0,1,1.09.17A141.13,141.13,0,0,1,87.85,155l-1.17-.17.31-1.11-1.09-.16h0l-.53,1.21-1.16-.1a114.57,114.57,0,0,0,6.06-16.37Zm57.15.42c.86,0,.81.44.19,2.07s-.81,2.15-1.09,2.35c-.68.48-2.14.08-2-.63.38-2.29.52-3.27,1.11-3.58A9.45,9.45,0,0,1,147.43,138.73Zm-52.82.19,2.81.55-2.35,1.4,1.49,1.75-2.88,1.23,1.75,1.82-2.78,1.14,1.69,2L91.44,150l2,1.71-3.25,1,1.23,1.9-1.22.69-1.51-.24c2.5-5.86,4.11-10.68,5.94-16.2Zm6.9,1.4,5.5,1.5,1.1,2-2.58,8.74-7.33-2.16Zm-10.93.84-.52,1.44,1.21.25.47-1.48Zm-1.06,3.3L89,145.9l1.14.22.54-1.45Zm-1.07,2.9-.54,1.43L89,149l.53-1.43ZM140.1,150a6.25,6.25,0,0,0-.71.59c.12.33.48.83.42,1.16s-.32.45-.74.89c-1,1.21-1.4,1.08-.8-.21a4.18,4.18,0,0,0,.29-.78,8.36,8.36,0,0,0-.58,1.05l-.66,1.28a5.51,5.51,0,0,1,1.52,1s.22-.59.37-1.14a2,2,0,0,1,1.13-1.37A3.06,3.06,0,0,0,141,152,5.09,5.09,0,0,1,140.1,150Zm-52.8.35-.57,1.52,1.1.27.61-1.55Zm-62.21,3.82c-.1,6.06.1,10-.11,16.58L41.31,192l-2.55.86s0,.29-.17.33c-3.49,1-9.15,1.92-9.15,1.92,4.21,9.65,6.94,21.72,5.06,33.78l42.28-.11Zm89.42,10.26-1.46,1.47c-21.5-11.68-51.12-11.64-72.73,2.51l-1.76-1.3C62.15,151.94,91.17,152,114.51,164.43Zm-88.63-8.14,49.77,71.76-5.85.09L25.92,170.52Zm106.8,1.3s-1.44.38-2.65.76c-3.46,1.11-5.08,3.12-4.76,5.91.09.82.31.81,1.72-.08,3.3-2.09,3.5-2.18,7.61-3.39a2.19,2.19,0,0,1,.78,0L135.2,164c-6.85,0-6.47,5.43-4.5,8.27-.69,1.31-2.2,5.89,2.77,7.64a6.44,6.44,0,0,0,5-1.63c4.57,2.17,9.87-1.47,5.74-7.77,1.55-2.75.46-4.79-1-6.54,0,0,.25,0,2.41.42a20,20,0,0,0,4.53.5c0-3-2.44-4.29-7.54-4.69C139,160.73,132.68,157.56,132.68,157.59Zm-55.09.34h.74L78.08,163l-5.56.25-.36-5c1.91-.13,3.69-.27,5.42-.28Zm6.66.12,6,.73-.9,4.73-5.49-.59Zm48.33.06c.49.06.34.63-.34.76-1.07.21-3.82,1.82-3.82,2.23s.14.23,1.14-.31a24.84,24.84,0,0,1,2.33-1c.78-.3,1.66-.65,2-.79.92-.42,1.38-.13,1,.66-.22.52-.31.56-2.45,1.25a11.05,11.05,0,0,0-3.52,1.57c-.46.29-1.27.77-1.81,1-1.27.66-1.52.66-1.52-.22-.07-2.62,2.82-4.59,6.74-5.16a.66.66,0,0,1,.23,0ZM81,158.73a1.35,1.35,0,1,1-1.35,1.35A1.35,1.35,0,0,1,81,158.73Zm-14.75.36.44,4.59-5.46,1.41L60,160.34c2.09-.51,4.18-.87,6.27-1.26Zm70.38.35c1.5.23,1.38,3.67.61,4.27-1.18.85-1.9-.93-1.38-3.29.15-.71.42-1,.76-1Zm-67.28.19A1.35,1.35,0,1,1,68,161,1.35,1.35,0,0,1,69.35,159.62ZM96,160l6.18,1.69-1.51,4.8-5.8-1.64Zm-3.36.09a1.36,1.36,0,1,1-1.35,1.36A1.35,1.35,0,0,1,92.68,160.11Zm50.53.4c2.66,0,6.17,1.37,6.18,3.43-.05.59-5.58-.19-8.12-1.22-.9-.37-2-1.48-2-1.94,0-.28.54-.26.76,0,.36.44,1.63.89,4.55,1.63,2.24.57,2.47.59,2.47.25s-1.33-.74-2.76-1a24.25,24.25,0,0,0-2.51-.43c-.52,0-.64-.33-.21-.55A5.71,5.71,0,0,1,143.21,160.51Zm-4.7,1.07c.67.32.91.95,1.28,1.28a3,3,0,0,1-1.41.5A4.78,4.78,0,0,1,138.51,161.58ZM57.62,162a1.35,1.35,0,1,1-1.35,1.35A1.35,1.35,0,0,1,57.62,162Zm-3.63.38L55.45,167l-5.22,2.28-1.85-4.65A46.39,46.39,0,0,1,54,162.33Zm24.14.77s4.16,0,5.59,0l-.33,5.29-5.19,0Zm-5.56.29.29,5.29-5,.67-1-5.32Zm31.59,0a1.35,1.35,0,1,1-1.35,1.35A1.35,1.35,0,0,1,104.17,163.44Zm36.16.12c3,0,5.94,3.53,2.94,7.21,4.93,3.81-.43,10.21-4.79,6.48-6.23,6.15-9.72-2.2-7.14-4.41-3.81-6.28.87-10.25,5.7-7.48A3.93,3.93,0,0,1,140.32,163.56Zm-50.93.15,5.48,1.22-1.1,5.23-5.36-1.09Zm18.15.13,5,2.5-3.89,3.75-2.89-1.44Zm-32.14.59a1.35,1.35,0,1,1-1.35,1.35A1.35,1.35,0,0,1,75.4,164.43Zm10.83.17a1.35,1.35,0,0,1,0,2.71A1.35,1.35,0,0,1,86.23,164.6Zm-25,.76,1.22,5.23-5.08,1.72-1.82-5.09Zm3.49.37a1.35,1.35,0,1,1-1.35,1.35A1.35,1.35,0,0,1,64.75,165.74Zm75.17,2.41c-.38.48-.88,1-.88,1a3.48,3.48,0,0,0-3.31.25l-1.67-1.34c-1.38-1.12-1.84-1.37-1.84-.91a4.89,4.89,0,0,0,1,1.06,12,12,0,0,1,1.87,1.82,3.29,3.29,0,0,0,.34,3.18s0,.13-.52.71c-1,1-2,2.67-1.78,2.9s1.12-.41,2.16-1.82c.74-1,1-1,1-1,1.26.34,2,.65,3.22-.39a5,5,0,0,1,1.43.93c1.48,1.23,2,1.49,2.17,1.08s-.06-.57-1.32-1.52c-.82-.62-1.73-1.35-1.73-1.35a3.1,3.1,0,0,0-.46-3.07s0,.07,1.39-1.69c.9-1.17,1.05-1.32.76-1.57-.4-.52-1.72,1.56-1.85,1.73Zm-39.16-1.5,4.95,2.09-1.77,5.19-4.78-2ZM46.33,167A1.35,1.35,0,1,1,45,168.35,1.35,1.35,0,0,1,46.33,167Zm50.61.14a1.35,1.35,0,1,1-1.35,1.35A1.35,1.35,0,0,1,96.93,167.14Zm-54.06.37,1.62,4-3.68-2.76Zm40.6,1,4.93.58-.78,4.71-4.25-.39Zm-5.38,0,0,4.85-4.68.2-.4-4.84ZM54,169.44a1.35,1.35,0,1,1-1.35,1.35A1.35,1.35,0,0,1,54,169.44Zm-3.73.1,1.91,4.87-3,1.43-4-3.76Zm17.62.06.76,4.63-4.88,1.21-1.18-4.71Zm69.77,0a1.93,1.93,0,1,1-1.92,1.93A1.93,1.93,0,0,1,137.66,169.64Zm-57.12.15a1.35,1.35,0,1,1-1.35,1.35A1.35,1.35,0,0,1,80.55,169.79Zm13.29.5L99,172l-1.75,4.18-4.5-1.22Zm-23.07.17a1.35,1.35,0,1,1-1.35,1.35A1.35,1.35,0,0,1,70.77,170.47Zm19.79.5a1.35,1.35,0,1,1-1.35,1.35A1.35,1.35,0,0,1,90.57,171Zm-33.05,1.59,1.79,4.14-4.9,2.13-2.13-4.22Zm3.47.25a1.35,1.35,0,1,1-1.35,1.35A1.35,1.35,0,0,1,61,172.8ZM79,174a55.15,55.15,0,0,1,21.12,4.09l-1.74,1.63c-18.9-6.52-31.25-3.58-43.92,2l-1.28-1.59A58.56,58.56,0,0,1,79,174Zm21.38,0a1.35,1.35,0,1,1-1.35,1.35A1.35,1.35,0,0,1,100.4,174.1Zm-49.24,3c1.08.06,1.19,2.09.68,1.51l-1.21-1.4A1.17,1.17,0,0,1,51.16,177.07Zm50.51.84c0,1.54-1.49,11.86-6.4,19a50.35,50.35,0,0,0-2.12-10.74S98.43,181.23,101.67,177.91ZM38.94,193.55l25.52,34.54-2.68,0a16.79,16.79,0,0,0-3-7.07,12.07,12.07,0,0,0-4.77-3.82c-1.39-.64-1.57-.5-1.66-1.58-.42-6-5.29-9.84-9-11.29a14,14,0,0,0-6.12-10.27Zm-2.48.83c2.33,1.61,4.89,3,6.26,9.34.1,1.33.19,1.18,1.22,1.57,4.07,1.2,7.6,6.1,7.92,10.39,0,1.29.42,1.41,2,2.08A12.58,12.58,0,0,1,59,222a14.07,14.07,0,0,1,2.16,6h-1.4c-1-6.32-5-8.84-9.15-10,.33-8.92-6.58-11.7-9-12.12.14-6.42-4-9.08-6.67-11.23a8,8,0,0,1,1.53-.31Zm-4.13.89c2.09.68,3.67,3.6,3.51,4.95,2.75.35,5.65,3,5,5.8a.68.68,0,0,1-.84-.18c.74-5.4-7.29-2.73-4.08,1.18l-1.43.94a67.05,67.05,0,0,0-4.12-12.37C30.94,195.44,32.33,195.26,32.33,195.26ZM39,206.58a1.3,1.3,0,1,1-1.29,1.3A1.29,1.29,0,0,1,39,206.58Zm6.89,5.83a5.56,5.56,0,0,1,4,5.12l-.67,0c-1.08-4.93-6.68-2.25-4.34,1.69-3,1.11-2.76,3.89-1.88,5a3.19,3.19,0,0,0,5.27-.86c2.91,3.78,6.93-.46,3.39-4,2.9,1.07,3.37,5,2.93,6.2a6,6,0,0,1,2.69,2.6H35.46s1.05-8.81-.07-15.46c1.45.35,2.42.7,4.08-1.26,2.7,2.24,4.63.55,4.49-1.39a3.64,3.64,0,0,0-2.06-2.74c2.36-.58,4.14,3.51,4,5.13Zm2.43,6.21A1.34,1.34,0,1,1,47,220,1.33,1.33,0,0,1,48.3,218.62Z"/><path id="path7198-0" class="cls-3" d="M14.55,56.3a45,45,0,0,0-5.79-8,45,45,0,0,0,5.79-8,44.91,44.91,0,0,0,5.79,8A45,45,0,0,0,14.55,56.3Z"/><path id="path7202-9" class="cls-3" d="M164.24,209.3a45,45,0,0,0-5.79-8,45,45,0,0,0,5.79-8,45,45,0,0,0,5.79,8A45,45,0,0,0,164.24,209.3Z"/><path id="path7204-2" class="cls-3" d="M48.35,64.85C44.22,58,39.87,51.38,34.44,45.71,39.87,40,44.22,33.4,48.35,26.57,52.48,33.4,56.82,40,62.26,45.71,56.82,51.38,52.48,58,48.35,64.85Z"/><path id="path7222-2" class="cls-3" d="M130.44,223.09c-4.13-6.83-8.48-13.47-13.91-19.14,5.43-5.67,9.78-12.31,13.91-19.14,4.13,6.83,8.48,13.47,13.91,19.14C138.91,209.62,134.57,216.26,130.44,223.09Z"/><path id="path37-2-1-6-5" class="cls-3" d="M8.76,29.14H6.56v-3h2.2s0-1.62.08-4.46c.14-6.08.29-7,2-8.69,3.47-3.3,9.28-.61,9.21,4.36-.1,7,0,13.7-.23,14.64-.36,1.67-.4,1.76-.25,2.07.3.61,2.93.88,2.93.71v3a5.42,5.42,0,0,1-4.44-1.18,6.58,6.58,0,0,1-6.47.8c-1.84-.87-3.24-3.11-2.86-8.19Zm7.42,5.23c-1.09-1.57-2.92-3.72-4.64-4.49-.11,1.81,0,3.33.68,4.15a2.53,2.53,0,0,0,4,.34Zm.9-17.32c-.81-2.29-2.88-3.07-4.4-1.63-.95.89-1.1,1.83-1.12,6.93,0,3.15,0,4.47,0,4.47,3,1,5.71,4.4,5.69,4.36l.07-9.51a26.71,26.71,0,0,0-.23-4.61h0Z"/><path id="path37-3-27-1-5" class="cls-3" d="M170,220.51h2.2v3H170s0,1.62-.08,4.47c-.14,6.07-.29,7-2,8.69-3.47,3.3-9.28.61-9.21-4.36.1-7,0-13.7.23-14.64.36-1.67.4-1.76.25-2.07-.3-.61-2.93-.88-2.93-.71v-3a5.43,5.43,0,0,1,4.44,1.18,6.58,6.58,0,0,1,6.47-.79c1.84.87,3.24,3.11,2.86,8.19Zm-7.42-5.23c1.09,1.57,2.92,3.72,4.64,4.49.11-1.81,0-3.33-.68-4.15a2.53,2.53,0,0,0-4-.34Zm-.9,17.32c.81,2.29,2.88,3.07,4.4,1.63.95-.89,1.1-1.83,1.12-6.93,0-3.15,0-4.47,0-4.47-3-1-5.71-4.4-5.69-4.36l-.07,9.51a26.6,26.6,0,0,0,.23,4.61Z"/></g></g></g></svg>