<svg xmlns="http://www.w3.org/2000/svg" viewBox="0 0 178.78 249.65"><defs><style>.cls-1{fill:#fff;stroke:#000;stroke-width:1px;}.cls-2{fill:#d40000;}.cls-3{fill:#131f67;}.cls-4{fill:#e2cf00;}</style></defs><title>QH</title><g id="Layer_2" data-name="Layer 2"><g id="svg11376"><g id="QH"><rect id="rect10414-2-6" class="cls-1" x="0.5" y="0.5" width="177.79" height="248.65" rx="8.5" ry="8.5"/><path id="path10446-4-8" class="cls-2" d="M14.21,56.3S12.44,53.75,10,50.76c-1.6-2-2.88-4.17-3-6-.14-2.13,1.15-4.27,3.49-4.38s3.28,1.64,3.67,3.08c.39-1.44,1.33-3.19,3.67-3.08s3.63,2.24,3.49,4.38c-.12,1.87-1.4,4-3,6-2.39,3-4.16,5.54-4.16,5.54Z"/><path id="path10448-8-7" class="cls-2" d="M164.57,193.35s-1.77,2.54-4.16,5.53c-1.6,2-2.88,4.17-3,6-.14,2.13,1.15,4.27,3.49,4.37s3.28-1.64,3.67-3.08c.39,1.44,1.33,3.19,3.67,3.08a3.86,3.86,0,0,0,3.49-4.37c-.12-1.87-1.4-4-3-6C166.34,195.89,164.57,193.35,164.57,193.35Z"/><path id="path37-2-5-5-0" class="cls-2" d="M8.42,29.14H6.22v-3h2.2s0-1.62.08-4.47c.14-6.07.29-7,2-8.69,3.47-3.3,9.28-.61,9.21,4.36-.1,7,0,13.7-.23,14.64-.36,1.67-.4,1.76-.25,2.07.3.61,2.93.88,2.93.71v3a5.43,5.43,0,0,1-4.44-1.18,6.57,6.57,0,0,1-6.47.8C9.44,36.46,8,34.22,8.42,29.14Zm7.42,5.23c-1.09-1.58-2.92-3.72-4.64-4.49-.11,1.81,0,3.33.68,4.15a2.53,2.53,0,0,0,4,.34Zm.9-17.32c-.81-2.29-2.88-3.07-4.4-1.63-.95.89-1.1,1.83-1.12,6.93,0,3.15,0,4.47,0,4.47,3,1,5.71,4.41,5.69,4.36L17,21.66a26.71,26.71,0,0,0-.23-4.61h0Z"/><path id="path37-3-27-3-0-9" class="cls-2" d="M170.36,220.51h2.2v3h-2.2s0,1.62-.08,4.46c-.14,6.07-.29,7-2,8.69-3.47,3.3-9.28.61-9.21-4.36.1-7,0-13.7.23-14.64.36-1.67.4-1.76.25-2.07-.3-.61-2.93-.88-2.93-.71v-3a5.42,5.42,0,0,1,4.44,1.18,6.58,6.58,0,0,1,6.47-.8c1.84.87,3.24,3.11,2.86,8.19Zm-7.42-5.23c1.09,1.57,2.92,3.72,4.64,4.49.11-1.81,0-3.33-.68-4.15a2.53,2.53,0,0,0-4-.34Zm-.9,17.32c.81,2.29,2.88,3.07,4.4,1.63.95-.89,1.1-1.83,1.12-6.93,0-3.15,0-4.47,0-4.47-3-1-5.71-4.4-5.69-4.36L161.8,228a26.71,26.71,0,0,0,.23,4.61Z"/><path id="path3054-4-0-3" class="cls-3" d="M154.7,19.56H24.08V230.09H154.7Zm-16.09,1.7h14v81.16s-1.16,0-1.08-.59A4.2,4.2,0,0,0,151,99a5.63,5.63,0,0,1-.73-.94,3.82,3.82,0,0,0-1.43-1.68c-.24-.1-.51-.16-.55-.32s-.11-.66-.21-1.12c-.25-1.16-.48-1.13.26-2.28,2.55-4,3.53-7.7,3.21-11.36a12.84,12.84,0,0,0-.52-2.83c-2.46,2.48-4.24,5.55-5.92,7.82a78.78,78.78,0,0,1-.37-8.28,3.66,3.66,0,0,0,2.68-2.88s1.41,1.11,2.27,1L149.14,74c3.77-1.16,4.29-6.12-.17-7.16l.4-2.61s-1.34.45-1.93.74c-.29.13-.37,0-.57-.4-2.08-3.25-5.3-2.56-6.72.65l-1.74-.74a7,7,0,0,1,.25,2.67c-3.65,1.64-2.75,6.11.17,6.7L138.58,76l2.19-.71a3.34,3.34,0,0,0,1.91,2.66c0,4.38-.11,7.12,0,11a18,18,0,0,0-8.35-5.19,13.67,13.67,0,0,0,.19,2.38c.07.47.06.4-.16.4-.5,0-2.76-3.67-2.76-3.67a.77.77,0,0,0-.49.23c-.27.27.35.77,1.21,2.06,1,1.51.91,1.45.12,2.13-4.52,3.86-11.05,18.57-10,20-2.86.17-14,5.67-16,17-.12.51-.36,1.17-.36,1.17l-3.22-.8c1.94-9.29,6.33-28.17,6.33-28.17a39.09,39.09,0,0,1,4.89-1.08l0-.73-4.25,1,.2-1.62,4-.79v-.38l-4.24.57.69-2.69S101,92.15,97.57,92c.22,10.48-.61,19.18-.16,30.47l-4.65-2.84c-.41-7.86-.54-27.72-.54-27.72l-12.85-2L79.79,93C69.14,88.8,58.45,84.88,50.59,76.57c4.84-3.74,12.93-7.46,12.93-7.46l-.27-.6C43.37,78.84,36.16,86,26.17,94.9V21.26H80l-.18,13.5a1.45,1.45,0,0,1-.17.47c-.66,3.25,1.24,9,.86,11.82a13.94,13.94,0,0,1,.12,2.48,40.68,40.68,0,0,0-6.4,13.9c-.56.22-1.38.68-2,.84l-.17.71A42.12,42.12,0,0,1,77,63.12c16.05,7.88,27.85,6,40.48.1-2,7.12,2.36,16.16,9.57,18.07a7.3,7.3,0,0,0,3,.19c.81-.23-1.82-6.27-3-6.5-3.48-1.52-4.91-5.08-4.54-9.17l-.58-1c-1.19,5,1.67,10,5.59,11.24l1.05,2.32c-7.1-2.15-10.13-8.84-7.76-15.46,0-4.13-2.62-6-3.84-7.74-6.18-2.37-7.32-8.13-6.24-12.79,2.88,1.23-1.94-4.09-1.94-4.09-2.12,4.62-3,10.46,1.84,16.38A42.28,42.28,0,0,1,99,65c-6.6,3.47-11.55,1.13-14.74-6.55a35.5,35.5,0,0,1-2.59-14c0-3,0-3.07,1.15-2.57a6.41,6.41,0,0,0,4.65-.16c1.84-1,1.75-.37-.25,1.7a10.21,10.21,0,0,0-1.13,1.18c0,.61.86.1,2.08-1.12.45-.45.78-.87.92-.87s.15.58,0,1.2c-.07.24-.29,1.24-.5,2.23s-.49,2.15-.62,2.58c-.54,1.71-.4,2.51,1.24,3.3a12.76,12.76,0,0,1,2.32,1.84,7.57,7.57,0,0,1-.22-2.06c.16-.6.87-.18,1.59.17,1.6.77,2.53.79,3.39.07a2.36,2.36,0,0,0-.62-3.82c-1.07-.43-1.26,0-.19.72,1.61,1.13-.21,2.88-1.57,1.79-1.07-.85-2.92-.94-3.13-.24s-.4.55-1.14.11c-1.15-.68-1.16-.8-.2-4.53,1.83-7.07,1.65-9.67-.77-11.82a6.55,6.55,0,0,0-7.82-.56V31.17c4.5-1.81,7.78-4.9,10.42-9.91h.52c2.63,5.74,6.88,9.94,14.88,13,3.12,3.11-4-8.92-1.7-4a19.62,19.62,0,0,1-10.11-9h1.16A21.77,21.77,0,0,0,104,28.59c1.92,0-2.82-5.85-3.51-7.33h36.87c-1.17,9-2.82,18.72,3.67,36.33C138,56,125.8,59.41,128,60.08c1.08-1.25,8.85-3.1,14.6-1.73-.48-.41-8.77-19.83-3.94-37.09Zm3.94,37.09s0,0,0,0Zm-28.49,34.9,0,1.42.29-.07-.17-1.38Zm-33.29-72h1.62a4.08,4.08,0,0,1-1.66,1.83Zm2.78,0H85.3a13.09,13.09,0,0,1-4.54,4.61l0-1.7a22.82,22.82,0,0,0,2.77-2.9Zm2.88,0H88c-2.18,3.37-4.42,5.72-7.29,7.16V27A24.83,24.83,0,0,0,86.43,21.26Zm2.45,0h1.3a18.33,18.33,0,0,1-9.43,9v-1A19.67,19.67,0,0,0,88.89,21.26Zm3.55,0H94a21.94,21.94,0,0,0,11.48,10.2l.75,1.74c-6.44-2.33-10.7-5.81-13.78-11.94Zm4.52,0h1.12a16.49,16.49,0,0,0,4.25,4.18l1,2A20.8,20.8,0,0,1,97,21.26Zm2,0h1.25l1.65,2.92c-1.1-.62-1.93-2-2.9-2.92ZM97.56,32.47a6.82,6.82,0,0,0-4.39,1.39c-1.19,1-.31,2,1.4,1.24,2.91-1.36,6.26-.75,9.87,1.24,3,1.68,2-.07-.86-1.94A11.1,11.1,0,0,0,97.56,32.47Zm-13.73,2.2c2.45,0,5.26,1.11,5.32,2.56a7.94,7.94,0,0,0-8-.63c-.24-.05-.27-.91-.13-1.22A4.8,4.8,0,0,1,83.83,34.67Zm14.84.93A4.54,4.54,0,0,0,95,36.88c-.33.42-.42.46-.79.4-.72-.12-.68.3.14,1.45a1.56,1.56,0,0,1-.2,1.95c-.61.87-.49.9,1.33,1.78a40.89,40.89,0,0,1,3.78,2.45c.91.51,1.09.06.25-.62-.29-.23-1.14-.84-1.9-1.34-1.29-.85-2.24-1.7-1.21-1.32a6.37,6.37,0,0,0,1.11.3,9.52,9.52,0,0,0,3.77.22A6.45,6.45,0,0,0,104,40.71c.22-.1.44,0,1,0,2,.08,1.59-.52-1.34-2.13s-5.17-1.88-7-1c-.78.37-1.23.46-1.12.23a1.74,1.74,0,0,1,.69-.73c3-1.8,5.4-.31,8,1,1.13.68,1.44.86,1.57.64s-1.26-1.3-3.19-2.28a8.91,8.91,0,0,0-4-.91ZM89.1,37.69c.51.2.28.78-.18.6-2.76-1.25-3.32-1.86-6.61-.7-1.09.38-1.52,0-.18-.53C85,35.82,87.14,36.65,89.1,37.69ZM87.2,39.16c-.75,3.83-4.53,2.65-4.11,0h.7c.05,2.31,2.35,2.3,2.75,0Zm22,0,1,2.19a11.28,11.28,0,0,0,7.38,14.75s1.06,1.64.85,1.85C106.11,55.21,107.06,43.35,109.21,39.16Zm-11.7.14.35,0c1.07,2.67,2.62,1.13,2.92,0l.79,0c-.24,2.76-4.4,3.23-4.05,0ZM88,39.39c.5-.06.67.7.53.84s-1,.93-1.07.41A1,1,0,0,1,88,39.39Zm-5.76.08h.13a1.32,1.32,0,0,1,.27,1.32c-.18.19-.93-.07-1.07-.36a.67.67,0,0,1,.67-1Zm20,.25c.24,0,.92.3.85.63,0,.08-1,.77-1.16.66-.41-.22.16-1.21.23-1.27l.08,0Zm-5.46.12h0A.71.71,0,0,1,97,41a1.57,1.57,0,0,1-.72-.27C96.2,40.28,96.71,39.87,96.8,39.84Zm15,4.85c-.15,3.18.67,6.26,4.12,8.24l-.74-1.36c-.88-.71-2.73-2.73-2.5-5.14ZM80.83,50.36l.39,2.09a47.71,47.71,0,0,0-4.53,9.93L74.9,63A39.44,39.44,0,0,1,80.83,50.36Zm.75,3.26.51,1.8a27,27,0,0,0-2.53,6l-2,.74A28.87,28.87,0,0,1,81.59,53.62Zm6.28.74h-.09c0,.35,0,1.33.06,2.95,0,.31.31.18,1.15-.26s.66-.44,1.37-.2a5.22,5.22,0,0,0,3.63.18,2.52,2.52,0,0,1,2.33.23,5.77,5.77,0,0,0,1,.43c.54.2.33,0,0-1.51-.41-1.65-.24-1.83-.89-1.4a2.6,2.6,0,0,1-.79.35c-.57.07-1.53-.64-2.1-.42-1.38.54-1.37.4-2.65.09-.64-.16-1.26.23-1.81.35C88.71,55.21,88.31,54.36,87.86,54.36Zm23.5.86c2.33,2.16,4.73,2.89,7.33,3.71-.31,1.07-.94,2.28-1.23,3.68-13.54,7.21-27.15,7-40,.44l6.66-2.56c3.64,6.35,8.31,8,13.55,6A35.41,35.41,0,0,0,111.36,55.22ZM82.42,56.49,83,58l-.86,2.35-1.63.67A13.52,13.52,0,0,1,82.42,56.49Zm12.24,1.8a13.37,13.37,0,0,1-2.41.3,15.73,15.73,0,0,0-1.64,0c-.61.12.1.4,1.46.79s3-.2,3.23-.79c.05-.15-.13-.32-.64-.29Zm-11.28.77.36.79-.61.22Zm36,.45,1,2.32c-1.75,3.82-2.92,14.28,8.78,17.54l.51,1.5c-8,.16-15.94-10-10.3-21.35Zm-26.78.79a5.07,5.07,0,0,0-3.11.89c-.7.55.16.91,1.06.46a5,5,0,0,1,4.28.2c.88.6,1.34.5.75-.42a3.67,3.67,0,0,0-3-1.13Zm51.07,2.61c3.06-.05,3.37,4.36,2.78,4.73a4.24,4.24,0,0,1,1.44-.19c2.24.06,3.41,1.31,3.54,3.12s-1.25,2.85-3.26,2.75c-.75,0-1.26-.11-1.23,0,.37,1.46-.08,3.66-2,4.21a1,1,0,0,0-.54.48c-.14,2.32.51,10.27.51,10.27s3.6-6.1,4.41-7c1.59-2.18,2.16-2,1.88,1.64-.39,5-1.15,6.16-4,10.39-1.26,1.82-4.24.86-4,2.09a4.08,4.08,0,0,0,1,1.22,1.61,1.61,0,0,0,1.35.46c1.27,0,1.77-.3,1,.81-.6.88-2.71,1.06-2.95,1.52-.55,1.06-.17.83-1.12,1.76-.72.8-.47.39-.14,1,.52.85.3,2.54-.21,3.68a3.65,3.65,0,0,0-.37,1.59,6,6,0,0,0,1.53-2.71c.29-1.24.64-1.86.63-1.17,0,.88.15,2.07.93,2.52.62.36.71.72.61,1.16s.38.86.86,1.24c.11.11.49.26.45.5-.13.76.18,1.66.73,1.81.25.12,1.81,0,2.07-.9,0-.28,0-1.45-.63-1.52-.44-.2-.4-.33.27-.73a8.87,8.87,0,0,1,2.22-1.12,2.64,2.64,0,0,0,1.3-.81l.13,48a140.49,140.49,0,0,1-21,18.17,103,103,0,0,0-16.2-11.58l-2-1.19.71-.92-3.46-4.6,3.9-3.16,1,1.26-1.85,1.8,2.77,3.08,6.22-6.11-4.1-3.95,2.13-4,1.37.67-1,2.55,3.12,2,3.9-7.8-4.95-2.27,1.25-5.24,1.53.16-.51,3.77,3.86.77,1.57-8.9-5.66-1,.48-5.08,1.58,0-.23,2.81,4,.57.75-7.76-5.55-.93.71-6,1.27.18-.25,3.69,4.07.7c.45-2.5.81-5.65,1.48-8.11l-5.24-2,1.86-5,1.18.41-1,2.73,3.87,1.66,3.26-6.48-4.56-3.25a21.14,21.14,0,0,1,3.5-4.71l.9.79a6.84,6.84,0,0,0-.83,1c-.61.86-.81,1.29-.72,1.51a19.79,19.79,0,0,0,3.11,2.31,5.51,5.51,0,0,0,1.66-1.43c.52-.62.79-.68,1.32-.29a2.44,2.44,0,0,1,.37.36.77.77,0,0,1,.19.38.3.3,0,0,1,0,.2,1.84,1.84,0,0,1,.35-.24c.38-.21-.74-1.21-1.66-1.73-2.75-1.55-6-4.48-6.73-8.15-.27-1.64,3.95.33,6.86,3.25l2.08,2c-.24-4.23-.58-8.54-.4-12.82l-.64-.45a3.48,3.48,0,0,1-1.33-2.7c-.06-.71.55-1.08-.84-1-2.9,0-4.57-2.72-2.81-5.06.63-.88,3.3-1.31,3.29-1.29a3.43,3.43,0,0,1,2.87-4.45Zm-1.05,32.62,3.83-27.89-.08,0ZM50.07,76.8c8.08,6.85,13.24,11.46,29.7,16.63l.41,2.45c-9.46-2.2-19.78-6.65-32.05-17.72Zm-2.43,1.58A83.71,83.71,0,0,0,63.31,89.93l1.86,1.13-1,1,3.13,4.54-4,3.3-1-1,2.1-2.07-3-3-6.09,6.2,4.17,3.72-2.42,3.74-.88-.4,1.28-2.61-3.88-2.13-4.33,8L54.86,113l-1.25,4.92-1.29-.07.43-3.86-4.15-.74-1.4,9,5.34.84-.13,5.19-1.42,0,.1-2.93-4.21-.2-.38,7.56,5.19.68-.51,6.14-1.28-.33.14-4-4-.39-1.36,8.47,5.33,1.53-1.88,5.28L47,149.45l.76-2.73c-1-.43-3.71-1.57-3.71-1.57l-3.48,6.58,4.52,3.1-2.78,4.92L41.26,159l1.92-2.87-3.75-2.37-2.14,2.94a40.29,40.29,0,0,1-3.16-2.63,1.9,1.9,0,0,0-2-.5c-.67.16-1.33.28-1.18,0a37.92,37.92,0,0,1,3.31-2.24c.55-.35,1-.65,1-1s.3-.6.69-.84.34-.51.27-.79a8.92,8.92,0,0,1,.6-5.34c.5-1,.65-1.23.33-1.23-1,.12-2.12,3.6-2.34,4.58a10.94,10.94,0,0,1-.25-1.35c-.12-.64-.21-1-.72-1.15s-.42-.44-.48-.9a1.7,1.7,0,0,0-1.08-1.48c-.61-.25-.68-.36-.65-1a2.53,2.53,0,0,0-.87-1.55l-2.11.75a1.6,1.6,0,0,0,.4,1.56c1.06,1-.49,1-1.56,1.68-.29.19-.63.6-.87.46-.68-.22-.62,1.81-1.29,1.56l.16-48.79c5.67-5.91,22.18-18.23,22.18-18.23ZM133.26,87l.81.91a51.93,51.93,0,0,0-6.38,9.41,38.43,38.43,0,0,0-4,12.07c-.6,2.87-.7,5.79-1.07,8.73-.38,3.16-.45,7.42-1.05,10.76-1.11,9.16-3.66,14-9.21,19.22-2.44,2.28-10,6.6-10.24,6.55l-1.8-.45c15.57-8,19.46-13.56,21.14-32.55.33-23.83,11.09-33.06,11.79-34.66Zm1.53,1.6.83.81-4.54,6.46,4.48,3.18-1.78,4.18-1.36-.51,1-2.85-3.77-1.6-3,8.3,5.37,1.7-.88,5.41-1.08-.29v-3.68l-4-.82-1.16,9.27,5.87.82-.43,4.78-1.39-.1-.05-2.85-4.07-.22-.93,8,5.78,1-1,5.71-1.23-.29.28-3.77-3.87-.51-2.24,7.71,4.87,2.47-2.4,4.94-1-.72,1.33-2.92-3.79-1.88-3.66,6.38,4,3.93-3.87,4.09-.87-1.12,2-2.17-3-3-6.21,5,3.17,4.21-.37.53-3.28-1.32-1.57-2.09-1.88.83-1.48-.57c9.18-4.84,15.15-10.46,17.61-18.93,1.35-4.68,1.76-9.79,2.2-14.95.23-2.67.46-5.36.85-8A40.24,40.24,0,0,1,127,101.07a47.63,47.63,0,0,1,7.83-12.46ZM85.42,91.8l6.3,3.34-.09,2.22L85.8,94.43Zm1.77.06,4.49.62,0,1.82Zm-20.24.06,2.62,1.19,2.22,2.58,1.66-1.1,1.81.68c-5.71,3-10.77,6.49-14.72,12.59-4.4,6.8-4.88,15.7-5.45,24.29-.94,11.85-3,20.17-10.78,29.77l-1.15-.73,4.22-6.75-4.76-3.1,2.17-4,1.1.38L45,150.11,49,152.2l3-8.51-5.55-1.74.93-5.32,1.4.12-.37,3.81,4,.63,1.14-9-5.35-.83.12-4.75,1.31.13v2.89l4.22.23.33-8.21-5.24-.58.65-5.79,1.47.15-.34,3.48,4,.58,1.92-7.5-5.24-2.38,2.83-5.07,1.27.59-1.3,2.81,3.64,1.78,3.81-5.87-4.05-3.92,4-4.19,1,1-2.16,2.5,3,2.79,5.93-5-2.9-4.38Zm37.71.28-.18,2.1-6.32,3.61V95.85Zm33.9.07,1.39.87-1,1.21-1.22-.77Zm-36.56.3-3.78,2.2V92.58Zm44.61,2.05a1,1,0,0,1,.52.14.72.72,0,0,1-.1,1.17c-.56.39-2.09.37-2.25,0-.22-.59,1-1.29,1.83-1.27Zm-60.38.87,5.43,3,0,2.08-5.22-2.89Zm17.69.07-.32,2.71-5.59,3,0-2.35Zm-27.06.05,2.23.57c-8.24,3.7-16.38,9.07-19.55,18.44a43.33,43.33,0,0,0-2.09,9.92c-.2,4.21-.74,8.36-.94,11.87-.4,7.15-2.74,16.84-10.82,27.13l-.77-.61A46.05,46.05,0,0,0,54,145.31c2.52-9.37,1.27-19.72,4-29.15a31.85,31.85,0,0,1,10.15-15.31,56,56,0,0,1,8.72-5.25Zm3.74.79h0c2,6.78,4.47,19.14,4.47,19.14C79.82,113,71,113.43,71,113.43s-5-6.44-5.92-7c4-5.38,14.75-10,15.51-10.08Zm68.14,1.07c1.22,0,1.13,1.83-.41,3.09-.79.65-1.15.56-1.73,0a1.28,1.28,0,0,0-1-.35c-.86,0,.84-1.8,2.37-2.55a2,2,0,0,1,.81-.23ZM86.87,99l4.84,2.5,0,2.06-4.48-2.45Zm16.41.28-.26,2.26-5,2.64,0-2.09Zm47.16.84a.47.47,0,0,1,.42.19c.69.77-.62,3.1-2.1,3.8a1.09,1.09,0,0,1-1.39-.19c-.23-.2-.57-.46-.76-.44-.85.09-.38-.87.3-.92a13.92,13.92,0,0,0,2.27-1.66,2.92,2.92,0,0,1,1.26-.78Zm-5.12.91c1.07,0,1.46.87.19,1.26-.9.28-1.41.08-1.4-.53C144.3,101.11,144.85,101,145.32,101Zm-57.79,1.21,4.29,2.17,0,2.22-3.94-2.07Zm15.37.31-.3,2.1L98,107v-1.74Zm48.48.88c.29,0,.38.35.38.93a2.59,2.59,0,0,1-1.59,2.29c-.7.32-1.19.29-1.54-.08a1,1,0,0,0-.49-.31c-1.49-.06-1.25-.45.18-1a14.42,14.42,0,0,0,2-1.24,2.14,2.14,0,0,1,1.11-.54Zm-5.48.68c.73,0,1.38.52,1,.86a2.14,2.14,0,0,1-1.73.15C144.7,104.65,145.09,104.09,145.9,104.09Zm-57.65,1.5,3.66,2,0,2.11-3.5-2Zm14,.16-.08,2.16L98,110l0-2.06Zm45.21.9c.71.05.62.75,0,1.08a.87.87,0,0,1-1.21-.21C145.82,106.54,147,106.66,147.5,106.65Zm1.43,2.22a.69.69,0,0,1-.18.8c-.31.13-1.12,0-1.25-.24s-.08-.3.12-.5S148.69,108.47,148.93,108.87Zm-60.15,0,3.13,1.72,0,2.08L89,111Zm13,.05-.15,2L98,112.78l0-1.95ZM63.7,110.22c.78,0,1.38.53.92,1.42-.29.56-.5.76-1.75,1.65-.51.36-1,.69-1,.74s-.36.27-.57.42c-1.12.78-.73-.85.67-3.24A2,2,0,0,1,63.7,110.22ZM101.5,112l-.29,2.2L98,115.87v-2.12Zm-12.23.21,2.63,1.31,0,2.14-2.39-1.26Zm31.59.17a.23.23,0,0,1,.21.1,4.28,4.28,0,0,1,0,2.36c-.37.87-1.08-1.33-1-1.89a1.22,1.22,0,0,1,.75-.57Zm-55.28.4c1.06,0,1.83.71,1.47,1.8s-2.82,1.7-3.9,2.43c-.71.35-.88,0-.66-.65.1-.29.18-.51-.36-.59-1.31-.2-.51-.84,1.89-2.46a2.92,2.92,0,0,1,1.56-.53Zm52.74.69a1.89,1.89,0,0,1,1.32.74c.83.9,1.42,2.8,1,3.3-.34,0-.52.47-.53.68-.05.6-1.14-.49-2.16-2.22-.83-1.39-.43-2.5.4-2.5ZM74,113.78c3.24,0,9.43.65,18,6.05a38.45,38.45,0,0,0,3.42,2.06,31.42,31.42,0,0,0,10.12,3.75l-.12,2.18c0,.69,1.09,4.68.57,6.92-.77,0,.74.66.74.66l1,2a58.31,58.31,0,0,1-7.48-.51c-3.77-.62-10.64-3.83-14-6.36a34.35,34.35,0,0,0-13.13-5.49l-.06-1.88a69.41,69.41,0,0,0-.8-7.31l-.82-2c.2.08,1.06-.07,2.54-.08Zm27,1.41-.25,2.16L98,118.69v-1.85Zm14.22.1c.8,0,2,.94,3.39,2.82a3.21,3.21,0,0,1,.6,1c0,.23-.1.37-.33.34-.54-.1-.74-.3-.9.38,0,.17.06.47-.13.42-1-.29-3.74-3.1-3.57-4,.13-.68.46-1,.94-1Zm-25.41.14L92,116.54l.09,2.13-1.85-.8Zm-22.35.65a1.15,1.15,0,0,1,1.24.73c.49,1.2-.38,1.93-2.95,2.47-2.23.54-2.19.57-1.88-.27.21-.55-.48-.62-.87-.76-.65-.25-.12-.33,1.76-1.27A7.14,7.14,0,0,1,67.53,116.08Zm-7.43.57c.06,0,.14.06.25.19a8.62,8.62,0,0,1-1.7,12.59c-.47.31-.48,0-.43-.6l.08-1.18c0-.23,4.72-3.14,1.25-9.61l.29-.91c.09-.29.16-.48.26-.49Zm53.07,1.23c1.28,0,4.88,3.29,3.35,3.41-.18,0-.12.25-.12.4a2.22,2.22,0,0,1,0,.54c-.11.29-.53.23-1.18-.16a11.75,11.75,0,0,1-2.58-1.83c-1.12-1.06-.8-2.37.57-2.37Zm-12.68.57,0,1.77-2.56,1.25,0-1.6ZM68,119.71c1.73-.06,2.7,1.67,1,2.58-.69.36-3,.11-4,0s-.49-.46-.42-.57c.16-.27.29-.31-.33-.68-.49-.52-.78-.65.46-.81a22.27,22.27,0,0,0,2.56-.39A2.8,2.8,0,0,1,68,119.71Zm52.53.42c.13,0,.11.21.06.76l-.08,1.18c-.79.13-4.69,5-1.52,10.7l-.27,1c-.12.5-.16.57-.57.26-2.38-1.65-3.15-10.08,1.78-13.56A2.22,2.22,0,0,1,120.53,120.14Zm-9.27,1a4.26,4.26,0,0,1,1.67.43,8.37,8.37,0,0,1,2.73,1.61c.14.23-.08.42-.38.5s-.41.26-.31.69c0,.25.06.53-.25.55a7.86,7.86,0,0,1-3.18-1.09C109.32,122.63,109.62,121.09,111.26,121.12Zm-11.22,0v2.16l-2.11-1ZM64.73,123a7.48,7.48,0,0,1,.91.11,11.61,11.61,0,0,0,1.59.14c2.4,0,3.39,1.64,1.41,2.5-.54.23-.77.21-2.25-.22-.71-.21-1.58-.42-1.93-.53-.71-.2-1-.43-.49-.59s.48-.46.2-.86c-.07-.41.06-.56.55-.54Zm55.79,0c-.34,3.34-.62,5.94-1.12,9.21C119,132.07,116.45,125.91,120.52,123Zm-10.1,1.6a11.09,11.09,0,0,1,3.38.82c1.12.42,1.26.53.49.86-.47.2-.41.38-.27.69s.62.69,0,.6a21.81,21.81,0,0,1-3.34-.16c-1.81-.32-2.3-2-.82-2.73A1.32,1.32,0,0,1,110.42,124.6Zm-46.49.84a4.66,4.66,0,0,1,1,.27c3.25,1,4.57,2.28,3,3.5-.46.35-1.18.2-2.53-.56a12.66,12.66,0,0,1-2.33-1.48c-.26-.27-.12-.59.28-.56s.46-.24.42-.69S63.71,125.45,63.93,125.45Zm8.77.3,2.49.57L69,153.71a22.37,22.37,0,0,0-4.84,1.69l4.3-.75-.37,2-3.91.74-.09.59,4.47-.81s-.16,1.87-.32,2.59c4.27-.35,8.49-1.54,12.78-1.58,0,0,.1-21.62.09-24,0-2.55,0-5.59,0-5.59L85.4,131l.71,27.25,13.49,2.21c-.09-.46-.46-2.57-.46-2.57,10,3,20.14,7.36,29.11,16.43-4.18,2.28-8.12,4.53-12.18,6.72l-.59.85a150.22,150.22,0,0,0,37.17-26v72.25H98.89v-6.73l0-6c-.22-3.86.45-8.12-.73-11.36L98,200.64c3.33-3.9,5.13-8.82,6.72-13.85,0,0,1.6-.62,2.38-.9l.27-1c-1.55.8-5.11,2.13-5.11,2.13.38-.3-7.56-3.67-12.47-4.46a48.69,48.69,0,0,0-27.67,4.37c-.43.3-.61.29-.5-.1a13.76,13.76,0,0,0-9.68-16.94,11.43,11.43,0,0,0-2.87-.45l.13.65c12.18,1.38,15,14.34,10.35,20.36-1.23,2-1.42,2.57,1.16,2.5,10.43-.09,14.05,11.65,9.3,18.14a7.26,7.26,0,0,1,.38.76,13,13,0,0,0-1.5-16.69c3.88-4.36,11.34-11.34,17.79-10.93,2.35.15,4.66,3,6.21,5.29,3.27,4.83,4.1,11.58,4.34,15.44.06,1,.19,1.74.19,2.27,0,1.54-.29,1.36-1.28,1.1a8.44,8.44,0,0,0-4.2,0c-2,.62-1.7.27.1-2,1.06-1.32,1.2-1.73.76-1.82-.13,0-.58.43-1.17,1.34-1.77,2.75-1.64,1.62-.35-2.67.83-2.79.75-3-1.52-4.71a18.68,18.68,0,0,1-1.76-1.3c-.43-.91-.61.23-.22,1s-.42,1.07-1.81.31c-3.28-1.83-5.42,1.88-2.49,3.48.69.38,1.08.07.54-.43-1.8-1.68-.55-3.09,1.89-1.61,1.41.86,1.95.58,2.42-.49.26-.44,2.45,1.14,2.45,1.75a14.32,14.32,0,0,1-.5,2.55,44.57,44.57,0,0,0-1.2,4.77c-.55,2.86-.54,4.33.05,5.58a6,6,0,0,0,7.54,3,8.21,8.21,0,0,1,1.22-.3l0,2.07c-5.69,2.17-9.8,8.94-9.62,9.17h-2a24.08,24.08,0,0,0-13.46-11.68c-1.18-1,.29,2.75,1.65,3.58,2.86,1.46,6.65,4.06,8.74,8.09l-1.44,0A23.64,23.64,0,0,0,75.56,222c-.51-.11.37,4.88,2.44,6.42l-37.1.65c2.53-10,3-21-2.91-35.55A28.11,28.11,0,0,0,51.26,191l-.36-1a26.82,26.82,0,0,1-14.56,2.11c3.79,7.07,7.12,21.77,3.88,36H26.17V150.62a9.94,9.94,0,0,1,1,.66,3.64,3.64,0,0,1,.84,1.54c.16.6.32.63,1.17,1.27.41.31.64.58.64.74a1.56,1.56,0,0,0,.25,1.06c.75.91.62,1.49.05,2.08-2.61,2.74-4.25,8.48-2.92,14.54,3.1-2.1,6.28-7.59,6.38-7.6l.3,7.5A3.23,3.23,0,0,0,31.64,175a5.26,5.26,0,0,1-2.77-.43l.63,2.21a3.61,3.61,0,0,0,.33,6.9s-.34,1.71-.62,2.63l2.39-.37c1.39,4.18,6.72,2.84,6.7-.07,0,0,1.62.61,2.24.89l-.6-2.85c6.06-3,1.53-7,.14-7,0-.79.38-1,.71-2l-2.45.15a4.39,4.39,0,0,0-2.16-2.51l-.34-10.73A31.25,31.25,0,0,0,42,166.42c2.27,1.19,2.5.93,2.16-1.13a9.4,9.4,0,0,1-.14-1.54c.85.2,3,3,2.89,4.39.78,1,1.49-1.74-.53-4.1a44,44,0,0,0,10.35-21.47l7.15-2.87.08-.94c4.87-3.28,7.41-7.85,8.75-13Zm6,1.68,1.65.74-1.87.93Zm-15.85.45a10,10,0,0,1,1.46,1c1.4,1,2.21,1.74,2.24,2.37a1.06,1.06,0,0,1-.57.9c-.84.45-1.65.08-3.48-1.8a14.73,14.73,0,0,1-1.16-1.2c-.21-.31-.06-.61.29-.48C63.05,129.28,61.77,127.41,62.79,127.88Zm50.39.39a4.16,4.16,0,0,1,.7,0c.4.08.51.31.27.53s-.27.69.11.87.16.39-.16.58a4.53,4.53,0,0,1-.86.34c-2.25.71-3.9.5-4.33-.56-.5-1.21.46-1.8,3.2-1.8ZM80.49,129l0,1.62-2.33,1.13.25-1.65Zm-19.8.51c.2,0,.54.33,1,.93,2.25,2.77,2.55,3.31,1.82,4s-2.1,0-3.41-2.4a7.63,7.63,0,0,0-.52-.9c-.48-.57-.27-.75.34-.7.34,0,.5-.09.5-.44s.09-.54.25-.53Zm53.85,1.4c.41,0,.38.14.2.62s-.37.56.22.83c.1,0,.32.32.12.44a24.5,24.5,0,0,1-3.32,1.53c-1.47.49-2.38-.72-1.51-1.92.36-.5,2.85-1.41,4.09-1.5h.2Zm-55,1.61c1.49,2.24,1.68,3.29.7,3.94-.62.48-1.95-.21-2.25-1.66a5.84,5.84,0,0,1,0-3.19c.54-1.4,1.38.67,1.54.9Zm21-.93v1.75l-2.83,1.43.26-1.93Zm5.77.07,2.66,1.74.15,1.49-2.75-1.53ZM116,133.37c.07,0,.11,0,.11.12s-.05.94.35,1c.78.13.61.38-.08,1a12.93,12.93,0,0,1-2.32,1.93c-2.31.86-3-1.6-.85-2.88a9,9,0,0,1,1.95-.89A6.35,6.35,0,0,1,116,133.37Zm-29.65.9,3.09,1.83.11,1.84-3.07-1.57Zm-6,.17V136l-3,1.74.25-1.79Zm12.47,1.31c.85.4,11.81,3.46,15.44,2.42,0,0,3.1,4.51,5.4,6.12-3.56,5.25-15.6,10.41-15.6,10.41Zm24.66.11c.2,0,.25.19.25.57,0,1.09-1.83,5.1-3.24,3-.39-.77,0-1.56,1.25-2.5,1-.75,1.49-1.1,1.75-1.11Zm-59.65.63c.27.3.15,1.21-.43,1.15-.17,0-.19-.95-.08-1.45C57.51,136.11,57.77,136.4,57.86,136.49Zm22.55.51,0,2-3.58,2,.38-2.26Zm5.91.29,3.54,1.9.42,2.25-3.92-2Zm-5.92,2.77v2.05l-4,2.08.27-2Zm6,.18,4,2.27.52,2.14-4.42-2.3Zm-56.13.07a.62.62,0,0,1,.39,1.13c-.32.3-1.24.24-1.32,0C28.92,141,29.49,140.31,30.26,140.3Zm1.21,2.17a.89.89,0,0,1,.27,0,.83.83,0,0,1,.47,1.19c-.53.72-1.92.22-1.72-.68C30.55,142.76,31.06,142.5,31.47,142.47Zm48.86.69V145L76,147.32l.28-2.05Zm6.18.26L91,145.85l.35,2.06-4.85-2.54Zm-57.18.05a.48.48,0,0,1,.48.21,1.49,1.49,0,0,0,.5.71c.58.34.65.41-.46.9a15.43,15.43,0,0,0-1.71,1.05c-1,.67-1.38.44-1.45-.34-.09-1,1.7-2.48,2.64-2.53Zm3.38,1.5a1,1,0,0,1,.61.14.59.59,0,0,1,0,1c-.83.53-2.12-.2-1.43-.83a1.32,1.32,0,0,1,.79-.31Zm47.61,1,0,2.38-4.87,2.59.32-2.42Zm-50,.28a1.33,1.33,0,0,1,.89.25A1.17,1.17,0,0,0,32,147c.84,0,.57.34-.31.74a10.66,10.66,0,0,0-2.93,2.08c-.91.85-1,1-1.27.68-1.11-1.29,1-4.14,2.78-4.24Zm56.28,0,5.11,2.81.44,2.38-5.55-3.11Zm-52.93,1.68a.82.82,0,0,1,.55.17c.36.3.15.88-.35,1.13a1.43,1.43,0,0,1-1.33-.08c-.48-.49.39-1.21,1.13-1.23Zm-2.47,1.2c.31,0,.59.37.85.8.09.11.44.06.69.06,1,0,1.09.41.16.93a18.18,18.18,0,0,0-1.76,1.35c-1.6,1.54-2.47,1.18-2.27-.4a3.28,3.28,0,0,1,2.33-2.75Zm55.4.15,5.63,3.11.55,2.56-6.19-3.36Zm-6.22,0,0,2.36L75,154.52l.41-2.39Zm6.3,3L93,156.19l.23,2.5-6.54-3.79Zm-6.31.42v2.31l-5.87,3,.3-2.18Zm-47.63,1.53a.93.93,0,0,1,.41.07c.69.32.51.87-.53,1.44s-1.41.48-1.64-.17S31.93,154.3,32.74,154.28Zm65.91.31c11,2.53,21.72,8,32.16,17.55l-2.18,1.55S119.48,163.2,99.17,157Zm-11.91,1.1,3,1.81V158l-3.05-.25Zm-51.87,0a6.13,6.13,0,0,1,1.52.67c4.37,3.18,6.12,5.09,7.21,8.58.65,2.09.64,2-1.5.87a21,21,0,0,1-6.54-5.16,99,99,0,0,0,.34,12.17c2.73,1.35,1.85,4.88,1.84,4.86,7-1.93,5.49,7.4.25,5.39,1.25,7-6.71,6.43-5.9.43-6.34-.25-5.22-7.2,0-6.24a3.53,3.53,0,0,1,2.15-4.52l-.3-9.17s-5.16,7.46-6,7.35c-.51-.07-1.27-.93,0-7.47.67-3.41,4.26-7.56,6.27-7.69.35,0,.5-.06.64-.05Zm5.05.07.93.64L40,158l-1-.7Zm40.42.45,0,1.37-2.84.17ZM50.59,172.69c6.69,1,10.79,9.29,7.69,15.26-.37.27.2,1.57.58,1.08,3.27-4.66.83-16.12-8.69-17.21-1.94-.24-.18.35.42.87Zm1.08,2.2c-.54,1.49-.68,1.84.7,1.24,2.44.91,5.07,4.9,4.23,8.91-.27.47.2-.31.52,1C58.32,183.11,57.12,176.78,51.67,174.88Zm30.94,7.48a38.23,38.23,0,0,1,19,4.61c-1.83,1-7.69,2.46-7.69,2.46C90.67,185.71,89,182,83,183.9c-6.23,1.62-11.84,7-15,10.65A14.34,14.34,0,0,0,60.37,192c-.16,0-.4.71-.2-.44a21.25,21.25,0,0,0,1.89-4.08A42.35,42.35,0,0,1,82.61,182.36Zm21.3,4.77a38.74,38.74,0,0,1-6.12,12.68l-.37-1.93a44.42,44.42,0,0,0,4.74-10Zm-2.65,1.15c.18.28-2.72,7.24-4.16,8.51l-.56-1.8a38.71,38.71,0,0,0,2.84-6.1Zm-17.69,0c-.09,0-.12.09-.12.26,0,.64.66,1.14,1.86,1.42,1.63.37,3.91-.2,3.91-1,0-.45-.32-.48-1.25,0-1.17.54-2.2.44-3.73-.37a1.83,1.83,0,0,0-.68-.29Zm14.5,1.11a13.56,13.56,0,0,1-2,4.22l-.28-.89a31.31,31.31,0,0,0,1.49-3.14Zm-1.7.55a4.94,4.94,0,0,1-1,1.79l-.65-1.39Zm-10.31,1.29c-1.1,0-2.2.38-2.29,1,0,.28.38.17,2.43-.08,1.08-.13,1.6.51,2.59.45.51-.06,0-.53-.12-.67A4.25,4.25,0,0,0,86.06,191.24Zm-4.71,1.29c-.11,0,0,.31.43,1a5,5,0,0,1,.32,1.68c-.05,1.23-.05,1.19.55.48.38-.38,1.12-.3,2.29,0,.75.21.94.28,1.46-.05s.75-.19,1.27-.08a3.26,3.26,0,0,0,1.51-.26,2,2,0,0,1,1.39,0c.9.43.77.39.84-1.14s0-1.62-.87-1.11a2.67,2.67,0,0,1-2.71.26,3,3,0,0,0-2.6-.07c-1.2.37-1.75.49-2.71-.1a5,5,0,0,0-1.18-.67ZM61.73,194.8l.54.88c4.85,1.75,8.14,5.74,6.2,12.48l.46.74c2.43-6.79-.34-12.39-7.2-14.1Zm1.5,2.87L63.9,199c3.65,1.78,3.43,6.67,3.23,6.48l.57,1.27c.91-3.17-.75-7.84-4.46-9.12ZM78.49,205a.27.27,0,0,0-.28.15c-.09.24.19.39,1.86,1.55,1.43,1,2.54,1.74,2.46,1.88a4.77,4.77,0,0,1-1.58-.31,7.25,7.25,0,0,0-5.5,1.08c-.35.24-.93,0-1.44-.16a2.18,2.18,0,0,0-.87-.05c-1,.27,0,1.28,2.52,2.58,3.13,1.6,4.83,1.74,6.73.77,1.26-.66,1.72-.17.33.58-2.41,1.31-4.72.91-8.53-1.73-1.77-1.22-2.47-1-1,.15,2.66,2.1,7.79,4.65,10.94,1.53a2.19,2.19,0,0,1,.54,0c.65,0,.68-.2,0-1.29-.41-.66-1.24-1.35-.23-2.15.77-.61.71-.9-.21-1.18-.25-.07-.22.09-.59-.21-2.23-1.81-4.41-3.17-5.18-3.17Zm1,3.57a2.42,2.42,0,0,1,2.17,2.06c0,.12,0,.24.07.36l-.8,0c-.66-2.66-2.65-1.78-2.85-.22l-.72-.1c.26-1.48,1.19-2.16,2.13-2.13ZM96,210.81l-.53.08c-.35-1-1.92-2.29-2.67.09l-.67,0C92.56,207.73,95.47,208.23,96,210.81Zm-4.07-1.34c.22.31-.16.83-.39,1.07s-.68,0-.88-.19a.6.6,0,0,1,.24-.81c.3-.15.8-.29,1-.07Zm-9.33.1c.22.5-.4.88-.48.71a1.51,1.51,0,0,1-.22-.93c.21,0,.62.06.7.22Zm14-.08a.77.77,0,0,1,.77.57.64.64,0,0,1-.62.54.92.92,0,0,1-.6-1C96.26,209.39,96.39,209.47,96.59,209.49Zm-19.49.16c.12.18-.1.72-.15.8a1.89,1.89,0,0,1-.73,0,1.52,1.52,0,0,1,.11-.76c.2-.13.63-.19.77,0Zm13,1.75a.72.72,0,0,1,.35.13c2,1.31,4.58,1.9,6.43,1,.41-.21.69-.2.68,0s-.46.67-1.32.93c-1.91.58-5.06-.18-6.15-1.36-.32-.35-.27-.67,0-.66Zm-17.56,1.37c-.19,0-.25.11-.21.34.13.78,5.48,3.88,7.72,4.29a6.21,6.21,0,0,0,4.39-.47c2.73-1.6,2-3.76-.64-2.13-1.8,1.09-6.34.59-9.05-1A7.35,7.35,0,0,0,72.54,212.77Zm24.12,1.13c.68-.29,1-.39,1.12-.26.69.58-.44,1.48-2.5,1.84a4.81,4.81,0,0,1-4.51-1.07c-1.45-1.08-.77-1.61.07-1.12a6.07,6.07,0,0,0,5.83.61ZM73,217.28c4.74,1.71,10.13,5.83,12.52,10.83H84.07a23.08,23.08,0,0,0-10.15-9,3.5,3.5,0,0,1-.91-1.79Zm24.88,2.34v1.56a17.5,17.5,0,0,0-7.23,6.93l-1.66,0A19.67,19.67,0,0,1,97.9,219.63Zm0,2.38v1.92a13.6,13.6,0,0,0-4.48,4.18h-2A15,15,0,0,1,97.9,222Zm-21.69,1.47a14.44,14.44,0,0,1,4.59,4.67l-.75,0a26.21,26.21,0,0,0-3-3A4.43,4.43,0,0,1,76.21,223.48Zm21.69,1.23s0,0,0,0v1.53a11.1,11.1,0,0,0-2,1.83H94.3A8.85,8.85,0,0,1,97.9,224.72Zm0,2.54v.86h-1a3.55,3.55,0,0,1,1-.87Zm-19.51.22a1.73,1.73,0,0,1,.53.72l-.27,0Z"/><path id="path3052-2-5-5" class="cls-4" d="M37.9,193.69c3.29.09,10.25-1.15,10.14-1s21.57,36.09,20.69,35.73c-.28.45-27.63.43-27.63.43C40.5,228.84,46.9,215.46,37.9,193.69Zm9.78-25.43c10.51-8.77,21.52-8.84,33.35-10l.27-29.81L85.58,131l.09,27.31a68.07,68.07,0,0,1,40.64,17c.14.22-16.74,9.31-24.13,11.71-5.74-4.24-20.88-6.92-30.93-3.66-2.76.9-6.15,2.33-9.44,3.39,2.39-14.39-8.77-16.51-12.7-17.18C48.62,169.5,48,168.43,47.68,168.26Zm-13.49,4.65a70,70,0,0,0-.24-9.27c-.06-.72-6.15,9.33-6.49,6.89-.85-6.1,2.16-13.85,6.88-14.8.47-.64,9.83,5.19,9.4,10.23-.14,1.64-8.35-5.55-8.38-5.12-.19.84.24,12.09.5,12.07,2.36,1.34,1.85,3.06,2.11,4.49,6.33-.94,6,6.13,0,5.91.37,8.36-7.34,4.58-5.82.13-7.76-.37-3.94-7.67-.07-6.07-.23-1.84.22-3.76,2.11-4.47Zm8.91-35.46c-.45-.18-16.56-1-16.56-1l.84-39.52c8.23-19,39.19-10.13,34.27-6.08C46.85,100.6,44.59,118.4,43.1,137.45Zm29.72-16.23-.49-4.39c-1.26-2.73,32.95,13.18,33.34,13.52l1,4.68C106.86,137.09,84.9,126.7,72.82,121.21Zm62.28-7.79c-2.55,19.69-2.41,39.5-16.9,46.36,10.9,10.63,20,2.44,33.73-4.45.37,0-.46-42.17-.69-42.14C145.81,113.49,140.44,113.61,135.1,113.43Zm7.55-19.22c-2.69-.41-9-7-7.67-8.94,0-1.49,7.8,4.2,8.61,5.73-.4-.46-.45-13.89-.58-13.36-.29.16-2.37-1.34-1.83-4.14-6,1.32-5.62-6.46-.42-6.14-.67-7.08,7.92-4.48,5.63.26,7.35-1.36,6.08,6.95.53,5.59.47,3.15-.82,4-2.63,4.65.12,1.32.61,10.13.61,10.13s5.44-8.39,5.83-7.66c1.38,2-.85,15.92-8.08,13.87Zm-25.2-30.93c-2.45,8.51,4.27,18.24,10.62,18.21,1.28-.2,3.72.49,2.88,1.18-10,8.17-33.4,9.87-33.41,9.51.25,10-.2,20.16-.44,30.19l-4.28-2.6c-.14-9.15-.36-18.51-.57-27.65-15-2-28.45-6.83-39.08-17.18,7.06-5.27,15.5-8.56,23.61-11.89,10.21,5.34,24.42,8.42,40.67.22Zm-7.39-40.45c-.47-.21,1.62-1.77,1.62-1.77s17.41.23,26,.11c-3.15,13-.92,24.64,3.14,35.83-1.08-.25-8.23.33-10,1.12C130.6,58.4,110.28,23.15,110.06,22.83Z"/><path id="path3050-3-4-7" class="cls-2" d="M69.3,228.35l-21-35.77,3.16-1.38,21.7,37.2ZM31.85,180.52l3-3.15,3,3.11-3.19,3Zm67.52-20.06-.43-2.56A65,65,0,0,1,128.12,174l-1.7,1.25C127,175.11,109.2,161.7,99.37,160.46Zm-34.83-2.33,3.46-.75-.11,2.15-3.35.67Zm70.58-1.89-2.09-1.7,1.51-1.8,2,1.61ZM63.91,138.91c5.21-2.48,9.27-12.49,8.76-13.15l2.84.68L69,153.85l-4.53,1C64.4,149.61,63.91,144.16,63.91,138.91Zm34.25,15.51c-1.76-5.77-5.24-18.83-5.24-18.83.13.43,11.29,3.62,15.27,2.46a46.37,46.37,0,0,0,5.54,6.29A48,48,0,0,1,98.16,154.43Zm46.79-21-2-1.71,1.76-2.17,2.16,1.66Zm-25.69-1.15c-1.6-2.9-1.71-6.17,1.26-9.41Zm-61.12-5a31.38,31.38,0,0,1,1-8.47C60.89,121.89,60.87,125,58.15,127.22Zm45-2.7s4.32-20.17,6.2-28.07l4.78-1.11-.21,16.33c-4.75,3.9-8.09,13.2-7.94,13.2Zm-69.48-3.35-2.09-2,1.77-1.95,1.84,1.9ZM71,113.3a57,57,0,0,0-5.73-6.75c3.55-5,9.45-7.85,15.7-10.11l4.23,19C80.43,113.94,75.27,112.37,71,113.3ZM41.71,96.41l1.47-1.84,1.93,1.53-1.46,2Zm69.14-5.54,3-.67.11,2.32-3.57.66ZM50.64,76.39,52.91,75A67.44,67.44,0,0,0,79.3,90l.32,2.69c-10.83-3.36-20.74-8-29-16.27Zm93.19-2.88-3-2.93,2.66-3,3.16,2.75A18.71,18.71,0,0,1,143.83,73.52ZM127.47,59.25l-22.11-38,3.19,0,21.75,36.58Z"/><path id="path3048-5-8-9" d="M105.16,20.64l-5.28,0,30,60.72a6.35,6.35,0,0,1-2.4-.28c-7.2-1.9-11.64-9.56-10-17.08a6.39,6.39,0,0,0,.21-1.08c-18.56,8.46-30.06,5.34-40.77,0l-4.57,1.77c.3-2.78,3.72-13.22,8.83-18.13V41.25L81,38.77l-.4-4.51C73,41.46,64.13,52.8,63,68.91c0,0-6.92,3.58-12.82,7.54.33,0,9.2,10.92,30.51,17.08L79.77,90a92.1,92.1,0,0,0,12.16,2.18l.6,27.49,5.09,3,.17-30.44A68,68,0,0,0,110.2,91l-.6,2.93,4.24-.84v2.14l-4.64,1.1-6.61,28.45,3.85.86c1.13-5.73,4-10.37,8.1-13.21l0-1.09c2.65-1.91,8.15-3.43,8.18-3.4,1.88-9.23,6.24-15.62,10.88-21.7l-2.21-3,8.48-3.13L128,59.93c4.53-3.15,13.51-2,13.51-2-3.85-10.46-7.23-21.25-3.43-37.08l-32.73,0Zm10.74.66c0,2.65-3.44,2.37-3.86,0Zm21-.08c-2.08,12.12-1.39,23.93,3.44,35.16,0,0-.7,0-.79,0s.08-.61,0-.76c-.1-.42-.79-.22-1.37.17a8.31,8.31,0,0,1-.73.46,17.16,17.16,0,0,1-3.63.28c1-.67,2.38-2.57,1.57-3.68-.18-.24-.29-.13-.47.19-.86,1.54-1.29,1.78-2.44,1.77-1.81,0-3.1-1.15-3-2.85s2.55-2.52,2.2-.92c-.1,1.43,1.31,1.7,1.57.28.1-.53,0-.29.13-.91,2.81-1.5,1.26-4.56-1.37-3.92-.62.16-.7.22-1.13,0-.81-.42-1.48-.29-1.79.3s.14.93.74.94.74.3.74.68c0,.87-1.5,1.3-2.5.79-2.62-1.35-1.65-4.86,1.4-4.84.93,0,1.31.06,1.35-.14.11-.57-1.3-1.55-2.1-1.4s-1.09.31-.73-.6a3.58,3.58,0,0,0,0-2.06c-.49-1-.48-.49-.78.33-1,1.68-2.52,2-3.82,1.13s-1.17-2.47,0-3.62c.8-.8,1.66-.26,1.18.64a.63.63,0,0,0,.32.92c.72.19,1.17-.24,1.17-1.12,0-.48-.15-.59.72-1.09a2.09,2.09,0,0,0-2-3.69c-.56.25-.69.49-.94.38-1.06-1-2.58.27-1.68.94a3.31,3.31,0,0,0,1,.28c.22.13.15.44-.17.83-1,1.25-3.43.63-4-1.13-.65-2,1.41-4.17,3-3,.47.35.88.39.88-.13a2,2,0,0,0-2.3-1.65c-1.31.09-1.17.26-.45-.93a2.67,2.67,0,0,0,0-2.72c-.35-.48-.72-.58-.68-.07a2.3,2.3,0,0,1-3,2.42,2.73,2.73,0,0,1-1.45-3.7c.66-1.31,2.25-1.44,2,0-.12.89.55,1.36,1.2.83.24-.19.29-.36.31-.93s-.24-.83.17-1.2c1.07-.14,1.14-2.44,1-2.53l17.23-.08Zm-19.2.08c.68,0,1.25.23,1.25.92a1.23,1.23,0,1,1-2.46,0C116.5,21.52,117,21.29,117.72,21.29Zm-12.07.09h2.74L130,57.67l-2.56,1.25Zm4.5,1.27a9.91,9.91,0,0,0,4.16,1.54,8.91,8.91,0,0,0-1,3.89Zm4.4,7.31c1.33.48,2.49,1.21,4.69.47A8.75,8.75,0,0,0,116.91,34Zm11.25,4.38a1.15,1.15,0,1,1-1.14,1.15A1.15,1.15,0,0,1,125.8,34.34Zm-7,2.87a7.73,7.73,0,0,0,3.1.54,6,6,0,0,0-.78,3.27Zm3.31,5.72a6.08,6.08,0,0,0,3.82.87,6.28,6.28,0,0,0-1.1,3.63Zm10.84,4.21a1.2,1.2,0,1,1-1.2,1.2A1.2,1.2,0,0,1,132.94,47.14Zm-6.72,2.7a5.21,5.21,0,0,0,2.45.6,8.21,8.21,0,0,0-.53,2.6ZM130,56a7.07,7.07,0,0,0,3.2.71,13.8,13.8,0,0,0-2.44.71Zm13.7,6.79c-2.8.18-3.45,2.34-3.12,4.53a3.46,3.46,0,0,0-3.86,4.18c.63,2.36,2.82,2.45,4.32,2.29A3.87,3.87,0,0,0,142.93,78l.31,12.27s-1-.94-1.69-1.61c-2.91-2.92-7.29-5-7-3.39,0,.24.13.86.2,1.36.46,2.78,4.17,5.78,6.69,7.29a7.71,7.71,0,0,1,1.46,1c-4.72,5.09-7.26,10.51-7.9,15.9-.59,5-1.06,9.51-1.53,14.11-1.93,23.05-11.75,28.85-12.22,30l-.18,3.07-2.74-.21-3.16,2.75c10.35,5.39,16.39,11.89,16.3,12a168.56,168.56,0,0,0,22.13-17.77l-.13-51.32a4.22,4.22,0,0,1-.7.21c-.51,0-.58.23-.75,1.21a3.59,3.59,0,0,1-.65,1.36c-.46.66-.3.32.28.56,1.33.54-.4,3-2.28,3.29-1.36.21-2.11.47-2.34.78-2.86,2.52-5.7,2.91-7.85,2a4.37,4.37,0,0,1-2.6-2.23c-.88-2.52,1-6.15,2-8.25a26.09,26.09,0,0,1,5.27-6.73l-.54-.59a5,5,0,0,0,.77,0c2.84-1,3-1.05,3.54-1.81a30.33,30.33,0,0,0,2.11-3.63c1.46-3.82,1.66-4.07,1.65-6.58,0-2-.14-3.39-.53-3.5-2.24,1.73-4.5,5.76-5.82,8.14-.46-3.52-.59-9.67-.59-9.67.47-.53,3.16-.23,2.56-4.64a3.24,3.24,0,0,0,4.75-2.86c-.16-3.57-2.89-3.46-5.12-3a3.35,3.35,0,0,0-3-4.62Zm0,.3c2.92.09,3.5,3.34,1.71,5.18,0,0-1.16-.9-1.78-1.41-.58.46-.75.86-1.4,1.34A3.26,3.26,0,0,1,141,65.68a2.81,2.81,0,0,1,2.69-2.58Zm-66.75.1c11.82,6.65,26.65,7.13,40.22.35L117,64.68l-1.49.84.84,1.55.46-.22v1C105.6,74,86.86,75.22,72.19,65.12l1.28-.6s.29.2.57.37A20.54,20.54,0,0,0,76,66l.89-1.29s-1.36-.83-1.22-.89l1.2-.65Zm1,2-.68,1.55,1.7.91.65-1.56Zm-6.43.17c18.21,11.51,35.15,8.08,45.33,3.37L117,70c-13.14,5.63-30.41,7.14-46.85-4Zm42.86.74-1.62.65.64,1.49,1.66-.72Zm-45,.28C84.13,76,100,77.93,117.1,70.89l.65,1.84c-16.66,6.73-34.23,6-50.29-5.49Zm11.37.05L80,68.11l1.83.7.53-1.58Zm31.11.67-1.6.52.5,1.54,1.66-.57Zm-28.31.44-.4,1.62,1.87.53.33-1.63Zm67.76,2.66c.25,2.75-3.8,4.08-5.32,1.51l1.34-1.63L146.09,69a2.77,2.77,0,0,1,5.18,1.24ZM67.06,67.69l4.41,3.05-3.21,5-4.75-3.21Zm76.49.14,2.8,2.45-2.57,3-2.63-2.67Zm-1.74.83-1.58,1.84,1.7,1.83a2.79,2.79,0,0,1-5-1.82C137,68.49,140,66.52,141.81,68.66ZM109.14,68l-1.68.51.38,1.49,1.74-.46Zm-22.71.47L86.11,70l1.93.42.33-1.59Zm19.93.27-1.79.39.31,1.59,1.79-.38Zm37.38.38-1.48,1.46,1.48,1.54,1.49-1.54Zm-54.21,0-.23,1.61,2,.27.16-1.63Zm13.64.22-1.82.21.18,1.58,1.89-.24Zm-10.76.19,0,1.65,1.78.14V69.68Zm7.83.15-1.78.07v1.6l1.82-.12,0-1.55Zm-32.55,0a1.91,1.91,0,1,0,1.9,1.91A1.91,1.91,0,0,0,67.7,69.69Zm29.56.05-1.75,0v1.62h1.81l-.06-1.64Zm46.48,0,.77.77-.77.76-.79-.76Zm-76,.61a1.26,1.26,0,1,1-1.25,1.25A1.25,1.25,0,0,1,67.7,70.36Zm-6.76.09,2.53,2.07a48.91,48.91,0,0,1-3.35,4.82l-4.67-3.77,2.44-1.39a1.87,1.87,0,1,0,1.78-1Zm-1.41,1.33A1.26,1.26,0,1,1,58.28,73,1.26,1.26,0,0,1,59.53,71.79Zm85.85.6a2.41,2.41,0,0,1,.86.52,2.85,2.85,0,0,1-2.33,4.53,2.67,2.67,0,0,1-1.53-4.77l1.48,1.41Zm-69,.85,5.23,2-2,5.72-5.72-2.36Zm-21.49.6a63,63,0,0,0,73.66,7.9l1.34,0,.71.74A65,65,0,0,1,53.3,74.9ZM113.66,75l1.68,5.66-5.78,1.53-1.29-5.73Zm-60.92.21A63.77,63.77,0,0,0,79.12,90.1l.26,2.32C68,89,59.35,84.36,51,76.36Zm25.06.09a1.88,1.88,0,1,0,1.87,1.88A1.88,1.88,0,0,0,77.8,75.28Zm-9.3.42,5.39,2.87L71.21,84,65.48,80.9Zm9.28.2a1.26,1.26,0,1,1-1.25,1.26A1.26,1.26,0,0,1,77.78,75.9Zm8.93.77,5.18.76-.24,5.78-6-.73C85.84,80.44,86.71,76.67,86.71,76.67Zm25,.14a1.88,1.88,0,1,0,1.87,1.88A1.88,1.88,0,0,0,111.74,76.81Zm0,.62a1.26,1.26,0,1,1-1.25,1.26A1.26,1.26,0,0,1,111.72,77.43Zm-42.14.08a1.88,1.88,0,1,0,1.87,1.88A1.88,1.88,0,0,0,69.58,77.51Zm33.13,0,.74,5.81-5.66.28-.33-5.79Zm40.56.52h.8a138.39,138.39,0,0,0,1,15.07c.09.64.13.83.06.94-.55,1-1.2-.26-1.45-3.1-.07-.78-.16-1.92-.25-2.67-.29-2.27-.2-10.24-.2-10.24Zm-95.65.09C39.12,83.47,25,96.24,25,96.54l.06,49.07,1.11.05.91-1.8c-1.41-.36-1-3,1.69-3.57a9.26,9.26,0,0,0,2.22-.84c2.06-1.58,5.4-2.51,7.75-1.89,3.42.88,4.12,3.41,2.48,7.82-1.3,3.47-3.87,7.91-6.28,9.17l-.62.31s.56.51.76.65c6.65-3.87,10-17.75,9.83-26.38.27-8.84,1.78-17.72,5.33-24.18,5.86-10.67,13.61-15,13.57-15S53.4,83.56,47.63,78.13Zm21.93,0a1.26,1.26,0,1,1-1.25,1.26A1.26,1.26,0,0,1,69.56,78.13Zm51.69.2,2,5.4L117.66,86l-2-5.68ZM89,78.36a1.88,1.88,0,1,0,1.87,1.88A1.88,1.88,0,0,0,89,78.36Zm11.4.47a1.88,1.88,0,1,0,1.87,1.88A1.88,1.88,0,0,0,100.39,78.83ZM89,79a1.26,1.26,0,1,1-1.25,1.26A1.26,1.26,0,0,1,89,79Zm11.4.47a1.26,1.26,0,1,1-1.25,1.26A1.26,1.26,0,0,1,100.37,79.45Zm19.08.64A1.88,1.88,0,1,0,121.31,82,1.88,1.88,0,0,0,119.44,80.09Zm0,.62A1.26,1.26,0,1,1,118.17,82,1.26,1.26,0,0,1,119.42,80.71Zm-39.62.1,5.61,1.44-1.3,5.92-6.32-1.69Zm70.91-.15c.92,2.89-.77,6.6-.85,6.84-1,2.91-2.25,5.29-2.69,5.42s-.55.05-.55-.31a45.48,45.48,0,0,1,2.24-6.67,17.5,17.5,0,0,0,.8-2.66c0-.45-.43.28-.9,1.4-.9,2.24-2.22,4.63-2.5,6.8-.2,1.77-.54,1.52-.78-.59-.34-2.93.3-4.44,3.57-8.52.78-1,1.59-2,1.67-1.73Zm-41.18,1.5L111.15,88l-6.62,1.14-1-5.88Zm-27.7.58a1.88,1.88,0,1,0,1.87,1.88A1.87,1.87,0,0,0,81.83,82.74Zm9.89.38,6,.34.05,6-6.5-.28Zm-9.92.24a1.26,1.26,0,1,1-1.25,1.26A1.26,1.26,0,0,1,81.8,83.36ZM107,83.9a1.88,1.88,0,1,0,1.87,1.88A1.88,1.88,0,0,0,107,83.9Zm-12.42.48a1.88,1.88,0,1,0,1.87,1.88A1.88,1.88,0,0,0,94.53,84.38Zm12.4.14a1.26,1.26,0,1,1-1.25,1.26A1.26,1.26,0,0,1,106.94,84.52ZM94.51,85a1.26,1.26,0,1,1-1.25,1.26A1.26,1.26,0,0,1,94.51,85Zm40.87.36.31,0c1.34,0,5.85,3.25,7,5.23,1,1.75.46,2.44-.64.88-1.52-1.71-4.34-4.25-4.7-4.25s.15.55,1.94,2.31S143,93.56,143,94s-.35.23-.86-.08A18.12,18.12,0,0,1,139.53,92c-.3-.28-.86-.8-1.26-1.15-1.66-1.46-3.55-4.84-3-5.49a.17.17,0,0,1,.13,0Zm-83.62.48a2.32,2.32,0,0,1,2.51,2.06c0,1,.1,1,1,1s3.19.3,3.19.3l0,2.68s-1.14,0-2.46-.07c-2.24-.11-2.23-.11-2.52.88a1.41,1.41,0,0,1-.72.89c-2,1.33-4-1.08-2.71-3.37.43-.78.45-1.05.16-1.52a2,2,0,0,1,1.58-2.9Zm.49,1.37a1.1,1.1,0,0,0-.77.36,1.78,1.78,0,0,0,0,1.83c.32.53.31.67-.06,1a1.59,1.59,0,0,0,0,2.28c.58.42,1.19-.13,1.2-1s.64-.9.64-.9l4.21.07v-.69L54.39,90a2.16,2.16,0,0,1-1.2-.27c-.35-.24-.74-.66-.37-1.17a.81.81,0,0,0-.58-1.39Zm-9.13,1.58,2,3.42,2.33.09.2,2.08,2.83,1.84-2.9,1.71-.14,2.1-2.2.28-2,2.57-2-2.57H39.08l0-2.15-3-1.92,3.25-1.84,0-2.45,2.3-.16,1.51-3Zm70.62,1.56.1,2.07-3.27.58L111,90.9Zm-21,2.08,4.41.13-.25,29h-1l0-1.13-1.41,0L93,119.62Zm-49.65.74-2.59,3.3,3.13,2.76L46.42,96Zm51,.44v1.33h1.85V93.61ZM43.17,94.75,45,96.1l-1.39,1.85-1.76-1.53Zm70.65.76-.06,15.88c-6.06,4.79-7.95,13.22-7.95,13.22l-2.46-.15,6.26-28ZM81,95.86c-5.45,2.61-10.95,4.59-16.35,10.82a30.35,30.35,0,0,1,6.27,7.06c4.5-.67,9.51.14,15,2.3Zm13.11.36V97.6h1.85V96.22Zm-61.29,2a4.74,4.74,0,0,1,.18.87c4-.34,3,4.33.43,4.49-.3,0,.25.83.84,1.08a2.69,2.69,0,0,0,3.59-1.1,8.05,8.05,0,0,0,.81-1.17l2.47,1.32s.07,0-.37,1.1c-.79,2.07.36,4.62,1.26,2.76a2.39,2.39,0,0,1,2.84-1.14c1.13.48,1.53,2.51.73,3.8-.24.39-.25.47-.1.83a4.3,4.3,0,0,1,.13,2.38c-.3.58-.65.71-1.33.24a8.17,8.17,0,0,0-3.07-1.37c-2.84-.54-3.4-1.55-4.53-3.9-3.37,1-8.41-1.11-7.74-6.15.31-1.11.39-3.25-.17-3.68-1.1-.86.11-2.09,1.76-2.29,1.36-.14,2,1.16,2.27,1.93Zm47.66-1.46,4.38,18.48c-4.81-1.77-9.53-3.16-13.71-2.13a29.28,29.28,0,0,0-5.67-6.58c4.13-5,9.39-7.83,15-9.77Zm-49.59.91a1.41,1.41,0,0,0-.94.42,2,2,0,0,1,.46.59c.26.54.26.54,0,1.74-1.34,4.81,1.83,8,6.34,6.61,1.11-.35,1.07-.31,1.38,1,.53,2.16,2,3.27,5,3.68a2,2,0,0,1,.74.24c1.32.85.78-.28.42-.72a4.11,4.11,0,0,0-.73-.69s.4-.26.59-.36c.85-.45,1.17-2.23.46-2.61s-1.73.18-1.73.84c0,1.2-1.51,1.33-2.83.33-1.69-1.28-.19-4.52-.18-4.52l-1-.42c.13.11-2,3.17-4.64,2.11-1.84-.75-3.13-2.89-2.28-3.5.62-.17,1.37.18,1.84-.19.94-.74.18-2-1.16-2a8.87,8.87,0,0,0-.92.13,6.18,6.18,0,0,0,.15-1.62,1.12,1.12,0,0,0-1-1.06ZM94.1,99.06v1.14h1.83V99.08Zm0,2.35v1.17h1.85v-1.17Zm0,2.53v1.2h1.85v-1.2Zm0,2.36v1.27h1.85V106.3Zm0,2.37v1.18h1.85v-1.18Zm0,2.41v1.2h1.85v-1.2ZM34,112.24l1.56,2.65,1.85.08.07,1.82,3.14,2.42-2.75,2-.2,2-2.18.07-1.76,3-2.17-2.63-1.75-.28-.2-2.39-2.69-2,2.53-2,.2-2.13,2.06.18Zm102.33,1.27a1.27,1.27,0,0,1,.55.15c.65.33.86.37,2.56.46,2,.1,2.66.28,3.64.93.59.4.62.39,1.25,0,2.76-1.84,5.92-.17,6.15,3.27a4.6,4.6,0,0,0,.5,2c.24.52.49.94.35,1.27-.44,1-2.57,1.09-3.73-.43a.89.89,0,0,0-.71-.33c-.58.22-2-1-2-1-.14.81-.21,1.46-.35,2.64l-2.58,0s-.06-.48-.18-2.14c-.14-1.91-.61-2.47-1.21-1.44a2.17,2.17,0,0,1-4-1.12c-.05-.72-.09-.81-.48-1.11-1.3-1-.92-3.14.25-3.12Zm-42.21.1v1.06h1.85v-1.06Zm42.5,1.13c-.51,0-.22,1,.63,1.44.48.27.48.27.42,1.12-.11,1.53,1.35,2.27,2,1a1.08,1.08,0,0,0,.12-.68c-.27-1.11,2.11-.81,2.68.34a6.33,6.33,0,0,1,.35,1.67c.07.67.08,1.45.08,1.45h.76a9,9,0,0,1,0-.91c.19-1.9,1-3.09,2.15-3.09.48,0,.5.09.16.71-.57,1.06,0,1.82,1.3,1.83.84,0,.84,0,1.15.61s.6.87.92.75.23,0-.07-2.21c-.44-3.36-2.38-4.26-5.05-2.36-.76.54-.92.52-1.6-.13-1-1-1.64-1.2-3.61-1.28a11.32,11.32,0,0,1-2.05-.21.85.85,0,0,0-.37-.08Zm-63.53,1c-.44,0-.95.1-1.39.14a77.36,77.36,0,0,1,.94,7.78c2.25-.39,5.17,0,9,1.78a60,60,0,0,1,8.28,5.14,29,29,0,0,0,10.39,4.4c4,.87,7.18.8,7.09.61a35.85,35.85,0,0,1-1.27-7.73,32.24,32.24,0,0,1-14.9-5.35C85.85,118.8,79.63,115.6,73.06,115.71Zm21,.22V117h1.85v-1.08Zm-60.68.21-2.93,3.07,3.18,3,2.7-3.09Zm-.08,1.39,1.66,1.6-1.34,1.71-1.87-1.62Zm41.25.25c.39,0,.77.28,2.06,1,1.08.75,1.95,1.22,1.63,0,.25-.34,1.44.76,2.86,1.46,1.7,1.37,1.71,1,1.93.36.23-.5.54-.16,1.9,1.11,1.79,1.67,1.63,1.67,2,1.25.41-.78.54-.77,2,.91s1.83,2.06,2.16,1.34c.5-.38.76,0,2.81,1.93,1,1,1.25.86,1.44.17s.25-.55,2,.82c2,1.59,2.17,1.71,2.25,1.16.13-.87.74-.56,2.78.91,1.23.89,1.7,1.13,2,.91.27-.48-.67-1.4,1.32-.53l.55,2.9-.69-.2c-.42-.12-1.35-.44-1,.47.2.52-.3.46-1.84-.46-2.21-1.33-2.62-1.63-2.78-1.36-.29,1-.25,1.06-1.75-.12-1.74-1.33-2.08-1.69-2.33-1.24,0,1-.52.8-2.13-.61-1.37-1.2-1.66-1.83-2.27-.91-.17.32-.34.24-.56.07A32,32,0,0,1,88,126.4c-.36-.39-.56-.26-.85.06s-.29.21-1.18-.61c-2.11-1.95-2.5-2.43-2.79-2.17-.24.46,0,1.08-1.63-.21-2-1.47-2.91-2.13-2.78-1.16-.35.43-.1.52-2.14-.62s-2.18-1.4-2.46-1a.6.6,0,0,1-.84.34l-.39-3h.7a4,4,0,0,1,1-.28Zm-15.5.25c-.15.46-1.22,3.09-1.23,9.8A7.63,7.63,0,0,0,60.6,123,10.52,10.52,0,0,0,59.07,118Zm35,.19v1.22h1.85v-1.22Zm-34.88,1c2.35,3.75-.24,7.29-.88,7.54A34.45,34.45,0,0,1,59.2,119.19Zm61.69,3.15c-3.86,2.45-3.24,9.09-1.34,10.79A61.71,61.71,0,0,0,120.89,122.34Zm-.53.82-1,8.54C118,130.19,117.73,125.7,120.36,123.15Zm24.37,1.44,2,2.59,1.81.14.4,1.87,2.65,2.17L149,133.17l-.23,2.07-2,.2-2,3.09-1.91-3-1.83-.2-.06-2-2.87-2.14,2.75-1.66.05-2.25h2.15Zm-72.3.81a20,20,0,0,1-8.76,13.32l0,.63-7.36,3a46.59,46.59,0,0,1-10.59,21.9l1.7,3.47-8.22,2.84L51,190.86c.81,0-5.7,3.11-13.57,2.3,5,12.27,6,25,3.25,36.1l38.53-.16L49.75,170.9l-.48-.95c-.41-.76,15.66,2.27,12.24,17.28,0,.35.07.39.27.25,3.12-2.7,23.86-10.19,40.42-.3l4.92-2.05c-2.34,8.26-5,13.93-9.49,18.91l.76,11.75a50.07,50.07,0,0,0,17.72-34.55c3.58-1.75,6.69-3.75,10-5.62l.44.14,2.16-1.3c-6.92-7.62-21-14.9-30.09-16.82l.54,2.58a73.4,73.4,0,0,0-12.61-2.06L86,130.82l-5-3L80.77,158a118.76,118.76,0,0,0-12.41,1.54l.39-2.58-4,.82-.07-2.51L69.2,154l6.49-27.7ZM73,126l2.07.42L68.62,153.6a27.84,27.84,0,0,1-3.83.86c-.29-5.09-.4-15.47-.4-15.47,6.34-5.32,7.33-9.09,8.58-13Zm-44.09,2c1,0,2,.7,2.08,1.33.17.39.3.56.57.6,1.62.23,1.67.66,1.72,1.6-.23,1.8,1,.29,1.31-1.5,0-.19,0-1.56,0-1.56l2,0s.07,1.43.1,1.66c.17,1.39.76,2.51,1.17,1.77,1.4-2.52,4.59-1.24,4.09,1.2-.12.58-.12.61.27,1a2.22,2.22,0,0,1,.66,2.13c-.2.64-.65.74-1.61.35a7.33,7.33,0,0,0-2.46-.29c-2.07-.06-2.2-.1-3-.89l-.51-.5-.88.52a4.07,4.07,0,0,1-4.33.1c-1-.52-1.59-1.76-1.75-3.7,0-1-.32-1.77-1-2-.34-.32,0-1,.62-1.56a1.55,1.55,0,0,1,.9-.28Zm115.68.29-2.72,3.42,3.24,2.92,3-3.57Zm-63.14.49L85.2,131l.48,27-4.27-.12v-29ZM29,129.18c-.29,0-.11.49.1,1.2a3.25,3.25,0,0,1,.18,1.47c-.4,3,3,4.46,5.39,2.41.65-.75.75-.7,1.29.1s1.63,1.11,3.67,1c.93-.06,1.54.44,1.95.11s0-.78-.55-1.1c-.34-.2-.36-.23-.29-.93.17-1.75-1.26-2.21-2.28-.74-.84,1.22-2.11.41-2.51-1.6-.24-1.55-.44-1.52-.62-.17-.2,1.64-2.34,3.42-3.2,2.61-.23-.24-.23-.18,0-1,.31-1.06.06-1.45-1.08-1.73a.81.81,0,0,1-.48-.35c-.61-.95-.58-1.28-1.57-1.28Zm115.85.63,1.73,1.5-1.51,1.79-1.84-1.42Zm-62.23,1V132h1.61v-1.27Zm0,2.57v1.34h1.61v-1.34Zm9.73,1.54Q95,145,97.78,155.16c1.72-.69,11.66-5.14,16.35-10.82a31.58,31.58,0,0,1-5.69-6.62c-4.69.78-10.08-.21-16.11-2.85Zm-9.73.81v1.25h1.61v-1.25Zm10.75.34c4.27,1.28,9.75,3.05,14.79,2.15a22,22,0,0,0,5.3,6.07c-3.81,4.18-9.33,7.37-15,9.82Zm40.57.49a1,1,0,0,1,.64.27,4.24,4.24,0,0,0,2.58,1,5.21,5.21,0,0,1,4.41,3.63c.2.78.31.83,1.42.55,4.2-1.06,7.44,2.44,6.44,7.12-.35,1.63-.45,1.83,0,2.48,1.07,1.16,1.3,1.17.13,2.2a2.32,2.32,0,0,1-3.62-1.06c-.43-.86-.42-.92-1.13-1a2.38,2.38,0,0,1,0-4.7,3.49,3.49,0,0,0,.48,0c.73-.33-.8-2.08-2.06-1.81-1.55.33-2.33,1.33-2.94,2.9l-2.44-1.41c.61-1.28,1.06-2.92.53-3.94-.43-.86-1-.89-1.14-.07-.39,1.93-2.78,2.51-4.34.94a2.37,2.37,0,0,1-.33-3.1c.42-.82.43-.88.25-1.23-.62-1.21.22-2.74,1.15-2.73ZM82.6,138.08v1.3h1.62v-1.3H82.6Zm51.61.11c-.5,0-.49.49,0,1.08.41.42.49.61-.08,1a1.88,1.88,0,0,0-.37,2.41,1.21,1.21,0,0,0,2.23-.84c-.14-.94.6-1.36,1.76-1a3.23,3.23,0,0,1,1.84,4.35c-.13.36-.38,1.21-.38,1.21l.5.31s.59-1,.83-1.25c1.93-2.39,6.48-1.18,6,1.81-.08.94-.08,1.06-1.09.77-.67-.35-1.32.38-1.3,1.28a1.43,1.43,0,0,0,1.71,1.34c.77-.15,1-.12.91.93a1.71,1.71,0,0,0,.82,1.46c1.15.48,1.74-.18.82-1.15a2.16,2.16,0,0,1-.17-2.35,6.82,6.82,0,0,0-.44-4.52c-.93-1.82-3.51-2.58-5.68-1.67-1,.53-1.1.66-1.2-.28a5.16,5.16,0,0,0-4.44-4.23,13.23,13.23,0,0,1-2.23-.63ZM82.6,140.55v1.2h1.62v-1.2Zm0,2.35v1.33h1.61v-1.33Zm0,2.59v1.33s.88,0,1.61,0V145.5Zm52.73,2.13,1.77,2.63,2,.13.23,2.13,3,1.86L139.69,156l0,2.06-2.45.21-2.17,2.9-1.85-2.55h-1.84l-.43-2.28-3.27-1.67,3.35-1.92-.09-2.4h2.28l2.14-2.7Zm-52.73.31v1.36h1.61v-1.36Zm0,2.5v1.35h1.61v-1.35Zm51.74,1-2.53,3.39,3.41,2.84,2.71-3.43ZM82.6,152.8v1.48h1.61V152.8Zm52,.18,1.76,1.37L135.11,156l-1.75-1.34Zm-52,2.55v1.24h1.61v-1.24Zm-48.06.16c-3.11,0-6.06,5.09-6.76,7.49-.83,3.08-1,8.65-.17,8.81,2.79-2,4.11-5.45,6.21-8,.33,3,.27,8.69.27,8.69a5.82,5.82,0,0,0-1.91,1.7,3.21,3.21,0,0,0-.23,2.86,3.36,3.36,0,0,0-4.52,2.95c.1,4.06,4.5,3.49,4.52,3.43s-.87,4.32,3,4.78c1.4.17,3.87-.86,3.14-4.82,2.47.41,4.59-1,4.62-3.35a3,3,0,0,0-3.33-3.05,9.3,9.3,0,0,0-1.38.2,4.07,4.07,0,0,0-2-4.62L35.59,161s1,1.08,1.43,1.49a22,22,0,0,0,5.34,3.82c2.14,1.13,1.87.85,1.5-1.3-1-3.24-3.12-5.68-7.58-8.74a3,3,0,0,0-1.73-.57Zm.31.25.63,16.63h-.93l-.8-16.61Zm91.61.55h.25a2.17,2.17,0,0,1,1.63,3.45c-.36.4-.48.48-.3.73.87,1.1.38,2.84-.47,3.11-2.72.85-3.13-.65-3.12-2.41l-4.2-.16,0-2.46,4.63.09a1.75,1.75,0,0,1,1.55-2.36Zm-93.55,0h0c.44,0,0,1.21-1.23,3a30.09,30.09,0,0,0-2.3,4.19c-.75,1.88-1.25,5.25-.75,4.63.45-1.41.5-2,.88-3a40.29,40.29,0,0,1,3.37-6.09c.4-.37.51-.14.5,1.08,0,2.75-1.32,5.64-4.4,9a9.8,9.8,0,0,1-1.25,1.18c-.3,0-.29-.62-.29-1.93,0-5.2,1.94-9.83,4.88-11.83a1.28,1.28,0,0,1,.53-.25Zm3.12.24c1.35.4,3.79,2.59,4.79,3.71,1.16,1.26,2.71,4.75,2.44,5.29-.09.24-.29.2-1-.19-4.31-2.44-7.39-5.45-6.59-6.43.23-.27,1.15.29,2.39,1.45.84.75,1.7,1.52,2.48,2.28,1.21,1.2,1.48,1.38.75,0A19.42,19.42,0,0,0,36.57,158C35.66,157.3,35.45,156.74,36,156.75Zm90.69.7-.15,0c-.85.36-.5,1.47-.58,2.32l-4.66-.16,0,.65,4.37.24c.08.66-.27,2.1.3,2.34,1.22.51,1.89-1.08.85-2-.37-.33-.77-.48.26-.94a1.57,1.57,0,0,0,.2-2.23.9.9,0,0,0-.56-.21Zm-59,.19-.23,1.74-2.7.69-.07-1.86Zm31.87.62c10,2.71,21.07,8.85,28.27,15.79l-1.44,1a68.09,68.09,0,0,0-26.43-14.87Zm-17.19.27c16.43,0,31.41,6.39,43.5,16.77l-2,1.25c-11-9.18-23.24-15.3-39.68-16-10.74-.48-23,2.3-35.08,9l-.9-1.65c11.73-6.44,23.25-9.32,34.13-9.35ZM81.17,161l6.46.19-.4,6-5.87-.19Zm-7,.43.91,5.83-5.62,1.06-1.6-5.85Zm20.46.77,6.42,1.72L99,169.89l-5.64-1.62Zm-10.28.09a1.86,1.86,0,1,0,1.84,1.86A1.85,1.85,0,0,0,84.39,162.31Zm0,.64a1.22,1.22,0,1,1-1.23,1.22A1.22,1.22,0,0,1,84.39,162.95Zm-12.75,0a1.86,1.86,0,1,0,1.84,1.86A1.85,1.85,0,0,0,71.64,163Zm0,.64a1.22,1.22,0,1,1-1.23,1.22A1.22,1.22,0,0,1,71.64,163.6Zm25.42.75a1.86,1.86,0,1,0,1.84,1.86A1.85,1.85,0,0,0,97.06,164.35Zm-35.78.22,1.9,5.69-5.45,2.22-2-5.62Zm35.78.43a1.22,1.22,0,1,1-1.23,1.21A1.22,1.22,0,0,1,97.06,165Zm10.67,1.36,5.78,3.07-3,5.43L105.13,172Zm-48.38.49a1.86,1.86,0,1,0,1.85,1.86A1.85,1.85,0,0,0,59.35,166.85Zm21.83.18.27,5.74-5.12.36-.93-5.71Zm6.14.3,5.83.81-1.37,5.53-5.28-.86Zm-28,.16a1.22,1.22,0,1,1-1.23,1.22A1.22,1.22,0,0,1,59.35,167.49Zm19.11.74a1.86,1.86,0,1,0,1.84,1.86A1.85,1.85,0,0,0,78.46,168.23Zm-9.32.23,1.51,5.59L65,175.67,63.3,170.3Zm20.42.09a1.86,1.86,0,1,0,1.85,1.86A1.85,1.85,0,0,0,89.56,168.55Zm-11.1.32a1.22,1.22,0,1,1-1.23,1.21A1.22,1.22,0,0,1,78.46,168.88Zm11.1.32a1.22,1.22,0,1,1-1.23,1.21A1.22,1.22,0,0,1,89.56,169.2Zm19.74,0a1.86,1.86,0,1,0,1.84,1.86A1.85,1.85,0,0,0,109.29,169.21Zm-10,.54,5.64,1.94L102.7,177l-5.39-2.07Zm10,.1a1.22,1.22,0,1,1-1.23,1.21A1.22,1.22,0,0,1,109.29,169.85Zm-42.4.2a1.86,1.86,0,1,0,1.85,1.86A1.85,1.85,0,0,0,66.9,170Zm0,.64a1.22,1.22,0,1,1-1.23,1.22A1.22,1.22,0,0,1,66.9,170.69ZM101,171.78a1.86,1.86,0,1,0,1.84,1.86A1.85,1.85,0,0,0,101,171.78Zm0,.64a1.22,1.22,0,1,1-1.23,1.22A1.22,1.22,0,0,1,101,172.42Zm-66,.65a2.91,2.91,0,0,1,2.65,2.78c.05,1.05-1.29,2.44-1.29,2.44l-1.56-1.45-1.49,1.38c-.25.08-1.41-1.9-1.06-2.93A2.85,2.85,0,0,1,35,173.06Zm83.79,0,4.46,3.68L121,178.16a1.9,1.9,0,0,0,.07-.5,1.85,1.85,0,1,0-2.26,1.81l-1.07.61-2.36-2Zm-7.07,9.83-2,.82c-12.15-8-28.78-12.44-47.79-4.34l-.65-1.59C75.45,171.86,93.25,170,111.75,182.89Zm-1.08-8,4.78,3-3,4.7-4.67-3ZM109.23,184l-2,.76c-14.84-9.6-30.65-9.09-44.78-3.33L62.23,180C78.86,172.79,95.56,175.1,109.23,184Zm10-7.53a1.22,1.22,0,1,1-1.23,1.22A1.22,1.22,0,0,1,119.18,176.44Zm-86.32,2.2-1.65,1.68,1.51,1.7a6.44,6.44,0,0,1-.82.6,2.75,2.75,0,0,1-4-2.47c.15-2.69,3.37-4,5-1.5Zm78.5-1.28a1.86,1.86,0,1,0,1.84,1.86A1.85,1.85,0,0,0,111.36,177.35Zm-71.82.08a2.79,2.79,0,0,1,2.75,2.45,2.87,2.87,0,0,1-1.58,2.75c-1.57,1-3.4-.59-3.37-.69l1.33-1.32L37.07,179A3.33,3.33,0,0,1,39.54,177.43Zm-4.59.32,2.72,2.73-2.87,2.7-2.66-2.69ZM106.63,185l-1.53.7L103,184.45l-.62,1.19,1.16.74-1.2.45c-13.86-7.84-29.52-5.57-39.94-.37,0,0,.09-.81.1-.81l1.13-.58-.42-1.44-.61.18,0-1.6c14.87-6.74,31.73-5.2,44,2.8Zm4.74-7a1.22,1.22,0,1,1-1.23,1.22A1.22,1.22,0,0,1,111.36,178Zm-76.47,1-1.45,1.45L34.88,182l1.41-1.5Zm45.37.32-1.9.09.1,1.56,1.85,0Zm1.3,0,0,1.56h1.72v-1.54H81.56Zm3.06,0-.08,1.55,1.71.08.12-1.54Zm-7.38.2-1.95.21.22,1.57,1.84-.22Zm10.57,0-.14,1.6,1.76.2.24-1.53Zm-52.9,0,.85.91-.84.84-.9-.88ZM74,180l-1.88.3.2,1.61,1.83-.36Zm17,0-.31,1.49,1.75.42.28-1.53Zm-20.09.65-1.58.42.34,1.57,1.66-.41Zm23.09.06-.33,1.52,1.78.49.36-1.46Zm-25.69.75-1.65.59.43,1.46,1.68-.57Zm28.76.17-.55,1.46,1.54.62.68-1.32Zm-31.48.86-1.57.65.65,1.44,1.48-.68Zm-32.25,0,1.58,1.59,1.88-1.71c1.64,1.46,1.62,4.88-1.29,5.45-2.54.5-4.86-3.33-2.17-5.34Zm66.56.31-.6,1.34,1.7.75.59-1.29Zm-48.58,8.59,21.49,36.78-3.4-.07-20.8-35.54Zm-3.53,1.4,1.19,1.86c-2.33-1.87-5.75-.3-5.6,2.05.11,1,1,1.69,1,.68s1.38-2,2.46-1.93c2,0,3.21,2.6,1.83,3.89-.9.84-2.13.8-1.71-.35.06-.4,0-.54-.15-.71a.88.88,0,0,0-1.37.91c.17.49.22.62-.37,1-2.28,1.61-.69,4.79,2.07,3.34.56-.2.79-.23,1-.14,1.15.45,1.93-.56.84-1.08-.63-.3-.65-.82,0-1.23,1.3-.88,3.33.49,3.33,2.25,0,1.24-1.63,2.16-3.19,1.8-.92-.21-1,.42-.19,1.07,1.64,1.27,4.1.22,4.84-2.07a2.44,2.44,0,0,0,.2-.87L56.12,207a10.61,10.61,0,0,0-1.09-.45c-2.06-.63-4.38.71-4.39,2.55,0,.87.51,1.2.79.52A2.57,2.57,0,0,1,55,208.11a2.51,2.51,0,0,1,1.46,3.27c-.56,1.31-2.45,1.69-2.23.46.1-.59-.25-.95-.88-.89-.24,0-.54.72-.46,1.05s0,.39-.79,1c-1.92,1.5-.44,4,1.95,3.25a1,1,0,0,1,.91.07c.87.42,1.77.16,1.78-.51,0-.46-.21-.64-.75-.64-.82,0-.64-.94.27-1.39,2.28-1.14,4.6,1.75,3.21,4-.59,1-1,1.07-3.1.83-.34,0-.5.2-.29.48a3.33,3.33,0,0,0,3.59.69,3.83,3.83,0,0,0,2-3.33l2.4,4.23a3.22,3.22,0,0,0-5.62,1.6c0,.71.64,1.09.87.5a2.41,2.41,0,0,1,4.66,1,1.58,1.58,0,0,1-.37,1.08c-.68,1.32-2.41,1.64-2.1.46.14-.37-.14-.76-.62-.88s-.77.28-.76,1c0,.54,0,.7,0,.7a2.69,2.69,0,0,0-1.61,2.15l-16.83,0c2-11.75,1.53-22.36-2.29-32.39l-.81-2.13,3,.08c.72.63,3.43.38,4.48-.58Zm2.86,4.61,1.74,3.15a5.74,5.74,0,0,0-2.57-.79A6.86,6.86,0,0,0,50.61,197.49ZM46,200.83A1.15,1.15,0,1,1,44.89,202,1.15,1.15,0,0,1,46,200.83Zm12,9.39,1.67,3a6.52,6.52,0,0,0-2.78-.72A6.69,6.69,0,0,0,58,210.22Zm-4.83,3.21a1.09,1.09,0,1,1-1.08,1.1A1.09,1.09,0,0,1,53.2,213.44Zm12.13,9.35,2.47,4.42a5.5,5.5,0,0,0-3.33-1.13A5.82,5.82,0,0,0,65.33,222.79ZM62,228.3H59.39C59.92,226,62.06,226.58,62,228.3Zm2.51-1.12a2.51,2.51,0,0,1,2.17,1.15H63.38A1.16,1.16,0,0,1,64.55,227.18Z"/><path id="path163-0-2-5-8-7-5-8-8-7" class="cls-2" d="M48.16,64.85s-3.72-6.11-8.73-13.28c-3.35-4.8-6-10-6.28-14.48-.29-5.12,2.42-10.25,7.32-10.5s6.88,3.95,7.69,7.4c.81-3.46,2.8-7.65,7.69-7.4s7.61,5.38,7.32,10.5c-.25,4.48-2.93,9.68-6.28,14.48-5,7.18-8.73,13.28-8.73,13.28Z"/><path id="path163-0-2-5-8-7-7-8-4-8-6" class="cls-2" d="M130.62,184.8s-3.72,6.1-8.73,13.28c-3.35,4.8-6,10-6.28,14.48-.29,5.12,2.42,10.25,7.32,10.5s6.88-3.95,7.69-7.4c.81,3.46,2.8,7.65,7.69,7.4s7.61-5.38,7.32-10.5c-.25-4.48-2.93-9.68-6.28-14.48C134.34,190.9,130.62,184.8,130.62,184.8Z"/></g></g></g></svg>