<svg xmlns="http://www.w3.org/2000/svg" viewBox="0 0 178.78 249.65"><defs><style>.cls-1{fill:#fff;stroke:#000;stroke-width:1px;}.cls-2{fill:#e2cf00;}.cls-3{fill:#131f67;}.cls-4{fill:#d40000;}</style></defs><title>QS</title><g id="Layer_2" data-name="Layer 2"><g id="svg11376"><g id="QS"><rect id="rect7399-8-3" class="cls-1" x="0.5" y="0.5" width="177.79" height="248.65" rx="8.5" ry="8.5"/><path id="path7431-0-1" d="M14.21,40.35C10.78,44.72,7.1,47.24,7,50.65A3.31,3.31,0,0,0,9.79,54a2.85,2.85,0,0,0,3.27-2.75c0-.4.47-.39.47.16A10.42,10.42,0,0,1,12,56.3h4.5a10.43,10.43,0,0,1-1.56-4.9c0-.54.47-.55.47-.16A2.85,2.85,0,0,0,18.64,54a3.31,3.31,0,0,0,2.74-3.34C21.32,47.24,17.64,44.72,14.21,40.35Z"/><path id="path7435-3-6" d="M164.57,209.3c-3.43-4.37-7.11-6.89-7.17-10.3a3.31,3.31,0,0,1,2.74-3.34,2.85,2.85,0,0,1,3.27,2.75c0,.4.47.39.47-.16a10.43,10.43,0,0,0-1.56-4.9h4.5a10.43,10.43,0,0,0-1.56,4.9c0,.54.47.55.47.16a2.85,2.85,0,0,1,3.27-2.75,3.31,3.31,0,0,1,2.74,3.34c-.06,3.41-3.73,5.93-7.17,10.3Z"/><path id="path37-0-2-9" d="M8.42,29.14H6.22v-3h2.2s0-1.62.08-4.46c.14-6.08.29-7,2-8.69,3.47-3.3,9.28-.61,9.21,4.36-.1,7,0,13.7-.23,14.64-.36,1.67-.4,1.76-.25,2.07.3.61,2.93.88,2.93.71v3a5.43,5.43,0,0,1-4.44-1.18,6.58,6.58,0,0,1-6.47.79C9.44,36.46,8,34.22,8.42,29.14Zm7.42,5.23c-1.09-1.57-2.92-3.72-4.64-4.49-.11,1.81,0,3.33.68,4.15a2.53,2.53,0,0,0,4,.34h0Zm.9-17.32c-.81-2.29-2.88-3.07-4.4-1.63-.95.89-1.1,1.83-1.12,6.93,0,3.15,0,4.47,0,4.47,3,1,5.71,4.4,5.69,4.36L17,21.67a26.8,26.8,0,0,0-.23-4.61h0Z"/><path id="path37-0-5-5-3" d="M170.36,220.51h2.2v3h-2.2s0,1.62-.08,4.47c-.14,6.07-.29,7-2,8.69-3.47,3.3-9.28.61-9.21-4.36.1-7,0-13.7.23-14.64.36-1.67.4-1.76.25-2.07-.3-.61-2.93-.88-2.93-.71v-3a5.43,5.43,0,0,1,4.44,1.18,6.58,6.58,0,0,1,6.47-.79c1.84.87,3.24,3.11,2.86,8.19Zm-7.42-5.23c1.09,1.57,2.92,3.72,4.64,4.49.11-1.81,0-3.33-.68-4.15a2.53,2.53,0,0,0-4-.34Zm-.9,17.32c.81,2.29,2.88,3.07,4.4,1.63.95-.89,1.1-1.83,1.12-6.93,0-3.15,0-4.47,0-4.47-3-1-5.71-4.4-5.69-4.36L161.8,228a26.61,26.61,0,0,0,.23,4.61Z"/><path id="path4075-4-3-9" class="cls-2" d="M81.8,228.7l18.7-34.16a92.42,92.42,0,0,0,9.74,3.14c-5.07,13.24,0,30.71,0,30.71S81.78,228.67,81.8,228.7ZM30.56,170.37c-1.06-14.51.61-26.81,1.29-40.13,0-.19-6.07-4-6.07-4l14.37-8.12c1.43.75,2.25.62,2.59-.76-1.45-4.94-1.73-9.73,1.59-13.82,2.49-3,8.17-1.45,9.82-1.46,1.29,0,4.35-10.21-.83-13.21-1.1-.64-1.62,6-2.36,8.73-3.33-2-9.49-3.59-10.31-7-.42-1.91,5.63-5.58,4.44-7.73C43.36,79.7,38.89,75,37,76.31c-1.81,1.64-6.12,5-6.09,7.28,1.35,4.11,4.77,4.39,6.57,8.28a52.53,52.53,0,0,0,3.76,4.37c-1.24,1.91.77,5.24.86,4.73L26.39,94.1s3.59,27.12-.2,31.14c-.4.42,3.36-1.06,3.42-.83,1.14,1.45,13.81,9.53,17.43,12.43,6.44-9,8.79-13,17.09-21,1.82-1.51,5.88-4.27,8.2-7.58a11.7,11.7,0,0,0,2.3-8c-.43-3-.7-5.07-2.55-7.47C67.81,87.31,61,82,61.13,81.93L63.45,80s8.39,7,11.95,12.08c2.39,3.45,1.32,7.4,3.38,8.11.5.17,3.89-.11,5,.1.13,0,24.69,17.4,20.24,18.41-6.16,1.39-16,.48-16,.48-7-6.87-10.4-9.13-14.58-7,0,0-10.6,9.3-16.71,16.57-3.49,4.15-9,12.82-9,12.82-.41-.18-12.54-9.8-12-8.72,0,0,2.91,26.34,1.62,36-.89,8.19-2.1,17-2.65,24.53,1.72-.37,4.26-.86,4.74,1.77.42,3.59-4.2,2.76-4.3,2.45,0,0,2.58,5.55,2.58,5.55s-4,6.92-3.89,6.62-3.63-6.14-3.63-6.14,2.75-5,3.16-6c.28-.69-4.21,1.82-4.38-1.82s4.68-2.86,4.43-2.38c-.6-8-1.94-16.32-2.79-23.08Zm60.12,18.05c.11-.08-10.61-4.31-20.46-3.92-3.47-1.35-9.13-2.77-12.91-.25a139.14,139.14,0,0,1-11.64-9.21c1,0,5.53-25.85,7.51-34-1.14-10.91,9.34-10.9,10.25-2.16,11.29,11.71,25.12,23.82,39.37,35.73-2.27,4.71-10.45,8.31-12.12,13.81Zm24.69-77.17C102.5,98.09,75.55,74.56,75.55,74.56L88.17,62.22c6.62,2,13.42,3.63,21.12,3.71,0,0,8.43,3.83,12.9,0l11.64,9.25s-4.83,25.46-7.66,34.35c.06,3.52-1.27,7.81-4.74,8.44-3,.54-5.24-3.67-6.06-6.72Zm26-30.49c1.34-8.28,1.62-14.3,2.55-24-5.81,1.71-5.73-6.14,0-4.08l-2.64-5.84,3.91-6.58,3.59,6.25-3.09,5.54c6.43.32,4.88,6.3-.66,4.86,1,9.25,3.34,18.6,3.23,27.74,2,14.67-2.45,35.08-1.71,35.56l6.27,4.33-1.07,31.91-9.91-4.35-2.95,2c.95,1.88,2.15,3.68,2.56,5.72,0,0,6.82,5.63,5.88,7.38.44.26-4.86,7.28-6.41,7.11-3-.33-6.4-4.18-7.39-6.9-.84-2.75,6.12-5.44,5.25-7.46-1-2.41-3.7-3.56-6.05-4.27a10.28,10.28,0,0,1-4.87-3.55s-1.26,10.2-2.47,9.38c-4.88-3.28-1.54-13.69-.64-13.4a39.71,39.71,0,0,0,4.65.73c8.87.93,8.27-10,6.55-15.29-.61-2.07,2-1.41,3.13-1.72,4.31-1.27,11-5.73,11-5.73a155.87,155.87,0,0,1-18.54-12.42,85.44,85.44,0,0,1-11.13,14.76c-4.4,4.4-5.11,5.9-12.47,11.57-.14.11-5.58,6.62-3,14.23,2.21,6.51,12.85,13.55,12.78,14l-2.09,2c.08.12-15.06-9.42-14.71-19.68,0-.39-6.88-.52-6.88-.52L74,131.57l16.91-.07,8.68,7.11,5.42.28c.35.31.55-1.44,5.33-5,9.13-6.83,20.44-24.35,20.44-24.35l12,8.43c-.6-12.66-2.63-26.28-1.4-37.19ZM97.85,20.92S85.42,44.32,78.61,55.34L69,52.57c4-10.76.17-31.27-.85-31.79Z"/><path id="path4073-4-2-4" class="cls-3" d="M24.08,19.56V230.09H154.7V19.56Zm90.29,152.7a112.79,112.79,0,0,1,18-14c2.22-1.34,2.89-1.54,3.76-.74,1.42,1.3,2.31,2.43,1.84,3.33a3.26,3.26,0,0,1-.44.54l-3.42-1.3,1.11,3.89c-3.08,1.26-3,4.59-.05,6.36l-2,4.71,4.75-2.1a3.15,3.15,0,0,0,5.67,0l4.29,2.1-1.48-5.26c1.41-1.35,2.23-3.5,0-5.48l1-4.12-3.87,1.26c-1-1.33-1.53-1.24-1.76-1.6a6.24,6.24,0,0,0-.72-2.71,18.86,18.86,0,0,0-1.71-2.47c-.3-.51-.06-.56,1.49-1.39.73-.39,1.33-.79,1.33-.79s7.58,3.83,10.69,5.29v70.54H111.29c-4.7-14.07-1.32-26.3-.08-31.42-2.19-.18-13.5-3.86-13.84-5.12,4.48-7.13,10.56-13.62,17-19.54ZM33,192.8c-5.45-1.77-5.51,4.82-2.72,5.33a4.77,4.77,0,0,0,2.61-.12c.28.06-3.27,5.52-3.27,5.52s2.84,5.17,4.2,7.37l4.29-7.64L35.33,198c4.39,2.25,6.67-4.44,2.06-5.32a5,5,0,0,0-2.35.41l2.43-22.88c2,1.33,5.53,4,5.53,4,.81,12.61.22,23.11,7.25,41.45l.07,12.7H25.83V161.77l4.48,3c.09.38-.67.12-.26,4.76.37,4.19,1.64,11.45,3,23.24ZM119.66,21.52a5.45,5.45,0,0,1,.34,1.25c1,3.26,4.37,7.18,7.08,8.21.95.36,1.32.91.77,1.46s-3.54-1.2-5.65-3.66c-1.91-2.23-3.19-4.08-3.47-5.48a4.05,4.05,0,0,1-.13-1.8A.59.59,0,0,1,119.66,21.52Zm3.37-.35c.36,0,.84.42,1.13,1.19a9.06,9.06,0,0,0,3.49,4.42c.45.32.63.79.4,1.07a.6.6,0,0,1-.32.19c-1.33.37-4.83-3.69-5.1-6.21C122.57,21.28,122.76,21.17,123,21.17Zm4.35,0c.71,0,1,1.48.64,2.25-.27.24-.85-.13-1.37-1.1S126.39,21.22,127.39,21.22Zm-2.37,0c.16,0,.49-.09.65.14A6.83,6.83,0,0,0,128,24.9c.15.29.23.9-.11,1.05-.8.36-3.22-2.4-3.24-4,0-.48.14-.71.36-.72Zm-3.07,1a11.91,11.91,0,0,0,4.74,6.24c1.31.84,1.82,1.32,1.21,1.74a1,1,0,0,1-.34.18c-3.08-1.18-6.86-5.65-7-8.81C121.25,20.71,121.84,21.67,122,22.21ZM111.31,34.31a13.31,13.31,0,0,0-5.21,1.1c-2.24,1-2.8,1.7-2.47,1.94s1.68-.45,2.4-.54c3.9-1,6.58-1.21,9.12-.09,2,.86,2,.46.66-1a6.11,6.11,0,0,0-4.5-1.44Zm13.74,2.14c1.29,0,2.61.29,3.08.89.36,2-.61,1.06-1.39.67a6.63,6.63,0,0,0-3.64-.79c-.78.12-.8.08-.36-.17a4.91,4.91,0,0,1,2.31-.6Zm-15.28.76c-3.69.29-5,2.16-7.34,4.09-1,.75-.75,1.32.44,1.13a6.63,6.63,0,0,1,4.07.5c2.19.75,3.76,1.06,5,.6,2.28-.88,2.08-.73-1.17,2.43-1.74,1.4-1,1.33.73.11a10.16,10.16,0,0,0,2.47-2.28c.13-.28.14-1.28.39-1.28.83,0,.4-1-.35-1.48-.5-.35-.38-.72.26-1.4,1-1.06.66-1.54-.43-.88-.19.1-.29-.22-1-.62a5.43,5.43,0,0,0-3.06-.92Zm2.66,1.39c.89.75.51,1-1.43.94a14.12,14.12,0,0,0-5,.81c-2.22.74-2.35.76-1-.36C106.74,38.47,110.38,36.93,112.43,38.6ZM123.95,38a4.46,4.46,0,0,1,2.33.49c1.86,1,2.27,1.92.2,1.19a7.79,7.79,0,0,0-4.26-.05c-1.25.35-1.47.47-1.3-.21C121.13,38.54,122.46,38,123.95,38Zm-14.61,3c.44,2.21,2.11,1.49,2.28.15h.61c-.26,1.78-2.67,3.26-3.61-.16.2,0,1.07.06.72,0Zm13.35,0h.45c.3,1.7,1.87,2.25,2.55.13h.55C125.83,44.69,122.09,43,122.69,41Zm-14.63.17c.3.11.44.94.39,1.16-.11.45-1.58,0-1.89-.47C106.86,41.54,107.59,41,108.06,41.19Zm20.1.38v.62c-.68.16-1,.55-1.6.42a2.29,2.29,0,0,1,.34-1.4,1.09,1.09,0,0,1,1.27.36Zm-14.88.72a1.48,1.48,0,0,1-.73.27c-.07-.59-.17-1.26.57-1.27A.58.58,0,0,1,113.27,42.28Zm8.51-1c.26,0,.56.67.6,1-.08.62-1.6.37-1.6-.24,0-.26.63-.8,1-.8Zm-13.9,23.44c-1.17-.59-10.07-6-12.34-15.59l-.45,1c1,2.29,2.39,6,2.39,6-.06-.32.36,2.5,1.27,7.28a6,6,0,0,1-1.54-.27c-1.17-4.38-1.45-7.81-2.44-12.1l-.43,1.2s1.24,7.69,2.08,10.7c-.48,0-1.36-.24-1.36-.24-.7-3.24-1.24-5.42-1.9-8.67l-.61.79a50.86,50.86,0,0,1,1.65,7.62A4.93,4.93,0,0,1,92.44,62s-.9-4.67-1-4.73a2.21,2.21,0,0,0-.48.79,18.68,18.68,0,0,1,.72,3.67,17.81,17.81,0,0,1-2.26-.62,4.09,4.09,0,0,0-.84,1c.34,1.49,20.75,4.7,19.53,3.47,0,.13,9,4,14,.7,0,0,8.74,6.5,12.15,9.1a7.8,7.8,0,0,0,2.41,2.55l3.46,2.67c1,.78,1.41.22,1.56-1.26.17-1.64,1.36-12.72,1.64-15.08,1-8,1-7.87-.17-7.5-1.84.56-3.5-.17-3.5-2.06a2.54,2.54,0,0,1,1.76-2.56,4.06,4.06,0,0,1,1.32-.12c.24,0,.68.07.73.08.59,0-2.27-5.22-2.27-5.22s2.73-4.88,4-6.7l3.53,6.42-2.89,5.67c5.64-.42,5.08,6.68-.43,4.3,0,0,0,2.11,0,2,.05-.6,0-1.12.24-1.23,5.34,2,6.43-5.79.67-5.43.95-1.66,2-3.37,3-5.2L145.17,39l-4.7,7.85,2.37,4.9a4,4,0,0,0-1.53,0c-3.49.72-2.74,6.34,1.25,5.57a5.81,5.81,0,0,0,1.14-.43l-2.57,23s-.25.21-1.29-.54c-1.19-.86-3.69-2.73-3.85-2.93a93.56,93.56,0,0,0-7-39.84c-.27-.74-.11-15.32-.11-15.32h23.95V89.07c-1.24-.79-2.72-1.83-4-2.73a1.11,1.11,0,0,1-.46-1.27c-.42.9-.17,1.29-.17,1.29l5.24,4.2-.21,66.64s-8.46-4.37-13.67-6.48c-2.35-1-2.46-.68-2.46-.68s1.66,3.74,1.19,4.41c1.12,1.08,3,3.34,3.09,5.55a6.94,6.94,0,0,1,2,2.23l3.14-1.14-.71,3.28c3.34,2.35.12,5.5-.49,5.21a36.42,36.42,0,0,1,1.81,4.62,32.93,32.93,0,0,1-3.91-1.82c-1.92,3.79-5.16.61-5.18.05l-3.59,1.6,1.27-4.1c-2.31-1.41-3.88-3.54-.14-5.84l-.86-3.2,3.08,1.21s.57-.92,1-1.6c-1.15-5-8.72-4.08-11.15-8.6a67.32,67.32,0,0,1-1.21,7.69c-.24,5.4-4-.06-4-5.77,0-1.29,1.62-5.63,2.16-5.84s6,2.54,9.6-.06c1.65-1.72,4.5-6.57,1.76-14.16-.91-1.75,1.72-2,2.57-1.38,0,0,7.89-4.14,11.46-6.14-6-3.29-18.41-12.06-18.4-12.48-1.66,2.64-3.56,4.85-6.23,8.59-4.33,5.11-7.71,10-13.2,14.05-7.72,5.64-9.54,11.32-7.38,18,.87,2.88,2.63,5.8,5.5,6.81,1.46,1.48,7.34,7.06,7.34,7.06-9.81,9-16.54,16.33-21.27,24.47,4,2.1,13.6,5.15,13.6,5.15-3.57,11.9-1.95,21.36.41,30.85,0,0-27.91,0-42.39-.42a4.38,4.38,0,0,1-1.71-.06c-.06-1.06,2.61-4,3.41-3.57.4-.4,1.25-.6,1.1-1.08-2-.24-5,3.22-5.15,4.66H64.52c-.24-.21,2.16-5.85,7-6.3,0,.2.65-.44.12-.71-5.62.67-8.24,6.93-8.08,7h-.87a11.47,11.47,0,0,1,9.77-8.36s.93-.33.69-.87c-6.37,1.11-9.54,3.87-11.07,9.23H60.93c.83-5.44,6.4-10.2,12.7-10,.2-.12.44-.27.34-.89-7,.79-10.48,3.13-13.35,9.15-2.57-6.69-9.71-9.86-9.79-9.89s-.17-1.87.23-1.8c6.09,2.21,8.42-3.09,8.16-6.18a26.13,26.13,0,0,0-.62-5.13,22.48,22.48,0,0,1-.85-4.65c0-.95.34-1.14,1-1.46,1.31-.59,2.12-2.74,1.83-3-.67,1.56-2.44,1.83-3.26,2.88-.65.87-.36,2.24.8,7,.71,2.92-.13,1.58-1.78.66l-1.1-.63c.74.76,1.52,1.48,2.28,2.23s.3,1-.67.64a5.77,5.77,0,0,0-5.11.47c-.4.29-.54.26-.64,0-.45-7.43.33-12,2.78-17.59,1.59-3.8,3.95-6.64,7.1-6.84s7.74.85,11.88,3.68c4.87,3.32,9.61,8.36,10.12,14.55,0,.07.37-.53.54-.85.22-.74-.59-2.94-1.86-5.5-.23-1.93-.89-5.3-1.41-7.59a1.61,1.61,0,0,1,1.47.21c.89,3.78,1.53,6.72,2.29,11.78,0,.49.64-.73.64-1.06-.11-.75-2.21-10.66-2.17-10.43,0-.34,2,.11,1.72.42,0,0,1.51,8.31,1.62,8l.51-.71s-1.44-6.07-1.26-7.24c.12-.18,1.24.18,1.59.38.44.6.73,2.76.91,4.24.51.39.61-.74.58-1-.37-.59-.76-2.78-.47-2.89a4.13,4.13,0,0,1,1.75.64c.29.26,1.4-1.29,1.12-1.56a61.31,61.31,0,0,0-19.35-3.76,9.39,9.39,0,0,1-3.9-.92c-5.19-1.88-9.49,0-10.12.59-6.34-4.42-13.42-10.59-19.06-14.53a2.88,2.88,0,0,0-1-.28c-.89,6.86-1.52,14.79-2.28,21.12-.31,2.51-.35,2.7-.23,2.77s.29,0,.37-.08c1.85-.68,3.53-.24,4.42,1.44a2.56,2.56,0,0,1-3.86,2.84c-.82-.42-.94-.34-.56.46.65,1.44,2.51,5.24,2.51,5.24s-2.52,5.16-3.79,6.56c-1.24-2-2.83-4-3.51-6.24,1-1.92,2.82-4.38,3.4-6.27a1.53,1.53,0,0,0-.93.17C29.48,199,29,196.07,29,195c.09-2.1,1.91-2.55,4.57-1.57-2.87-19.12-3.48-30-2.75-28.83a58.53,58.53,0,0,1-5.19-4.17l.2-139.17H66.94c4.23,11.37,3.06,25,.54,32.15a41.38,41.38,0,0,1,14.14,4.83C73,71,59.39,84.75,44.68,93.55c-.83.38-3.57-1.34-3.89-3-.07-.39.14-1.17.58-1.15,1.08.35,2.13.83,3.18,1.27,0,0-1.47-3.7-.76-4.26a6.27,6.27,0,0,0,1.14-.87,3,3,0,0,0-.15-4.11,4.5,4.5,0,0,0-1.24-.92s1-2.89,1.56-4.25L41,77.58c-1.32-1.84-3.75-3.27-5.55-.53-.34.73-.27.62-2.8-.5-1.43-.64-2.32-1-2.32-1,.54,1.6,1.24,3.11,1.85,5-2.81,1.8-2.17,4.83.2,5.74l-1.25,4.1s2.66-1,4.1-1.38a7.62,7.62,0,0,1,1.64,2.48,10.52,10.52,0,0,0,3,4.44,20.6,20.6,0,0,1-4,2.35l6,2.42c-.37-1.27-1.16-2.21-1.24-3.81a2.52,2.52,0,0,0-1-2.33c-1.63-1.42-1.8-3.11-2.35-4.23a4.16,4.16,0,0,1-1.58-1.88c-.39-.83-3,1.11-3.35.74s.83-3.13.68-3.39c-1-.09-4-2.39-.49-4.95l-1.12-4.16s2.67,1.17,3.94,1.82c.89-4.16,4.93-2.17,5.59-.37,0,0,3.21-1.06,3-.2s-.61,2.69-.61,2.69c2.88,2.56,2.29,3.82-.06,5.5a15.69,15.69,0,0,0,.53,3.47,26.35,26.35,0,0,0-2.71-1c-.43.43-.92,1.21-.84,1.61C41,93.42,45,94.32,50.86,97.63c.2-2.09,1.64-5,1.8-7.46.1-1.83.16-1.86,1.45-1.27,3.38,2.45,2.35,9.17,1.12,11.93-.73,1.56-.85,1.52-2.27,1.07a14.32,14.32,0,0,0-7.34.27c-2.64,1.08-3.89,7-3.92,8.79a12.3,12.3,0,0,0,1,5.5c.37,1.35-.31,2.39-1.52,2-.27-.08-.92-.33-.92-.33l-11.4,5.91L31,125.35s-1.58-.95-.6-1.46l9.78-5.12c1.82.71,1.58.86,2.76-.38a1.89,1.89,0,0,1,2-.65c5.76.55,8.32-.29,9.31-2.71.15-.36.09-.35.68-.65a2.36,2.36,0,0,0,1.66-2.16c0-.63.31-.72.79-1.16a2.26,2.26,0,0,0,.51-2.92c-.27-.5-.47-.66-.36-1.18a3.16,3.16,0,0,0-1-2.73c-1-1.1-1-.92.85-2.61,3.55-3.38,6.68-6,10.13-9,2.36-2.09,2.11-1.94,3-1a14.25,14.25,0,0,1,3.19,13.87c-.07.23-.1.2.07,0,1-1.09,1-6.56.17-9-1-3-2-4.54-5.26-7.46-2.06-1.86-7.66-7.25-7.66-7.25,8.15-7.09,16.93-15.9,21.85-24-2.53-2.72-14.23-5.22-14.23-5.22,1.46-3,4.34-16.66-.59-31.76,14.49.67,29.09-.39,43.56.59l.35-.12c.4-.11.6.18.51.63-.31,1.15-2,3.85-3.19,3.63-.53-.21-.38.82-.62,1.24,1.88-.24,4.08-2.63,4.63-5,.3-.5.5-.58.8-.48s.26.44-.12,1.58c-1.18,2.86-3.56,5.51-6.33,5.25l-.36,1c3.74-.06,6.63-3.57,7.48-6.2.6-1.56.62-1.77,1.22-1.62.5.46.19,1.12,0,1.66-1.88,6-7,7.63-9.61,7.37-.31,0-.36.25-.27.75,5.52.37,9.91-4.4,10.54-8.5.3-1.14.83-1.52,1.13-1a2.48,2.48,0,0,1,0,1.36C116.34,29.36,109.47,33,105.28,32c-.19-.18-.51.71-.05,1,8.47-.32,11.08-4.7,13-8.58,2.3,3.49,4.19,7.08,9.71,9.19,0,0,.55,1.22.12,1.49-.23.14-.58.08-1.09,0-6.73-1.09-9,5.22-6.09,14.64.78,2.58.43,2.19-1.24,3.8-.8.77-1.18,2.13-1,2.16.29-.16.38-.6,1.08-1.19.3-.25.93-.49,1.39-.81,1.25-.72,1.23-1.22.79-2.93-.33-1.27-1.18-5.14-1.18-5.54,0-.74.17-.66,1.1,0,1.29,1,2,.89.46-.34a6.13,6.13,0,0,1-1.18-1.12c-.25-.36-.09-.6.41-.44a7.3,7.3,0,0,0,6.56-.7c.26,6.22-.6,15.65-5.79,22.39-4,4.49-11.61,1.09-14.43-.33ZM114,50.45a3.15,3.15,0,0,0-1.05.32c-1.53.88-1.16,4,.51,4.41a3.07,3.07,0,0,0,2.41-.28,3.79,3.79,0,0,1,1.88-.46c.55.23.73-.26.85-.81.26-1.24-1.76-1.27-3.37,0-2,1.62-3.59-.77-1.68-2.56.64-.41.62-.63.46-.62Zm-15.8,6.67,1.71,2L101,63.81a2.94,2.94,0,0,1-1.44-.25A58.32,58.32,0,0,1,98.18,57.12Zm23.27,1.19-.06,0a2.84,2.84,0,0,1-.83.22c-.25,0-.64-.15-.91-.14a6,6,0,0,0-1.63.34.71.71,0,0,1-.65,0,4,4,0,0,0-2.68.05,2.07,2.07,0,0,1-1.72,0c-.21-.11-.42-.38-.46-.34a14.48,14.48,0,0,0-.48,1.93c0,.18-.12.48,0,.51s.4-.24.78-.43c.78-.4,1.64-.37,3.17,0,1.88.46,2.61.33,3.72-.24a2.61,2.61,0,0,1,2-.4c.14,0,.53.24.58.19s-.18-.66-.42-1.21c-.18-.4-.24-.56-.36-.54Zm-20.29,2.13a17.91,17.91,0,0,0,2.57,2.21l-.05,1.51a8.18,8.18,0,0,1-1.9-.17C101.58,63.4,100.72,60.45,101.16,60.43Zm13.59,1a2.09,2.09,0,0,0,.5.24c2.63,1-.12.74-.38,1.68,0,.08.12.1.25,0a10.3,10.3,0,0,1,4.11-.39c1.3.44,1.38.14.13-.52-.92-.36.19-.61.57-.92.78-.5.24-.71-.75-.23a4.71,4.71,0,0,1-3.55,0,3.39,3.39,0,0,0-.87-.36c-.34,0-.16.34,0,.45Zm-10.35,1.69,1.54,1.21-1.57-.15ZM69.54,93.47a.57.57,0,1,0,.56.57A.57.57,0,0,0,69.54,93.47Zm2.05.57L64.53,97.4,66.4,98l0,1.94,1.72-.55.73,1.81Zm.31,1.58a.57.57,0,1,0,.56.57A.57.57,0,0,0,71.91,95.62ZM63,99.06a.56.56,0,1,0,.56.56A.56.56,0,0,0,63,99.06Zm2.17,1.05-7.92,3.65,2.35.72-.62,2.43,1.91-.81,1.07,1.63Zm.23,1.74a.57.57,0,1,0,.56.57A.57.57,0,0,0,65.36,101.85Zm-15.72.36c3,0,6.32,1.13,7.46,3.69.3,1.28-1,2-3.63,1.3-4.42-1.22-5.25-1.35-4.51-.6a2,2,0,0,0,1,.57,23.15,23.15,0,0,0,5.76,1.14c1.19-.16,2,.4,1.71,1.39s-1.88,1.59-4.2,1.26a32.32,32.32,0,0,1-4.53-.86c-1-.31-1.06-.29-.58.44.25.38.28.68.65.75a31.53,31.53,0,0,1,4.73.35c2.62.23,3,1,1.1,2.11-.91.54-3.63.39-5.18-.17-1.11-.4-3.64-1-2.66-.2.24.19.16.64.56.79,1.34.19,5.13.45,5.73,1,.38.35-.48,1.23-2.25,1.69-2.67.51-6.65.29-7.7-.43-1.95-4-.9-10.5,2.15-13a7.48,7.48,0,0,1,4.42-1.18Zm17.47,2.08a.56.56,0,1,0,.56.57A.56.56,0,0,0,67.11,104.29Zm2.35.6L61.28,109l2.07.62L62.86,112l1.92-.79,1.16,1.61Zm.06,2a.57.57,0,1,0,.56.57A.57.57,0,0,0,69.53,106.89Zm4.76,4.82c-3.63,3.54-7.72,6.35-11.45,9.79l.81,0,2-1.84,57.31-.18-1.34,2,.56.24a20.13,20.13,0,0,0,1.6-2.67c-12.59,0-22.31,0-36.12.1-2.52-2.5-5.18-4.84-7.81-7.22ZM56.86,114a.57.57,0,1,0,.56.57A.57.57,0,0,0,56.86,114Zm74.82.43c5,3.69,10.82,8.21,15.68,10.89,1.95.85,1.76,1.14-.22,2.08-1.95,1.21-5.19,2.78-7.89,4.15-1.17.44-1.68-.13-2.51,0a1.59,1.59,0,0,0-1.13.74c-.59.78-.43.75-3.56.61s-4.46-.07-5.14.28-1.77,1.47-1.77,1.95a1.38,1.38,0,0,1-1,1.24,1.88,1.88,0,0,0-1.59,1.72,3.06,3.06,0,0,1-1,1.4,2.11,2.11,0,0,0-.55,2.47,1.91,1.91,0,0,1,.21,1.41c-.21,2.57-.39,2.35,2.35,4.25l-14,12.23c-.32.26-.42.23-.71,0a11.13,11.13,0,0,1-3.58-5.47c-2.36-6.53.52-11.9,4.36-15.18,1.33-1.14,3.12-2.49,3.61-2.84C120.45,130.2,126.73,121.44,131.68,114.41ZM59,114.89l-8,3.79,2.58.44L53,121.35l1.87-.71,1,1.88Zm.49,1.77a.56.56,0,1,0,0,1.13.56.56,0,0,0,0-1.13Zm73.29,2.48-.91-2.15s-2.53,6.24-3.06,8.36l8.41-4.31-2.68-.5.3-2.44Zm-91.37.39a.57.57,0,1,0,.56.57A.57.57,0,0,0,41.37,119.53Zm2.45.51s-6,2.8-8.64,4l2.51.53L37.25,127l2.26-.89.91,2.42Zm.32,1.85a.56.56,0,1,0,.56.57A.57.57,0,0,0,44.13,121.89Zm84.23.41a.56.56,0,1,0,.56.56A.56.56,0,0,0,128.36,122.3Zm9.73.51-2.83,7.9,7.66-3.87-2.08-.57v-2l-1.71.5Zm-90.54,1.9a.57.57,0,1,0,.56.57A.57.57,0,0,0,47.55,124.71Zm83.8.14a.56.56,0,1,0,.56.57A.56.56,0,0,0,131.34,124.85Zm-81.45.58-8.12,4,2.52.59L44,132.54l2-1.17,1.11,2.32Zm.51,1.68a.54.54,0,0,0-.53.57.56.56,0,0,0,1.12,0A.59.59,0,0,0,50.41,127.11Zm84.42.5a.56.56,0,1,0,.56.57A.57.57,0,0,0,134.82,127.61Zm-11.19,2.6-.75-2.13-3,7.8,8.08-3.71-2.56-.6,0-2Zm-8.21-1.68c-.09,0-.17,0-.17.08a24.74,24.74,0,0,1-2.06,2.2L89.35,131s2,.54,2,.54c3.13,2.51,8,7,8,7l5.92-.24c3.28-3.23,8.2-5.68,10.4-9.67a.42.42,0,0,0-.25-.09Zm22.35,1.61a.56.56,0,1,0,0,1.13.56.56,0,0,0,0-1.13Zm-18.4,2.72a.56.56,0,0,0,0,1.13.56.56,0,1,0,0-1.13Zm12.1.82c1.71,0,3.35,0,3.78.38,2.64,2.23,1.39,12.66-1.94,14-3.65.83-6.18,1-9.35-1.12-.9-.44-2.68-1.77-2.34-2.87.47-1.35,1.78-1.25,5.53-.08,1.37.43,2.12.34,2.47.07s-.1-.53-.8-.53a16.39,16.39,0,0,1-2.5-.61,9.93,9.93,0,0,0-2.76-.62c-1.55-.09-2-.15-2-1.1,0-1.78,2.46-2,7-1a11.94,11.94,0,0,0,1.76.26c.17.07-.34-.59-.43-1-.16-.14-.46-.21-1.23-.23-2.91-.29-5.33-.48-5.39-.87-.26-1.88,3.51-2.39,7.42-.88,1,.39,1,.23,1-.07,0-.54-1.69-1.49-4.17-1.46s-2.07-1.2-.09-2.13C128.13,133.52,129.77,133.68,131.48,133.68Zm-9.32,2a.57.57,0,1,0,.56.57A.56.56,0,0,0,122.16,135.69Zm-8.68,3.9-.51-2.11-3.28,8.2,8.28-4.23-2.73-.51.24-1.72Zm-4.22,3.29a.57.57,0,1,0,.56.57A.57.57,0,0,0,109.25,142.88Zm8.25,2.33-.7-2L114,150.35l7.07-3.17-2.09-.57.3-2.16Zm-5.63,0a.57.57,0,1,0,.56.57A.57.57,0,0,0,111.88,145.23Zm1.81,2.72a.56.56,0,1,0,.56.56A.56.56,0,0,0,113.68,148Zm-3.55,1.67-2.39,6.76,6.64-3.22-1.94-.64s.11-1.52-.08-1.45-1.37.39-1.37.39Zm5.91.81a.56.56,0,1,0,.56.56A.56.56,0,0,0,116,150.43Zm-8.81,3.25a.57.57,0,1,0,.56.57A.57.57,0,0,0,107.24,153.69Zm2.54,2.62a.56.56,0,1,0,.56.56A.56.56,0,0,0,109.78,156.3Zm-35,31.13c-.3,0-1.09-.68-1.25-1a1.38,1.38,0,0,1,1.17.18C74.87,186.79,75,187.3,74.75,187.43Zm2.41-.49c-.11.83.4,2.32.31,2.67-.26.13-1.58-1.29-1.91-1.64a6.17,6.17,0,0,1,0-1.34,2,2,0,0,1,1.57.31Zm2.38.41c.28,1.83,1.08,4.77,1,5.76a15.57,15.57,0,0,1-1.89-2.17A14.52,14.52,0,0,1,78,187,2.15,2.15,0,0,1,79.53,187.35Zm-15.94-.21a6.1,6.1,0,0,1-2.9.71c-.93,0-2.53-.49-2.37-.37.42.76,1.53.36,1.55.86-.28.49-1,.44-1.38.91-.08.13.11.23.63.18a7.78,7.78,0,0,1,5.5-.08c.39.08.14-.3,0-.4a2.35,2.35,0,0,0-1-.41c-1.64-.29-.92-.46.18-1,.81-.29,1-1-.23-.45Zm3.55,2.33a9.73,9.73,0,0,0-1.36.54,4.77,4.77,0,0,1-3.31-.07,3,3,0,0,0-2.79.36,2.22,2.22,0,0,1-2.25.29c-.8-.46-.8-.3-.4.83.1.28-.1,1.14.25,1.33s.57-.35.78-.42,1.49.51,2.21-.13c1.28-.47,1.67.29,2.56.22,1.44-.51,2.34-1,3.58-.06.07-.37.36-2.38.82-2.86,0,0,0,0-.1,0Zm-2.63,5.8c-1,0-1.6.65-2.94.53a1,1,0,0,0-1,1.57c.32.49.75.58,2.2-.09.6-.28,1.43-.88,1.92-.83,1.43.14,1.77,1.52.58,2.69-.58.34-.58.71-.41.72a2.1,2.1,0,0,0,1.63-1.2c.59-1.79-.47-3.42-2-3.38Zm4.66,8.27a8.2,8.2,0,0,0-4,2.85c-.62,1-1.21,2.09-.78,2.64s.85.89.89,1.13-.25.42-.52.73c-1.19,1.33-.9,1.4.76.54.84-.44,1.23-.61,1.78-.47a9,9,0,0,0,5-.38c.61-.23,1.21-.53,1.26-.38a6.77,6.77,0,0,1-6.67,1.88c-.19-.05-.34,0-.34,0s.32.42,1,.72c1.14.51,3.87,0,5.58-1.28,3.38-2.22,5.24-4.34,2.58-3.45-1.22.41-1.68.33-3.16-.34-2.22-1-3.93-1.3-5.77-.66-2.33.82-.54-1.11,2.08-2.79.57-.36.64-.78.31-.77ZM56.59,209.3h-.78c-.56-1.88-1.9-1.88-2.48,0l-.65,0c.64-2.34,3-2.83,3.91,0Zm13.84.16-.58,0c-.35-1.14-1.6-2.14-2.48-.27l-.41-.08c.72-3,3.59-1.32,3.47.33Zm-3.9-1.71c.36,0,.46.41,0,1.09-.29.47-.64.43-1,.07s-.29-.37,0-.68A1.52,1.52,0,0,1,66.53,207.74Zm4.31,0a3.6,3.6,0,0,1,.8.24c.89.3,1.09.55.72.91a1.25,1.25,0,0,1-1.35.26c0-.45-.46-.79-.47-1.24C70.54,207.81,70.68,207.76,70.84,207.76Zm-13.9,0c.62,0,1.44.34,1.38.69s-.67.64-1.17.69c-.34,0-.32-.09-.41-.33s-.18-.49-.24-.7c-.14-.41.12-.34.44-.35Zm-4.21.13s-.34,1-.5,1.38c-1.29-.07-1.17-.64-.56-1A2.21,2.21,0,0,1,52.73,207.91Zm-1,2.45a5.26,5.26,0,0,1,.93.34,9.67,9.67,0,0,0,4.51,0c.71-.16,1-.38,1.2-.27s0,.9-1,1.35a6.49,6.49,0,0,1-4.9,0c-1.32-.67-1.46-1.39-.71-1.37Zm-.35,1.47a5.66,5.66,0,0,0,3.9.91c2.23-.08,2.63-.36.75.64s-4.42.75-4.94-.25C50.8,212.55,51,211.87,51.38,211.82Zm10.82,1.34h0c.18,1.21,2.2,2.31,3.17,2.58,2.06.92,5.33,0,7.8-1.06,1.8-.78,2.45-2,.31-1.29-3.45,1.07-7.78,1.16-10,.32a6.91,6.91,0,0,0-1.31-.56Zm-11.36,4.53c4.32,1,9.54,7.66,9.52,10.58H59a14.14,14.14,0,0,0-8.18-9.48c-.25-.91.06-1.12.05-1.1Zm-.07,1.88a13.63,13.63,0,0,1,7.73,8.7H57a11.6,11.6,0,0,0-6.24-7.18,3.44,3.44,0,0,1,0-1.52Zm0,2.28c2.63.78,4.95,4.25,5.61,6.42H55.06a7.86,7.86,0,0,0-4.34-4.87,4,4,0,0,1,.05-1.55Zm0,2.36a5.83,5.83,0,0,1,3.63,4.06h-1.2a6.87,6.87,0,0,0-2.41-2.91C50.74,225.13,50.73,224.21,50.73,224.21Zm.13,2c.13-.08,2,1.58,1.66,2H50.86c0-.52,0-2.05,0-2Z"/><path id="path4071-9-6-8" class="cls-4" d="M97.88,21.25c-3.13,6.08-19.19,33.47-19.35,34.42l4.11,1.82,20-36.1S98.47,21.25,97.88,21.25Zm47.24,22.92-1.74,2.48,1.41,2.84,1.71-2.7ZM71.67,71.59s-5.76,5.74-8,8.41c4.84,4.84,14.08,10.92,14.15,20.27l6.37,0,20.63,18.51s18.69.14,19,.06,7-9.62,7-9.62l11.84,8.66s-.57-9.33-1-15c-.15-3.82-.27-6.17,2.51-7.86-3.83-1.83-3.58-5.19-.77-7.66-.93-1.29-2.32-1.53-2.52-6.09A11.73,11.73,0,0,0,139,79.72l-.76.69c-2.46,2.21-4.13,4.47-4.41,5.94-.52,2.8,2.31,4.71,3.94,2.67.46-.58.87-.41.87.34,0,1.52-1.91,2.39-3.53,1.59a2.11,2.11,0,0,0-.75-.28c-.06.06,1.6,4.15,2.05,5a11,11,0,0,1,1.2,4.58c.06,1.68,0,1.9-.76,4.81-.74,2.74-.39,4.37.93,4.37.75,0,.72.72,0,1-1.6.56-2.59-.62-2.64-3.15,0-1.53-.06-1.57-.85-1.2-2.73,1.29-5.7-1-4.42-3.42.27-.51.59-.35.76.38A2.14,2.14,0,0,0,133,105c2.95,0,4.18-4.19,2.48-8.4-.34-.84-.51-.8-1,.27-.7,1.68-1.88,2.17-2.85,1.19-.33-.33-.48-.86-.26-.88l.72,0c1.72-.05,2.31-1.73,1.51-4.24a23.05,23.05,0,0,1-1-3.81,7.31,7.31,0,0,1,.81-5.05,22.38,22.38,0,0,1,2.42-2.72c1.28-1.3,2.38-2.29,2.38-2.29-1.22-1-2.32-1.83-3.7-2.85,0,0-8.78,24.18-8.16,33.61-1.11,12.41-10.21,9-10.88.38Zm-.39,3.63c3-.05,5,3.93,6.11,12.19.37,2.74,2,6.57,3.24,7.48,3,2.29,7.81.52,7.81-2.89,0-4.25-5.94-4.88-6-.64,0,1-.53,1.05-1,.1a3.17,3.17,0,0,1,.81-3.23c.54-.51.5-.61-.54-1.19-3.62-2-5.16-5-3.22-6.26.85-.56,2,.15,1.47.89-.83,1.17-.84,1.35-.15,2.32s1.72,1.65,3.94,2.31a18.18,18.18,0,0,1,3,1,4.85,4.85,0,0,1,2.79,6.14L89,94.76c-.09.27.06.27,1.83,0,2.82-.38,5.94.63,7.49,2.41a8.76,8.76,0,0,1,1.51,4.9,11.9,11.9,0,0,0,.24,1.74c.13.61.3,1.64.38,2.29.74,6.14,5.84,9.29,8,5,1.39-2.73-1.82-5.45-3.45-2.94-.57.88-1.16.48-.83-.57.64-2,3.19-2.39,4.92-.67a4.89,4.89,0,0,1,.93,4.38c-.24.7-.21.75.3.57a4.45,4.45,0,0,1,3.9.76c1.7,1.83,1.36,4-.73,4.73a1.78,1.78,0,0,1-2.38-1.13c-.16-.8.39-1,.81-.34.79,1.29,2.52.25,2.11-1.27-.46-1.72-1.93-2.09-4.65-1.15-4.31,1.49-5.7,1.36-7.77-.69-1.47-1.47-2-2.74-2.42-5.54-.44-3.09-.48-3.17-1.24-2.52-3.65,3.12-8.47-1.59-5.38-4.69,1-1,1.66-.12.8.95-1.26,1.57.38,3.75,2.43,3.24,3.74-.92,3-6.41-1.07-7.69-1.23-.39-4.62-.23-7.22.34-7.27,1.6-10.48-1.51-12-11.6a36.24,36.24,0,0,0-1.07-4.59c-.82-3-3.61-4.64-5.12-3-1.21,1.31-.57,3.06,1.11,3.07s1.17,1.16-.59,1.32c-3,.27-3.57-4.81-.65-6.26a4.68,4.68,0,0,1,2-.55ZM31.52,77l1,3.67,3.76,1.07-1.19-3.44Zm9.7,1.13-1,3.27,2.8-1,1-3.13Zm30.93,5.36a1.08,1.08,0,1,1-1.08,1.08A1.08,1.08,0,0,1,72.14,83.53ZM36.2,85.43l-3.27,1.09-.57,2.59,3-.68ZM43,86.6l-2.35-.72.56,2.68,2.56,1.05Zm105.09-.51-1.56,1.22c4.54,4-.36,7.77-.51,7.51,3.28,2.18,2.7,5.62,2.27,8.76-.78,5.61-1.08,10.92-1.93,16.68a45,45,0,0,0,6.58,3.8s0-33.76,0-33.76Zm-56,5.08A1.08,1.08,0,1,1,91,92.26,1.08,1.08,0,0,1,92.09,91.18ZM25.7,94l.14,31.5,6.5-11.66-4.47-5.18,3.87-4.14A113,113,0,0,1,25.7,94ZM89,98.76a1.08,1.08,0,1,1-1.08,1.08A1.08,1.08,0,0,1,89,98.76ZM103.77,102a1.08,1.08,0,1,1-1.08,1.08A1.08,1.08,0,0,1,103.77,102Zm42.28,35.1,4.78,4.92L147,146.65l5.92,10-.09-30.93ZM25.64,126.73l.23,33.88L31,164.35l1.3-1.23c-3.3-3.53-1.33-6.16,1.16-7.67-4.38-1-3.05-6.85-2.79-9.56-.11-5,1.73-10.74,1.16-15.56Zm29.41,4.71-7.32,10.23s-8-6.11-12.1-8.87c.43,4.41.83,10,1.37,14.79,1.32,6.93-2.11,7.05-2.14,7.72,5.44,4.14.87,8,.06,7.82,2.9,1.58,2.66,6.39,2.66,6.39l1.37.78.64-.38A12.14,12.14,0,0,0,44,164.44c.93-3.16-1.81-5.79-3.53-3.39-.85,1.18-1.52.39-.83-1A2.67,2.67,0,0,1,43,158.81c.64.34.5-.55-.49-3a28.32,28.32,0,0,1-1.07-3.59A10.75,10.75,0,0,1,42,146c1.13-3.16.73-5.15-1.08-5.32-1-.09-1.07-.39-.28-.84,1.75-1,3.45.42,3.38,2.82,0,1.3,0,1.32.66,1,3.46-1.39,6.19,2.21,3.77,5-.74.84-1.21.31-.72-.83.75-1.75,0-3-1.72-3-2.55,0-4,3.52-3,7.4.31,1.21.36,1.23,1.21.42s1.31-.95,1.9-.77c1.21.36,1.52,1.65.37,1.49-2-.27-2.51,1.81-1.39,5.53,1.49,4.93,0,8.95-4.43,11.81-.22.14-.58.42-.58.42a29.67,29.67,0,0,0,5,3.76l8-32.57a26,26,0,0,0-.33-2.72c0-8.74,8.13-9.58,10.67-1.64a19.07,19.07,0,0,0,1.54,2.71l42.33,37.68s7.9-7.66,7.79-7.86c-6-6.07-14.11-10.36-14.41-20-1.44,0-6.25,0-6.25,0L73.95,131.66c-6.46,0-12.19-.42-18.89-.22Zm11.53.71c1.13,0,2.27.55,2.27,1.5s-.54,1-1,.34c-.63-.93-1.36-1-2.11-.21-2.07,2.18,1.14,4.17,4.83,3,2.26-.72,3.36-.91,4.18-.74,3.49.7,5.17,3.06,5.47,7.66.15,2.34.15,2.33,1.15,1.4a3.84,3.84,0,0,1,6.55,2.32,3.11,3.11,0,0,1-2.75,3.22c-.57,0-.48-.6.14-.89a2.34,2.34,0,0,0,.1-4c-1.91-1.21-4.42.68-4.39,3.3,0,3.16,2.39,4.61,7,4.34l3.79-.18c2.22-.09,4.6-.51,6.86,1.2,2.37,1.89,3.94,5.64,4.61,11.06,1.06,6.67,1.88,8.46,4.11,8.62a2.35,2.35,0,0,0,2.45-2.35,1.74,1.74,0,0,0-2.15-1.44c-1.12.37-1.35-.85-.24-1.31,1.53-.64,3.4.59,3.81,2.52.24,1.12-1,3.28-2.35,3.82-3.46,1.4-5.92-1.46-6.73-7.88a38.74,38.74,0,0,0-1.68-7.44c-1.68-4.63-4.44-6.54-7.44-5.15-3.4,1.57-2.73,6.67.88,6.64,2,.16,2.39-1.3,2.44-2.86,0-1.15,1.35-.07,1.46.72a3.57,3.57,0,0,1-1.51,2.71c-1.23.82-.79.77.46,1.1,3.37.62,5.88,5.1,3.86,6.62-1,.64-2.16-.3-1.43-1.23,1.16-1.47-.8-3.8-4.36-4.58-4.66-1-6.51-4.5-4.83-8.08.56-1.18.6-1.16-1.67-1-5,.28-6.78-.41-8.45-3.32-.51-.88-.73-2-.84-4.38-.19-4.17-.57-6.76-1.1-7.48-2.6-3.6-8-2.52-7.32,1.46a2.24,2.24,0,0,0,4,1.24c1.11-1.15,1.63-.08.54,1.12-2.61,2.9-7.15-.48-5.8-4.32.31-.88.35-.85-1.32-.9-3.73-.11-5.5-3.31-3.1-5.58a2.42,2.42,0,0,1,1.6-.61Zm9,13.73A1.08,1.08,0,1,1,74.5,147,1.08,1.08,0,0,1,75.58,145.88Zm15,3.85a1.08,1.08,0,1,1-1.08,1.09A1.08,1.08,0,0,1,90.56,149.73Zm-3.22,7.08a1.08,1.08,0,1,1-1.08,1.08A1.08,1.08,0,0,1,87.34,156.8ZM134.95,161l.69,3.21,2.48.66-.39-2.75Zm8.68,1.11-.05,1.9,2.21.26.78-3.28ZM106.57,165a1.09,1.09,0,1,1-1.08,1.09A1.08,1.08,0,0,1,106.57,165Zm31.7,4.42-2.59.72-1.25,3.61,3.32-1.21Zm5.08.33.32,2.68,3.2,1.45-1.08-3.82ZM96.22,192.58l-19.85,36,5.42-.08,18.73-33.94ZM33.8,201.29,32,203.66l1.67,2.75,1.91-2.76Z"/><path id="path4069-2-6-0" d="M67.53,20.35c3.65,11.11,4,22.07.82,32.59a44,44,0,0,1,14,4.81C81.58,59.81,69.27,75,60.92,81.83c2.37,2.36,5,4.71,7.73,7.31,4.15,4,5.62,6.67,5.89,11.8a14.29,14.29,0,0,1-2.49,7.7,17.41,17.41,0,0,1-5,4.58c-2.34,1.55-5.75,4.89-10,9.81-1.64,1.88-4.4,5.29-6.69,8.55-.87,1.18-3.41,4.88-3.41,4.88A125.43,125.43,0,0,0,29.1,124.18s9.18-4.91,11.11-5.91c1.48,1,3.5.14,2.53-2a14.46,14.46,0,0,1,1.72-13.14c.55-.83,1.86-1.31,4-1.46.92-.06,1.9,0,2.88,0a4.87,4.87,0,0,1,1.83.42c1.74,1,2.08-.27,3.17-4.39s-.66-9.28-3.13-9.29c-.58,0-.91.21-.79,1.67A4.39,4.39,0,0,1,52,92.44a17,17,0,0,0-1.14,5c.36.07-2.29-2.65-6.48-3.73-2.72-.32-4.1-3.72-4-3.73a5.7,5.7,0,0,1,.77-1.28A19.12,19.12,0,0,0,44.06,90s-.25-1.36-.35-1.73c-.5-1.9-.48-2.19.25-2.58,1.81-1,2-2.72.59-4.31a3,3,0,0,0-1.13-.87l.89-3.56s-.82.18-1.47.38c-1.89.58-1.75.6-2.56-.33-1.76-2-4.44-1.62-4.84.69,0,.25-.16.66-.16.66l-4-2a42.7,42.7,0,0,0,1.17,4.16c-3.53,2.75-.55,5.19.42,5.44,0,0-.83,2.63-1.11,3.73l4-1.14a3.9,3.9,0,0,0,1.58,1.87c.22,2.25,1.94,4.06,3.13,5.15a4.31,4.31,0,0,1,.07,1.35c-.26,1.31,1.07,3.37,1.29,3.5-5.46-2.24-11.16-4.93-16.66-7.57l.34,67.79s1.28,1.15,3.82,3c1.22.88,1.22.88,1,1.89-.33,1.33-.25,2.35.88,11.12.6,4.64,1.25,9.45,1.84,13.76a25.12,25.12,0,0,1,.26,2.58c-1.21-.56-3-.62-3.89.41a2.78,2.78,0,0,0,2,4.64,2.44,2.44,0,0,0,1.35-.5.78.78,0,0,1,.64,0l-3.48,6.14,4,6.77,4-7.24L35,197.4a1.32,1.32,0,0,1,.68.17,3.67,3.67,0,0,0,1.28.37c2,0,2.45-.91,2.66-2.58,0-2.15-1.71-3.12-4.05-2.31a3.69,3.69,0,0,1-.78.16l2.46-23.64,1.32,1,.43-.24-1.16-1c.25-3.79-1-5.13-2.34-6,4.5-2.57,2.55-6.63-.44-7.87,0,0,1.94-1.14,2.33-2.34s.21-2.76-.17-5.77c-.28-4.63-1.27-14.21-1.27-14.21,3.93,3,8,6.16,11.76,9.16l7.61-10.61,18.34.13s13.94,12.69,21,19.16l6.06.05s.07.65.13,1.08c.57,6.27,4.77,10.57,8.58,13.59,1.56,1.4,5.4,5.08,5.4,5.08l-7.12,7.21L64,138.84s-.21-.57-.29-.92c-1-4.14-3.74-5.87-6.23-5.58s-4.83,2.88-4.72,7.27a14.48,14.48,0,0,0,.26,1.87l-8,33.3s-3.19-2.44-4.91-3.61l-.38.22,4.66,3.52.35-.15,1.32,1,.1.71c4.08,2.79,11,8,11,8,3.27-2.44,6.7-1.62,10.14-.71a16.79,16.79,0,0,0,3.83.83,58,58,0,0,1,19,3.75l-22.9,40.72,43.62.09c-2.15-8.52-4.43-17.18-.35-31.72-4.3-.87-13.87-4.71-13.87-4.71s0-.22.36-.72c1.77-2.54,6.24-9.41,10.43-13.39.51-.37,7.81-7.48,7.89-7.7a1.68,1.68,0,0,1,.5-.79c.67-.45,2.46-2.15,2.46-2.15l-9.14-8a2.12,2.12,0,0,1-.53-.11c-1.28-.72-3.58-4.71-4.15-7.38-1.31-6.15,1.1-11,7.91-16,6.64-4.56,19.23-22.26,19.27-22.65,6.79,5.64,12.09,8.56,18.06,12.25-3.61,2.08-6.55,3.46-9.08,4.84-1.64.94-1.86,1.13-3.25.74-1.57,0-2.1.62-1.71,2,2.37,3.76,1.35,12.52-1.85,14.21a9.16,9.16,0,0,1-7.73.24c-1.73-.56-1.71-.56-2.48,1a11.15,11.15,0,0,0-.24,10.14c1.28,2.79,3.19,4.06,3.43.3.14-2.21,1.11-4.79,1.08-7.16a11.29,11.29,0,0,0,6.43,4c2.14.33,4.42,3,4.35,4.13-.59.6-.77,1.36-.86,1.3-1-.34-3.3-1.31-3.3-1.31l1,3.41a2.83,2.83,0,0,1-.62.39,2.9,2.9,0,0,0,.24,5.21c.46.24.49.35.29,1-.28,1.4-.89,2.34-1.22,3.72a13.46,13.46,0,0,0,2.85-1.17l1-.46.6.65a2.69,2.69,0,0,0,4.29,0l.63-.65,1.77.9c1.67.85,2.11,1,2.11,1s-1-3.74-1.14-4.17a1,1,0,0,0-.44-.52c-.24-.09-.2-.14.43-.65,1.6-1.27,1.76-3,.4-4.37a5.58,5.58,0,0,1-.59-.62l.83-3.47-3.44,1.14a3.81,3.81,0,0,0-2-1.92c-.06-1.56-.25-3.17-2.93-5.62.9-.83-.17-2.82-1.06-4,1.51.51,5.28,2.11,5.28,2.11l.57,0,1.8.87.21.32s5.66,2.68,8.26,3.94c0-.14,0-2.95,0-33.84,0-18.42,0-33.57,0-33.66A10.5,10.5,0,0,0,152.31,89c-1.19-.9-1.44-1.08-3-2.09-1.21-.81-1.13-.81-.88-1.74s.28-2.56-.1-5.33c-.28-2-1.31-9.24-2-15-.5-4.07-.62-5-.75-5.63a9.54,9.54,0,0,1,0-2.39c5.69,2.47,6.14-5.72.43-4.62,1.09-2.21,2-3.23,2.95-5.59-1.19-2.57-3.82-6.91-3.82-6.91L141,46.92l2.45,5c-2.82-.51-4.32,1.55-3.8,3.4a2.42,2.42,0,0,0,3.51,1.43c1.06-.42,1.06-.53.12,7.46-.28,2.36-1.51,13.4-1.68,15-.11,1.1-.18,1.41-.63,1.17a10.2,10.2,0,0,1-1.56-1l-.34.32c.54.44,1.18,1,1.84,1.61-.15,2.92-.09,4.62,2.34,6-4.4,2.76-1.83,7,.76,7.63-1.54.4-3.06,2.38-2.69,6.33l1.25,16.27-11.92-8.88-7,10-18.44,0L84.37,100s-4.56-.06-6.43-.11c.21-.1-.39-5.82-3.4-9.55C71.27,86.42,63.82,80,63.83,80l7.82-8,43.91,39.64s.21,1.12.33,1.6c1.47,6.26,8.57,6.64,10.08.26a17.13,17.13,0,0,0,.43-3.71,15.32,15.32,0,0,1,.49-2.32c2.36-9.29,4.37-17.29,6.69-26.21.32-1.23.66-2.59.75-3,.38-1.81.33-1.8,2.21-.37,1.16.87,1.63,1.18,1.63,1.18l.37-.38c-1.3-1-3.51-2.61-3.51-2.61l0-.68c-7.13-5.12-8.6-6.48-12.82-9.83-3.27,2.89-7.95,1.72-10.88.7-.75-.3-2.61-.78-2.61-.78A62,62,0,0,1,89,62.06l23.36-41.72h-9l-.32.36H98.29l0-.35Zm86.14,137.21M94.15,21.29l3.19.06L78.44,55.18l-2-.79s.18-.1.18-1.52a4.28,4.28,0,0,0-1-3.09c-.58-.78-.82-.83.87-.59A4.45,4.45,0,0,0,81,43c-.53-1.13-.45-1.2.94-1.34a4.51,4.51,0,0,0,2.62-7.71c-.56-.51-.31-.83.74-.61,3.33.72,5.9-3,4.58-5.88-.43-.81,0-.94.56-1a4.67,4.67,0,0,0,3.72-5.12Zm-25.47,0H83.47c-2,3.05,1.52,4.86,2,4.65-3.19,1.75-2.31,4.21-.66,5.06s4,.08,3.37-3.47l.79-.34c.77.87,1.53,6.29-4.34,5.53-1-.13-1.61.84-.74,1.39,4.64,5.35-2.62,7.71-2.94,6.83l0-.91c2,.36,4.48-2.18,2.27-4.43-1.25-1.28-4.89-.66-4.26,3.23-2.15-3.21-4.49-2.25-5.12-.55a2.55,2.55,0,0,0,2.27,3.43c-2.39,2-1.23,4.25.41,4.75,1.81.55,3.67-.19,3.17-3.5,0-.31.66-.21.71-.23,1.88,4.69-2.61,6.42-5,5.45-.9-.35-1.37,1-.41,1.74,1.45,1.07,1,4.16.83,4.19a42.08,42.08,0,0,0-6.4-1.72,58.21,58.21,0,0,0-.68-31.09Zm23.59,0H93.6a4.26,4.26,0,0,1-4.08,4.64,5.65,5.65,0,0,0-.15-1.55c1.22-.28,2.85.06,2.9-3.1Zm5.84.1,4.27,0L82.29,57.17l-3.21-1.65ZM87.57,24.11a1.37,1.37,0,1,1-1.36,1.37A1.37,1.37,0,0,1,87.57,24.11ZM79,39.7A1.27,1.27,0,1,1,77.75,41,1.26,1.26,0,0,1,79,39.7Zm66.1,1,3.4,5.93-3.88,6.89-3.24-6.6Zm-.06,2-2.39,4,2.17,4.06,2.47-3.85Zm0,1.7,1.24,2.39-1.5,2.43-1.25-2.57Zm-3.29,8a2.11,2.11,0,0,1,.81.17c2.29,1,1.56,4.45-.88,4.23a2.54,2.54,0,0,1-1.05-.41C139,55.08,140,52.47,141.8,52.47Zm5.6.07a2.23,2.23,0,0,1,1.1,4.14,2.44,2.44,0,0,1-3.14-.79,2.36,2.36,0,0,1,.86-3.06A2.47,2.47,0,0,1,147.4,52.54Zm-2.78,4c.2,0,.42,1,.62,2.68.07.61.27,2.15.43,3.41.32,2.7.64,5.21.92,7.81.06.51.19,1.6.3,2.42,1.16,8.45,1.42,11.14,1.15,11.86-.73,2.52-4.16,2.71-5.59,1.25-1.08-1.11-1.24-2.32-.81-5.49.25-1.83.35-2.75,1.07-9.73.17-1.64.41-3.81.54-4.83.29-2.73.63-5.29,1-8C144.35,57,144.48,56.51,144.62,56.52ZM88.51,62.8s11,3.63,19.32,3.46a6.73,6.73,0,0,1,3,.49c.91.3,2.33.7,3.16.89a11.78,11.78,0,0,0,6.84-.46c.32-.13.78-.52,1.24-.38.28.09.7.65.7.65-7.31,1.95-24.41,1.59-35.05-2.91ZM144.88,64s-.09.07-.15.16c-.18.28,0,2.14.63,8.05,1.27,11.29,1.26,11.53-.27,12.72-.76.58-.87.82-.51,1s.25.16.8,0c1.29-.36,1.83-1.39,1.82-3.49a36.44,36.44,0,0,0-.53-5.74c-.17-1.36-.41-3.29-.52-4.28-.83-7-1-8.5-1.27-8.46ZM87.4,65.14c10.92,3.92,22.34,5,36.1,2.92l2,1.28-.46.11.21,1.91,2.34-.38s1.26,1,2.2,1.63c-12.27,3.76-32.08,3.11-44.3-2.34a6.68,6.68,0,0,1-.74-.48,4.48,4.48,0,0,1,.91-1.4l2.23.64.65-2-1.71-.62Zm2.86,2.44-.71,2,3.12.93.53-2.05ZM95,68.82l-.41,2.29,3.13.58.39-2.23Zm5.18,1.07L100,72.1l3.32.35.21-2.23Zm22.83,0-2.83.31.18,1.95,2.86-.34Zm-5,.56-2.8.19.1,2,2.82-.18Zm-12.63,0V72.7l2.87.11,0-2.21Zm7.9.27h-2.65v2.06h2.68Zm-30.72.36c.29,0,.94.63,1.21,1.34.53,1.41.29,3-.54,3.48-1.13.7-2.46-.4-1.68-1.39a1.32,1.32,0,0,1,.49-.4c.58-.18.72-1.1.4-2.7C82.44,71.28,82.5,71.17,82.61,71.17Zm4.24.54a76,76,0,0,0,39.07,2.35s-6.55,26.84-6.69,26.85Zm-5.8.08c.62,0,.74,1.06.17,1.62-.72.72-2.08.14-1.8-.76A3,3,0,0,1,81.05,71.79Zm3.4.62c.13,0,.37.25.76.77,1.33,1.79,1.43,3.8.24,4.71-1.39,1.07-2.41-.59-1.25-2,.3-.37.34-1.07.17-2.61C84.31,72.7,84.32,72.42,84.45,72.41Zm45.85.65a2.92,2.92,0,0,1,1,.38c.85.42,1.14,1,.73,1.52-.59.72-2.22-.7-1.91-1.67,0-.15.09-.22.21-.23ZM129,74c.21,0,.55.41.95,1.21.25.51.4.66.83.81,1,.37,1.2,1.42.31,1.73s-1.69-.36-2.13-2.06C128.69,74.55,128.76,74,129,74Zm-42.3.75c.15,0,.43.32.87,1,1.32,2,.87,5.71-.8,6.59A1.35,1.35,0,0,1,85,82c-.86-.86-.65-1.55.63-2,1.09-.4,1.44-1.64,1.1-3.91-.13-.9-.14-1.35,0-1.36Zm6.29.62c8.08,6.68,15.37,13.84,24.76,22.2,2.23-6.89,5.48-21.18,5.5-21.23C122.93,76.63,107.5,78.82,93,75.37Zm30.26,1s0,0,0,0Zm5-.95a5.11,5.11,0,0,1,.75,1.92,4.71,4.71,0,0,0,1.31,2.27c1.59.27,2.27,1.16,1.48,1.95-.58.58-1.83.25-2.43-.64-1.13-1.66-1.9-5.51-1.11-5.51Zm-90.11.92a2.14,2.14,0,0,1,2.12,1.87c.27,1.46-.55,2.52-1.24,2.35S38,79,38,79a5.4,5.4,0,0,1-.49,1.47c-.68,1-2.1-.5-1.85-2A2.52,2.52,0,0,1,38.19,76.31Zm57.48.38a96.46,96.46,0,0,0,26.85.53l-4.94,19.25Zm-6.64,0c.13,0,.4.24.81.69,1.37,1.45,1.76,3.46.87,4.46-.54.61-.9.68-1.48.28-.73-.5-.79-1.26-.12-1.61s.67-1,.18-2.36c-.36-1-.47-1.46-.28-1.45Zm-57.37.5,3.21,1.34L36,81.28l-3.21-.83Zm12.15.36-1,2.71-2.47.93,1-2.93Zm83.82.57c.12,0,.3.34.51,1,.53,1.75.76,2.2,1.24,2.43a.9.9,0,0,1,.1,1.68c-.47.22-.63.17-1-.27a6.57,6.57,0,0,1-1-3.2C127.4,78.72,127.46,78.15,127.61,78.15ZM91.85,79.37c.09,0,.23.13.43.37,1.25,1.49,1.38,3.77.27,4.46s-2.6-.7-1.65-1.49l.44-.35c.26-.2.29-.32.31-1.61C91.65,79.79,91.69,79.38,91.85,79.37Zm9.48.16,15.38,14,3.53-13.87A110.62,110.62,0,0,1,101.33,79.53Zm-37.79.71c4.86,5.15,11.22,9.31,12.73,14.43a17,17,0,0,1-5.62,19.9,60,60,0,0,0-9.78,8.82c-4.68,5-7.8,10.46-10.93,14.42-.53.67-1.93,2.76-1.93,2.76s-.68.78-3-1.14a109.66,109.66,0,0,0-18.91-13.07l2.74-1.54a124.6,124.6,0,0,1,18.18,12.63s4.81-7,6.34-9.06c2.23-2.9,3.79-4.76,5.86-7,5.29-6.56,10.76-8.72,13-12A14.45,14.45,0,0,0,73,93.78c-2.7-4.7-8-7.91-11.45-11.8Zm46.13.38h6s-.88.74-1.56,1.19c-.42.29-.92.25-1.86-.15s-2.6-1-2.6-1Zm6.89,0,1.4,0A22.36,22.36,0,0,1,114.43,84c-.18.08-.28.11-.71,0-2.87-1-5.51-2.17-8.31-3.31h2.5s1.2.38,3,1.13c2.07.86,2.6,1.13,3.4.6s1.41-1.29,2.24-1.77Zm2.84,0-.5,1.85a33.72,33.72,0,0,1-4,3.46c-.33.17-.32.21-1.77-.36-5.34-2.08-7.93-3.44-7.93-3.44l-1.08-1s1.39.4,2.31.76l2.38.91c.68.25,2.18.89,3.19,1.29,2.31.92,2.19.94,4.4-1a33.42,33.42,0,0,1,3-2.48Zm-81,.17,2.33,2.68-3.11,2.62-2.35-2.77Zm88.5,0a11.24,11.24,0,0,0,1.77,3c.66.63.82,1.11.43,1.46-1,.63-1.19-.39-1.5-1.05-.55-1.17-1.23-2.75-.69-3.46Zm-84.35.27h.18c2.49,0,3.07,3.72.73,4.61a2.26,2.26,0,0,1-2.32-.35c-.51-.51-.58-.93-.23-1.2a4.32,4.32,0,0,1,1.82-.41A14.09,14.09,0,0,1,41.07,83c-1-.58-.14-1.9,1.5-2Zm51.21,0c.14,0,.38.29.73.86,1.26,2.08,1.19,6-.12,7a1.49,1.49,0,0,1-2.1-.19c-.75-.83-.52-1.67.6-2.17s1.29-1.54.86-4.18C93.6,81.51,93.61,81.05,93.79,81.06Zm-60.36.07a2,2,0,0,1,1.82.85c.26.43.14.75-.36,1a12.72,12.72,0,0,1-1.75.46,10.55,10.55,0,0,1,1.78.46c.84.37.78,1.06-.46,1.64-2.37,1.13-4.61-2-2.66-3.73a2.56,2.56,0,0,1,1.62-.65Zm62.39,1.49h.06a2.18,2.18,0,0,1,1,.88c1.41,1.88,1.66,4.7.46,5.25s-2.19-.62-1.27-1.67c.65-.74.57-1.83-.29-4-.12-.31-.1-.47,0-.49Zm30.54.09c.11,0,.31.44.64,1.36.72,2,1.33,2.85,2.07,2.85a1,1,0,0,1,.68,1.79c-1.45,1-3.35-1.48-3.49-4.59,0-.93,0-1.41.09-1.41Zm-7.66,1-.43,1.64s-1,1-1.7,1.58c-1.12,1-1.4,1.17-2.29.86-1.37-.47-2.71-.9-4.14-1.33l-3.29-2.73,7.5,2.94s.65.19.88,0C116.22,85.65,117.3,84.88,118.7,83.71Zm7.08,1.53c.09,0,.19.1.25.4.34,1.54.83,2.66,1.25,2.84a.81.81,0,0,1,.51,1.14c-.64,1.34-2.32-1-2.32-3.27,0-.64.15-1.07.31-1.1Zm-27.07.11c.09,0,.24.13.47.36,1,1,1.35,3.91.52,4.75-1.2,1.21-2.49-.59-1.32-1.84.31-.33.31-.36.24-1.83C98.56,85.77,98.55,85.36,98.7,85.35Zm-62.83.29-.81,2.7L32.48,89l.61-2.22Zm3.1.28a1.1,1.1,0,0,1,.68.25,2.36,2.36,0,0,1,.65,3,2.23,2.23,0,0,1-2.37,1.12A2.15,2.15,0,0,1,35.88,88a2.24,2.24,0,0,1,.74-1.68c.31-.22.56-.13.83.32s.67,1.42.67,1.42a8.27,8.27,0,0,1,.16-1.53A.79.79,0,0,1,39,85.91Zm2,.24,1.88.64.74,2.56-2.1-.82Zm107,.48a21.82,21.82,0,0,1,3.1,2.27c.64.51,1.72,1.49,1.72,1.49l-.06,33.37L146.65,120,147,117s.84-8.83,1.48-13.45c.45-5.15,1.43-6.63-2-8.82,3.7-2.33,2.66-6,.33-7.47Zm-30.18.13-.34,1.53c-1.22,2.09-2.31,2-4.17,1L111,87.39a33.44,33.44,0,0,1,3.65,1.22,1.24,1.24,0,0,0,1.46-.37c.57-.52,1-.91,1.65-1.47Zm-16.61.8c.76.83,1,1.65.89,3.67-.15,1.44-.08,2.51-1.26,3.32a1.93,1.93,0,0,1-2,0c-1.07-.72-.48-2.15.92-2.22.88,0,1.24-2.9.74-4.71-.08-.28-.06-.46.08-.48a1,1,0,0,1,.64.41Zm23.8-.11c.17,0,.47.44.65,1.15a2.64,2.64,0,0,0,1.2,1.91c.73.37,1,1.1.5,1.52-.93.85-1.89-.17-2.19-2.34C125.13,89.46,124.7,87.47,125,87.45Zm20,.36a3.13,3.13,0,0,1,3.26,3.26,3.41,3.41,0,0,1-2,3.11c-3.06.9-4.73-1.15-4.7-3.15A3.33,3.33,0,0,1,145,87.8ZM103,89c1.75,1.76,1.83,5.51.12,5.51-2.06-.68-.45-1.9-.41-2.22a8.12,8.12,0,0,0-.44-3.33C102.14,88.21,102.81,88.75,103,89Zm42.13-.17c-.37,0-.34.36.33.94a1.67,1.67,0,0,1-.92,3c-.71,0-.89.49-.27.74,2.4,1,4-2.69,1.89-4.22A2.19,2.19,0,0,0,145.13,88.79Zm-91.82.49c1.93.66,2.6,4.35,2.67,5.66.09,2.27-1,6-1.9,6.71-2.43,1.92-3.57-4.86-1.49-9.22a2.83,2.83,0,0,0,.32-1.73c-.08-.88.06-1.41.4-1.41Zm63.85.36a12.59,12.59,0,0,1-.5,1.71c-.3.7-.52.72-1.22.12-.39-.33-1-1-1-1,.61.09,1.15.41,1.66.15A2.88,2.88,0,0,0,117.16,89.64Zm7.33.06c.14,0,.31.39.54,1.15.64,2.09,1.19,2.88,2,2.88a1.07,1.07,0,0,1,.38,2.1,1.7,1.7,0,0,1-1.26,0c-.93-.25-2.2-3.4-2-5,.09-.75.19-1.13.32-1.12Zm-85,1.22c.51,0,.71.24,1,.86a5.19,5.19,0,0,0,2,2c1.81.89,3.73,1.59,5.52,2.49,2.32,1.17,4.41,4.76,3,5.13a5.38,5.38,0,0,1-1.64.08,3,3,0,0,1-.75-.87,9.86,9.86,0,0,0-6.1-4.24c-2.16-.56-4.09-3.23-4.5-4.48-.11-.32-.11-.58.18-.66a5.93,5.93,0,0,1,1.33-.29Zm65.56.22c.1,0,.24.11.45.34,1.28,1.38,1.44,3.9.29,4.62s-2.34-.51-1.36-1.6c.43-.48.43-.48.43-1.92,0-1,0-1.41.19-1.44Zm18.68,1.6c.15,0,.38.43.66,1.27.4,1.19.45,1.29.9,1.52.77.4.89,1,.33,1.56-1,1.05-2.1-.64-2.11-3.38,0-.66.08-1,.21-1Zm-16.78.19a1.52,1.52,0,0,1,.57.46c1.57,1.87,1.26,6.25-.5,6.91-.59.22-.76.23-1.13.07-1.31-.57-1.15-2,.46-2.83C107.53,96.88,106.67,92.94,106.92,92.93ZM26.53,94.3,33,97.54s1.78,3.76,2.6,5.17c.56,1,1.69,1.92.53,2.57-2,1.33-3.06,2.08-3,2.91,0,.67.84,1.35,2,2.66,1.6,1.89,1.58,1.45.13,4.33a32.57,32.57,0,0,0-2.06,6.59l-6.56,3.39a40.57,40.57,0,0,1,6.82-11.5,30.42,30.42,0,0,1-5.2-4.88,37.82,37.82,0,0,1,4.38-4.45,29,29,0,0,1-6-10Zm82.1.06h0c.27,0,.89.7,1.44,1.79.71,1.41.77,3.18.15,3.81-1.08,1.09-2.49-.31-1.48-1.46.71-.52.52-1.81,0-3.16-.26-.65-.25-.95-.1-1ZM25.81,95a61.51,61.51,0,0,0,5.51,9.3l-4.22,4.45a45.09,45.09,0,0,0,5.09,5c-2.72,3-4.5,7.27-6.28,11.28Zm97.17.08c.15,0,.35.45.57,1.32.27,1.11.45,1.39,1.1,1.67,1,.44,1,1.43,0,1.79a1.43,1.43,0,0,1-1.34-.72,5.38,5.38,0,0,1-.56-2.48C122.72,95.59,122.81,95.06,123,95.07Zm23.43.67c1.6.45,2.17,2.05,1.86,5-.42,4-.91,8.4-1.31,12.05-.46,4.21-.84,6.89-.84,6.89l-.39-.3s.11-2.28.26-3.68c.36-3.15.55-5.9.86-9,.68-7,.51-9.21-.75-9.85-1-.5-1.4-.21-.68.48,1.37,1.06,1.33,1.51-.14,18.74-.15,1.78-.21,3-.21,3l-1.87-1.16s-.14-1.48-.31-3.71c-.42-4.2-.67-8.68-.95-12.71-.3-4.3.5-5.8,3.16-5.9a4.42,4.42,0,0,1,1.3.13Zm-34.27,2.5c.2.57,1.13,4.81-1.24,3.59a.86.86,0,0,1-.2-1.46,3,3,0,0,0,.38-2.73c-.16-.76-.35-1.39-.35-1.39.46.17,1.36,1.84,1.41,2ZM41.65,96.91a11.26,11.26,0,0,1,5.63,3c.88.94.84,1.7-.54,1.78s-1.35.41-2-.14a3.45,3.45,0,0,0-1.47-.87C41.28,100.39,40.26,96.64,41.65,96.91ZM122.58,98a11.23,11.23,0,0,1,.41,1.49c.3,1.34,1.22,2.34,2,2.21.55-.07,1.32.1,1.4.77a1.1,1.1,0,0,1-.74,1.34,1.92,1.92,0,0,1-2-.45c-1.23-1.16-2-5-1.07-5.36Zm-9.64.05c.72.28,1.64,2.59,1.74,4.42,0,1.31-.21,3-1.33,3.59a1.25,1.25,0,0,1-1.78-.44,1.35,1.35,0,0,1,.72-1.94c1-.45,1.33-2.5.72-4.49C113,98.87,112.46,97.93,112.94,98.07ZM36.35,99l5.29,2.69a13.06,13.06,0,0,0-1.79,3.15A23.14,23.14,0,0,1,36.35,99Zm78.58.92c.09,0,.4.29.66.55,1.32,1.28,1.89,3.61,1.09,4.46-.64.68-1.75.63-1.94-.08a2.9,2.9,0,0,1,.47-1.32,4.36,4.36,0,0,0-.08-2.79C115,100.33,114.81,99.95,114.93,99.95Zm-36.76.53,6,.21,20,18.09-1.88,0-18.4-16.82-5.73,0Zm-34.44,3.26a14.5,14.5,0,0,0-1.5,12.3c1.06,2.89-1.26,3.06-2.21,1.16a13.06,13.06,0,0,1-.93-6.54c.31-4.27,2.28-8.55,3.85-9.07S44.18,103.15,43.73,103.73Zm82.06,8.76c-.61,2.85-1.73,4.26-3.33,4.85-6.54,2.42-9.39-10.8-3.32-14,5.78-1.93,7.45,5.36,6.65,9.12Zm-48-8.64,5.64.12c5.14,4.69,10.67,9.07,16.17,14.77H97l-1-.92c-5-4.45-8.65-8.09-13.45-12.23l-5-.14Zm43,.87c-3,.12-3.3,4.27-3.21,5.84.22,2.26,1.12,5.6,4,5.34,2.1-.21,3.07-2.7,2.88-5.7-.18-2.82-1.33-5.48-3.66-5.48ZM77.29,106.1l4.95.11c4.36,3.81,9,8,13.55,12.52H93.63l-.73-.71c-3.71-3.36-7.48-7.11-11.07-10.13l-5.13-.2Zm43.61.16c.87.32,1,2.44.25,3.31-.52.6-1.71-.54-1.81-2A1.25,1.25,0,0,1,120.91,106.26Zm-81.76.26a25.4,25.4,0,0,0-.82,4.57l-2.07-2.64Zm83.34,2.55a.92.92,0,1,1-.91.92A.92.92,0,0,1,122.48,109.07Zm-41.57.46,9.86,9.3-2.81,0-8.09-7.35-5.13-.19,1-1.75Zm38.35.16a.92.92,0,1,1-.92.92A.92.92,0,0,1,119.26,109.69Zm11.74,0a190,190,0,0,0,21.55,14.74,9.36,9.36,0,0,1-2.58,1.4,123.71,123.71,0,0,1-18.56-12.46C127,119.9,118.51,131.75,111,137.23c-4.75,3.41-7.15,7.62-7.14,12.54,0,5.09,1.8,8.4,6.79,12.56,3.22,2.69,6.74,6.12,6.74,6.12l-1.85,1.6A108.76,108.76,0,0,1,105,160.42c-2.83-2.85-4.09-9.1-3.61-12.48.66-4.59,2.18-7.88,6.52-11.42a47.59,47.59,0,0,0,4.82-3.77c13.48-14.46,18.29-23,18.29-23Zm-9,2.36c.51,1.05.79,2.43-.81,2.52-.95.05-1.49-1.52-.67-2.93.62-1.11,1.17-.16,1.48.41Zm-47.5-.28,5.32.16s5.25,4.59,7.9,7.13h17.83c9.8,0,17.86,0,17.91.09a11,11,0,0,1-1.27,2l-58.79,0S67,118,68.29,117A29.37,29.37,0,0,0,74.47,111.79Zm-36,2.22a21.47,21.47,0,0,0,1.37,4.19l-4.08,2.17A46,46,0,0,1,38.44,114ZM151.8,125.85A45.57,45.57,0,0,1,146.3,136c-.51.66-.86,1.17-.86,1.17l5,4.8-4.34,4.63a28.37,28.37,0,0,1,5.58,9.54,38.1,38.1,0,0,1-5.5-2.61c-.69-1.73-1.39-3.56-2.16-5.14-1.77-3.6-1.75-3.25-.3-4.31,2.12-1.55,2.75-1.91,2.2-2.69-.39-.55-2.88-3.53-3-3.62s-.13-.58.3-1.29a40.07,40.07,0,0,0,3.37-8Zm.95.18.13,30.27c-1.79-3.62-3.65-7.31-5.73-9.62-.08-.16,4.53-4.67,4.53-4.67-1.69-1.57-2.68-2.51-5-4.69C148.93,134,150.75,129.66,152.74,126Zm-126.83,1,5.73,3.34c-.3,4.27-.69,9.87-1.27,15.56-.49,4.44-.7,6.48.09,7.71a9.55,9.55,0,0,0,2.45,1.88c-3,1.22-4.18,4.84-.8,7.54a14.59,14.59,0,0,0-1.19,1l-4.7-3.53Zm89.75,1.53a34.4,34.4,0,0,1-5.39,5.13,33.82,33.82,0,0,0-5.36,4.48s-3.37,0-5.66-.11l-7.89-7.06s.28-.1-10.45,0c-13.87.11-25.11,0-25.11,0l1.58-2.22ZM143.77,130a25,25,0,0,1-3.51,7A16.72,16.72,0,0,0,139,132.5Zm-111.4.8.69.49s-.41,5.22-.54,6.75c-.24,2.82-.36,5.37-.61,8.25-.49,5.71-.41,6.56.71,7.44.86.65,1.45.35.68-.46a2.31,2.31,0,0,1-.65-1.59,24.21,24.21,0,0,1,.06-4.33c.85-15.09,1-15.6,1-15.61l1.71,1.11c-.09.23,1.57,15.21,1.4,18.94-.2,4.35-6,3.39-6.32.16-.12-.74,1-13,1-13Zm47.67.88,2.29.07,14.15,13,4.82.1-.42,1.65H96.23Zm8.77,0H91l8.1,7.36,5,.08-1,1.42-5-.14Zm-2.76,0,12,10.83,4.08.21-.63,1.48-4.84-.14L83.19,131.71Zm-11.54,0H77l18.71,16.9,4.91.09-.07,1.52-5.91,0Zm63,.48c1,.25,1.47,1.21,2.17,4.77.81,4.15-.95,10.89-3.15,12.16-1.14.9-2.38-.05-1.58-1.23,2.63-3.83,3-10.1,1.42-13.6C135.86,133.17,136.37,132,137.49,132.21Zm-79.4.62c6,.07,7.53,12.39,1.64,14.12-3.82.57-5.79-2.9-6.34-6C52.73,137,54.44,132.79,58.09,132.83Zm-3.29,7.39c.36,2.47,1.88,5.3,4.1,5.05,2.92-.32,3.29-4.23,3-6.19-.35-2.37-1.65-4.53-3.74-4.64C55.05,134.26,54.53,138.31,54.8,140.22ZM58,135.42c.83,0,1.45,1.1,1.22,2.49-.15.9-.49,2-1.49,1.25a3.67,3.67,0,0,1-.78-2.63C57,135.92,57.34,135.44,58,135.42Zm82.46,2.85,2.81,3.26-3.19,2.24A15,15,0,0,0,140.47,138.27ZM60,138.57a.92.92,0,1,1-.92.92A.92.92,0,0,1,60,138.57Zm-3.28.57a.92.92,0,1,1-.92.92A.92.92,0,0,1,56.77,139.13Zm1.85,1.19a2.05,2.05,0,0,1,1,.93,2.32,2.32,0,0,1,.26,2.54c-.88,1-2.25-.07-2.09-1.69.12-1.19.44-1.9.83-1.78Zm7.84,3.59a1.22,1.22,0,0,1,.55,2.31c-.74.49-.9,2.1-.44,4.32.37,1.61.18,1.85-.78.41C64.16,148.33,64.58,143.91,66.46,143.91Zm-3.07.84c1.15,0,1.52.84.85,1.51a2.74,2.74,0,0,0,.09,2.54c.62,1.38.48,1.79-.69.47C62,147.56,62.05,144.81,63.39,144.76Zm76.13.67A30.41,30.41,0,0,1,143,152l-5.67-2.61Zm-82.79,7c-.4-.47-.59-2-.92-2.62s-.48-1.22-.89-1.2c-2.39.2-2.29-2.09-.92-2.53C56.84,145.19,57.88,152.08,56.73,152.43Zm11.88-2.32c-.41,1.2-.11,1.92,0,3.21.07.58.1.74-.38.29-1.13-1-1.74-4.38-.72-5C68.87,147.76,69.28,149.18,68.61,150.12Zm56.76-1.61a1.68,1.68,0,0,1,1.5,1.21,14.55,14.55,0,0,1,.18,5.45c-.35,2.29-.9,4.39-1.12,6-.8,1-2.78-2.43-3-5.09-.31-2.12.42-6.51,2-7.44a.94.94,0,0,1,.37-.09Zm7.65.36c.5,0,.38.15.75.53a2.88,2.88,0,0,0,1.57,1c1.63.51,3.41,2.79,2.72,3.48-.54.43-2-.38-2.53-.56l-1.51-.52c-1.36-.46-3.32-3-2.71-3.49A4,4,0,0,1,133,148.87Zm-4,.42c1,0,1.28.26,1.86,1.35a7.26,7.26,0,0,0,4.74,3.4c2.94.9,5.48,2.61,5.35,5.78a7.31,7.31,0,0,0-2.1.27,6.41,6.41,0,0,0-4.58-4c-4-.91-7.75-5-6.69-6.63a2.88,2.88,0,0,1,1.42-.16Zm-69.33.2,34.72,30.33c-14.65-5.45-28.1-5.34-41.09-3.32Zm14.81,2c-.06.94-1.36,1.15-1.62,1.38-.65.57-.56,2.2-.29,4.11.21,1.15-.07,1.09-.67.2a7.07,7.07,0,0,1-.34-6C72.52,149.13,74.62,150.17,74.53,151.49Zm-20-1.49c1.33.14,1.7,2,1.75,3.16,0,1.66-.47,1.6-.73,0-.13-.71-.35-1-.92-1.15C53.37,151.63,53.29,150,54.57,150Zm16.13,1.86c-.34.38-.35,2.14,0,3.32.17.65-.14.7-.59.19-1.44-1.69-1.57-4.56-.24-5.11,1.09-.28,1.37,1,.86,1.6Zm-15,3.39c0,1.69-.35,1.84-.86.22a2,2,0,0,0-.53-.87c-.95-.65-1.11-1.16-.56-1.71C55.08,151.8,55.66,154.75,55.68,155.25Zm5.07-1.49L56,173.91c11.59-1,16.85-1.18,29.23,1.25Zm14,.33c.71.18,1,1.11.13,2-.27.35-.52.88-.19,2.31.45,1.95-.31,1.33-1.24-.51C72.89,156.7,73.17,153.69,74.79,154.1Zm-22.16.06c1.26,0,2.43,2,2.45,4.29,0,1.81-.24,1.68-.92-.05-.47-1.15-.85-1.56-1.71-1.86C50.86,156,51,154.16,52.63,154.16Zm8.51.58,21.8,19.11a92.24,92.24,0,0,0-26.21-.47Zm18.15.72c1.71,0,2.38,2.12.29,2.86-1.25.44-.72,3-.49,4.48.09.57-.09.61-.45.1-1.32-2-2.05-6.87.65-7.45ZM77,157.85a2.39,2.39,0,0,0-.13,2c.55,2,.7,2.42-.46,1.38-1.22-1.29-1.75-3.85-.73-4.61s2.18.09,1.32,1.26Zm-43.09-1.58c2,0,3.5,1.3,3.42,3.13a3.28,3.28,0,0,1-3.2,3.4,3.23,3.23,0,0,1-3.39-3.26,3.06,3.06,0,0,1,3.17-3.27Zm0,.81a2.45,2.45,0,0,0-1.27,4.47c.82.61,1.47.44.8-.21a2.07,2.07,0,0,1,.91-3.59c.83-.18.51-.67-.44-.67Zm28.2.52-2.79,13.57A77.5,77.5,0,0,1,77.2,171Zm-9.39.52c1.39-.07,1.79,2,1.8,2.85,0,1.08-.13,1.64-.32,1.06-.47-1.36-.93-2.1-1.43-2.1a1.35,1.35,0,0,1-.72-.43A.84.84,0,0,1,52.66,158.11Zm9.65.54,1.84,1.56C63,159.7,62,161,62,161Zm18.92,2.56c-.53.67-.53,2.09-.12,3.75.12.46-.31.12-.75-.43a4.44,4.44,0,0,1-1.06-3.26C79.47,158.75,82.67,159.24,81.23,161.22ZM52.15,160c1.19.14,1.64,2.63,1.61,3.38s-.22,1.32-.37.84a6.55,6.55,0,0,0-1.49-2.88c-.94-.59-.67-1.26.25-1.34Zm91.09,2.79a2.31,2.31,0,0,1-.86,2.07c-.55.3-.89-.11-1.22-1.12-.24-.75-.33-1-.33-1s-.2.93-.27,1.13c-.43,1.29-1.83,1.3-2.42-.14a2.69,2.69,0,0,1,2.46-3.35,2.58,2.58,0,0,1,2.63,2.44Zm-79.46-1.88a10.93,10.93,0,0,1,2,.73l1.61,1.43s-1.49-.65-2-.83c-1.25-.44-1.22-.45-2.23.38s-1.89,1.48-1.89,1.48l.32-1.84s1.52-1.34,2.16-1.34Zm-10.59,4.52c.24,1.94-.3,2.11-.83.25-.45-1.59-.89-2.17-1.66-2.17a1.21,1.21,0,0,1-.62-2.31C52.47,160.54,53.09,164.67,53.19,165.44Zm82-4.27,2.21,1,.47,2.29-2-.5Zm-49.42.21a1.29,1.29,0,1,1,.76,2.45c-1,.24-1,1.78-.71,4,.07.51.2,1.13.17,1.22-.15.41-.66-.21-1.34-1.65-1-2.62-.7-5.54,1.11-6Zm60.67,0-.61,2.65-1.87-.13-.07-1.62Zm-62.84,1.72c-1,1.48-.1,2.85.12,4,0,.67-.83,0-1.33-1-1-2.05-1.1-3.71-.17-4.45C83.48,160.9,84.08,162.28,83.53,163.07Zm-19.14-.36a6.93,6.93,0,0,1,1.88.6c.78.3,2.58,1,2.58,1l2.38,2.11s-2.09-.77-3.55-1.39c-3.28-1.39-2.81-1.44-5.4.55-.75.57-1.53,1.22-1.53,1.22l.32-1.7a20.73,20.73,0,0,1,2.2-1.86C63.8,162.9,64,162.71,64.4,162.71Zm-30.52.8a3.36,3.36,0,0,1,3.19,2.79,7.45,7.45,0,0,1,0,2.5c-1.16,8.91-1.67,17.17-2.73,25.42-.13.39-.27.25-.44-.46-1.23-7.48-2-15.68-3.07-23.09-.24-2.77-.95-6.39,2.54-7.09a3.32,3.32,0,0,1,.54-.06Zm-.1,1a2.4,2.4,0,0,0-1.93,1.2c-.63,1.34-.47,4.08.74,12.26.1.68.24,1.82.31,2.53a18.29,18.29,0,0,0,.71,4.22c.4.61.45,0,.16-2.17-.15-1.09-.34-2.75-.44-3.69-.54-3.88-.66-6.65-1-10.19-.17-1.74.53-3,1.84-3.37.71-.19.75-.51.08-.72A1.4,1.4,0,0,0,33.78,164.5Zm111,.11a2.45,2.45,0,0,1,1,4.66c-.89.45-2.38.24-2.75-.48a.84.84,0,0,1,.47-1.12,9.38,9.38,0,0,1,1.34-.54s-1.3-.25-1.66-.87c-.79-1.33.66-1.63,1.66-1.65Zm-92.26,3.71c0,.65-.36.38-.44,0a5.08,5.08,0,0,0-1.28-2.17c-.56-.45-.69-1.06-.31-1.44C51.94,163.45,52.54,167.92,52.55,168.32Zm83.2-3.72a2.88,2.88,0,0,1,2,.74c.7.7.66,1-.51,1.39-.57.21-1,.38-1,.38s.53.21.92.32c1.12.38,1.06,1,0,1.8-1.4,1-3.65-.34-3.62-2.19a2.23,2.23,0,0,1,2.12-2.43Zm5.18,0,2.24,2.48-2.62,2.72-2.46-2.71Zm-76.12.23h.1c.69,0,1.8.48,4.52,1.58l3.22,1.29,2.44,2.17a47.12,47.12,0,0,1-4.51-1.65c-.25-.13-.81-.37-1.24-.53L67,166.76c-1.86-.75-1.88-.76-2.51-.23-.27.23-.92.74-1.46,1.15L61.28,169c-.49.38-1.12.95-1.12.95l.39-2.09a11.7,11.7,0,0,1,1-.83l1.93-1.48C64,165.11,64.32,164.85,64.8,164.82Zm24,1.84c.07.44,0,.52-.47,1s-.72,1.7-.25,3.08a4.05,4.05,0,0,1,.25.86c-.67.67-2.42-3.55-2-4.81.5-1.5,2.15-1.53,2.48-.16Zm-38.45.18a1.4,1.4,0,0,1,1.26,1.05c.72,2,.28,4.52-.46,2.2a4.51,4.51,0,0,0-.78-1.29c-.26-.28-.84-.6-.83-1a.89.89,0,0,1,.81-.92Zm15,.06a4.77,4.77,0,0,1,1.39.45c.64.26,2.43.86,3.45,1.25,1.58.61,3.24,1.42,3.24,1.42l-3.58-.2s-1.22-.41-1.94-.71C65.31,168,65.46,168,64.15,169c-.47.36-1.05.93-1.05.93l-1.82.1a17.28,17.28,0,0,1,2.09-1.84c.41-.3,1-.73,1.22-1A1.13,1.13,0,0,1,65.39,166.9Zm28,.71A1.28,1.28,0,0,1,94.91,169a1.87,1.87,0,0,1-1.6,1.48,11.24,11.24,0,0,0-.43,4.88c.26,1.16-.23,1.19-.73.07C91.33,173.59,90.15,168.23,93.43,167.61Zm-2.85,2a4,4,0,0,0-.34,2.78c.26,1.27.31,1.58-.41.79-1.4-1.87-1.6-4.83-.31-5.18S91,169,90.58,169.6Zm-41.81-1.39c2.18.34,2.82,4.06,2.51,5.66-.58,1.93-.55.63-.75-.18-.54-1.94-1.16-3-1.82-3.1-1.79-.3-1.54-2.63.05-2.37Zm16.68.73h.1c.72.12,2.63.71,1.81.91l-2.83,0c-.55,0,.36-.9.92-.94Zm76.23.61c.27,0,.65.3,1.09.75,1,1,.57,2.65-.8,3.45a2.45,2.45,0,0,1-3.39-3.29c.64-1.19,1.42-1,2.08.7.12.2,0-.21.22-.72s.52-.87.8-.9Zm-3.58.12-.64,2.59-2.6,1.25,1-3.19Zm5.41.44,2.07.17,1.15,3.36-3-1.28Zm-49,1.9c1.51.06,1.66,1.49.8,2.12a2.52,2.52,0,0,0-.55,2.22c0,.48.14,1.07.13,1.13,0,.23-.21.19-.46-.09C92.83,175.65,93,171.95,94.51,172Zm-45.63.56c1,0,2,2.75,1.51,3.8-.34.62-.66.46-.78-.25a1.52,1.52,0,0,0-1.16-1.36C47.32,174.4,47.68,172.57,48.88,172.57Zm48.39,1.66a1,1,0,0,1,.14,1.69c-.51.37-.65.67-.73,1.67.17,2.26-1.1.82-1.21-1.23C95.4,175.25,96,173.59,97.26,174.23Zm-49.19.69c.69,0,1.5,1.24,1.32,2s-.39.47-.81,0a2.66,2.66,0,0,0-.7-.31.85.85,0,0,1,.19-1.69Zm19.5.95c9.27,0,18.92,1.43,26.94,4.64l-.66,1.19-2.1-.72L91,182.9l1.73.66-.82,1.77c-9.46-3.12-19.67-5.45-36.63-2.93-.84-.59-2.36-1.75-2.36-1.75l1.36-.3-.18-1.89-3.43.61-1-1a74.33,74.33,0,0,1,17.87-2.15Zm31.1.41c.89,0,1.44,1,.79,1.43-.46.3-1.47.38-1.67.14C97.37,177.35,98,176.29,98.68,176.29Zm-32.41,1.17,0,2,2.8-.09.06-1.86Zm4.88,0v1.92l2.71.09.13-1.89Zm-7.1.13-2.75.18.08,1.8,2.72-.12Zm12.28.3-.07,1.86,2.76.31.2-1.89ZM58.94,178l-2.76.35.24,1.85,2.68-.3Zm22.72.6-.27,1.94,2.58.38.33-1.84Zm5.11,1.08-.25,2,2.62.56.35-1.82ZM68.23,182a65.44,65.44,0,0,1,23.29,4,11.29,11.29,0,0,1-1.17,2.07,61.75,61.75,0,0,0-18.46-3.8,9.65,9.65,0,0,1-3.21-.39c-4.2-1.39-7.91-2-11.33.06l-1.4-1a78.57,78.57,0,0,1,12.29-1ZM31.51,193.14c2,0,2.94,3.08.83,4.37a2.15,2.15,0,0,1-1.9,0,2.32,2.32,0,0,1,1.07-4.37Zm65,.1c.71.44,3.34,1.6,3.34,1.6L81.37,228.32l-4.47,0Zm-59.55.08a2.27,2.27,0,1,1-.08,4.53C34.62,197.72,33.62,193.69,36.94,193.32Zm63.5,1.74c.5.27,2.29.57,2.45.92a3.91,3.91,0,0,1-.11,1,5,5,0,0,0,.81,3.19c1.05,1.47-.09.79-1.14.78-2.37-.61-5.4,2.63-4.25,6,.26.74.21.8-1.06,1.19a4.63,4.63,0,0,0-2.76,6.7c.72,1.43.74,1.36-.53,1.46-3.53.29-5.58,3.44-4.1,6.65.23.5.08.63-.69.78-2.41.44-3.49,2.47-3.8,4.69l-3.19,0Zm3.06,1.18,6.13,1.68c-2.54,8.68-2.9,18.76.17,30.43H95.7c2-1.76,1.18-4.2-1.1-4.73,2.22-1.28,2.22-4.68-.44-5.09-2.34-.36-3.55,1.87-2.51,4.11l-1,.27a4.44,4.44,0,0,1-.55-.86c-.88-2.58,1-5.14,4.11-5.13,1.94,0,2.34-.55,1.27-1.74a3.91,3.91,0,0,1,1.19-6.33,2.14,2.14,0,0,1,1.83-.18l.06,1.42s-.47,0-.83.1c-2.77.44-2.25,4.87.56,4.83a2.69,2.69,0,0,0,2.66-2.89v-1.18c1.42,2.44,3.86,2.61,4.9.63,1.22-2.34-1-3.8-3.22-3.56,0,0,.47-.3.76-.46a2.48,2.48,0,1,0-3.34-1.26,7.86,7.86,0,0,0,.31.74l-1.07.27a1.82,1.82,0,0,1-.35-.36c-1.84-2.88,1.11-6,4.83-5.33,1.36.43,1.32-.52.55-1.37-.82-1.23-1.43-2.62-.83-4ZM34.23,197.5l3.22,5.69-3.6,6.55-3.57-6.14Zm-.32,3-2.23,3.08,2.19,3.54,2.07-3.58Zm-.1,1.16,1.45,2L33.81,206l-1.43-2.25Zm66.48,6.14A1.23,1.23,0,1,1,99.07,209,1.23,1.23,0,0,1,100.3,207.76Zm-8.66,15.42a1.27,1.27,0,1,1-1.27,1.27A1.27,1.27,0,0,1,91.64,223.18Zm-1.92.87a2.72,2.72,0,0,0,.28,1.61c-1.83.11-2.31,1.52-2.49,2.7H85.87c.27-4,3.73-4.1,3.85-4.31Z"/><path id="path153-6-3-1-9-55-1-6" d="M48.16,26.57C40.82,37.06,33,43.1,32.82,51.29c0,2.65,1.39,7.16,5.87,8,2.91.56,6.91-1.8,7-6.59,0-1,1-.93,1,.38a27.22,27.22,0,0,1-3.34,11.75H53a27.2,27.2,0,0,1-3.34-11.75c0-1.31,1-1.33,1-.38.08,4.79,4.09,7.15,7,6.59,4.48-.86,5.91-5.37,5.87-8-.13-8.19-8-14.22-15.34-24.71Z"/><path id="path153-6-3-1-8-6-8-8-0" d="M130.62,223.08c-7.35-10.49-15.21-16.53-15.34-24.72,0-2.65,1.39-7.16,5.87-8,2.91-.56,6.91,1.8,7,6.59,0,1,1,.93,1-.38a27.2,27.2,0,0,0-3.34-11.75h9.62a27.2,27.2,0,0,0-3.34,11.75c0,1.31,1,1.33,1,.38.08-4.79,4.09-7.15,7-6.59,4.48.86,5.91,5.37,5.87,8-.13,8.19-8,14.22-15.34,24.72Z"/></g></g></g></svg>